<?xml version="1.0" encoding="UTF-8"?>
<!DOCTYPE svg PUBLIC "-//W3C//DTD SVG 1.1//EN" "http://www.w3.org/Graphics/SVG/1.1/DTD/svg11.dtd">
<!-- Creator: CorelDRAW X6 -->
<svg xmlns="http://www.w3.org/2000/svg" xml:space="preserve" width="6.6886mm" height="5.08mm" version="1.1" style="shape-rendering:geometricPrecision; text-rendering:geometricPrecision; image-rendering:optimizeQuality; fill-rule:evenodd; clip-rule:evenodd"
viewBox="0 0 669 508"
 xmlns:xlink="http://www.w3.org/1999/xlink">
 <defs>
  <style type="text/css">
   <![CDATA[
    .str2 {stroke:#302D2D;stroke-width:105.83;stroke-linecap:round;stroke-linejoin:round;stroke-opacity:0.200000}
    .str0 {stroke:#302D2D;stroke-width:105.83;stroke-linecap:round;stroke-linejoin:round}
    .str3 {stroke:#302D2D;stroke-width:141.11;stroke-linecap:round;stroke-linejoin:round;stroke-dasharray:423.300000 1100.580000;stroke-opacity:0.200000}
    .str1 {stroke:#302D2D;stroke-width:141.11;stroke-linecap:round;stroke-linejoin:round;stroke-dasharray:423.300000 1100.580000}
    .fil7 {fill:none;fill-rule:nonzero}
    .fil31 {fill:none;fill-rule:nonzero}
    .fil32 {fill:#DFD2DA}
    .fil33 {fill:#CABEC5}
    .fil35 {fill:#3E4A55;fill-rule:nonzero}
    .fil34 {fill:#75B98D;fill-rule:nonzero}
    .fil19 {fill:#00D9CE;fill-rule:nonzero}
    .fil20 {fill:#04C4D5;fill-rule:nonzero}
    .fil3 {fill:#231F20;fill-rule:nonzero}
    .fil23 {fill:#297391;fill-rule:nonzero}
    .fil14 {fill:#302D2D;fill-rule:nonzero}
    .fil37 {fill:#37474F;fill-rule:nonzero}
    .fil21 {fill:#474747;fill-rule:nonzero}
    .fil22 {fill:#4C4949;fill-rule:nonzero}
    .fil2 {fill:#4C4C4C;fill-rule:nonzero}
    .fil11 {fill:#523C60;fill-rule:nonzero}
    .fil29 {fill:#633900;fill-rule:nonzero}
    .fil13 {fill:#645B75;fill-rule:nonzero}
    .fil0 {fill:#666666;fill-rule:nonzero}
    .fil1 {fill:#697271;fill-rule:nonzero}
    .fil27 {fill:#6DAF75;fill-rule:nonzero}
    .fil25 {fill:#70DDE0;fill-rule:nonzero}
    .fil18 {fill:#71BDC1;fill-rule:nonzero}
    .fil15 {fill:#86CBED;fill-rule:nonzero}
    .fil10 {fill:#92E1B5;fill-rule:nonzero}
    .fil26 {fill:#A0804D;fill-rule:nonzero}
    .fil12 {fill:#A391C3;fill-rule:nonzero}
    .fil24 {fill:#C94C27;fill-rule:nonzero}
    .fil8 {fill:lightgrey;fill-rule:nonzero}
    .fil30 {fill:#E8CF69;fill-rule:nonzero}
    .fil17 {fill:#EBB167;fill-rule:nonzero}
    .fil9 {fill:#EE7046;fill-rule:nonzero}
    .fil5 {fill:#F15A24;fill-rule:nonzero}
    .fil28 {fill:#F2D0D3;fill-rule:nonzero}
    .fil4 {fill:whitesmoke;fill-rule:nonzero}
    .fil16 {fill:#FBB03B;fill-rule:nonzero}
    .fil6 {fill:#FBD260;fill-rule:nonzero}
    .fil39 {fill:#67C3CE;fill-rule:nonzero}
    .fil36 {fill:#E06A75;fill-rule:nonzero}
    .fil38 {fill:#F1A7AC;fill-rule:nonzero}
   ]]>
  </style>
 </defs>
<symbol id="Fm1-25-0" viewBox="14269 -9477 4556 436">
 <polygon class="fil0" points="18216,-9477 18368,-9477 18368,-9041 18216,-9041 "/>
 <polygon class="fil1" points="16105,-9477 18216,-9477 18216,-9041 16105,-9041 "/>
 <polygon class="fil0" points="15829,-9477 16105,-9477 16105,-9041 15829,-9041 "/>
 <polygon class="fil1" points="14874,-9477 15829,-9477 15829,-9041 14874,-9041 "/>
 <polygon class="fil0" points="14613,-9477 14874,-9477 14874,-9041 14613,-9041 14613,-9117 14613,-9402 "/>
 <polygon class="fil2" points="18368,-9477 18824,-9259 18368,-9041 "/>
 <polygon class="fil2" points="14269,-9402 14613,-9402 14613,-9117 14269,-9117 "/>
</symbol>
<symbol id="Fm12-29-0" viewBox="20860 -8459 4714 4815">
 <path class="fil3" d="M24145 -7455c-238,-57 -454,-142 -645,-238 -10,-11 -11,-6 -11,-6 -6,-3 -13,-6 -19,-10 -474,-234 -969,-751 -969,-751l181 656c-2609,203 -1930,1688 -929,2431 17,13 34,26 52,39 17,14 35,27 53,40 17,13 34,26 51,39 17,14 35,27 53,40 17,13 34,26 51,39 17,13 35,27 52,40 17,13 34,26 52,39 17,13 34,26 52,39 17,13 35,27 52,40 17,13 34,26 51,39 17,14 35,27 53,40 17,13 34,26 51,39 18,14 35,27 53,40 17,13 34,26 52,39 17,13 34,26 51,39 17,13 35,27 52,40 17,13 35,27 52,40 17,14 35,27 52,40 17,13 34,26 51,39 17,13 34,27 52,39 17,13 34,26 51,39 18,14 35,27 53,40 17,13 35,26 52,39 17,13 34,26 51,39 17,13 34,26 51,39 17,13 35,27 52,40 17,14 35,27 53,40 17,13 34,26 51,39 17,13 35,27 53,40 17,13 34,26 51,39 17,13 35,27 52,39 17,14 35,27 53,40 17,13 34,26 51,39 17,13 35,27 52,39 17,13 34,26 51,39 17,14 35,27 53,40 17,13 35,27 52,40 17,13 34,26 51,39 17,14 35,27 52,40 17,13 34,26 51,39 17,14 35,27 53,40 17,13 34,26 51,39 17,13 35,27 52,40 15,11 29,22 44,33l73 0c815,0 1475,-660 1475,-1475l0 -1237c-699,-531 -1438,-1097 -1429,-1099z"/>
</symbol>
<symbol id="Fm11-45-0" viewBox="2023 -7080 2330 1497">
 <path class="fil4" d="M2636 -6010l-391 0 0 217 391 0 0 -217zm0 217zm1718 -641l0 639c0,117 -95,212 -212,212l-1906 0c-116,0 -212,-95 -212,-212l0 -639 2330 0z"/>
 <polygon class="fil5" points="4353,-6434 2023,-6434 2023,-6751 4353,-6751 "/>
 <path class="fil4" d="M4353 -6868l0 116 -2330 0 0 -116c0,-116 95,-212 212,-212l1906 0c116,0 212,95 212,212z"/>
 <polygon class="fil6" points="2636,-5793 2244,-5793 2244,-6010 2636,-6010 "/>
</symbol>
<symbol id="Fm0-28-0" viewBox="1872 -21303 8322 8732">
 <path class="fil7 str0" d="M1924 -16937c0,-2382 1839,-4313 4108,-4313 2269,0 4108,1931 4108,4313 0,2382 -1839,4313 -4108,4313 -2269,0 -4108,-1931 -4108,-4313z"/>
</symbol>
<symbol id="Fm6-41-0" viewBox="24107 -17240 693 693">
 <path class="fil8" d="M24107 -16893c0,-192 155,-347 347,-347 191,0 347,155 347,347 0,191 -155,347 -347,347 -192,0 -347,-155 -347,-347z"/>
</symbol>
<symbol id="Fm3-35-0" viewBox="4171 -17021 3009 4004">
 <polygon class="fil4" points="7180,-16628 7180,-13182 6918,-13182 6918,-14601 6918,-14905 6918,-15191 6918,-16628 "/>
 <path class="fil9" d="M6918 -13182l0 165 -2747 0 0 -1888 1097 0c53,150 175,303 448,303l1203 0 0 1420z"/>
 <path class="fil0" d="M6918 -14905l0 303 -1203 0c-273,0 -395,-153 -448,-303l1651 0z"/>
 <path class="fil0" d="M6918 -15191l0 286 -1651 0c-51,-144 -40,-286 -40,-286l1691 0z"/>
 <path class="fil10" d="M6918 -16628l0 1437 -1691 0c0,0 -12,141 40,286l-1097 0 0 -1888 386 0 0 991 296 -167 296 167 0 -991 1769 0 0 165z"/>
 <path class="fil11" d="M4957 -16272l104 -101 -144 -21 -65 -130 -64 130 -144 21 104 101 -24 144 129 -68 129 68 -25 -144zm192 -521l0 991 -296 -167 -296 167 0 -991 592 0z"/>
 <polygon class="fil11" points="5149,-16793 4557,-16793 4557,-17021 5149,-17021 "/>
 <polygon class="fil4" points="5061,-16374 4957,-16272 4982,-16129 4853,-16197 4724,-16129 4749,-16272 4645,-16374 4789,-16395 4853,-16525 4918,-16395 "/>
</symbol>
<symbol id="Fm11-29-0" viewBox="11389 -22221 393 3488">
 <polygon class="fil1" points="11586,-18732 11389,-19153 11433,-19454 11738,-19454 11782,-19153 "/>
 <polygon class="fil12" points="11771,-22017 11771,-20773 11738,-20773 11433,-20773 11400,-20773 11400,-22017 11433,-22017 11738,-22017 "/>
 <polygon class="fil13" points="11738,-19454 11433,-19454 11433,-19666 11738,-19666 "/>
 <polygon class="fil12" points="11738,-19666 11433,-19666 11433,-20773 11738,-20773 "/>
 <polygon class="fil1" points="11738,-22221 11738,-22017 11433,-22017 11433,-22083 11433,-22221 "/>
</symbol>
<symbol id="Fm2-26-0" viewBox="18707 -5856 322 3345">
 <polygon class="fil5" points="19029,-2885 18707,-2885 18707,-5191 19029,-5191 "/>
 <polygon class="fil14" points="19029,-5279 19029,-5191 18707,-5191 18707,-5536 18762,-5536 18974,-5536 19029,-5536 "/>
 <polygon class="fil1" points="19029,-2885 18869,-2511 18707,-2885 "/>
 <polygon class="fil1" points="18974,-5536 18762,-5536 18762,-5856 18974,-5856 "/>
</symbol>
<symbol id="Symbol1" viewBox="16093 -25249 3645 5447">
 <polygon class="fil15" points="19738,-19801 16093,-19801 16093,-25249 19738,-25249 "/>
</symbol>
<symbol id="Fm9-40-0" viewBox="23912 -16686 1715 1715">
 <polygon class="fil1" points="25628,-14971 25337,-15076 25216,-15239 25359,-15382 25522,-15261 "/>
 <polygon class="fil12" points="24167,-16606 24754,-16020 24738,-16004 24594,-15860 24579,-15845 23993,-16431 24008,-16447 24152,-16590 "/>
 <polygon class="fil13" points="25259,-15482 25359,-15382 25216,-15239 25116,-15339 "/>
 <polygon class="fil12" points="24738,-16004 25259,-15482 25116,-15339 24594,-15860 "/>
 <polygon class="fil1" points="24056,-16686 24152,-16590 24008,-16447 23977,-16478 23912,-16542 "/>
</symbol>
<symbol id="Fm1-52-0" viewBox="17935 -9839 7732 8110">
 <path class="fil7 str1" d="M18006 -5784c0,-2201 1699,-3985 3796,-3985 2096,0 3796,1784 3796,3985 0,2201 -1699,3985 -3796,3985 -2096,0 -3796,-1784 -3796,-3985z"/>
</symbol>
<symbol id="Fm2-40-0" viewBox="20422 -19702 5272 5529">
 <path class="fil7 str0" d="M20474 -16937c0,-1498 1156,-2712 2583,-2712 1427,0 2583,1214 2583,2712 0,1498 -1156,2712 -2583,2712 -1426,0 -2583,-1214 -2583,-2712z"/>
</symbol>
<symbol id="Fm0-36-0" viewBox="18969 -21227 8177 8579">
 <path class="fil7 str0" d="M19022 -16937c0,-2340 1807,-4237 4036,-4237 2229,0 4036,1897 4036,4237 0,2340 -1807,4237 -4036,4237 -2229,0 -4036,-1897 -4036,-4237z"/>
</symbol>
<symbol id="Fm5-39-0" viewBox="23820 -17439 1612 2569">
 <path class="fil16" d="M25432 -16527c0,199 -106,412 -257,676 -127,222 -110,414 -110,414l-189 0 147 -939 -105 0 -79 165 -60 -165 -73 163 -80 -163 -80 163 -74 -163 -60 165 -79 -165 -105 0 147 939 -189 0c0,0 17,-192 -110,-414 -151,-265 -257,-477 -257,-676 0,-199 24,-913 806,-913 782,0 806,713 806,913z"/>
 <polygon class="fil4" points="24142,-15297 24142,-15436 24187,-15436 24376,-15436 24876,-15436 25065,-15436 25110,-15436 25110,-15020 25026,-15020 24226,-15020 24142,-15020 24142,-15163 "/>
 <polygon class="fil1" points="25026,-14870 24226,-14870 24226,-15020 25026,-15020 "/>
 <polygon class="fil16" points="25023,-16375 24876,-15436 24376,-15436 24229,-16375 24334,-16375 24412,-16210 24473,-16375 24546,-16212 24626,-16375 24706,-16212 24780,-16375 24840,-16210 24918,-16375 "/>
</symbol>
<symbol id="Fm12-31-0" viewBox="22318 -12737 1338 2111">
 <path class="fil4" d="M23655 -11932l0 701c0,155 -59,310 -178,429 -118,118 -273,177 -429,177l-125 0c-155,0 -310,-59 -429,-177 -118,-119 -177,-273 -177,-429l0 -701 669 0 669 0z"/>
 <path class="fil17" d="M23655 -12373l0 441 -669 0 0 -127 83 0 0 -331 -83 0 0 -346 305 0c93,0 186,35 257,107 71,71 107,164 107,257z"/>
 <polygon class="fil10" points="23070,-12059 22987,-12059 22987,-12390 23070,-12390 "/>
 <path class="fil17" d="M22987 -12059l0 127 -669 0 0 -441c0,-93 36,-186 107,-257 71,-71 164,-107 257,-107l305 0 0 346 -83 0 0 331 83 0z"/>
 <polygon class="fil10" points="22987,-12059 22904,-12059 22904,-12390 22987,-12390 "/>
</symbol>
<symbol id="Fm1-60-0" viewBox="3822 -9291 6871 7138">
 <path class="fil7 str1" d="M3892 -5716c0,-1951 1507,-3533 3365,-3533 1858,0 3365,1582 3365,3533 0,1951 -1507,3533 -3365,3533 -1858,0 -3365,-1582 -3365,-3533z"/>
</symbol>
<symbol id="Fm0-58-0" viewBox="3161 -10014 8193 8596">
 <path class="fil7 str0" d="M3214 -5716c0,-2344 1810,-4245 4044,-4245 2233,0 4044,1901 4044,4245 0,2344 -1810,4245 -4044,4245 -2233,0 -4044,-1900 -4044,-4245z"/>
</symbol>
<symbol id="Fm1-38-0" viewBox="19628 -20506 6858 7120">
 <path class="fil7 str1" d="M19699 -16937c0,-1947 1504,-3526 3359,-3526 1855,0 3359,1579 3359,3526 0,1947 -1504,3526 -3359,3526 -1855,0 -3359,-1579 -3359,-3526z"/>
</symbol>
<symbol id="Fm2-32-0" viewBox="3350 -19751 5365 5627">
 <path class="fil7 str0" d="M3403 -16937c0,-1525 1177,-2760 2629,-2760 1452,0 2629,1236 2629,2760 0,1525 -1177,2760 -2629,2760 -1452,0 -2629,-1236 -2629,-2760z"/>
</symbol>
<symbol id="Fm0-19-0" viewBox="148795 -117979 9758 9758">
 <path class="fil18" d="M157540 -116076c-1644,-2135 -4707,-2534 -6842,-890 -2135,1644 -2533,4707 -889,6842 1644,2135 4707,2533 6842,890 2135,-1644 2533,-4707 890,-6842z"/>
</symbol>
<symbol id="Fm0-23-0" viewBox="12929 -8633 6664 3510">
 <path class="fil0" d="M19154 -5754l0 -2248c0,-161 -132,-292 -292,-292l-4004 0 -731 0 -468 0c-161,0 -292,132 -292,292l0 2248c0,161 132,292 292,292l468 0 731 0 4004 0c161,0 292,-131 292,-292zm438 -2587l0 2926c0,161 -132,292 -292,292l-6079 0c-161,0 -292,-132 -292,-292l0 -2926c0,-161 132,-292 292,-292l6079 0c161,0 292,132 292,292z"/>
 <path class="fil2" d="M19154 -8002l0 2248c0,161 -132,292 -292,292l-4004 0 0 -1261 0 -312 0 -1261 4004 0c161,0 292,131 292,292z"/>
 <polygon class="fil1" points="14858,-5462 14127,-5462 14127,-6722 14858,-6722 "/>
 <polygon class="fil19" points="14858,-6722 14127,-6722 14127,-7034 14858,-7034 "/>
 <polygon class="fil1" points="14858,-7034 14127,-7034 14127,-8294 14858,-8294 "/>
 <path class="fil2" d="M14127 -6722l0 1261 -468 0c-161,0 -292,-131 -292,-292l0 -2248c0,-161 132,-292 292,-292l468 0 0 1261 0 312z"/>
</symbol>
<symbol id="Fm7-36-0" viewBox="14769 -15591 3648 3648">
 <path class="fil4" d="M17898 -13767c0,-720 -584,-1304 -1304,-1304 -720,0 -1304,584 -1304,1304 0,720 584,1304 1304,1304 720,0 1304,-584 1304,-1304zm-1304 -1824c1008,0 1824,816 1824,1824 0,1008 -816,1824 -1824,1824 -1008,0 -1824,-816 -1824,-1824 0,-1008 816,-1824 1824,-1824z"/>
 <path class="fil5" d="M16593 -15071c720,0 1304,584 1304,1304 0,720 -584,1304 -1304,1304 -720,0 -1304,-584 -1304,-1304 0,-720 584,-1304 1304,-1304z"/>
</symbol>
<symbol id="Fm3-28-0" viewBox="15448 -6147 2465 3927">
 <polygon class="fil16" points="17913,-5547 17913,-2219 15448,-2219 15448,-5547 16087,-5547 16087,-5162 15733,-5162 15733,-2604 17628,-2604 17628,-5162 17274,-5162 17274,-5547 "/>
 <path class="fil20" d="M16228 -4778l-280 0 0 280 280 0 0 -280zm0 280zm0 222l-280 0 0 280 280 0 0 -280zm0 281zm0 222l-280 0 0 280 280 0 0 -280zm0 280zm0 222l-280 0 0 280 280 0 0 -280zm0 280zm1401 -2173l0 2557 -1895 0 0 -2557 354 0 0 62 593 0 594 0 0 -62 354 0z"/>
 <polygon class="fil1" points="17274,-5162 17274,-5100 16681,-5100 16087,-5100 16087,-5162 "/>
 <polygon class="fil1" points="17274,-5162 16087,-5162 16087,-5547 17274,-5547 "/>
 <path class="fil1" d="M16754 -5930c0,-41 -33,-74 -74,-74 -40,0 -73,33 -73,74 0,40 33,74 73,74 41,0 74,-33 74,-74zm520 220l0 164 -1187 0 0 -164 339 0c0,0 -34,-436 254,-436 289,0 255,436 255,436l339 0z"/>
 <path class="fil14" d="M16681 -6004c41,0 74,33 74,74 0,40 -33,74 -74,74 -40,0 -73,-33 -73,-74 0,-41 33,-74 73,-74z"/>
 <polygon class="fil4" points="16228,-2989 15947,-2989 15947,-3270 16228,-3270 "/>
 <polygon class="fil4" points="16228,-3492 15947,-3492 15947,-3772 16228,-3772 "/>
 <polygon class="fil4" points="16228,-3995 15947,-3995 15947,-4275 16228,-4275 "/>
 <polygon class="fil5" points="16228,-4498 15947,-4498 15947,-4778 16228,-4778 "/>
</symbol>
<symbol id="Fm7-71-0" viewBox="21591 -16087 2392 2392">
 <path class="fil20" d="M21830 -14493l280 0c-22,-101 -35,-208 -40,-319l-317 0c9,113 35,219 76,319zm280 -797l-280 0c-41,99 -68,206 -76,319l317 0c5,-111 18,-219 40,-319zm230 1334c-78,-102 -142,-231 -189,-377l-238 0c103,162 251,293 427,377zm-188 -1493c46,-146 110,-275 188,-377 -175,83 -323,215 -427,377l239 0zm555 0l0 -468c-164,44 -305,220 -391,468l391 0zm0 479l0 -319 -436 0c-22,99 -37,206 -41,319l477 0zm0 478l0 -319 -477 0c5,113 19,219 41,319l436 0zm0 628l0 -468 -391 0c86,248 227,424 391,468zm549 -468l-391 0 0 468c165,-44 305,-220 391,-468zm-391 -1117l391 0c-86,-248 -226,-424 -391,-468l0 468zm477 638l-477 0 0 319 436 0c23,-100 37,-206 41,-319zm-477 -159l477 0c-5,-113 -18,-220 -41,-319l-436 0 0 319zm794 638l-238 0c-47,146 -112,274 -189,377 175,-83 323,-215 427,-377zm-238 -1117l238 0c-104,-162 -251,-293 -427,-377 78,102 142,231 189,377zm397 638l-317 0c-5,111 -18,218 -40,319l280 0c41,-100 68,-206 76,-319zm-317 -159l317 0c-8,-113 -35,-220 -76,-319l-280 0c22,100 35,208 40,319zm480 0l0 159 -3 0c-39,597 -516,1074 -1114,1113l0 3 -159 0 0 -3c-597,-39 -1074,-516 -1114,-1113l-2 0 0 -159 2 0c40,-597 517,-1074 1114,-1114l0 -2 159 0 0 2c597,40 1075,517 1114,1114l3 0z"/>
</symbol>
<symbol id="Fm2-62-0" viewBox="4617 -8486 5282 5540">
 <path class="fil7 str0" d="M4670 -5716c0,-1500 1159,-2717 2588,-2717 1429,0 2588,1216 2588,2717 0,1500 -1159,2717 -2588,2717 -1429,0 -2588,-1216 -2588,-2717z"/>
</symbol>
<symbol id="Fm10-27-0" viewBox="2965 -21024 3378 1978">
 <polygon class="fil4" points="6343,-19703 6343,-19384 6198,-19331 6198,-19684 6198,-19730 "/>
 <path class="fil11" d="M5935 -20928l407 1225 -145 -53 0 26 -4 -1c-9,-51 -33,-100 -73,-139 -30,-30 -65,-51 -102,-63l-189 -861c-167,-50 -219,-230 -219,-230l324 96z"/>
 <polygon class="fil4" points="6343,-19703 6198,-19730 6198,-19756 "/>
 <path class="fil9" d="M6016 -19361l0 -272c0,-49 -19,-98 -56,-135 -37,-37 -86,-56 -135,-56l-585 0c-49,0 -98,19 -135,56 -37,37 -56,86 -56,135l0 81c0,98 37,195 112,270 75,74 172,112 270,112l394 0c49,0 98,-19 135,-56 37,-37 56,-86 56,-135zm183 29l0 22c0,67 -26,135 -77,186 -52,51 -119,77 -186,77l-543 0c-135,0 -269,-51 -372,-154 -103,-103 -154,-237 -154,-372l0 -109c14,11 21,19 21,19l0 -124c13,-30 32,-59 56,-84 51,-51 119,-77 186,-77l806 0c28,0 57,5 84,14l39 177 136 25c3,15 4,31 4,47l0 353z"/>
 <path class="fil9" d="M6194 -19731l-136 -25 -39 -177c37,12 72,34 102,63 39,39 64,88 73,139z"/>
 <path class="fil20" d="M6016 -19632l0 272c0,49 -19,98 -56,135 -37,37 -86,56 -135,56l-394 0c-98,0 -195,-37 -270,-112 -74,-75 -112,-172 -112,-270l0 -81c0,-49 19,-98 56,-135 37,-37 86,-56 135,-56l585 0c49,0 98,19 135,56 37,37 56,86 56,135z"/>
 <path class="fil4" d="M4887 -19786l0 124c0,0 -7,-8 -21,-19l0 -3c0,-35 7,-70 21,-102z"/>
 <path class="fil17" d="M4887 -19788l0 2c-14,33 -21,67 -21,102l0 3c-35,-29 -111,-80 -213,-80 -101,0 -177,50 -212,79l0 -2c0,-35 -7,-71 -22,-104 0,0 93,-99 234,-99 141,0 234,99 234,99z"/>
 <path class="fil9" d="M4258 -19552l0 -81c0,-49 -18,-98 -56,-135 -37,-37 -86,-56 -135,-56l-585 0c-49,0 -98,19 -135,56 -37,37 -56,86 -56,135l0 272c0,49 19,98 56,135 37,37 86,56 135,56l394 0c98,0 195,-37 270,-112 75,-75 112,-172 112,-270zm183 -131l0 110c0,135 -52,269 -154,372 -103,102 -237,154 -372,154l-543 0c-67,0 -135,-26 -186,-77 -51,-52 -77,-119 -77,-186l0 -22 0 -353c0,-16 1,-31 4,-47l136 -25 39 -177c27,-9 55,-14 84,-14l806 0c67,0 134,26 186,77 24,24 43,52 55,82l0 125c0,0 8,-8 22,-19z"/>
 <path class="fil4" d="M4441 -19684l0 2c-14,12 -22,19 -22,19l0 -125c14,33 22,68 22,104z"/>
 <path class="fil20" d="M4258 -19632l0 81c0,98 -37,195 -112,270 -74,74 -172,112 -270,112l-394 0c-49,0 -98,-19 -135,-56 -37,-37 -56,-86 -56,-135l0 -272c0,-49 19,-98 56,-135 37,-37 86,-56 135,-56l585 0c49,0 98,19 135,56 37,37 56,86 56,135z"/>
 <path class="fil11" d="M3372 -20928l324 -96c0,0 -53,180 -219,230l-189 861c-37,13 -72,34 -102,63 -39,39 -64,88 -73,139l-4 1 0 -26 -145 53 407 -1225z"/>
 <path class="fil9" d="M3288 -19933l-39 177 -136 25c9,-51 33,-100 73,-139 30,-30 65,-51 102,-63z"/>
 <polygon class="fil4" points="3109,-19684 3109,-19331 2965,-19384 2965,-19703 3109,-19730 "/>
 <polygon class="fil4" points="3109,-19756 3109,-19730 2965,-19703 "/>
</symbol>
<symbol id="Fm4-30-0" viewBox="11433 -25495 9917 8259">
 <path class="fil4" d="M16623 -18921c0,-128 -104,-232 -232,-232 -128,0 -232,104 -232,232 0,128 104,232 232,232 128,0 232,-104 232,-232zm4727 -489l0 634c0,340 -278,619 -619,619l-3549 0 -1583 0 -3548 0c-340,0 -619,-278 -619,-619l0 -634 9913 0 4 0z"/>
 <path class="fil21" d="M20786 -24845l-8790 0 0 4915 8790 0 0 -4915zm0 4915zm564 -4946l0 5466 -4 0 -9913 0 0 -5466c0,-340 278,-619 619,-619l8680 0c340,0 619,278 619,619z"/>
 <polygon class="fil20" points="20786,-19930 11996,-19930 11996,-24845 20786,-24845 "/>
 <path class="fil4" d="M18080 -17236l-1688 0 -1689 0c681,-278 897,-922 897,-922l1583 0c0,0 217,643 897,922z"/>
 <path class="fil5" d="M16391 -19153c128,0 232,104 232,232 0,128 -104,232 -232,232 -128,0 -232,-104 -232,-232 0,-128 104,-232 232,-232z"/>
</symbol>
<symbol id="Fm10-24-0" viewBox="21107 -10144 3429 3250">
 <polygon class="fil20" points="24536,-8573 24536,-7907 24464,-7907 24309,-7907 24309,-8573 "/>
 <polygon class="fil22" points="24309,-7907 24309,-7780 23843,-7780 23843,-8700 23928,-8700 24229,-8700 24309,-8700 24309,-8573 "/>
 <path class="fil5" d="M24230 -8739c0,12 -1,25 -1,38l-301 0c0,-13 2,-26 2,-38 0,-611 -495,-1105 -1105,-1105 -611,0 -1105,495 -1105,1105 0,12 1,25 2,38l-301 0c0,-13 -1,-26 -1,-38 0,-777 629,-1406 1405,-1406 776,0 1406,629 1406,1406z"/>
 <polygon class="fil19" points="23872,-7033 23872,-6895 23268,-6895 23268,-7171 23872,-7171 "/>
 <polygon class="fil22" points="21799,-8700 21799,-7780 21334,-7780 21334,-7907 21334,-8573 21334,-8700 21420,-8700 21721,-8700 "/>
 <polygon class="fil20" points="21334,-7907 21107,-7907 21107,-8573 21334,-8573 "/>
</symbol>
<symbol id="Fm7-41-0" viewBox="29820 -15603 4006 3901">
 <path class="fil3" d="M33793 -13589c-8,-7 -17,-14 -26,-20 -8,-7 -17,-14 -26,-20 -8,-7 -17,-14 -26,-20 -8,-7 -17,-14 -26,-20 -8,-7 -17,-14 -26,-20 -8,-7 -17,-14 -26,-20 -8,-7 -17,-14 -26,-20 -9,-7 -17,-14 -27,-20 -8,-7 -17,-14 -26,-20 -8,-7 -17,-14 -26,-20 -8,-7 -17,-14 -26,-20 -8,-7 -17,-14 -26,-20 -8,-7 -17,-14 -26,-20 -8,-7 -17,-14 -26,-20 -8,-7 -17,-14 -26,-20 -8,-7 -17,-14 -26,-20 -8,-7 -17,-14 -26,-20 -8,-7 -17,-14 -26,-20 -8,-7 -17,-14 -26,-20 -8,-7 -17,-14 -26,-20 -8,-7 -17,-14 -26,-20 -8,-7 -17,-14 -26,-20 -8,-7 -17,-14 -26,-20 -8,-7 -17,-14 -26,-20 -8,-7 -17,-14 -26,-20 -8,-7 -17,-14 -26,-20 -8,-7 -17,-14 -26,-20 -8,-7 -17,-14 -26,-20 -8,-7 -17,-14 -26,-20 -9,-7 -17,-14 -26,-20 -8,-7 -17,-14 -26,-20 -8,-7 -17,-14 -26,-20 -8,-7 -17,-14 -26,-20 -8,-7 -17,-14 -26,-20 -8,-7 -17,-14 -26,-20 -8,-7 -17,-14 -26,-20 -8,-7 -17,-14 -26,-20 -9,-7 -17,-14 -27,-20 -8,-7 -17,-14 -26,-20 -8,-7 -17,-14 -26,-20 -8,-7 -17,-14 -26,-20 -8,-7 -17,-14 -26,-20 -8,-7 -17,-14 -26,-20 -8,-7 -17,-14 -26,-20 -8,-7 -17,-14 -26,-20 -8,-7 -17,-14 -26,-20 -8,-7 -17,-14 -26,-20 -8,-7 -17,-14 -26,-20 -8,-7 -17,-14 -26,-20 -8,-7 -17,-14 -26,-20 -8,-7 -17,-14 -26,-20 -8,-7 -17,-14 -26,-20 -9,-7 -17,-14 -26,-20 -8,-7 -17,-14 -26,-20 -8,-7 -17,-14 -26,-20 -8,-7 -17,-14 -26,-20 -8,-7 -17,-14 -26,-20 -9,-7 -17,-14 -26,-20 -8,-7 -17,-14 -26,-20 -8,-7 -17,-14 -26,-20 -8,-7 -17,-14 -26,-20 -8,-7 -17,-14 -26,-20 -8,-7 -17,-14 -26,-20 -9,-7 -17,-14 -26,-20 -8,-7 -17,-14 -26,-20 -8,-7 -17,-14 -26,-20 -8,-7 -17,-14 -26,-20 -8,-7 -17,-14 -26,-20 -9,-7 -17,-14 -27,-20 -8,-7 -17,-14 -26,-20 -8,-7 -17,-14 -26,-20 -8,-7 -17,-14 -26,-20 -8,-7 -17,-14 -26,-20 -8,-7 -17,-14 -26,-20 -9,-7 -17,-14 -26,-20 -8,-7 -17,-14 -26,-20 -8,-7 -17,-14 -26,-20 -8,-7 -17,-14 -26,-20 -8,-7 -17,-14 -26,-20 -9,-7 -17,-14 -26,-20 -8,-7 -17,-14 -26,-20 -8,-7 -17,-14 -26,-20 -8,-7 -17,-14 -26,-20 -8,-7 -17,-14 -26,-20 -8,-7 -17,-14 -26,-20 -8,-7 -17,-14 -26,-20 -8,-7 -17,-14 -26,-20 -8,-7 -17,-14 -26,-20 -8,-7 -17,-14 -26,-20 -8,-7 -17,-14 -26,-20 -8,-7 -17,-14 -26,-20 -8,-7 -17,-14 -26,-20 -8,-7 -17,-14 -26,-20 -8,-7 -17,-14 -26,-20 -8,-7 -17,-14 -26,-20 -8,-7 -17,-14 -26,-20 -8,-7 -17,-14 -26,-20 -71,-60 -169,-83 -264,-83 -327,0 -621,164 -847,378 -73,73 -322,310 -322,412 0,26 20,55 46,67 7,8 16,15 26,20 7,8 16,15 26,20 7,8 16,15 26,20 7,8 16,15 26,20 7,8 16,15 26,20 7,8 16,15 26,20 7,8 16,15 26,20 7,8 16,15 26,20 7,8 16,15 26,20 7,8 16,15 26,20 7,8 16,15 26,20 7,8 16,15 26,20 7,8 16,15 26,20 7,8 16,15 26,20 7,8 16,15 26,20 5,5 10,10 16,14l-139 349c-40,96 -232,559 -232,830 0,121 45,204 120,254 8,7 17,14 26,20 8,7 17,14 26,20 8,7 17,14 26,20 8,7 17,14 26,20 8,7 17,14 26,20 8,7 17,14 26,20 8,7 17,14 26,20 8,7 17,14 26,20 8,7 17,14 26,20 8,7 17,14 26,20 8,7 17,14 26,20 8,7 17,14 26,20 8,7 17,14 26,20 8,7 17,14 26,20 8,7 17,14 26,20 8,7 17,14 26,20 8,7 17,14 26,20 8,7 17,14 26,20 8,7 17,14 26,20 8,7 17,14 26,20 8,7 17,14 26,20 8,7 17,14 26,20 8,7 17,14 26,20 8,7 17,14 26,20 8,7 17,14 26,20 8,7 17,14 26,20 8,7 17,14 26,20 8,7 17,14 26,20 8,7 17,14 26,20 8,7 17,14 26,20 8,7 17,14 26,20 8,7 17,14 26,20 8,7 17,14 26,20 8,7 17,14 26,20 8,7 17,14 26,20 8,7 17,14 26,20 8,7 17,14 26,20 8,7 17,14 26,20 8,7 17,14 26,20 8,7 17,14 26,20 8,7 17,14 26,20 8,7 17,14 26,20 8,7 17,14 26,20 8,7 17,14 26,20 8,7 17,14 26,20 8,7 17,14 26,20 8,7 17,14 26,20 8,7 17,14 26,20 8,7 17,14 26,20 8,7 17,14 26,20 8,7 17,14 26,20 8,7 17,14 26,20 8,7 17,14 26,20 8,7 17,14 26,20 8,7 17,14 26,20 8,7 17,14 26,20 8,7 17,14 26,20 8,7 17,14 26,20 8,7 17,14 26,20 8,7 17,14 26,20 8,7 17,14 26,20 8,7 17,14 26,20 8,7 17,14 26,20 8,7 17,14 26,20 8,7 17,14 26,20 2,2 4,3 7,5l616 0c815,0 1475,-660 1475,-1475l0 -387c-2,-1 -4,-3 -6,-4 -8,-7 -17,-14 -26,-20z"/>
</symbol>
<symbol id="Fm5-37-0" viewBox="12178 -16618 4893 4934">
 <path class="fil3" d="M17031 -14862c-9,-7 -17,-14 -26,-20 -9,-6 -17,-13 -26,-20 -9,-7 -17,-14 -26,-20 -9,-7 -17,-14 -26,-20 -9,-7 -17,-14 -26,-20 -9,-7 -17,-14 -26,-20 -9,-7 -17,-14 -26,-20 -9,-7 -17,-13 -26,-20 -9,-7 -17,-14 -26,-20 -9,-7 -17,-14 -26,-20 -9,-7 -17,-13 -26,-20 -9,-7 -17,-14 -26,-20 -9,-7 -17,-14 -26,-20 -9,-7 -17,-14 -26,-20 -9,-7 -17,-14 -26,-20 -9,-7 -17,-13 -26,-20 -9,-7 -17,-14 -26,-20 -9,-7 -17,-14 -26,-20 -9,-7 -17,-14 -26,-20 -9,-6 -17,-13 -26,-20 -9,-7 -17,-14 -26,-20 -9,-7 -17,-13 -26,-20 -9,-7 -17,-14 -26,-20 -9,-7 -17,-14 -26,-20 -9,-7 -17,-14 -26,-20 -9,-7 -17,-14 -26,-20 -9,-7 -17,-14 -26,-20 -9,-7 -17,-13 -26,-20 -9,-7 -17,-14 -26,-20 -9,-7 -17,-14 -26,-20 -9,-6 -17,-13 -26,-20 -9,-7 -17,-14 -26,-20 -9,-7 -17,-14 -26,-20 -9,-7 -17,-14 -26,-20 -9,-7 -17,-14 -26,-20 -9,-7 -17,-14 -26,-20 -9,-7 -17,-14 -26,-20 -9,-7 -17,-14 -26,-20 -9,-7 -17,-14 -26,-20 -9,-7 -17,-14 -26,-20 -9,-7 -17,-14 -26,-20 -9,-7 -17,-13 -26,-20 -9,-7 -17,-14 -26,-20 -9,-7 -17,-14 -26,-20 -9,-7 -17,-13 -26,-20 -9,-7 -17,-14 -26,-20 -9,-7 -17,-13 -26,-20 -9,-7 -17,-14 -26,-20 -9,-7 -17,-14 -26,-20 -9,-7 -17,-14 -26,-20 -9,-6 -17,-13 -26,-20 -9,-7 -17,-14 -26,-20 -9,-7 -17,-14 -26,-20 -9,-7 -17,-14 -26,-20 -9,-7 -17,-14 -26,-20 -9,-6 -17,-13 -26,-20 -9,-7 -17,-14 -26,-20 -9,-7 -17,-14 -26,-20 -9,-7 -17,-14 -26,-20 -9,-7 -17,-14 -26,-20 -9,-7 -17,-14 -26,-20 -9,-7 -17,-14 -26,-20 -9,-7 -17,-14 -26,-20 -9,-7 -17,-14 -26,-20 -9,-7 -17,-14 -26,-20 -9,-7 -17,-14 -26,-20 -9,-7 -17,-13 -26,-20 -9,-7 -17,-14 -26,-20 -9,-7 -17,-14 -26,-20 -9,-7 -17,-14 -26,-20 -9,-7 -17,-13 -26,-20 -9,-7 -18,-14 -28,-21 -63,-47 -130,-90 -202,-127 -253,-130 -539,-195 -857,-195 -410,0 -760,92 -1047,277 -288,185 -510,450 -666,797 -128,283 -192,581 -192,894 0,281 54,542 162,784 86,191 214,360 383,506 26,23 54,44 82,65 9,7 18,13 26,20 9,7 18,13 26,20 8,7 17,13 26,19 9,7 18,14 27,20 8,7 17,13 26,20 9,7 18,13 26,20 9,7 17,13 26,20 9,7 17,13 26,20 9,7 17,13 26,20 9,7 18,13 26,20 9,7 17,13 26,20 9,7 18,13 27,20 9,7 17,13 26,20 9,7 17,13 26,20 9,7 17,13 26,20 9,7 17,13 26,20 9,7 17,13 26,20 9,7 18,14 27,20 8,7 17,13 25,19 9,7 18,14 27,20 9,7 17,13 26,20 9,7 17,13 26,20 9,7 18,13 26,20 9,7 17,13 26,20 9,7 17,13 26,20 9,7 18,13 26,20 8,7 17,13 26,20 9,7 18,14 27,20 9,7 17,13 26,20 9,7 17,13 26,20 9,7 17,13 26,20 9,7 18,13 26,20 9,7 17,13 26,20 8,7 17,13 26,20 9,7 18,14 27,20 8,7 17,13 26,20 9,7 18,13 26,20 9,7 17,13 26,20 9,7 17,13 26,20 9,7 17,13 26,20 9,7 17,13 26,20 9,7 17,13 26,20 9,7 18,13 26,20 9,7 17,13 26,20 9,7 17,13 26,20 9,7 18,13 26,20 9,7 17,13 26,20 9,7 18,13 26,20 9,7 18,13 26,20 8,7 17,13 26,20 9,7 18,13 26,20 9,7 17,13 26,20 9,7 17,13 26,20 9,7 18,13 26,20 9,7 17,13 26,20 9,7 17,13 26,20 9,7 18,13 27,20 9,7 17,13 26,20 9,7 18,14 27,20 9,7 17,13 26,20 9,7 17,13 26,20 9,7 18,13 26,20 9,7 17,13 26,20 9,7 17,13 26,20 9,7 17,13 26,20 9,7 18,13 26,20 9,7 17,13 26,20 9,7 18,13 26,20 9,7 17,13 26,20 9,7 17,13 26,20 9,7 18,13 26,20 9,7 17,13 26,20 9,7 18,14 27,20 8,7 17,13 26,19 9,7 18,14 27,20 9,7 17,13 26,20 9,7 17,13 26,20 9,7 17,13 26,20 9,7 17,13 26,20 9,7 17,13 26,20 7,6 15,12 23,17l673 0c815,0 1475,-660 1475,-1475l0 -1672c-5,-4 -9,-7 -14,-11 -9,-7 -17,-14 -26,-20z"/>
</symbol>
<symbol id="Fm3-33-0" viewBox="29061 -24557 4782 4776">
 <path class="fil3" d="M33813 -22676c-9,-7 -17,-13 -26,-20 -9,-7 -17,-13 -26,-20 -9,-7 -17,-13 -26,-20 -9,-7 -18,-14 -27,-20 -9,-7 -17,-13 -26,-20 -9,-7 -17,-13 -26,-20 -9,-7 -17,-14 -26,-20 -9,-7 -17,-13 -26,-20 -9,-7 -17,-13 -26,-20 -9,-7 -17,-13 -26,-20 -9,-7 -17,-13 -26,-20 -9,-7 -17,-13 -26,-20 -9,-7 -17,-13 -26,-20 -9,-7 -17,-13 -26,-20 -9,-7 -17,-13 -26,-20 -9,-7 -18,-14 -27,-20 -9,-7 -17,-13 -26,-20 -9,-7 -17,-13 -26,-20 -9,-7 -17,-13 -26,-20 -9,-7 -17,-13 -26,-20 -9,-7 -18,-14 -27,-20 -9,-7 -17,-13 -26,-20 -9,-7 -17,-13 -26,-20 -9,-7 -17,-13 -26,-20 -9,-7 -17,-13 -26,-20 -9,-7 -17,-13 -26,-20 -9,-7 -17,-13 -26,-20 -9,-7 -17,-13 -26,-20 -9,-7 -17,-13 -26,-20 -9,-7 -18,-14 -26,-20 -9,-7 -17,-13 -26,-20 -9,-7 -17,-14 -26,-20 -9,-7 -17,-13 -26,-20 -9,-7 -17,-13 -26,-20 -9,-7 -18,-14 -27,-20 -9,-7 -17,-13 -26,-20 -9,-7 -17,-13 -26,-20 -9,-7 -18,-14 -27,-20 -9,-7 -17,-13 -26,-20 -9,-7 -17,-13 -26,-20 -9,-7 -17,-13 -26,-20 -9,-7 -17,-13 -26,-20 -9,-7 -17,-13 -26,-20 -9,-7 -17,-13 -26,-20 -9,-7 -17,-13 -26,-20 -9,-7 -18,-14 -26,-20 -9,-7 -17,-13 -26,-20 -9,-7 -17,-13 -26,-20 -9,-7 -17,-13 -26,-20 -9,-7 -17,-14 -26,-20 -9,-7 -17,-13 -26,-20 -9,-7 -17,-13 -26,-20 -9,-7 -17,-13 -26,-20 -9,-7 -17,-13 -26,-20 -9,-7 -17,-13 -26,-20 -9,-7 -18,-14 -26,-20 -9,-7 -17,-13 -26,-20 -9,-7 -17,-13 -26,-20 -9,-7 -17,-13 -26,-20 -9,-7 -18,-14 -26,-20 -9,-7 -17,-13 -26,-20 -9,-7 -17,-13 -26,-20 -9,-7 -17,-14 -26,-20 -9,-7 -17,-13 -26,-20 -9,-7 -17,-13 -26,-20 -9,-7 -17,-13 -26,-20 -9,-7 -18,-13 -26,-20 -9,-7 -17,-13 -26,-20 -9,-7 -17,-14 -26,-20 -9,-7 -17,-13 -26,-20 -9,-7 -17,-13 -26,-20 -9,-7 -17,-13 -26,-20 -9,-7 -17,-13 -26,-20 -9,-7 -18,-14 -26,-20 -9,-7 -17,-13 -26,-20 -9,-7 -17,-13 -26,-20 -9,-7 -18,-14 -26,-20 -286,-219 -645,-348 -1038,-348 -948,0 -1697,749 -1697,1697 0,566 267,1062 685,1369 9,7 17,13 26,20 9,7 17,13 26,20 9,7 17,13 26,20 9,7 17,14 26,20 9,7 17,13 26,20 9,7 18,14 27,20 9,7 17,13 26,20 9,7 17,13 26,20 9,7 17,13 26,20 9,7 17,14 26,20 9,7 17,13 26,20 9,7 17,13 26,20 9,7 17,13 26,20 9,7 17,13 26,20 9,7 17,13 26,20 9,7 17,13 26,20 9,7 17,13 26,20 9,7 17,13 26,20 9,7 18,14 26,20 9,7 17,13 26,20 9,7 17,13 26,20 9,7 18,14 27,20 9,7 17,13 26,20 9,7 18,14 26,20 9,7 17,13 26,20 9,7 18,14 27,20 9,7 17,13 26,20 9,7 17,13 26,20 9,7 17,13 26,20 9,7 17,13 26,20 9,7 18,14 27,20 9,7 17,13 26,20 9,7 17,14 26,20 9,7 17,13 26,20 9,7 17,13 26,20 9,7 17,13 26,20 9,7 17,13 26,20 9,7 17,14 26,20 9,7 17,13 26,20 9,7 17,13 26,20 9,7 17,13 26,20 9,7 18,14 27,20 9,7 17,13 26,20 9,7 17,13 26,20 9,7 17,13 26,20 9,7 17,13 26,20 9,7 18,14 27,20 9,7 17,13 26,19 9,7 17,13 26,20 9,7 18,14 27,20 9,7 17,13 26,20 9,7 17,13 26,20 9,7 17,13 26,20 9,7 17,13 26,20 9,7 18,14 26,20 9,7 17,13 26,20 9,7 17,13 26,20 9,7 17,14 26,20 9,7 17,14 26,20 9,7 17,13 26,20 9,7 18,14 27,20 9,7 17,13 26,20 9,7 17,13 26,20 9,7 18,14 26,20 9,7 17,13 26,20 9,7 17,13 26,20 9,7 18,14 27,20 9,7 17,13 26,20 9,7 18,14 27,20 9,7 17,13 26,20 9,7 17,13 26,20 9,7 17,13 26,20 9,7 17,13 26,20 9,7 17,13 26,20 9,7 17,13 26,20 9,7 17,13 26,20 9,7 17,13 26,20 9,7 17,13 26,20 9,7 17,13 26,20 9,7 18,14 26,20 9,7 17,13 26,20 9,7 17,13 26,20 9,7 18,14 26,20 9,7 17,13 26,20 9,7 17,13 26,20 8,6 16,12 24,18l371 0c815,0 1475,-661 1475,-1475l0 -1397c-1,-1 -2,-2 -4,-3 -9,-7 -17,-13 -26,-20z"/>
</symbol>
<symbol id="Fm7-43-0" viewBox="3836 -10945 1335 5900">
 <polygon class="fil10" points="5171,-10839 5171,-9638 4954,-9638 4954,-9805 5003,-9805 5003,-10671 4879,-10671 4879,-10839 "/>
 <polygon class="fil4" points="5025,-6662 4954,-6662 4954,-7121 5025,-7121 "/>
 <path class="fil9" d="M4976 -7691l0 -283 -23 0 0 -249c100,99 162,236 162,387 0,151 -62,289 -162,387l0 -242 23 0z"/>
 <polygon class="fil4" points="4976,-7691 4954,-7691 4954,-7974 4976,-7974 "/>
 <polygon class="fil11" points="4954,-6662 4954,-5368 4568,-5046 4188,-5368 4188,-6662 "/>
 <polygon class="fil4" points="4954,-6662 4188,-6662 4188,-7121 4954,-7121 "/>
 <path class="fil11" d="M4954 -7449l0 328 -766 0 0 -328c98,97 234,157 383,157 150,0 285,-60 383,-157z"/>
 <path class="fil9" d="M4954 -7691l0 242c-98,97 -234,157 -383,157 -149,0 -285,-60 -383,-157l0 -242 766 0z"/>
 <polygon class="fil19" points="4954,-7691 4188,-7691 4188,-7974 4954,-7974 "/>
 <path class="fil9" d="M4954 -8223l0 249 -766 0 0 -249c98,-97 234,-157 383,-157 150,0 285,60 383,157z"/>
 <path class="fil11" d="M4954 -9638l0 1415c-98,-97 -234,-157 -383,-157 -149,0 -285,60 -383,157l0 -1415 766 0z"/>
 <polygon class="fil11" points="4954,-9638 4188,-9638 4188,-9805 4954,-9805 "/>
 <polygon class="fil11" points="4954,-9953 4954,-9805 4188,-9805 4188,-9953 4462,-9953 4462,-9855 4674,-9855 4674,-9953 "/>
 <polygon class="fil9" points="4879,-10588 4674,-10588 4674,-10671 4879,-10671 "/>
 <polygon class="fil9" points="4879,-10839 4879,-10671 4674,-10671 4674,-10684 4462,-10684 4462,-10671 4258,-10671 4258,-10839 "/>
 <polygon class="fil9" points="4879,-10839 4258,-10839 4258,-10945 4879,-10945 "/>
 <polygon class="fil4" points="4674,-9855 4462,-9855 4462,-9953 4674,-9953 "/>
 <polygon class="fil4" points="4674,-9953 4462,-9953 4462,-10588 4674,-10588 "/>
 <polygon class="fil4" points="4674,-10588 4462,-10588 4462,-10671 4674,-10671 "/>
 <polygon class="fil17" points="4674,-10671 4462,-10671 4462,-10684 4674,-10684 "/>
 <polygon class="fil9" points="4462,-10588 4258,-10588 4258,-10671 4462,-10671 "/>
 <polygon class="fil10" points="4258,-10839 4258,-10671 4138,-10671 4138,-9805 4188,-9805 4188,-9638 3970,-9638 3970,-10839 "/>
 <polygon class="fil4" points="4188,-6662 4117,-6662 4117,-7121 4188,-7121 "/>
 <path class="fil9" d="M4188 -7691l0 242c-53,-52 -94,-114 -122,-183l0 -401 -3 0c28,-72 71,-137 125,-191l0 249 -23 0 0 283 23 0z"/>
 <polygon class="fil4" points="4188,-7691 4165,-7691 4165,-7974 4188,-7974 "/>
 <path class="fil9" d="M4066 -8033l0 401c-26,-63 -40,-132 -40,-204 0,-70 13,-136 37,-197l3 0z"/>
 <path class="fil10" d="M4066 -7632l-230 0 0 -401 227 0c-24,61 -37,127 -37,197 0,72 14,141 40,204z"/>
</symbol>
<symbol id="Fm11-27-0" viewBox="29119 -8462 4724 4830">
 <path class="fil3" d="M33750 -6099c-16,-13 -33,-26 -51,-39 -17,-13 -34,-27 -52,-40 -16,-13 -34,-26 -51,-39 -17,-14 -34,-27 -53,-40 -17,-13 -34,-27 -52,-39 -16,-13 -34,-26 -51,-39 -16,-13 -2674,-2126 -2674,-2126 0,0 -614,756 -1646,1004 34,8 2225,1668 2248,1674 -4,7 -8,13 -12,20 -2,0 -4,1 -5,1 1,0 3,1 4,1 -219,371 -569,700 -826,807 34,-1 1023,740 1783,1323l57 0c815,0 1475,-661 1475,-1475l0 -921c-13,-10 -27,-21 -41,-31 -17,-14 -34,-27 -52,-40z"/>
</symbol>
<symbol id="Fm1-23-0" viewBox="11904 -24626 5159 4844">
 <path class="fil3" d="M14373 -24626l0 333 -391 -224 -2078 1197 496 338 0 6 0 1875 1737 1320 1451 0c815,0 1475,-660 1475,-1475l0 -1741 -2142 -1628 -547 0z"/>
</symbol>
<symbol id="Fm6-69-0" viewBox="3760 -19367 2367 1521">
 <path class="fil23" d="M4382 -18280l-398 0 0 221 398 0 0 -221zm0 221zm1745 -651l0 649c0,118 -97,215 -215,215l-1937 0c-118,0 -215,-97 -215,-215l0 -649 2367 0z"/>
 <polygon class="fil4" points="6127,-18711 3760,-18711 3760,-19034 6127,-19034 "/>
 <path class="fil23" d="M6127 -19152l0 118 -2367 0 0 -118c0,-118 97,-215 215,-215l1937 0c118,0 215,97 215,215z"/>
 <polygon class="fil6" points="4382,-18060 3984,-18060 3984,-18280 4382,-18280 "/>
</symbol>
<symbol id="Fm2-54-0" viewBox="18829 -8901 5944 6235">
 <path class="fil7 str0" d="M18882 -5784c0,-1692 1307,-3064 2919,-3064 1612,0 2919,1372 2919,3064 0,1692 -1307,3064 -2919,3064 -1612,0 -2919,-1372 -2919,-3064z"/>
</symbol>
<symbol id="Fm6-34-0" viewBox="3263 -22814 3459 4524">
 <path class="fil4" d="M6420 -21397l-2156 0 0 1035 2156 0 0 -1035zm0 1035zm302 -1345l0 3070 -345 0 -2415 0 0 -3829 2001 0 0 759 759 0z"/>
 <polygon class="fil4" points="6723,-21707 5964,-21707 5964,-22466 "/>
 <polygon class="fil20" points="6420,-20362 4264,-20362 4264,-21397 6420,-21397 "/>
 <path class="fil24" d="M6378 -18637l0 348 -2767 0c-192,0 -348,-155 -348,-348l3 0c0,-193 156,-348 348,-348 192,0 348,155 348,348l2415 0z"/>
 <path class="fil5" d="M3963 -22466l0 3829c0,-192 -156,-348 -348,-348 -193,0 -348,155 -348,348l0 -3829c0,-192 156,-348 348,-348 192,0 348,155 348,348z"/>
</symbol>
<symbol id="Fm9-75-0" viewBox="5320 -10119 4610 5545">
 <path class="fil5" d="M8374 -9155c164,-164 429,-164 592,0 163,163 163,428 0,592l-592 -592z"/>
 <polygon class="fil6" points="8966,-8563 9930,-7599 9411,-7080 9082,-7409 7223,-9267 6891,-9599 7411,-10119 8374,-9155 "/>
 <polygon class="fil4" points="7223,-9267 9082,-7409 8001,-6809 7195,-6004 5818,-7381 6624,-8186 "/>
 <path class="fil19" d="M7058 -5866l-76 76c-125,125 -274,208 -433,251 -325,89 -688,5 -944,-251 -380,-380 -380,-997 0,-1377l213 -213 1377 1377 -138 138z"/>
 <path class="fil5" d="M7058 -5866l890 1138 -155 155 -1244 -966 0 -1c159,-43 309,-126 433,-251l76 -76z"/>
</symbol>
<symbol id="Fm5-67-0" viewBox="7772 -18434 1880 1510">
 <polygon class="fil5" points="9652,-18207 9478,-17511 8317,-17511 8143,-18207 "/>
 <path class="fil16" d="M9206 -17288c101,0 183,82 183,183 0,101 -82,182 -183,182 -101,0 -183,-82 -183,-182 0,-101 82,-183 183,-183z"/>
 <path class="fil16" d="M8288 -17288c101,0 182,82 182,183 0,101 -82,182 -182,182 -101,0 -183,-82 -183,-182 0,-74 44,-137 106,-166 23,-11 49,-17 76,-17z"/>
 <polygon class="fil4" points="8082,-18306 7772,-18306 7772,-18434 8082,-18434 "/>
</symbol>
<symbol id="Fm12-47-0" viewBox="9504 -6885 2330 1497">
 <path class="fil4" d="M10116 -5815l-391 0 0 217 391 0 0 -217zm0 217zm1718 -641l0 639c0,116 -95,212 -212,212l-1906 0c-117,0 -212,-95 -212,-212l0 -639 2330 0z"/>
 <polygon class="fil5" points="11834,-6239 9504,-6239 9504,-6556 11834,-6556 "/>
 <path class="fil4" d="M11834 -6673l0 117 -2330 0 0 -117c0,-116 95,-212 212,-212l1906 0c116,0 212,95 212,212z"/>
 <polygon class="fil6" points="10116,-5598 9725,-5598 9725,-5815 10116,-5815 "/>
</symbol>
<symbol id="Fm8-38-0" viewBox="9424 -7298 1891 1891">
 <polygon class="fil16" points="11315,-7298 11315,-5956 10765,-5956 10765,-5407 9424,-5407 9424,-7298 "/>
 <polygon class="fil4" points="11315,-5956 10765,-5407 10765,-5956 "/>
</symbol>
<symbol id="Fm0-20-0" viewBox="8966 -22915 519 519">
 <path class="fil4" d="M8966 -22656c0,-143 116,-260 260,-260 143,0 260,116 260,260 0,143 -116,260 -260,260 -143,0 -260,-116 -260,-260z"/>
</symbol>
<symbol id="Fm9-45-0" viewBox="3614 -8567 4905 4922">
 <path class="fil3" d="M6893 -8271c-39,0 -72,24 -84,58 -2,-1 -4,-3 -7,-4 -16,-14 -33,-27 -52,-39 -90,-80 -227,-131 -381,-131 -116,0 -223,29 -307,78 -9,-7 -179,-138 -212,-138l-315 0c-49,0 -89,38 -89,86l0 401 -863 -604 -94 0 0 237 -17 0 -259 -237 -95 0 -506 331 0 656 451 288 -176 2269 1818 1378 1337 0c127,0 249,-16 366,-46 0,0 97,-30 181,-59 493,-230 928,-749 928,-1370l0 -2146c-667,-509 -1326,-1005 -1342,-1005l-284 0z"/>
</symbol>
<symbol id="Fm4-65-0" viewBox="4943 -17006 3548 3548">
 <path class="fil25" d="M7229 -16231c-34,-147 -140,-301 -511,-301 -331,0 -452,123 -498,254 -19,55 -26,112 -29,162 -5,78 -6,223 -5,362l-1 0c0,0 -169,-134 -176,0 -6,134 29,419 187,419 14,98 59,287 202,406l0 108 -802 270 0 695c-398,-325 -652,-820 -652,-1374 0,-980 794,-1774 1774,-1774 980,0 1774,794 1774,1774 0,554 -254,1049 -652,1374l0 -695 -802 -270 0 -108c143,-119 187,-308 202,-406 158,0 194,-285 187,-419 -6,-134 -175,0 -175,0l-1 0c1,-139 1,-284 -5,-362 -3,-35 -6,-75 -16,-115z"/>
 <path class="fil5" d="M7840 -14552l0 695 0 1c-306,250 -696,400 -1122,400 -426,0 -816,-150 -1122,-400l0 -1 0 -695 802 -270 0 444 320 138 320 -138 0 -444 802 270z"/>
 <path class="fil4" d="M7426 -15754c7,134 -29,419 -187,419 5,-39 6,-64 6,-64 0,0 4,-173 5,-355l1 0c0,0 169,-134 175,0z"/>
 <path class="fil4" d="M7245 -16116c5,78 6,223 5,362 -1,182 -5,355 -5,355 0,0 -1,25 -6,64 -15,98 -59,287 -202,406 -33,27 -71,51 -115,69l-204 -69 -205 69c-44,-17 -82,-41 -115,-69 -143,-119 -187,-308 -202,-406 -5,-39 -6,-64 -6,-64 0,0 -4,-173 -5,-355 -1,-139 -1,-284 5,-362 3,-50 10,-107 29,-162 0,0 182,259 484,343l-53 -146c14,5 260,101 579,-149 10,40 13,79 16,115z"/>
 <path class="fil26" d="M6650 -16082l53 146c-302,-84 -484,-343 -484,-343 46,-131 167,-254 498,-254 371,0 477,154 511,301 -319,250 -565,154 -579,149z"/>
 <path class="fil4" d="M7037 -14822l0 444 -320 138 -320 -138 0 -444 115 -39c57,25 125,39 205,39 79,0 147,-14 204,-39l115 39z"/>
 <path class="fil4" d="M6718 -14929l204 69c-57,25 -125,39 -204,39 -79,0 -147,-14 -205,-39l205 -69z"/>
 <path class="fil4" d="M6190 -15399c0,0 1,25 6,64 -158,0 -194,-285 -187,-419 7,-134 176,0 176,0l1 0c1,182 5,355 5,355z"/>
</symbol>
<symbol id="Fm2-31-0" viewBox="20732 -24614 4836 4844">
 <path class="fil3" d="M25534 -21914c-9,-7 -17,-13 -26,-20 -9,-7 -18,-13 -26,-20 -9,-7 -17,-13 -26,-20 -9,-7 -17,-13 -26,-20 -9,-7 -17,-13 -26,-20 -9,-7 -17,-13 -26,-20 -9,-7 -18,-13 -26,-20 -9,-7 -17,-13 -26,-20 -9,-7 -17,-13 -26,-20 -9,-7 -17,-13 -26,-20 -9,-7 -17,-13 -26,-20 -9,-7 -17,-13 -26,-20 -9,-7 -17,-13 -26,-20 -9,-7 -18,-13 -26,-20 -9,-7 -18,-14 -27,-20 -9,-6 -17,-13 -26,-19 -9,-7 -17,-13 -26,-20 -9,-7 -17,-13 -26,-20 -9,-7 -17,-13 -26,-20 -9,-7 -18,-13 -26,-20 -9,-7 -17,-13 -26,-20 -9,-7 -17,-13 -26,-20 -9,-7 -18,-13 -26,-20 -9,-7 -17,-13 -26,-20 -9,-7 -17,-13 -26,-20 -9,-7 -17,-13 -26,-20 -9,-7 -17,-13 -26,-20 -9,-7 -17,-13 -26,-20 -9,-7 -17,-13 -26,-20 -9,-7 -17,-13 -26,-20 -9,-7 -17,-13 -26,-20 -9,-7 -18,-13 -26,-20 -9,-7 -17,-13 -26,-20 -9,-7 -17,-13 -26,-20 -9,-7 -17,-13 -26,-20 -9,-7 -17,-13 -26,-20 -9,-7 -17,-13 -26,-20 -9,-7 -18,-13 -26,-20 -9,-7 -17,-13 -26,-20 -9,-7 -18,-13 -26,-20 -9,-7 -17,-13 -26,-20 -9,-7 -17,-13 -26,-20 -9,-7 -18,-13 -26,-20 -9,-7 -17,-13 -26,-20 -9,-7 -17,-13 -26,-20 -9,-7 -17,-13 -26,-20 -9,-7 -17,-13 -26,-20 -9,-7 -17,-13 -26,-20 -9,-7 -18,-13 -27,-20 -9,-7 -17,-13 -26,-20 -9,-7 -17,-13 -26,-20 -9,-7 -17,-13 -26,-20 -9,-7 -17,-13 -26,-20 -9,-7 -18,-13 -27,-20 -9,-7 -17,-13 -26,-20 -9,-7 -17,-13 -26,-20 -9,-7 -17,-13 -26,-20 -9,-7 -17,-13 -26,-20 -9,-7 -18,-13 -26,-20 -9,-7 -17,-13 -26,-20 -9,-7 -17,-13 -26,-20 -9,-7 -17,-13 -26,-20 -9,-7 -18,-13 -26,-20 -9,-7 -17,-13 -26,-20 -9,-7 -17,-13 -26,-20 -9,-7 -17,-13 -26,-20 -9,-7 -17,-13 -26,-20 -9,-7 -17,-13 -26,-20 -9,-7 -17,-13 -26,-20 -9,-7 -17,-13 -26,-20 -9,-7 -18,-13 -26,-20 -9,-7 -17,-13 -26,-20 -9,-7 -17,-13 -26,-20 -9,-7 -18,-13 -26,-20 -9,-7 -17,-13 -26,-20 -9,-7 -18,-13 -27,-20 -9,-7 -17,-13 -26,-20 -9,-7 -17,-13 -26,-20 -9,-7 -18,-13 -26,-20 -9,-7 -17,-13 -26,-20 -9,-7 -17,-13 -26,-20 -9,-7 -17,-13 -26,-20 -9,-7 -18,-13 -26,-20 -9,-7 -17,-13 -26,-20 -9,-7 -17,-13 -26,-20 -9,-7 -17,-13 -26,-20 -9,-7 -17,-13 -26,-20 -9,-7 -17,-13 -26,-20 -9,-7 -17,-13 -26,-20 -9,-7 -17,-13 -26,-20 -9,-7 -17,-13 -26,-20 -9,-7 -17,-13 -26,-20 -9,-7 -17,-13 -26,-20 -9,-7 -17,-13 -26,-20 -9,-7 -17,-13 -26,-20 -9,-7 -18,-13 -26,-20 -390,-297 -868,-521 -1406,-657 -409,-104 -745,-129 -882,-136l0 586c8,1 2646,2006 2646,2006 43,3 104,7 179,16 18,70 34,141 48,213 -2,-2 -5,-4 -7,-5 -9,-7 -17,-13 -26,-20 -9,-7 -17,-13 -26,-20 -9,-7 -17,-14 -26,-20 -9,-7 -17,-13 -26,-20 -9,-7 -17,-13 -26,-20 -9,-7 -17,-13 -26,-20 -9,-7 -17,-13 -26,-20 -9,-7 -17,-13 -26,-20 -9,-7 -17,-13 -26,-20 -9,-7 -17,-13 -26,-20 -9,-7 -18,-14 -27,-20 -9,-7 -17,-13 -26,-20 -9,-7 -17,-13 -26,-20 -9,-7 -18,-14 -27,-20 -9,-7 -17,-13 -26,-20 -9,-7 -17,-13 -26,-20 -9,-7 -17,-13 -26,-20 -9,-7 -17,-13 -26,-20 -9,-7 -17,-13 -26,-20 -9,-7 -18,-14 -27,-20 -9,-6 -17,-13 -25,-19 -9,-7 -18,-14 -27,-20 -9,-6 -17,-13 -26,-20 -9,-7 -17,-13 -26,-20 -9,-7 -17,-13 -26,-20 -9,-7 -17,-13 -26,-20 -9,-7 -17,-13 -26,-20 -9,-7 -17,-13 -26,-20 -9,-7 -17,-13 -26,-20 -9,-7 -17,-13 -26,-20 -9,-7 -17,-13 -26,-20 -9,-7 -17,-13 -26,-20 -9,-7 -18,-14 -27,-20 -9,-7 -17,-13 -26,-20 -9,-7 -17,-13 -26,-20 -9,-7 -17,-13 -26,-20 -9,-7 -17,-13 -26,-20 -9,-7 -17,-13 -26,-20 -9,-7 -18,-14 -26,-20 -9,-7 -17,-13 -26,-20 -9,-7 -17,-13 -26,-20 -9,-7 -17,-13 -26,-20 -9,-7 -17,-13 -26,-20 -9,-6 -17,-13 -26,-19 -9,-7 -18,-14 -27,-20 -9,-7 -17,-13 -26,-20 -9,-7 -17,-13 -26,-20 -9,-7 -17,-13 -26,-20 -9,-7 -17,-13 -26,-20 -9,-7 -17,-13 -26,-20 -9,-7 -18,-13 -26,-20 -9,-6 -17,-13 -26,-20 -9,-7 -17,-14 -26,-20 -261,-197 -580,-342 -940,-426 -231,-54 -427,-70 -538,-75l0 586c8,0 1650,1251 1650,1251 2,0 5,0 7,0 15,71 25,145 32,221 -4,-3 -8,-6 -12,-9 -8,-7 -17,-13 -26,-20 -8,-7 -17,-13 -26,-20 -8,-7 -17,-13 -26,-20 -8,-7 -17,-13 -26,-20 -9,-7 -17,-14 -26,-20 -8,-7 -17,-13 -26,-20 -8,-7 -17,-13 -26,-20 -8,-7 -17,-13 -26,-20 -8,-7 -17,-13 -26,-20 -8,-7 -17,-13 -26,-20 -8,-7 -17,-14 -26,-20 -8,-7 -17,-13 -26,-20 -8,-7 -17,-13 -26,-20 -8,-7 -17,-13 -26,-20 -8,-7 -17,-14 -26,-20 -8,-7 -17,-13 -26,-20 -8,-7 -17,-14 -26,-20 -8,-7 -17,-13 -26,-20 -9,-7 -17,-14 -26,-20 -8,-7 -17,-13 -26,-20 -8,-7 -17,-13 -26,-20 -8,-7 -17,-13 -26,-20 -8,-7 -17,-13 -26,-20 -8,-7 -17,-13 -26,-20 -9,-7 -17,-14 -26,-20 -8,-7 -17,-13 -26,-20 -8,-7 -17,-13 -26,-20 -8,-7 -17,-13 -26,-20 -8,-7 -17,-13 -26,-20 -8,-7 -17,-13 -26,-20 -8,-7 -17,-13 -26,-20 -8,-7 -17,-13 -26,-20 -8,-7 -17,-13 -26,-20 -81,-68 -185,-108 -299,-108 -259,0 -468,210 -468,469 0,157 77,296 195,381 8,7 17,13 26,20 8,7 17,13 26,20 8,7 17,13 26,20 8,7 17,13 26,20 8,7 17,13 26,20 8,7 17,13 26,20 8,7 17,14 26,20 8,7 17,13 26,20 8,7 17,13 26,20 8,7 17,13 26,20 8,7 17,13 26,20 9,7 17,14 26,20 8,7 17,13 26,20 8,7 17,14 26,20 8,7 17,13 26,20 8,7 17,14 26,20 8,7 17,13 26,20 8,7 17,13 26,20 8,7 17,13 26,20 8,7 17,13 26,20 8,7 17,13 26,20 8,7 17,13 26,20 8,7 17,13 26,20 8,7 17,14 26,20 8,7 17,13 26,20 8,7 17,13 26,20 8,7 17,13 26,20 8,7 17,13 26,20 8,7 17,13 26,20 8,7 17,13 26,20 8,7 17,13 26,20 8,7 17,13 26,20 8,7 17,13 26,20 8,7 17,13 26,20 8,7 17,13 26,20 8,7 17,14 26,20 8,7 17,13 26,20 8,7 17,13 26,20 8,7 17,14 26,20 8,7 17,13 26,20 8,7 17,13 26,20 8,7 17,13 26,20 8,7 17,13 26,20 8,7 17,13 26,20 8,7 17,13 26,20 8,7 17,13 26,20 8,7 17,14 26,20 8,7 17,13 26,20 8,7 17,13 26,20 8,7 17,14 26,20 8,7 17,13 26,20 8,7 17,13 26,20 8,7 17,13 26,20 8,7 17,13 26,20 8,7 17,13 26,20 8,7 17,13 26,20 8,7 17,13 26,20 8,7 17,14 26,20 8,7 17,13 26,20 8,7 17,13 26,20 8,7 17,14 26,20 8,7 17,13 26,20 8,7 17,13 26,20 8,7 17,14 26,20 8,7 17,13 26,20 8,7 17,13 26,20 9,7 17,14 26,20 8,7 17,13 26,20 8,7 17,13 26,20 8,7 17,13 26,20 8,7 17,13 26,20 8,7 17,13 26,20 7,6 14,11 21,16l1213 0c815,0 1475,-659 1475,-1472l0 -647c-3,-2 -5,-4 -8,-6 -9,-7 -17,-13 -26,-20z"/>
</symbol>
<symbol id="Fm1-30-0" viewBox="2543 -20557 6979 7270">
 <path class="fil7 str1" d="M2614 -16937c0,-1982 1531,-3589 3419,-3589 1888,0 3419,1607 3419,3589 0,1982 -1531,3589 -3419,3589 -1888,0 -3419,-1607 -3419,-3589z"/>
</symbol>
<symbol id="Fm9-47-0" viewBox="7555 -22353 3157 4066">
 <path class="fil16" d="M10273 -20823l-1521 0 0 1008 1521 0 0 -1008zm0 1008zm438 1528l-2358 0 0 -4066 2358 0 0 4066z"/>
 <polygon class="fil27" points="10273,-19815 8753,-19815 8753,-20823 10273,-20823 "/>
 <polygon class="fil5" points="8353,-22353 8353,-18287 7753,-18287 7753,-18791 7943,-18791 7943,-19038 7753,-19038 7753,-19352 7943,-19352 7943,-19600 7753,-19600 7753,-19914 7943,-19914 7943,-20162 7753,-20162 7753,-20476 7943,-20476 7943,-20724 7753,-20724 7753,-21038 7943,-21038 7943,-21286 7753,-21286 7753,-21600 7943,-21600 7943,-21848 7753,-21848 7753,-22353 "/>
 <polygon class="fil4" points="7943,-18791 7753,-18791 7753,-19038 7943,-19038 "/>
 <polygon class="fil4" points="7943,-19352 7753,-19352 7753,-19600 7943,-19600 "/>
 <polygon class="fil4" points="7943,-19914 7753,-19914 7753,-20162 7943,-20162 "/>
 <polygon class="fil4" points="7943,-20476 7753,-20476 7753,-20724 7943,-20724 "/>
 <polygon class="fil4" points="7943,-21038 7753,-21038 7753,-21286 7943,-21286 "/>
 <polygon class="fil4" points="7943,-21600 7753,-21600 7753,-21848 7943,-21848 "/>
 <polygon class="fil4" points="7753,-18791 7555,-18791 7555,-19038 7753,-19038 "/>
 <polygon class="fil4" points="7753,-19352 7555,-19352 7555,-19600 7753,-19600 "/>
 <polygon class="fil4" points="7753,-19914 7555,-19914 7555,-20162 7753,-20162 "/>
 <polygon class="fil4" points="7753,-20476 7555,-20476 7555,-20724 7753,-20724 "/>
 <polygon class="fil4" points="7753,-21038 7555,-21038 7555,-21286 7753,-21286 "/>
 <polygon class="fil4" points="7753,-21600 7555,-21600 7555,-21848 7753,-21848 "/>
</symbol>
<symbol id="Fm2-33-0" viewBox="12417 -16519 7669 5562">
 <path class="fil4" d="M14909 -12207l0 526 0 88c0,112 43,224 128,310 86,86 198,128 310,128l718 0 718 0c112,0 224,-43 310,-128 85,-85 128,-198 128,-310l0 -88 0 -526 -2312 0zm-2215 -3498l0 2834c0,241 197,439 438,439l6238 0c241,0 438,-197 438,-439l0 -2834c0,-241 -197,-438 -438,-438l-6238 0c-241,0 -438,197 -438,438zm-277 4310l0 -4685c0,-241 197,-438 438,-438l6793 0c241,0 438,197 438,438l0 4685c0,241 -197,438 -438,438l-6793 0c-241,0 -438,-197 -438,-438z"/>
 <path class="fil17" d="M19220 -12711l395 0 0 -394 -395 0 0 394zm0 -394zm0 -1709l395 0 0 -394 -395 0 0 394zm0 -394zm0 -285l395 0 0 -307 -395 0 0 307zm0 -307zm-525 3090l394 0 0 -394 -394 0 0 394zm0 -394zm0 -1709l394 0 0 -394 -394 0 0 394zm0 -394zm0 -285l394 0 0 -307 -394 0 0 307zm0 -307zm-83 1643l0 394 609 0 395 0 0 -394 0 -526 -395 0 -328 0 0 526 -280 0zm-246 920l1249 0 0 -394 -1249 0 0 394zm0 -394zm-44 -657l394 0 0 -394 -394 0 0 394zm0 -394zm-153 1972l394 0 0 -394 -394 0 0 394zm0 -394zm0 -1709l394 0 0 -394 -394 0 0 394zm0 -394zm0 -285l394 0 0 -307 -394 0 0 307zm0 -307zm-132 2038l394 0 0 -394 -394 0 0 394zm0 -394zm-238 920l394 0 0 -394 -394 0 0 394zm0 -394zm-3 -657l394 0 0 -394 -394 0 0 394zm0 -394zm-153 1972l394 0 0 -394 -394 0 0 394zm0 -394zm0 -1709l394 0 0 -394 -394 0 0 394zm0 -394zm0 -285l394 0 0 -307 -394 0 0 307zm0 -307zm-132 2038l394 0 0 -394 -394 0 0 394zm0 -394zm-238 920l394 0 0 -394 -394 0 0 394zm0 -394zm-3 -657l394 0 0 -394 -394 0 0 394zm0 -394zm-153 -132l394 0 0 -394 -394 0 0 394zm0 -394zm0 -285l394 0 0 -307 -394 0 0 307zm0 -307zm-132 2038l394 0 0 -394 -394 0 0 394zm0 -394zm-238 920l394 0 0 -394 -394 0 0 394zm0 -394zm-3 -657l395 0 0 -394 -395 0 0 394zm0 -394zm-153 -132l394 0 0 -394 -394 0 0 394zm0 -394zm0 -285l394 0 0 -307 -394 0 0 307zm0 -307zm-132 2038l395 0 0 -394 -395 0 0 394zm0 -394zm-238 920l395 0 0 -394 -395 0 0 394zm0 -394zm-2 -657l395 0 0 -394 -395 0 0 394zm0 -394zm-153 -132l394 0 0 -394 -394 0 0 394zm0 -394zm0 -285l394 0 0 -307 -394 0 0 307zm0 -307zm-132 2038l395 0 0 -394 -395 0 0 394zm0 -394zm-238 920l395 0 0 -394 -395 0 0 394zm0 -394zm-3 -657l395 0 0 -394 -395 0 0 394zm0 -394zm-153 -132l394 0 0 -394 -394 0 0 394zm0 -394zm0 -285l394 0 0 -307 -394 0 0 307zm0 -307zm-131 2038l394 0 0 -394 -394 0 0 394zm0 -394zm-238 920l394 0 0 -394 -394 0 0 394zm0 -394zm-3 -657l394 0 0 -394 -394 0 0 394zm0 -394zm-154 -132l395 0 0 -394 -395 0 0 394zm0 -394zm0 -285l395 0 0 -307 -395 0 0 307zm0 -307zm-131 2038l394 0 0 -394 -394 0 0 394zm0 -394zm-238 920l394 0 0 -394 -394 0 0 394zm0 -394zm-2 -657l394 0 0 -394 -394 0 0 394zm0 -394zm-153 1972l3024 0 0 -394 -3024 0 0 394zm0 -394zm0 -1709l394 0 0 -394 -394 0 0 394zm0 -394zm0 -285l394 0 0 -307 -394 0 0 307zm0 -307zm-132 2038l394 0 0 -394 -394 0 0 394zm0 -394zm-238 920l394 0 0 -394 -394 0 0 394zm0 -394zm-3 -657l394 0 0 -394 -394 0 0 394zm0 -394zm-153 1972l394 0 0 -394 -394 0 0 394zm0 -394zm0 -1709l394 0 0 -394 -394 0 0 394zm0 -394zm0 -285l394 0 0 -307 -394 0 0 307zm0 -307zm-132 2038l394 0 0 -394 -394 0 0 394zm0 -394zm-238 920l394 0 0 -394 -394 0 0 394zm0 -394zm-3 -657l394 0 0 -394 -394 0 0 394zm0 -394zm-153 1972l394 0 0 -394 -394 0 0 394zm0 -394zm0 -1709l394 0 0 -394 -394 0 0 394zm0 -394zm0 -285l394 0 0 -307 -394 0 0 307zm0 -307zm-526 3090l394 0 0 -394 -394 0 0 394zm0 -394zm0 -132l526 0 0 -394 -526 0 0 394zm0 -394zm0 -132l723 0 0 -394 -723 0 0 394zm0 -394zm0 -131l526 0 0 -394 -526 0 0 394zm0 -394zm0 -132l394 0 0 -394 -394 0 0 394zm0 -394zm0 -285l394 0 0 -307 -394 0 0 307zm0 -307zm-215 2929l0 -2834c0,-241 197,-438 438,-438l6238 0c241,0 438,197 438,438l0 2834c0,241 -197,439 -438,439l-6238 0c-241,0 -438,-197 -438,-439z"/>
 <polygon class="fil4" points="12910,-15800 13304,-15800 13304,-15494 12910,-15494 "/>
 <polygon class="fil4" points="12910,-15209 13304,-15209 13304,-14814 12910,-14814 "/>
 <polygon class="fil4" points="12910,-14683 13436,-14683 13436,-14288 12910,-14288 "/>
 <polygon class="fil4" points="12910,-14157 13633,-14157 13633,-13763 12910,-13763 "/>
 <polygon class="fil4" points="12910,-13631 13436,-13631 13436,-13237 12910,-13237 "/>
 <polygon class="fil4" points="12910,-13105 13304,-13105 13304,-12711 12910,-12711 "/>
 <polygon class="fil4" points="13436,-15800 13830,-15800 13830,-15494 13436,-15494 "/>
 <polygon class="fil4" points="13436,-15209 13830,-15209 13830,-14814 13436,-14814 "/>
 <polygon class="fil4" points="13436,-13105 13830,-13105 13830,-12711 13436,-12711 "/>
 <polygon class="fil4" points="13589,-14683 13983,-14683 13983,-14288 13589,-14288 "/>
 <polygon class="fil4" points="13592,-13631 13986,-13631 13986,-13237 13592,-13237 "/>
 <polygon class="fil4" points="13830,-14157 14224,-14157 14224,-13763 13830,-13763 "/>
 <polygon class="fil4" points="13962,-15800 14356,-15800 14356,-15494 13962,-15494 "/>
 <polygon class="fil4" points="13962,-15209 14356,-15209 14356,-14814 13962,-14814 "/>
 <polygon class="fil4" points="13962,-13105 14356,-13105 14356,-12711 13962,-12711 "/>
 <polygon class="fil4" points="14115,-14683 14509,-14683 14509,-14288 14115,-14288 "/>
 <polygon class="fil4" points="14118,-13631 14512,-13631 14512,-13237 14118,-13237 "/>
 <polygon class="fil4" points="14356,-14157 14750,-14157 14750,-13763 14356,-13763 "/>
 <polygon class="fil4" points="14488,-15800 14882,-15800 14882,-15494 14488,-15494 "/>
 <polygon class="fil4" points="14488,-15209 14882,-15209 14882,-14814 14488,-14814 "/>
 <polygon class="fil4" points="14488,-13105 17511,-13105 17511,-12711 14488,-12711 "/>
 <polygon class="fil4" points="14641,-14683 15036,-14683 15036,-14288 14641,-14288 "/>
 <polygon class="fil4" points="14644,-13631 15038,-13631 15038,-13237 14644,-13237 "/>
 <polygon class="fil4" points="14882,-14157 15276,-14157 15276,-13763 14882,-13763 "/>
 <polygon class="fil17" points="14909,-11681 14909,-12207 17221,-12207 17221,-11681 16066,-11681 "/>
 <path class="fil4" d="M14909 -11593l0 -88 1156 0 0 526 -718 0c-113,0 -225,-43 -310,-128 -85,-85 -128,-198 -128,-310z"/>
 <polygon class="fil4" points="15013,-15800 15408,-15800 15408,-15494 15013,-15494 "/>
 <polygon class="fil4" points="15013,-15209 15408,-15209 15408,-14814 15013,-14814 "/>
 <polygon class="fil4" points="15167,-14683 15561,-14683 15561,-14288 15167,-14288 "/>
 <polygon class="fil4" points="15170,-13631 15564,-13631 15564,-13237 15170,-13237 "/>
 <polygon class="fil4" points="15408,-14157 15802,-14157 15802,-13763 15408,-13763 "/>
 <polygon class="fil4" points="15539,-15800 15933,-15800 15933,-15494 15539,-15494 "/>
 <polygon class="fil4" points="15539,-15209 15933,-15209 15933,-14814 15539,-14814 "/>
 <polygon class="fil4" points="15692,-14683 16087,-14683 16087,-14288 15692,-14288 "/>
 <polygon class="fil4" points="15695,-13631 16090,-13631 16090,-13237 15695,-13237 "/>
 <polygon class="fil4" points="15933,-14157 16328,-14157 16328,-13763 15933,-13763 "/>
 <polygon class="fil4" points="16065,-15800 16459,-15800 16459,-15494 16065,-15494 "/>
 <polygon class="fil4" points="16065,-15209 16459,-15209 16459,-14814 16065,-14814 "/>
 <path class="fil4" d="M16066 -11155l0 -526 1156 0 0 88c0,112 -43,224 -128,310 -85,86 -198,128 -310,128l-718 0z"/>
 <polygon class="fil4" points="16218,-14683 16613,-14683 16613,-14288 16218,-14288 "/>
 <polygon class="fil4" points="16221,-13631 16616,-13631 16616,-13237 16221,-13237 "/>
 <polygon class="fil4" points="16459,-14157 16854,-14157 16854,-13763 16459,-13763 "/>
 <polygon class="fil4" points="16591,-15800 16985,-15800 16985,-15494 16591,-15494 "/>
 <polygon class="fil4" points="16591,-15209 16985,-15209 16985,-14814 16591,-14814 "/>
 <polygon class="fil4" points="16744,-14683 17139,-14683 17139,-14288 16744,-14288 "/>
 <polygon class="fil4" points="16747,-13631 17141,-13631 17141,-13237 16747,-13237 "/>
 <polygon class="fil4" points="16985,-14157 17380,-14157 17380,-13763 16985,-13763 "/>
 <polygon class="fil4" points="17117,-15800 17511,-15800 17511,-15494 17117,-15494 "/>
 <polygon class="fil4" points="17117,-15209 17511,-15209 17511,-14814 17117,-14814 "/>
 <polygon class="fil4" points="17270,-14683 17664,-14683 17664,-14288 17270,-14288 "/>
 <polygon class="fil4" points="17273,-13631 17667,-13631 17667,-13237 17273,-13237 "/>
 <polygon class="fil4" points="17511,-14157 17906,-14157 17906,-13763 17511,-13763 "/>
 <polygon class="fil4" points="17643,-15800 18037,-15800 18037,-15494 17643,-15494 "/>
 <polygon class="fil4" points="17643,-15209 18037,-15209 18037,-14814 17643,-14814 "/>
 <polygon class="fil4" points="17643,-13105 18037,-13105 18037,-12711 17643,-12711 "/>
 <polygon class="fil4" points="17796,-14683 18190,-14683 18190,-14288 17796,-14288 "/>
 <polygon class="fil4" points="17799,-13631 18193,-13631 18193,-13237 17799,-13237 "/>
 <polygon class="fil4" points="18037,-14157 18431,-14157 18431,-13763 18037,-13763 "/>
 <polygon class="fil4" points="18169,-15800 18563,-15800 18563,-15494 18169,-15494 "/>
 <polygon class="fil4" points="18169,-15209 18563,-15209 18563,-14814 18169,-14814 "/>
 <polygon class="fil4" points="18169,-13105 18563,-13105 18563,-12711 18169,-12711 "/>
 <polygon class="fil4" points="18322,-14683 18716,-14683 18716,-14288 18322,-14288 "/>
 <polygon class="fil4" points="18366,-13631 19615,-13631 19615,-13237 18366,-13237 "/>
 <polygon class="fil4" points="18612,-13763 18612,-14157 18892,-14157 18892,-14683 19220,-14683 19615,-14683 19615,-14157 19615,-13763 19220,-13763 "/>
 <polygon class="fil4" points="18695,-15800 19089,-15800 19089,-15494 18695,-15494 "/>
 <polygon class="fil4" points="18695,-15209 19089,-15209 19089,-14814 18695,-14814 "/>
 <polygon class="fil4" points="18695,-13105 19089,-13105 19089,-12711 18695,-12711 "/>
 <polygon class="fil4" points="19220,-15800 19615,-15800 19615,-15494 19220,-15494 "/>
 <polygon class="fil4" points="19220,-15209 19615,-15209 19615,-14814 19220,-14814 "/>
 <polygon class="fil4" points="19220,-13105 19615,-13105 19615,-12711 19220,-12711 "/>
</symbol>
<symbol id="Fm10-25-0" viewBox="11954 -8488 5117 4856">
 <path class="fil3" d="M15927 -8481l-454 99c-9,-12 -124,-104 -161,-106 -84,-6 -94,79 -94,79l0 2 -4 49 -3260 438 293 1659 408 276 5 26 -375 0c0,0 -86,5 -86,88 0,37 275,251 446,378 -83,56 -138,150 -138,258 0,113 60,211 150,266 16,15 33,28 52,39 16,15 33,28 52,39 16,15 33,28 52,39 16,15 33,28 52,40 16,15 33,28 52,39 16,15 33,28 52,39 16,15 33,28 52,39 16,15 33,28 52,39 16,15 33,28 52,39 16,15 33,28 52,39 16,15 33,28 52,40 16,15 33,28 52,39 16,15 33,28 52,40 16,15 33,28 52,39 16,15 33,28 52,39 16,15 33,28 52,40 16,15 33,28 52,39 16,15 33,28 52,39 16,15 33,28 52,39 16,15 33,28 52,39 16,15 33,28 52,39 16,15 33,28 52,39 16,15 33,28 52,39 16,15 33,28 52,39 16,15 33,28 52,39 16,15 33,28 52,40 16,15 33,28 52,39 16,15 33,28 52,39 16,15 33,28 52,39 16,15 33,28 52,39 16,15 33,28 52,39 16,15 33,28 52,40 16,15 33,28 52,39 14,13 29,25 46,35 0,0 443,-1 1022,0 80,0 1550,53 1635,-1475l0 -2521c-602,-450 -1142,-852 -1142,-852l-2 0z"/>
</symbol>
<symbol id="Fm0-21-0" viewBox="2511 -24321 5985 4558">
 <path class="fil3" d="M8425 -22560c-17,-13 -34,-27 -52,-39 -17,-14 -34,-27 -52,-40 -17,-14 -34,-27 -52,-39 -17,-14 -34,-27 -52,-40 -17,-14 -34,-27 -52,-39 -17,-13 -34,-27 -52,-39 -17,-13 -34,-27 -52,-39 -17,-14 -34,-27 -52,-40 -17,-14 -34,-27 -52,-40 -17,-14 -34,-27 -52,-39 -17,-13 -34,-27 -52,-39 -17,-14 -34,-27 -52,-39 -17,-14 -34,-27 -52,-40 -17,-14 -34,-27 -52,-39 -17,-13 -34,-27 -52,-39 -17,-14 -34,-27 -52,-40 -17,-13 -34,-27 -52,-39 -17,-14 -34,-27 -52,-39 -17,-14 -34,-27 -52,-40 -17,-13 -34,-27 -52,-39 -17,-14 -34,-27 -52,-39 -17,-14 -34,-27 -52,-39 -17,-14 -34,-27 -52,-39 -17,-13 -34,-27 -52,-39 -17,-14 -34,-27 -52,-39 -17,-14 -34,-27 -52,-40 -17,-13 -34,-27 -52,-39 -17,-14 -34,-27 -52,-40 -17,-14 -34,-27 -52,-39 -17,-14 -34,-27 -52,-40 -17,-13 -34,-27 -52,-39 -17,-13 -34,-27 -52,-39 -17,-14 -34,-27 -52,-40 -17,-14 -34,-27 -52,-39 -17,-14 -34,-27 -52,-39 -17,-14 -34,-27 -52,-39 -17,-14 -34,-27 -52,-39 -237,-189 -537,-302 -863,-302 -434,0 -834,197 -1099,541 -190,-25 -389,18 -559,135 -330,228 -435,661 -264,1011 -67,-28 -146,-23 -210,22l-905 626c-100,69 -125,206 -56,306 20,29 46,52 75,68 15,16 33,29 52,39 15,16 33,29 52,39 15,16 33,29 52,39 16,16 33,29 52,39 15,16 33,29 52,39 15,16 33,29 52,39 16,16 33,29 52,39 16,16 33,29 52,39 15,16 33,29 52,39 16,16 33,29 52,39 16,16 33,29 52,39 16,16 33,29 52,39 15,16 33,29 52,39 16,16 33,29 52,39 15,16 33,29 52,39 15,16 33,29 52,39 16,16 33,29 52,39 16,16 33,29 52,39 15,16 33,29 52,39 15,16 33,29 52,39 16,16 33,29 52,39 15,16 33,29 52,39 15,16 33,29 52,39 16,16 33,29 52,39 15,16 33,29 52,39 15,16 33,29 52,39 16,16 33,29 52,39 15,16 33,29 52,39 15,16 33,29 52,39 15,16 33,29 52,39 16,16 33,29 52,39 15,16 33,29 52,39 15,16 33,29 52,39 16,16 33,29 52,39 15,16 33,29 52,39 16,16 33,29 52,40 15,16 33,29 52,39 16,16 33,29 52,39 15,16 33,29 52,39 16,16 33,29 52,39 15,16 33,29 52,39 15,16 33,29 52,39 4,4 99,80 242,193l1974 0c815,0 1475,-660 1475,-1475l0 -1268c-6,-5 -12,-10 -19,-14 -17,-14 -34,-27 -52,-39z"/>
</symbol>
<symbol id="Symbol2" viewBox="18089 -4754 315 3134">
 <path class="fil28" d="M18404 -4754c0,0 -315,38 -315,837l0 2134c0,123 276,269 276,54 0,-215 -23,-2034 -23,-2318 0,-284 15,-606 61,-706z"/>
</symbol>
<symbol id="Fm4-37-0" viewBox="8216 -16448 440 2859">
 <polygon class="fil9" points="8656,-15847 8654,-15847 8654,-16089 8656,-16089 "/>
 <polygon class="fil29" points="8656,-16448 8656,-16089 8654,-16089 8216,-16089 8216,-16448 "/>
 <polygon class="fil30" points="8656,-13945 8560,-13790 8312,-13790 8216,-13945 8654,-13945 "/>
 <polygon class="fil17" points="8654,-13945 8216,-13945 8216,-15847 8654,-15847 "/>
 <polygon class="fil30" points="8654,-15847 8216,-15847 8216,-16089 8654,-16089 "/>
 <polygon class="fil29" points="8560,-13790 8436,-13589 8312,-13790 "/>
</symbol>
<symbol id="Fm5-32-0" viewBox="12608 -12434 1004 2024">
 <path class="fil4" d="M13612 -11656l0 894c0,194 -159,353 -353,353l-299 0c-194,0 -353,-159 -353,-353l0 -894 502 0 502 0z"/>
 <path class="fil20" d="M13612 -12081l0 425 -502 0 0 -778 149 0c194,0 353,159 353,353z"/>
 <path class="fil20" d="M13110 -12434l0 778 -502 0 0 -425c0,-194 159,-353 353,-353l150 0z"/>
</symbol>
<symbol id="Fm8-73-0" viewBox="19369 -20595 1332 2516">
 <path class="fil4" d="M20475 -19901c0,-244 -197,-441 -441,-441 -243,0 -441,197 -441,441 0,244 197,441 441,441 244,0 441,-197 441,-441zm-441 -693c391,0 666,190 666,698 0,507 -666,1818 -666,1818 0,0 -666,-1311 -666,-1818 0,-507 275,-698 666,-698z"/>
 <path class="fil5" d="M20222 -19901c0,-104 -84,-188 -188,-188 -104,0 -187,84 -187,188 0,104 84,188 187,188 104,0 188,-84 188,-188zm-188 -441c244,0 441,197 441,441 0,244 -197,441 -441,441 -243,0 -441,-197 -441,-441 0,-244 197,-441 441,-441z"/>
</symbol>
<symbol id="Fm0-50-0" viewBox="17187 -10625 9228 9682">
 <path class="fil7 str0" d="M17240 -5784c0,-2644 2042,-4788 4561,-4788 2519,0 4561,2144 4561,4788 0,2644 -2042,4788 -4561,4788 -2519,0 -4561,-2144 -4561,-4788z"/>
</symbol>
<symbol id="Fm8-45-0" viewBox="21554 -9025 2623 3616">
 <path class="fil16" d="M22142 -7889c0,-64 -52,-116 -117,-116 -64,0 -116,52 -116,116 0,65 52,117 116,117 65,0 117,-52 117,-117zm436 0c0,-64 -52,-116 -116,-116 -64,0 -116,52 -116,116 0,65 52,117 116,117 64,0 116,-52 116,-117zm1213 2111l0 -723 0 -361 0 -362 0 -361 -466 0 -465 0 -466 0 -466 0 0 361 0 362 0 361 0 362 0 361 932 0 465 0 466 0zm12 -2916l-1876 0 0 515 1876 0 0 -515zm0 515zm0 162l-944 0 0 250 944 0 0 -250zm0 250zm374 2358l-2623 0 0 -3616 2623 0 0 3616zm0 -3616l0 3616"/>
 <polygon class="fil20" points="23803,-7767 22860,-7767 22860,-8017 23803,-8017 "/>
 <polygon class="fil1" points="23803,-8179 21928,-8179 21928,-8694 23803,-8694 "/>
 <polygon class="fil5" points="23791,-6501 23791,-5777 23325,-5777 23325,-6139 23325,-6501 "/>
 <polygon class="fil27" points="23791,-6501 23325,-6501 23325,-6862 23791,-6862 "/>
 <polygon class="fil27" points="23791,-6862 23325,-6862 23325,-7224 23791,-7224 "/>
 <polygon class="fil27" points="23791,-7224 23325,-7224 23325,-7585 23791,-7585 "/>
 <polygon class="fil1" points="23325,-5777 22860,-5777 22860,-6139 23325,-6139 "/>
 <polygon class="fil1" points="23325,-6139 22860,-6139 22860,-6501 23325,-6501 "/>
 <polygon class="fil1" points="23325,-6501 22860,-6501 22860,-6862 23325,-6862 "/>
 <polygon class="fil1" points="23325,-6862 22860,-6862 22860,-7224 23325,-7224 "/>
 <polygon class="fil1" points="23325,-7224 22860,-7224 22860,-7585 23325,-7585 "/>
 <polygon class="fil20" points="22860,-6139 22860,-5777 21928,-5777 21928,-6139 22394,-6139 "/>
 <polygon class="fil1" points="22860,-6139 22394,-6139 22394,-6501 22860,-6501 "/>
 <polygon class="fil1" points="22860,-6501 22394,-6501 22394,-6862 22860,-6862 "/>
 <polygon class="fil1" points="22860,-6862 22394,-6862 22394,-7224 22860,-7224 "/>
 <polygon class="fil1" points="22860,-7224 22394,-7224 22394,-7585 22860,-7585 "/>
 <path class="fil5" d="M22461 -8005c64,0 116,52 116,116 0,65 -52,117 -116,117 -64,0 -116,-52 -116,-117 0,-64 52,-116 116,-116z"/>
 <polygon class="fil1" points="22394,-6139 21928,-6139 21928,-6501 22394,-6501 "/>
 <polygon class="fil1" points="22394,-6501 21928,-6501 21928,-6862 22394,-6862 "/>
 <polygon class="fil1" points="22394,-6862 21928,-6862 21928,-7224 22394,-7224 "/>
 <polygon class="fil1" points="22394,-7224 21928,-7224 21928,-7585 22394,-7585 "/>
 <path class="fil20" d="M22025 -8005c65,0 117,52 117,116 0,65 -52,117 -117,117 -64,0 -116,-52 -116,-117 0,-64 52,-116 116,-116z"/>
</symbol>
<symbol id="Fm1-22-0" viewBox="8744 -23014 198 198">
 <path class="fil4" d="M8744 -22915c0,-55 44,-99 99,-99 55,0 99,44 99,99 0,55 -44,99 -99,99 -55,0 -99,-44 -99,-99z"/>
</symbol>
<symbol id="Fm8-43-0" viewBox="30836 -16641 2989 2845">
 <path class="fil3" d="M33786 -14860c-8,-7 -17,-14 -26,-20 -8,-7 -17,-14 -26,-20 -8,-7 -17,-14 -26,-20 -8,-7 -17,-14 -26,-20 -8,-7 -17,-14 -26,-20 -8,-7 -17,-14 -26,-20 -8,-7 -17,-14 -26,-20 -8,-7 -17,-14 -26,-20 -8,-7 -17,-14 -26,-20 -8,-7 -17,-14 -26,-20 -8,-7 -17,-14 -26,-20 -8,-7 -17,-14 -26,-20 -8,-7 -17,-14 -26,-20 -8,-7 -17,-14 -26,-20 -8,-7 -17,-14 -26,-20 -8,-7 -17,-14 -26,-20 -8,-7 -17,-14 -26,-20 -8,-7 -17,-14 -26,-20 -8,-7 -17,-14 -26,-20 -8,-7 -17,-14 -26,-20 -8,-7 -17,-14 -26,-20 -8,-7 -17,-14 -26,-20 -8,-7 -17,-14 -26,-20 -8,-7 -17,-14 -26,-20 -8,-7 -17,-14 -26,-20 -8,-7 -17,-14 -26,-20 -8,-7 -17,-14 -26,-20 -8,-7 -17,-14 -26,-20 -8,-7 -17,-14 -26,-20 -8,-7 -17,-14 -26,-20 -8,-7 -17,-14 -26,-20 -8,-7 -17,-14 -26,-20 -8,-7 -17,-14 -26,-20 -8,-7 -17,-14 -26,-20 -8,-7 -17,-14 -26,-20 -8,-7 -17,-14 -26,-20 -8,-7 -17,-14 -26,-20 -8,-7 -17,-14 -26,-20 -8,-7 -17,-14 -26,-20 -8,-7 -17,-14 -26,-20 -8,-7 -17,-14 -26,-20 -8,-7 -17,-14 -26,-20 -8,-7 -17,-14 -26,-20 -8,-7 -17,-14 -26,-20 -8,-7 -17,-14 -26,-20 -8,-7 -17,-14 -26,-20 -8,-7 -17,-14 -26,-20 -8,-7 -17,-14 -26,-20 -8,-7 -17,-14 -26,-20 -8,-7 -17,-14 -26,-20 -8,-7 -17,-14 -26,-20 -8,-7 -17,-14 -26,-20 -8,-7 -17,-14 -26,-20 -8,-7 -17,-14 -26,-20 -8,-7 -17,-14 -26,-20 -8,-7 -17,-14 -26,-20 -8,-7 -17,-14 -26,-20 -8,-7 -17,-14 -26,-20 -8,-7 -17,-14 -26,-20 -8,-7 -17,-14 -26,-20 -8,-7 -17,-14 -26,-20 -8,-7 -17,-14 -26,-20 -8,-7 -17,-14 -26,-20 -8,-7 -17,-14 -26,-20 -8,-7 -17,-14 -26,-20 -8,-7 -17,-14 -26,-20 -8,-7 -17,-14 -26,-20 -8,-7 -17,-14 -26,-20 -8,-7 -17,-14 -26,-20 -8,-7 -17,-14 -26,-20 -8,-7 -17,-14 -26,-20 -8,-7 -17,-14 -26,-20 -8,-7 -17,-14 -26,-20 -8,-7 -17,-14 -26,-20 -8,-7 -17,-14 -26,-20 -8,-7 -17,-14 -26,-20 -8,-7 -17,-14 -26,-20 -8,-7 -17,-14 -26,-20 -8,-7 -17,-14 -26,-20 -8,-7 -17,-14 -26,-20 -8,-7 -17,-14 -26,-20 -8,-7 -17,-14 -26,-20 -8,-7 -17,-14 -26,-20 -8,-7 -17,-14 -26,-20 -8,-7 -17,-14 -26,-20 -68,-57 -158,-89 -261,-89 -248,0 -463,203 -463,452 0,140 56,251 152,317 8,7 17,14 26,20 8,7 17,14 26,20 8,7 17,14 26,20 8,7 17,14 26,20 8,7 17,14 26,20 8,7 17,14 26,20 8,7 17,14 26,20 8,7 17,14 26,20 8,7 17,14 26,20 8,7 17,14 26,20 8,7 17,14 26,20 8,7 17,14 26,20 8,7 17,14 26,20 8,7 17,14 26,20 8,7 17,14 26,20 8,7 17,14 26,20 8,7 17,14 26,20 8,7 17,14 26,20 8,7 17,14 26,20 8,7 17,14 26,20 8,7 17,14 26,20 8,7 17,14 26,20 8,7 17,14 26,20 8,7 17,14 26,20 8,7 17,14 26,20 8,7 17,14 26,20 8,7 17,14 26,20 8,7 17,14 26,20 8,7 17,14 26,20 8,7 17,14 26,20 8,7 17,14 26,20 8,7 17,14 26,20 8,7 17,14 26,20 8,7 17,14 26,20 8,7 17,14 26,20 8,7 17,14 26,20 8,7 17,14 26,20 8,7 17,14 26,20 8,7 17,14 26,20 8,7 17,14 26,20 8,7 17,14 26,20 8,7 17,14 26,20 8,7 17,14 26,20 8,7 17,14 26,20 8,7 17,14 26,20 8,7 17,14 26,20 8,7 17,14 26,20 8,7 17,14 26,20 8,7 17,14 26,20 8,7 17,14 26,20 8,7 17,14 26,20 8,7 17,14 26,20 8,7 17,14 26,20 8,7 17,14 26,20 8,7 17,14 26,20 8,7 17,14 26,20 8,7 17,14 26,20 8,7 17,14 26,20 8,7 17,14 26,20 8,7 17,14 26,20 8,7 17,14 26,20 8,7 17,14 26,20 8,7 17,14 26,20 8,7 17,14 26,20 8,7 17,14 26,20 8,7 17,14 26,20 8,7 17,14 26,20 8,7 17,14 26,20 8,7 17,14 26,20 8,7 17,14 26,20 8,7 17,14 26,20 8,7 17,14 26,20 8,7 17,14 26,20 8,7 17,14 26,20 8,7 17,14 26,20 8,7 17,14 26,20 8,7 17,14 26,20 8,7 17,14 26,20 8,7 17,14 26,20 8,7 17,14 26,20 8,7 17,14 26,20 8,7 17,14 26,20 8,7 17,14 26,20 8,7 17,14 26,20 8,7 17,14 26,20 8,7 17,14 26,20 8,7 17,14 26,20 8,7 17,14 26,20 8,7 17,14 26,20 8,7 17,14 26,20 8,7 17,14 26,20 8,7 17,14 26,20 8,7 17,14 26,20 8,7 17,14 26,20 8,7 17,14 26,20 8,7 17,14 26,20 8,7 17,14 26,20 8,7 17,14 26,20 8,7 17,14 26,20 8,7 17,14 26,20 57,48 131,78 218,85l0 -1034c-4,-3 -8,-7 -13,-10 -8,-7 -17,-14 -26,-20z"/>
</symbol>
<symbol id="Fm6-39-0" viewBox="21181 -16278 4375 4594">
 <path class="fil3" d="M21814 -16278l0 0 -633 0 0 2825 2327 1769 573 0c815,0 1475,-660 1475,-1475l0 -1941 -1550 -1178 -2192 0z"/>
</symbol>
<symbol id="Fm4-35-0" viewBox="3483 -16202 5030 4518">
 <path class="fil3" d="M3483 -16202l0 2878 2158 1640 1396 0c815,0 1475,-660 1475,-1475l0 -2194 -1117 -849 -3913 0z"/>
</symbol>
<symbol id="Fm10-43-0" viewBox="2772 -9766 2330 1497">
 <path class="fil4" d="M3384 -8696l-391 0 0 217 391 0 0 -217zm0 217zm1718 -641l0 639c0,116 -95,212 -212,212l-1906 0c-116,0 -212,-95 -212,-212l0 -639 2330 0z"/>
 <polygon class="fil5" points="5102,-9120 2772,-9120 2772,-9437 5102,-9437 "/>
 <path class="fil4" d="M5102 -9554l0 116 -2330 0 0 -116c0,-117 95,-212 212,-212l1906 0c116,0 212,95 212,212z"/>
 <polygon class="fil6" points="3384,-8479 2993,-8479 2993,-8696 3384,-8696 "/>
</symbol>
<symbol id="Fm1-41-0" viewBox="18969 -21227 8177 8579">
 <path class="fil31 str2" d="M19022 -16937c0,-2340 1807,-4237 4036,-4237 2229,0 4036,1897 4036,4237 0,2340 -1807,4237 -4036,4237 -2229,0 -4036,-1897 -4036,-4237z"/>
 <path class="fil31 str3" d="M19699 -16937c0,-1947 1504,-3526 3359,-3526 1855,0 3359,1579 3359,3526 0,1947 -1504,3526 -3359,3526 -1855,0 -3359,-1579 -3359,-3526z"/>
 <path class="fil31 str2" d="M20474 -16937c0,-1498 1156,-2712 2583,-2712 1427,0 2583,1214 2583,2712 0,1498 -1156,2712 -2583,2712 -1426,0 -2583,-1214 -2583,-2712z"/>
</symbol>
<symbol id="Fm3-63-0" viewBox="3161 -10014 8193 8596">
 <path class="fil31 str2" d="M3214 -5716c0,-2344 1810,-4245 4044,-4245 2233,0 4044,1901 4044,4245 0,2344 -1810,4245 -4044,4245 -2233,0 -4044,-1900 -4044,-4245z"/>
 <path class="fil31 str3" d="M3892 -5716c0,-1951 1507,-3533 3365,-3533 1858,0 3365,1582 3365,3533 0,1951 -1507,3533 -3365,3533 -1858,0 -3365,-1582 -3365,-3533z"/>
 <path class="fil31 str2" d="M4670 -5716c0,-1500 1159,-2717 2588,-2717 1429,0 2588,1216 2588,2717 0,1500 -1159,2717 -2588,2717 -1429,0 -2588,-1216 -2588,-2717z"/>
</symbol>
<symbol id="Fm2-55-0" viewBox="17187 -10625 9228 9682">
 <path class="fil31 str2" d="M17240 -5784c0,-2644 2042,-4788 4561,-4788 2519,0 4561,2144 4561,4788 0,2644 -2042,4788 -4561,4788 -2519,0 -4561,-2144 -4561,-4788z"/>
 <path class="fil31 str3" d="M18006 -5784c0,-2201 1699,-3985 3796,-3985 2096,0 3796,1784 3796,3985 0,2201 -1699,3985 -3796,3985 -2096,0 -3796,-1784 -3796,-3985z"/>
 <path class="fil31 str2" d="M18882 -5784c0,-1692 1307,-3064 2919,-3064 1612,0 2919,1372 2919,3064 0,1692 -1307,3064 -2919,3064 -1612,0 -2919,-1372 -2919,-3064z"/>
</symbol>
<symbol id="Fm0-33-0" viewBox="1872 -21303 8322 8732">
 <path class="fil31 str2" d="M1924 -16937c0,-2382 1839,-4313 4108,-4313 2269,0 4108,1931 4108,4313 0,2382 -1839,4313 -4108,4313 -2269,0 -4108,-1931 -4108,-4313z"/>
 <path class="fil31 str3" d="M2614 -16937c0,-1982 1531,-3589 3419,-3589 1888,0 3419,1607 3419,3589 0,1982 -1531,3589 -3419,3589 -1888,0 -3419,-1607 -3419,-3589z"/>
 <path class="fil31 str2" d="M3403 -16937c0,-1525 1177,-2760 2629,-2760 1452,0 2629,1236 2629,2760 0,1525 -1177,2760 -2629,2760 -1452,0 -2629,-1236 -2629,-2760z"/>
</symbol>
 <g id="Layer_x0020_1">
  <metadata id="CorelCorpID_0Corel-Layer"/>
  <g id="_1012388352">
   <polygon class="fil32" points="44,470 37,449 37,139 632,139 632,355 628,381 544,466 501,473 "/>
   <polygon class="fil33" points="333,472 334,139 632,139 632,355 628,381 544,466 501,473 "/>
   <path class="fil34" d="M116 242l-35 0c-3,0 -6,-2 -6,-6l0 -35c0,-3 2,-6 6,-6l35 0c3,0 6,2 6,6l0 35c0,3 -2,6 -6,6z"/>
   <path class="fil35" d="M84 234l30 0 0 -30 -30 0 0 30zm33 16l-35 0c-7,0 -14,-6 -14,-14l0 -35c0,-7 6,-14 14,-14l35 0c7,0 14,6 14,14l0 35c0,7 -6,14 -14,14z"/>
   <path class="fil34" d="M210 242l-35 0c-3,0 -6,-2 -6,-6l0 -35c0,-3 2,-6 6,-6l35 0c3,0 6,2 6,6l0 35c0,3 -2,6 -6,6z"/>
   <path class="fil35" d="M177 234l30 0 0 -30 -30 0 0 30zm33 16l-35 0c-7,0 -14,-6 -14,-14l0 -35c0,-7 6,-14 14,-14l35 0c7,0 14,6 14,14l0 35c0,7 -6,14 -14,14z"/>
   <path class="fil34" d="M303 242l-35 0c-3,0 -6,-2 -6,-6l0 -35c0,-3 2,-6 6,-6l35 0c3,0 6,2 6,6l0 35c0,3 -2,6 -6,6z"/>
   <path class="fil35" d="M270 234l30 0 0 -30 -30 0 0 30zm33 16l-35 0c-7,0 -14,-6 -14,-14l0 -35c0,-7 6,-14 14,-14l35 0c7,0 14,6 14,14l0 35c0,7 -6,14 -14,14z"/>
   <path class="fil34" d="M396 242l-35 0c-3,0 -6,-2 -6,-6l0 -35c0,-3 2,-6 6,-6l35 0c3,0 6,2 6,6l0 35c0,3 -2,6 -6,6z"/>
   <path class="fil35" d="M364 234l30 0 0 -30 -30 0 0 30zm33 16l-35 0c-7,0 -14,-6 -14,-14l0 -35c0,-7 6,-14 14,-14l35 0c7,0 14,6 14,14l0 35c0,7 -6,14 -14,14z"/>
   <path class="fil34" d="M489 242l-35 0c-3,0 -6,-2 -6,-6l0 -35c0,-3 2,-6 6,-6l35 0c3,0 6,2 6,6l0 35c0,3 -2,6 -6,6z"/>
   <path class="fil35" d="M457 234l30 0 0 -30 -30 0 0 30zm33 16l-35 0c-7,0 -14,-6 -14,-14l0 -35c0,-7 6,-14 14,-14l35 0c7,0 14,6 14,14l0 35c0,7 -6,14 -14,14z"/>
   <path class="fil35" d="M583 250l-35 0c-7,0 -14,-6 -14,-14l0 -35c0,-7 6,-14 14,-14l35 0c7,0 14,6 14,14l0 35c0,7 -6,14 -14,14z"/>
   <polygon class="fil36" points="550,234 580,234 580,204 550,204 "/>
   <path class="fil34" d="M116 326l-35 0c-3,0 -6,-2 -6,-6l0 -35c0,-3 2,-6 6,-6l35 0c3,0 6,2 6,6l0 35c0,3 -2,6 -6,6z"/>
   <path class="fil35" d="M84 318l30 0 0 -30 -30 0 0 30zm33 16l-35 0c-7,0 -14,-6 -14,-14l0 -35c0,-7 6,-14 14,-14l35 0c7,0 14,6 14,14l0 35c0,7 -6,14 -14,14z"/>
   <path class="fil34" d="M210 326l-35 0c-3,0 -6,-2 -6,-6l0 -35c0,-3 2,-6 6,-6l35 0c3,0 6,2 6,6l0 35c0,3 -2,6 -6,6z"/>
   <path class="fil35" d="M177 318l30 0 0 -30 -30 0 0 30zm33 16l-35 0c-7,0 -14,-6 -14,-14l0 -35c0,-7 6,-14 14,-14l35 0c7,0 14,6 14,14l0 35c0,7 -6,14 -14,14z"/>
   <path class="fil34" d="M303 326l-35 0c-3,0 -6,-2 -6,-6l0 -35c0,-3 2,-6 6,-6l35 0c3,0 6,2 6,6l0 35c0,3 -2,6 -6,6z"/>
   <path class="fil35" d="M270 318l30 0 0 -30 -30 0 0 30zm33 16l-35 0c-7,0 -14,-6 -14,-14l0 -35c0,-7 6,-14 14,-14l35 0c7,0 14,6 14,14l0 35c0,7 -6,14 -14,14z"/>
   <path class="fil34" d="M396 326l-35 0c-3,0 -6,-2 -6,-6l0 -35c0,-3 2,-6 6,-6l35 0c3,0 6,2 6,6l0 35c0,3 -2,6 -6,6z"/>
   <path class="fil35" d="M364 318l30 0 0 -30 -30 0 0 30zm33 16l-35 0c-7,0 -14,-6 -14,-14l0 -35c0,-7 6,-14 14,-14l35 0c7,0 14,6 14,14l0 35c0,7 -6,14 -14,14z"/>
   <path class="fil34" d="M489 326l-35 0c-3,0 -6,-2 -6,-6l0 -35c0,-3 2,-6 6,-6l35 0c3,0 6,2 6,6l0 35c0,3 -2,6 -6,6z"/>
   <path class="fil35" d="M457 318l30 0 0 -30 -30 0 0 30zm33 16l-35 0c-7,0 -14,-6 -14,-14l0 -35c0,-7 6,-14 14,-14l35 0c7,0 14,6 14,14l0 35c0,7 -6,14 -14,14z"/>
   <path class="fil35" d="M583 334l-35 0c-7,0 -14,-6 -14,-14l0 -35c0,-7 6,-14 14,-14l35 0c7,0 14,6 14,14l0 35c0,7 -6,14 -14,14z"/>
   <polygon class="fil36" points="550,318 580,318 580,287 550,287 "/>
   <path class="fil34" d="M116 409l-35 0c-3,0 -6,-2 -6,-6l0 -35c0,-3 2,-6 6,-6l35 0c3,0 6,2 6,6l0 35c0,3 -2,6 -6,6z"/>
   <path class="fil35" d="M84 401l30 0 0 -30 -30 0 0 30zm33 16l-35 0c-7,0 -14,-6 -14,-14l0 -35c0,-7 6,-14 14,-14l35 0c7,0 14,6 14,14l0 35c0,7 -6,14 -14,14z"/>
   <path class="fil34" d="M210 409l-35 0c-3,0 -6,-2 -6,-6l0 -35c0,-3 2,-6 6,-6l35 0c3,0 6,2 6,6l0 35c0,3 -2,6 -6,6z"/>
   <path class="fil35" d="M177 401l30 0 0 -30 -30 0 0 30zm33 16l-35 0c-7,0 -14,-6 -14,-14l0 -35c0,-7 6,-14 14,-14l35 0c7,0 14,6 14,14l0 35c0,7 -6,14 -14,14z"/>
   <path class="fil34" d="M303 409l-35 0c-3,0 -6,-2 -6,-6l0 -35c0,-3 2,-6 6,-6l35 0c3,0 6,2 6,6l0 35c0,3 -2,6 -6,6z"/>
   <path class="fil35" d="M270 401l30 0 0 -30 -30 0 0 30zm33 16l-35 0c-7,0 -14,-6 -14,-14l0 -35c0,-7 6,-14 14,-14l35 0c7,0 14,6 14,14l0 35c0,7 -6,14 -14,14z"/>
   <path class="fil34" d="M396 409l-35 0c-3,0 -6,-2 -6,-6l0 -35c0,-3 2,-6 6,-6l35 0c3,0 6,2 6,6l0 35c0,3 -2,6 -6,6z"/>
   <path class="fil35" d="M364 401l30 0 0 -30 -30 0 0 30zm33 16l-35 0c-7,0 -14,-6 -14,-14l0 -35c0,-7 6,-14 14,-14l35 0c7,0 14,6 14,14l0 35c0,7 -6,14 -14,14z"/>
   <path class="fil34" d="M489 409l-35 0c-3,0 -6,-2 -6,-6l0 -35c0,-3 2,-6 6,-6l35 0c3,0 6,2 6,6l0 35c0,3 -2,6 -6,6z"/>
   <path class="fil35" d="M457 401l30 0 0 -30 -30 0 0 30zm33 16l-35 0c-7,0 -14,-6 -14,-14l0 -35c0,-7 6,-14 14,-14l35 0c7,0 14,6 14,14l0 35c0,7 -6,14 -14,14z"/>
   <polygon class="fil37" points="151,0 212,0 "/>
   <polygon class="fil37" points="460,0 520,0 "/>
   <path class="fil35" d="M182 68c-7,0 -12,-6 -12,-12 0,-7 6,-12 12,-12 7,0 12,6 12,12 0,7 -6,12 -12,12zm-30 -68l0 64c0,17 14,30 30,30 17,0 30,-14 30,-30l0 -64 -61 0z"/>
   <path class="fil35" d="M490 68c-7,0 -12,-6 -12,-12 0,-7 6,-12 12,-12 7,0 12,6 12,12 0,7 -6,12 -12,12zm-30 -67l0 63c0,17 13,30 30,30 17,0 30,-13 30,-30l0 -63 -60 0z"/>
   <path class="fil38" d="M649 139l0 -72c0,-14 -11,-25 -25,-25l-85 0 0 26c0,27 -22,49 -49,49 -27,0 -49,-22 -49,-49l0 -26 -211 0 0 26c0,27 -22,49 -49,49 -27,0 -49,-22 -49,-49l0 -26 -85 0c-14,0 -25,11 -25,25l0 72 625 0z"/>
   <path class="fil36" d="M649 139l0 -72c0,-14 -11,-25 -25,-25l-85 0 0 26c0,27 -22,49 -49,49 -27,0 -49,-22 -49,-49l0 -26 -106 0 0 97 313 0z"/>
   <path class="fil35" d="M640 131l0 -64c0,-4 -2,-9 -5,-11 -3,-3 -7,-5 -11,-5l-76 0 0 18c0,16 -6,30 -17,40 -10,10 -25,17 -40,17 -16,0 -30,-6 -40,-17l0 0c-10,-10 -17,-25 -17,-40l0 -18 -195 0 0 18c0,16 -6,30 -17,40l0 0c-10,10 -25,17 -40,17 -16,0 -30,-6 -40,-17l0 0 0 0c-10,-10 -17,-25 -17,-40l0 -18 -76 0c-4,0 -9,2 -11,5l0 0c-3,3 -5,7 -5,11l0 64 608 0zm17 -64l0 72 0 8 -8 0 -625 0 -8 0 0 -8 0 -72c0,-9 4,-17 10,-23l0 0c6,-6 14,-10 23,-10l85 0 8 0 0 8 0 26c0,11 5,21 12,28l0 0c7,7 17,12 28,12 11,0 21,-5 28,-12l0 0c7,-7 12,-17 12,-28l0 -26 0 -8 8 0 211 0 8 0 0 8 0 26c0,11 5,21 12,28l0 0c7,7 17,12 28,12 11,0 21,-5 28,-12 7,-7 12,-17 12,-28l0 -26 0 -8 8 0 85 0c9,0 17,4 23,10 6,6 10,14 10,23z"/>
   <path class="fil39" d="M615 29l-75 0c0,0 -1,0 -1,0l0 26c0,0 1,0 1,0l75 0c9,0 17,7 17,17l0 283 -93 0c-12,0 -22,10 -22,22l0 96 -464 0c-9,0 -17,-7 -17,-17l0 -384c0,-9 7,-17 17,-17l74 0c2,0 4,0 6,-1l0 -24c-2,-1 -4,-1 -6,-1l-74 0c-24,0 -43,19 -43,43l0 384c0,24 19,43 43,43l476 0c12,0 22,-5 31,-13l86 -86c8,-8 13,-19 13,-31l0 -298c0,-24 -19,-43 -43,-43z"/>
   <path class="fil35" d="M615 37l-68 0 0 10 68 0c7,0 13,3 18,7l0 0c5,5 7,11 7,18l0 283 0 8 -8 0 -93 0c-4,0 -7,2 -10,4 -3,3 -4,6 -4,10l0 96 0 8 -8 0 -464 0c-7,0 -13,-3 -18,-7l0 0 0 0c-5,-5 -7,-11 -7,-18l0 -384c0,-7 3,-13 7,-18l0 0c5,-5 11,-7 18,-7l71 0 0 -10 -71 0c-10,0 -18,4 -25,10 -6,6 -10,15 -10,25l0 384c0,10 4,18 10,25 6,6 15,10 25,10l476 0c5,0 9,-1 13,-3 6,-4 96,-84 105,-105 2,-4 3,-9 3,-13l0 -298c0,-10 -4,-18 -10,-25 -6,-6 -15,-10 -25,-10zm-75 -17l75 0c14,0 27,6 37,15 9,9 15,22 15,37l0 298c0,7 -1,14 -4,20 -3,6 -6,12 -11,17l-86 86 0 0c-5,5 -11,9 -17,11l0 0c-6,3 -13,4 -20,4l-476 0c-14,0 -27,-6 -37,-15 -9,-9 -15,-22 -15,-37l0 -384c0,-14 6,-27 15,-37 9,-9 22,-15 37,-15l74 0c2,0 3,0 5,1 2,0 3,1 4,2l5 2 0 5 0 24 0 5 -5 2c-1,1 -3,1 -4,2l0 0c-2,0 -3,1 -5,1l-74 0c-2,0 -4,1 -6,2l0 0c-1,1 -2,4 -2,6l0 384c0,2 1,4 2,6l0 0c1,1 4,2 6,2l455 0 0 -88c0,-8 3,-16 9,-21l0 0 0 0c6,-6 13,-9 21,-9l85 0 0 -274c0,-2 -1,-4 -2,-6l0 0c-1,-1 -4,-2 -6,-2l-75 0c-1,0 -1,0 -2,0l0 0 0 0 0 0 -7 -1 0 -7 0 -26 0 -7 7 -1 0 0 0 0c1,0 1,0 2,0z"/>
  </g>
 </g>
</svg>
