<?xml version="1.0" encoding="UTF-8"?>
<!DOCTYPE svg PUBLIC "-//W3C//DTD SVG 1.1//EN" "http://www.w3.org/Graphics/SVG/1.1/DTD/svg11.dtd">
<!-- Creator: CorelDRAW X6 -->
<svg xmlns="http://www.w3.org/2000/svg" xml:space="preserve" width="29.8026mm" height="5.5032mm" version="1.1" style="shape-rendering:geometricPrecision; text-rendering:geometricPrecision; image-rendering:optimizeQuality; fill-rule:evenodd; clip-rule:evenodd"
viewBox="0 0 2980 550"
 xmlns:xlink="http://www.w3.org/1999/xlink">
 <defs>
  <style type="text/css">
   <![CDATA[
    .str2 {stroke:#302D2D;stroke-width:105.83;stroke-linecap:round;stroke-linejoin:round;stroke-opacity:0.200000}
    .str0 {stroke:#302D2D;stroke-width:105.83;stroke-linecap:round;stroke-linejoin:round}
    .str3 {stroke:#302D2D;stroke-width:141.11;stroke-linecap:round;stroke-linejoin:round;stroke-dasharray:423.300000 1100.580000;stroke-opacity:0.200000}
    .str1 {stroke:#302D2D;stroke-width:141.11;stroke-linecap:round;stroke-linejoin:round;stroke-dasharray:423.300000 1100.580000}
    .fil4 {fill:none;fill-rule:nonzero}
    .fil31 {fill:none;fill-rule:nonzero}
    .fil33 {fill:white}
    .fil19 {fill:#00D9CE;fill-rule:nonzero}
    .fil10 {fill:#04C4D5;fill-rule:nonzero}
    .fil0 {fill:#231F20;fill-rule:nonzero}
    .fil29 {fill:#297391;fill-rule:nonzero}
    .fil11 {fill:#302D2D;fill-rule:nonzero}
    .fil27 {fill:#474747;fill-rule:nonzero}
    .fil18 {fill:#4C4949;fill-rule:nonzero}
    .fil9 {fill:#4C4C4C;fill-rule:nonzero}
    .fil25 {fill:#523C60;fill-rule:nonzero}
    .fil13 {fill:#633900;fill-rule:nonzero}
    .fil17 {fill:#645B75;fill-rule:nonzero}
    .fil7 {fill:#666666;fill-rule:nonzero}
    .fil8 {fill:#697271;fill-rule:nonzero}
    .fil6 {fill:#6DAF75;fill-rule:nonzero}
    .fil21 {fill:#70DDE0;fill-rule:nonzero}
    .fil26 {fill:#71BDC1;fill-rule:nonzero}
    .fil30 {fill:#86CBED;fill-rule:nonzero}
    .fil23 {fill:#92E1B5;fill-rule:nonzero}
    .fil22 {fill:#A0804D;fill-rule:nonzero}
    .fil16 {fill:#A391C3;fill-rule:nonzero}
    .fil28 {fill:#C94C27;fill-rule:nonzero}
    .fil24 {fill:lightgrey;fill-rule:nonzero}
    .fil14 {fill:#E8CF69;fill-rule:nonzero}
    .fil15 {fill:#EBB167;fill-rule:nonzero}
    .fil12 {fill:#EE7046;fill-rule:nonzero}
    .fil2 {fill:#F15A24;fill-rule:nonzero}
    .fil20 {fill:#F2D0D3;fill-rule:nonzero}
    .fil1 {fill:whitesmoke;fill-rule:nonzero}
    .fil5 {fill:#FBB03B;fill-rule:nonzero}
    .fil3 {fill:#FBD260;fill-rule:nonzero}
    .fil32 {fill:white;fill-rule:nonzero}
   ]]>
  </style>
 </defs>
<symbol id="Fm7-41-0" viewBox="30975 -15582 4006 3901">
 <path class="fil0" d="M34949 -13568c-8,-7 -17,-14 -26,-20 -8,-7 -17,-14 -26,-20 -8,-7 -17,-14 -26,-20 -8,-7 -17,-14 -26,-20 -8,-7 -17,-14 -26,-20 -8,-7 -17,-14 -26,-20 -8,-7 -17,-14 -26,-20 -9,-7 -17,-14 -27,-20 -8,-7 -17,-14 -26,-20 -8,-7 -17,-14 -26,-20 -8,-7 -17,-14 -26,-20 -8,-7 -17,-14 -26,-20 -8,-7 -17,-14 -26,-20 -8,-7 -17,-14 -26,-20 -8,-7 -17,-14 -26,-20 -8,-7 -17,-14 -26,-20 -8,-7 -17,-14 -26,-20 -8,-7 -17,-14 -26,-20 -8,-7 -17,-14 -26,-20 -8,-7 -17,-14 -26,-20 -8,-7 -17,-14 -26,-20 -8,-7 -17,-14 -26,-20 -8,-7 -17,-14 -26,-20 -8,-7 -17,-14 -26,-20 -8,-7 -17,-14 -26,-20 -8,-7 -17,-14 -26,-20 -8,-7 -17,-14 -26,-20 -8,-7 -17,-14 -26,-20 -8,-7 -17,-14 -26,-20 -9,-7 -17,-14 -26,-20 -8,-7 -17,-14 -26,-20 -8,-7 -17,-14 -26,-20 -8,-7 -17,-14 -26,-20 -8,-7 -17,-14 -26,-20 -8,-7 -17,-14 -26,-20 -8,-7 -17,-14 -26,-20 -8,-7 -17,-14 -26,-20 -9,-7 -17,-14 -27,-20 -8,-7 -17,-14 -26,-20 -8,-7 -17,-14 -26,-20 -8,-7 -17,-14 -26,-20 -8,-7 -17,-14 -26,-20 -8,-7 -17,-14 -26,-20 -8,-7 -17,-14 -26,-20 -8,-7 -17,-14 -26,-20 -8,-7 -17,-14 -26,-20 -8,-7 -17,-14 -26,-20 -8,-7 -17,-14 -26,-20 -8,-7 -17,-14 -26,-20 -8,-7 -17,-14 -26,-20 -8,-7 -17,-14 -26,-20 -8,-7 -17,-14 -26,-20 -9,-7 -17,-14 -26,-20 -8,-7 -17,-14 -26,-20 -8,-7 -17,-14 -26,-20 -8,-7 -17,-14 -26,-20 -8,-7 -17,-14 -26,-20 -9,-7 -17,-14 -26,-20 -8,-7 -17,-14 -26,-20 -8,-7 -17,-14 -26,-20 -8,-7 -17,-14 -26,-20 -8,-7 -17,-14 -26,-20 -8,-7 -17,-14 -26,-20 -9,-7 -17,-14 -26,-20 -8,-7 -17,-14 -26,-20 -8,-7 -17,-14 -26,-20 -8,-7 -17,-14 -26,-20 -8,-7 -17,-14 -26,-20 -9,-7 -17,-14 -27,-20 -8,-7 -17,-14 -26,-20 -8,-7 -17,-14 -26,-20 -8,-7 -17,-14 -26,-20 -8,-7 -17,-14 -26,-20 -8,-7 -17,-14 -26,-20 -9,-7 -17,-14 -26,-20 -8,-7 -17,-14 -26,-20 -8,-7 -17,-14 -26,-20 -8,-7 -17,-14 -26,-20 -8,-7 -17,-14 -26,-20 -9,-7 -17,-14 -26,-20 -8,-7 -17,-14 -26,-20 -8,-7 -17,-14 -26,-20 -8,-7 -17,-14 -26,-20 -8,-7 -17,-14 -26,-20 -8,-7 -17,-14 -26,-20 -8,-7 -17,-14 -26,-20 -8,-7 -17,-14 -26,-20 -8,-7 -17,-14 -26,-20 -8,-7 -17,-14 -26,-20 -8,-7 -17,-14 -26,-20 -8,-7 -17,-14 -26,-20 -8,-7 -17,-14 -26,-20 -8,-7 -17,-14 -26,-20 -8,-7 -17,-14 -26,-20 -8,-7 -17,-14 -26,-20 -8,-7 -17,-14 -26,-20 -8,-7 -17,-14 -26,-20 -71,-60 -169,-83 -264,-83 -327,0 -621,164 -847,378 -73,73 -322,310 -322,412 0,26 20,55 46,67 7,8 16,15 26,20 7,8 16,15 26,20 7,8 16,15 26,20 7,8 16,15 26,20 7,8 16,15 26,20 7,8 16,15 26,20 7,8 16,15 26,20 7,8 16,15 26,20 7,8 16,15 26,20 7,8 16,15 26,20 7,8 16,15 26,20 7,8 16,15 26,20 7,8 16,15 26,20 7,8 16,15 26,20 7,8 16,15 26,20 5,5 10,10 16,14l-139 349c-40,96 -232,559 -232,830 0,121 45,204 120,254 8,7 17,14 26,20 8,7 17,14 26,20 8,7 17,14 26,20 8,7 17,14 26,20 8,7 17,14 26,20 8,7 17,14 26,20 8,7 17,14 26,20 8,7 17,14 26,20 8,7 17,14 26,20 8,7 17,14 26,20 8,7 17,14 26,20 8,7 17,14 26,20 8,7 17,14 26,20 8,7 17,14 26,20 8,7 17,14 26,20 8,7 17,14 26,20 8,7 17,14 26,20 8,7 17,14 26,20 8,7 17,14 26,20 8,7 17,14 26,20 8,7 17,14 26,20 8,7 17,14 26,20 8,7 17,14 26,20 8,7 17,14 26,20 8,7 17,14 26,20 8,7 17,14 26,20 8,7 17,14 26,20 8,7 17,14 26,20 8,7 17,14 26,20 8,7 17,14 26,20 8,7 17,14 26,20 8,7 17,14 26,20 8,7 17,14 26,20 8,7 17,14 26,20 8,7 17,14 26,20 8,7 17,14 26,20 8,7 17,14 26,20 8,7 17,14 26,20 8,7 17,14 26,20 8,7 17,14 26,20 8,7 17,14 26,20 8,7 17,14 26,20 8,7 17,14 26,20 8,7 17,14 26,20 8,7 17,14 26,20 8,7 17,14 26,20 8,7 17,14 26,20 8,7 17,14 26,20 8,7 17,14 26,20 8,7 17,14 26,20 8,7 17,14 26,20 8,7 17,14 26,20 8,7 17,14 26,20 8,7 17,14 26,20 8,7 17,14 26,20 8,7 17,14 26,20 8,7 17,14 26,20 8,7 17,14 26,20 8,7 17,14 26,20 8,7 17,14 26,20 8,7 17,14 26,20 8,7 17,14 26,20 8,7 17,14 26,20 8,7 17,14 26,20 8,7 17,14 26,20 2,2 4,3 7,5l616 0c815,0 1475,-660 1475,-1475l0 -387c-2,-1 -4,-3 -6,-4 -8,-7 -17,-14 -26,-20z"/>
</symbol>
<symbol id="Fm5-37-0" viewBox="13334 -16597 4893 4934">
 <path class="fil0" d="M18186 -14841c-9,-7 -17,-14 -26,-20 -9,-6 -17,-13 -26,-20 -9,-7 -17,-14 -26,-20 -9,-7 -17,-14 -26,-20 -9,-7 -17,-14 -26,-20 -9,-7 -17,-14 -26,-20 -9,-7 -17,-14 -26,-20 -9,-7 -17,-13 -26,-20 -9,-7 -17,-14 -26,-20 -9,-7 -17,-14 -26,-20 -9,-7 -17,-13 -26,-20 -9,-7 -17,-14 -26,-20 -9,-7 -17,-14 -26,-20 -9,-7 -17,-14 -26,-20 -9,-7 -17,-14 -26,-20 -9,-7 -17,-13 -26,-20 -9,-7 -17,-14 -26,-20 -9,-7 -17,-14 -26,-20 -9,-7 -17,-14 -26,-20 -9,-6 -17,-13 -26,-20 -9,-7 -17,-14 -26,-20 -9,-7 -17,-13 -26,-20 -9,-7 -17,-14 -26,-20 -9,-7 -17,-14 -26,-20 -9,-7 -17,-14 -26,-20 -9,-7 -17,-14 -26,-20 -9,-7 -17,-14 -26,-20 -9,-7 -17,-13 -26,-20 -9,-7 -17,-14 -26,-20 -9,-7 -17,-14 -26,-20 -9,-6 -17,-13 -26,-20 -9,-7 -17,-14 -26,-20 -9,-7 -17,-14 -26,-20 -9,-7 -17,-14 -26,-20 -9,-7 -17,-14 -26,-20 -9,-7 -17,-14 -26,-20 -9,-7 -17,-14 -26,-20 -9,-7 -17,-14 -26,-20 -9,-7 -17,-14 -26,-20 -9,-7 -17,-14 -26,-20 -9,-7 -17,-14 -26,-20 -9,-7 -17,-13 -26,-20 -9,-7 -17,-14 -26,-20 -9,-7 -17,-14 -26,-20 -9,-7 -17,-13 -26,-20 -9,-7 -17,-14 -26,-20 -9,-7 -17,-13 -26,-20 -9,-7 -17,-14 -26,-20 -9,-7 -17,-14 -26,-20 -9,-7 -17,-14 -26,-20 -9,-6 -17,-13 -26,-20 -9,-7 -17,-14 -26,-20 -9,-7 -17,-14 -26,-20 -9,-7 -17,-14 -26,-20 -9,-7 -17,-14 -26,-20 -9,-6 -17,-13 -26,-20 -9,-7 -17,-14 -26,-20 -9,-7 -17,-14 -26,-20 -9,-7 -17,-14 -26,-20 -9,-7 -17,-14 -26,-20 -9,-7 -17,-14 -26,-20 -9,-7 -17,-14 -26,-20 -9,-7 -17,-14 -26,-20 -9,-7 -17,-14 -26,-20 -9,-7 -17,-14 -26,-20 -9,-7 -17,-14 -26,-20 -9,-7 -17,-13 -26,-20 -9,-7 -17,-14 -26,-20 -9,-7 -17,-14 -26,-20 -9,-7 -17,-14 -26,-20 -9,-7 -17,-13 -26,-20 -9,-7 -18,-14 -28,-21 -63,-47 -130,-90 -202,-127 -253,-130 -539,-195 -857,-195 -410,0 -760,92 -1047,277 -288,185 -510,450 -666,797 -128,283 -192,581 -192,894 0,281 54,542 162,784 86,191 214,360 383,506 26,23 54,44 82,65 9,7 18,13 26,20 9,7 18,13 26,20 8,7 17,13 26,19 9,7 18,14 27,20 8,7 17,13 26,20 9,7 18,13 26,20 9,7 17,13 26,20 9,7 17,13 26,20 9,7 17,13 26,20 9,7 18,13 26,20 9,7 17,13 26,20 9,7 18,13 27,20 9,7 17,13 26,20 9,7 17,13 26,20 9,7 17,13 26,20 9,7 17,13 26,20 9,7 17,13 26,20 9,7 18,14 27,20 8,7 17,13 25,19 9,7 18,14 27,20 9,7 17,13 26,20 9,7 17,13 26,20 9,7 18,13 26,20 9,7 17,13 26,20 9,7 17,13 26,20 9,7 18,13 26,20 8,7 17,13 26,20 9,7 18,14 27,20 9,7 17,13 26,20 9,7 17,13 26,20 9,7 17,13 26,20 9,7 18,13 26,20 9,7 17,13 26,20 8,7 17,13 26,20 9,7 18,14 27,20 8,7 17,13 26,20 9,7 18,13 26,20 9,7 17,13 26,20 9,7 17,13 26,20 9,7 17,13 26,20 9,7 17,13 26,20 9,7 17,13 26,20 9,7 18,13 26,20 9,7 17,13 26,20 9,7 17,13 26,20 9,7 18,13 26,20 9,7 17,13 26,20 9,7 18,13 26,20 9,7 18,13 26,20 8,7 17,13 26,20 9,7 18,13 26,20 9,7 17,13 26,20 9,7 17,13 26,20 9,7 18,13 26,20 9,7 17,13 26,20 9,7 17,13 26,20 9,7 18,13 27,20 9,7 17,13 26,20 9,7 18,14 27,20 9,7 17,13 26,20 9,7 17,13 26,20 9,7 18,13 26,20 9,7 17,13 26,20 9,7 17,13 26,20 9,7 17,13 26,20 9,7 18,13 26,20 9,7 17,13 26,20 9,7 18,13 26,20 9,7 17,13 26,20 9,7 17,13 26,20 9,7 18,13 26,20 9,7 17,13 26,20 9,7 18,14 27,20 8,7 17,13 26,19 9,7 18,14 27,20 9,7 17,13 26,20 9,7 17,13 26,20 9,7 17,13 26,20 9,7 17,13 26,20 9,7 17,13 26,20 7,6 15,12 23,17l673 0c815,0 1475,-660 1475,-1475l0 -1672c-5,-4 -9,-7 -14,-11 -9,-7 -17,-14 -26,-20z"/>
</symbol>
<symbol id="Fm3-33-0" viewBox="30216 -24536 4782 4776">
 <path class="fil0" d="M34969 -22655c-9,-7 -17,-13 -26,-20 -9,-7 -17,-13 -26,-20 -9,-7 -17,-13 -26,-20 -9,-7 -18,-14 -27,-20 -9,-7 -17,-13 -26,-20 -9,-7 -17,-13 -26,-20 -9,-7 -17,-14 -26,-20 -9,-7 -17,-13 -26,-20 -9,-7 -17,-13 -26,-20 -9,-7 -17,-13 -26,-20 -9,-7 -17,-13 -26,-20 -9,-7 -17,-13 -26,-20 -9,-7 -17,-13 -26,-20 -9,-7 -17,-13 -26,-20 -9,-7 -17,-13 -26,-20 -9,-7 -18,-14 -27,-20 -9,-7 -17,-13 -26,-20 -9,-7 -17,-13 -26,-20 -9,-7 -17,-13 -26,-20 -9,-7 -17,-13 -26,-20 -9,-7 -18,-14 -27,-20 -9,-7 -17,-13 -26,-20 -9,-7 -17,-13 -26,-20 -9,-7 -17,-13 -26,-20 -9,-7 -17,-13 -26,-20 -9,-7 -17,-13 -26,-20 -9,-7 -17,-13 -26,-20 -9,-7 -17,-13 -26,-20 -9,-7 -17,-13 -26,-20 -9,-7 -18,-14 -26,-20 -9,-7 -17,-13 -26,-20 -9,-7 -17,-14 -26,-20 -9,-7 -17,-13 -26,-20 -9,-7 -17,-13 -26,-20 -9,-7 -18,-14 -27,-20 -9,-7 -17,-13 -26,-20 -9,-7 -17,-13 -26,-20 -9,-7 -18,-14 -27,-20 -9,-7 -17,-13 -26,-20 -9,-7 -17,-13 -26,-20 -9,-7 -17,-13 -26,-20 -9,-7 -17,-13 -26,-20 -9,-7 -17,-13 -26,-20 -9,-7 -17,-13 -26,-20 -9,-7 -17,-13 -26,-20 -9,-7 -18,-14 -26,-20 -9,-7 -17,-13 -26,-20 -9,-7 -17,-13 -26,-20 -9,-7 -17,-13 -26,-20 -9,-7 -17,-14 -26,-20 -9,-7 -17,-13 -26,-20 -9,-7 -17,-13 -26,-20 -9,-7 -17,-13 -26,-20 -9,-7 -17,-13 -26,-20 -9,-7 -17,-13 -26,-20 -9,-7 -18,-14 -26,-20 -9,-7 -17,-13 -26,-20 -9,-7 -17,-13 -26,-20 -9,-7 -17,-13 -26,-20 -9,-7 -18,-14 -26,-20 -9,-7 -17,-13 -26,-20 -9,-7 -17,-13 -26,-20 -9,-7 -17,-14 -26,-20 -9,-7 -17,-13 -26,-20 -9,-7 -17,-13 -26,-20 -9,-7 -17,-13 -26,-20 -9,-7 -18,-13 -26,-20 -9,-7 -17,-13 -26,-20 -9,-7 -17,-14 -26,-20 -9,-7 -17,-13 -26,-20 -9,-7 -17,-13 -26,-20 -9,-7 -17,-13 -26,-20 -9,-7 -17,-13 -26,-20 -9,-7 -18,-14 -26,-20 -9,-7 -17,-13 -26,-20 -9,-7 -17,-13 -26,-20 -9,-7 -18,-14 -26,-20 -286,-219 -645,-348 -1038,-348 -948,0 -1697,749 -1697,1697 0,566 267,1062 685,1369 9,7 17,13 26,20 9,7 17,13 26,20 9,7 17,13 26,20 9,7 17,14 26,20 9,7 17,13 26,20 9,7 18,14 27,20 9,7 17,13 26,20 9,7 17,13 26,20 9,7 17,13 26,20 9,7 17,14 26,20 9,7 17,13 26,20 9,7 17,13 26,20 9,7 17,13 26,20 9,7 17,13 26,20 9,7 17,13 26,20 9,7 17,13 26,20 9,7 17,13 26,20 9,7 17,13 26,20 9,7 18,14 26,20 9,7 17,13 26,20 9,7 17,13 26,20 9,7 18,14 27,20 9,7 17,13 26,20 9,7 18,14 26,20 9,7 17,13 26,20 9,7 18,14 27,20 9,7 17,13 26,20 9,7 17,13 26,20 9,7 17,13 26,20 9,7 17,13 26,20 9,7 18,14 27,20 9,7 17,13 26,20 9,7 17,14 26,20 9,7 17,13 26,20 9,7 17,13 26,20 9,7 17,13 26,20 9,7 17,13 26,20 9,7 17,14 26,20 9,7 17,13 26,20 9,7 17,13 26,20 9,7 17,13 26,20 9,7 18,14 27,20 9,7 17,13 26,20 9,7 17,13 26,20 9,7 17,13 26,20 9,7 17,13 26,20 9,7 18,14 27,20 9,7 17,13 26,19 9,7 17,13 26,20 9,7 18,14 27,20 9,7 17,13 26,20 9,7 17,13 26,20 9,7 17,13 26,20 9,7 17,13 26,20 9,7 18,14 26,20 9,7 17,13 26,20 9,7 17,13 26,20 9,7 17,14 26,20 9,7 17,14 26,20 9,7 17,13 26,20 9,7 18,14 27,20 9,7 17,13 26,20 9,7 17,13 26,20 9,7 18,14 26,20 9,7 17,13 26,20 9,7 17,13 26,20 9,7 18,14 27,20 9,7 17,13 26,20 9,7 18,14 27,20 9,7 17,13 26,20 9,7 17,13 26,20 9,7 17,13 26,20 9,7 17,13 26,20 9,7 17,13 26,20 9,7 17,13 26,20 9,7 17,13 26,20 9,7 17,13 26,20 9,7 17,13 26,20 9,7 17,13 26,20 9,7 18,14 26,20 9,7 17,13 26,20 9,7 17,13 26,20 9,7 18,14 26,20 9,7 17,13 26,20 9,7 17,13 26,20 8,6 16,12 24,18l371 0c815,0 1475,-661 1475,-1475l0 -1397c-1,-1 -2,-2 -4,-3 -9,-7 -17,-13 -26,-20z"/>
</symbol>
<symbol id="Fm10-43-0" viewBox="3928 -9744 2330 1497">
 <path class="fil1" d="M4540 -8675l-391 0 0 217 391 0 0 -217zm0 217zm1718 -641l0 639c0,116 -95,212 -212,212l-1906 0c-116,0 -212,-95 -212,-212l0 -639 2330 0z"/>
 <polygon class="fil2" points="6257,-9098 3928,-9098 3928,-9416 6257,-9416 "/>
 <path class="fil1" d="M6257 -9533l0 116 -2330 0 0 -116c0,-117 95,-212 212,-212l1906 0c116,0 212,95 212,212z"/>
 <polygon class="fil3" points="4540,-8458 4148,-8458 4148,-8675 4540,-8675 "/>
</symbol>
<symbol id="Fm11-27-0" viewBox="30275 -8441 4724 4830">
 <path class="fil0" d="M34905 -6078c-16,-13 -33,-26 -51,-39 -17,-13 -34,-27 -52,-40 -16,-13 -34,-26 -51,-39 -17,-14 -34,-27 -53,-40 -17,-13 -34,-27 -52,-39 -16,-13 -34,-26 -51,-39 -16,-13 -2674,-2126 -2674,-2126 0,0 -614,756 -1646,1004 34,8 2225,1668 2248,1674 -4,7 -8,13 -12,20 -2,0 -4,1 -5,1 1,0 3,1 4,1 -219,371 -569,700 -826,807 34,-1 1023,740 1783,1323l57 0c815,0 1475,-661 1475,-1475l0 -921c-13,-10 -27,-21 -41,-31 -17,-14 -34,-27 -52,-40z"/>
</symbol>
<symbol id="Fm2-62-0" viewBox="5772 -8465 5282 5540">
 <path class="fil4 str0" d="M5825 -5695c0,-1500 1159,-2717 2588,-2717 1429,0 2588,1216 2588,2717 0,1500 -1159,2717 -2588,2717 -1429,0 -2588,-1216 -2588,-2717z"/>
</symbol>
<symbol id="Fm9-47-0" viewBox="8710 -22331 3157 4066">
 <path class="fil5" d="M11429 -20802l-1521 0 0 1008 1521 0 0 -1008zm0 1008zm438 1528l-2358 0 0 -4066 2358 0 0 4066z"/>
 <polygon class="fil6" points="11429,-19794 9908,-19794 9908,-20802 11429,-20802 "/>
 <polygon class="fil2" points="9509,-22331 9509,-18266 8909,-18266 8909,-18769 9098,-18769 9098,-19017 8909,-19017 8909,-19331 9098,-19331 9098,-19579 8909,-19579 8909,-19893 9098,-19893 9098,-20141 8909,-20141 8909,-20455 9098,-20455 9098,-20703 8909,-20703 8909,-21017 9098,-21017 9098,-21265 8909,-21265 8909,-21579 9098,-21579 9098,-21827 8909,-21827 8909,-22331 "/>
 <polygon class="fil1" points="9098,-18769 8909,-18769 8909,-19017 9098,-19017 "/>
 <polygon class="fil1" points="9098,-19331 8909,-19331 8909,-19579 9098,-19579 "/>
 <polygon class="fil1" points="9098,-19893 8909,-19893 8909,-20141 9098,-20141 "/>
 <polygon class="fil1" points="9098,-20455 8909,-20455 8909,-20703 9098,-20703 "/>
 <polygon class="fil1" points="9098,-21017 8909,-21017 8909,-21265 9098,-21265 "/>
 <polygon class="fil1" points="9098,-21579 8909,-21579 8909,-21827 9098,-21827 "/>
 <polygon class="fil1" points="8909,-18769 8710,-18769 8710,-19017 8909,-19017 "/>
 <polygon class="fil1" points="8909,-19331 8710,-19331 8710,-19579 8909,-19579 "/>
 <polygon class="fil1" points="8909,-19893 8710,-19893 8710,-20141 8909,-20141 "/>
 <polygon class="fil1" points="8909,-20455 8710,-20455 8710,-20703 8909,-20703 "/>
 <polygon class="fil1" points="8909,-21017 8710,-21017 8710,-21265 8909,-21265 "/>
 <polygon class="fil1" points="8909,-21579 8710,-21579 8710,-21827 8909,-21827 "/>
</symbol>
<symbol id="Fm1-25-0" viewBox="15424 -9456 4556 436">
 <polygon class="fil7" points="19372,-9456 19524,-9456 19524,-9020 19372,-9020 "/>
 <polygon class="fil8" points="17260,-9456 19372,-9456 19372,-9020 17260,-9020 "/>
 <polygon class="fil7" points="16985,-9456 17260,-9456 17260,-9020 16985,-9020 "/>
 <polygon class="fil8" points="16030,-9456 16984,-9456 16984,-9020 16030,-9020 "/>
 <polygon class="fil7" points="15769,-9456 16030,-9456 16030,-9020 15769,-9020 15769,-9095 15769,-9381 "/>
 <polygon class="fil9" points="19524,-9456 19980,-9238 19524,-9020 "/>
 <polygon class="fil9" points="15424,-9381 15769,-9381 15769,-9095 15424,-9095 "/>
</symbol>
<symbol id="Fm3-28-0" viewBox="16604 -6126 2465 3927">
 <polygon class="fil5" points="19069,-5526 19069,-2198 16604,-2198 16604,-5526 17243,-5526 17243,-5140 16889,-5140 16889,-2583 18784,-2583 18784,-5140 18430,-5140 18430,-5526 "/>
 <path class="fil10" d="M17383 -4757l-280 0 0 280 280 0 0 -280zm0 280zm0 222l-280 0 0 280 280 0 0 -280zm0 281zm0 222l-280 0 0 280 280 0 0 -280zm0 280zm0 222l-280 0 0 280 280 0 0 -280zm0 280zm1401 -2173l0 2557 -1895 0 0 -2557 354 0 0 62 593 0 594 0 0 -62 354 0z"/>
 <polygon class="fil8" points="18430,-5140 18430,-5079 17836,-5079 17243,-5079 17243,-5140 "/>
 <polygon class="fil8" points="18430,-5141 17243,-5141 17243,-5526 18430,-5526 "/>
 <path class="fil8" d="M17910 -5909c0,-41 -33,-74 -74,-74 -40,0 -73,33 -73,74 0,40 33,74 73,74 41,0 74,-33 74,-74zm520 220l0 164 -1187 0 0 -164 339 0c0,0 -34,-436 254,-436 289,0 255,436 255,436l339 0z"/>
 <path class="fil11" d="M17836 -5983c41,0 74,33 74,74 0,40 -33,74 -74,74 -40,0 -73,-33 -73,-74 0,-41 33,-74 73,-74z"/>
 <polygon class="fil1" points="17383,-2968 17103,-2968 17103,-3248 17383,-3248 "/>
 <polygon class="fil1" points="17383,-3471 17103,-3471 17103,-3751 17383,-3751 "/>
 <polygon class="fil1" points="17383,-3974 17103,-3974 17103,-4254 17383,-4254 "/>
 <polygon class="fil2" points="17383,-4477 17103,-4477 17103,-4757 17383,-4757 "/>
</symbol>
<symbol id="Fm0-21-0" viewBox="3666 -24300 5985 4558">
 <path class="fil0" d="M9581 -22539c-17,-13 -34,-27 -52,-39 -17,-14 -34,-27 -52,-40 -17,-14 -34,-27 -52,-39 -17,-14 -34,-27 -52,-40 -17,-14 -34,-27 -52,-39 -17,-13 -34,-27 -52,-39 -17,-13 -34,-27 -52,-39 -17,-14 -34,-27 -52,-40 -17,-14 -34,-27 -52,-40 -17,-14 -34,-27 -52,-39 -17,-13 -34,-27 -52,-39 -17,-14 -34,-27 -52,-39 -17,-14 -34,-27 -52,-40 -17,-14 -34,-27 -52,-39 -17,-13 -34,-27 -52,-39 -17,-14 -34,-27 -52,-40 -17,-13 -34,-27 -52,-39 -17,-14 -34,-27 -52,-39 -17,-14 -34,-27 -52,-40 -17,-13 -34,-27 -52,-39 -17,-14 -34,-27 -52,-39 -17,-14 -34,-27 -52,-39 -17,-14 -34,-27 -52,-39 -17,-13 -34,-27 -52,-39 -17,-14 -34,-27 -52,-39 -17,-14 -34,-27 -52,-40 -17,-13 -34,-27 -52,-39 -17,-14 -34,-27 -52,-40 -17,-14 -34,-27 -52,-39 -17,-14 -34,-27 -52,-40 -17,-13 -34,-27 -52,-39 -17,-13 -34,-27 -52,-39 -17,-14 -34,-27 -52,-40 -17,-14 -34,-27 -52,-39 -17,-14 -34,-27 -52,-39 -17,-14 -34,-27 -52,-39 -17,-14 -34,-27 -52,-39 -237,-189 -537,-302 -863,-302 -434,0 -834,197 -1099,541 -190,-25 -389,18 -559,135 -330,228 -435,661 -264,1011 -67,-28 -146,-23 -210,22l-905 626c-100,69 -125,206 -56,306 20,29 46,52 75,68 15,16 33,29 52,39 15,16 33,29 52,39 15,16 33,29 52,39 16,16 33,29 52,39 15,16 33,29 52,39 15,16 33,29 52,39 16,16 33,29 52,39 16,16 33,29 52,39 15,16 33,29 52,39 16,16 33,29 52,39 16,16 33,29 52,39 16,16 33,29 52,39 15,16 33,29 52,39 16,16 33,29 52,39 15,16 33,29 52,39 15,16 33,29 52,39 16,16 33,29 52,39 16,16 33,29 52,39 15,16 33,29 52,39 15,16 33,29 52,39 16,16 33,29 52,39 15,16 33,29 52,39 15,16 33,29 52,39 16,16 33,29 52,39 15,16 33,29 52,39 15,16 33,29 52,39 16,16 33,29 52,39 15,16 33,29 52,39 15,16 33,29 52,39 15,16 33,29 52,39 16,16 33,29 52,39 15,16 33,29 52,39 15,16 33,29 52,39 16,16 33,29 52,39 15,16 33,29 52,39 16,16 33,29 52,40 15,16 33,29 52,39 16,16 33,29 52,39 15,16 33,29 52,39 16,16 33,29 52,39 15,16 33,29 52,39 15,16 33,29 52,39 4,4 99,80 242,193l1974 0c815,0 1475,-660 1475,-1475l0 -1268c-6,-5 -12,-10 -19,-14 -17,-14 -34,-27 -52,-39z"/>
</symbol>
<symbol id="Fm11-45-0" viewBox="3179 -7058 2330 1497">
 <path class="fil1" d="M3791 -5989l-391 0 0 217 391 0 0 -217zm0 217zm1718 -641l0 639c0,117 -95,212 -212,212l-1906 0c-116,0 -212,-95 -212,-212l0 -639 2330 0z"/>
 <polygon class="fil2" points="5509,-6412 3179,-6412 3179,-6730 5509,-6730 "/>
 <path class="fil1" d="M5509 -6847l0 116 -2330 0 0 -116c0,-116 95,-212 212,-212l1906 0c116,0 212,95 212,212z"/>
 <polygon class="fil3" points="3791,-5772 3400,-5772 3400,-5989 3791,-5989 "/>
</symbol>
<symbol id="Fm4-37-0" viewBox="9372 -16427 440 2859">
 <polygon class="fil12" points="9811,-15826 9810,-15826 9810,-16068 9811,-16068 "/>
 <polygon class="fil13" points="9811,-16427 9811,-16068 9810,-16068 9372,-16068 9372,-16427 "/>
 <polygon class="fil14" points="9811,-13923 9716,-13769 9468,-13769 9372,-13923 9810,-13923 "/>
 <polygon class="fil15" points="9810,-13923 9372,-13923 9372,-15826 9810,-15826 "/>
 <polygon class="fil14" points="9810,-15826 9372,-15826 9372,-16068 9810,-16068 "/>
 <polygon class="fil13" points="9716,-13769 9592,-13568 9468,-13769 "/>
</symbol>
<symbol id="Fm11-29-0" viewBox="12545 -22199 393 3488">
 <polygon class="fil8" points="12741,-18711 12545,-19131 12589,-19433 12893,-19433 12938,-19131 "/>
 <polygon class="fil16" points="12927,-21996 12927,-20752 12893,-20752 12589,-20752 12556,-20752 12556,-21996 12589,-21996 12893,-21996 "/>
 <polygon class="fil17" points="12893,-19433 12589,-19433 12589,-19645 12893,-19645 "/>
 <polygon class="fil16" points="12893,-19645 12589,-19645 12589,-20752 12893,-20752 "/>
 <polygon class="fil8" points="12893,-22199 12893,-21996 12589,-21996 12589,-22062 12589,-22199 "/>
</symbol>
<symbol id="Fm5-32-0" viewBox="13763 -12413 1004 2024">
 <path class="fil1" d="M14768 -11635l0 894c0,194 -159,353 -353,353l-299 0c-194,0 -353,-159 -353,-353l0 -894 502 0 502 0z"/>
 <path class="fil10" d="M14768 -12060l0 425 -502 0 0 -778 149 0c194,0 353,159 353,353z"/>
 <path class="fil10" d="M14266 -12413l0 778 -502 0 0 -425c0,-194 159,-353 353,-353l150 0z"/>
</symbol>
<symbol id="Fm10-24-0" viewBox="22262 -10123 3429 3250">
 <polygon class="fil10" points="25692,-8552 25692,-7886 25620,-7886 25465,-7886 25465,-8552 "/>
 <polygon class="fil18" points="25465,-7886 25465,-7759 24999,-7759 24999,-8679 25084,-8679 25385,-8679 25465,-8679 25465,-8552 "/>
 <path class="fil2" d="M25386 -8718c0,12 -1,25 -1,38l-301 0c0,-13 2,-26 2,-38 0,-611 -495,-1105 -1105,-1105 -611,0 -1105,495 -1105,1105 0,12 1,25 2,38l-301 0c0,-13 -1,-26 -1,-38 0,-777 629,-1406 1405,-1406 776,0 1406,629 1406,1406z"/>
 <polygon class="fil19" points="25028,-7012 25028,-6874 24423,-6874 24423,-7150 25028,-7150 "/>
 <polygon class="fil18" points="22955,-8679 22955,-7759 22490,-7759 22490,-7886 22490,-8552 22490,-8679 22576,-8679 22877,-8679 "/>
 <polygon class="fil10" points="22490,-7886 22262,-7886 22262,-8552 22490,-8552 "/>
</symbol>
<symbol id="Symbol2" viewBox="19245 -4733 315 3134">
 <path class="fil20" d="M19560 -4733c0,0 -315,38 -315,837l0 2134c0,123 276,269 276,54 0,-215 -23,-2034 -23,-2318 0,-284 15,-606 61,-706z"/>
</symbol>
<symbol id="Fm4-65-0" viewBox="6099 -16984 3548 3548">
 <path class="fil21" d="M8385 -16210c-34,-147 -140,-301 -511,-301 -331,0 -452,123 -498,254 -19,55 -26,112 -29,162 -5,78 -6,223 -5,362l-1 0c0,0 -169,-134 -176,0 -6,134 29,419 187,419 14,98 59,287 202,406l0 108 -802 270 0 695c-398,-325 -652,-820 -652,-1374 0,-980 794,-1774 1774,-1774 980,0 1774,794 1774,1774 0,554 -254,1049 -652,1374l0 -695 -802 -270 0 -108c143,-119 187,-308 202,-406 158,0 194,-285 187,-419 -6,-134 -175,0 -175,0l-1 0c1,-139 1,-284 -5,-362 -3,-35 -6,-75 -16,-115z"/>
 <path class="fil2" d="M8995 -14531l0 695 0 1c-306,250 -696,400 -1122,400 -426,0 -816,-150 -1122,-400l0 -1 0 -695 802 -270 0 444 320 138 320 -138 0 -444 802 270z"/>
 <path class="fil1" d="M8582 -15733c7,134 -29,419 -187,419 5,-39 6,-64 6,-64 0,0 4,-173 5,-355l1 0c0,0 169,-134 175,0z"/>
 <path class="fil1" d="M8401 -16095c5,78 6,223 5,362 -1,182 -5,355 -5,355 0,0 -1,25 -6,64 -15,98 -59,287 -202,406 -33,27 -71,51 -115,69l-204 -69 -205 69c-44,-17 -82,-41 -115,-69 -143,-119 -187,-308 -202,-406 -5,-39 -6,-64 -6,-64 0,0 -4,-173 -5,-355 -1,-139 -1,-284 5,-362 3,-50 10,-107 29,-162 0,0 182,259 484,343l-53 -146c14,5 260,101 579,-149 10,40 13,79 16,115z"/>
 <path class="fil22" d="M7806 -16061l53 146c-302,-84 -484,-343 -484,-343 46,-131 167,-254 498,-254 371,0 477,154 511,301 -319,250 -565,154 -579,149z"/>
 <path class="fil1" d="M8193 -14800l0 444 -320 138 -320 -138 0 -444 115 -39c57,25 125,39 205,39 79,0 147,-14 204,-39l115 39z"/>
 <path class="fil1" d="M7873 -14908l204 69c-57,25 -125,39 -204,39 -79,0 -147,-14 -205,-39l205 -69z"/>
 <path class="fil1" d="M7346 -15378c0,0 1,25 6,64 -158,0 -194,-285 -187,-419 7,-134 176,0 176,0l1 0c1,182 5,355 5,355z"/>
</symbol>
<symbol id="Fm0-50-0" viewBox="18343 -10603 9228 9682">
 <path class="fil4 str0" d="M18396 -5762c0,-2644 2042,-4788 4561,-4788 2519,0 4561,2144 4561,4788 0,2644 -2042,4788 -4561,4788 -2519,0 -4561,-2144 -4561,-4788z"/>
</symbol>
<symbol id="Fm9-40-0" viewBox="25068 -16665 1715 1715">
 <polygon class="fil8" points="26783,-14950 26493,-15055 26372,-15218 26515,-15361 26678,-15240 "/>
 <polygon class="fil16" points="25323,-16585 25909,-15998 25894,-15983 25750,-15839 25735,-15824 25149,-16410 25164,-16425 25307,-16569 "/>
 <polygon class="fil17" points="26415,-15461 26515,-15361 26372,-15218 26272,-15318 "/>
 <polygon class="fil16" points="25894,-15983 26415,-15461 26272,-15318 25750,-15839 "/>
 <polygon class="fil8" points="25212,-16665 25307,-16569 25164,-16425 25133,-16457 25068,-16521 "/>
</symbol>
<symbol id="Fm1-52-0" viewBox="19091 -9818 7732 8110">
 <path class="fil4 str1" d="M19161 -5762c0,-2201 1699,-3985 3796,-3985 2096,0 3796,1784 3796,3985 0,2201 -1699,3985 -3796,3985 -2096,0 -3796,-1784 -3796,-3985z"/>
</symbol>
<symbol id="Fm12-31-0" viewBox="23473 -12715 1338 2111">
 <path class="fil1" d="M24811 -11911l0 701c0,155 -59,310 -178,429 -118,118 -273,177 -429,177l-125 0c-155,0 -310,-59 -429,-177 -118,-119 -177,-273 -177,-429l0 -701 669 0 669 0z"/>
 <path class="fil15" d="M24811 -12352l0 441 -669 0 0 -127 83 0 0 -331 -83 0 0 -346 305 0c93,0 186,35 257,107 71,71 107,164 107,257z"/>
 <polygon class="fil23" points="24225,-12038 24142,-12038 24142,-12369 24225,-12369 "/>
 <path class="fil15" d="M24142 -12038l0 127 -669 0 0 -441c0,-93 36,-186 107,-257 71,-71 164,-107 257,-107l305 0 0 346 -83 0 0 331 83 0z"/>
 <polygon class="fil23" points="24142,-12038 24059,-12038 24059,-12369 24142,-12369 "/>
</symbol>
<symbol id="Fm9-45-0" viewBox="4770 -8545 4905 4922">
 <path class="fil0" d="M8049 -8250c-39,0 -72,24 -84,58 -2,-1 -4,-3 -7,-4 -16,-14 -33,-27 -52,-39 -90,-80 -227,-131 -381,-131 -116,0 -223,29 -307,78 -9,-7 -179,-138 -212,-138l-315 0c-49,0 -89,38 -89,86l0 401 -863 -604 -94 0 0 237 -17 0 -259 -237 -95 0 -506 331 0 656 451 288 -176 2269 1818 1378 1337 0c127,0 249,-16 366,-46 0,0 97,-30 181,-59 493,-230 928,-749 928,-1370l0 -2146c-667,-509 -1326,-1005 -1342,-1005l-284 0z"/>
</symbol>
<symbol id="Fm1-38-0" viewBox="20784 -20485 6858 7120">
 <path class="fil4 str1" d="M20855 -16916c0,-1947 1504,-3526 3359,-3526 1855,0 3359,1579 3359,3526 0,1947 -1504,3526 -3359,3526 -1855,0 -3359,-1579 -3359,-3526z"/>
</symbol>
<symbol id="Fm8-45-0" viewBox="22709 -9004 2623 3616">
 <path class="fil5" d="M23297 -7867c0,-64 -52,-116 -117,-116 -64,0 -116,52 -116,116 0,65 52,117 116,117 65,0 117,-52 117,-117zm436 0c0,-64 -52,-116 -116,-116 -64,0 -116,52 -116,116 0,65 52,117 116,117 64,0 116,-52 116,-117zm1213 2111l0 -723 0 -361 0 -362 0 -361 -466 0 -465 0 -466 0 -466 0 0 361 0 362 0 361 0 362 0 361 932 0 465 0 466 0zm12 -2916l-1876 0 0 515 1876 0 0 -515zm0 515zm0 162l-944 0 0 250 944 0 0 -250zm0 250zm374 2358l-2623 0 0 -3616 2623 0 0 3616zm0 -3616l0 3616"/>
 <polygon class="fil10" points="24959,-7746 24015,-7746 24015,-7996 24959,-7996 "/>
 <polygon class="fil8" points="24959,-8158 23083,-8158 23083,-8673 24959,-8673 "/>
 <polygon class="fil2" points="24947,-6479 24947,-5756 24481,-5756 24481,-6118 24481,-6479 "/>
 <polygon class="fil6" points="24947,-6479 24481,-6479 24481,-6841 24947,-6841 "/>
 <polygon class="fil6" points="24947,-6841 24481,-6841 24481,-7203 24947,-7203 "/>
 <polygon class="fil6" points="24947,-7203 24481,-7203 24481,-7564 24947,-7564 "/>
 <polygon class="fil8" points="24481,-5756 24015,-5756 24015,-6118 24481,-6118 "/>
 <polygon class="fil8" points="24481,-6118 24015,-6118 24015,-6479 24481,-6479 "/>
 <polygon class="fil8" points="24481,-6479 24015,-6479 24015,-6841 24481,-6841 "/>
 <polygon class="fil8" points="24481,-6841 24015,-6841 24015,-7203 24481,-7203 "/>
 <polygon class="fil8" points="24481,-7203 24015,-7203 24015,-7564 24481,-7564 "/>
 <polygon class="fil10" points="24015,-6118 24015,-5756 23083,-5756 23083,-6118 23549,-6118 "/>
 <polygon class="fil8" points="24015,-6118 23549,-6118 23549,-6479 24015,-6479 "/>
 <polygon class="fil8" points="24015,-6479 23549,-6479 23549,-6841 24015,-6841 "/>
 <polygon class="fil8" points="24015,-6841 23549,-6841 23549,-7203 24015,-7203 "/>
 <polygon class="fil8" points="24015,-7203 23549,-7203 23549,-7564 24015,-7564 "/>
 <path class="fil2" d="M23617 -7984c64,0 116,52 116,116 0,65 -52,117 -116,117 -64,0 -116,-52 -116,-117 0,-64 52,-116 116,-116z"/>
 <polygon class="fil8" points="23549,-6118 23083,-6118 23083,-6479 23549,-6479 "/>
 <polygon class="fil8" points="23549,-6479 23083,-6479 23083,-6841 23549,-6841 "/>
 <polygon class="fil8" points="23549,-6841 23083,-6841 23083,-7203 23549,-7203 "/>
 <polygon class="fil8" points="23549,-7203 23083,-7203 23083,-7564 23549,-7564 "/>
 <path class="fil10" d="M23181 -7984c65,0 117,52 117,116 0,65 -52,117 -117,117 -64,0 -116,-52 -116,-117 0,-64 52,-116 116,-116z"/>
</symbol>
<symbol id="Fm0-23-0" viewBox="14085 -8612 6664 3510">
 <path class="fil7" d="M20310 -5733l0 -2248c0,-161 -132,-292 -292,-292l-4004 0 -731 0 -468 0c-161,0 -292,132 -292,292l0 2248c0,161 132,292 292,292l468 0 731 0 4004 0c161,0 292,-131 292,-292zm438 -2587l0 2926c0,161 -132,292 -292,292l-6079 0c-161,0 -292,-132 -292,-292l0 -2926c0,-161 132,-292 292,-292l6079 0c161,0 292,132 292,292z"/>
 <path class="fil9" d="M20310 -7981l0 2248c0,161 -132,292 -292,292l-4004 0 0 -1261 0 -312 0 -1261 4004 0c161,0 292,131 292,292z"/>
 <polygon class="fil8" points="16014,-5440 15283,-5440 15283,-6701 16014,-6701 "/>
 <polygon class="fil19" points="16014,-6701 15283,-6701 15283,-7013 16014,-7013 "/>
 <polygon class="fil8" points="16014,-7013 15283,-7013 15283,-8273 16014,-8273 "/>
 <path class="fil9" d="M15283 -6701l0 1261 -468 0c-161,0 -292,-131 -292,-292l0 -2248c0,-161 132,-292 292,-292l468 0 0 1261 0 312z"/>
</symbol>
<symbol id="Fm7-36-0" viewBox="15925 -15570 3648 3648">
 <path class="fil1" d="M19053 -13746c0,-720 -584,-1304 -1304,-1304 -720,0 -1304,584 -1304,1304 0,720 584,1304 1304,1304 720,0 1304,-584 1304,-1304zm-1304 -1824c1008,0 1824,816 1824,1824 0,1008 -816,1824 -1824,1824 -1008,0 -1824,-816 -1824,-1824 0,-1008 816,-1824 1824,-1824z"/>
 <path class="fil2" d="M17749 -15050c720,0 1304,584 1304,1304 0,720 -584,1304 -1304,1304 -720,0 -1304,-584 -1304,-1304 0,-720 584,-1304 1304,-1304z"/>
</symbol>
<symbol id="Fm2-31-0" viewBox="21887 -24593 4836 4844">
 <path class="fil0" d="M26690 -21893c-9,-7 -17,-13 -26,-20 -9,-7 -18,-13 -26,-20 -9,-7 -17,-13 -26,-20 -9,-7 -17,-13 -26,-20 -9,-7 -17,-13 -26,-20 -9,-7 -17,-13 -26,-20 -9,-7 -18,-13 -26,-20 -9,-7 -17,-13 -26,-20 -9,-7 -17,-13 -26,-20 -9,-7 -17,-13 -26,-20 -9,-7 -17,-13 -26,-20 -9,-7 -17,-13 -26,-20 -9,-7 -17,-13 -26,-20 -9,-7 -18,-13 -26,-20 -9,-7 -18,-14 -27,-20 -9,-6 -17,-13 -26,-19 -9,-7 -17,-13 -26,-20 -9,-7 -17,-13 -26,-20 -9,-7 -17,-13 -26,-20 -9,-7 -18,-13 -26,-20 -9,-7 -17,-13 -26,-20 -9,-7 -17,-13 -26,-20 -9,-7 -18,-13 -26,-20 -9,-7 -17,-13 -26,-20 -9,-7 -17,-13 -26,-20 -9,-7 -17,-13 -26,-20 -9,-7 -17,-13 -26,-20 -9,-7 -17,-13 -26,-20 -9,-7 -17,-13 -26,-20 -9,-7 -17,-13 -26,-20 -9,-7 -17,-13 -26,-20 -9,-7 -18,-13 -26,-20 -9,-7 -17,-13 -26,-20 -9,-7 -17,-13 -26,-20 -9,-7 -17,-13 -26,-20 -9,-7 -17,-13 -26,-20 -9,-7 -17,-13 -26,-20 -9,-7 -18,-13 -26,-20 -9,-7 -17,-13 -26,-20 -9,-7 -18,-13 -26,-20 -9,-7 -17,-13 -26,-20 -9,-7 -17,-13 -26,-20 -9,-7 -18,-13 -26,-20 -9,-7 -17,-13 -26,-20 -9,-7 -17,-13 -26,-20 -9,-7 -17,-13 -26,-20 -9,-7 -17,-13 -26,-20 -9,-7 -17,-13 -26,-20 -9,-7 -18,-13 -27,-20 -9,-7 -17,-13 -26,-20 -9,-7 -17,-13 -26,-20 -9,-7 -17,-13 -26,-20 -9,-7 -17,-13 -26,-20 -9,-7 -18,-13 -27,-20 -9,-7 -17,-13 -26,-20 -9,-7 -17,-13 -26,-20 -9,-7 -17,-13 -26,-20 -9,-7 -17,-13 -26,-20 -9,-7 -18,-13 -26,-20 -9,-7 -17,-13 -26,-20 -9,-7 -17,-13 -26,-20 -9,-7 -17,-13 -26,-20 -9,-7 -18,-13 -26,-20 -9,-7 -17,-13 -26,-20 -9,-7 -17,-13 -26,-20 -9,-7 -17,-13 -26,-20 -9,-7 -17,-13 -26,-20 -9,-7 -17,-13 -26,-20 -9,-7 -17,-13 -26,-20 -9,-7 -17,-13 -26,-20 -9,-7 -18,-13 -26,-20 -9,-7 -17,-13 -26,-20 -9,-7 -17,-13 -26,-20 -9,-7 -18,-13 -26,-20 -9,-7 -17,-13 -26,-20 -9,-7 -18,-13 -27,-20 -9,-7 -17,-13 -26,-20 -9,-7 -17,-13 -26,-20 -9,-7 -18,-13 -26,-20 -9,-7 -17,-13 -26,-20 -9,-7 -17,-13 -26,-20 -9,-7 -17,-13 -26,-20 -9,-7 -18,-13 -26,-20 -9,-7 -17,-13 -26,-20 -9,-7 -17,-13 -26,-20 -9,-7 -17,-13 -26,-20 -9,-7 -17,-13 -26,-20 -9,-7 -17,-13 -26,-20 -9,-7 -17,-13 -26,-20 -9,-7 -17,-13 -26,-20 -9,-7 -17,-13 -26,-20 -9,-7 -17,-13 -26,-20 -9,-7 -17,-13 -26,-20 -9,-7 -17,-13 -26,-20 -9,-7 -17,-13 -26,-20 -9,-7 -18,-13 -26,-20 -390,-297 -868,-521 -1406,-657 -409,-104 -745,-129 -882,-136l0 586c8,1 2646,2006 2646,2006 43,3 104,7 179,16 18,70 34,141 48,213 -2,-2 -5,-4 -7,-5 -9,-7 -17,-13 -26,-20 -9,-7 -17,-13 -26,-20 -9,-7 -17,-14 -26,-20 -9,-7 -17,-13 -26,-20 -9,-7 -17,-13 -26,-20 -9,-7 -17,-13 -26,-20 -9,-7 -17,-13 -26,-20 -9,-7 -17,-13 -26,-20 -9,-7 -17,-13 -26,-20 -9,-7 -17,-13 -26,-20 -9,-7 -18,-14 -27,-20 -9,-7 -17,-13 -26,-20 -9,-7 -17,-13 -26,-20 -9,-7 -18,-14 -27,-20 -9,-7 -17,-13 -26,-20 -9,-7 -17,-13 -26,-20 -9,-7 -17,-13 -26,-20 -9,-7 -17,-13 -26,-20 -9,-7 -17,-13 -26,-20 -9,-7 -18,-14 -27,-20 -9,-6 -17,-13 -25,-19 -9,-7 -18,-14 -27,-20 -9,-6 -17,-13 -26,-20 -9,-7 -17,-13 -26,-20 -9,-7 -17,-13 -26,-20 -9,-7 -17,-13 -26,-20 -9,-7 -17,-13 -26,-20 -9,-7 -17,-13 -26,-20 -9,-7 -17,-13 -26,-20 -9,-7 -17,-13 -26,-20 -9,-7 -17,-13 -26,-20 -9,-7 -17,-13 -26,-20 -9,-7 -18,-14 -27,-20 -9,-7 -17,-13 -26,-20 -9,-7 -17,-13 -26,-20 -9,-7 -17,-13 -26,-20 -9,-7 -17,-13 -26,-20 -9,-7 -17,-13 -26,-20 -9,-7 -18,-14 -26,-20 -9,-7 -17,-13 -26,-20 -9,-7 -17,-13 -26,-20 -9,-7 -17,-13 -26,-20 -9,-7 -17,-13 -26,-20 -9,-6 -17,-13 -26,-19 -9,-7 -18,-14 -27,-20 -9,-7 -17,-13 -26,-20 -9,-7 -17,-13 -26,-20 -9,-7 -17,-13 -26,-20 -9,-7 -17,-13 -26,-20 -9,-7 -17,-13 -26,-20 -9,-7 -18,-13 -26,-20 -9,-6 -17,-13 -26,-20 -9,-7 -17,-14 -26,-20 -261,-197 -580,-342 -940,-426 -231,-54 -427,-70 -538,-75l0 586c8,0 1650,1251 1650,1251 2,0 5,0 7,0 15,71 25,145 32,221 -4,-3 -8,-6 -12,-9 -8,-7 -17,-13 -26,-20 -8,-7 -17,-13 -26,-20 -8,-7 -17,-13 -26,-20 -8,-7 -17,-13 -26,-20 -9,-7 -17,-14 -26,-20 -8,-7 -17,-13 -26,-20 -8,-7 -17,-13 -26,-20 -8,-7 -17,-13 -26,-20 -8,-7 -17,-13 -26,-20 -8,-7 -17,-13 -26,-20 -8,-7 -17,-14 -26,-20 -8,-7 -17,-13 -26,-20 -8,-7 -17,-13 -26,-20 -8,-7 -17,-13 -26,-20 -8,-7 -17,-14 -26,-20 -8,-7 -17,-13 -26,-20 -8,-7 -17,-14 -26,-20 -8,-7 -17,-13 -26,-20 -9,-7 -17,-14 -26,-20 -8,-7 -17,-13 -26,-20 -8,-7 -17,-13 -26,-20 -8,-7 -17,-13 -26,-20 -8,-7 -17,-13 -26,-20 -8,-7 -17,-13 -26,-20 -9,-7 -17,-14 -26,-20 -8,-7 -17,-13 -26,-20 -8,-7 -17,-13 -26,-20 -8,-7 -17,-13 -26,-20 -8,-7 -17,-13 -26,-20 -8,-7 -17,-13 -26,-20 -8,-7 -17,-13 -26,-20 -8,-7 -17,-13 -26,-20 -8,-7 -17,-13 -26,-20 -81,-68 -185,-108 -299,-108 -259,0 -468,210 -468,469 0,157 77,296 195,381 8,7 17,13 26,20 8,7 17,13 26,20 8,7 17,13 26,20 8,7 17,13 26,20 8,7 17,13 26,20 8,7 17,13 26,20 8,7 17,14 26,20 8,7 17,13 26,20 8,7 17,13 26,20 8,7 17,13 26,20 8,7 17,13 26,20 9,7 17,14 26,20 8,7 17,13 26,20 8,7 17,14 26,20 8,7 17,13 26,20 8,7 17,14 26,20 8,7 17,13 26,20 8,7 17,13 26,20 8,7 17,13 26,20 8,7 17,13 26,20 8,7 17,13 26,20 8,7 17,13 26,20 8,7 17,13 26,20 8,7 17,14 26,20 8,7 17,13 26,20 8,7 17,13 26,20 8,7 17,13 26,20 8,7 17,13 26,20 8,7 17,13 26,20 8,7 17,13 26,20 8,7 17,13 26,20 8,7 17,13 26,20 8,7 17,13 26,20 8,7 17,13 26,20 8,7 17,13 26,20 8,7 17,14 26,20 8,7 17,13 26,20 8,7 17,13 26,20 8,7 17,14 26,20 8,7 17,13 26,20 8,7 17,13 26,20 8,7 17,13 26,20 8,7 17,13 26,20 8,7 17,13 26,20 8,7 17,13 26,20 8,7 17,13 26,20 8,7 17,14 26,20 8,7 17,13 26,20 8,7 17,13 26,20 8,7 17,14 26,20 8,7 17,13 26,20 8,7 17,13 26,20 8,7 17,13 26,20 8,7 17,13 26,20 8,7 17,13 26,20 8,7 17,13 26,20 8,7 17,13 26,20 8,7 17,14 26,20 8,7 17,13 26,20 8,7 17,13 26,20 8,7 17,14 26,20 8,7 17,13 26,20 8,7 17,13 26,20 8,7 17,14 26,20 8,7 17,13 26,20 8,7 17,13 26,20 9,7 17,14 26,20 8,7 17,13 26,20 8,7 17,13 26,20 8,7 17,13 26,20 8,7 17,13 26,20 8,7 17,13 26,20 7,6 14,11 21,16l1213 0c815,0 1475,-659 1475,-1472l0 -647c-3,-2 -5,-4 -8,-6 -9,-7 -17,-13 -26,-20z"/>
</symbol>
<symbol id="Fm8-73-0" viewBox="20524 -20573 1332 2516">
 <path class="fil1" d="M21631 -19880c0,-244 -197,-441 -441,-441 -243,0 -441,197 -441,441 0,244 197,441 441,441 244,0 441,-197 441,-441zm-441 -693c391,0 666,190 666,698 0,507 -666,1818 -666,1818 0,0 -666,-1311 -666,-1818 0,-507 275,-698 666,-698z"/>
 <path class="fil2" d="M21378 -19880c0,-104 -84,-188 -188,-188 -104,0 -187,84 -187,188 0,104 84,188 187,188 104,0 188,-84 188,-188zm-188 -441c244,0 441,197 441,441 0,244 -197,441 -441,441 -243,0 -441,-197 -441,-441 0,-244 197,-441 441,-441z"/>
</symbol>
<symbol id="Fm1-60-0" viewBox="4978 -9270 6871 7138">
 <path class="fil4 str1" d="M5048 -5695c0,-1951 1507,-3533 3365,-3533 1858,0 3365,1582 3365,3533 0,1951 -1507,3533 -3365,3533 -1858,0 -3365,-1582 -3365,-3533z"/>
</symbol>
<symbol id="Fm6-41-0" viewBox="25263 -17218 693 693">
 <path class="fil24" d="M25263 -16872c0,-192 155,-347 347,-347 191,0 347,155 347,347 0,191 -155,347 -347,347 -192,0 -347,-155 -347,-347z"/>
</symbol>
<symbol id="Fm3-35-0" viewBox="5326 -17000 3009 4004">
 <polygon class="fil1" points="8335,-16607 8335,-13161 8074,-13161 8074,-14580 8074,-14884 8074,-15170 8074,-16607 "/>
 <path class="fil12" d="M8074 -13161l0 165 -2747 0 0 -1888 1097 0c53,150 175,303 448,303l1203 0 0 1420z"/>
 <path class="fil7" d="M8074 -14884l0 303 -1203 0c-273,0 -395,-153 -448,-303l1651 0z"/>
 <path class="fil7" d="M8074 -15170l0 286 -1651 0c-51,-144 -40,-286 -40,-286l1691 0z"/>
 <path class="fil23" d="M8074 -16607l0 1437 -1691 0c0,0 -12,141 40,286l-1097 0 0 -1888 386 0 0 991 296 -167 296 167 0 -991 1769 0 0 165z"/>
 <path class="fil25" d="M6113 -16251l104 -101 -144 -21 -65 -130 -64 130 -144 21 104 101 -24 144 129 -68 129 68 -25 -144zm192 -521l0 991 -296 -167 -296 167 0 -991 592 0z"/>
 <polygon class="fil25" points="6305,-16772 5713,-16772 5713,-17000 6305,-17000 "/>
 <polygon class="fil1" points="6217,-16353 6113,-16251 6138,-16108 6009,-16175 5880,-16108 5905,-16251 5800,-16353 5944,-16374 6009,-16504 6073,-16374 "/>
</symbol>
<symbol id="Fm10-27-0" viewBox="4120 -21003 3378 1978">
 <polygon class="fil1" points="7499,-19682 7499,-19363 7354,-19310 7354,-19663 7354,-19709 "/>
 <path class="fil25" d="M7091 -20907l407 1225 -145 -53 0 26 -4 -1c-9,-51 -33,-100 -73,-139 -30,-30 -65,-51 -102,-63l-189 -861c-167,-50 -219,-230 -219,-230l324 96z"/>
 <polygon class="fil1" points="7499,-19682 7354,-19709 7354,-19735 "/>
 <path class="fil12" d="M7171 -19340l0 -272c0,-49 -19,-98 -56,-135 -37,-37 -86,-56 -135,-56l-585 0c-49,0 -98,19 -135,56 -37,37 -56,86 -56,135l0 81c0,98 37,195 112,270 75,74 172,112 270,112l394 0c49,0 98,-19 135,-56 37,-37 56,-86 56,-135zm183 29l0 22c0,67 -26,135 -77,186 -52,51 -119,77 -186,77l-543 0c-135,0 -269,-51 -372,-154 -103,-103 -154,-237 -154,-372l0 -109c14,11 21,19 21,19l0 -124c13,-30 32,-59 56,-84 51,-51 119,-77 186,-77l806 0c28,0 57,5 84,14l39 177 136 25c3,15 4,31 4,47l0 353z"/>
 <path class="fil12" d="M7350 -19710l-136 -25 -39 -177c37,12 72,34 102,63 39,39 64,88 73,139z"/>
 <path class="fil10" d="M7171 -19611l0 272c0,49 -19,98 -56,135 -37,37 -86,56 -135,56l-394 0c-98,0 -195,-37 -270,-112 -74,-75 -112,-172 -112,-270l0 -81c0,-49 19,-98 56,-135 37,-37 86,-56 135,-56l585 0c49,0 98,19 135,56 37,37 56,86 56,135z"/>
 <path class="fil1" d="M6043 -19765l0 124c0,0 -7,-8 -21,-19l0 -3c0,-35 7,-70 21,-102z"/>
 <path class="fil15" d="M6043 -19767l0 2c-14,33 -21,67 -21,102l0 3c-35,-29 -111,-80 -213,-80 -101,0 -177,50 -212,79l0 -2c0,-35 -7,-71 -22,-104 0,0 93,-99 234,-99 141,0 234,99 234,99z"/>
 <path class="fil12" d="M5414 -19530l0 -81c0,-49 -18,-98 -56,-135 -37,-37 -86,-56 -135,-56l-585 0c-49,0 -98,19 -135,56 -37,37 -56,86 -56,135l0 272c0,49 19,98 56,135 37,37 86,56 135,56l394 0c98,0 195,-37 270,-112 75,-75 112,-172 112,-270zm183 -131l0 110c0,135 -52,269 -154,372 -103,102 -237,154 -372,154l-543 0c-67,0 -135,-26 -186,-77 -51,-52 -77,-119 -77,-186l0 -22 0 -353c0,-16 1,-31 4,-47l136 -25 39 -177c27,-9 55,-14 84,-14l806 0c67,0 134,26 186,77 24,24 43,52 55,82l0 125c0,0 8,-8 22,-19z"/>
 <path class="fil1" d="M5597 -19663l0 2c-14,12 -22,19 -22,19l0 -125c14,33 22,68 22,104z"/>
 <path class="fil10" d="M5414 -19611l0 81c0,98 -37,195 -112,270 -74,74 -172,112 -270,112l-394 0c-49,0 -98,-19 -135,-56 -37,-37 -56,-86 -56,-135l0 -272c0,-49 19,-98 56,-135 37,-37 86,-56 135,-56l585 0c49,0 98,19 135,56 37,37 56,86 56,135z"/>
 <path class="fil25" d="M4528 -20907l324 -96c0,0 -53,180 -219,230l-189 861c-37,13 -72,34 -102,63 -39,39 -64,88 -73,139l-4 1 0 -26 -145 53 407 -1225z"/>
 <path class="fil12" d="M4444 -19912l-39 177 -136 25c9,-51 33,-100 73,-139 30,-30 65,-51 102,-63z"/>
 <polygon class="fil1" points="4265,-19663 4265,-19310 4120,-19363 4120,-19682 4265,-19709 "/>
 <polygon class="fil1" points="4265,-19735 4265,-19709 4120,-19682 "/>
</symbol>
<symbol id="Fm10-25-0" viewBox="13110 -8467 5117 4856">
 <path class="fil0" d="M17083 -8460l-454 99c-9,-12 -124,-104 -161,-106 -84,-6 -94,79 -94,79l0 2 -4 49 -3260 438 293 1659 408 276 5 26 -375 0c0,0 -86,5 -86,88 0,37 275,251 446,378 -83,56 -138,150 -138,258 0,113 60,211 150,266 16,15 33,28 52,39 16,15 33,28 52,39 16,15 33,28 52,39 16,15 33,28 52,40 16,15 33,28 52,39 16,15 33,28 52,39 16,15 33,28 52,39 16,15 33,28 52,39 16,15 33,28 52,39 16,15 33,28 52,39 16,15 33,28 52,40 16,15 33,28 52,39 16,15 33,28 52,40 16,15 33,28 52,39 16,15 33,28 52,39 16,15 33,28 52,40 16,15 33,28 52,39 16,15 33,28 52,39 16,15 33,28 52,39 16,15 33,28 52,39 16,15 33,28 52,39 16,15 33,28 52,39 16,15 33,28 52,39 16,15 33,28 52,39 16,15 33,28 52,39 16,15 33,28 52,40 16,15 33,28 52,39 16,15 33,28 52,39 16,15 33,28 52,39 16,15 33,28 52,39 16,15 33,28 52,39 16,15 33,28 52,40 16,15 33,28 52,39 14,13 29,25 46,35 0,0 443,-1 1022,0 80,0 1550,53 1635,-1475l0 -2521c-602,-450 -1142,-852 -1142,-852l-2 0z"/>
</symbol>
<symbol id="Fm2-40-0" viewBox="21577 -19681 5272 5529">
 <path class="fil4 str0" d="M21630 -16916c0,-1498 1156,-2712 2583,-2712 1427,0 2583,1214 2583,2712 0,1498 -1156,2712 -2583,2712 -1426,0 -2583,-1214 -2583,-2712z"/>
</symbol>
<symbol id="Fm5-39-0" viewBox="24976 -17418 1612 2569">
 <path class="fil5" d="M26588 -16506c0,199 -106,412 -257,676 -127,222 -110,414 -110,414l-189 0 147 -939 -105 0 -79 165 -60 -165 -73 163 -80 -163 -80 163 -74 -163 -60 165 -79 -165 -105 0 147 939 -189 0c0,0 17,-192 -110,-414 -151,-265 -257,-477 -257,-676 0,-199 24,-913 806,-913 782,0 806,713 806,913z"/>
 <polygon class="fil1" points="25298,-15276 25298,-15415 25343,-15415 25531,-15415 26032,-15415 26221,-15415 26265,-15415 26265,-14998 26182,-14998 25382,-14998 25298,-14998 25298,-15142 "/>
 <polygon class="fil8" points="26182,-14849 25382,-14849 25382,-14998 26182,-14998 "/>
 <polygon class="fil5" points="26179,-16354 26032,-15415 25532,-15415 25385,-16354 25489,-16354 25568,-16189 25628,-16354 25702,-16191 25782,-16354 25862,-16191 25935,-16354 25995,-16189 26074,-16354 "/>
</symbol>
<symbol id="Fm1-23-0" viewBox="13059 -24604 5159 4844">
 <path class="fil0" d="M15529 -24604l0 333 -391 -224 -2078 1197 496 338 0 6 0 1875 1737 1320 1451 0c815,0 1475,-660 1475,-1475l0 -1741 -2142 -1628 -547 0z"/>
</symbol>
<symbol id="Fm0-58-0" viewBox="4317 -9993 8193 8596">
 <path class="fil4 str0" d="M4370 -5695c0,-2344 1810,-4245 4044,-4245 2233,0 4044,1901 4044,4245 0,2344 -1810,4245 -4044,4245 -2233,0 -4044,-1900 -4044,-4245z"/>
</symbol>
<symbol id="Fm2-54-0" viewBox="19985 -8880 5944 6235">
 <path class="fil4 str0" d="M20038 -5762c0,-1692 1307,-3064 2919,-3064 1612,0 2919,1372 2919,3064 0,1692 -1307,3064 -2919,3064 -1612,0 -2919,-1372 -2919,-3064z"/>
</symbol>
<symbol id="Fm0-19-0" viewBox="149951 -117957 9758 9758">
 <path class="fil26" d="M158696 -116055c-1644,-2135 -4707,-2534 -6842,-890 -2135,1644 -2533,4707 -889,6842 1644,2135 4707,2533 6842,890 2135,-1644 2533,-4707 890,-6842z"/>
</symbol>
<symbol id="Fm8-38-0" viewBox="10579 -7276 1891 1891">
 <polygon class="fil5" points="12470,-7276 12470,-5935 11921,-5935 11921,-5386 10579,-5386 10579,-7276 "/>
 <polygon class="fil1" points="12470,-5935 11921,-5386 11921,-5935 "/>
</symbol>
<symbol id="Fm4-30-0" viewBox="12589 -25474 9917 8259">
 <path class="fil1" d="M17779 -18900c0,-128 -104,-232 -232,-232 -128,0 -232,104 -232,232 0,128 104,232 232,232 128,0 232,-104 232,-232zm4727 -489l0 634c0,340 -278,619 -619,619l-3549 0 -1583 0 -3548 0c-340,0 -619,-278 -619,-619l0 -634 9913 0 4 0z"/>
 <path class="fil27" d="M21942 -24824l-8790 0 0 4915 8790 0 0 -4915zm0 4915zm564 -4946l0 5466 -4 0 -9913 0 0 -5466c0,-340 278,-619 619,-619l8680 0c340,0 619,278 619,619z"/>
 <polygon class="fil10" points="21942,-19909 13152,-19909 13152,-24824 21942,-24824 "/>
 <path class="fil1" d="M19235 -17215l-1688 0 -1689 0c681,-278 897,-922 897,-922l1583 0c0,0 217,643 897,922z"/>
 <path class="fil2" d="M17547 -19132c128,0 232,104 232,232 0,128 -104,232 -232,232 -128,0 -232,-104 -232,-232 0,-128 104,-232 232,-232z"/>
</symbol>
<symbol id="Fm8-43-0" viewBox="31991 -16620 2989 2845">
 <path class="fil0" d="M34942 -14839c-8,-7 -17,-14 -26,-20 -8,-7 -17,-14 -26,-20 -8,-7 -17,-14 -26,-20 -8,-7 -17,-14 -26,-20 -8,-7 -17,-14 -26,-20 -8,-7 -17,-14 -26,-20 -8,-7 -17,-14 -26,-20 -8,-7 -17,-14 -26,-20 -8,-7 -17,-14 -26,-20 -8,-7 -17,-14 -26,-20 -8,-7 -17,-14 -26,-20 -8,-7 -17,-14 -26,-20 -8,-7 -17,-14 -26,-20 -8,-7 -17,-14 -26,-20 -8,-7 -17,-14 -26,-20 -8,-7 -17,-14 -26,-20 -8,-7 -17,-14 -26,-20 -8,-7 -17,-14 -26,-20 -8,-7 -17,-14 -26,-20 -8,-7 -17,-14 -26,-20 -8,-7 -17,-14 -26,-20 -8,-7 -17,-14 -26,-20 -8,-7 -17,-14 -26,-20 -8,-7 -17,-14 -26,-20 -8,-7 -17,-14 -26,-20 -8,-7 -17,-14 -26,-20 -8,-7 -17,-14 -26,-20 -8,-7 -17,-14 -26,-20 -8,-7 -17,-14 -26,-20 -8,-7 -17,-14 -26,-20 -8,-7 -17,-14 -26,-20 -8,-7 -17,-14 -26,-20 -8,-7 -17,-14 -26,-20 -8,-7 -17,-14 -26,-20 -8,-7 -17,-14 -26,-20 -8,-7 -17,-14 -26,-20 -8,-7 -17,-14 -26,-20 -8,-7 -17,-14 -26,-20 -8,-7 -17,-14 -26,-20 -8,-7 -17,-14 -26,-20 -8,-7 -17,-14 -26,-20 -8,-7 -17,-14 -26,-20 -8,-7 -17,-14 -26,-20 -8,-7 -17,-14 -26,-20 -8,-7 -17,-14 -26,-20 -8,-7 -17,-14 -26,-20 -8,-7 -17,-14 -26,-20 -8,-7 -17,-14 -26,-20 -8,-7 -17,-14 -26,-20 -8,-7 -17,-14 -26,-20 -8,-7 -17,-14 -26,-20 -8,-7 -17,-14 -26,-20 -8,-7 -17,-14 -26,-20 -8,-7 -17,-14 -26,-20 -8,-7 -17,-14 -26,-20 -8,-7 -17,-14 -26,-20 -8,-7 -17,-14 -26,-20 -8,-7 -17,-14 -26,-20 -8,-7 -17,-14 -26,-20 -8,-7 -17,-14 -26,-20 -8,-7 -17,-14 -26,-20 -8,-7 -17,-14 -26,-20 -8,-7 -17,-14 -26,-20 -8,-7 -17,-14 -26,-20 -8,-7 -17,-14 -26,-20 -8,-7 -17,-14 -26,-20 -8,-7 -17,-14 -26,-20 -8,-7 -17,-14 -26,-20 -8,-7 -17,-14 -26,-20 -8,-7 -17,-14 -26,-20 -8,-7 -17,-14 -26,-20 -8,-7 -17,-14 -26,-20 -8,-7 -17,-14 -26,-20 -8,-7 -17,-14 -26,-20 -8,-7 -17,-14 -26,-20 -8,-7 -17,-14 -26,-20 -8,-7 -17,-14 -26,-20 -8,-7 -17,-14 -26,-20 -8,-7 -17,-14 -26,-20 -8,-7 -17,-14 -26,-20 -8,-7 -17,-14 -26,-20 -8,-7 -17,-14 -26,-20 -8,-7 -17,-14 -26,-20 -8,-7 -17,-14 -26,-20 -8,-7 -17,-14 -26,-20 -68,-57 -158,-89 -261,-89 -248,0 -463,203 -463,452 0,140 56,251 152,317 8,7 17,14 26,20 8,7 17,14 26,20 8,7 17,14 26,20 8,7 17,14 26,20 8,7 17,14 26,20 8,7 17,14 26,20 8,7 17,14 26,20 8,7 17,14 26,20 8,7 17,14 26,20 8,7 17,14 26,20 8,7 17,14 26,20 8,7 17,14 26,20 8,7 17,14 26,20 8,7 17,14 26,20 8,7 17,14 26,20 8,7 17,14 26,20 8,7 17,14 26,20 8,7 17,14 26,20 8,7 17,14 26,20 8,7 17,14 26,20 8,7 17,14 26,20 8,7 17,14 26,20 8,7 17,14 26,20 8,7 17,14 26,20 8,7 17,14 26,20 8,7 17,14 26,20 8,7 17,14 26,20 8,7 17,14 26,20 8,7 17,14 26,20 8,7 17,14 26,20 8,7 17,14 26,20 8,7 17,14 26,20 8,7 17,14 26,20 8,7 17,14 26,20 8,7 17,14 26,20 8,7 17,14 26,20 8,7 17,14 26,20 8,7 17,14 26,20 8,7 17,14 26,20 8,7 17,14 26,20 8,7 17,14 26,20 8,7 17,14 26,20 8,7 17,14 26,20 8,7 17,14 26,20 8,7 17,14 26,20 8,7 17,14 26,20 8,7 17,14 26,20 8,7 17,14 26,20 8,7 17,14 26,20 8,7 17,14 26,20 8,7 17,14 26,20 8,7 17,14 26,20 8,7 17,14 26,20 8,7 17,14 26,20 8,7 17,14 26,20 8,7 17,14 26,20 8,7 17,14 26,20 8,7 17,14 26,20 8,7 17,14 26,20 8,7 17,14 26,20 8,7 17,14 26,20 8,7 17,14 26,20 8,7 17,14 26,20 8,7 17,14 26,20 8,7 17,14 26,20 8,7 17,14 26,20 8,7 17,14 26,20 8,7 17,14 26,20 8,7 17,14 26,20 8,7 17,14 26,20 8,7 17,14 26,20 8,7 17,14 26,20 8,7 17,14 26,20 8,7 17,14 26,20 8,7 17,14 26,20 8,7 17,14 26,20 8,7 17,14 26,20 8,7 17,14 26,20 8,7 17,14 26,20 8,7 17,14 26,20 8,7 17,14 26,20 8,7 17,14 26,20 8,7 17,14 26,20 8,7 17,14 26,20 8,7 17,14 26,20 8,7 17,14 26,20 8,7 17,14 26,20 8,7 17,14 26,20 8,7 17,14 26,20 8,7 17,14 26,20 8,7 17,14 26,20 8,7 17,14 26,20 8,7 17,14 26,20 8,7 17,14 26,20 8,7 17,14 26,20 8,7 17,14 26,20 8,7 17,14 26,20 8,7 17,14 26,20 8,7 17,14 26,20 8,7 17,14 26,20 57,48 131,78 218,85l0 -1034c-4,-3 -8,-7 -13,-10 -8,-7 -17,-14 -26,-20z"/>
</symbol>
<symbol id="Fm6-39-0" viewBox="22337 -16257 4375 4594">
 <path class="fil0" d="M22970 -16257l0 0 -633 0 0 2825 2327 1769 573 0c815,0 1475,-660 1475,-1475l0 -1941 -1550 -1178 -2192 0z"/>
</symbol>
<symbol id="Fm4-35-0" viewBox="4639 -16181 5030 4518">
 <path class="fil0" d="M4639 -16181l0 2878 2158 1640 1396 0c815,0 1475,-660 1475,-1475l0 -2194 -1117 -849 -3913 0z"/>
</symbol>
<symbol id="Fm12-47-0" viewBox="10660 -6863 2330 1497">
 <path class="fil1" d="M11272 -5794l-391 0 0 217 391 0 0 -217zm0 217zm1718 -641l0 639c0,116 -95,212 -212,212l-1906 0c-117,0 -212,-95 -212,-212l0 -639 2330 0z"/>
 <polygon class="fil2" points="12990,-6217 10660,-6217 10660,-6535 12990,-6535 "/>
 <path class="fil1" d="M12990 -6652l0 117 -2330 0 0 -117c0,-116 95,-212 212,-212l1906 0c116,0 212,95 212,212z"/>
 <polygon class="fil3" points="11272,-5576 10881,-5576 10881,-5794 11272,-5794 "/>
</symbol>
<symbol id="Fm1-30-0" viewBox="3699 -20536 6979 7270">
 <path class="fil4 str1" d="M3769 -16916c0,-1982 1531,-3589 3419,-3589 1888,0 3419,1607 3419,3589 0,1982 -1531,3589 -3419,3589 -1888,0 -3419,-1607 -3419,-3589z"/>
</symbol>
<symbol id="Fm12-29-0" viewBox="22016 -8438 4714 4815">
 <path class="fil0" d="M25301 -7434c-238,-57 -454,-142 -645,-238 -10,-11 -11,-6 -11,-6 -6,-3 -13,-6 -19,-10 -474,-234 -969,-751 -969,-751l181 656c-2609,203 -1930,1688 -929,2431 17,13 34,26 52,39 17,14 35,27 53,40 17,13 34,26 51,39 17,14 35,27 53,40 17,13 34,26 51,39 17,13 35,27 52,40 17,13 34,26 52,39 17,13 34,26 52,39 17,13 35,27 52,40 17,13 34,26 51,39 17,14 35,27 53,40 17,13 34,26 51,39 18,14 35,27 53,40 17,13 34,26 52,39 17,13 34,26 51,39 17,13 35,27 52,40 17,13 35,27 52,40 17,14 35,27 52,40 17,13 34,26 51,39 17,13 34,27 52,39 17,13 34,26 51,39 18,14 35,27 53,40 17,13 35,26 52,39 17,13 34,26 51,39 17,13 34,26 51,39 17,13 35,27 52,40 17,14 35,27 53,40 17,13 34,26 51,39 17,13 35,27 53,40 17,13 34,26 51,39 17,13 35,27 52,39 17,14 35,27 53,40 17,13 34,26 51,39 17,13 35,27 52,39 17,13 34,26 51,39 17,14 35,27 53,40 17,13 35,27 52,40 17,13 34,26 51,39 17,14 35,27 52,40 17,13 34,26 51,39 17,14 35,27 53,40 17,13 34,26 51,39 17,13 35,27 52,40 15,11 29,22 44,33l73 0c815,0 1475,-660 1475,-1475l0 -1237c-699,-531 -1438,-1097 -1429,-1099z"/>
</symbol>
<symbol id="Fm7-71-0" viewBox="22747 -16066 2392 2392">
 <path class="fil10" d="M22985 -14472l280 0c-22,-101 -35,-208 -40,-319l-317 0c9,113 35,219 76,319zm280 -797l-280 0c-41,99 -68,206 -76,319l317 0c5,-111 18,-219 40,-319zm230 1334c-78,-102 -142,-231 -189,-377l-238 0c103,162 251,293 427,377zm-188 -1493c46,-146 110,-275 188,-377 -175,83 -323,215 -427,377l239 0zm555 0l0 -468c-164,44 -305,220 -391,468l391 0zm0 479l0 -319 -436 0c-22,99 -37,206 -41,319l477 0zm0 478l0 -319 -477 0c5,113 19,219 41,319l436 0zm0 628l0 -468 -391 0c86,248 227,424 391,468zm549 -468l-391 0 0 468c165,-44 305,-220 391,-468zm-391 -1117l391 0c-86,-248 -226,-424 -391,-468l0 468zm477 638l-477 0 0 319 436 0c23,-100 37,-206 41,-319zm-477 -159l477 0c-5,-113 -18,-220 -41,-319l-436 0 0 319zm794 638l-238 0c-47,146 -112,274 -189,377 175,-83 323,-215 427,-377zm-238 -1117l238 0c-104,-162 -251,-293 -427,-377 78,102 142,231 189,377zm397 638l-317 0c-5,111 -18,218 -40,319l280 0c41,-100 68,-206 76,-319zm-317 -159l317 0c-8,-113 -35,-220 -76,-319l-280 0c22,100 35,208 40,319zm480 0l0 159 -3 0c-39,597 -516,1074 -1114,1113l0 3 -159 0 0 -3c-597,-39 -1074,-516 -1114,-1113l-2 0 0 -159 2 0c40,-597 517,-1074 1114,-1114l0 -2 159 0 0 2c597,40 1075,517 1114,1114l3 0z"/>
</symbol>
<symbol id="Fm0-36-0" viewBox="20124 -21206 8177 8579">
 <path class="fil4 str0" d="M20177 -16916c0,-2340 1807,-4237 4036,-4237 2229,0 4036,1897 4036,4237 0,2340 -1807,4237 -4036,4237 -2229,0 -4036,-1897 -4036,-4237z"/>
</symbol>
<symbol id="Fm7-43-0" viewBox="4991 -10924 1335 5900">
 <polygon class="fil23" points="6327,-10817 6327,-9617 6109,-9617 6109,-9784 6159,-9784 6159,-10650 6034,-10650 6034,-10817 "/>
 <polygon class="fil1" points="6180,-6641 6109,-6641 6109,-7099 6180,-7099 "/>
 <path class="fil12" d="M6132 -7670l0 -283 -23 0 0 -249c100,99 162,236 162,387 0,151 -62,289 -162,387l0 -242 23 0z"/>
 <polygon class="fil1" points="6132,-7670 6109,-7670 6109,-7953 6132,-7953 "/>
 <polygon class="fil25" points="6109,-6641 6109,-5347 5724,-5025 5344,-5347 5344,-6641 "/>
 <polygon class="fil1" points="6109,-6641 5343,-6641 5343,-7099 6109,-7099 "/>
 <path class="fil25" d="M6109 -7428l0 328 -766 0 0 -328c98,97 234,157 383,157 150,0 285,-60 383,-157z"/>
 <path class="fil12" d="M6109 -7670l0 242c-98,97 -234,157 -383,157 -149,0 -285,-60 -383,-157l0 -242 766 0z"/>
 <polygon class="fil19" points="6109,-7670 5343,-7670 5343,-7953 6109,-7953 "/>
 <path class="fil12" d="M6109 -8202l0 249 -766 0 0 -249c98,-97 234,-157 383,-157 150,0 285,60 383,157z"/>
 <path class="fil25" d="M6109 -9617l0 1415c-98,-97 -234,-157 -383,-157 -149,0 -285,60 -383,157l0 -1415 766 0z"/>
 <polygon class="fil25" points="6109,-9617 5343,-9617 5343,-9784 6109,-9784 "/>
 <polygon class="fil25" points="6109,-9932 6109,-9784 5344,-9784 5344,-9932 5618,-9932 5618,-9834 5830,-9834 5830,-9932 "/>
 <polygon class="fil12" points="6034,-10567 5830,-10567 5830,-10650 6034,-10650 "/>
 <polygon class="fil12" points="6034,-10817 6034,-10650 5830,-10650 5830,-10663 5618,-10663 5618,-10650 5413,-10650 5413,-10817 "/>
 <polygon class="fil12" points="6034,-10817 5413,-10817 5413,-10924 6034,-10924 "/>
 <polygon class="fil1" points="5830,-9834 5618,-9834 5618,-9932 5830,-9932 "/>
 <polygon class="fil1" points="5830,-9932 5618,-9932 5618,-10567 5830,-10567 "/>
 <polygon class="fil1" points="5830,-10567 5618,-10567 5618,-10650 5830,-10650 "/>
 <polygon class="fil15" points="5830,-10650 5618,-10650 5618,-10663 5830,-10663 "/>
 <polygon class="fil12" points="5618,-10567 5413,-10567 5413,-10650 5618,-10650 "/>
 <polygon class="fil23" points="5413,-10817 5413,-10650 5293,-10650 5293,-9784 5344,-9784 5344,-9617 5126,-9617 5126,-10817 "/>
 <polygon class="fil1" points="5343,-6641 5272,-6641 5272,-7099 5343,-7099 "/>
 <path class="fil12" d="M5344 -7670l0 242c-53,-52 -94,-114 -122,-183l0 -401 -3 0c28,-72 71,-137 125,-191l0 249 -23 0 0 283 23 0z"/>
 <polygon class="fil1" points="5343,-7670 5321,-7670 5321,-7953 5343,-7953 "/>
 <path class="fil12" d="M5221 -8012l0 401c-26,-63 -40,-132 -40,-204 0,-70 13,-136 37,-197l3 0z"/>
 <path class="fil23" d="M5221 -7611l-230 0 0 -401 227 0c-24,61 -37,127 -37,197 0,72 14,141 40,204z"/>
</symbol>
<symbol id="Fm2-32-0" viewBox="4506 -19729 5365 5627">
 <path class="fil4 str0" d="M4559 -16916c0,-1525 1177,-2760 2629,-2760 1452,0 2629,1236 2629,2760 0,1525 -1177,2760 -2629,2760 -1452,0 -2629,-1236 -2629,-2760z"/>
</symbol>
<symbol id="Fm2-33-0" viewBox="13573 -16498 7669 5562">
 <path class="fil1" d="M16065 -12186l0 526 0 88c0,112 43,224 128,310 86,86 198,128 310,128l718 0 718 0c112,0 224,-43 310,-128 85,-85 128,-198 128,-310l0 -88 0 -526 -2312 0zm-2215 -3498l0 2834c0,241 197,439 438,439l6238 0c241,0 438,-197 438,-439l0 -2834c0,-241 -197,-438 -438,-438l-6238 0c-241,0 -438,197 -438,438zm-277 4310l0 -4685c0,-241 197,-438 438,-438l6793 0c241,0 438,197 438,438l0 4685c0,241 -197,438 -438,438l-6793 0c-241,0 -438,-197 -438,-438z"/>
 <path class="fil15" d="M20376 -12689l395 0 0 -394 -395 0 0 394zm0 -394zm0 -1709l395 0 0 -394 -395 0 0 394zm0 -394zm0 -285l395 0 0 -307 -395 0 0 307zm0 -307zm-525 3090l394 0 0 -394 -394 0 0 394zm0 -394zm0 -1709l394 0 0 -394 -394 0 0 394zm0 -394zm0 -285l394 0 0 -307 -394 0 0 307zm0 -307zm-83 1643l0 394 609 0 395 0 0 -394 0 -526 -395 0 -328 0 0 526 -280 0zm-246 920l1249 0 0 -394 -1249 0 0 394zm0 -394zm-44 -657l394 0 0 -394 -394 0 0 394zm0 -394zm-153 1972l394 0 0 -394 -394 0 0 394zm0 -394zm0 -1709l394 0 0 -394 -394 0 0 394zm0 -394zm0 -285l394 0 0 -307 -394 0 0 307zm0 -307zm-132 2038l394 0 0 -394 -394 0 0 394zm0 -394zm-238 920l394 0 0 -394 -394 0 0 394zm0 -394zm-3 -657l394 0 0 -394 -394 0 0 394zm0 -394zm-153 1972l394 0 0 -394 -394 0 0 394zm0 -394zm0 -1709l394 0 0 -394 -394 0 0 394zm0 -394zm0 -285l394 0 0 -307 -394 0 0 307zm0 -307zm-132 2038l394 0 0 -394 -394 0 0 394zm0 -394zm-238 920l394 0 0 -394 -394 0 0 394zm0 -394zm-3 -657l394 0 0 -394 -394 0 0 394zm0 -394zm-153 -132l394 0 0 -394 -394 0 0 394zm0 -394zm0 -285l394 0 0 -307 -394 0 0 307zm0 -307zm-132 2038l394 0 0 -394 -394 0 0 394zm0 -394zm-238 920l394 0 0 -394 -394 0 0 394zm0 -394zm-3 -657l395 0 0 -394 -395 0 0 394zm0 -394zm-153 -132l394 0 0 -394 -394 0 0 394zm0 -394zm0 -285l394 0 0 -307 -394 0 0 307zm0 -307zm-132 2038l395 0 0 -394 -395 0 0 394zm0 -394zm-238 920l395 0 0 -394 -395 0 0 394zm0 -394zm-2 -657l395 0 0 -394 -395 0 0 394zm0 -394zm-153 -132l394 0 0 -394 -394 0 0 394zm0 -394zm0 -285l394 0 0 -307 -394 0 0 307zm0 -307zm-132 2038l395 0 0 -394 -395 0 0 394zm0 -394zm-238 920l395 0 0 -394 -395 0 0 394zm0 -394zm-3 -657l395 0 0 -394 -395 0 0 394zm0 -394zm-153 -132l394 0 0 -394 -394 0 0 394zm0 -394zm0 -285l394 0 0 -307 -394 0 0 307zm0 -307zm-131 2038l394 0 0 -394 -394 0 0 394zm0 -394zm-238 920l394 0 0 -394 -394 0 0 394zm0 -394zm-3 -657l394 0 0 -394 -394 0 0 394zm0 -394zm-154 -132l395 0 0 -394 -395 0 0 394zm0 -394zm0 -285l395 0 0 -307 -395 0 0 307zm0 -307zm-131 2038l394 0 0 -394 -394 0 0 394zm0 -394zm-238 920l394 0 0 -394 -394 0 0 394zm0 -394zm-2 -657l394 0 0 -394 -394 0 0 394zm0 -394zm-153 1972l3024 0 0 -394 -3024 0 0 394zm0 -394zm0 -1709l394 0 0 -394 -394 0 0 394zm0 -394zm0 -285l394 0 0 -307 -394 0 0 307zm0 -307zm-132 2038l394 0 0 -394 -394 0 0 394zm0 -394zm-238 920l394 0 0 -394 -394 0 0 394zm0 -394zm-3 -657l394 0 0 -394 -394 0 0 394zm0 -394zm-153 1972l394 0 0 -394 -394 0 0 394zm0 -394zm0 -1709l394 0 0 -394 -394 0 0 394zm0 -394zm0 -285l394 0 0 -307 -394 0 0 307zm0 -307zm-132 2038l394 0 0 -394 -394 0 0 394zm0 -394zm-238 920l394 0 0 -394 -394 0 0 394zm0 -394zm-3 -657l394 0 0 -394 -394 0 0 394zm0 -394zm-153 1972l394 0 0 -394 -394 0 0 394zm0 -394zm0 -1709l394 0 0 -394 -394 0 0 394zm0 -394zm0 -285l394 0 0 -307 -394 0 0 307zm0 -307zm-526 3090l394 0 0 -394 -394 0 0 394zm0 -394zm0 -132l526 0 0 -394 -526 0 0 394zm0 -394zm0 -132l723 0 0 -394 -723 0 0 394zm0 -394zm0 -131l526 0 0 -394 -526 0 0 394zm0 -394zm0 -132l394 0 0 -394 -394 0 0 394zm0 -394zm0 -285l394 0 0 -307 -394 0 0 307zm0 -307zm-215 2929l0 -2834c0,-241 197,-438 438,-438l6238 0c241,0 438,197 438,438l0 2834c0,241 -197,439 -438,439l-6238 0c-241,0 -438,-197 -438,-439z"/>
 <polygon class="fil1" points="14065,-15779 14460,-15779 14460,-15473 14065,-15473 "/>
 <polygon class="fil1" points="14065,-15188 14460,-15188 14460,-14793 14065,-14793 "/>
 <polygon class="fil1" points="14065,-14661 14591,-14661 14591,-14267 14065,-14267 "/>
 <polygon class="fil1" points="14065,-14136 14789,-14136 14789,-13741 14065,-13741 "/>
 <polygon class="fil1" points="14065,-13610 14591,-13610 14591,-13215 14065,-13215 "/>
 <polygon class="fil1" points="14065,-13084 14460,-13084 14460,-12689 14065,-12689 "/>
 <polygon class="fil1" points="14591,-15779 14986,-15779 14986,-15473 14591,-15473 "/>
 <polygon class="fil1" points="14591,-15188 14986,-15188 14986,-14793 14591,-14793 "/>
 <polygon class="fil1" points="14591,-13084 14986,-13084 14986,-12689 14591,-12689 "/>
 <polygon class="fil1" points="14745,-14661 15139,-14661 15139,-14267 14745,-14267 "/>
 <polygon class="fil1" points="14748,-13610 15142,-13610 15142,-13215 14748,-13215 "/>
 <polygon class="fil1" points="14986,-14136 15380,-14136 15380,-13741 14986,-13741 "/>
 <polygon class="fil1" points="15117,-15779 15512,-15779 15512,-15473 15117,-15473 "/>
 <polygon class="fil1" points="15117,-15188 15512,-15188 15512,-14793 15117,-14793 "/>
 <polygon class="fil1" points="15117,-13084 15512,-13084 15512,-12689 15117,-12689 "/>
 <polygon class="fil1" points="15271,-14661 15665,-14661 15665,-14267 15271,-14267 "/>
 <polygon class="fil1" points="15274,-13610 15668,-13610 15668,-13215 15274,-13215 "/>
 <polygon class="fil1" points="15512,-14136 15906,-14136 15906,-13741 15512,-13741 "/>
 <polygon class="fil1" points="15643,-15779 16038,-15779 16038,-15473 15643,-15473 "/>
 <polygon class="fil1" points="15643,-15188 16038,-15188 16038,-14793 15643,-14793 "/>
 <polygon class="fil1" points="15643,-13084 18667,-13084 18667,-12689 15643,-12689 "/>
 <polygon class="fil1" points="15797,-14661 16191,-14661 16191,-14267 15797,-14267 "/>
 <polygon class="fil1" points="15799,-13610 16194,-13610 16194,-13215 15799,-13215 "/>
 <polygon class="fil1" points="16038,-14136 16432,-14136 16432,-13741 16038,-13741 "/>
 <polygon class="fil15" points="16065,-11660 16065,-12186 18377,-12186 18377,-11660 17221,-11660 "/>
 <path class="fil1" d="M16065 -11572l0 -88 1156 0 0 526 -718 0c-113,0 -225,-43 -310,-128 -85,-85 -128,-198 -128,-310z"/>
 <polygon class="fil1" points="16169,-15779 16564,-15779 16564,-15473 16169,-15473 "/>
 <polygon class="fil1" points="16169,-15188 16564,-15188 16564,-14793 16169,-14793 "/>
 <polygon class="fil1" points="16322,-14661 16717,-14661 16717,-14267 16322,-14267 "/>
 <polygon class="fil1" points="16325,-13610 16720,-13610 16720,-13215 16325,-13215 "/>
 <polygon class="fil1" points="16564,-14136 16958,-14136 16958,-13741 16564,-13741 "/>
 <polygon class="fil1" points="16695,-15779 17089,-15779 17089,-15473 16695,-15473 "/>
 <polygon class="fil1" points="16695,-15188 17089,-15188 17089,-14793 16695,-14793 "/>
 <polygon class="fil1" points="16848,-14661 17243,-14661 17243,-14267 16848,-14267 "/>
 <polygon class="fil1" points="16851,-13610 17246,-13610 17246,-13215 16851,-13215 "/>
 <polygon class="fil1" points="17089,-14136 17484,-14136 17484,-13741 17089,-13741 "/>
 <polygon class="fil1" points="17221,-15779 17615,-15779 17615,-15473 17221,-15473 "/>
 <polygon class="fil1" points="17221,-15188 17615,-15188 17615,-14793 17221,-14793 "/>
 <path class="fil1" d="M17221 -11134l0 -526 1156 0 0 88c0,112 -43,224 -128,310 -85,86 -198,128 -310,128l-718 0z"/>
 <polygon class="fil1" points="17374,-14661 17769,-14661 17769,-14267 17374,-14267 "/>
 <polygon class="fil1" points="17377,-13610 17772,-13610 17772,-13215 17377,-13215 "/>
 <polygon class="fil1" points="17615,-14136 18010,-14136 18010,-13741 17615,-13741 "/>
 <polygon class="fil1" points="17747,-15779 18141,-15779 18141,-15473 17747,-15473 "/>
 <polygon class="fil1" points="17747,-15188 18141,-15188 18141,-14793 17747,-14793 "/>
 <polygon class="fil1" points="17900,-14661 18294,-14661 18294,-14267 17900,-14267 "/>
 <polygon class="fil1" points="17903,-13610 18297,-13610 18297,-13215 17903,-13215 "/>
 <polygon class="fil1" points="18141,-14136 18535,-14136 18535,-13741 18141,-13741 "/>
 <polygon class="fil1" points="18273,-15779 18667,-15779 18667,-15473 18273,-15473 "/>
 <polygon class="fil1" points="18273,-15188 18667,-15188 18667,-14793 18273,-14793 "/>
 <polygon class="fil1" points="18426,-14661 18820,-14661 18820,-14267 18426,-14267 "/>
 <polygon class="fil1" points="18429,-13610 18823,-13610 18823,-13215 18429,-13215 "/>
 <polygon class="fil1" points="18667,-14136 19061,-14136 19061,-13741 18667,-13741 "/>
 <polygon class="fil1" points="18799,-15779 19193,-15779 19193,-15473 18799,-15473 "/>
 <polygon class="fil1" points="18799,-15188 19193,-15188 19193,-14793 18799,-14793 "/>
 <polygon class="fil1" points="18799,-13084 19193,-13084 19193,-12689 18799,-12689 "/>
 <polygon class="fil1" points="18952,-14661 19346,-14661 19346,-14267 18952,-14267 "/>
 <polygon class="fil1" points="18955,-13610 19349,-13610 19349,-13215 18955,-13215 "/>
 <polygon class="fil1" points="19193,-14136 19587,-14136 19587,-13741 19193,-13741 "/>
 <polygon class="fil1" points="19325,-15779 19719,-15779 19719,-15473 19325,-15473 "/>
 <polygon class="fil1" points="19325,-15188 19719,-15188 19719,-14793 19325,-14793 "/>
 <polygon class="fil1" points="19325,-13084 19719,-13084 19719,-12689 19325,-12689 "/>
 <polygon class="fil1" points="19478,-14661 19872,-14661 19872,-14267 19478,-14267 "/>
 <polygon class="fil1" points="19522,-13610 20771,-13610 20771,-13215 19522,-13215 "/>
 <polygon class="fil1" points="19767,-13741 19767,-14136 20048,-14136 20048,-14662 20376,-14662 20771,-14662 20771,-14136 20771,-13741 20376,-13741 "/>
 <polygon class="fil1" points="19851,-15779 20245,-15779 20245,-15473 19851,-15473 "/>
 <polygon class="fil1" points="19851,-15188 20245,-15188 20245,-14793 19851,-14793 "/>
 <polygon class="fil1" points="19851,-13084 20245,-13084 20245,-12689 19851,-12689 "/>
 <polygon class="fil1" points="20376,-15779 20771,-15779 20771,-15473 20376,-15473 "/>
 <polygon class="fil1" points="20376,-15188 20771,-15188 20771,-14793 20376,-14793 "/>
 <polygon class="fil1" points="20376,-13084 20771,-13084 20771,-12689 20376,-12689 "/>
</symbol>
<symbol id="Fm6-34-0" viewBox="4419 -22793 3459 4524">
 <path class="fil1" d="M7576 -21376l-2156 0 0 1035 2156 0 0 -1035zm0 1035zm302 -1345l0 3070 -345 0 -2415 0 0 -3829 2001 0 0 759 759 0z"/>
 <polygon class="fil1" points="7878,-21686 7119,-21686 7119,-22445 "/>
 <polygon class="fil10" points="7576,-20341 5420,-20341 5420,-21376 7576,-21376 "/>
 <path class="fil28" d="M7533 -18616l0 348 -2767 0c-192,0 -348,-155 -348,-348l3 0c0,-193 156,-348 348,-348 192,0 348,155 348,348l2415 0z"/>
 <path class="fil2" d="M5119 -22445l0 3829c0,-192 -156,-348 -348,-348 -193,0 -348,155 -348,348l0 -3829c0,-192 156,-348 348,-348 192,0 348,155 348,348z"/>
</symbol>
<symbol id="Fm1-22-0" viewBox="9899 -22993 198 198">
 <path class="fil1" d="M9899 -22894c0,-55 44,-99 99,-99 55,0 99,44 99,99 0,55 -44,99 -99,99 -55,0 -99,-44 -99,-99z"/>
</symbol>
<symbol id="Fm6-69-0" viewBox="4916 -19346 2367 1521">
 <path class="fil29" d="M5538 -18259l-398 0 0 221 398 0 0 -221zm0 221zm1745 -651l0 649c0,118 -97,215 -215,215l-1937 0c-118,0 -215,-97 -215,-215l0 -649 2367 0z"/>
 <polygon class="fil1" points="7283,-18690 4916,-18690 4916,-19012 7283,-19012 "/>
 <path class="fil29" d="M7283 -19131l0 118 -2367 0 0 -118c0,-118 97,-215 215,-215l1937 0c118,0 215,97 215,215z"/>
 <polygon class="fil3" points="5538,-18038 5140,-18038 5140,-18259 5538,-18259 "/>
</symbol>
<symbol id="Fm0-28-0" viewBox="3027 -21282 8322 8732">
 <path class="fil4 str0" d="M3080 -16916c0,-2382 1839,-4313 4108,-4313 2269,0 4108,1931 4108,4313 0,2382 -1839,4313 -4108,4313 -2269,0 -4108,-1931 -4108,-4313z"/>
</symbol>
<symbol id="Fm2-26-0" viewBox="19863 -5835 322 3345">
 <polygon class="fil2" points="20185,-2864 19863,-2864 19863,-5170 20185,-5170 "/>
 <polygon class="fil11" points="20185,-5258 20185,-5170 19863,-5170 19863,-5514 19918,-5514 20130,-5514 20185,-5514 "/>
 <polygon class="fil8" points="20185,-2863 20024,-2490 19863,-2863 "/>
 <polygon class="fil8" points="20130,-5514 19918,-5514 19918,-5835 20130,-5835 "/>
</symbol>
<symbol id="Fm0-20-0" viewBox="10122 -22894 519 519">
 <path class="fil1" d="M10122 -22635c0,-143 116,-260 260,-260 143,0 260,116 260,260 0,143 -116,260 -260,260 -143,0 -260,-116 -260,-260z"/>
</symbol>
<symbol id="Symbol1" viewBox="17248 -25228 3645 5447">
 <polygon class="fil30" points="20893,-19780 17248,-19780 17248,-25228 20893,-25228 "/>
</symbol>
<symbol id="Fm9-75-0" viewBox="6476 -10097 4610 5545">
 <path class="fil2" d="M9530 -9134c164,-164 429,-164 592,0 163,163 163,428 0,592l-592 -592z"/>
 <polygon class="fil3" points="10122,-8542 11086,-7578 10566,-7058 10237,-7388 8379,-9246 8047,-9578 8567,-10097 9530,-9134 "/>
 <polygon class="fil1" points="8379,-9246 10237,-7388 9156,-6788 8351,-5983 6974,-7360 7779,-8165 "/>
 <path class="fil19" d="M8213 -5845l-76 76c-125,125 -274,208 -433,251 -325,89 -688,5 -944,-251 -380,-380 -380,-997 0,-1377l213 -213 1377 1377 -138 138z"/>
 <path class="fil2" d="M8213 -5845l890 1138 -155 155 -1244 -966 0 -1c159,-43 309,-126 433,-251l76 -76z"/>
</symbol>
<symbol id="Fm5-67-0" viewBox="8928 -18412 1880 1510">
 <polygon class="fil2" points="10807,-18186 10634,-17490 9473,-17490 9299,-18186 "/>
 <path class="fil5" d="M10362 -17267c101,0 183,82 183,183 0,101 -82,182 -183,182 -101,0 -183,-82 -183,-182 0,-101 82,-183 183,-183z"/>
 <path class="fil5" d="M9443 -17267c101,0 182,82 182,183 0,101 -82,182 -182,182 -101,0 -183,-82 -183,-182 0,-74 44,-137 106,-166 23,-11 49,-17 76,-17z"/>
 <polygon class="fil1" points="9237,-18284 8928,-18284 8928,-18412 9237,-18412 "/>
</symbol>
<symbol id="Fm2-55-0" viewBox="18343 -10603 9228 9682">
 <path class="fil31 str2" d="M18396 -5762c0,-2644 2042,-4788 4561,-4788 2519,0 4561,2144 4561,4788 0,2644 -2042,4788 -4561,4788 -2519,0 -4561,-2144 -4561,-4788z"/>
 <path class="fil31 str3" d="M19161 -5762c0,-2201 1699,-3985 3796,-3985 2096,0 3796,1784 3796,3985 0,2201 -1699,3985 -3796,3985 -2096,0 -3796,-1784 -3796,-3985z"/>
 <path class="fil31 str2" d="M20038 -5762c0,-1692 1307,-3064 2919,-3064 1612,0 2919,1372 2919,3064 0,1692 -1307,3064 -2919,3064 -1612,0 -2919,-1372 -2919,-3064z"/>
</symbol>
<symbol id="Fm0-33-0" viewBox="3027 -21282 8322 8732">
 <path class="fil31 str2" d="M3080 -16916c0,-2382 1839,-4313 4108,-4313 2269,0 4108,1931 4108,4313 0,2382 -1839,4313 -4108,4313 -2269,0 -4108,-1931 -4108,-4313z"/>
 <path class="fil31 str3" d="M3769 -16916c0,-1982 1531,-3589 3419,-3589 1888,0 3419,1607 3419,3589 0,1982 -1531,3589 -3419,3589 -1888,0 -3419,-1607 -3419,-3589z"/>
 <path class="fil31 str2" d="M4559 -16916c0,-1525 1177,-2760 2629,-2760 1452,0 2629,1236 2629,2760 0,1525 -1177,2760 -2629,2760 -1452,0 -2629,-1236 -2629,-2760z"/>
</symbol>
<symbol id="Fm1-41-0" viewBox="20124 -21206 8177 8579">
 <path class="fil31 str2" d="M20177 -16916c0,-2340 1807,-4237 4036,-4237 2229,0 4036,1897 4036,4237 0,2340 -1807,4237 -4036,4237 -2229,0 -4036,-1897 -4036,-4237z"/>
 <path class="fil31 str3" d="M20855 -16916c0,-1947 1504,-3526 3359,-3526 1855,0 3359,1579 3359,3526 0,1947 -1504,3526 -3359,3526 -1855,0 -3359,-1579 -3359,-3526z"/>
 <path class="fil31 str2" d="M21630 -16916c0,-1498 1156,-2712 2583,-2712 1427,0 2583,1214 2583,2712 0,1498 -1156,2712 -2583,2712 -1426,0 -2583,-1214 -2583,-2712z"/>
</symbol>
<symbol id="Fm3-63-0" viewBox="4317 -9993 8193 8596">
 <path class="fil31 str2" d="M4370 -5695c0,-2344 1810,-4245 4044,-4245 2233,0 4044,1901 4044,4245 0,2344 -1810,4245 -4044,4245 -2233,0 -4044,-1900 -4044,-4245z"/>
 <path class="fil31 str3" d="M5048 -5695c0,-1951 1507,-3533 3365,-3533 1858,0 3365,1582 3365,3533 0,1951 -1507,3533 -3365,3533 -1858,0 -3365,-1582 -3365,-3533z"/>
 <path class="fil31 str2" d="M5825 -5695c0,-1500 1159,-2717 2588,-2717 1429,0 2588,1216 2588,2717 0,1500 -1159,2717 -2588,2717 -1429,0 -2588,-1216 -2588,-2717z"/>
</symbol>
 <g id="Layer_x0020_1">
  <metadata id="CorelCorpID_0Corel-Layer"/>
  <g id="_909504656">
   <path class="fil32" d="M2602 30l339 216 40 26 -40 26 -339 222 -48 31 0 -57 0 -438 0 -56 47 30zm266 243l-251 -161 0 325 251 -165z"/>
   <rect class="fil33" transform="matrix(1.62143E-013 -0.688787 6.12216 1.82422E-014 -1.00996 303.089)" width="89.52" height="441.74"/>
  </g>
 </g>
</svg>
