<?xml version="1.0" encoding="UTF-8"?>
<!DOCTYPE svg PUBLIC "-//W3C//DTD SVG 1.1//EN" "http://www.w3.org/Graphics/SVG/1.1/DTD/svg11.dtd">
<!-- Creator: CorelDRAW X6 -->
<svg xmlns="http://www.w3.org/2000/svg" xml:space="preserve" width="5.588mm" height="5.08mm" version="1.1" style="shape-rendering:geometricPrecision; text-rendering:geometricPrecision; image-rendering:optimizeQuality; fill-rule:evenodd; clip-rule:evenodd"
viewBox="0 0 559 508"
 xmlns:xlink="http://www.w3.org/1999/xlink">
 <defs>
  <style type="text/css">
   <![CDATA[
    .str2 {stroke:#302D2D;stroke-width:105.83;stroke-linecap:round;stroke-linejoin:round;stroke-opacity:0.200000}
    .str1 {stroke:#302D2D;stroke-width:105.83;stroke-linecap:round;stroke-linejoin:round}
    .str3 {stroke:#302D2D;stroke-width:141.11;stroke-linecap:round;stroke-linejoin:round;stroke-dasharray:423.300000 1100.580000;stroke-opacity:0.200000}
    .str0 {stroke:#302D2D;stroke-width:141.11;stroke-linecap:round;stroke-linejoin:round;stroke-dasharray:423.300000 1100.580000}
    .fil1 {fill:none;fill-rule:nonzero}
    .fil31 {fill:none;fill-rule:nonzero}
    .fil32 {fill:#E86B69}
    .fil33 {fill:#D25958}
    .fil34 {fill:#3E4A55;fill-rule:nonzero}
    .fil36 {fill:#5C9990;fill-rule:nonzero}
    .fil35 {fill:#75B98D;fill-rule:nonzero}
    .fil21 {fill:#00D9CE;fill-rule:nonzero}
    .fil9 {fill:#04C4D5;fill-rule:nonzero}
    .fil0 {fill:#231F20;fill-rule:nonzero}
    .fil22 {fill:#297391;fill-rule:nonzero}
    .fil7 {fill:#302D2D;fill-rule:nonzero}
    .fil27 {fill:#474747;fill-rule:nonzero}
    .fil24 {fill:#4C4949;fill-rule:nonzero}
    .fil15 {fill:#4C4C4C;fill-rule:nonzero}
    .fil26 {fill:#523C60;fill-rule:nonzero}
    .fil17 {fill:#633900;fill-rule:nonzero}
    .fil20 {fill:#645B75;fill-rule:nonzero}
    .fil14 {fill:#666666;fill-rule:nonzero}
    .fil8 {fill:#697271;fill-rule:nonzero}
    .fil5 {fill:#6DAF75;fill-rule:nonzero}
    .fil29 {fill:#70DDE0;fill-rule:nonzero}
    .fil25 {fill:#71BDC1;fill-rule:nonzero}
    .fil28 {fill:#86CBED;fill-rule:nonzero}
    .fil23 {fill:#92E1B5;fill-rule:nonzero}
    .fil30 {fill:#A0804D;fill-rule:nonzero}
    .fil19 {fill:#A391C3;fill-rule:nonzero}
    .fil10 {fill:#C94C27;fill-rule:nonzero}
    .fil13 {fill:lightgrey;fill-rule:nonzero}
    .fil18 {fill:#E8CF69;fill-rule:nonzero}
    .fil3 {fill:#EBB167;fill-rule:nonzero}
    .fil16 {fill:#EE7046;fill-rule:nonzero}
    .fil6 {fill:#F15A24;fill-rule:nonzero}
    .fil11 {fill:#F2D0D3;fill-rule:nonzero}
    .fil2 {fill:whitesmoke;fill-rule:nonzero}
    .fil4 {fill:#FBB03B;fill-rule:nonzero}
    .fil12 {fill:#FBD260;fill-rule:nonzero}
    .fil38 {fill:#67C3CE;fill-rule:nonzero}
    .fil37 {fill:#A9D9E0;fill-rule:nonzero}
    .fil39 {fill:#C3B5C2;fill-rule:nonzero}
   ]]>
  </style>
 </defs>
<symbol id="Fm4-35-0" viewBox="3428 -16202 5030 4518">
 <path class="fil0" d="M3428 -16202l0 2878 2158 1640 1396 0c815,0 1475,-660 1475,-1475l0 -2194 -1117 -849 -3913 0z"/>
</symbol>
<symbol id="Fm1-38-0" viewBox="19573 -20506 6858 7120">
 <path class="fil1 str0" d="M19644 -16937c0,-1947 1504,-3526 3359,-3526 1855,0 3359,1579 3359,3526 0,1947 -1504,3526 -3359,3526 -1855,0 -3359,-1579 -3359,-3526z"/>
</symbol>
<symbol id="Fm2-62-0" viewBox="4562 -8486 5282 5540">
 <path class="fil1 str1" d="M4615 -5716c0,-1500 1159,-2717 2588,-2717 1429,0 2588,1216 2588,2717 0,1500 -1159,2717 -2588,2717 -1429,0 -2588,-1216 -2588,-2717z"/>
</symbol>
<symbol id="Fm2-33-0" viewBox="12362 -16519 7669 5562">
 <path class="fil2" d="M14854 -12207l0 526 0 88c0,112 43,224 128,310 86,86 198,128 310,128l718 0 718 0c112,0 224,-43 310,-128 85,-85 128,-198 128,-310l0 -88 0 -526 -2312 0zm-2215 -3498l0 2834c0,241 197,439 438,439l6238 0c241,0 438,-197 438,-439l0 -2834c0,-241 -197,-438 -438,-438l-6238 0c-241,0 -438,197 -438,438zm-277 4310l0 -4685c0,-241 197,-438 438,-438l6793 0c241,0 438,197 438,438l0 4685c0,241 -197,438 -438,438l-6793 0c-241,0 -438,-197 -438,-438z"/>
 <path class="fil3" d="M19165 -12711l395 0 0 -394 -395 0 0 394zm0 -394zm0 -1709l395 0 0 -394 -395 0 0 394zm0 -394zm0 -285l395 0 0 -307 -395 0 0 307zm0 -307zm-525 3090l394 0 0 -394 -394 0 0 394zm0 -394zm0 -1709l394 0 0 -394 -394 0 0 394zm0 -394zm0 -285l394 0 0 -307 -394 0 0 307zm0 -307zm-83 1643l0 394 609 0 395 0 0 -394 0 -526 -395 0 -328 0 0 526 -280 0zm-246 920l1249 0 0 -394 -1249 0 0 394zm0 -394zm-44 -657l394 0 0 -394 -394 0 0 394zm0 -394zm-153 1972l394 0 0 -394 -394 0 0 394zm0 -394zm0 -1709l394 0 0 -394 -394 0 0 394zm0 -394zm0 -285l394 0 0 -307 -394 0 0 307zm0 -307zm-132 2038l394 0 0 -394 -394 0 0 394zm0 -394zm-238 920l394 0 0 -394 -394 0 0 394zm0 -394zm-3 -657l394 0 0 -394 -394 0 0 394zm0 -394zm-153 1972l394 0 0 -394 -394 0 0 394zm0 -394zm0 -1709l394 0 0 -394 -394 0 0 394zm0 -394zm0 -285l394 0 0 -307 -394 0 0 307zm0 -307zm-132 2038l394 0 0 -394 -394 0 0 394zm0 -394zm-238 920l394 0 0 -394 -394 0 0 394zm0 -394zm-3 -657l394 0 0 -394 -394 0 0 394zm0 -394zm-153 -132l394 0 0 -394 -394 0 0 394zm0 -394zm0 -285l394 0 0 -307 -394 0 0 307zm0 -307zm-132 2038l394 0 0 -394 -394 0 0 394zm0 -394zm-238 920l394 0 0 -394 -394 0 0 394zm0 -394zm-3 -657l395 0 0 -394 -395 0 0 394zm0 -394zm-153 -132l394 0 0 -394 -394 0 0 394zm0 -394zm0 -285l394 0 0 -307 -394 0 0 307zm0 -307zm-132 2038l395 0 0 -394 -395 0 0 394zm0 -394zm-238 920l395 0 0 -394 -395 0 0 394zm0 -394zm-2 -657l395 0 0 -394 -395 0 0 394zm0 -394zm-153 -132l394 0 0 -394 -394 0 0 394zm0 -394zm0 -285l394 0 0 -307 -394 0 0 307zm0 -307zm-132 2038l395 0 0 -394 -395 0 0 394zm0 -394zm-238 920l395 0 0 -394 -395 0 0 394zm0 -394zm-3 -657l395 0 0 -394 -395 0 0 394zm0 -394zm-153 -132l394 0 0 -394 -394 0 0 394zm0 -394zm0 -285l394 0 0 -307 -394 0 0 307zm0 -307zm-131 2038l394 0 0 -394 -394 0 0 394zm0 -394zm-238 920l394 0 0 -394 -394 0 0 394zm0 -394zm-3 -657l394 0 0 -394 -394 0 0 394zm0 -394zm-154 -132l395 0 0 -394 -395 0 0 394zm0 -394zm0 -285l395 0 0 -307 -395 0 0 307zm0 -307zm-131 2038l394 0 0 -394 -394 0 0 394zm0 -394zm-238 920l394 0 0 -394 -394 0 0 394zm0 -394zm-2 -657l394 0 0 -394 -394 0 0 394zm0 -394zm-153 1972l3024 0 0 -394 -3024 0 0 394zm0 -394zm0 -1709l394 0 0 -394 -394 0 0 394zm0 -394zm0 -285l394 0 0 -307 -394 0 0 307zm0 -307zm-132 2038l394 0 0 -394 -394 0 0 394zm0 -394zm-238 920l394 0 0 -394 -394 0 0 394zm0 -394zm-3 -657l394 0 0 -394 -394 0 0 394zm0 -394zm-153 1972l394 0 0 -394 -394 0 0 394zm0 -394zm0 -1709l394 0 0 -394 -394 0 0 394zm0 -394zm0 -285l394 0 0 -307 -394 0 0 307zm0 -307zm-132 2038l394 0 0 -394 -394 0 0 394zm0 -394zm-238 920l394 0 0 -394 -394 0 0 394zm0 -394zm-3 -657l394 0 0 -394 -394 0 0 394zm0 -394zm-153 1972l394 0 0 -394 -394 0 0 394zm0 -394zm0 -1709l394 0 0 -394 -394 0 0 394zm0 -394zm0 -285l394 0 0 -307 -394 0 0 307zm0 -307zm-526 3090l394 0 0 -394 -394 0 0 394zm0 -394zm0 -132l526 0 0 -394 -526 0 0 394zm0 -394zm0 -132l723 0 0 -394 -723 0 0 394zm0 -394zm0 -131l526 0 0 -394 -526 0 0 394zm0 -394zm0 -132l394 0 0 -394 -394 0 0 394zm0 -394zm0 -285l394 0 0 -307 -394 0 0 307zm0 -307zm-215 2929l0 -2834c0,-241 197,-438 438,-438l6238 0c241,0 438,197 438,438l0 2834c0,241 -197,439 -438,439l-6238 0c-241,0 -438,-197 -438,-439z"/>
 <polygon class="fil2" points="12855,-15800 13249,-15800 13249,-15494 12855,-15494 "/>
 <polygon class="fil2" points="12855,-15209 13249,-15209 13249,-14814 12855,-14814 "/>
 <polygon class="fil2" points="12855,-14683 13381,-14683 13381,-14288 12855,-14288 "/>
 <polygon class="fil2" points="12855,-14157 13578,-14157 13578,-13763 12855,-13763 "/>
 <polygon class="fil2" points="12855,-13631 13381,-13631 13381,-13237 12855,-13237 "/>
 <polygon class="fil2" points="12855,-13105 13249,-13105 13249,-12711 12855,-12711 "/>
 <polygon class="fil2" points="13381,-15800 13775,-15800 13775,-15494 13381,-15494 "/>
 <polygon class="fil2" points="13381,-15209 13775,-15209 13775,-14814 13381,-14814 "/>
 <polygon class="fil2" points="13381,-13105 13775,-13105 13775,-12711 13381,-12711 "/>
 <polygon class="fil2" points="13534,-14683 13928,-14683 13928,-14288 13534,-14288 "/>
 <polygon class="fil2" points="13537,-13631 13931,-13631 13931,-13237 13537,-13237 "/>
 <polygon class="fil2" points="13775,-14157 14169,-14157 14169,-13763 13775,-13763 "/>
 <polygon class="fil2" points="13907,-15800 14301,-15800 14301,-15494 13907,-15494 "/>
 <polygon class="fil2" points="13907,-15209 14301,-15209 14301,-14814 13907,-14814 "/>
 <polygon class="fil2" points="13907,-13105 14301,-13105 14301,-12711 13907,-12711 "/>
 <polygon class="fil2" points="14060,-14683 14454,-14683 14454,-14288 14060,-14288 "/>
 <polygon class="fil2" points="14063,-13631 14457,-13631 14457,-13237 14063,-13237 "/>
 <polygon class="fil2" points="14301,-14157 14695,-14157 14695,-13763 14301,-13763 "/>
 <polygon class="fil2" points="14433,-15800 14827,-15800 14827,-15494 14433,-15494 "/>
 <polygon class="fil2" points="14433,-15209 14827,-15209 14827,-14814 14433,-14814 "/>
 <polygon class="fil2" points="14433,-13105 17456,-13105 17456,-12711 14433,-12711 "/>
 <polygon class="fil2" points="14586,-14683 14981,-14683 14981,-14288 14586,-14288 "/>
 <polygon class="fil2" points="14589,-13631 14983,-13631 14983,-13237 14589,-13237 "/>
 <polygon class="fil2" points="14827,-14157 15221,-14157 15221,-13763 14827,-13763 "/>
 <polygon class="fil3" points="14854,-11681 14854,-12207 17166,-12207 17166,-11681 16011,-11681 "/>
 <path class="fil2" d="M14854 -11593l0 -88 1156 0 0 526 -718 0c-113,0 -225,-43 -310,-128 -85,-85 -128,-198 -128,-310z"/>
 <polygon class="fil2" points="14958,-15800 15353,-15800 15353,-15494 14958,-15494 "/>
 <polygon class="fil2" points="14958,-15209 15353,-15209 15353,-14814 14958,-14814 "/>
 <polygon class="fil2" points="15112,-14683 15506,-14683 15506,-14288 15112,-14288 "/>
 <polygon class="fil2" points="15115,-13631 15509,-13631 15509,-13237 15115,-13237 "/>
 <polygon class="fil2" points="15353,-14157 15747,-14157 15747,-13763 15353,-13763 "/>
 <polygon class="fil2" points="15484,-15800 15878,-15800 15878,-15494 15484,-15494 "/>
 <polygon class="fil2" points="15484,-15209 15878,-15209 15878,-14814 15484,-14814 "/>
 <polygon class="fil2" points="15637,-14683 16032,-14683 16032,-14288 15637,-14288 "/>
 <polygon class="fil2" points="15640,-13631 16035,-13631 16035,-13237 15640,-13237 "/>
 <polygon class="fil2" points="15878,-14157 16273,-14157 16273,-13763 15878,-13763 "/>
 <polygon class="fil2" points="16010,-15800 16404,-15800 16404,-15494 16010,-15494 "/>
 <polygon class="fil2" points="16010,-15209 16404,-15209 16404,-14814 16010,-14814 "/>
 <path class="fil2" d="M16011 -11155l0 -526 1156 0 0 88c0,112 -43,224 -128,310 -85,86 -198,128 -310,128l-718 0z"/>
 <polygon class="fil2" points="16163,-14683 16558,-14683 16558,-14288 16163,-14288 "/>
 <polygon class="fil2" points="16166,-13631 16561,-13631 16561,-13237 16166,-13237 "/>
 <polygon class="fil2" points="16404,-14157 16799,-14157 16799,-13763 16404,-13763 "/>
 <polygon class="fil2" points="16536,-15800 16930,-15800 16930,-15494 16536,-15494 "/>
 <polygon class="fil2" points="16536,-15209 16930,-15209 16930,-14814 16536,-14814 "/>
 <polygon class="fil2" points="16689,-14683 17084,-14683 17084,-14288 16689,-14288 "/>
 <polygon class="fil2" points="16692,-13631 17086,-13631 17086,-13237 16692,-13237 "/>
 <polygon class="fil2" points="16930,-14157 17325,-14157 17325,-13763 16930,-13763 "/>
 <polygon class="fil2" points="17062,-15800 17456,-15800 17456,-15494 17062,-15494 "/>
 <polygon class="fil2" points="17062,-15209 17456,-15209 17456,-14814 17062,-14814 "/>
 <polygon class="fil2" points="17215,-14683 17609,-14683 17609,-14288 17215,-14288 "/>
 <polygon class="fil2" points="17218,-13631 17612,-13631 17612,-13237 17218,-13237 "/>
 <polygon class="fil2" points="17456,-14157 17851,-14157 17851,-13763 17456,-13763 "/>
 <polygon class="fil2" points="17588,-15800 17982,-15800 17982,-15494 17588,-15494 "/>
 <polygon class="fil2" points="17588,-15209 17982,-15209 17982,-14814 17588,-14814 "/>
 <polygon class="fil2" points="17588,-13105 17982,-13105 17982,-12711 17588,-12711 "/>
 <polygon class="fil2" points="17741,-14683 18135,-14683 18135,-14288 17741,-14288 "/>
 <polygon class="fil2" points="17744,-13631 18138,-13631 18138,-13237 17744,-13237 "/>
 <polygon class="fil2" points="17982,-14157 18376,-14157 18376,-13763 17982,-13763 "/>
 <polygon class="fil2" points="18114,-15800 18508,-15800 18508,-15494 18114,-15494 "/>
 <polygon class="fil2" points="18114,-15209 18508,-15209 18508,-14814 18114,-14814 "/>
 <polygon class="fil2" points="18114,-13105 18508,-13105 18508,-12711 18114,-12711 "/>
 <polygon class="fil2" points="18267,-14683 18661,-14683 18661,-14288 18267,-14288 "/>
 <polygon class="fil2" points="18311,-13631 19560,-13631 19560,-13237 18311,-13237 "/>
 <polygon class="fil2" points="18557,-13763 18557,-14157 18837,-14157 18837,-14683 19165,-14683 19560,-14683 19560,-14157 19560,-13763 19165,-13763 "/>
 <polygon class="fil2" points="18640,-15800 19034,-15800 19034,-15494 18640,-15494 "/>
 <polygon class="fil2" points="18640,-15209 19034,-15209 19034,-14814 18640,-14814 "/>
 <polygon class="fil2" points="18640,-13105 19034,-13105 19034,-12711 18640,-12711 "/>
 <polygon class="fil2" points="19165,-15800 19560,-15800 19560,-15494 19165,-15494 "/>
 <polygon class="fil2" points="19165,-15209 19560,-15209 19560,-14814 19165,-14814 "/>
 <polygon class="fil2" points="19165,-13105 19560,-13105 19560,-12711 19165,-12711 "/>
</symbol>
<symbol id="Fm1-22-0" viewBox="8689 -23014 198 198">
 <path class="fil2" d="M8689 -22915c0,-55 44,-99 99,-99 55,0 99,44 99,99 0,55 -44,99 -99,99 -55,0 -99,-44 -99,-99z"/>
</symbol>
<symbol id="Fm0-36-0" viewBox="18914 -21227 8177 8579">
 <path class="fil1 str1" d="M18967 -16937c0,-2340 1807,-4237 4036,-4237 2229,0 4036,1897 4036,4237 0,2340 -1807,4237 -4036,4237 -2229,0 -4036,-1897 -4036,-4237z"/>
</symbol>
<symbol id="Fm9-47-0" viewBox="7500 -22353 3157 4066">
 <path class="fil4" d="M10218 -20823l-1521 0 0 1008 1521 0 0 -1008zm0 1008zm438 1528l-2358 0 0 -4066 2358 0 0 4066z"/>
 <polygon class="fil5" points="10218,-19815 8697,-19815 8697,-20823 10218,-20823 "/>
 <polygon class="fil6" points="8298,-22353 8298,-18287 7698,-18287 7698,-18791 7888,-18791 7888,-19038 7698,-19038 7698,-19352 7888,-19352 7888,-19600 7698,-19600 7698,-19914 7888,-19914 7888,-20162 7698,-20162 7698,-20476 7888,-20476 7888,-20724 7698,-20724 7698,-21038 7888,-21038 7888,-21286 7698,-21286 7698,-21600 7888,-21600 7888,-21848 7698,-21848 7698,-22353 "/>
 <polygon class="fil2" points="7888,-18791 7698,-18791 7698,-19038 7888,-19038 "/>
 <polygon class="fil2" points="7888,-19352 7698,-19352 7698,-19600 7888,-19600 "/>
 <polygon class="fil2" points="7888,-19914 7698,-19914 7698,-20162 7888,-20162 "/>
 <polygon class="fil2" points="7888,-20476 7698,-20476 7698,-20724 7888,-20724 "/>
 <polygon class="fil2" points="7888,-21038 7698,-21038 7698,-21286 7888,-21286 "/>
 <polygon class="fil2" points="7888,-21600 7698,-21600 7698,-21848 7888,-21848 "/>
 <polygon class="fil2" points="7698,-18791 7500,-18791 7500,-19038 7698,-19038 "/>
 <polygon class="fil2" points="7698,-19352 7500,-19352 7500,-19600 7698,-19600 "/>
 <polygon class="fil2" points="7698,-19914 7500,-19914 7500,-20162 7698,-20162 "/>
 <polygon class="fil2" points="7698,-20476 7500,-20476 7500,-20724 7698,-20724 "/>
 <polygon class="fil2" points="7698,-21038 7500,-21038 7500,-21286 7698,-21286 "/>
 <polygon class="fil2" points="7698,-21600 7500,-21600 7500,-21848 7698,-21848 "/>
</symbol>
<symbol id="Fm2-26-0" viewBox="18652 -5856 322 3345">
 <polygon class="fil6" points="18974,-2885 18652,-2885 18652,-5191 18974,-5191 "/>
 <polygon class="fil7" points="18974,-5279 18974,-5191 18652,-5191 18652,-5536 18707,-5536 18919,-5536 18974,-5536 "/>
 <polygon class="fil8" points="18974,-2885 18813,-2511 18652,-2885 "/>
 <polygon class="fil8" points="18919,-5536 18707,-5536 18707,-5856 18919,-5856 "/>
</symbol>
<symbol id="Fm8-43-0" viewBox="30781 -16641 2989 2845">
 <path class="fil0" d="M33731 -14860c-8,-7 -17,-14 -26,-20 -8,-7 -17,-14 -26,-20 -8,-7 -17,-14 -26,-20 -8,-7 -17,-14 -26,-20 -8,-7 -17,-14 -26,-20 -8,-7 -17,-14 -26,-20 -8,-7 -17,-14 -26,-20 -8,-7 -17,-14 -26,-20 -8,-7 -17,-14 -26,-20 -8,-7 -17,-14 -26,-20 -8,-7 -17,-14 -26,-20 -8,-7 -17,-14 -26,-20 -8,-7 -17,-14 -26,-20 -8,-7 -17,-14 -26,-20 -8,-7 -17,-14 -26,-20 -8,-7 -17,-14 -26,-20 -8,-7 -17,-14 -26,-20 -8,-7 -17,-14 -26,-20 -8,-7 -17,-14 -26,-20 -8,-7 -17,-14 -26,-20 -8,-7 -17,-14 -26,-20 -8,-7 -17,-14 -26,-20 -8,-7 -17,-14 -26,-20 -8,-7 -17,-14 -26,-20 -8,-7 -17,-14 -26,-20 -8,-7 -17,-14 -26,-20 -8,-7 -17,-14 -26,-20 -8,-7 -17,-14 -26,-20 -8,-7 -17,-14 -26,-20 -8,-7 -17,-14 -26,-20 -8,-7 -17,-14 -26,-20 -8,-7 -17,-14 -26,-20 -8,-7 -17,-14 -26,-20 -8,-7 -17,-14 -26,-20 -8,-7 -17,-14 -26,-20 -8,-7 -17,-14 -26,-20 -8,-7 -17,-14 -26,-20 -8,-7 -17,-14 -26,-20 -8,-7 -17,-14 -26,-20 -8,-7 -17,-14 -26,-20 -8,-7 -17,-14 -26,-20 -8,-7 -17,-14 -26,-20 -8,-7 -17,-14 -26,-20 -8,-7 -17,-14 -26,-20 -8,-7 -17,-14 -26,-20 -8,-7 -17,-14 -26,-20 -8,-7 -17,-14 -26,-20 -8,-7 -17,-14 -26,-20 -8,-7 -17,-14 -26,-20 -8,-7 -17,-14 -26,-20 -8,-7 -17,-14 -26,-20 -8,-7 -17,-14 -26,-20 -8,-7 -17,-14 -26,-20 -8,-7 -17,-14 -26,-20 -8,-7 -17,-14 -26,-20 -8,-7 -17,-14 -26,-20 -8,-7 -17,-14 -26,-20 -8,-7 -17,-14 -26,-20 -8,-7 -17,-14 -26,-20 -8,-7 -17,-14 -26,-20 -8,-7 -17,-14 -26,-20 -8,-7 -17,-14 -26,-20 -8,-7 -17,-14 -26,-20 -8,-7 -17,-14 -26,-20 -8,-7 -17,-14 -26,-20 -8,-7 -17,-14 -26,-20 -8,-7 -17,-14 -26,-20 -8,-7 -17,-14 -26,-20 -8,-7 -17,-14 -26,-20 -8,-7 -17,-14 -26,-20 -8,-7 -17,-14 -26,-20 -8,-7 -17,-14 -26,-20 -8,-7 -17,-14 -26,-20 -8,-7 -17,-14 -26,-20 -8,-7 -17,-14 -26,-20 -8,-7 -17,-14 -26,-20 -8,-7 -17,-14 -26,-20 -8,-7 -17,-14 -26,-20 -8,-7 -17,-14 -26,-20 -8,-7 -17,-14 -26,-20 -8,-7 -17,-14 -26,-20 -8,-7 -17,-14 -26,-20 -8,-7 -17,-14 -26,-20 -8,-7 -17,-14 -26,-20 -8,-7 -17,-14 -26,-20 -68,-57 -158,-89 -261,-89 -248,0 -463,203 -463,452 0,140 56,251 152,317 8,7 17,14 26,20 8,7 17,14 26,20 8,7 17,14 26,20 8,7 17,14 26,20 8,7 17,14 26,20 8,7 17,14 26,20 8,7 17,14 26,20 8,7 17,14 26,20 8,7 17,14 26,20 8,7 17,14 26,20 8,7 17,14 26,20 8,7 17,14 26,20 8,7 17,14 26,20 8,7 17,14 26,20 8,7 17,14 26,20 8,7 17,14 26,20 8,7 17,14 26,20 8,7 17,14 26,20 8,7 17,14 26,20 8,7 17,14 26,20 8,7 17,14 26,20 8,7 17,14 26,20 8,7 17,14 26,20 8,7 17,14 26,20 8,7 17,14 26,20 8,7 17,14 26,20 8,7 17,14 26,20 8,7 17,14 26,20 8,7 17,14 26,20 8,7 17,14 26,20 8,7 17,14 26,20 8,7 17,14 26,20 8,7 17,14 26,20 8,7 17,14 26,20 8,7 17,14 26,20 8,7 17,14 26,20 8,7 17,14 26,20 8,7 17,14 26,20 8,7 17,14 26,20 8,7 17,14 26,20 8,7 17,14 26,20 8,7 17,14 26,20 8,7 17,14 26,20 8,7 17,14 26,20 8,7 17,14 26,20 8,7 17,14 26,20 8,7 17,14 26,20 8,7 17,14 26,20 8,7 17,14 26,20 8,7 17,14 26,20 8,7 17,14 26,20 8,7 17,14 26,20 8,7 17,14 26,20 8,7 17,14 26,20 8,7 17,14 26,20 8,7 17,14 26,20 8,7 17,14 26,20 8,7 17,14 26,20 8,7 17,14 26,20 8,7 17,14 26,20 8,7 17,14 26,20 8,7 17,14 26,20 8,7 17,14 26,20 8,7 17,14 26,20 8,7 17,14 26,20 8,7 17,14 26,20 8,7 17,14 26,20 8,7 17,14 26,20 8,7 17,14 26,20 8,7 17,14 26,20 8,7 17,14 26,20 8,7 17,14 26,20 8,7 17,14 26,20 8,7 17,14 26,20 8,7 17,14 26,20 8,7 17,14 26,20 8,7 17,14 26,20 8,7 17,14 26,20 8,7 17,14 26,20 8,7 17,14 26,20 8,7 17,14 26,20 8,7 17,14 26,20 8,7 17,14 26,20 8,7 17,14 26,20 8,7 17,14 26,20 8,7 17,14 26,20 8,7 17,14 26,20 8,7 17,14 26,20 8,7 17,14 26,20 8,7 17,14 26,20 8,7 17,14 26,20 8,7 17,14 26,20 8,7 17,14 26,20 8,7 17,14 26,20 8,7 17,14 26,20 8,7 17,14 26,20 8,7 17,14 26,20 8,7 17,14 26,20 8,7 17,14 26,20 8,7 17,14 26,20 57,48 131,78 218,85l0 -1034c-4,-3 -8,-7 -13,-10 -8,-7 -17,-14 -26,-20z"/>
</symbol>
<symbol id="Fm6-34-0" viewBox="3208 -22814 3459 4524">
 <path class="fil2" d="M6365 -21397l-2156 0 0 1035 2156 0 0 -1035zm0 1035zm302 -1345l0 3070 -345 0 -2415 0 0 -3829 2001 0 0 759 759 0z"/>
 <polygon class="fil2" points="6668,-21707 5909,-21707 5909,-22466 "/>
 <polygon class="fil9" points="6365,-20362 4209,-20362 4209,-21397 6365,-21397 "/>
 <path class="fil10" d="M6323 -18637l0 348 -2767 0c-192,0 -348,-155 -348,-348l3 0c0,-193 156,-348 348,-348 192,0 348,155 348,348l2415 0z"/>
 <path class="fil6" d="M3908 -22466l0 3829c0,-192 -156,-348 -348,-348 -193,0 -348,155 -348,348l0 -3829c0,-192 156,-348 348,-348 192,0 348,155 348,348z"/>
</symbol>
<symbol id="Fm3-33-0" viewBox="29006 -24557 4782 4776">
 <path class="fil0" d="M33758 -22676c-9,-7 -17,-13 -26,-20 -9,-7 -17,-13 -26,-20 -9,-7 -17,-13 -26,-20 -9,-7 -18,-14 -27,-20 -9,-7 -17,-13 -26,-20 -9,-7 -17,-13 -26,-20 -9,-7 -17,-14 -26,-20 -9,-7 -17,-13 -26,-20 -9,-7 -17,-13 -26,-20 -9,-7 -17,-13 -26,-20 -9,-7 -17,-13 -26,-20 -9,-7 -17,-13 -26,-20 -9,-7 -17,-13 -26,-20 -9,-7 -17,-13 -26,-20 -9,-7 -17,-13 -26,-20 -9,-7 -18,-14 -27,-20 -9,-7 -17,-13 -26,-20 -9,-7 -17,-13 -26,-20 -9,-7 -17,-13 -26,-20 -9,-7 -17,-13 -26,-20 -9,-7 -18,-14 -27,-20 -9,-7 -17,-13 -26,-20 -9,-7 -17,-13 -26,-20 -9,-7 -17,-13 -26,-20 -9,-7 -17,-13 -26,-20 -9,-7 -17,-13 -26,-20 -9,-7 -17,-13 -26,-20 -9,-7 -17,-13 -26,-20 -9,-7 -17,-13 -26,-20 -9,-7 -18,-14 -26,-20 -9,-7 -17,-13 -26,-20 -9,-7 -17,-14 -26,-20 -9,-7 -17,-13 -26,-20 -9,-7 -17,-13 -26,-20 -9,-7 -18,-14 -27,-20 -9,-7 -17,-13 -26,-20 -9,-7 -17,-13 -26,-20 -9,-7 -18,-14 -27,-20 -9,-7 -17,-13 -26,-20 -9,-7 -17,-13 -26,-20 -9,-7 -17,-13 -26,-20 -9,-7 -17,-13 -26,-20 -9,-7 -17,-13 -26,-20 -9,-7 -17,-13 -26,-20 -9,-7 -17,-13 -26,-20 -9,-7 -18,-14 -26,-20 -9,-7 -17,-13 -26,-20 -9,-7 -17,-13 -26,-20 -9,-7 -17,-13 -26,-20 -9,-7 -17,-14 -26,-20 -9,-7 -17,-13 -26,-20 -9,-7 -17,-13 -26,-20 -9,-7 -17,-13 -26,-20 -9,-7 -17,-13 -26,-20 -9,-7 -17,-13 -26,-20 -9,-7 -18,-14 -26,-20 -9,-7 -17,-13 -26,-20 -9,-7 -17,-13 -26,-20 -9,-7 -17,-13 -26,-20 -9,-7 -18,-14 -26,-20 -9,-7 -17,-13 -26,-20 -9,-7 -17,-13 -26,-20 -9,-7 -17,-14 -26,-20 -9,-7 -17,-13 -26,-20 -9,-7 -17,-13 -26,-20 -9,-7 -17,-13 -26,-20 -9,-7 -18,-13 -26,-20 -9,-7 -17,-13 -26,-20 -9,-7 -17,-14 -26,-20 -9,-7 -17,-13 -26,-20 -9,-7 -17,-13 -26,-20 -9,-7 -17,-13 -26,-20 -9,-7 -17,-13 -26,-20 -9,-7 -18,-14 -26,-20 -9,-7 -17,-13 -26,-20 -9,-7 -17,-13 -26,-20 -9,-7 -18,-14 -26,-20 -286,-219 -645,-348 -1038,-348 -948,0 -1697,749 -1697,1697 0,566 267,1062 685,1369 9,7 17,13 26,20 9,7 17,13 26,20 9,7 17,13 26,20 9,7 17,14 26,20 9,7 17,13 26,20 9,7 18,14 27,20 9,7 17,13 26,20 9,7 17,13 26,20 9,7 17,13 26,20 9,7 17,14 26,20 9,7 17,13 26,20 9,7 17,13 26,20 9,7 17,13 26,20 9,7 17,13 26,20 9,7 17,13 26,20 9,7 17,13 26,20 9,7 17,13 26,20 9,7 17,13 26,20 9,7 18,14 26,20 9,7 17,13 26,20 9,7 17,13 26,20 9,7 18,14 27,20 9,7 17,13 26,20 9,7 18,14 26,20 9,7 17,13 26,20 9,7 18,14 27,20 9,7 17,13 26,20 9,7 17,13 26,20 9,7 17,13 26,20 9,7 17,13 26,20 9,7 18,14 27,20 9,7 17,13 26,20 9,7 17,14 26,20 9,7 17,13 26,20 9,7 17,13 26,20 9,7 17,13 26,20 9,7 17,13 26,20 9,7 17,14 26,20 9,7 17,13 26,20 9,7 17,13 26,20 9,7 17,13 26,20 9,7 18,14 27,20 9,7 17,13 26,20 9,7 17,13 26,20 9,7 17,13 26,20 9,7 17,13 26,20 9,7 18,14 27,20 9,7 17,13 26,19 9,7 17,13 26,20 9,7 18,14 27,20 9,7 17,13 26,20 9,7 17,13 26,20 9,7 17,13 26,20 9,7 17,13 26,20 9,7 18,14 26,20 9,7 17,13 26,20 9,7 17,13 26,20 9,7 17,14 26,20 9,7 17,14 26,20 9,7 17,13 26,20 9,7 18,14 27,20 9,7 17,13 26,20 9,7 17,13 26,20 9,7 18,14 26,20 9,7 17,13 26,20 9,7 17,13 26,20 9,7 18,14 27,20 9,7 17,13 26,20 9,7 18,14 27,20 9,7 17,13 26,20 9,7 17,13 26,20 9,7 17,13 26,20 9,7 17,13 26,20 9,7 17,13 26,20 9,7 17,13 26,20 9,7 17,13 26,20 9,7 17,13 26,20 9,7 17,13 26,20 9,7 17,13 26,20 9,7 18,14 26,20 9,7 17,13 26,20 9,7 17,13 26,20 9,7 18,14 26,20 9,7 17,13 26,20 9,7 17,13 26,20 8,6 16,12 24,18l371 0c815,0 1475,-661 1475,-1475l0 -1397c-1,-1 -2,-2 -4,-3 -9,-7 -17,-13 -26,-20z"/>
</symbol>
<symbol id="Symbol2" viewBox="18034 -4754 315 3134">
 <path class="fil11" d="M18349 -4754c0,0 -315,38 -315,837l0 2134c0,123 276,269 276,54 0,-215 -23,-2034 -23,-2318 0,-284 15,-606 61,-706z"/>
</symbol>
<symbol id="Fm0-50-0" viewBox="17132 -10625 9228 9682">
 <path class="fil1 str1" d="M17185 -5784c0,-2644 2042,-4788 4561,-4788 2519,0 4561,2144 4561,4788 0,2644 -2042,4788 -4561,4788 -2519,0 -4561,-2144 -4561,-4788z"/>
</symbol>
<symbol id="Fm5-32-0" viewBox="12552 -12434 1004 2024">
 <path class="fil2" d="M13557 -11656l0 894c0,194 -159,353 -353,353l-299 0c-194,0 -353,-159 -353,-353l0 -894 502 0 502 0z"/>
 <path class="fil9" d="M13557 -12081l0 425 -502 0 0 -778 149 0c194,0 353,159 353,353z"/>
 <path class="fil9" d="M13055 -12434l0 778 -502 0 0 -425c0,-194 159,-353 353,-353l150 0z"/>
</symbol>
<symbol id="Fm0-21-0" viewBox="2456 -24321 5985 4558">
 <path class="fil0" d="M8370 -22560c-17,-13 -34,-27 -52,-39 -17,-14 -34,-27 -52,-40 -17,-14 -34,-27 -52,-39 -17,-14 -34,-27 -52,-40 -17,-14 -34,-27 -52,-39 -17,-13 -34,-27 -52,-39 -17,-13 -34,-27 -52,-39 -17,-14 -34,-27 -52,-40 -17,-14 -34,-27 -52,-40 -17,-14 -34,-27 -52,-39 -17,-13 -34,-27 -52,-39 -17,-14 -34,-27 -52,-39 -17,-14 -34,-27 -52,-40 -17,-14 -34,-27 -52,-39 -17,-13 -34,-27 -52,-39 -17,-14 -34,-27 -52,-40 -17,-13 -34,-27 -52,-39 -17,-14 -34,-27 -52,-39 -17,-14 -34,-27 -52,-40 -17,-13 -34,-27 -52,-39 -17,-14 -34,-27 -52,-39 -17,-14 -34,-27 -52,-39 -17,-14 -34,-27 -52,-39 -17,-13 -34,-27 -52,-39 -17,-14 -34,-27 -52,-39 -17,-14 -34,-27 -52,-40 -17,-13 -34,-27 -52,-39 -17,-14 -34,-27 -52,-40 -17,-14 -34,-27 -52,-39 -17,-14 -34,-27 -52,-40 -17,-13 -34,-27 -52,-39 -17,-13 -34,-27 -52,-39 -17,-14 -34,-27 -52,-40 -17,-14 -34,-27 -52,-39 -17,-14 -34,-27 -52,-39 -17,-14 -34,-27 -52,-39 -17,-14 -34,-27 -52,-39 -237,-189 -537,-302 -863,-302 -434,0 -834,197 -1099,541 -190,-25 -389,18 -559,135 -330,228 -435,661 -264,1011 -67,-28 -146,-23 -210,22l-905 626c-100,69 -125,206 -56,306 20,29 46,52 75,68 15,16 33,29 52,39 15,16 33,29 52,39 15,16 33,29 52,39 16,16 33,29 52,39 15,16 33,29 52,39 15,16 33,29 52,39 16,16 33,29 52,39 16,16 33,29 52,39 15,16 33,29 52,39 16,16 33,29 52,39 16,16 33,29 52,39 16,16 33,29 52,39 15,16 33,29 52,39 16,16 33,29 52,39 15,16 33,29 52,39 15,16 33,29 52,39 16,16 33,29 52,39 16,16 33,29 52,39 15,16 33,29 52,39 15,16 33,29 52,39 16,16 33,29 52,39 15,16 33,29 52,39 15,16 33,29 52,39 16,16 33,29 52,39 15,16 33,29 52,39 15,16 33,29 52,39 16,16 33,29 52,39 15,16 33,29 52,39 15,16 33,29 52,39 15,16 33,29 52,39 16,16 33,29 52,39 15,16 33,29 52,39 15,16 33,29 52,39 16,16 33,29 52,39 15,16 33,29 52,39 16,16 33,29 52,40 15,16 33,29 52,39 16,16 33,29 52,39 15,16 33,29 52,39 16,16 33,29 52,39 15,16 33,29 52,39 15,16 33,29 52,39 4,4 99,80 242,193l1974 0c815,0 1475,-660 1475,-1475l0 -1268c-6,-5 -12,-10 -19,-14 -17,-14 -34,-27 -52,-39z"/>
</symbol>
<symbol id="Fm11-45-0" viewBox="1968 -7080 2330 1497">
 <path class="fil2" d="M2581 -6010l-391 0 0 217 391 0 0 -217zm0 217zm1718 -641l0 639c0,117 -95,212 -212,212l-1906 0c-116,0 -212,-95 -212,-212l0 -639 2330 0z"/>
 <polygon class="fil6" points="4298,-6434 1968,-6434 1968,-6751 4298,-6751 "/>
 <path class="fil2" d="M4298 -6868l0 116 -2330 0 0 -116c0,-116 95,-212 212,-212l1906 0c116,0 212,95 212,212z"/>
 <polygon class="fil12" points="2581,-5793 2189,-5793 2189,-6010 2581,-6010 "/>
</symbol>
<symbol id="Fm8-45-0" viewBox="21499 -9025 2623 3616">
 <path class="fil4" d="M22087 -7889c0,-64 -52,-116 -117,-116 -64,0 -116,52 -116,116 0,65 52,117 116,117 65,0 117,-52 117,-117zm436 0c0,-64 -52,-116 -116,-116 -64,0 -116,52 -116,116 0,65 52,117 116,117 64,0 116,-52 116,-117zm1213 2111l0 -723 0 -361 0 -362 0 -361 -466 0 -465 0 -466 0 -466 0 0 361 0 362 0 361 0 362 0 361 932 0 465 0 466 0zm12 -2916l-1876 0 0 515 1876 0 0 -515zm0 515zm0 162l-944 0 0 250 944 0 0 -250zm0 250zm374 2358l-2623 0 0 -3616 2623 0 0 3616zm0 -3616l0 3616"/>
 <polygon class="fil9" points="23748,-7767 22805,-7767 22805,-8017 23748,-8017 "/>
 <polygon class="fil8" points="23748,-8179 21873,-8179 21873,-8694 23748,-8694 "/>
 <polygon class="fil6" points="23736,-6501 23736,-5777 23270,-5777 23270,-6139 23270,-6501 "/>
 <polygon class="fil5" points="23736,-6501 23270,-6501 23270,-6862 23736,-6862 "/>
 <polygon class="fil5" points="23736,-6862 23270,-6862 23270,-7224 23736,-7224 "/>
 <polygon class="fil5" points="23736,-7224 23270,-7224 23270,-7585 23736,-7585 "/>
 <polygon class="fil8" points="23270,-5777 22805,-5777 22805,-6139 23270,-6139 "/>
 <polygon class="fil8" points="23270,-6139 22805,-6139 22805,-6501 23270,-6501 "/>
 <polygon class="fil8" points="23270,-6501 22805,-6501 22805,-6862 23270,-6862 "/>
 <polygon class="fil8" points="23270,-6862 22805,-6862 22805,-7224 23270,-7224 "/>
 <polygon class="fil8" points="23270,-7224 22805,-7224 22805,-7585 23270,-7585 "/>
 <polygon class="fil9" points="22805,-6139 22805,-5777 21873,-5777 21873,-6139 22339,-6139 "/>
 <polygon class="fil8" points="22805,-6139 22339,-6139 22339,-6501 22805,-6501 "/>
 <polygon class="fil8" points="22805,-6501 22339,-6501 22339,-6862 22805,-6862 "/>
 <polygon class="fil8" points="22805,-6862 22339,-6862 22339,-7224 22805,-7224 "/>
 <polygon class="fil8" points="22805,-7224 22339,-7224 22339,-7585 22805,-7585 "/>
 <path class="fil6" d="M22406 -8005c64,0 116,52 116,116 0,65 -52,117 -116,117 -64,0 -116,-52 -116,-117 0,-64 52,-116 116,-116z"/>
 <polygon class="fil8" points="22339,-6139 21873,-6139 21873,-6501 22339,-6501 "/>
 <polygon class="fil8" points="22339,-6501 21873,-6501 21873,-6862 22339,-6862 "/>
 <polygon class="fil8" points="22339,-6862 21873,-6862 21873,-7224 22339,-7224 "/>
 <polygon class="fil8" points="22339,-7224 21873,-7224 21873,-7585 22339,-7585 "/>
 <path class="fil9" d="M21970 -8005c65,0 117,52 117,116 0,65 -52,117 -117,117 -64,0 -116,-52 -116,-117 0,-64 52,-116 116,-116z"/>
</symbol>
<symbol id="Fm9-45-0" viewBox="3559 -8567 4905 4922">
 <path class="fil0" d="M6838 -8271c-39,0 -72,24 -84,58 -2,-1 -4,-3 -7,-4 -16,-14 -33,-27 -52,-39 -90,-80 -227,-131 -381,-131 -116,0 -223,29 -307,78 -9,-7 -179,-138 -212,-138l-315 0c-49,0 -89,38 -89,86l0 401 -863 -604 -94 0 0 237 -17 0 -259 -237 -95 0 -506 331 0 656 451 288 -176 2269 1818 1378 1337 0c127,0 249,-16 366,-46 0,0 97,-30 181,-59 493,-230 928,-749 928,-1370l0 -2146c-667,-509 -1326,-1005 -1342,-1005l-284 0z"/>
</symbol>
<symbol id="Fm1-23-0" viewBox="11849 -24626 5159 4844">
 <path class="fil0" d="M14318 -24626l0 333 -391 -224 -2078 1197 496 338 0 6 0 1875 1737 1320 1451 0c815,0 1475,-660 1475,-1475l0 -1741 -2142 -1628 -547 0z"/>
</symbol>
<symbol id="Fm5-67-0" viewBox="7717 -18434 1880 1510">
 <polygon class="fil6" points="9597,-18207 9423,-17511 8262,-17511 8088,-18207 "/>
 <path class="fil4" d="M9151 -17288c101,0 183,82 183,183 0,101 -82,182 -183,182 -101,0 -183,-82 -183,-182 0,-101 82,-183 183,-183z"/>
 <path class="fil4" d="M8233 -17288c101,0 182,82 182,183 0,101 -82,182 -182,182 -101,0 -183,-82 -183,-182 0,-74 44,-137 106,-166 23,-11 49,-17 76,-17z"/>
 <polygon class="fil2" points="8027,-18306 7717,-18306 7717,-18434 8027,-18434 "/>
</symbol>
<symbol id="Fm6-41-0" viewBox="24052 -17240 693 693">
 <path class="fil13" d="M24052 -16893c0,-192 155,-347 347,-347 191,0 347,155 347,347 0,191 -155,347 -347,347 -192,0 -347,-155 -347,-347z"/>
</symbol>
<symbol id="Fm1-25-0" viewBox="14214 -9477 4556 436">
 <polygon class="fil14" points="18161,-9477 18313,-9477 18313,-9041 18161,-9041 "/>
 <polygon class="fil8" points="16050,-9477 18161,-9477 18161,-9041 16050,-9041 "/>
 <polygon class="fil14" points="15774,-9477 16050,-9477 16050,-9041 15774,-9041 "/>
 <polygon class="fil8" points="14819,-9477 15774,-9477 15774,-9041 14819,-9041 "/>
 <polygon class="fil14" points="14558,-9477 14819,-9477 14819,-9041 14558,-9041 14558,-9117 14558,-9402 "/>
 <polygon class="fil15" points="18313,-9477 18769,-9259 18313,-9041 "/>
 <polygon class="fil15" points="14214,-9402 14558,-9402 14558,-9117 14214,-9117 "/>
</symbol>
<symbol id="Fm7-36-0" viewBox="14714 -15591 3648 3648">
 <path class="fil2" d="M17843 -13767c0,-720 -584,-1304 -1304,-1304 -720,0 -1304,584 -1304,1304 0,720 584,1304 1304,1304 720,0 1304,-584 1304,-1304zm-1304 -1824c1008,0 1824,816 1824,1824 0,1008 -816,1824 -1824,1824 -1008,0 -1824,-816 -1824,-1824 0,-1008 816,-1824 1824,-1824z"/>
 <path class="fil6" d="M16538 -15071c720,0 1304,584 1304,1304 0,720 -584,1304 -1304,1304 -720,0 -1304,-584 -1304,-1304 0,-720 584,-1304 1304,-1304z"/>
</symbol>
<symbol id="Fm2-54-0" viewBox="18774 -8901 5944 6235">
 <path class="fil1 str1" d="M18827 -5784c0,-1692 1307,-3064 2919,-3064 1612,0 2919,1372 2919,3064 0,1692 -1307,3064 -2919,3064 -1612,0 -2919,-1372 -2919,-3064z"/>
</symbol>
<symbol id="Fm0-28-0" viewBox="1816 -21303 8322 8732">
 <path class="fil1 str1" d="M1869 -16937c0,-2382 1839,-4313 4108,-4313 2269,0 4108,1931 4108,4313 0,2382 -1839,4313 -4108,4313 -2269,0 -4108,-1931 -4108,-4313z"/>
</symbol>
<symbol id="Fm4-37-0" viewBox="8161 -16448 440 2859">
 <polygon class="fil16" points="8601,-15847 8599,-15847 8599,-16089 8601,-16089 "/>
 <polygon class="fil17" points="8601,-16448 8601,-16089 8599,-16089 8161,-16089 8161,-16448 "/>
 <polygon class="fil18" points="8601,-13945 8505,-13790 8257,-13790 8161,-13945 8599,-13945 "/>
 <polygon class="fil3" points="8599,-13945 8161,-13945 8161,-15847 8599,-15847 "/>
 <polygon class="fil18" points="8599,-15847 8161,-15847 8161,-16089 8599,-16089 "/>
 <polygon class="fil17" points="8505,-13790 8381,-13589 8257,-13790 "/>
</symbol>
<symbol id="Fm11-29-0" viewBox="11334 -22221 393 3488">
 <polygon class="fil8" points="11531,-18732 11334,-19153 11378,-19454 11683,-19454 11727,-19153 "/>
 <polygon class="fil19" points="11716,-22017 11716,-20773 11683,-20773 11378,-20773 11345,-20773 11345,-22017 11378,-22017 11683,-22017 "/>
 <polygon class="fil20" points="11683,-19454 11378,-19454 11378,-19666 11683,-19666 "/>
 <polygon class="fil19" points="11683,-19666 11378,-19666 11378,-20773 11683,-20773 "/>
 <polygon class="fil8" points="11683,-22221 11683,-22017 11378,-22017 11378,-22083 11378,-22221 "/>
</symbol>
<symbol id="Fm0-23-0" viewBox="12874 -8633 6664 3510">
 <path class="fil14" d="M19099 -5754l0 -2248c0,-161 -132,-292 -292,-292l-4004 0 -731 0 -468 0c-161,0 -292,132 -292,292l0 2248c0,161 132,292 292,292l468 0 731 0 4004 0c161,0 292,-131 292,-292zm438 -2587l0 2926c0,161 -132,292 -292,292l-6079 0c-161,0 -292,-132 -292,-292l0 -2926c0,-161 132,-292 292,-292l6079 0c161,0 292,132 292,292z"/>
 <path class="fil15" d="M19099 -8002l0 2248c0,161 -132,292 -292,292l-4004 0 0 -1261 0 -312 0 -1261 4004 0c161,0 292,131 292,292z"/>
 <polygon class="fil8" points="14803,-5462 14072,-5462 14072,-6722 14803,-6722 "/>
 <polygon class="fil21" points="14803,-6722 14072,-6722 14072,-7034 14803,-7034 "/>
 <polygon class="fil8" points="14803,-7034 14072,-7034 14072,-8294 14803,-8294 "/>
 <path class="fil15" d="M14072 -6722l0 1261 -468 0c-161,0 -292,-131 -292,-292l0 -2248c0,-161 132,-292 292,-292l468 0 0 1261 0 312z"/>
</symbol>
<symbol id="Fm12-29-0" viewBox="20805 -8459 4714 4815">
 <path class="fil0" d="M24090 -7455c-238,-57 -454,-142 -645,-238 -10,-11 -11,-6 -11,-6 -6,-3 -13,-6 -19,-10 -474,-234 -969,-751 -969,-751l181 656c-2609,203 -1930,1688 -929,2431 17,13 34,26 52,39 17,14 35,27 53,40 17,13 34,26 51,39 17,14 35,27 53,40 17,13 34,26 51,39 17,13 35,27 52,40 17,13 34,26 52,39 17,13 34,26 52,39 17,13 35,27 52,40 17,13 34,26 51,39 17,14 35,27 53,40 17,13 34,26 51,39 18,14 35,27 53,40 17,13 34,26 52,39 17,13 34,26 51,39 17,13 35,27 52,40 17,13 35,27 52,40 17,14 35,27 52,40 17,13 34,26 51,39 17,13 34,27 52,39 17,13 34,26 51,39 18,14 35,27 53,40 17,13 35,26 52,39 17,13 34,26 51,39 17,13 34,26 51,39 17,13 35,27 52,40 17,14 35,27 53,40 17,13 34,26 51,39 17,13 35,27 53,40 17,13 34,26 51,39 17,13 35,27 52,39 17,14 35,27 53,40 17,13 34,26 51,39 17,13 35,27 52,39 17,13 34,26 51,39 17,14 35,27 53,40 17,13 35,27 52,40 17,13 34,26 51,39 17,14 35,27 52,40 17,13 34,26 51,39 17,14 35,27 53,40 17,13 34,26 51,39 17,13 35,27 52,40 15,11 29,22 44,33l73 0c815,0 1475,-660 1475,-1475l0 -1237c-699,-531 -1438,-1097 -1429,-1099z"/>
</symbol>
<symbol id="Fm12-47-0" viewBox="9449 -6885 2330 1497">
 <path class="fil2" d="M10061 -5815l-391 0 0 217 391 0 0 -217zm0 217zm1718 -641l0 639c0,116 -95,212 -212,212l-1906 0c-117,0 -212,-95 -212,-212l0 -639 2330 0z"/>
 <polygon class="fil6" points="11779,-6239 9449,-6239 9449,-6556 11779,-6556 "/>
 <path class="fil2" d="M11779 -6673l0 117 -2330 0 0 -117c0,-116 95,-212 212,-212l1906 0c116,0 212,95 212,212z"/>
 <polygon class="fil12" points="10061,-5598 9670,-5598 9670,-5815 10061,-5815 "/>
</symbol>
<symbol id="Fm2-32-0" viewBox="3295 -19751 5365 5627">
 <path class="fil1 str1" d="M3348 -16937c0,-1525 1177,-2760 2629,-2760 1452,0 2629,1236 2629,2760 0,1525 -1177,2760 -2629,2760 -1452,0 -2629,-1236 -2629,-2760z"/>
</symbol>
<symbol id="Fm3-28-0" viewBox="15393 -6147 2465 3927">
 <polygon class="fil4" points="17858,-5547 17858,-2219 15393,-2219 15393,-5547 16032,-5547 16032,-5162 15678,-5162 15678,-2604 17573,-2604 17573,-5162 17219,-5162 17219,-5547 "/>
 <path class="fil9" d="M16173 -4778l-280 0 0 280 280 0 0 -280zm0 280zm0 222l-280 0 0 280 280 0 0 -280zm0 281zm0 222l-280 0 0 280 280 0 0 -280zm0 280zm0 222l-280 0 0 280 280 0 0 -280zm0 280zm1401 -2173l0 2557 -1895 0 0 -2557 354 0 0 62 593 0 594 0 0 -62 354 0z"/>
 <polygon class="fil8" points="17219,-5162 17219,-5100 16626,-5100 16032,-5100 16032,-5162 "/>
 <polygon class="fil8" points="17219,-5162 16032,-5162 16032,-5547 17219,-5547 "/>
 <path class="fil8" d="M16699 -5930c0,-41 -33,-74 -74,-74 -40,0 -73,33 -73,74 0,40 33,74 73,74 41,0 74,-33 74,-74zm520 220l0 164 -1187 0 0 -164 339 0c0,0 -34,-436 254,-436 289,0 255,436 255,436l339 0z"/>
 <path class="fil7" d="M16626 -6004c41,0 74,33 74,74 0,40 -33,74 -74,74 -40,0 -73,-33 -73,-74 0,-41 33,-74 73,-74z"/>
 <polygon class="fil2" points="16173,-2989 15892,-2989 15892,-3270 16173,-3270 "/>
 <polygon class="fil2" points="16173,-3492 15892,-3492 15892,-3772 16173,-3772 "/>
 <polygon class="fil2" points="16173,-3995 15892,-3995 15892,-4275 16173,-4275 "/>
 <polygon class="fil6" points="16173,-4498 15892,-4498 15892,-4778 16173,-4778 "/>
</symbol>
<symbol id="Fm6-39-0" viewBox="21126 -16278 4375 4594">
 <path class="fil0" d="M21759 -16278l0 0 -633 0 0 2825 2327 1769 573 0c815,0 1475,-660 1475,-1475l0 -1941 -1550 -1178 -2192 0z"/>
</symbol>
<symbol id="Fm6-69-0" viewBox="3705 -19367 2367 1521">
 <path class="fil22" d="M4327 -18280l-398 0 0 221 398 0 0 -221zm0 221zm1745 -651l0 649c0,118 -97,215 -215,215l-1937 0c-118,0 -215,-97 -215,-215l0 -649 2367 0z"/>
 <polygon class="fil2" points="6072,-18711 3705,-18711 3705,-19034 6072,-19034 "/>
 <path class="fil22" d="M6072 -19152l0 118 -2367 0 0 -118c0,-118 97,-215 215,-215l1937 0c118,0 215,97 215,215z"/>
 <polygon class="fil12" points="4327,-18060 3929,-18060 3929,-18280 4327,-18280 "/>
</symbol>
<symbol id="Fm1-52-0" viewBox="17880 -9839 7732 8110">
 <path class="fil1 str0" d="M17951 -5784c0,-2201 1699,-3985 3796,-3985 2096,0 3796,1784 3796,3985 0,2201 -1699,3985 -3796,3985 -2096,0 -3796,-1784 -3796,-3985z"/>
</symbol>
<symbol id="Fm12-31-0" viewBox="22263 -12737 1338 2111">
 <path class="fil2" d="M23600 -11932l0 701c0,155 -59,310 -178,429 -118,118 -273,177 -429,177l-125 0c-155,0 -310,-59 -429,-177 -118,-119 -177,-273 -177,-429l0 -701 669 0 669 0z"/>
 <path class="fil3" d="M23600 -12373l0 441 -669 0 0 -127 83 0 0 -331 -83 0 0 -346 305 0c93,0 186,35 257,107 71,71 107,164 107,257z"/>
 <polygon class="fil23" points="23014,-12059 22932,-12059 22932,-12390 23014,-12390 "/>
 <path class="fil3" d="M22932 -12059l0 127 -669 0 0 -441c0,-93 36,-186 107,-257 71,-71 164,-107 257,-107l305 0 0 346 -83 0 0 331 83 0z"/>
 <polygon class="fil23" points="22932,-12059 22849,-12059 22849,-12390 22932,-12390 "/>
</symbol>
<symbol id="Fm10-24-0" viewBox="21052 -10144 3429 3250">
 <polygon class="fil9" points="24481,-8573 24481,-7907 24409,-7907 24254,-7907 24254,-8573 "/>
 <polygon class="fil24" points="24254,-7907 24254,-7780 23788,-7780 23788,-8700 23873,-8700 24174,-8700 24254,-8700 24254,-8573 "/>
 <path class="fil6" d="M24175 -8739c0,12 -1,25 -1,38l-301 0c0,-13 2,-26 2,-38 0,-611 -495,-1105 -1105,-1105 -611,0 -1105,495 -1105,1105 0,12 1,25 2,38l-301 0c0,-13 -1,-26 -1,-38 0,-777 629,-1406 1405,-1406 776,0 1406,629 1406,1406z"/>
 <polygon class="fil21" points="23817,-7033 23817,-6895 23213,-6895 23213,-7171 23817,-7171 "/>
 <polygon class="fil24" points="21744,-8700 21744,-7780 21279,-7780 21279,-7907 21279,-8573 21279,-8700 21365,-8700 21666,-8700 "/>
 <polygon class="fil9" points="21279,-7907 21052,-7907 21052,-8573 21279,-8573 "/>
</symbol>
<symbol id="Fm0-58-0" viewBox="3106 -10014 8193 8596">
 <path class="fil1 str1" d="M3159 -5716c0,-2344 1810,-4245 4044,-4245 2233,0 4044,1901 4044,4245 0,2344 -1810,4245 -4044,4245 -2233,0 -4044,-1900 -4044,-4245z"/>
</symbol>
<symbol id="Fm2-40-0" viewBox="20367 -19702 5272 5529">
 <path class="fil1 str1" d="M20419 -16937c0,-1498 1156,-2712 2583,-2712 1427,0 2583,1214 2583,2712 0,1498 -1156,2712 -2583,2712 -1426,0 -2583,-1214 -2583,-2712z"/>
</symbol>
<symbol id="Fm8-38-0" viewBox="9369 -7298 1891 1891">
 <polygon class="fil4" points="11260,-7298 11260,-5956 10710,-5956 10710,-5407 9369,-5407 9369,-7298 "/>
 <polygon class="fil2" points="11260,-5956 10710,-5407 10710,-5956 "/>
</symbol>
<symbol id="Fm0-20-0" viewBox="8911 -22915 519 519">
 <path class="fil2" d="M8911 -22656c0,-143 116,-260 260,-260 143,0 260,116 260,260 0,143 -116,260 -260,260 -143,0 -260,-116 -260,-260z"/>
</symbol>
<symbol id="Fm2-31-0" viewBox="20677 -24614 4836 4844">
 <path class="fil0" d="M25479 -21914c-9,-7 -17,-13 -26,-20 -9,-7 -18,-13 -26,-20 -9,-7 -17,-13 -26,-20 -9,-7 -17,-13 -26,-20 -9,-7 -17,-13 -26,-20 -9,-7 -17,-13 -26,-20 -9,-7 -18,-13 -26,-20 -9,-7 -17,-13 -26,-20 -9,-7 -17,-13 -26,-20 -9,-7 -17,-13 -26,-20 -9,-7 -17,-13 -26,-20 -9,-7 -17,-13 -26,-20 -9,-7 -17,-13 -26,-20 -9,-7 -18,-13 -26,-20 -9,-7 -18,-14 -27,-20 -9,-6 -17,-13 -26,-19 -9,-7 -17,-13 -26,-20 -9,-7 -17,-13 -26,-20 -9,-7 -17,-13 -26,-20 -9,-7 -18,-13 -26,-20 -9,-7 -17,-13 -26,-20 -9,-7 -17,-13 -26,-20 -9,-7 -18,-13 -26,-20 -9,-7 -17,-13 -26,-20 -9,-7 -17,-13 -26,-20 -9,-7 -17,-13 -26,-20 -9,-7 -17,-13 -26,-20 -9,-7 -17,-13 -26,-20 -9,-7 -17,-13 -26,-20 -9,-7 -17,-13 -26,-20 -9,-7 -17,-13 -26,-20 -9,-7 -18,-13 -26,-20 -9,-7 -17,-13 -26,-20 -9,-7 -17,-13 -26,-20 -9,-7 -17,-13 -26,-20 -9,-7 -17,-13 -26,-20 -9,-7 -17,-13 -26,-20 -9,-7 -18,-13 -26,-20 -9,-7 -17,-13 -26,-20 -9,-7 -18,-13 -26,-20 -9,-7 -17,-13 -26,-20 -9,-7 -17,-13 -26,-20 -9,-7 -18,-13 -26,-20 -9,-7 -17,-13 -26,-20 -9,-7 -17,-13 -26,-20 -9,-7 -17,-13 -26,-20 -9,-7 -17,-13 -26,-20 -9,-7 -17,-13 -26,-20 -9,-7 -18,-13 -27,-20 -9,-7 -17,-13 -26,-20 -9,-7 -17,-13 -26,-20 -9,-7 -17,-13 -26,-20 -9,-7 -17,-13 -26,-20 -9,-7 -18,-13 -27,-20 -9,-7 -17,-13 -26,-20 -9,-7 -17,-13 -26,-20 -9,-7 -17,-13 -26,-20 -9,-7 -17,-13 -26,-20 -9,-7 -18,-13 -26,-20 -9,-7 -17,-13 -26,-20 -9,-7 -17,-13 -26,-20 -9,-7 -17,-13 -26,-20 -9,-7 -18,-13 -26,-20 -9,-7 -17,-13 -26,-20 -9,-7 -17,-13 -26,-20 -9,-7 -17,-13 -26,-20 -9,-7 -17,-13 -26,-20 -9,-7 -17,-13 -26,-20 -9,-7 -17,-13 -26,-20 -9,-7 -17,-13 -26,-20 -9,-7 -18,-13 -26,-20 -9,-7 -17,-13 -26,-20 -9,-7 -17,-13 -26,-20 -9,-7 -18,-13 -26,-20 -9,-7 -17,-13 -26,-20 -9,-7 -18,-13 -27,-20 -9,-7 -17,-13 -26,-20 -9,-7 -17,-13 -26,-20 -9,-7 -18,-13 -26,-20 -9,-7 -17,-13 -26,-20 -9,-7 -17,-13 -26,-20 -9,-7 -17,-13 -26,-20 -9,-7 -18,-13 -26,-20 -9,-7 -17,-13 -26,-20 -9,-7 -17,-13 -26,-20 -9,-7 -17,-13 -26,-20 -9,-7 -17,-13 -26,-20 -9,-7 -17,-13 -26,-20 -9,-7 -17,-13 -26,-20 -9,-7 -17,-13 -26,-20 -9,-7 -17,-13 -26,-20 -9,-7 -17,-13 -26,-20 -9,-7 -17,-13 -26,-20 -9,-7 -17,-13 -26,-20 -9,-7 -17,-13 -26,-20 -9,-7 -18,-13 -26,-20 -390,-297 -868,-521 -1406,-657 -409,-104 -745,-129 -882,-136l0 586c8,1 2646,2006 2646,2006 43,3 104,7 179,16 18,70 34,141 48,213 -2,-2 -5,-4 -7,-5 -9,-7 -17,-13 -26,-20 -9,-7 -17,-13 -26,-20 -9,-7 -17,-14 -26,-20 -9,-7 -17,-13 -26,-20 -9,-7 -17,-13 -26,-20 -9,-7 -17,-13 -26,-20 -9,-7 -17,-13 -26,-20 -9,-7 -17,-13 -26,-20 -9,-7 -17,-13 -26,-20 -9,-7 -17,-13 -26,-20 -9,-7 -18,-14 -27,-20 -9,-7 -17,-13 -26,-20 -9,-7 -17,-13 -26,-20 -9,-7 -18,-14 -27,-20 -9,-7 -17,-13 -26,-20 -9,-7 -17,-13 -26,-20 -9,-7 -17,-13 -26,-20 -9,-7 -17,-13 -26,-20 -9,-7 -17,-13 -26,-20 -9,-7 -18,-14 -27,-20 -9,-6 -17,-13 -25,-19 -9,-7 -18,-14 -27,-20 -9,-6 -17,-13 -26,-20 -9,-7 -17,-13 -26,-20 -9,-7 -17,-13 -26,-20 -9,-7 -17,-13 -26,-20 -9,-7 -17,-13 -26,-20 -9,-7 -17,-13 -26,-20 -9,-7 -17,-13 -26,-20 -9,-7 -17,-13 -26,-20 -9,-7 -17,-13 -26,-20 -9,-7 -17,-13 -26,-20 -9,-7 -18,-14 -27,-20 -9,-7 -17,-13 -26,-20 -9,-7 -17,-13 -26,-20 -9,-7 -17,-13 -26,-20 -9,-7 -17,-13 -26,-20 -9,-7 -17,-13 -26,-20 -9,-7 -18,-14 -26,-20 -9,-7 -17,-13 -26,-20 -9,-7 -17,-13 -26,-20 -9,-7 -17,-13 -26,-20 -9,-7 -17,-13 -26,-20 -9,-6 -17,-13 -26,-19 -9,-7 -18,-14 -27,-20 -9,-7 -17,-13 -26,-20 -9,-7 -17,-13 -26,-20 -9,-7 -17,-13 -26,-20 -9,-7 -17,-13 -26,-20 -9,-7 -17,-13 -26,-20 -9,-7 -18,-13 -26,-20 -9,-6 -17,-13 -26,-20 -9,-7 -17,-14 -26,-20 -261,-197 -580,-342 -940,-426 -231,-54 -427,-70 -538,-75l0 586c8,0 1650,1251 1650,1251 2,0 5,0 7,0 15,71 25,145 32,221 -4,-3 -8,-6 -12,-9 -8,-7 -17,-13 -26,-20 -8,-7 -17,-13 -26,-20 -8,-7 -17,-13 -26,-20 -8,-7 -17,-13 -26,-20 -9,-7 -17,-14 -26,-20 -8,-7 -17,-13 -26,-20 -8,-7 -17,-13 -26,-20 -8,-7 -17,-13 -26,-20 -8,-7 -17,-13 -26,-20 -8,-7 -17,-13 -26,-20 -8,-7 -17,-14 -26,-20 -8,-7 -17,-13 -26,-20 -8,-7 -17,-13 -26,-20 -8,-7 -17,-13 -26,-20 -8,-7 -17,-14 -26,-20 -8,-7 -17,-13 -26,-20 -8,-7 -17,-14 -26,-20 -8,-7 -17,-13 -26,-20 -9,-7 -17,-14 -26,-20 -8,-7 -17,-13 -26,-20 -8,-7 -17,-13 -26,-20 -8,-7 -17,-13 -26,-20 -8,-7 -17,-13 -26,-20 -8,-7 -17,-13 -26,-20 -9,-7 -17,-14 -26,-20 -8,-7 -17,-13 -26,-20 -8,-7 -17,-13 -26,-20 -8,-7 -17,-13 -26,-20 -8,-7 -17,-13 -26,-20 -8,-7 -17,-13 -26,-20 -8,-7 -17,-13 -26,-20 -8,-7 -17,-13 -26,-20 -8,-7 -17,-13 -26,-20 -81,-68 -185,-108 -299,-108 -259,0 -468,210 -468,469 0,157 77,296 195,381 8,7 17,13 26,20 8,7 17,13 26,20 8,7 17,13 26,20 8,7 17,13 26,20 8,7 17,13 26,20 8,7 17,13 26,20 8,7 17,14 26,20 8,7 17,13 26,20 8,7 17,13 26,20 8,7 17,13 26,20 8,7 17,13 26,20 9,7 17,14 26,20 8,7 17,13 26,20 8,7 17,14 26,20 8,7 17,13 26,20 8,7 17,14 26,20 8,7 17,13 26,20 8,7 17,13 26,20 8,7 17,13 26,20 8,7 17,13 26,20 8,7 17,13 26,20 8,7 17,13 26,20 8,7 17,13 26,20 8,7 17,14 26,20 8,7 17,13 26,20 8,7 17,13 26,20 8,7 17,13 26,20 8,7 17,13 26,20 8,7 17,13 26,20 8,7 17,13 26,20 8,7 17,13 26,20 8,7 17,13 26,20 8,7 17,13 26,20 8,7 17,13 26,20 8,7 17,13 26,20 8,7 17,14 26,20 8,7 17,13 26,20 8,7 17,13 26,20 8,7 17,14 26,20 8,7 17,13 26,20 8,7 17,13 26,20 8,7 17,13 26,20 8,7 17,13 26,20 8,7 17,13 26,20 8,7 17,13 26,20 8,7 17,13 26,20 8,7 17,14 26,20 8,7 17,13 26,20 8,7 17,13 26,20 8,7 17,14 26,20 8,7 17,13 26,20 8,7 17,13 26,20 8,7 17,13 26,20 8,7 17,13 26,20 8,7 17,13 26,20 8,7 17,13 26,20 8,7 17,13 26,20 8,7 17,14 26,20 8,7 17,13 26,20 8,7 17,13 26,20 8,7 17,14 26,20 8,7 17,13 26,20 8,7 17,13 26,20 8,7 17,14 26,20 8,7 17,13 26,20 8,7 17,13 26,20 9,7 17,14 26,20 8,7 17,13 26,20 8,7 17,13 26,20 8,7 17,13 26,20 8,7 17,13 26,20 8,7 17,13 26,20 7,6 14,11 21,16l1213 0c815,0 1475,-659 1475,-1472l0 -647c-3,-2 -5,-4 -8,-6 -9,-7 -17,-13 -26,-20z"/>
</symbol>
<symbol id="Fm0-19-0" viewBox="148740 -117979 9758 9758">
 <path class="fil25" d="M157485 -116076c-1644,-2135 -4707,-2534 -6842,-890 -2135,1644 -2533,4707 -889,6842 1644,2135 4707,2533 6842,890 2135,-1644 2533,-4707 890,-6842z"/>
</symbol>
<symbol id="Fm3-35-0" viewBox="4116 -17021 3009 4004">
 <polygon class="fil2" points="7125,-16628 7125,-13182 6863,-13182 6863,-14601 6863,-14905 6863,-15191 6863,-16628 "/>
 <path class="fil16" d="M6863 -13182l0 165 -2747 0 0 -1888 1097 0c53,150 175,303 448,303l1203 0 0 1420z"/>
 <path class="fil14" d="M6863 -14905l0 303 -1203 0c-273,0 -395,-153 -448,-303l1651 0z"/>
 <path class="fil14" d="M6863 -15191l0 286 -1651 0c-51,-144 -40,-286 -40,-286l1691 0z"/>
 <path class="fil23" d="M6863 -16628l0 1437 -1691 0c0,0 -12,141 40,286l-1097 0 0 -1888 386 0 0 991 296 -167 296 167 0 -991 1769 0 0 165z"/>
 <path class="fil26" d="M4902 -16272l104 -101 -144 -21 -65 -130 -64 130 -144 21 104 101 -24 144 129 -68 129 68 -25 -144zm192 -521l0 991 -296 -167 -296 167 0 -991 592 0z"/>
 <polygon class="fil26" points="5094,-16793 4502,-16793 4502,-17021 5094,-17021 "/>
 <polygon class="fil2" points="5006,-16374 4902,-16272 4927,-16129 4798,-16197 4669,-16129 4694,-16272 4590,-16374 4734,-16395 4798,-16525 4863,-16395 "/>
</symbol>
<symbol id="Fm10-27-0" viewBox="2910 -21024 3378 1978">
 <polygon class="fil2" points="6288,-19703 6288,-19384 6143,-19331 6143,-19684 6143,-19730 "/>
 <path class="fil26" d="M5880 -20928l407 1225 -145 -53 0 26 -4 -1c-9,-51 -33,-100 -73,-139 -30,-30 -65,-51 -102,-63l-189 -861c-167,-50 -219,-230 -219,-230l324 96z"/>
 <polygon class="fil2" points="6288,-19703 6143,-19730 6143,-19756 "/>
 <path class="fil16" d="M5961 -19361l0 -272c0,-49 -19,-98 -56,-135 -37,-37 -86,-56 -135,-56l-585 0c-49,0 -98,19 -135,56 -37,37 -56,86 -56,135l0 81c0,98 37,195 112,270 75,74 172,112 270,112l394 0c49,0 98,-19 135,-56 37,-37 56,-86 56,-135zm183 29l0 22c0,67 -26,135 -77,186 -52,51 -119,77 -186,77l-543 0c-135,0 -269,-51 -372,-154 -103,-103 -154,-237 -154,-372l0 -109c14,11 21,19 21,19l0 -124c13,-30 32,-59 56,-84 51,-51 119,-77 186,-77l806 0c28,0 57,5 84,14l39 177 136 25c3,15 4,31 4,47l0 353z"/>
 <path class="fil16" d="M6139 -19731l-136 -25 -39 -177c37,12 72,34 102,63 39,39 64,88 73,139z"/>
 <path class="fil9" d="M5961 -19632l0 272c0,49 -19,98 -56,135 -37,37 -86,56 -135,56l-394 0c-98,0 -195,-37 -270,-112 -74,-75 -112,-172 -112,-270l0 -81c0,-49 19,-98 56,-135 37,-37 86,-56 135,-56l585 0c49,0 98,19 135,56 37,37 56,86 56,135z"/>
 <path class="fil2" d="M4832 -19786l0 124c0,0 -7,-8 -21,-19l0 -3c0,-35 7,-70 21,-102z"/>
 <path class="fil3" d="M4832 -19788l0 2c-14,33 -21,67 -21,102l0 3c-35,-29 -111,-80 -213,-80 -101,0 -177,50 -212,79l0 -2c0,-35 -7,-71 -22,-104 0,0 93,-99 234,-99 141,0 234,99 234,99z"/>
 <path class="fil16" d="M4203 -19552l0 -81c0,-49 -18,-98 -56,-135 -37,-37 -86,-56 -135,-56l-585 0c-49,0 -98,19 -135,56 -37,37 -56,86 -56,135l0 272c0,49 19,98 56,135 37,37 86,56 135,56l394 0c98,0 195,-37 270,-112 75,-75 112,-172 112,-270zm183 -131l0 110c0,135 -52,269 -154,372 -103,102 -237,154 -372,154l-543 0c-67,0 -135,-26 -186,-77 -51,-52 -77,-119 -77,-186l0 -22 0 -353c0,-16 1,-31 4,-47l136 -25 39 -177c27,-9 55,-14 84,-14l806 0c67,0 134,26 186,77 24,24 43,52 55,82l0 125c0,0 8,-8 22,-19z"/>
 <path class="fil2" d="M4386 -19684l0 2c-14,12 -22,19 -22,19l0 -125c14,33 22,68 22,104z"/>
 <path class="fil9" d="M4203 -19632l0 81c0,98 -37,195 -112,270 -74,74 -172,112 -270,112l-394 0c-49,0 -98,-19 -135,-56 -37,-37 -56,-86 -56,-135l0 -272c0,-49 19,-98 56,-135 37,-37 86,-56 135,-56l585 0c49,0 98,19 135,56 37,37 56,86 56,135z"/>
 <path class="fil26" d="M3317 -20928l324 -96c0,0 -53,180 -219,230l-189 861c-37,13 -72,34 -102,63 -39,39 -64,88 -73,139l-4 1 0 -26 -145 53 407 -1225z"/>
 <path class="fil16" d="M3233 -19933l-39 177 -136 25c9,-51 33,-100 73,-139 30,-30 65,-51 102,-63z"/>
 <polygon class="fil2" points="3054,-19684 3054,-19331 2910,-19384 2910,-19703 3054,-19730 "/>
 <polygon class="fil2" points="3054,-19756 3054,-19730 2910,-19703 "/>
</symbol>
<symbol id="Fm9-40-0" viewBox="23857 -16686 1715 1715">
 <polygon class="fil8" points="25573,-14971 25282,-15076 25161,-15239 25304,-15382 25467,-15261 "/>
 <polygon class="fil19" points="24112,-16606 24699,-16020 24683,-16004 24539,-15860 24524,-15845 23938,-16431 23953,-16447 24097,-16590 "/>
 <polygon class="fil20" points="25204,-15482 25304,-15382 25161,-15239 25061,-15339 "/>
 <polygon class="fil19" points="24683,-16004 25204,-15482 25061,-15339 24539,-15860 "/>
 <polygon class="fil8" points="24001,-16686 24097,-16590 23953,-16447 23922,-16478 23857,-16542 "/>
</symbol>
<symbol id="Fm11-27-0" viewBox="29064 -8462 4724 4830">
 <path class="fil0" d="M33695 -6099c-16,-13 -33,-26 -51,-39 -17,-13 -34,-27 -52,-40 -16,-13 -34,-26 -51,-39 -17,-14 -34,-27 -53,-40 -17,-13 -34,-27 -52,-39 -16,-13 -34,-26 -51,-39 -16,-13 -2674,-2126 -2674,-2126 0,0 -614,756 -1646,1004 34,8 2225,1668 2248,1674 -4,7 -8,13 -12,20 -2,0 -4,1 -5,1 1,0 3,1 4,1 -219,371 -569,700 -826,807 34,-1 1023,740 1783,1323l57 0c815,0 1475,-661 1475,-1475l0 -921c-13,-10 -27,-21 -41,-31 -17,-14 -34,-27 -52,-40z"/>
</symbol>
<symbol id="Fm7-43-0" viewBox="3781 -10945 1335 5900">
 <polygon class="fil23" points="5116,-10839 5116,-9638 4899,-9638 4899,-9805 4948,-9805 4948,-10671 4824,-10671 4824,-10839 "/>
 <polygon class="fil2" points="4970,-6662 4899,-6662 4899,-7121 4970,-7121 "/>
 <path class="fil16" d="M4921 -7691l0 -283 -23 0 0 -249c100,99 162,236 162,387 0,151 -62,289 -162,387l0 -242 23 0z"/>
 <polygon class="fil2" points="4921,-7691 4899,-7691 4899,-7974 4921,-7974 "/>
 <polygon class="fil26" points="4899,-6662 4899,-5368 4513,-5046 4133,-5368 4133,-6662 "/>
 <polygon class="fil2" points="4899,-6662 4133,-6662 4133,-7121 4899,-7121 "/>
 <path class="fil26" d="M4899 -7449l0 328 -766 0 0 -328c98,97 234,157 383,157 150,0 285,-60 383,-157z"/>
 <path class="fil16" d="M4899 -7691l0 242c-98,97 -234,157 -383,157 -149,0 -285,-60 -383,-157l0 -242 766 0z"/>
 <polygon class="fil21" points="4899,-7691 4133,-7691 4133,-7974 4899,-7974 "/>
 <path class="fil16" d="M4899 -8223l0 249 -766 0 0 -249c98,-97 234,-157 383,-157 150,0 285,60 383,157z"/>
 <path class="fil26" d="M4899 -9638l0 1415c-98,-97 -234,-157 -383,-157 -149,0 -285,60 -383,157l0 -1415 766 0z"/>
 <polygon class="fil26" points="4899,-9638 4133,-9638 4133,-9805 4899,-9805 "/>
 <polygon class="fil26" points="4899,-9953 4899,-9805 4133,-9805 4133,-9953 4407,-9953 4407,-9855 4619,-9855 4619,-9953 "/>
 <polygon class="fil16" points="4824,-10588 4619,-10588 4619,-10671 4824,-10671 "/>
 <polygon class="fil16" points="4824,-10839 4824,-10671 4619,-10671 4619,-10684 4407,-10684 4407,-10671 4203,-10671 4203,-10839 "/>
 <polygon class="fil16" points="4824,-10839 4203,-10839 4203,-10945 4824,-10945 "/>
 <polygon class="fil2" points="4619,-9855 4407,-9855 4407,-9953 4619,-9953 "/>
 <polygon class="fil2" points="4619,-9953 4407,-9953 4407,-10588 4619,-10588 "/>
 <polygon class="fil2" points="4619,-10588 4407,-10588 4407,-10671 4619,-10671 "/>
 <polygon class="fil3" points="4619,-10671 4407,-10671 4407,-10684 4619,-10684 "/>
 <polygon class="fil16" points="4407,-10588 4203,-10588 4203,-10671 4407,-10671 "/>
 <polygon class="fil23" points="4203,-10839 4203,-10671 4083,-10671 4083,-9805 4133,-9805 4133,-9638 3915,-9638 3915,-10839 "/>
 <polygon class="fil2" points="4133,-6662 4062,-6662 4062,-7121 4133,-7121 "/>
 <path class="fil16" d="M4133 -7691l0 242c-53,-52 -94,-114 -122,-183l0 -401 -3 0c28,-72 71,-137 125,-191l0 249 -23 0 0 283 23 0z"/>
 <polygon class="fil2" points="4133,-7691 4110,-7691 4110,-7974 4133,-7974 "/>
 <path class="fil16" d="M4011 -8033l0 401c-26,-63 -40,-132 -40,-204 0,-70 13,-136 37,-197l3 0z"/>
 <path class="fil23" d="M4011 -7632l-230 0 0 -401 227 0c-24,61 -37,127 -37,197 0,72 14,141 40,204z"/>
</symbol>
<symbol id="Fm5-37-0" viewBox="12123 -16618 4893 4934">
 <path class="fil0" d="M16976 -14862c-9,-7 -17,-14 -26,-20 -9,-6 -17,-13 -26,-20 -9,-7 -17,-14 -26,-20 -9,-7 -17,-14 -26,-20 -9,-7 -17,-14 -26,-20 -9,-7 -17,-14 -26,-20 -9,-7 -17,-14 -26,-20 -9,-7 -17,-13 -26,-20 -9,-7 -17,-14 -26,-20 -9,-7 -17,-14 -26,-20 -9,-7 -17,-13 -26,-20 -9,-7 -17,-14 -26,-20 -9,-7 -17,-14 -26,-20 -9,-7 -17,-14 -26,-20 -9,-7 -17,-14 -26,-20 -9,-7 -17,-13 -26,-20 -9,-7 -17,-14 -26,-20 -9,-7 -17,-14 -26,-20 -9,-7 -17,-14 -26,-20 -9,-6 -17,-13 -26,-20 -9,-7 -17,-14 -26,-20 -9,-7 -17,-13 -26,-20 -9,-7 -17,-14 -26,-20 -9,-7 -17,-14 -26,-20 -9,-7 -17,-14 -26,-20 -9,-7 -17,-14 -26,-20 -9,-7 -17,-14 -26,-20 -9,-7 -17,-13 -26,-20 -9,-7 -17,-14 -26,-20 -9,-7 -17,-14 -26,-20 -9,-6 -17,-13 -26,-20 -9,-7 -17,-14 -26,-20 -9,-7 -17,-14 -26,-20 -9,-7 -17,-14 -26,-20 -9,-7 -17,-14 -26,-20 -9,-7 -17,-14 -26,-20 -9,-7 -17,-14 -26,-20 -9,-7 -17,-14 -26,-20 -9,-7 -17,-14 -26,-20 -9,-7 -17,-14 -26,-20 -9,-7 -17,-14 -26,-20 -9,-7 -17,-13 -26,-20 -9,-7 -17,-14 -26,-20 -9,-7 -17,-14 -26,-20 -9,-7 -17,-13 -26,-20 -9,-7 -17,-14 -26,-20 -9,-7 -17,-13 -26,-20 -9,-7 -17,-14 -26,-20 -9,-7 -17,-14 -26,-20 -9,-7 -17,-14 -26,-20 -9,-6 -17,-13 -26,-20 -9,-7 -17,-14 -26,-20 -9,-7 -17,-14 -26,-20 -9,-7 -17,-14 -26,-20 -9,-7 -17,-14 -26,-20 -9,-6 -17,-13 -26,-20 -9,-7 -17,-14 -26,-20 -9,-7 -17,-14 -26,-20 -9,-7 -17,-14 -26,-20 -9,-7 -17,-14 -26,-20 -9,-7 -17,-14 -26,-20 -9,-7 -17,-14 -26,-20 -9,-7 -17,-14 -26,-20 -9,-7 -17,-14 -26,-20 -9,-7 -17,-14 -26,-20 -9,-7 -17,-14 -26,-20 -9,-7 -17,-13 -26,-20 -9,-7 -17,-14 -26,-20 -9,-7 -17,-14 -26,-20 -9,-7 -17,-14 -26,-20 -9,-7 -17,-13 -26,-20 -9,-7 -18,-14 -28,-21 -63,-47 -130,-90 -202,-127 -253,-130 -539,-195 -857,-195 -410,0 -760,92 -1047,277 -288,185 -510,450 -666,797 -128,283 -192,581 -192,894 0,281 54,542 162,784 86,191 214,360 383,506 26,23 54,44 82,65 9,7 18,13 26,20 9,7 18,13 26,20 8,7 17,13 26,19 9,7 18,14 27,20 8,7 17,13 26,20 9,7 18,13 26,20 9,7 17,13 26,20 9,7 17,13 26,20 9,7 17,13 26,20 9,7 18,13 26,20 9,7 17,13 26,20 9,7 18,13 27,20 9,7 17,13 26,20 9,7 17,13 26,20 9,7 17,13 26,20 9,7 17,13 26,20 9,7 17,13 26,20 9,7 18,14 27,20 8,7 17,13 25,19 9,7 18,14 27,20 9,7 17,13 26,20 9,7 17,13 26,20 9,7 18,13 26,20 9,7 17,13 26,20 9,7 17,13 26,20 9,7 18,13 26,20 8,7 17,13 26,20 9,7 18,14 27,20 9,7 17,13 26,20 9,7 17,13 26,20 9,7 17,13 26,20 9,7 18,13 26,20 9,7 17,13 26,20 8,7 17,13 26,20 9,7 18,14 27,20 8,7 17,13 26,20 9,7 18,13 26,20 9,7 17,13 26,20 9,7 17,13 26,20 9,7 17,13 26,20 9,7 17,13 26,20 9,7 17,13 26,20 9,7 18,13 26,20 9,7 17,13 26,20 9,7 17,13 26,20 9,7 18,13 26,20 9,7 17,13 26,20 9,7 18,13 26,20 9,7 18,13 26,20 8,7 17,13 26,20 9,7 18,13 26,20 9,7 17,13 26,20 9,7 17,13 26,20 9,7 18,13 26,20 9,7 17,13 26,20 9,7 17,13 26,20 9,7 18,13 27,20 9,7 17,13 26,20 9,7 18,14 27,20 9,7 17,13 26,20 9,7 17,13 26,20 9,7 18,13 26,20 9,7 17,13 26,20 9,7 17,13 26,20 9,7 17,13 26,20 9,7 18,13 26,20 9,7 17,13 26,20 9,7 18,13 26,20 9,7 17,13 26,20 9,7 17,13 26,20 9,7 18,13 26,20 9,7 17,13 26,20 9,7 18,14 27,20 8,7 17,13 26,19 9,7 18,14 27,20 9,7 17,13 26,20 9,7 17,13 26,20 9,7 17,13 26,20 9,7 17,13 26,20 9,7 17,13 26,20 7,6 15,12 23,17l673 0c815,0 1475,-660 1475,-1475l0 -1672c-5,-4 -9,-7 -14,-11 -9,-7 -17,-14 -26,-20z"/>
</symbol>
<symbol id="Fm8-73-0" viewBox="19314 -20595 1332 2516">
 <path class="fil2" d="M20420 -19901c0,-244 -197,-441 -441,-441 -243,0 -441,197 -441,441 0,244 197,441 441,441 244,0 441,-197 441,-441zm-441 -693c391,0 666,190 666,698 0,507 -666,1818 -666,1818 0,0 -666,-1311 -666,-1818 0,-507 275,-698 666,-698z"/>
 <path class="fil6" d="M20167 -19901c0,-104 -84,-188 -188,-188 -104,0 -187,84 -187,188 0,104 84,188 187,188 104,0 188,-84 188,-188zm-188 -441c244,0 441,197 441,441 0,244 -197,441 -441,441 -243,0 -441,-197 -441,-441 0,-244 197,-441 441,-441z"/>
</symbol>
<symbol id="Fm1-60-0" viewBox="3767 -9291 6871 7138">
 <path class="fil1 str0" d="M3837 -5716c0,-1951 1507,-3533 3365,-3533 1858,0 3365,1582 3365,3533 0,1951 -1507,3533 -3365,3533 -1858,0 -3365,-1582 -3365,-3533z"/>
</symbol>
<symbol id="Fm10-43-0" viewBox="2717 -9766 2330 1497">
 <path class="fil2" d="M3329 -8696l-391 0 0 217 391 0 0 -217zm0 217zm1718 -641l0 639c0,116 -95,212 -212,212l-1906 0c-116,0 -212,-95 -212,-212l0 -639 2330 0z"/>
 <polygon class="fil6" points="5047,-9120 2717,-9120 2717,-9437 5047,-9437 "/>
 <path class="fil2" d="M5047 -9554l0 116 -2330 0 0 -116c0,-117 95,-212 212,-212l1906 0c116,0 212,95 212,212z"/>
 <polygon class="fil12" points="3329,-8479 2938,-8479 2938,-8696 3329,-8696 "/>
</symbol>
<symbol id="Fm5-39-0" viewBox="23765 -17439 1612 2569">
 <path class="fil4" d="M25377 -16527c0,199 -106,412 -257,676 -127,222 -110,414 -110,414l-189 0 147 -939 -105 0 -79 165 -60 -165 -73 163 -80 -163 -80 163 -74 -163 -60 165 -79 -165 -105 0 147 939 -189 0c0,0 17,-192 -110,-414 -151,-265 -257,-477 -257,-676 0,-199 24,-913 806,-913 782,0 806,713 806,913z"/>
 <polygon class="fil2" points="24087,-15297 24087,-15436 24132,-15436 24321,-15436 24821,-15436 25010,-15436 25055,-15436 25055,-15020 24971,-15020 24171,-15020 24087,-15020 24087,-15163 "/>
 <polygon class="fil8" points="24971,-14870 24171,-14870 24171,-15020 24971,-15020 "/>
 <polygon class="fil4" points="24968,-16375 24821,-15436 24321,-15436 24174,-16375 24279,-16375 24357,-16210 24418,-16375 24491,-16212 24571,-16375 24651,-16212 24725,-16375 24785,-16210 24863,-16375 "/>
</symbol>
<symbol id="Fm4-30-0" viewBox="11378 -25495 9917 8259">
 <path class="fil2" d="M16568 -18921c0,-128 -104,-232 -232,-232 -128,0 -232,104 -232,232 0,128 104,232 232,232 128,0 232,-104 232,-232zm4727 -489l0 634c0,340 -278,619 -619,619l-3549 0 -1583 0 -3548 0c-340,0 -619,-278 -619,-619l0 -634 9913 0 4 0z"/>
 <path class="fil27" d="M20731 -24845l-8790 0 0 4915 8790 0 0 -4915zm0 4915zm564 -4946l0 5466 -4 0 -9913 0 0 -5466c0,-340 278,-619 619,-619l8680 0c340,0 619,278 619,619z"/>
 <polygon class="fil9" points="20731,-19930 11941,-19930 11941,-24845 20731,-24845 "/>
 <path class="fil2" d="M18025 -17236l-1688 0 -1689 0c681,-278 897,-922 897,-922l1583 0c0,0 217,643 897,922z"/>
 <path class="fil6" d="M16336 -19153c128,0 232,104 232,232 0,128 -104,232 -232,232 -128,0 -232,-104 -232,-232 0,-128 104,-232 232,-232z"/>
</symbol>
<symbol id="Fm7-41-0" viewBox="29765 -15603 4006 3901">
 <path class="fil0" d="M33738 -13589c-8,-7 -17,-14 -26,-20 -8,-7 -17,-14 -26,-20 -8,-7 -17,-14 -26,-20 -8,-7 -17,-14 -26,-20 -8,-7 -17,-14 -26,-20 -8,-7 -17,-14 -26,-20 -8,-7 -17,-14 -26,-20 -9,-7 -17,-14 -27,-20 -8,-7 -17,-14 -26,-20 -8,-7 -17,-14 -26,-20 -8,-7 -17,-14 -26,-20 -8,-7 -17,-14 -26,-20 -8,-7 -17,-14 -26,-20 -8,-7 -17,-14 -26,-20 -8,-7 -17,-14 -26,-20 -8,-7 -17,-14 -26,-20 -8,-7 -17,-14 -26,-20 -8,-7 -17,-14 -26,-20 -8,-7 -17,-14 -26,-20 -8,-7 -17,-14 -26,-20 -8,-7 -17,-14 -26,-20 -8,-7 -17,-14 -26,-20 -8,-7 -17,-14 -26,-20 -8,-7 -17,-14 -26,-20 -8,-7 -17,-14 -26,-20 -8,-7 -17,-14 -26,-20 -8,-7 -17,-14 -26,-20 -8,-7 -17,-14 -26,-20 -8,-7 -17,-14 -26,-20 -9,-7 -17,-14 -26,-20 -8,-7 -17,-14 -26,-20 -8,-7 -17,-14 -26,-20 -8,-7 -17,-14 -26,-20 -8,-7 -17,-14 -26,-20 -8,-7 -17,-14 -26,-20 -8,-7 -17,-14 -26,-20 -8,-7 -17,-14 -26,-20 -9,-7 -17,-14 -26,-20 -8,-7 -17,-14 -26,-20 -8,-7 -17,-14 -26,-20 -8,-7 -17,-14 -26,-20 -8,-7 -17,-14 -26,-20 -8,-7 -17,-14 -26,-20 -8,-7 -17,-14 -26,-20 -8,-7 -17,-14 -26,-20 -8,-7 -17,-14 -26,-20 -8,-7 -17,-14 -26,-20 -8,-7 -17,-14 -26,-20 -8,-7 -17,-14 -26,-20 -8,-7 -17,-14 -26,-20 -8,-7 -17,-14 -26,-20 -8,-7 -17,-14 -26,-20 -9,-7 -17,-14 -26,-20 -8,-7 -17,-14 -26,-20 -8,-7 -17,-14 -26,-20 -8,-7 -17,-14 -26,-20 -8,-7 -17,-14 -26,-20 -9,-7 -17,-14 -26,-20 -8,-7 -17,-14 -26,-20 -8,-7 -17,-14 -26,-20 -8,-7 -17,-14 -26,-20 -8,-7 -17,-14 -26,-20 -8,-7 -17,-14 -26,-20 -9,-7 -17,-14 -26,-20 -8,-7 -17,-14 -26,-20 -8,-7 -17,-14 -26,-20 -8,-7 -17,-14 -26,-20 -8,-7 -17,-14 -26,-20 -9,-7 -17,-14 -27,-20 -8,-7 -17,-14 -26,-20 -8,-7 -17,-14 -26,-20 -8,-7 -17,-14 -26,-20 -8,-7 -17,-14 -26,-20 -8,-7 -17,-14 -26,-20 -9,-7 -17,-14 -26,-20 -8,-7 -17,-14 -26,-20 -8,-7 -17,-14 -26,-20 -8,-7 -17,-14 -26,-20 -8,-7 -17,-14 -26,-20 -9,-7 -17,-14 -26,-20 -8,-7 -17,-14 -26,-20 -8,-7 -17,-14 -26,-20 -8,-7 -17,-14 -26,-20 -8,-7 -17,-14 -26,-20 -8,-7 -17,-14 -26,-20 -8,-7 -17,-14 -26,-20 -8,-7 -17,-14 -26,-20 -8,-7 -17,-14 -26,-20 -8,-7 -17,-14 -26,-20 -8,-7 -17,-14 -26,-20 -8,-7 -17,-14 -26,-20 -8,-7 -17,-14 -26,-20 -8,-7 -17,-14 -26,-20 -8,-7 -17,-14 -26,-20 -8,-7 -17,-14 -26,-20 -8,-7 -17,-14 -26,-20 -8,-7 -17,-14 -26,-20 -71,-60 -169,-83 -264,-83 -327,0 -621,164 -847,378 -73,73 -322,310 -322,412 0,26 20,55 46,67 7,8 16,15 26,20 7,8 16,15 26,20 7,8 16,15 26,20 7,8 16,15 26,20 7,8 16,15 26,20 7,8 16,15 26,20 7,8 16,15 26,20 7,8 16,15 26,20 7,8 16,15 26,20 7,8 16,15 26,20 7,8 16,15 26,20 7,8 16,15 26,20 7,8 16,15 26,20 7,8 16,15 26,20 7,8 16,15 26,20 5,5 10,10 16,14l-139 349c-40,96 -232,559 -232,830 0,121 45,204 120,254 8,7 17,14 26,20 8,7 17,14 26,20 8,7 17,14 26,20 8,7 17,14 26,20 8,7 17,14 26,20 8,7 17,14 26,20 8,7 17,14 26,20 8,7 17,14 26,20 8,7 17,14 26,20 8,7 17,14 26,20 8,7 17,14 26,20 8,7 17,14 26,20 8,7 17,14 26,20 8,7 17,14 26,20 8,7 17,14 26,20 8,7 17,14 26,20 8,7 17,14 26,20 8,7 17,14 26,20 8,7 17,14 26,20 8,7 17,14 26,20 8,7 17,14 26,20 8,7 17,14 26,20 8,7 17,14 26,20 8,7 17,14 26,20 8,7 17,14 26,20 8,7 17,14 26,20 8,7 17,14 26,20 8,7 17,14 26,20 8,7 17,14 26,20 8,7 17,14 26,20 8,7 17,14 26,20 8,7 17,14 26,20 8,7 17,14 26,20 8,7 17,14 26,20 8,7 17,14 26,20 8,7 17,14 26,20 8,7 17,14 26,20 8,7 17,14 26,20 8,7 17,14 26,20 8,7 17,14 26,20 8,7 17,14 26,20 8,7 17,14 26,20 8,7 17,14 26,20 8,7 17,14 26,20 8,7 17,14 26,20 8,7 17,14 26,20 8,7 17,14 26,20 8,7 17,14 26,20 8,7 17,14 26,20 8,7 17,14 26,20 8,7 17,14 26,20 8,7 17,14 26,20 8,7 17,14 26,20 8,7 17,14 26,20 8,7 17,14 26,20 8,7 17,14 26,20 8,7 17,14 26,20 8,7 17,14 26,20 8,7 17,14 26,20 8,7 17,14 26,20 8,7 17,14 26,20 8,7 17,14 26,20 8,7 17,14 26,20 8,7 17,14 26,20 8,7 17,14 26,20 2,2 4,3 7,5l616 0c815,0 1475,-660 1475,-1475l0 -387c-2,-1 -4,-3 -6,-4 -8,-7 -17,-14 -26,-20z"/>
</symbol>
<symbol id="Fm10-25-0" viewBox="11899 -8488 5117 4856">
 <path class="fil0" d="M15872 -8481l-454 99c-9,-12 -124,-104 -161,-106 -84,-6 -94,79 -94,79l0 2 -4 49 -3260 438 293 1659 408 276 5 26 -375 0c0,0 -86,5 -86,88 0,37 275,251 446,378 -83,56 -138,150 -138,258 0,113 60,211 150,266 16,15 33,28 52,39 16,15 33,28 52,39 16,15 33,28 52,39 16,15 33,28 52,40 16,15 33,28 52,39 16,15 33,28 52,39 16,15 33,28 52,39 16,15 33,28 52,39 16,15 33,28 52,39 16,15 33,28 52,39 16,15 33,28 52,40 16,15 33,28 52,39 16,15 33,28 52,40 16,15 33,28 52,39 16,15 33,28 52,39 16,15 33,28 52,40 16,15 33,28 52,39 16,15 33,28 52,39 16,15 33,28 52,39 16,15 33,28 52,39 16,15 33,28 52,39 16,15 33,28 52,39 16,15 33,28 52,39 16,15 33,28 52,39 16,15 33,28 52,39 16,15 33,28 52,40 16,15 33,28 52,39 16,15 33,28 52,39 16,15 33,28 52,39 16,15 33,28 52,39 16,15 33,28 52,39 16,15 33,28 52,40 16,15 33,28 52,39 14,13 29,25 46,35 0,0 443,-1 1022,0 80,0 1550,53 1635,-1475l0 -2521c-602,-450 -1142,-852 -1142,-852l-2 0z"/>
</symbol>
<symbol id="Symbol1" viewBox="16038 -25249 3645 5447">
 <polygon class="fil28" points="19683,-19801 16038,-19801 16038,-25249 19683,-25249 "/>
</symbol>
<symbol id="Fm4-65-0" viewBox="4888 -17006 3548 3548">
 <path class="fil29" d="M7174 -16231c-34,-147 -140,-301 -511,-301 -331,0 -452,123 -498,254 -19,55 -26,112 -29,162 -5,78 -6,223 -5,362l-1 0c0,0 -169,-134 -176,0 -6,134 29,419 187,419 14,98 59,287 202,406l0 108 -802 270 0 695c-398,-325 -652,-820 -652,-1374 0,-980 794,-1774 1774,-1774 980,0 1774,794 1774,1774 0,554 -254,1049 -652,1374l0 -695 -802 -270 0 -108c143,-119 187,-308 202,-406 158,0 194,-285 187,-419 -6,-134 -175,0 -175,0l-1 0c1,-139 1,-284 -5,-362 -3,-35 -6,-75 -16,-115z"/>
 <path class="fil6" d="M7785 -14552l0 695 0 1c-306,250 -696,400 -1122,400 -426,0 -816,-150 -1122,-400l0 -1 0 -695 802 -270 0 444 320 138 320 -138 0 -444 802 270z"/>
 <path class="fil2" d="M7371 -15754c7,134 -29,419 -187,419 5,-39 6,-64 6,-64 0,0 4,-173 5,-355l1 0c0,0 169,-134 175,0z"/>
 <path class="fil2" d="M7190 -16116c5,78 6,223 5,362 -1,182 -5,355 -5,355 0,0 -1,25 -6,64 -15,98 -59,287 -202,406 -33,27 -71,51 -115,69l-204 -69 -205 69c-44,-17 -82,-41 -115,-69 -143,-119 -187,-308 -202,-406 -5,-39 -6,-64 -6,-64 0,0 -4,-173 -5,-355 -1,-139 -1,-284 5,-362 3,-50 10,-107 29,-162 0,0 182,259 484,343l-53 -146c14,5 260,101 579,-149 10,40 13,79 16,115z"/>
 <path class="fil30" d="M6595 -16082l53 146c-302,-84 -484,-343 -484,-343 46,-131 167,-254 498,-254 371,0 477,154 511,301 -319,250 -565,154 -579,149z"/>
 <path class="fil2" d="M6982 -14822l0 444 -320 138 -320 -138 0 -444 115 -39c57,25 125,39 205,39 79,0 147,-14 204,-39l115 39z"/>
 <path class="fil2" d="M6663 -14929l204 69c-57,25 -125,39 -204,39 -79,0 -147,-14 -205,-39l205 -69z"/>
 <path class="fil2" d="M6135 -15399c0,0 1,25 6,64 -158,0 -194,-285 -187,-419 7,-134 176,0 176,0l1 0c1,182 5,355 5,355z"/>
</symbol>
<symbol id="Fm1-30-0" viewBox="2488 -20557 6979 7270">
 <path class="fil1 str0" d="M2559 -16937c0,-1982 1531,-3589 3419,-3589 1888,0 3419,1607 3419,3589 0,1982 -1531,3589 -3419,3589 -1888,0 -3419,-1607 -3419,-3589z"/>
</symbol>
<symbol id="Fm9-75-0" viewBox="5265 -10119 4610 5545">
 <path class="fil6" d="M8319 -9155c164,-164 429,-164 592,0 163,163 163,428 0,592l-592 -592z"/>
 <polygon class="fil12" points="8911,-8563 9875,-7599 9356,-7080 9027,-7409 7168,-9267 6836,-9599 7356,-10119 8319,-9155 "/>
 <polygon class="fil2" points="7168,-9267 9027,-7409 7946,-6809 7140,-6004 5763,-7381 6569,-8186 "/>
 <path class="fil21" d="M7003 -5866l-76 76c-125,125 -274,208 -433,251 -325,89 -688,5 -944,-251 -380,-380 -380,-997 0,-1377l213 -213 1377 1377 -138 138z"/>
 <path class="fil6" d="M7003 -5866l890 1138 -155 155 -1244 -966 0 -1c159,-43 309,-126 433,-251l76 -76z"/>
</symbol>
<symbol id="Fm7-71-0" viewBox="21536 -16087 2392 2392">
 <path class="fil9" d="M21775 -14493l280 0c-22,-101 -35,-208 -40,-319l-317 0c9,113 35,219 76,319zm280 -797l-280 0c-41,99 -68,206 -76,319l317 0c5,-111 18,-219 40,-319zm230 1334c-78,-102 -142,-231 -189,-377l-238 0c103,162 251,293 427,377zm-188 -1493c46,-146 110,-275 188,-377 -175,83 -323,215 -427,377l239 0zm555 0l0 -468c-164,44 -305,220 -391,468l391 0zm0 479l0 -319 -436 0c-22,99 -37,206 -41,319l477 0zm0 478l0 -319 -477 0c5,113 19,219 41,319l436 0zm0 628l0 -468 -391 0c86,248 227,424 391,468zm549 -468l-391 0 0 468c165,-44 305,-220 391,-468zm-391 -1117l391 0c-86,-248 -226,-424 -391,-468l0 468zm477 638l-477 0 0 319 436 0c23,-100 37,-206 41,-319zm-477 -159l477 0c-5,-113 -18,-220 -41,-319l-436 0 0 319zm794 638l-238 0c-47,146 -112,274 -189,377 175,-83 323,-215 427,-377zm-238 -1117l238 0c-104,-162 -251,-293 -427,-377 78,102 142,231 189,377zm397 638l-317 0c-5,111 -18,218 -40,319l280 0c41,-100 68,-206 76,-319zm-317 -159l317 0c-8,-113 -35,-220 -76,-319l-280 0c22,100 35,208 40,319zm480 0l0 159 -3 0c-39,597 -516,1074 -1114,1113l0 3 -159 0 0 -3c-597,-39 -1074,-516 -1114,-1113l-2 0 0 -159 2 0c40,-597 517,-1074 1114,-1114l0 -2 159 0 0 2c597,40 1075,517 1114,1114l3 0z"/>
</symbol>
<symbol id="Fm2-55-0" viewBox="17132 -10625 9228 9682">
 <path class="fil31 str2" d="M17185 -5784c0,-2644 2042,-4788 4561,-4788 2519,0 4561,2144 4561,4788 0,2644 -2042,4788 -4561,4788 -2519,0 -4561,-2144 -4561,-4788z"/>
 <path class="fil31 str3" d="M17951 -5784c0,-2201 1699,-3985 3796,-3985 2096,0 3796,1784 3796,3985 0,2201 -1699,3985 -3796,3985 -2096,0 -3796,-1784 -3796,-3985z"/>
 <path class="fil31 str2" d="M18827 -5784c0,-1692 1307,-3064 2919,-3064 1612,0 2919,1372 2919,3064 0,1692 -1307,3064 -2919,3064 -1612,0 -2919,-1372 -2919,-3064z"/>
</symbol>
<symbol id="Fm3-63-0" viewBox="3106 -10014 8193 8596">
 <path class="fil31 str2" d="M3159 -5716c0,-2344 1810,-4245 4044,-4245 2233,0 4044,1901 4044,4245 0,2344 -1810,4245 -4044,4245 -2233,0 -4044,-1900 -4044,-4245z"/>
 <path class="fil31 str3" d="M3837 -5716c0,-1951 1507,-3533 3365,-3533 1858,0 3365,1582 3365,3533 0,1951 -1507,3533 -3365,3533 -1858,0 -3365,-1582 -3365,-3533z"/>
 <path class="fil31 str2" d="M4615 -5716c0,-1500 1159,-2717 2588,-2717 1429,0 2588,1216 2588,2717 0,1500 -1159,2717 -2588,2717 -1429,0 -2588,-1216 -2588,-2717z"/>
</symbol>
<symbol id="Fm1-41-0" viewBox="18914 -21227 8177 8579">
 <path class="fil31 str2" d="M18967 -16937c0,-2340 1807,-4237 4036,-4237 2229,0 4036,1897 4036,4237 0,2340 -1807,4237 -4036,4237 -2229,0 -4036,-1897 -4036,-4237z"/>
 <path class="fil31 str3" d="M19644 -16937c0,-1947 1504,-3526 3359,-3526 1855,0 3359,1579 3359,3526 0,1947 -1504,3526 -3359,3526 -1855,0 -3359,-1579 -3359,-3526z"/>
 <path class="fil31 str2" d="M20419 -16937c0,-1498 1156,-2712 2583,-2712 1427,0 2583,1214 2583,2712 0,1498 -1156,2712 -2583,2712 -1426,0 -2583,-1214 -2583,-2712z"/>
</symbol>
<symbol id="Fm0-33-0" viewBox="1816 -21303 8322 8732">
 <path class="fil31 str2" d="M1869 -16937c0,-2382 1839,-4313 4108,-4313 2269,0 4108,1931 4108,4313 0,2382 -1839,4313 -4108,4313 -2269,0 -4108,-1931 -4108,-4313z"/>
 <path class="fil31 str3" d="M2559 -16937c0,-1982 1531,-3589 3419,-3589 1888,0 3419,1607 3419,3589 0,1982 -1531,3589 -3419,3589 -1888,0 -3419,-1607 -3419,-3589z"/>
 <path class="fil31 str2" d="M3348 -16937c0,-1525 1177,-2760 2629,-2760 1452,0 2629,1236 2629,2760 0,1525 -1177,2760 -2629,2760 -1452,0 -2629,-1236 -2629,-2760z"/>
</symbol>
 <g id="Layer_x0020_1">
  <metadata id="CorelCorpID_0Corel-Layer"/>
  <g id="_896394448">
   <rect class="fil32" x="51" y="52" width="456" height="403"/>
   <rect class="fil33" x="288" y="52" width="219" height="403"/>
   <path class="fil34" d="M51 456l456 0 0 -403 -456 0 0 403zm460 22l-464 0c-10,0 -18,-8 -18,-18l0 -411c0,-10 8,-18 18,-18l464 0c10,0 18,8 18,18l0 411c0,10 -8,18 -18,18z"/>
   <path class="fil34" d="M357 117c-23,-22 -54,-33 -86,-30 -56,4 -101,49 -106,105 -3,34 10,67 35,91 15,15 23,34 23,54 0,0 0,0 0,0l0 32c0,11 8,20 18,23 4,17 19,31 38,31 19,0 34,-13 38,-31 10,-3 18,-12 18,-23l0 -32c0,0 0,0 0,0 0,0 0,0 0,0 0,-20 8,-39 23,-53 23,-22 36,-51 36,-83 0,-32 -13,-62 -36,-84z"/>
   <path class="fil35" d="M317 368c0,3 -2,6 -6,6l-65 0c-3,0 -6,-2 -6,-6l0 -23 76 0 0 23z"/>
   <path class="fil36" d="M279 404c-8,0 -16,-5 -19,-12l38 0c-3,7 -11,12 -19,12z"/>
   <path class="fil37" d="M346 270c-16,15 -26,35 -28,57l-77 0c-2,-22 -12,-42 -28,-58 -21,-20 -31,-48 -29,-77 3,-47 42,-85 89,-89 27,-2 53,7 73,26 20,18 31,44 31,71 0,27 -11,51 -30,70z"/>
   <path class="fil38" d="M346 270c-16,15 -26,35 -28,57l-38 0 0 -223c26,0 50,11 66,26 20,18 31,44 31,71 0,27 -11,51 -30,70z"/>
   <path class="fil34" d="M244 123c-28,13 -47,40 -49,71 0,5 3,9 8,10 0,0 0,0 1,0 5,0 9,-4 9,-8 2,-24 17,-46 39,-56 4,-2 6,-7 4,-12 -2,-4 -7,-6 -12,-4z"/>
   <path class="fil34" d="M268 117c-4,0 -7,3 -7,7 0,4 3,7 7,7 4,0 7,-3 7,-7 0,-4 -3,-7 -7,-7z"/>
   <path class="fil39" d="M529 55l-499 0c-12,0 -23,-10 -23,-23 0,-12 10,-23 23,-23l499 0c12,0 23,10 23,23 0,12 -10,23 -23,23z"/>
   <path class="fil34" d="M529 64l-499 0c-9,0 -17,-4 -23,-9l0 0c-6,-6 -9,-14 -9,-23 0,-9 4,-17 9,-23l0 0c6,-6 14,-9 23,-9l499 0c9,0 17,4 23,9l0 0 0 0c6,6 9,14 9,23 0,9 -4,17 -9,23l0 0c-6,6 -14,9 -23,9zm-499 -19l499 0c4,0 7,-1 9,-4 2,-2 4,-6 4,-9 0,-4 -1,-7 -4,-9l0 0c-2,-2 -6,-4 -9,-4l-499 0c-4,0 -7,1 -9,4 -2,2 -4,6 -4,9 0,4 1,7 4,9l0 0c2,2 6,4 9,4z"/>
   <path class="fil39" d="M529 499l-499 0c-12,0 -23,-10 -23,-23 0,-12 10,-23 23,-23l499 0c12,0 23,10 23,23 0,12 -10,23 -23,23z"/>
   <path class="fil34" d="M529 508l-499 0c-9,0 -17,-4 -23,-9l0 0c-6,-6 -9,-14 -9,-23 0,-9 4,-17 9,-23l0 0c6,-6 14,-9 23,-9l499 0c9,0 17,4 23,9 6,6 9,14 9,23 0,9 -4,17 -9,23l0 0c-6,6 -14,9 -23,9zm-499 -19l499 0c4,0 7,-1 9,-4 2,-2 4,-6 4,-9 0,-4 -1,-7 -4,-9 -2,-2 -6,-4 -9,-4l-499 0c-4,0 -7,1 -9,4l0 0c-2,2 -4,6 -4,9 0,4 1,7 4,9l0 0c2,2 6,4 9,4z"/>
  </g>
 </g>
</svg>
