<?xml version="1.0" encoding="UTF-8"?>
<!DOCTYPE svg PUBLIC "-//W3C//DTD SVG 1.1//EN" "http://www.w3.org/Graphics/SVG/1.1/DTD/svg11.dtd">
<!-- Creator: CorelDRAW X6 -->
<svg xmlns="http://www.w3.org/2000/svg" xml:space="preserve" width="122.767mm" height="25.4mm" version="1.1" style="shape-rendering:geometricPrecision; text-rendering:geometricPrecision; image-rendering:optimizeQuality; fill-rule:evenodd; clip-rule:evenodd"
viewBox="0 0 12277 2540"
 xmlns:xlink="http://www.w3.org/1999/xlink">
 <defs>
  <style type="text/css">
   <![CDATA[
    .str2 {stroke:#302D2D;stroke-width:105.83;stroke-linecap:round;stroke-linejoin:round;stroke-opacity:0.200000}
    .str0 {stroke:#302D2D;stroke-width:105.83;stroke-linecap:round;stroke-linejoin:round}
    .str3 {stroke:#302D2D;stroke-width:141.11;stroke-linecap:round;stroke-linejoin:round;stroke-dasharray:423.300000 1100.580000;stroke-opacity:0.200000}
    .str1 {stroke:#302D2D;stroke-width:141.11;stroke-linecap:round;stroke-linejoin:round;stroke-dasharray:423.300000 1100.580000}
    .fil13 {fill:none;fill-rule:nonzero}
    .fil31 {fill:none;fill-rule:nonzero}
    .fil33 {fill:#88C29C;fill-rule:nonzero}
    .fil32 {fill:#953543;fill-rule:nonzero}
    .fil37 {fill:#BC6384;fill-rule:nonzero}
    .fil34 {fill:#C04B5A;fill-rule:nonzero}
    .fil15 {fill:#00D9CE;fill-rule:nonzero}
    .fil9 {fill:#04C4D5;fill-rule:nonzero}
    .fil16 {fill:#231F20;fill-rule:nonzero}
    .fil19 {fill:#297391;fill-rule:nonzero}
    .fil22 {fill:#302D2D;fill-rule:nonzero}
    .fil28 {fill:#474747;fill-rule:nonzero}
    .fil18 {fill:#4C4949;fill-rule:nonzero}
    .fil23 {fill:#4C4C4C;fill-rule:nonzero}
    .fil8 {fill:#523C60;fill-rule:nonzero}
    .fil24 {fill:#633900;fill-rule:nonzero}
    .fil27 {fill:#645B75;fill-rule:nonzero}
    .fil6 {fill:#666666;fill-rule:nonzero}
    .fil14 {fill:#697271;fill-rule:nonzero}
    .fil1 {fill:#6DAF75;fill-rule:nonzero}
    .fil11 {fill:#70DDE0;fill-rule:nonzero}
    .fil21 {fill:#71BDC1;fill-rule:nonzero}
    .fil29 {fill:#86CBED;fill-rule:nonzero}
    .fil7 {fill:#92E1B5;fill-rule:nonzero}
    .fil12 {fill:#A0804D;fill-rule:nonzero}
    .fil26 {fill:#A391C3;fill-rule:nonzero}
    .fil17 {fill:#C94C27;fill-rule:nonzero}
    .fil4 {fill:lightgrey;fill-rule:nonzero}
    .fil25 {fill:#E8CF69;fill-rule:nonzero}
    .fil10 {fill:#EBB167;fill-rule:nonzero}
    .fil5 {fill:#EE7046;fill-rule:nonzero}
    .fil2 {fill:#F15A24;fill-rule:nonzero}
    .fil30 {fill:#F2D0D3;fill-rule:nonzero}
    .fil3 {fill:whitesmoke;fill-rule:nonzero}
    .fil0 {fill:#FBB03B;fill-rule:nonzero}
    .fil20 {fill:#FBD260;fill-rule:nonzero}
    .fil36 {fill:#A0CDC8;fill-rule:nonzero}
    .fil35 {fill:#B9C8D7;fill-rule:nonzero}
   ]]>
  </style>
 </defs>
<symbol id="Fm9-47-0" viewBox="13358 -21337 3157 4066">
 <path class="fil0" d="M16077 -19807l-1521 0 0 1008 1521 0 0 -1008zm0 1008zm438 1528l-2358 0 0 -4066 2358 0 0 4066z"/>
 <polygon class="fil1" points="16077,-18799 14556,-18799 14556,-19807 16077,-19807 "/>
 <polygon class="fil2" points="14157,-21337 14157,-17271 13557,-17271 13557,-17775 13747,-17775 13747,-18022 13557,-18022 13557,-18336 13747,-18336 13747,-18584 13557,-18584 13557,-18898 13747,-18898 13747,-19146 13557,-19146 13557,-19460 13747,-19460 13747,-19708 13557,-19708 13557,-20022 13747,-20022 13747,-20270 13557,-20270 13557,-20584 13747,-20584 13747,-20832 13557,-20832 13557,-21337 "/>
 <polygon class="fil3" points="13747,-17775 13557,-17775 13557,-18022 13747,-18022 "/>
 <polygon class="fil3" points="13747,-18336 13557,-18336 13557,-18584 13747,-18584 "/>
 <polygon class="fil3" points="13747,-18898 13557,-18898 13557,-19146 13747,-19146 "/>
 <polygon class="fil3" points="13747,-19460 13557,-19460 13557,-19708 13747,-19708 "/>
 <polygon class="fil3" points="13747,-20022 13557,-20022 13557,-20270 13747,-20270 "/>
 <polygon class="fil3" points="13747,-20584 13557,-20584 13557,-20832 13747,-20832 "/>
 <polygon class="fil3" points="13557,-17775 13358,-17775 13358,-18022 13557,-18022 "/>
 <polygon class="fil3" points="13557,-18336 13358,-18336 13358,-18584 13557,-18584 "/>
 <polygon class="fil3" points="13557,-18898 13358,-18898 13358,-19146 13557,-19146 "/>
 <polygon class="fil3" points="13557,-19460 13358,-19460 13358,-19708 13557,-19708 "/>
 <polygon class="fil3" points="13557,-20022 13358,-20022 13358,-20270 13557,-20270 "/>
 <polygon class="fil3" points="13557,-20584 13358,-20584 13358,-20832 13557,-20832 "/>
</symbol>
<symbol id="Fm6-41-0" viewBox="29911 -16224 693 693">
 <path class="fil4" d="M29911 -15877c0,-192 155,-347 347,-347 191,0 347,155 347,347 0,191 -155,347 -347,347 -192,0 -347,-155 -347,-347z"/>
</symbol>
<symbol id="Fm3-35-0" viewBox="9975 -16005 3009 4004">
 <polygon class="fil3" points="12984,-15612 12984,-12166 12722,-12166 12722,-13585 12722,-13889 12722,-14175 12722,-15612 "/>
 <path class="fil5" d="M12722 -12166l0 165 -2747 0 0 -1888 1097 0c53,150 175,303 448,303l1203 0 0 1420z"/>
 <path class="fil6" d="M12722 -13889l0 303 -1203 0c-273,0 -395,-153 -448,-303l1651 0z"/>
 <path class="fil6" d="M12722 -14175l0 286 -1651 0c-51,-144 -40,-286 -40,-286l1691 0z"/>
 <path class="fil7" d="M12722 -15612l0 1437 -1691 0c0,0 -12,141 40,286l-1097 0 0 -1888 386 0 0 991 296 -167 296 167 0 -991 1769 0 0 165z"/>
 <path class="fil8" d="M10761 -15256l104 -101 -144 -21 -65 -130 -64 130 -144 21 104 101 -24 144 129 -68 129 68 -25 -144zm192 -521l0 991 -296 -167 -296 167 0 -991 592 0z"/>
 <polygon class="fil8" points="10953,-15777 10361,-15777 10361,-16005 10953,-16005 "/>
 <polygon class="fil3" points="10865,-15358 10761,-15256 10786,-15113 10657,-15181 10528,-15113 10553,-15256 10449,-15358 10593,-15379 10657,-15509 10721,-15379 "/>
</symbol>
<symbol id="Fm10-27-0" viewBox="8769 -20008 3378 1978">
 <polygon class="fil3" points="12147,-18687 12147,-18368 12002,-18315 12002,-18668 12002,-18714 "/>
 <path class="fil8" d="M11739 -19912l407 1225 -145 -53 0 26 -4 -1c-9,-51 -33,-100 -73,-139 -30,-30 -65,-51 -102,-63l-189 -861c-167,-50 -219,-230 -219,-230l324 96z"/>
 <polygon class="fil3" points="12147,-18687 12002,-18714 12002,-18740 "/>
 <path class="fil5" d="M11820 -18345l0 -272c0,-49 -19,-98 -56,-135 -37,-37 -86,-56 -135,-56l-585 0c-49,0 -98,19 -135,56 -37,37 -56,86 -56,135l0 81c0,98 37,195 112,270 75,74 172,112 270,112l394 0c49,0 98,-19 135,-56 37,-37 56,-86 56,-135zm183 29l0 22c0,67 -26,135 -77,186 -52,51 -119,77 -186,77l-543 0c-135,0 -269,-51 -372,-154 -103,-103 -154,-237 -154,-372l0 -109c14,11 21,19 21,19l0 -124c13,-30 32,-59 56,-84 51,-51 119,-77 186,-77l806 0c28,0 57,5 84,14l39 177 136 25c3,15 4,31 4,47l0 353z"/>
 <path class="fil5" d="M11998 -18715l-136 -25 -39 -177c37,12 72,34 102,63 39,39 64,88 73,139z"/>
 <path class="fil9" d="M11820 -18616l0 272c0,49 -19,98 -56,135 -37,37 -86,56 -135,56l-394 0c-98,0 -195,-37 -270,-112 -74,-75 -112,-172 -112,-270l0 -81c0,-49 19,-98 56,-135 37,-37 86,-56 135,-56l585 0c49,0 98,19 135,56 37,37 56,86 56,135z"/>
 <path class="fil3" d="M10691 -18770l0 124c0,0 -7,-8 -21,-19l0 -3c0,-35 7,-70 21,-102z"/>
 <path class="fil10" d="M10691 -18772l0 2c-14,33 -21,67 -21,102l0 3c-35,-29 -111,-80 -213,-80 -101,0 -177,50 -212,79l0 -2c0,-35 -7,-71 -22,-104 0,0 93,-99 234,-99 141,0 234,99 234,99z"/>
 <path class="fil5" d="M10062 -18536l0 -81c0,-49 -18,-98 -56,-135 -37,-37 -86,-56 -135,-56l-585 0c-49,0 -98,19 -135,56 -37,37 -56,86 -56,135l0 272c0,49 19,98 56,135 37,37 86,56 135,56l394 0c98,0 195,-37 270,-112 75,-75 112,-172 112,-270zm183 -131l0 110c0,135 -52,269 -154,372 -103,102 -237,154 -372,154l-543 0c-67,0 -135,-26 -186,-77 -51,-52 -77,-119 -77,-186l0 -22 0 -353c0,-16 1,-31 4,-47l136 -25 39 -177c27,-9 55,-14 84,-14l806 0c67,0 134,26 186,77 24,24 43,52 55,82l0 125c0,0 8,-8 22,-19z"/>
 <path class="fil3" d="M10245 -18668l0 2c-14,12 -22,19 -22,19l0 -125c14,33 22,68 22,104z"/>
 <path class="fil9" d="M10062 -18616l0 81c0,98 -37,195 -112,270 -74,74 -172,112 -270,112l-394 0c-49,0 -98,-19 -135,-56 -37,-37 -56,-86 -56,-135l0 -272c0,-49 19,-98 56,-135 37,-37 86,-56 135,-56l585 0c49,0 98,19 135,56 37,37 56,86 56,135z"/>
 <path class="fil8" d="M9176 -19912l324 -96c0,0 -53,180 -219,230l-189 861c-37,13 -72,34 -102,63 -39,39 -64,88 -73,139l-4 1 0 -26 -145 53 407 -1225z"/>
 <path class="fil5" d="M9092 -18917l-39 177 -136 25c9,-51 33,-100 73,-139 30,-30 65,-51 102,-63z"/>
 <polygon class="fil3" points="8913,-18668 8913,-18315 8769,-18368 8769,-18687 8913,-18714 "/>
 <polygon class="fil3" points="8913,-18740 8913,-18714 8769,-18687 "/>
</symbol>
<symbol id="Fm5-32-0" viewBox="18411 -11418 1004 2024">
 <path class="fil3" d="M19416 -10640l0 894c0,194 -159,353 -353,353l-299 0c-194,0 -353,-159 -353,-353l0 -894 502 0 502 0z"/>
 <path class="fil9" d="M19416 -11065l0 425 -502 0 0 -778 149 0c194,0 353,159 353,353z"/>
 <path class="fil9" d="M18914 -11418l0 778 -502 0 0 -425c0,-194 159,-353 353,-353l150 0z"/>
</symbol>
<symbol id="Fm4-65-0" viewBox="10747 -15990 3548 3548">
 <path class="fil11" d="M13033 -15215c-34,-147 -140,-301 -511,-301 -331,0 -452,123 -498,254 -19,55 -26,112 -29,162 -5,78 -6,223 -5,362l-1 0c0,0 -169,-134 -176,0 -6,134 29,419 187,419 14,98 59,287 202,406l0 108 -802 270 0 695c-398,-325 -652,-820 -652,-1374 0,-980 794,-1774 1774,-1774 980,0 1774,794 1774,1774 0,554 -254,1049 -652,1374l0 -695 -802 -270 0 -108c143,-119 187,-308 202,-406 158,0 194,-285 187,-419 -6,-134 -175,0 -175,0l-1 0c1,-139 1,-284 -5,-362 -3,-35 -6,-75 -16,-115z"/>
 <path class="fil2" d="M13644 -13536l0 695 0 1c-306,250 -696,400 -1122,400 -426,0 -816,-150 -1122,-400l0 -1 0 -695 802 -270 0 444 320 138 320 -138 0 -444 802 270z"/>
 <path class="fil3" d="M13230 -14738c7,134 -29,419 -187,419 5,-39 6,-64 6,-64 0,0 4,-173 5,-355l1 0c0,0 169,-134 175,0z"/>
 <path class="fil3" d="M13049 -15100c5,78 6,223 5,362 -1,182 -5,355 -5,355 0,0 -1,25 -6,64 -15,98 -59,287 -202,406 -33,27 -71,51 -115,69l-204 -69 -205 69c-44,-17 -82,-41 -115,-69 -143,-119 -187,-308 -202,-406 -5,-39 -6,-64 -6,-64 0,0 -4,-173 -5,-355 -1,-139 -1,-284 5,-362 3,-50 10,-107 29,-162 0,0 182,259 484,343l-53 -146c14,5 260,101 579,-149 10,40 13,79 16,115z"/>
 <path class="fil12" d="M12454 -15066l53 146c-302,-84 -484,-343 -484,-343 46,-131 167,-254 498,-254 371,0 477,154 511,301 -319,250 -565,154 -579,149z"/>
 <path class="fil3" d="M12841 -13806l0 444 -320 138 -320 -138 0 -444 115 -39c57,25 125,39 205,39 79,0 147,-14 204,-39l115 39z"/>
 <path class="fil3" d="M12522 -13913l204 69c-57,25 -125,39 -204,39 -79,0 -147,-14 -205,-39l205 -69z"/>
 <path class="fil3" d="M11994 -14383c0,0 1,25 6,64 -158,0 -194,-285 -187,-419 7,-134 176,0 176,0l1 0c1,182 5,355 5,355z"/>
</symbol>
<symbol id="Fm0-58-0" viewBox="8965 -8998 8193 8596">
 <path class="fil13 str0" d="M9018 -4700c0,-2344 1810,-4245 4044,-4245 2233,0 4044,1901 4044,4245 0,2344 -1810,4245 -4044,4245 -2233,0 -4044,-1900 -4044,-4245z"/>
</symbol>
<symbol id="Fm0-36-0" viewBox="24773 -20211 8177 8579">
 <path class="fil13 str0" d="M24826 -15921c0,-2340 1807,-4237 4036,-4237 2229,0 4036,1897 4036,4237 0,2340 -1807,4237 -4036,4237 -2229,0 -4036,-1897 -4036,-4237z"/>
</symbol>
<symbol id="Fm5-39-0" viewBox="29624 -16423 1612 2569">
 <path class="fil0" d="M31236 -15511c0,199 -106,412 -257,676 -127,222 -110,414 -110,414l-189 0 147 -939 -105 0 -79 165 -60 -165 -73 163 -80 -163 -80 163 -74 -163 -60 165 -79 -165 -105 0 147 939 -189 0c0,0 17,-192 -110,-414 -151,-265 -257,-477 -257,-676 0,-199 24,-913 806,-913 782,0 806,713 806,913z"/>
 <polygon class="fil3" points="29946,-14281 29946,-14420 29991,-14420 30180,-14420 30680,-14420 30869,-14420 30914,-14420 30914,-14004 30830,-14004 30030,-14004 29946,-14004 29946,-14147 "/>
 <polygon class="fil14" points="30830,-13854 30030,-13854 30030,-14004 30830,-14004 "/>
 <polygon class="fil0" points="30827,-15359 30680,-14420 30180,-14420 30033,-15359 30138,-15359 30216,-15194 30276,-15359 30350,-15196 30430,-15359 30510,-15196 30583,-15359 30644,-15194 30722,-15359 "/>
</symbol>
<symbol id="Fm2-54-0" viewBox="24633 -7885 5944 6235">
 <path class="fil13 str0" d="M24686 -4768c0,-1692 1307,-3064 2919,-3064 1612,0 2919,1372 2919,3064 0,1692 -1307,3064 -2919,3064 -1612,0 -2919,-1372 -2919,-3064z"/>
</symbol>
<symbol id="Fm1-52-0" viewBox="23739 -8823 7732 8110">
 <path class="fil13 str1" d="M23809 -4768c0,-2201 1699,-3985 3796,-3985 2096,0 3796,1784 3796,3985 0,2201 -1699,3985 -3796,3985 -2096,0 -3796,-1784 -3796,-3985z"/>
</symbol>
<symbol id="Fm0-50-0" viewBox="22991 -9609 9228 9682">
 <path class="fil13 str0" d="M23044 -4768c0,-2644 2042,-4788 4561,-4788 2519,0 4561,2144 4561,4788 0,2644 -2042,4788 -4561,4788 -2519,0 -4561,-2144 -4561,-4788z"/>
</symbol>
<symbol id="Fm7-43-0" viewBox="9640 -9929 1335 5900">
 <polygon class="fil7" points="10975,-9823 10975,-8622 10758,-8622 10758,-8789 10807,-8789 10807,-9655 10682,-9655 10682,-9823 "/>
 <polygon class="fil3" points="10828,-5646 10758,-5646 10758,-6105 10828,-6105 "/>
 <path class="fil5" d="M10780 -6675l0 -283 -23 0 0 -249c100,99 162,236 162,387 0,151 -62,289 -162,387l0 -242 23 0z"/>
 <polygon class="fil3" points="10780,-6675 10758,-6675 10758,-6958 10780,-6958 "/>
 <polygon class="fil8" points="10758,-5646 10758,-4352 10372,-4030 9992,-4352 9992,-5646 "/>
 <polygon class="fil3" points="10758,-5646 9992,-5646 9992,-6105 10758,-6105 "/>
 <path class="fil8" d="M10758 -6433l0 328 -766 0 0 -328c98,97 234,157 383,157 150,0 285,-60 383,-157z"/>
 <path class="fil5" d="M10758 -6675l0 242c-98,97 -234,157 -383,157 -149,0 -285,-60 -383,-157l0 -242 766 0z"/>
 <polygon class="fil15" points="10758,-6675 9992,-6675 9992,-6958 10758,-6958 "/>
 <path class="fil5" d="M10758 -7207l0 249 -766 0 0 -249c98,-97 234,-157 383,-157 150,0 285,60 383,157z"/>
 <path class="fil8" d="M10758 -8622l0 1415c-98,-97 -234,-157 -383,-157 -149,0 -285,60 -383,157l0 -1415 766 0z"/>
 <polygon class="fil8" points="10758,-8622 9992,-8622 9992,-8789 10758,-8789 "/>
 <polygon class="fil8" points="10758,-8937 10758,-8789 9992,-8789 9992,-8937 10266,-8937 10266,-8839 10478,-8839 10478,-8937 "/>
 <polygon class="fil5" points="10682,-9572 10478,-9572 10478,-9655 10682,-9655 "/>
 <polygon class="fil5" points="10682,-9823 10682,-9655 10478,-9655 10478,-9668 10266,-9668 10266,-9655 10062,-9655 10062,-9823 "/>
 <polygon class="fil5" points="10682,-9823 10062,-9823 10062,-9929 10682,-9929 "/>
 <polygon class="fil3" points="10478,-8839 10266,-8839 10266,-8937 10478,-8937 "/>
 <polygon class="fil3" points="10478,-8937 10266,-8937 10266,-9572 10478,-9572 "/>
 <polygon class="fil3" points="10478,-9572 10266,-9572 10266,-9655 10478,-9655 "/>
 <polygon class="fil10" points="10478,-9655 10266,-9655 10266,-9668 10478,-9668 "/>
 <polygon class="fil5" points="10266,-9572 10062,-9572 10062,-9655 10266,-9655 "/>
 <polygon class="fil7" points="10062,-9823 10062,-9655 9942,-9655 9942,-8789 9992,-8789 9992,-8622 9774,-8622 9774,-9823 "/>
 <polygon class="fil3" points="9992,-5646 9920,-5646 9920,-6105 9992,-6105 "/>
 <path class="fil5" d="M9992 -6675l0 242c-53,-52 -94,-114 -122,-183l0 -401 -3 0c28,-72 71,-137 125,-191l0 249 -23 0 0 283 23 0z"/>
 <polygon class="fil3" points="9992,-6675 9969,-6675 9969,-6958 9992,-6958 "/>
 <path class="fil5" d="M9870 -7017l0 401c-26,-63 -40,-132 -40,-204 0,-70 13,-136 37,-197l3 0z"/>
 <path class="fil7" d="M9870 -6616l-230 0 0 -401 227 0c-24,61 -37,127 -37,197 0,72 14,141 40,204z"/>
</symbol>
<symbol id="Fm4-35-0" viewBox="9287 -15186 5030 4518">
 <path class="fil16" d="M9287 -15186l0 2878 2158 1640 1396 0c815,0 1475,-660 1475,-1475l0 -2194 -1117 -849 -3913 0z"/>
</symbol>
<symbol id="Fm1-23-0" viewBox="17708 -23610 5159 4844">
 <path class="fil16" d="M20177 -23610l0 333 -391 -224 -2078 1197 496 338 0 6 0 1875 1737 1320 1451 0c815,0 1475,-660 1475,-1475l0 -1741 -2142 -1628 -547 0z"/>
</symbol>
<symbol id="Fm2-32-0" viewBox="9154 -18735 5365 5627">
 <path class="fil13 str0" d="M9207 -15921c0,-1525 1177,-2760 2629,-2760 1452,0 2629,1236 2629,2760 0,1525 -1177,2760 -2629,2760 -1452,0 -2629,-1236 -2629,-2760z"/>
</symbol>
<symbol id="Fm8-38-0" viewBox="15228 -6282 1891 1891">
 <polygon class="fil0" points="17119,-6282 17119,-4940 16569,-4940 16569,-4391 15228,-4391 15228,-6282 "/>
 <polygon class="fil3" points="17119,-4940 16569,-4391 16569,-4940 "/>
</symbol>
<symbol id="Fm7-41-0" viewBox="35624 -14587 4006 3901">
 <path class="fil16" d="M39597 -12573c-8,-7 -17,-14 -26,-20 -8,-7 -17,-14 -26,-20 -8,-7 -17,-14 -26,-20 -8,-7 -17,-14 -26,-20 -8,-7 -17,-14 -26,-20 -8,-7 -17,-14 -26,-20 -8,-7 -17,-14 -26,-20 -9,-7 -17,-14 -27,-20 -8,-7 -17,-14 -26,-20 -8,-7 -17,-14 -26,-20 -8,-7 -17,-14 -26,-20 -8,-7 -17,-14 -26,-20 -8,-7 -17,-14 -26,-20 -8,-7 -17,-14 -26,-20 -8,-7 -17,-14 -26,-20 -8,-7 -17,-14 -26,-20 -8,-7 -17,-14 -26,-20 -8,-7 -17,-14 -26,-20 -8,-7 -17,-14 -26,-20 -8,-7 -17,-14 -26,-20 -8,-7 -17,-14 -26,-20 -8,-7 -17,-14 -26,-20 -8,-7 -17,-14 -26,-20 -8,-7 -17,-14 -26,-20 -8,-7 -17,-14 -26,-20 -8,-7 -17,-14 -26,-20 -8,-7 -17,-14 -26,-20 -8,-7 -17,-14 -26,-20 -8,-7 -17,-14 -26,-20 -9,-7 -17,-14 -26,-20 -8,-7 -17,-14 -26,-20 -8,-7 -17,-14 -26,-20 -8,-7 -17,-14 -26,-20 -8,-7 -17,-14 -26,-20 -8,-7 -17,-14 -26,-20 -8,-7 -17,-14 -26,-20 -8,-7 -17,-14 -26,-20 -9,-7 -17,-14 -27,-20 -8,-7 -17,-14 -26,-20 -8,-7 -17,-14 -26,-20 -8,-7 -17,-14 -26,-20 -8,-7 -17,-14 -26,-20 -8,-7 -17,-14 -26,-20 -8,-7 -17,-14 -26,-20 -8,-7 -17,-14 -26,-20 -8,-7 -17,-14 -26,-20 -8,-7 -17,-14 -26,-20 -8,-7 -17,-14 -26,-20 -8,-7 -17,-14 -26,-20 -8,-7 -17,-14 -26,-20 -8,-7 -17,-14 -26,-20 -8,-7 -17,-14 -26,-20 -9,-7 -17,-14 -26,-20 -8,-7 -17,-14 -26,-20 -8,-7 -17,-14 -26,-20 -8,-7 -17,-14 -26,-20 -8,-7 -17,-14 -26,-20 -9,-7 -17,-14 -26,-20 -8,-7 -17,-14 -26,-20 -8,-7 -17,-14 -26,-20 -8,-7 -17,-14 -26,-20 -8,-7 -17,-14 -26,-20 -8,-7 -17,-14 -26,-20 -9,-7 -17,-14 -26,-20 -8,-7 -17,-14 -26,-20 -8,-7 -17,-14 -26,-20 -8,-7 -17,-14 -26,-20 -8,-7 -17,-14 -26,-20 -9,-7 -17,-14 -27,-20 -8,-7 -17,-14 -26,-20 -8,-7 -17,-14 -26,-20 -8,-7 -17,-14 -26,-20 -8,-7 -17,-14 -26,-20 -8,-7 -17,-14 -26,-20 -9,-7 -17,-14 -26,-20 -8,-7 -17,-14 -26,-20 -8,-7 -17,-14 -26,-20 -8,-7 -17,-14 -26,-20 -8,-7 -17,-14 -26,-20 -9,-7 -17,-14 -26,-20 -8,-7 -17,-14 -26,-20 -8,-7 -17,-14 -26,-20 -8,-7 -17,-14 -26,-20 -8,-7 -17,-14 -26,-20 -8,-7 -17,-14 -26,-20 -8,-7 -17,-14 -26,-20 -8,-7 -17,-14 -26,-20 -8,-7 -17,-14 -26,-20 -8,-7 -17,-14 -26,-20 -8,-7 -17,-14 -26,-20 -8,-7 -17,-14 -26,-20 -8,-7 -17,-14 -26,-20 -8,-7 -17,-14 -26,-20 -8,-7 -17,-14 -26,-20 -8,-7 -17,-14 -26,-20 -8,-7 -17,-14 -26,-20 -8,-7 -17,-14 -26,-20 -71,-60 -169,-83 -264,-83 -327,0 -621,164 -847,378 -73,73 -322,310 -322,412 0,26 20,55 46,67 7,8 16,15 26,20 7,8 16,15 26,20 7,8 16,15 26,20 7,8 16,15 26,20 7,8 16,15 26,20 7,8 16,15 26,20 7,8 16,15 26,20 7,8 16,15 26,20 7,8 16,15 26,20 7,8 16,15 26,20 7,8 16,15 26,20 7,8 16,15 26,20 7,8 16,15 26,20 7,8 16,15 26,20 7,8 16,15 26,20 5,5 10,10 16,14l-139 349c-40,96 -232,559 -232,830 0,121 45,204 120,254 8,7 17,14 26,20 8,7 17,14 26,20 8,7 17,14 26,20 8,7 17,14 26,20 8,7 17,14 26,20 8,7 17,14 26,20 8,7 17,14 26,20 8,7 17,14 26,20 8,7 17,14 26,20 8,7 17,14 26,20 8,7 17,14 26,20 8,7 17,14 26,20 8,7 17,14 26,20 8,7 17,14 26,20 8,7 17,14 26,20 8,7 17,14 26,20 8,7 17,14 26,20 8,7 17,14 26,20 8,7 17,14 26,20 8,7 17,14 26,20 8,7 17,14 26,20 8,7 17,14 26,20 8,7 17,14 26,20 8,7 17,14 26,20 8,7 17,14 26,20 8,7 17,14 26,20 8,7 17,14 26,20 8,7 17,14 26,20 8,7 17,14 26,20 8,7 17,14 26,20 8,7 17,14 26,20 8,7 17,14 26,20 8,7 17,14 26,20 8,7 17,14 26,20 8,7 17,14 26,20 8,7 17,14 26,20 8,7 17,14 26,20 8,7 17,14 26,20 8,7 17,14 26,20 8,7 17,14 26,20 8,7 17,14 26,20 8,7 17,14 26,20 8,7 17,14 26,20 8,7 17,14 26,20 8,7 17,14 26,20 8,7 17,14 26,20 8,7 17,14 26,20 8,7 17,14 26,20 8,7 17,14 26,20 8,7 17,14 26,20 8,7 17,14 26,20 8,7 17,14 26,20 8,7 17,14 26,20 8,7 17,14 26,20 8,7 17,14 26,20 8,7 17,14 26,20 8,7 17,14 26,20 8,7 17,14 26,20 8,7 17,14 26,20 8,7 17,14 26,20 8,7 17,14 26,20 8,7 17,14 26,20 8,7 17,14 26,20 8,7 17,14 26,20 8,7 17,14 26,20 2,2 4,3 7,5l616 0c815,0 1475,-660 1475,-1475l0 -387c-2,-1 -4,-3 -6,-4 -8,-7 -17,-14 -26,-20z"/>
</symbol>
<symbol id="Fm2-33-0" viewBox="18221 -15503 7669 5562">
 <path class="fil3" d="M20713 -11191l0 526 0 88c0,112 43,224 128,310 86,86 198,128 310,128l718 0 718 0c112,0 224,-43 310,-128 85,-85 128,-198 128,-310l0 -88 0 -526 -2312 0zm-2215 -3498l0 2834c0,241 197,439 438,439l6238 0c241,0 438,-197 438,-439l0 -2834c0,-241 -197,-438 -438,-438l-6238 0c-241,0 -438,197 -438,438zm-277 4310l0 -4685c0,-241 197,-438 438,-438l6793 0c241,0 438,197 438,438l0 4685c0,241 -197,438 -438,438l-6793 0c-241,0 -438,-197 -438,-438z"/>
 <path class="fil10" d="M25024 -11695l395 0 0 -394 -395 0 0 394zm0 -394zm0 -1709l395 0 0 -394 -395 0 0 394zm0 -394zm0 -285l395 0 0 -307 -395 0 0 307zm0 -307zm-525 3090l394 0 0 -394 -394 0 0 394zm0 -394zm0 -1709l394 0 0 -394 -394 0 0 394zm0 -394zm0 -285l394 0 0 -307 -394 0 0 307zm0 -307zm-83 1643l0 394 609 0 395 0 0 -394 0 -526 -395 0 -328 0 0 526 -280 0zm-246 920l1249 0 0 -394 -1249 0 0 394zm0 -394zm-44 -657l394 0 0 -394 -394 0 0 394zm0 -394zm-153 1972l394 0 0 -394 -394 0 0 394zm0 -394zm0 -1709l394 0 0 -394 -394 0 0 394zm0 -394zm0 -285l394 0 0 -307 -394 0 0 307zm0 -307zm-132 2038l394 0 0 -394 -394 0 0 394zm0 -394zm-238 920l394 0 0 -394 -394 0 0 394zm0 -394zm-3 -657l394 0 0 -394 -394 0 0 394zm0 -394zm-153 1972l394 0 0 -394 -394 0 0 394zm0 -394zm0 -1709l394 0 0 -394 -394 0 0 394zm0 -394zm0 -285l394 0 0 -307 -394 0 0 307zm0 -307zm-132 2038l394 0 0 -394 -394 0 0 394zm0 -394zm-238 920l394 0 0 -394 -394 0 0 394zm0 -394zm-3 -657l394 0 0 -394 -394 0 0 394zm0 -394zm-153 -132l394 0 0 -394 -394 0 0 394zm0 -394zm0 -285l394 0 0 -307 -394 0 0 307zm0 -307zm-132 2038l394 0 0 -394 -394 0 0 394zm0 -394zm-238 920l394 0 0 -394 -394 0 0 394zm0 -394zm-3 -657l395 0 0 -394 -395 0 0 394zm0 -394zm-153 -132l394 0 0 -394 -394 0 0 394zm0 -394zm0 -285l394 0 0 -307 -394 0 0 307zm0 -307zm-132 2038l395 0 0 -394 -395 0 0 394zm0 -394zm-238 920l395 0 0 -394 -395 0 0 394zm0 -394zm-2 -657l395 0 0 -394 -395 0 0 394zm0 -394zm-153 -132l394 0 0 -394 -394 0 0 394zm0 -394zm0 -285l394 0 0 -307 -394 0 0 307zm0 -307zm-132 2038l395 0 0 -394 -395 0 0 394zm0 -394zm-238 920l395 0 0 -394 -395 0 0 394zm0 -394zm-3 -657l395 0 0 -394 -395 0 0 394zm0 -394zm-153 -132l394 0 0 -394 -394 0 0 394zm0 -394zm0 -285l394 0 0 -307 -394 0 0 307zm0 -307zm-131 2038l394 0 0 -394 -394 0 0 394zm0 -394zm-238 920l394 0 0 -394 -394 0 0 394zm0 -394zm-3 -657l394 0 0 -394 -394 0 0 394zm0 -394zm-154 -132l395 0 0 -394 -395 0 0 394zm0 -394zm0 -285l395 0 0 -307 -395 0 0 307zm0 -307zm-131 2038l394 0 0 -394 -394 0 0 394zm0 -394zm-238 920l394 0 0 -394 -394 0 0 394zm0 -394zm-2 -657l394 0 0 -394 -394 0 0 394zm0 -394zm-153 1972l3024 0 0 -394 -3024 0 0 394zm0 -394zm0 -1709l394 0 0 -394 -394 0 0 394zm0 -394zm0 -285l394 0 0 -307 -394 0 0 307zm0 -307zm-132 2038l394 0 0 -394 -394 0 0 394zm0 -394zm-238 920l394 0 0 -394 -394 0 0 394zm0 -394zm-3 -657l394 0 0 -394 -394 0 0 394zm0 -394zm-153 1972l394 0 0 -394 -394 0 0 394zm0 -394zm0 -1709l394 0 0 -394 -394 0 0 394zm0 -394zm0 -285l394 0 0 -307 -394 0 0 307zm0 -307zm-132 2038l394 0 0 -394 -394 0 0 394zm0 -394zm-238 920l394 0 0 -394 -394 0 0 394zm0 -394zm-3 -657l394 0 0 -394 -394 0 0 394zm0 -394zm-153 1972l394 0 0 -394 -394 0 0 394zm0 -394zm0 -1709l394 0 0 -394 -394 0 0 394zm0 -394zm0 -285l394 0 0 -307 -394 0 0 307zm0 -307zm-526 3090l394 0 0 -394 -394 0 0 394zm0 -394zm0 -132l526 0 0 -394 -526 0 0 394zm0 -394zm0 -132l723 0 0 -394 -723 0 0 394zm0 -394zm0 -131l526 0 0 -394 -526 0 0 394zm0 -394zm0 -132l394 0 0 -394 -394 0 0 394zm0 -394zm0 -285l394 0 0 -307 -394 0 0 307zm0 -307zm-215 2929l0 -2834c0,-241 197,-438 438,-438l6238 0c241,0 438,197 438,438l0 2834c0,241 -197,439 -438,439l-6238 0c-241,0 -438,-197 -438,-439z"/>
 <polygon class="fil3" points="18714,-14784 19108,-14784 19108,-14478 18714,-14478 "/>
 <polygon class="fil3" points="18714,-14193 19108,-14193 19108,-13798 18714,-13798 "/>
 <polygon class="fil3" points="18714,-13667 19240,-13667 19240,-13272 18714,-13272 "/>
 <polygon class="fil3" points="18714,-13141 19437,-13141 19437,-12747 18714,-12747 "/>
 <polygon class="fil3" points="18714,-12615 19240,-12615 19240,-12221 18714,-12221 "/>
 <polygon class="fil3" points="18714,-12089 19108,-12089 19108,-11695 18714,-11695 "/>
 <polygon class="fil3" points="19240,-14784 19634,-14784 19634,-14478 19240,-14478 "/>
 <polygon class="fil3" points="19240,-14193 19634,-14193 19634,-13798 19240,-13798 "/>
 <polygon class="fil3" points="19240,-12089 19634,-12089 19634,-11695 19240,-11695 "/>
 <polygon class="fil3" points="19393,-13667 19787,-13667 19787,-13272 19393,-13272 "/>
 <polygon class="fil3" points="19396,-12615 19790,-12615 19790,-12221 19396,-12221 "/>
 <polygon class="fil3" points="19634,-13141 20028,-13141 20028,-12747 19634,-12747 "/>
 <polygon class="fil3" points="19766,-14784 20160,-14784 20160,-14478 19766,-14478 "/>
 <polygon class="fil3" points="19766,-14193 20160,-14193 20160,-13798 19766,-13798 "/>
 <polygon class="fil3" points="19766,-12089 20160,-12089 20160,-11695 19766,-11695 "/>
 <polygon class="fil3" points="19919,-13667 20313,-13667 20313,-13272 19919,-13272 "/>
 <polygon class="fil3" points="19922,-12615 20316,-12615 20316,-12221 19922,-12221 "/>
 <polygon class="fil3" points="20160,-13141 20554,-13141 20554,-12747 20160,-12747 "/>
 <polygon class="fil3" points="20292,-14784 20686,-14784 20686,-14478 20292,-14478 "/>
 <polygon class="fil3" points="20292,-14193 20686,-14193 20686,-13798 20292,-13798 "/>
 <polygon class="fil3" points="20292,-12089 23315,-12089 23315,-11695 20292,-11695 "/>
 <polygon class="fil3" points="20445,-13667 20839,-13667 20839,-13272 20445,-13272 "/>
 <polygon class="fil3" points="20447,-12615 20842,-12615 20842,-12221 20447,-12221 "/>
 <polygon class="fil3" points="20686,-13141 21080,-13141 21080,-12747 20686,-12747 "/>
 <polygon class="fil10" points="20713,-10665 20713,-11191 23025,-11191 23025,-10665 21870,-10665 "/>
 <path class="fil3" d="M20713 -10577l0 -88 1156 0 0 526 -718 0c-113,0 -225,-43 -310,-128 -85,-85 -128,-198 -128,-310z"/>
 <polygon class="fil3" points="20817,-14784 21212,-14784 21212,-14478 20817,-14478 "/>
 <polygon class="fil3" points="20817,-14193 21212,-14193 21212,-13798 20817,-13798 "/>
 <polygon class="fil3" points="20971,-13667 21365,-13667 21365,-13272 20971,-13272 "/>
 <polygon class="fil3" points="20973,-12615 21368,-12615 21368,-12221 20973,-12221 "/>
 <polygon class="fil3" points="21212,-13141 21606,-13141 21606,-12747 21212,-12747 "/>
 <polygon class="fil3" points="21343,-14784 21737,-14784 21737,-14478 21343,-14478 "/>
 <polygon class="fil3" points="21343,-14193 21737,-14193 21737,-13798 21343,-13798 "/>
 <polygon class="fil3" points="21496,-13667 21891,-13667 21891,-13272 21496,-13272 "/>
 <polygon class="fil3" points="21499,-12615 21894,-12615 21894,-12221 21499,-12221 "/>
 <polygon class="fil3" points="21737,-13141 22132,-13141 22132,-12747 21737,-12747 "/>
 <polygon class="fil3" points="21869,-14784 22263,-14784 22263,-14478 21869,-14478 "/>
 <polygon class="fil3" points="21869,-14193 22263,-14193 22263,-13798 21869,-13798 "/>
 <path class="fil3" d="M21870 -10139l0 -526 1156 0 0 88c0,112 -43,224 -128,310 -85,86 -198,128 -310,128l-718 0z"/>
 <polygon class="fil3" points="22022,-13667 22417,-13667 22417,-13272 22022,-13272 "/>
 <polygon class="fil3" points="22025,-12615 22420,-12615 22420,-12221 22025,-12221 "/>
 <polygon class="fil3" points="22263,-13141 22658,-13141 22658,-12747 22263,-12747 "/>
 <polygon class="fil3" points="22395,-14784 22789,-14784 22789,-14478 22395,-14478 "/>
 <polygon class="fil3" points="22395,-14193 22789,-14193 22789,-13798 22395,-13798 "/>
 <polygon class="fil3" points="22548,-13667 22943,-13667 22943,-13272 22548,-13272 "/>
 <polygon class="fil3" points="22551,-12615 22945,-12615 22945,-12221 22551,-12221 "/>
 <polygon class="fil3" points="22789,-13141 23184,-13141 23184,-12747 22789,-12747 "/>
 <polygon class="fil3" points="22921,-14784 23315,-14784 23315,-14478 22921,-14478 "/>
 <polygon class="fil3" points="22921,-14193 23315,-14193 23315,-13798 22921,-13798 "/>
 <polygon class="fil3" points="23074,-13667 23468,-13667 23468,-13272 23074,-13272 "/>
 <polygon class="fil3" points="23077,-12615 23471,-12615 23471,-12221 23077,-12221 "/>
 <polygon class="fil3" points="23315,-13141 23710,-13141 23710,-12747 23315,-12747 "/>
 <polygon class="fil3" points="23447,-14784 23841,-14784 23841,-14478 23447,-14478 "/>
 <polygon class="fil3" points="23447,-14193 23841,-14193 23841,-13798 23447,-13798 "/>
 <polygon class="fil3" points="23447,-12089 23841,-12089 23841,-11695 23447,-11695 "/>
 <polygon class="fil3" points="23600,-13667 23994,-13667 23994,-13272 23600,-13272 "/>
 <polygon class="fil3" points="23603,-12615 23997,-12615 23997,-12221 23603,-12221 "/>
 <polygon class="fil3" points="23841,-13141 24235,-13141 24235,-12747 23841,-12747 "/>
 <polygon class="fil3" points="23973,-14784 24367,-14784 24367,-14478 23973,-14478 "/>
 <polygon class="fil3" points="23973,-14193 24367,-14193 24367,-13798 23973,-13798 "/>
 <polygon class="fil3" points="23973,-12089 24367,-12089 24367,-11695 23973,-11695 "/>
 <polygon class="fil3" points="24126,-13667 24520,-13667 24520,-13272 24126,-13272 "/>
 <polygon class="fil3" points="24170,-12615 25419,-12615 25419,-12221 24170,-12221 "/>
 <polygon class="fil3" points="24416,-12747 24416,-13141 24696,-13141 24696,-13667 25024,-13667 25419,-13667 25419,-13141 25419,-12747 25024,-12747 "/>
 <polygon class="fil3" points="24499,-14784 24893,-14784 24893,-14478 24499,-14478 "/>
 <polygon class="fil3" points="24499,-14193 24893,-14193 24893,-13798 24499,-13798 "/>
 <polygon class="fil3" points="24499,-12089 24893,-12089 24893,-11695 24499,-11695 "/>
 <polygon class="fil3" points="25024,-14784 25419,-14784 25419,-14478 25024,-14478 "/>
 <polygon class="fil3" points="25024,-14193 25419,-14193 25419,-13798 25024,-13798 "/>
 <polygon class="fil3" points="25024,-12089 25419,-12089 25419,-11695 25024,-11695 "/>
</symbol>
<symbol id="Fm6-34-0" viewBox="9067 -21798 3459 4524">
 <path class="fil3" d="M12224 -20381l-2156 0 0 1035 2156 0 0 -1035zm0 1035zm302 -1345l0 3070 -345 0 -2415 0 0 -3829 2001 0 0 759 759 0z"/>
 <polygon class="fil3" points="12526,-20691 11768,-20691 11768,-21450 "/>
 <polygon class="fil9" points="12224,-19346 10068,-19346 10068,-20381 12224,-20381 "/>
 <path class="fil17" d="M12182 -17621l0 348 -2767 0c-192,0 -348,-155 -348,-348l3 0c0,-193 156,-348 348,-348 192,0 348,155 348,348l2415 0z"/>
 <path class="fil2" d="M9767 -21450l0 3829c0,-192 -156,-348 -348,-348 -193,0 -348,155 -348,348l0 -3829c0,-192 156,-348 348,-348 192,0 348,155 348,348z"/>
</symbol>
<symbol id="Fm10-24-0" viewBox="26911 -9128 3429 3250">
 <polygon class="fil9" points="30340,-7557 30340,-6891 30268,-6891 30113,-6891 30113,-7557 "/>
 <polygon class="fil18" points="30113,-6891 30113,-6764 29647,-6764 29647,-7684 29732,-7684 30033,-7684 30113,-7684 30113,-7557 "/>
 <path class="fil2" d="M30034 -7723c0,12 -1,25 -1,38l-301 0c0,-13 2,-26 2,-38 0,-611 -495,-1105 -1105,-1105 -611,0 -1105,495 -1105,1105 0,12 1,25 2,38l-301 0c0,-13 -1,-26 -1,-38 0,-777 629,-1406 1405,-1406 776,0 1406,629 1406,1406z"/>
 <polygon class="fil15" points="29676,-6017 29676,-5879 29071,-5879 29071,-6155 29676,-6155 "/>
 <polygon class="fil18" points="27603,-7684 27603,-6764 27138,-6764 27138,-6891 27138,-7557 27138,-7684 27224,-7684 27525,-7684 "/>
 <polygon class="fil9" points="27138,-6891 26911,-6891 26911,-7557 27138,-7557 "/>
</symbol>
<symbol id="Fm8-43-0" viewBox="36640 -15625 2989 2845">
 <path class="fil16" d="M39590 -13844c-8,-7 -17,-14 -26,-20 -8,-7 -17,-14 -26,-20 -8,-7 -17,-14 -26,-20 -8,-7 -17,-14 -26,-20 -8,-7 -17,-14 -26,-20 -8,-7 -17,-14 -26,-20 -8,-7 -17,-14 -26,-20 -8,-7 -17,-14 -26,-20 -8,-7 -17,-14 -26,-20 -8,-7 -17,-14 -26,-20 -8,-7 -17,-14 -26,-20 -8,-7 -17,-14 -26,-20 -8,-7 -17,-14 -26,-20 -8,-7 -17,-14 -26,-20 -8,-7 -17,-14 -26,-20 -8,-7 -17,-14 -26,-20 -8,-7 -17,-14 -26,-20 -8,-7 -17,-14 -26,-20 -8,-7 -17,-14 -26,-20 -8,-7 -17,-14 -26,-20 -8,-7 -17,-14 -26,-20 -8,-7 -17,-14 -26,-20 -8,-7 -17,-14 -26,-20 -8,-7 -17,-14 -26,-20 -8,-7 -17,-14 -26,-20 -8,-7 -17,-14 -26,-20 -8,-7 -17,-14 -26,-20 -8,-7 -17,-14 -26,-20 -8,-7 -17,-14 -26,-20 -8,-7 -17,-14 -26,-20 -8,-7 -17,-14 -26,-20 -8,-7 -17,-14 -26,-20 -8,-7 -17,-14 -26,-20 -8,-7 -17,-14 -26,-20 -8,-7 -17,-14 -26,-20 -8,-7 -17,-14 -26,-20 -8,-7 -17,-14 -26,-20 -8,-7 -17,-14 -26,-20 -8,-7 -17,-14 -26,-20 -8,-7 -17,-14 -26,-20 -8,-7 -17,-14 -26,-20 -8,-7 -17,-14 -26,-20 -8,-7 -17,-14 -26,-20 -8,-7 -17,-14 -26,-20 -8,-7 -17,-14 -26,-20 -8,-7 -17,-14 -26,-20 -8,-7 -17,-14 -26,-20 -8,-7 -17,-14 -26,-20 -8,-7 -17,-14 -26,-20 -8,-7 -17,-14 -26,-20 -8,-7 -17,-14 -26,-20 -8,-7 -17,-14 -26,-20 -8,-7 -17,-14 -26,-20 -8,-7 -17,-14 -26,-20 -8,-7 -17,-14 -26,-20 -8,-7 -17,-14 -26,-20 -8,-7 -17,-14 -26,-20 -8,-7 -17,-14 -26,-20 -8,-7 -17,-14 -26,-20 -8,-7 -17,-14 -26,-20 -8,-7 -17,-14 -26,-20 -8,-7 -17,-14 -26,-20 -8,-7 -17,-14 -26,-20 -8,-7 -17,-14 -26,-20 -8,-7 -17,-14 -26,-20 -8,-7 -17,-14 -26,-20 -8,-7 -17,-14 -26,-20 -8,-7 -17,-14 -26,-20 -8,-7 -17,-14 -26,-20 -8,-7 -17,-14 -26,-20 -8,-7 -17,-14 -26,-20 -8,-7 -17,-14 -26,-20 -8,-7 -17,-14 -26,-20 -8,-7 -17,-14 -26,-20 -8,-7 -17,-14 -26,-20 -8,-7 -17,-14 -26,-20 -8,-7 -17,-14 -26,-20 -8,-7 -17,-14 -26,-20 -8,-7 -17,-14 -26,-20 -8,-7 -17,-14 -26,-20 -8,-7 -17,-14 -26,-20 -8,-7 -17,-14 -26,-20 -8,-7 -17,-14 -26,-20 -8,-7 -17,-14 -26,-20 -8,-7 -17,-14 -26,-20 -68,-57 -158,-89 -261,-89 -248,0 -463,203 -463,452 0,140 56,251 152,317 8,7 17,14 26,20 8,7 17,14 26,20 8,7 17,14 26,20 8,7 17,14 26,20 8,7 17,14 26,20 8,7 17,14 26,20 8,7 17,14 26,20 8,7 17,14 26,20 8,7 17,14 26,20 8,7 17,14 26,20 8,7 17,14 26,20 8,7 17,14 26,20 8,7 17,14 26,20 8,7 17,14 26,20 8,7 17,14 26,20 8,7 17,14 26,20 8,7 17,14 26,20 8,7 17,14 26,20 8,7 17,14 26,20 8,7 17,14 26,20 8,7 17,14 26,20 8,7 17,14 26,20 8,7 17,14 26,20 8,7 17,14 26,20 8,7 17,14 26,20 8,7 17,14 26,20 8,7 17,14 26,20 8,7 17,14 26,20 8,7 17,14 26,20 8,7 17,14 26,20 8,7 17,14 26,20 8,7 17,14 26,20 8,7 17,14 26,20 8,7 17,14 26,20 8,7 17,14 26,20 8,7 17,14 26,20 8,7 17,14 26,20 8,7 17,14 26,20 8,7 17,14 26,20 8,7 17,14 26,20 8,7 17,14 26,20 8,7 17,14 26,20 8,7 17,14 26,20 8,7 17,14 26,20 8,7 17,14 26,20 8,7 17,14 26,20 8,7 17,14 26,20 8,7 17,14 26,20 8,7 17,14 26,20 8,7 17,14 26,20 8,7 17,14 26,20 8,7 17,14 26,20 8,7 17,14 26,20 8,7 17,14 26,20 8,7 17,14 26,20 8,7 17,14 26,20 8,7 17,14 26,20 8,7 17,14 26,20 8,7 17,14 26,20 8,7 17,14 26,20 8,7 17,14 26,20 8,7 17,14 26,20 8,7 17,14 26,20 8,7 17,14 26,20 8,7 17,14 26,20 8,7 17,14 26,20 8,7 17,14 26,20 8,7 17,14 26,20 8,7 17,14 26,20 8,7 17,14 26,20 8,7 17,14 26,20 8,7 17,14 26,20 8,7 17,14 26,20 8,7 17,14 26,20 8,7 17,14 26,20 8,7 17,14 26,20 8,7 17,14 26,20 8,7 17,14 26,20 8,7 17,14 26,20 8,7 17,14 26,20 8,7 17,14 26,20 8,7 17,14 26,20 8,7 17,14 26,20 8,7 17,14 26,20 8,7 17,14 26,20 8,7 17,14 26,20 8,7 17,14 26,20 8,7 17,14 26,20 8,7 17,14 26,20 8,7 17,14 26,20 8,7 17,14 26,20 8,7 17,14 26,20 8,7 17,14 26,20 8,7 17,14 26,20 8,7 17,14 26,20 8,7 17,14 26,20 8,7 17,14 26,20 8,7 17,14 26,20 8,7 17,14 26,20 8,7 17,14 26,20 57,48 131,78 218,85l0 -1034c-4,-3 -8,-7 -13,-10 -8,-7 -17,-14 -26,-20z"/>
</symbol>
<symbol id="Fm5-37-0" viewBox="17982 -15602 4893 4934">
 <path class="fil16" d="M22835 -13846c-9,-7 -17,-14 -26,-20 -9,-6 -17,-13 -26,-20 -9,-7 -17,-14 -26,-20 -9,-7 -17,-14 -26,-20 -9,-7 -17,-14 -26,-20 -9,-7 -17,-14 -26,-20 -9,-7 -17,-14 -26,-20 -9,-7 -17,-13 -26,-20 -9,-7 -17,-14 -26,-20 -9,-7 -17,-14 -26,-20 -9,-7 -17,-13 -26,-20 -9,-7 -17,-14 -26,-20 -9,-7 -17,-14 -26,-20 -9,-7 -17,-14 -26,-20 -9,-7 -17,-14 -26,-20 -9,-7 -17,-13 -26,-20 -9,-7 -17,-14 -26,-20 -9,-7 -17,-14 -26,-20 -9,-7 -17,-14 -26,-20 -9,-6 -17,-13 -26,-20 -9,-7 -17,-14 -26,-20 -9,-7 -17,-13 -26,-20 -9,-7 -17,-14 -26,-20 -9,-7 -17,-14 -26,-20 -9,-7 -17,-14 -26,-20 -9,-7 -17,-14 -26,-20 -9,-7 -17,-14 -26,-20 -9,-7 -17,-13 -26,-20 -9,-7 -17,-14 -26,-20 -9,-7 -17,-14 -26,-20 -9,-6 -17,-13 -26,-20 -9,-7 -17,-14 -26,-20 -9,-7 -17,-14 -26,-20 -9,-7 -17,-14 -26,-20 -9,-7 -17,-14 -26,-20 -9,-7 -17,-14 -26,-20 -9,-7 -17,-14 -26,-20 -9,-7 -17,-14 -26,-20 -9,-7 -17,-14 -26,-20 -9,-7 -17,-14 -26,-20 -9,-7 -17,-14 -26,-20 -9,-7 -17,-13 -26,-20 -9,-7 -17,-14 -26,-20 -9,-7 -17,-14 -26,-20 -9,-7 -17,-13 -26,-20 -9,-7 -17,-14 -26,-20 -9,-7 -17,-13 -26,-20 -9,-7 -17,-14 -26,-20 -9,-7 -17,-14 -26,-20 -9,-7 -17,-14 -26,-20 -9,-6 -17,-13 -26,-20 -9,-7 -17,-14 -26,-20 -9,-7 -17,-14 -26,-20 -9,-7 -17,-14 -26,-20 -9,-7 -17,-14 -26,-20 -9,-6 -17,-13 -26,-20 -9,-7 -17,-14 -26,-20 -9,-7 -17,-14 -26,-20 -9,-7 -17,-14 -26,-20 -9,-7 -17,-14 -26,-20 -9,-7 -17,-14 -26,-20 -9,-7 -17,-14 -26,-20 -9,-7 -17,-14 -26,-20 -9,-7 -17,-14 -26,-20 -9,-7 -17,-14 -26,-20 -9,-7 -17,-14 -26,-20 -9,-7 -17,-13 -26,-20 -9,-7 -17,-14 -26,-20 -9,-7 -17,-14 -26,-20 -9,-7 -17,-14 -26,-20 -9,-7 -17,-13 -26,-20 -9,-7 -18,-14 -28,-21 -63,-47 -130,-90 -202,-127 -253,-130 -539,-195 -857,-195 -410,0 -760,92 -1047,277 -288,185 -510,450 -666,797 -128,283 -192,581 -192,894 0,281 54,542 162,784 86,191 214,360 383,506 26,23 54,44 82,65 9,7 18,13 26,20 9,7 18,13 26,20 8,7 17,13 26,19 9,7 18,14 27,20 8,7 17,13 26,20 9,7 18,13 26,20 9,7 17,13 26,20 9,7 17,13 26,20 9,7 17,13 26,20 9,7 18,13 26,20 9,7 17,13 26,20 9,7 18,13 27,20 9,7 17,13 26,20 9,7 17,13 26,20 9,7 17,13 26,20 9,7 17,13 26,20 9,7 17,13 26,20 9,7 18,14 27,20 8,7 17,13 25,19 9,7 18,14 27,20 9,7 17,13 26,20 9,7 17,13 26,20 9,7 18,13 26,20 9,7 17,13 26,20 9,7 17,13 26,20 9,7 18,13 26,20 8,7 17,13 26,20 9,7 18,14 27,20 9,7 17,13 26,20 9,7 17,13 26,20 9,7 17,13 26,20 9,7 18,13 26,20 9,7 17,13 26,20 8,7 17,13 26,20 9,7 18,14 27,20 8,7 17,13 26,20 9,7 18,13 26,20 9,7 17,13 26,20 9,7 17,13 26,20 9,7 17,13 26,20 9,7 17,13 26,20 9,7 17,13 26,20 9,7 18,13 26,20 9,7 17,13 26,20 9,7 17,13 26,20 9,7 18,13 26,20 9,7 17,13 26,20 9,7 18,13 26,20 9,7 18,13 26,20 8,7 17,13 26,20 9,7 18,13 26,20 9,7 17,13 26,20 9,7 17,13 26,20 9,7 18,13 26,20 9,7 17,13 26,20 9,7 17,13 26,20 9,7 18,13 27,20 9,7 17,13 26,20 9,7 18,14 27,20 9,7 17,13 26,20 9,7 17,13 26,20 9,7 18,13 26,20 9,7 17,13 26,20 9,7 17,13 26,20 9,7 17,13 26,20 9,7 18,13 26,20 9,7 17,13 26,20 9,7 18,13 26,20 9,7 17,13 26,20 9,7 17,13 26,20 9,7 18,13 26,20 9,7 17,13 26,20 9,7 18,14 27,20 8,7 17,13 26,19 9,7 18,14 27,20 9,7 17,13 26,20 9,7 17,13 26,20 9,7 17,13 26,20 9,7 17,13 26,20 9,7 17,13 26,20 7,6 15,12 23,17l673 0c815,0 1475,-660 1475,-1475l0 -1672c-5,-4 -9,-7 -14,-11 -9,-7 -17,-14 -26,-20z"/>
</symbol>
<symbol id="Fm0-21-0" viewBox="8315 -23305 5985 4558">
 <path class="fil16" d="M14229 -21544c-17,-13 -34,-27 -52,-39 -17,-14 -34,-27 -52,-40 -17,-14 -34,-27 -52,-39 -17,-14 -34,-27 -52,-40 -17,-14 -34,-27 -52,-39 -17,-13 -34,-27 -52,-39 -17,-13 -34,-27 -52,-39 -17,-14 -34,-27 -52,-40 -17,-14 -34,-27 -52,-40 -17,-14 -34,-27 -52,-39 -17,-13 -34,-27 -52,-39 -17,-14 -34,-27 -52,-39 -17,-14 -34,-27 -52,-40 -17,-14 -34,-27 -52,-39 -17,-13 -34,-27 -52,-39 -17,-14 -34,-27 -52,-40 -17,-13 -34,-27 -52,-39 -17,-14 -34,-27 -52,-39 -17,-14 -34,-27 -52,-40 -17,-13 -34,-27 -52,-39 -17,-14 -34,-27 -52,-39 -17,-14 -34,-27 -52,-39 -17,-14 -34,-27 -52,-39 -17,-13 -34,-27 -52,-39 -17,-14 -34,-27 -52,-39 -17,-14 -34,-27 -52,-40 -17,-13 -34,-27 -52,-39 -17,-14 -34,-27 -52,-40 -17,-14 -34,-27 -52,-39 -17,-14 -34,-27 -52,-40 -17,-13 -34,-27 -52,-39 -17,-13 -34,-27 -52,-39 -17,-14 -34,-27 -52,-40 -17,-14 -34,-27 -52,-39 -17,-14 -34,-27 -52,-39 -17,-14 -34,-27 -52,-39 -17,-14 -34,-27 -52,-39 -237,-189 -537,-302 -863,-302 -434,0 -834,197 -1099,541 -190,-25 -389,18 -559,135 -330,228 -435,661 -264,1011 -67,-28 -146,-23 -210,22l-905 626c-100,69 -125,206 -56,306 20,29 46,52 75,68 15,16 33,29 52,39 15,16 33,29 52,39 15,16 33,29 52,39 16,16 33,29 52,39 15,16 33,29 52,39 15,16 33,29 52,39 16,16 33,29 52,39 16,16 33,29 52,39 15,16 33,29 52,39 16,16 33,29 52,39 16,16 33,29 52,39 16,16 33,29 52,39 15,16 33,29 52,39 16,16 33,29 52,39 15,16 33,29 52,39 15,16 33,29 52,39 16,16 33,29 52,39 16,16 33,29 52,39 15,16 33,29 52,39 15,16 33,29 52,39 16,16 33,29 52,39 15,16 33,29 52,39 15,16 33,29 52,39 16,16 33,29 52,39 15,16 33,29 52,39 15,16 33,29 52,39 16,16 33,29 52,39 15,16 33,29 52,39 15,16 33,29 52,39 15,16 33,29 52,39 16,16 33,29 52,39 15,16 33,29 52,39 15,16 33,29 52,39 16,16 33,29 52,39 15,16 33,29 52,39 16,16 33,29 52,40 15,16 33,29 52,39 16,16 33,29 52,39 15,16 33,29 52,39 16,16 33,29 52,39 15,16 33,29 52,39 15,16 33,29 52,39 4,4 99,80 242,193l1974 0c815,0 1475,-660 1475,-1475l0 -1268c-6,-5 -12,-10 -19,-14 -17,-14 -34,-27 -52,-39z"/>
</symbol>
<symbol id="Fm6-69-0" viewBox="9564 -18351 2367 1521">
 <path class="fil19" d="M10186 -17264l-398 0 0 221 398 0 0 -221zm0 221zm1745 -651l0 649c0,118 -97,215 -215,215l-1937 0c-118,0 -215,-97 -215,-215l0 -649 2367 0z"/>
 <polygon class="fil3" points="11931,-17695 9564,-17695 9564,-18018 11931,-18018 "/>
 <path class="fil19" d="M11931 -18136l0 118 -2367 0 0 -118c0,-118 97,-215 215,-215l1937 0c118,0 215,97 215,215z"/>
 <polygon class="fil20" points="10186,-17044 9788,-17044 9788,-17264 10186,-17264 "/>
</symbol>
<symbol id="Fm7-71-0" viewBox="27395 -15071 2392 2392">
 <path class="fil9" d="M27634 -13477l280 0c-22,-101 -35,-208 -40,-319l-317 0c9,113 35,219 76,319zm280 -797l-280 0c-41,99 -68,206 -76,319l317 0c5,-111 18,-219 40,-319zm230 1334c-78,-102 -142,-231 -189,-377l-238 0c103,162 251,293 427,377zm-188 -1493c46,-146 110,-275 188,-377 -175,83 -323,215 -427,377l239 0zm555 0l0 -468c-164,44 -305,220 -391,468l391 0zm0 479l0 -319 -436 0c-22,99 -37,206 -41,319l477 0zm0 478l0 -319 -477 0c5,113 19,219 41,319l436 0zm0 628l0 -468 -391 0c86,248 227,424 391,468zm549 -468l-391 0 0 468c165,-44 305,-220 391,-468zm-391 -1117l391 0c-86,-248 -226,-424 -391,-468l0 468zm477 638l-477 0 0 319 436 0c23,-100 37,-206 41,-319zm-477 -159l477 0c-5,-113 -18,-220 -41,-319l-436 0 0 319zm794 638l-238 0c-47,146 -112,274 -189,377 175,-83 323,-215 427,-377zm-238 -1117l238 0c-104,-162 -251,-293 -427,-377 78,102 142,231 189,377zm397 638l-317 0c-5,111 -18,218 -40,319l280 0c41,-100 68,-206 76,-319zm-317 -159l317 0c-8,-113 -35,-220 -76,-319l-280 0c22,100 35,208 40,319zm480 0l0 159 -3 0c-39,597 -516,1074 -1114,1113l0 3 -159 0 0 -3c-597,-39 -1074,-516 -1114,-1113l-2 0 0 -159 2 0c40,-597 517,-1074 1114,-1114l0 -2 159 0 0 2c597,40 1075,517 1114,1114l3 0z"/>
</symbol>
<symbol id="Fm11-45-0" viewBox="7827 -6064 2330 1497">
 <path class="fil3" d="M8439 -4994l-391 0 0 217 391 0 0 -217zm0 217zm1718 -641l0 639c0,117 -95,212 -212,212l-1906 0c-116,0 -212,-95 -212,-212l0 -639 2330 0z"/>
 <polygon class="fil2" points="10157,-5418 7827,-5418 7827,-5735 10157,-5735 "/>
 <path class="fil3" d="M10157 -5852l0 116 -2330 0 0 -116c0,-116 95,-212 212,-212l1906 0c116,0 212,95 212,212z"/>
 <polygon class="fil20" points="8439,-4777 8048,-4777 8048,-4994 8439,-4994 "/>
</symbol>
<symbol id="Fm10-43-0" viewBox="8576 -8750 2330 1497">
 <path class="fil3" d="M9188 -7680l-391 0 0 217 391 0 0 -217zm0 217zm1718 -641l0 639c0,116 -95,212 -212,212l-1906 0c-116,0 -212,-95 -212,-212l0 -639 2330 0z"/>
 <polygon class="fil2" points="10906,-8104 8576,-8104 8576,-8421 10906,-8421 "/>
 <path class="fil3" d="M10906 -8538l0 116 -2330 0 0 -116c0,-117 95,-212 212,-212l1906 0c116,0 212,95 212,212z"/>
 <polygon class="fil20" points="9188,-7463 8797,-7463 8797,-7680 9188,-7680 "/>
</symbol>
<symbol id="Fm0-19-0" viewBox="154599 -116963 9758 9758">
 <path class="fil21" d="M163344 -115060c-1644,-2135 -4707,-2534 -6842,-890 -2135,1644 -2533,4707 -889,6842 1644,2135 4707,2533 6842,890 2135,-1644 2533,-4707 890,-6842z"/>
</symbol>
<symbol id="Fm8-45-0" viewBox="27358 -8009 2623 3616">
 <path class="fil0" d="M27946 -6873c0,-64 -52,-116 -117,-116 -64,0 -116,52 -116,116 0,65 52,117 116,117 65,0 117,-52 117,-117zm436 0c0,-64 -52,-116 -116,-116 -64,0 -116,52 -116,116 0,65 52,117 116,117 64,0 116,-52 116,-117zm1213 2111l0 -723 0 -361 0 -362 0 -361 -466 0 -465 0 -466 0 -466 0 0 361 0 362 0 361 0 362 0 361 932 0 465 0 466 0zm12 -2916l-1876 0 0 515 1876 0 0 -515zm0 515zm0 162l-944 0 0 250 944 0 0 -250zm0 250zm374 2358l-2623 0 0 -3616 2623 0 0 3616zm0 -3616l0 3616"/>
 <polygon class="fil9" points="29607,-6751 28663,-6751 28663,-7001 29607,-7001 "/>
 <polygon class="fil14" points="29607,-7163 27731,-7163 27731,-7678 29607,-7678 "/>
 <polygon class="fil2" points="29595,-5485 29595,-4761 29129,-4761 29129,-5123 29129,-5485 "/>
 <polygon class="fil1" points="29595,-5485 29129,-5485 29129,-5846 29595,-5846 "/>
 <polygon class="fil1" points="29595,-5846 29129,-5846 29129,-6208 29595,-6208 "/>
 <polygon class="fil1" points="29595,-6208 29129,-6208 29129,-6569 29595,-6569 "/>
 <polygon class="fil14" points="29129,-4761 28663,-4761 28663,-5123 29129,-5123 "/>
 <polygon class="fil14" points="29129,-5123 28663,-5123 28663,-5485 29129,-5485 "/>
 <polygon class="fil14" points="29129,-5485 28663,-5485 28663,-5846 29129,-5846 "/>
 <polygon class="fil14" points="29129,-5846 28663,-5846 28663,-6208 29129,-6208 "/>
 <polygon class="fil14" points="29129,-6208 28663,-6208 28663,-6569 29129,-6569 "/>
 <polygon class="fil9" points="28663,-5123 28663,-4761 27731,-4761 27731,-5123 28197,-5123 "/>
 <polygon class="fil14" points="28663,-5123 28197,-5123 28197,-5485 28663,-5485 "/>
 <polygon class="fil14" points="28663,-5485 28197,-5485 28197,-5846 28663,-5846 "/>
 <polygon class="fil14" points="28663,-5846 28197,-5846 28197,-6208 28663,-6208 "/>
 <polygon class="fil14" points="28663,-6208 28197,-6208 28197,-6569 28663,-6569 "/>
 <path class="fil2" d="M28265 -6989c64,0 116,52 116,116 0,65 -52,117 -116,117 -64,0 -116,-52 -116,-117 0,-64 52,-116 116,-116z"/>
 <polygon class="fil14" points="28197,-5123 27731,-5123 27731,-5485 28197,-5485 "/>
 <polygon class="fil14" points="28197,-5485 27731,-5485 27731,-5846 28197,-5846 "/>
 <polygon class="fil14" points="28197,-5846 27731,-5846 27731,-6208 28197,-6208 "/>
 <polygon class="fil14" points="28197,-6208 27731,-6208 27731,-6569 28197,-6569 "/>
 <path class="fil9" d="M27829 -6989c65,0 117,52 117,116 0,65 -52,117 -117,117 -64,0 -116,-52 -116,-117 0,-64 52,-116 116,-116z"/>
</symbol>
<symbol id="Fm2-26-0" viewBox="24511 -4840 322 3345">
 <polygon class="fil2" points="24833,-1869 24511,-1869 24511,-4175 24833,-4175 "/>
 <polygon class="fil22" points="24833,-4263 24833,-4175 24511,-4175 24511,-4520 24566,-4520 24778,-4520 24833,-4520 "/>
 <polygon class="fil14" points="24833,-1869 24672,-1495 24511,-1869 "/>
 <polygon class="fil14" points="24778,-4520 24566,-4520 24566,-4840 24778,-4840 "/>
</symbol>
<symbol id="Fm8-73-0" viewBox="25173 -19579 1332 2516">
 <path class="fil3" d="M26279 -18885c0,-244 -197,-441 -441,-441 -243,0 -441,197 -441,441 0,244 197,441 441,441 244,0 441,-197 441,-441zm-441 -693c391,0 666,190 666,698 0,507 -666,1818 -666,1818 0,0 -666,-1311 -666,-1818 0,-507 275,-698 666,-698z"/>
 <path class="fil2" d="M26026 -18885c0,-104 -84,-188 -188,-188 -104,0 -187,84 -187,188 0,104 84,188 187,188 104,0 188,-84 188,-188zm-188 -441c244,0 441,197 441,441 0,244 -197,441 -441,441 -243,0 -441,-197 -441,-441 0,-244 197,-441 441,-441z"/>
</symbol>
<symbol id="Fm5-67-0" viewBox="13576 -17418 1880 1510">
 <polygon class="fil2" points="15456,-17191 15282,-16495 14121,-16495 13947,-17191 "/>
 <path class="fil0" d="M15010 -16272c101,0 183,82 183,183 0,101 -82,182 -183,182 -101,0 -183,-82 -183,-182 0,-101 82,-183 183,-183z"/>
 <path class="fil0" d="M14091 -16272c101,0 182,82 182,183 0,101 -82,182 -182,182 -101,0 -183,-82 -183,-182 0,-74 44,-137 106,-166 23,-11 49,-17 76,-17z"/>
 <polygon class="fil3" points="13885,-17290 13576,-17290 13576,-17418 13885,-17418 "/>
</symbol>
<symbol id="Fm0-20-0" viewBox="14770 -21899 519 519">
 <path class="fil3" d="M14770 -21640c0,-143 116,-260 260,-260 143,0 260,116 260,260 0,143 -116,260 -260,260 -143,0 -260,-116 -260,-260z"/>
</symbol>
<symbol id="Fm12-29-0" viewBox="26664 -7443 4714 4815">
 <path class="fil16" d="M29949 -6439c-238,-57 -454,-142 -645,-238 -10,-11 -11,-6 -11,-6 -6,-3 -13,-6 -19,-10 -474,-234 -969,-751 -969,-751l181 656c-2609,203 -1930,1688 -929,2431 17,13 34,26 52,39 17,14 35,27 53,40 17,13 34,26 51,39 17,14 35,27 53,40 17,13 34,26 51,39 17,13 35,27 52,40 17,13 34,26 52,39 17,13 34,26 52,39 17,13 35,27 52,40 17,13 34,26 51,39 17,14 35,27 53,40 17,13 34,26 51,39 18,14 35,27 53,40 17,13 34,26 52,39 17,13 34,26 51,39 17,13 35,27 52,40 17,13 35,27 52,40 17,14 35,27 52,40 17,13 34,26 51,39 17,13 34,27 52,39 17,13 34,26 51,39 18,14 35,27 53,40 17,13 35,26 52,39 17,13 34,26 51,39 17,13 34,26 51,39 17,13 35,27 52,40 17,14 35,27 53,40 17,13 34,26 51,39 17,13 35,27 53,40 17,13 34,26 51,39 17,13 35,27 52,39 17,14 35,27 53,40 17,13 34,26 51,39 17,13 35,27 52,39 17,13 34,26 51,39 17,14 35,27 53,40 17,13 35,27 52,40 17,13 34,26 51,39 17,14 35,27 52,40 17,13 34,26 51,39 17,14 35,27 53,40 17,13 34,26 51,39 17,13 35,27 52,40 15,11 29,22 44,33l73 0c815,0 1475,-660 1475,-1475l0 -1237c-699,-531 -1438,-1097 -1429,-1099z"/>
</symbol>
<symbol id="Fm1-25-0" viewBox="20073 -8461 4556 436">
 <polygon class="fil6" points="24020,-8461 24172,-8461 24172,-8025 24020,-8025 "/>
 <polygon class="fil14" points="21908,-8461 24020,-8461 24020,-8025 21908,-8025 "/>
 <polygon class="fil6" points="21633,-8461 21908,-8461 21908,-8025 21633,-8025 "/>
 <polygon class="fil14" points="20678,-8461 21633,-8461 21633,-8025 20678,-8025 "/>
 <polygon class="fil6" points="20417,-8461 20678,-8461 20678,-8025 20417,-8025 20417,-8101 20417,-8386 "/>
 <polygon class="fil23" points="24172,-8461 24628,-8243 24172,-8025 "/>
 <polygon class="fil23" points="20073,-8386 20417,-8386 20417,-8101 20073,-8101 "/>
</symbol>
<symbol id="Fm11-27-0" viewBox="34923 -7446 4724 4830">
 <path class="fil16" d="M39554 -5083c-16,-13 -33,-26 -51,-39 -17,-13 -34,-27 -52,-40 -16,-13 -34,-26 -51,-39 -17,-14 -34,-27 -53,-40 -17,-13 -34,-27 -52,-39 -16,-13 -34,-26 -51,-39 -16,-13 -2674,-2126 -2674,-2126 0,0 -614,756 -1646,1004 34,8 2225,1668 2248,1674 -4,7 -8,13 -12,20 -2,0 -4,1 -5,1 1,0 3,1 4,1 -219,371 -569,700 -826,807 34,-1 1023,740 1783,1323l57 0c815,0 1475,-661 1475,-1475l0 -921c-13,-10 -27,-21 -41,-31 -17,-14 -34,-27 -52,-40z"/>
</symbol>
<symbol id="Fm10-25-0" viewBox="17758 -7472 5117 4856">
 <path class="fil16" d="M21731 -7465l-454 99c-9,-12 -124,-104 -161,-106 -84,-6 -94,79 -94,79l0 2 -4 49 -3260 438 293 1659 408 276 5 26 -375 0c0,0 -86,5 -86,88 0,37 275,251 446,378 -83,56 -138,150 -138,258 0,113 60,211 150,266 16,15 33,28 52,39 16,15 33,28 52,39 16,15 33,28 52,39 16,15 33,28 52,40 16,15 33,28 52,39 16,15 33,28 52,39 16,15 33,28 52,39 16,15 33,28 52,39 16,15 33,28 52,39 16,15 33,28 52,39 16,15 33,28 52,40 16,15 33,28 52,39 16,15 33,28 52,40 16,15 33,28 52,39 16,15 33,28 52,39 16,15 33,28 52,40 16,15 33,28 52,39 16,15 33,28 52,39 16,15 33,28 52,39 16,15 33,28 52,39 16,15 33,28 52,39 16,15 33,28 52,39 16,15 33,28 52,39 16,15 33,28 52,39 16,15 33,28 52,39 16,15 33,28 52,40 16,15 33,28 52,39 16,15 33,28 52,39 16,15 33,28 52,39 16,15 33,28 52,39 16,15 33,28 52,39 16,15 33,28 52,40 16,15 33,28 52,39 14,13 29,25 46,35 0,0 443,-1 1022,0 80,0 1550,53 1635,-1475l0 -2521c-602,-450 -1142,-852 -1142,-852l-2 0z"/>
</symbol>
<symbol id="Fm9-75-0" viewBox="11124 -9103 4610 5545">
 <path class="fil2" d="M14178 -8139c164,-164 429,-164 592,0 163,163 163,428 0,592l-592 -592z"/>
 <polygon class="fil20" points="14770,-7547 15734,-6583 15215,-6064 14885,-6393 13027,-8251 12695,-8583 13215,-9103 14178,-8139 "/>
 <polygon class="fil3" points="13027,-8251 14885,-6393 13805,-5793 12999,-4988 11622,-6365 12428,-7170 "/>
 <path class="fil15" d="M12862 -4850l-76 76c-125,125 -274,208 -433,251 -325,89 -688,5 -944,-251 -380,-380 -380,-997 0,-1377l213 -213 1377 1377 -138 138z"/>
 <path class="fil2" d="M12862 -4850l890 1138 -155 155 -1244 -966 0 -1c159,-43 309,-126 433,-251l76 -76z"/>
</symbol>
<symbol id="Fm1-60-0" viewBox="9626 -8275 6871 7138">
 <path class="fil13 str1" d="M9696 -4700c0,-1951 1507,-3533 3365,-3533 1858,0 3365,1582 3365,3533 0,1951 -1507,3533 -3365,3533 -1858,0 -3365,-1582 -3365,-3533z"/>
</symbol>
<symbol id="Fm12-47-0" viewBox="15308 -5869 2330 1497">
 <path class="fil3" d="M15920 -4799l-391 0 0 217 391 0 0 -217zm0 217zm1718 -641l0 639c0,116 -95,212 -212,212l-1906 0c-117,0 -212,-95 -212,-212l0 -639 2330 0z"/>
 <polygon class="fil2" points="17638,-5223 15308,-5223 15308,-5540 17638,-5540 "/>
 <path class="fil3" d="M17638 -5657l0 117 -2330 0 0 -117c0,-116 95,-212 212,-212l1906 0c116,0 212,95 212,212z"/>
 <polygon class="fil20" points="15920,-4582 15529,-4582 15529,-4799 15920,-4799 "/>
</symbol>
<symbol id="Fm1-30-0" viewBox="8347 -19541 6979 7270">
 <path class="fil13 str1" d="M8418 -15921c0,-1982 1531,-3589 3419,-3589 1888,0 3419,1607 3419,3589 0,1982 -1531,3589 -3419,3589 -1888,0 -3419,-1607 -3419,-3589z"/>
</symbol>
<symbol id="Fm4-37-0" viewBox="14020 -15432 440 2859">
 <polygon class="fil5" points="14460,-14831 14458,-14831 14458,-15073 14460,-15073 "/>
 <polygon class="fil24" points="14460,-15432 14460,-15073 14458,-15073 14020,-15073 14020,-15432 "/>
 <polygon class="fil25" points="14460,-12929 14364,-12774 14116,-12774 14020,-12929 14458,-12929 "/>
 <polygon class="fil10" points="14458,-12929 14020,-12929 14020,-14831 14458,-14831 "/>
 <polygon class="fil25" points="14458,-14831 14020,-14831 14020,-15073 14458,-15073 "/>
 <polygon class="fil24" points="14364,-12774 14240,-12573 14116,-12774 "/>
</symbol>
<symbol id="Fm11-29-0" viewBox="17193 -21205 393 3488">
 <polygon class="fil14" points="17390,-17716 17193,-18137 17237,-18438 17542,-18438 17586,-18137 "/>
 <polygon class="fil26" points="17575,-21001 17575,-19757 17542,-19757 17237,-19757 17204,-19757 17204,-21001 17237,-21001 17542,-21001 "/>
 <polygon class="fil27" points="17542,-18438 17237,-18438 17237,-18650 17542,-18650 "/>
 <polygon class="fil26" points="17542,-18650 17237,-18650 17237,-19757 17542,-19757 "/>
 <polygon class="fil14" points="17542,-21205 17542,-21001 17237,-21001 17237,-21067 17237,-21205 "/>
</symbol>
<symbol id="Fm4-30-0" viewBox="17237 -24479 9917 8259">
 <path class="fil3" d="M22427 -17905c0,-128 -104,-232 -232,-232 -128,0 -232,104 -232,232 0,128 104,232 232,232 128,0 232,-104 232,-232zm4727 -489l0 634c0,340 -278,619 -619,619l-3549 0 -1583 0 -3548 0c-340,0 -619,-278 -619,-619l0 -634 9913 0 4 0z"/>
 <path class="fil28" d="M26590 -23829l-8790 0 0 4915 8790 0 0 -4915zm0 4915zm564 -4946l0 5466 -4 0 -9913 0 0 -5466c0,-340 278,-619 619,-619l8680 0c340,0 619,278 619,619z"/>
 <polygon class="fil9" points="26590,-18914 17800,-18914 17800,-23829 26590,-23829 "/>
 <path class="fil3" d="M23884 -16220l-1688 0 -1689 0c681,-278 897,-922 897,-922l1583 0c0,0 217,643 897,922z"/>
 <path class="fil2" d="M22195 -18137c128,0 232,104 232,232 0,128 -104,232 -232,232 -128,0 -232,-104 -232,-232 0,-128 104,-232 232,-232z"/>
</symbol>
<symbol id="Fm3-33-0" viewBox="34865 -23541 4782 4776">
 <path class="fil16" d="M39617 -21660c-9,-7 -17,-13 -26,-20 -9,-7 -17,-13 -26,-20 -9,-7 -17,-13 -26,-20 -9,-7 -18,-14 -27,-20 -9,-7 -17,-13 -26,-20 -9,-7 -17,-13 -26,-20 -9,-7 -17,-14 -26,-20 -9,-7 -17,-13 -26,-20 -9,-7 -17,-13 -26,-20 -9,-7 -17,-13 -26,-20 -9,-7 -17,-13 -26,-20 -9,-7 -17,-13 -26,-20 -9,-7 -17,-13 -26,-20 -9,-7 -17,-13 -26,-20 -9,-7 -17,-13 -26,-20 -9,-7 -18,-14 -27,-20 -9,-7 -17,-13 -26,-20 -9,-7 -17,-13 -26,-20 -9,-7 -17,-13 -26,-20 -9,-7 -17,-13 -26,-20 -9,-7 -18,-14 -27,-20 -9,-7 -17,-13 -26,-20 -9,-7 -17,-13 -26,-20 -9,-7 -17,-13 -26,-20 -9,-7 -17,-13 -26,-20 -9,-7 -17,-13 -26,-20 -9,-7 -17,-13 -26,-20 -9,-7 -17,-13 -26,-20 -9,-7 -17,-13 -26,-20 -9,-7 -18,-14 -26,-20 -9,-7 -17,-13 -26,-20 -9,-7 -17,-14 -26,-20 -9,-7 -17,-13 -26,-20 -9,-7 -17,-13 -26,-20 -9,-7 -18,-14 -27,-20 -9,-7 -17,-13 -26,-20 -9,-7 -17,-13 -26,-20 -9,-7 -18,-14 -27,-20 -9,-7 -17,-13 -26,-20 -9,-7 -17,-13 -26,-20 -9,-7 -17,-13 -26,-20 -9,-7 -17,-13 -26,-20 -9,-7 -17,-13 -26,-20 -9,-7 -17,-13 -26,-20 -9,-7 -17,-13 -26,-20 -9,-7 -18,-14 -26,-20 -9,-7 -17,-13 -26,-20 -9,-7 -17,-13 -26,-20 -9,-7 -17,-13 -26,-20 -9,-7 -17,-14 -26,-20 -9,-7 -17,-13 -26,-20 -9,-7 -17,-13 -26,-20 -9,-7 -17,-13 -26,-20 -9,-7 -17,-13 -26,-20 -9,-7 -17,-13 -26,-20 -9,-7 -18,-14 -26,-20 -9,-7 -17,-13 -26,-20 -9,-7 -17,-13 -26,-20 -9,-7 -17,-13 -26,-20 -9,-7 -18,-14 -26,-20 -9,-7 -17,-13 -26,-20 -9,-7 -17,-13 -26,-20 -9,-7 -17,-14 -26,-20 -9,-7 -17,-13 -26,-20 -9,-7 -17,-13 -26,-20 -9,-7 -17,-13 -26,-20 -9,-7 -18,-13 -26,-20 -9,-7 -17,-13 -26,-20 -9,-7 -17,-14 -26,-20 -9,-7 -17,-13 -26,-20 -9,-7 -17,-13 -26,-20 -9,-7 -17,-13 -26,-20 -9,-7 -17,-13 -26,-20 -9,-7 -18,-14 -26,-20 -9,-7 -17,-13 -26,-20 -9,-7 -17,-13 -26,-20 -9,-7 -18,-14 -26,-20 -286,-219 -645,-348 -1038,-348 -948,0 -1697,749 -1697,1697 0,566 267,1062 685,1369 9,7 17,13 26,20 9,7 17,13 26,20 9,7 17,13 26,20 9,7 17,14 26,20 9,7 17,13 26,20 9,7 18,14 27,20 9,7 17,13 26,20 9,7 17,13 26,20 9,7 17,13 26,20 9,7 17,14 26,20 9,7 17,13 26,20 9,7 17,13 26,20 9,7 17,13 26,20 9,7 17,13 26,20 9,7 17,13 26,20 9,7 17,13 26,20 9,7 17,13 26,20 9,7 17,13 26,20 9,7 18,14 26,20 9,7 17,13 26,20 9,7 17,13 26,20 9,7 18,14 27,20 9,7 17,13 26,20 9,7 18,14 26,20 9,7 17,13 26,20 9,7 18,14 27,20 9,7 17,13 26,20 9,7 17,13 26,20 9,7 17,13 26,20 9,7 17,13 26,20 9,7 18,14 27,20 9,7 17,13 26,20 9,7 17,14 26,20 9,7 17,13 26,20 9,7 17,13 26,20 9,7 17,13 26,20 9,7 17,13 26,20 9,7 17,14 26,20 9,7 17,13 26,20 9,7 17,13 26,20 9,7 17,13 26,20 9,7 18,14 27,20 9,7 17,13 26,20 9,7 17,13 26,20 9,7 17,13 26,20 9,7 17,13 26,20 9,7 18,14 27,20 9,7 17,13 26,19 9,7 17,13 26,20 9,7 18,14 27,20 9,7 17,13 26,20 9,7 17,13 26,20 9,7 17,13 26,20 9,7 17,13 26,20 9,7 18,14 26,20 9,7 17,13 26,20 9,7 17,13 26,20 9,7 17,14 26,20 9,7 17,14 26,20 9,7 17,13 26,20 9,7 18,14 27,20 9,7 17,13 26,20 9,7 17,13 26,20 9,7 18,14 26,20 9,7 17,13 26,20 9,7 17,13 26,20 9,7 18,14 27,20 9,7 17,13 26,20 9,7 18,14 27,20 9,7 17,13 26,20 9,7 17,13 26,20 9,7 17,13 26,20 9,7 17,13 26,20 9,7 17,13 26,20 9,7 17,13 26,20 9,7 17,13 26,20 9,7 17,13 26,20 9,7 17,13 26,20 9,7 17,13 26,20 9,7 18,14 26,20 9,7 17,13 26,20 9,7 17,13 26,20 9,7 18,14 26,20 9,7 17,13 26,20 9,7 17,13 26,20 8,6 16,12 24,18l371 0c815,0 1475,-661 1475,-1475l0 -1397c-1,-1 -2,-2 -4,-3 -9,-7 -17,-13 -26,-20z"/>
</symbol>
<symbol id="Symbol1" viewBox="21897 -24233 3645 5447">
 <polygon class="fil29" points="25542,-18785 21897,-18785 21897,-24233 25542,-24233 "/>
</symbol>
<symbol id="Fm0-28-0" viewBox="7675 -20287 8322 8732">
 <path class="fil13 str0" d="M7728 -15921c0,-2382 1839,-4313 4108,-4313 2269,0 4108,1931 4108,4313 0,2382 -1839,4313 -4108,4313 -2269,0 -4108,-1931 -4108,-4313z"/>
</symbol>
<symbol id="Fm9-40-0" viewBox="29716 -15670 1715 1715">
 <polygon class="fil14" points="31432,-13955 31141,-14060 31020,-14223 31163,-14366 31326,-14245 "/>
 <polygon class="fil26" points="29971,-15590 30558,-15004 30542,-14988 30398,-14844 30383,-14829 29797,-15415 29812,-15431 29956,-15574 "/>
 <polygon class="fil27" points="31063,-14466 31163,-14366 31020,-14223 30920,-14323 "/>
 <polygon class="fil26" points="30542,-14988 31063,-14466 30920,-14323 30398,-14844 "/>
 <polygon class="fil14" points="29860,-15670 29956,-15574 29812,-15431 29781,-15462 29716,-15526 "/>
</symbol>
<symbol id="Fm2-62-0" viewBox="10421 -7470 5282 5540">
 <path class="fil13 str0" d="M10473 -4700c0,-1500 1159,-2717 2588,-2717 1429,0 2588,1216 2588,2717 0,1500 -1159,2717 -2588,2717 -1429,0 -2588,-1216 -2588,-2717z"/>
</symbol>
<symbol id="Fm12-31-0" viewBox="28122 -11721 1338 2111">
 <path class="fil3" d="M29459 -10916l0 701c0,155 -59,310 -178,429 -118,118 -273,177 -429,177l-125 0c-155,0 -310,-59 -429,-177 -118,-119 -177,-273 -177,-429l0 -701 669 0 669 0z"/>
 <path class="fil10" d="M29459 -11357l0 441 -669 0 0 -127 83 0 0 -331 -83 0 0 -346 305 0c93,0 186,35 257,107 71,71 107,164 107,257z"/>
 <polygon class="fil7" points="28873,-11043 28790,-11043 28790,-11374 28873,-11374 "/>
 <path class="fil10" d="M28790 -11043l0 127 -669 0 0 -441c0,-93 36,-186 107,-257 71,-71 164,-107 257,-107l305 0 0 346 -83 0 0 331 83 0z"/>
 <polygon class="fil7" points="28790,-11043 28708,-11043 28708,-11374 28790,-11374 "/>
</symbol>
<symbol id="Fm9-45-0" viewBox="9418 -7551 4905 4922">
 <path class="fil16" d="M12697 -7255c-39,0 -72,24 -84,58 -2,-1 -4,-3 -7,-4 -16,-14 -33,-27 -52,-39 -90,-80 -227,-131 -381,-131 -116,0 -223,29 -307,78 -9,-7 -179,-138 -212,-138l-315 0c-49,0 -89,38 -89,86l0 401 -863 -604 -94 0 0 237 -17 0 -259 -237 -95 0 -506 331 0 656 451 288 -176 2269 1818 1378 1337 0c127,0 249,-16 366,-46 0,0 97,-30 181,-59 493,-230 928,-749 928,-1370l0 -2146c-667,-509 -1326,-1005 -1342,-1005l-284 0z"/>
</symbol>
<symbol id="Fm6-39-0" viewBox="26985 -15262 4375 4594">
 <path class="fil16" d="M27618 -15262l0 0 -633 0 0 2825 2327 1769 573 0c815,0 1475,-660 1475,-1475l0 -1941 -1550 -1178 -2192 0z"/>
</symbol>
<symbol id="Symbol2" viewBox="23893 -3738 315 3134">
 <path class="fil30" d="M24208 -3738c0,0 -315,38 -315,837l0 2134c0,123 276,269 276,54 0,-215 -23,-2034 -23,-2318 0,-284 15,-606 61,-706z"/>
</symbol>
<symbol id="Fm0-23-0" viewBox="18733 -7617 6664 3510">
 <path class="fil6" d="M24958 -4738l0 -2248c0,-161 -132,-292 -292,-292l-4004 0 -731 0 -468 0c-161,0 -292,132 -292,292l0 2248c0,161 132,292 292,292l468 0 731 0 4004 0c161,0 292,-131 292,-292zm438 -2587l0 2926c0,161 -132,292 -292,292l-6079 0c-161,0 -292,-132 -292,-292l0 -2926c0,-161 132,-292 292,-292l6079 0c161,0 292,132 292,292z"/>
 <path class="fil23" d="M24958 -6986l0 2248c0,161 -132,292 -292,292l-4004 0 0 -1261 0 -312 0 -1261 4004 0c161,0 292,131 292,292z"/>
 <polygon class="fil14" points="20662,-4446 19931,-4446 19931,-5706 20662,-5706 "/>
 <polygon class="fil15" points="20662,-5706 19931,-5706 19931,-6018 20662,-6018 "/>
 <polygon class="fil14" points="20662,-6018 19931,-6018 19931,-7278 20662,-7278 "/>
 <path class="fil23" d="M19931 -5706l0 1261 -468 0c-161,0 -292,-131 -292,-292l0 -2248c0,-161 132,-292 292,-292l468 0 0 1261 0 312z"/>
</symbol>
<symbol id="Fm7-36-0" viewBox="20573 -14575 3648 3648">
 <path class="fil3" d="M23702 -12751c0,-720 -584,-1304 -1304,-1304 -720,0 -1304,584 -1304,1304 0,720 584,1304 1304,1304 720,0 1304,-584 1304,-1304zm-1304 -1824c1008,0 1824,816 1824,1824 0,1008 -816,1824 -1824,1824 -1008,0 -1824,-816 -1824,-1824 0,-1008 816,-1824 1824,-1824z"/>
 <path class="fil2" d="M22397 -14055c720,0 1304,584 1304,1304 0,720 -584,1304 -1304,1304 -720,0 -1304,-584 -1304,-1304 0,-720 584,-1304 1304,-1304z"/>
</symbol>
<symbol id="Fm3-28-0" viewBox="21252 -5131 2465 3927">
 <polygon class="fil0" points="23717,-4531 23717,-1203 21252,-1203 21252,-4531 21891,-4531 21891,-4146 21537,-4146 21537,-1588 23432,-1588 23432,-4146 23078,-4146 23078,-4531 "/>
 <path class="fil9" d="M22032 -3762l-280 0 0 280 280 0 0 -280zm0 280zm0 222l-280 0 0 280 280 0 0 -280zm0 281zm0 222l-280 0 0 280 280 0 0 -280zm0 280zm0 222l-280 0 0 280 280 0 0 -280zm0 280zm1401 -2173l0 2557 -1895 0 0 -2557 354 0 0 62 593 0 594 0 0 -62 354 0z"/>
 <polygon class="fil14" points="23078,-4146 23078,-4084 22484,-4084 21891,-4084 21891,-4146 "/>
 <polygon class="fil14" points="23078,-4146 21891,-4146 21891,-4531 23078,-4531 "/>
 <path class="fil14" d="M22558 -4914c0,-41 -33,-74 -74,-74 -40,0 -73,33 -73,74 0,40 33,74 73,74 41,0 74,-33 74,-74zm520 220l0 164 -1187 0 0 -164 339 0c0,0 -34,-436 254,-436 289,0 255,436 255,436l339 0z"/>
 <path class="fil22" d="M22484 -4988c41,0 74,33 74,74 0,40 -33,74 -74,74 -40,0 -73,-33 -73,-74 0,-41 33,-74 73,-74z"/>
 <polygon class="fil3" points="22032,-1973 21751,-1973 21751,-2254 22032,-2254 "/>
 <polygon class="fil3" points="22032,-2476 21751,-2476 21751,-2756 22032,-2756 "/>
 <polygon class="fil3" points="22032,-2979 21751,-2979 21751,-3259 22032,-3259 "/>
 <polygon class="fil2" points="22032,-3482 21751,-3482 21751,-3762 22032,-3762 "/>
</symbol>
<symbol id="Fm1-22-0" viewBox="14548 -21998 198 198">
 <path class="fil3" d="M14548 -21899c0,-55 44,-99 99,-99 55,0 99,44 99,99 0,55 -44,99 -99,99 -55,0 -99,-44 -99,-99z"/>
</symbol>
<symbol id="Fm2-31-0" viewBox="26536 -23598 4836 4844">
 <path class="fil16" d="M31338 -20898c-9,-7 -17,-13 -26,-20 -9,-7 -18,-13 -26,-20 -9,-7 -17,-13 -26,-20 -9,-7 -17,-13 -26,-20 -9,-7 -17,-13 -26,-20 -9,-7 -17,-13 -26,-20 -9,-7 -18,-13 -26,-20 -9,-7 -17,-13 -26,-20 -9,-7 -17,-13 -26,-20 -9,-7 -17,-13 -26,-20 -9,-7 -17,-13 -26,-20 -9,-7 -17,-13 -26,-20 -9,-7 -17,-13 -26,-20 -9,-7 -18,-13 -26,-20 -9,-7 -18,-14 -27,-20 -9,-6 -17,-13 -26,-19 -9,-7 -17,-13 -26,-20 -9,-7 -17,-13 -26,-20 -9,-7 -17,-13 -26,-20 -9,-7 -18,-13 -26,-20 -9,-7 -17,-13 -26,-20 -9,-7 -17,-13 -26,-20 -9,-7 -18,-13 -26,-20 -9,-7 -17,-13 -26,-20 -9,-7 -17,-13 -26,-20 -9,-7 -17,-13 -26,-20 -9,-7 -17,-13 -26,-20 -9,-7 -17,-13 -26,-20 -9,-7 -17,-13 -26,-20 -9,-7 -17,-13 -26,-20 -9,-7 -17,-13 -26,-20 -9,-7 -18,-13 -26,-20 -9,-7 -17,-13 -26,-20 -9,-7 -17,-13 -26,-20 -9,-7 -17,-13 -26,-20 -9,-7 -17,-13 -26,-20 -9,-7 -17,-13 -26,-20 -9,-7 -18,-13 -26,-20 -9,-7 -17,-13 -26,-20 -9,-7 -18,-13 -26,-20 -9,-7 -17,-13 -26,-20 -9,-7 -17,-13 -26,-20 -9,-7 -18,-13 -26,-20 -9,-7 -17,-13 -26,-20 -9,-7 -17,-13 -26,-20 -9,-7 -17,-13 -26,-20 -9,-7 -17,-13 -26,-20 -9,-7 -17,-13 -26,-20 -9,-7 -18,-13 -27,-20 -9,-7 -17,-13 -26,-20 -9,-7 -17,-13 -26,-20 -9,-7 -17,-13 -26,-20 -9,-7 -17,-13 -26,-20 -9,-7 -18,-13 -27,-20 -9,-7 -17,-13 -26,-20 -9,-7 -17,-13 -26,-20 -9,-7 -17,-13 -26,-20 -9,-7 -17,-13 -26,-20 -9,-7 -18,-13 -26,-20 -9,-7 -17,-13 -26,-20 -9,-7 -17,-13 -26,-20 -9,-7 -17,-13 -26,-20 -9,-7 -18,-13 -26,-20 -9,-7 -17,-13 -26,-20 -9,-7 -17,-13 -26,-20 -9,-7 -17,-13 -26,-20 -9,-7 -17,-13 -26,-20 -9,-7 -17,-13 -26,-20 -9,-7 -17,-13 -26,-20 -9,-7 -17,-13 -26,-20 -9,-7 -18,-13 -26,-20 -9,-7 -17,-13 -26,-20 -9,-7 -17,-13 -26,-20 -9,-7 -18,-13 -26,-20 -9,-7 -17,-13 -26,-20 -9,-7 -18,-13 -27,-20 -9,-7 -17,-13 -26,-20 -9,-7 -17,-13 -26,-20 -9,-7 -18,-13 -26,-20 -9,-7 -17,-13 -26,-20 -9,-7 -17,-13 -26,-20 -9,-7 -17,-13 -26,-20 -9,-7 -18,-13 -26,-20 -9,-7 -17,-13 -26,-20 -9,-7 -17,-13 -26,-20 -9,-7 -17,-13 -26,-20 -9,-7 -17,-13 -26,-20 -9,-7 -17,-13 -26,-20 -9,-7 -17,-13 -26,-20 -9,-7 -17,-13 -26,-20 -9,-7 -17,-13 -26,-20 -9,-7 -17,-13 -26,-20 -9,-7 -17,-13 -26,-20 -9,-7 -17,-13 -26,-20 -9,-7 -17,-13 -26,-20 -9,-7 -18,-13 -26,-20 -390,-297 -868,-521 -1406,-657 -409,-104 -745,-129 -882,-136l0 586c8,1 2646,2006 2646,2006 43,3 104,7 179,16 18,70 34,141 48,213 -2,-2 -5,-4 -7,-5 -9,-7 -17,-13 -26,-20 -9,-7 -17,-13 -26,-20 -9,-7 -17,-14 -26,-20 -9,-7 -17,-13 -26,-20 -9,-7 -17,-13 -26,-20 -9,-7 -17,-13 -26,-20 -9,-7 -17,-13 -26,-20 -9,-7 -17,-13 -26,-20 -9,-7 -17,-13 -26,-20 -9,-7 -17,-13 -26,-20 -9,-7 -18,-14 -27,-20 -9,-7 -17,-13 -26,-20 -9,-7 -17,-13 -26,-20 -9,-7 -18,-14 -27,-20 -9,-7 -17,-13 -26,-20 -9,-7 -17,-13 -26,-20 -9,-7 -17,-13 -26,-20 -9,-7 -17,-13 -26,-20 -9,-7 -17,-13 -26,-20 -9,-7 -18,-14 -27,-20 -9,-6 -17,-13 -25,-19 -9,-7 -18,-14 -27,-20 -9,-6 -17,-13 -26,-20 -9,-7 -17,-13 -26,-20 -9,-7 -17,-13 -26,-20 -9,-7 -17,-13 -26,-20 -9,-7 -17,-13 -26,-20 -9,-7 -17,-13 -26,-20 -9,-7 -17,-13 -26,-20 -9,-7 -17,-13 -26,-20 -9,-7 -17,-13 -26,-20 -9,-7 -17,-13 -26,-20 -9,-7 -18,-14 -27,-20 -9,-7 -17,-13 -26,-20 -9,-7 -17,-13 -26,-20 -9,-7 -17,-13 -26,-20 -9,-7 -17,-13 -26,-20 -9,-7 -17,-13 -26,-20 -9,-7 -18,-14 -26,-20 -9,-7 -17,-13 -26,-20 -9,-7 -17,-13 -26,-20 -9,-7 -17,-13 -26,-20 -9,-7 -17,-13 -26,-20 -9,-6 -17,-13 -26,-19 -9,-7 -18,-14 -27,-20 -9,-7 -17,-13 -26,-20 -9,-7 -17,-13 -26,-20 -9,-7 -17,-13 -26,-20 -9,-7 -17,-13 -26,-20 -9,-7 -17,-13 -26,-20 -9,-7 -18,-13 -26,-20 -9,-6 -17,-13 -26,-20 -9,-7 -17,-14 -26,-20 -261,-197 -580,-342 -940,-426 -231,-54 -427,-70 -538,-75l0 586c8,0 1650,1251 1650,1251 2,0 5,0 7,0 15,71 25,145 32,221 -4,-3 -8,-6 -12,-9 -8,-7 -17,-13 -26,-20 -8,-7 -17,-13 -26,-20 -8,-7 -17,-13 -26,-20 -8,-7 -17,-13 -26,-20 -9,-7 -17,-14 -26,-20 -8,-7 -17,-13 -26,-20 -8,-7 -17,-13 -26,-20 -8,-7 -17,-13 -26,-20 -8,-7 -17,-13 -26,-20 -8,-7 -17,-13 -26,-20 -8,-7 -17,-14 -26,-20 -8,-7 -17,-13 -26,-20 -8,-7 -17,-13 -26,-20 -8,-7 -17,-13 -26,-20 -8,-7 -17,-14 -26,-20 -8,-7 -17,-13 -26,-20 -8,-7 -17,-14 -26,-20 -8,-7 -17,-13 -26,-20 -9,-7 -17,-14 -26,-20 -8,-7 -17,-13 -26,-20 -8,-7 -17,-13 -26,-20 -8,-7 -17,-13 -26,-20 -8,-7 -17,-13 -26,-20 -8,-7 -17,-13 -26,-20 -9,-7 -17,-14 -26,-20 -8,-7 -17,-13 -26,-20 -8,-7 -17,-13 -26,-20 -8,-7 -17,-13 -26,-20 -8,-7 -17,-13 -26,-20 -8,-7 -17,-13 -26,-20 -8,-7 -17,-13 -26,-20 -8,-7 -17,-13 -26,-20 -8,-7 -17,-13 -26,-20 -81,-68 -185,-108 -299,-108 -259,0 -468,210 -468,469 0,157 77,296 195,381 8,7 17,13 26,20 8,7 17,13 26,20 8,7 17,13 26,20 8,7 17,13 26,20 8,7 17,13 26,20 8,7 17,13 26,20 8,7 17,14 26,20 8,7 17,13 26,20 8,7 17,13 26,20 8,7 17,13 26,20 8,7 17,13 26,20 9,7 17,14 26,20 8,7 17,13 26,20 8,7 17,14 26,20 8,7 17,13 26,20 8,7 17,14 26,20 8,7 17,13 26,20 8,7 17,13 26,20 8,7 17,13 26,20 8,7 17,13 26,20 8,7 17,13 26,20 8,7 17,13 26,20 8,7 17,13 26,20 8,7 17,14 26,20 8,7 17,13 26,20 8,7 17,13 26,20 8,7 17,13 26,20 8,7 17,13 26,20 8,7 17,13 26,20 8,7 17,13 26,20 8,7 17,13 26,20 8,7 17,13 26,20 8,7 17,13 26,20 8,7 17,13 26,20 8,7 17,13 26,20 8,7 17,14 26,20 8,7 17,13 26,20 8,7 17,13 26,20 8,7 17,14 26,20 8,7 17,13 26,20 8,7 17,13 26,20 8,7 17,13 26,20 8,7 17,13 26,20 8,7 17,13 26,20 8,7 17,13 26,20 8,7 17,13 26,20 8,7 17,14 26,20 8,7 17,13 26,20 8,7 17,13 26,20 8,7 17,14 26,20 8,7 17,13 26,20 8,7 17,13 26,20 8,7 17,13 26,20 8,7 17,13 26,20 8,7 17,13 26,20 8,7 17,13 26,20 8,7 17,13 26,20 8,7 17,14 26,20 8,7 17,13 26,20 8,7 17,13 26,20 8,7 17,14 26,20 8,7 17,13 26,20 8,7 17,13 26,20 8,7 17,14 26,20 8,7 17,13 26,20 8,7 17,13 26,20 9,7 17,14 26,20 8,7 17,13 26,20 8,7 17,13 26,20 8,7 17,13 26,20 8,7 17,13 26,20 8,7 17,13 26,20 7,6 14,11 21,16l1213 0c815,0 1475,-659 1475,-1472l0 -647c-3,-2 -5,-4 -8,-6 -9,-7 -17,-13 -26,-20z"/>
</symbol>
<symbol id="Fm2-40-0" viewBox="26225 -18686 5272 5529">
 <path class="fil13 str0" d="M26278 -15921c0,-1498 1156,-2712 2583,-2712 1427,0 2583,1214 2583,2712 0,1498 -1156,2712 -2583,2712 -1426,0 -2583,-1214 -2583,-2712z"/>
</symbol>
<symbol id="Fm1-38-0" viewBox="25432 -19490 6858 7120">
 <path class="fil13 str1" d="M25503 -15921c0,-1947 1504,-3526 3359,-3526 1855,0 3359,1579 3359,3526 0,1947 -1504,3526 -3359,3526 -1855,0 -3359,-1579 -3359,-3526z"/>
</symbol>
<symbol id="Fm3-63-0" viewBox="8965 -8998 8193 8596">
 <path class="fil31 str2" d="M9018 -4700c0,-2344 1810,-4245 4044,-4245 2233,0 4044,1901 4044,4245 0,2344 -1810,4245 -4044,4245 -2233,0 -4044,-1900 -4044,-4245z"/>
 <path class="fil31 str3" d="M9696 -4700c0,-1951 1507,-3533 3365,-3533 1858,0 3365,1582 3365,3533 0,1951 -1507,3533 -3365,3533 -1858,0 -3365,-1582 -3365,-3533z"/>
 <path class="fil31 str2" d="M10473 -4700c0,-1500 1159,-2717 2588,-2717 1429,0 2588,1216 2588,2717 0,1500 -1159,2717 -2588,2717 -1429,0 -2588,-1216 -2588,-2717z"/>
</symbol>
<symbol id="Fm2-55-0" viewBox="22991 -9609 9228 9682">
 <path class="fil31 str2" d="M23044 -4768c0,-2644 2042,-4788 4561,-4788 2519,0 4561,2144 4561,4788 0,2644 -2042,4788 -4561,4788 -2519,0 -4561,-2144 -4561,-4788z"/>
 <path class="fil31 str3" d="M23809 -4768c0,-2201 1699,-3985 3796,-3985 2096,0 3796,1784 3796,3985 0,2201 -1699,3985 -3796,3985 -2096,0 -3796,-1784 -3796,-3985z"/>
 <path class="fil31 str2" d="M24686 -4768c0,-1692 1307,-3064 2919,-3064 1612,0 2919,1372 2919,3064 0,1692 -1307,3064 -2919,3064 -1612,0 -2919,-1372 -2919,-3064z"/>
</symbol>
<symbol id="Fm0-33-0" viewBox="7675 -20287 8322 8732">
 <path class="fil31 str2" d="M7728 -15921c0,-2382 1839,-4313 4108,-4313 2269,0 4108,1931 4108,4313 0,2382 -1839,4313 -4108,4313 -2269,0 -4108,-1931 -4108,-4313z"/>
 <path class="fil31 str3" d="M8418 -15921c0,-1982 1531,-3589 3419,-3589 1888,0 3419,1607 3419,3589 0,1982 -1531,3589 -3419,3589 -1888,0 -3419,-1607 -3419,-3589z"/>
 <path class="fil31 str2" d="M9207 -15921c0,-1525 1177,-2760 2629,-2760 1452,0 2629,1236 2629,2760 0,1525 -1177,2760 -2629,2760 -1452,0 -2629,-1236 -2629,-2760z"/>
</symbol>
<symbol id="Fm1-41-0" viewBox="24773 -20211 8177 8579">
 <path class="fil31 str2" d="M24826 -15921c0,-2340 1807,-4237 4036,-4237 2229,0 4036,1897 4036,4237 0,2340 -1807,4237 -4036,4237 -2229,0 -4036,-1897 -4036,-4237z"/>
 <path class="fil31 str3" d="M25503 -15921c0,-1947 1504,-3526 3359,-3526 1855,0 3359,1579 3359,3526 0,1947 -1504,3526 -3359,3526 -1855,0 -3359,-1579 -3359,-3526z"/>
 <path class="fil31 str2" d="M26278 -15921c0,-1498 1156,-2712 2583,-2712 1427,0 2583,1214 2583,2712 0,1498 -1156,2712 -2583,2712 -1426,0 -2583,-1214 -2583,-2712z"/>
</symbol>
 <g id="Layer_x0020_1">
  <metadata id="CorelCorpID_0Corel-Layer"/>
  <path class="fil32" d="M2072 1374l0 -720 624 360 -624 360zm-137 -957l0 1193 1034 -597 -1034 -597z"/>
  <path class="fil32" d="M8248 1925l0 -720 624 360 -624 360zm-137 -957l0 1193 1034 -597 -1034 -597z"/>
  <path class="fil33" d="M3071 2177l0 -458 397 229 -397 229zm-87 -609l0 759 658 -380 -658 -380z"/>
  <path class="fil33" d="M10027 1000l0 -458 397 229 -397 229zm-87 -609l0 759 658 -380 -658 -380z"/>
  <path class="fil34" d="M4848 881l0 -458 397 229 -397 229zm-87 -609l0 759 658 -380 -658 -380z"/>
  <path class="fil35" d="M4400 1697l0 -291 252 146 -252 146zm-55 -387l0 483 418 -241 -418 -241z"/>
  <path class="fil36" d="M5985 1416l0 -291 252 146 -252 146zm-55 -387l0 483 418 -241 -418 -241z"/>
  <path class="fil37" d="M7231 784l0 -291 252 146 -252 146zm-55 -387l0 483 418 -241 -418 -241z"/>
  <path class="fil34" d="M11517 731l0 -291 252 146 -252 146zm-55 -387l0 483 418 -241 -418 -241z"/>
  <path class="fil35" d="M6887 2160l0 -291 252 146 -252 146zm-55 -387l0 483 418 -241 -418 -241z"/>
  <path class="fil35" d="M468 1406l0 -291 252 146 -252 146zm-55 -387l0 483 418 -241 -418 -241z"/>
  <path class="fil35" d="M11155 1917l0 -458 397 229 -397 229zm-87 -609l0 759 658 -380 -658 -380z"/>
 </g>
</svg>
