<?xml version="1.0" encoding="UTF-8"?>
<!DOCTYPE svg PUBLIC "-//W3C//DTD SVG 1.1//EN" "http://www.w3.org/Graphics/SVG/1.1/DTD/svg11.dtd">
<!-- Creator: CorelDRAW X6 -->
<svg xmlns="http://www.w3.org/2000/svg" xml:space="preserve" width="4.2332mm" height="5.08mm" version="1.1" style="shape-rendering:geometricPrecision; text-rendering:geometricPrecision; image-rendering:optimizeQuality; fill-rule:evenodd; clip-rule:evenodd"
viewBox="0 0 423 508"
 xmlns:xlink="http://www.w3.org/1999/xlink">
 <defs>
  <style type="text/css">
   <![CDATA[
    .str2 {stroke:#302D2D;stroke-width:105.83;stroke-linecap:round;stroke-linejoin:round;stroke-opacity:0.200000}
    .str0 {stroke:#302D2D;stroke-width:105.83;stroke-linecap:round;stroke-linejoin:round}
    .str3 {stroke:#302D2D;stroke-width:141.11;stroke-linecap:round;stroke-linejoin:round;stroke-dasharray:423.300000 1100.580000;stroke-opacity:0.200000}
    .str1 {stroke:#302D2D;stroke-width:141.11;stroke-linecap:round;stroke-linejoin:round;stroke-dasharray:423.300000 1100.580000}
    .fil11 {fill:none;fill-rule:nonzero}
    .fil31 {fill:none;fill-rule:nonzero}
    .fil34 {fill:#3E4A55;fill-rule:nonzero}
    .fil32 {fill:#ED757E;fill-rule:nonzero}
    .fil16 {fill:#00D9CE;fill-rule:nonzero}
    .fil12 {fill:#04C4D5;fill-rule:nonzero}
    .fil8 {fill:#231F20;fill-rule:nonzero}
    .fil28 {fill:#297391;fill-rule:nonzero}
    .fil22 {fill:#302D2D;fill-rule:nonzero}
    .fil14 {fill:#474747;fill-rule:nonzero}
    .fil30 {fill:#4C4949;fill-rule:nonzero}
    .fil19 {fill:#4C4C4C;fill-rule:nonzero}
    .fil5 {fill:#523C60;fill-rule:nonzero}
    .fil26 {fill:#633900;fill-rule:nonzero}
    .fil21 {fill:#645B75;fill-rule:nonzero}
    .fil3 {fill:#666666;fill-rule:nonzero}
    .fil10 {fill:#697271;fill-rule:nonzero}
    .fil25 {fill:#6DAF75;fill-rule:nonzero}
    .fil23 {fill:#70DDE0;fill-rule:nonzero}
    .fil13 {fill:#71BDC1;fill-rule:nonzero}
    .fil29 {fill:#86CBED;fill-rule:nonzero}
    .fil4 {fill:#92E1B5;fill-rule:nonzero}
    .fil24 {fill:#A0804D;fill-rule:nonzero}
    .fil20 {fill:#A391C3;fill-rule:nonzero}
    .fil18 {fill:#C94C27;fill-rule:nonzero}
    .fil0 {fill:lightgrey;fill-rule:nonzero}
    .fil27 {fill:#E8CF69;fill-rule:nonzero}
    .fil17 {fill:#EBB167;fill-rule:nonzero}
    .fil2 {fill:#EE7046;fill-rule:nonzero}
    .fil6 {fill:#F15A24;fill-rule:nonzero}
    .fil15 {fill:#F2D0D3;fill-rule:nonzero}
    .fil1 {fill:whitesmoke;fill-rule:nonzero}
    .fil9 {fill:#FBB03B;fill-rule:nonzero}
    .fil7 {fill:#FBD260;fill-rule:nonzero}
    .fil38 {fill:#AC96AB;fill-rule:nonzero}
    .fil37 {fill:#C3B5C2;fill-rule:nonzero}
    .fil33 {fill:#CD5C65;fill-rule:nonzero}
    .fil36 {fill:#DF8C92;fill-rule:nonzero}
    .fil35 {fill:#F1A7AC;fill-rule:nonzero}
   ]]>
  </style>
 </defs>
<symbol id="Fm6-41-0" viewBox="23985 -17240 693 693">
 <path class="fil0" d="M23985 -16893c0,-192 155,-347 347,-347 191,0 347,155 347,347 0,191 -155,347 -347,347 -192,0 -347,-155 -347,-347z"/>
</symbol>
<symbol id="Fm3-35-0" viewBox="4048 -17021 3009 4004">
 <polygon class="fil1" points="7057,-16628 7057,-13182 6795,-13182 6795,-14601 6795,-14905 6795,-15191 6795,-16628 "/>
 <path class="fil2" d="M6795 -13182l0 165 -2747 0 0 -1888 1097 0c53,150 175,303 448,303l1203 0 0 1420z"/>
 <path class="fil3" d="M6795 -14905l0 303 -1203 0c-273,0 -395,-153 -448,-303l1651 0z"/>
 <path class="fil3" d="M6795 -15191l0 286 -1651 0c-51,-144 -40,-286 -40,-286l1691 0z"/>
 <path class="fil4" d="M6795 -16628l0 1437 -1691 0c0,0 -12,141 40,286l-1097 0 0 -1888 386 0 0 991 296 -167 296 167 0 -991 1769 0 0 165z"/>
 <path class="fil5" d="M4834 -16272l104 -101 -144 -21 -65 -130 -64 130 -144 21 104 101 -24 144 129 -68 129 68 -25 -144zm192 -521l0 991 -296 -167 -296 167 0 -991 592 0z"/>
 <polygon class="fil5" points="5026,-16793 4434,-16793 4434,-17021 5026,-17021 "/>
 <polygon class="fil1" points="4939,-16374 4834,-16272 4859,-16129 4730,-16197 4602,-16129 4626,-16272 4522,-16374 4666,-16395 4730,-16525 4795,-16395 "/>
</symbol>
<symbol id="Fm7-36-0" viewBox="14647 -15591 3648 3648">
 <path class="fil1" d="M17775 -13767c0,-720 -584,-1304 -1304,-1304 -720,0 -1304,584 -1304,1304 0,720 584,1304 1304,1304 720,0 1304,-584 1304,-1304zm-1304 -1824c1008,0 1824,816 1824,1824 0,1008 -816,1824 -1824,1824 -1008,0 -1824,-816 -1824,-1824 0,-1008 816,-1824 1824,-1824z"/>
 <path class="fil6" d="M16471 -15071c720,0 1304,584 1304,1304 0,720 -584,1304 -1304,1304 -720,0 -1304,-584 -1304,-1304 0,-720 584,-1304 1304,-1304z"/>
</symbol>
<symbol id="Fm10-43-0" viewBox="2649 -9766 2330 1497">
 <path class="fil1" d="M3261 -8696l-391 0 0 217 391 0 0 -217zm0 217zm1718 -641l0 639c0,116 -95,212 -212,212l-1906 0c-116,0 -212,-95 -212,-212l0 -639 2330 0z"/>
 <polygon class="fil6" points="4979,-9120 2649,-9120 2649,-9437 4979,-9437 "/>
 <path class="fil1" d="M4979 -9554l0 116 -2330 0 0 -116c0,-117 95,-212 212,-212l1906 0c116,0 212,95 212,212z"/>
 <polygon class="fil7" points="3261,-8479 2870,-8479 2870,-8696 3261,-8696 "/>
</symbol>
<symbol id="Fm9-45-0" viewBox="3492 -8567 4905 4922">
 <path class="fil8" d="M6770 -8271c-39,0 -72,24 -84,58 -2,-1 -4,-3 -7,-4 -16,-14 -33,-27 -52,-39 -90,-80 -227,-131 -381,-131 -116,0 -223,29 -307,78 -9,-7 -179,-138 -212,-138l-315 0c-49,0 -89,38 -89,86l0 401 -863 -604 -94 0 0 237 -17 0 -259 -237 -95 0 -506 331 0 656 451 288 -176 2269 1818 1378 1337 0c127,0 249,-16 366,-46 0,0 97,-30 181,-59 493,-230 928,-749 928,-1370l0 -2146c-667,-509 -1326,-1005 -1342,-1005l-284 0z"/>
</symbol>
<symbol id="Fm5-39-0" viewBox="23697 -17439 1612 2569">
 <path class="fil9" d="M25309 -16527c0,199 -106,412 -257,676 -127,222 -110,414 -110,414l-189 0 147 -939 -105 0 -79 165 -60 -165 -73 163 -80 -163 -80 163 -74 -163 -60 165 -79 -165 -105 0 147 939 -189 0c0,0 17,-192 -110,-414 -151,-265 -257,-477 -257,-676 0,-199 24,-913 806,-913 782,0 806,713 806,913z"/>
 <polygon class="fil1" points="24020,-15297 24020,-15436 24064,-15436 24253,-15436 24754,-15436 24943,-15436 24987,-15436 24987,-15020 24903,-15020 24103,-15020 24020,-15020 24020,-15163 "/>
 <polygon class="fil10" points="24903,-14870 24103,-14870 24103,-15020 24903,-15020 "/>
 <polygon class="fil9" points="24901,-16375 24754,-15436 24253,-15436 24106,-16375 24211,-16375 24290,-16210 24350,-16375 24424,-16212 24504,-16375 24584,-16212 24657,-16375 24717,-16210 24796,-16375 "/>
</symbol>
<symbol id="Fm12-29-0" viewBox="20738 -8459 4714 4815">
 <path class="fil8" d="M24022 -7455c-238,-57 -454,-142 -645,-238 -10,-11 -11,-6 -11,-6 -6,-3 -13,-6 -19,-10 -474,-234 -969,-751 -969,-751l181 656c-2609,203 -1930,1688 -929,2431 17,13 34,26 52,39 17,14 35,27 53,40 17,13 34,26 51,39 17,14 35,27 53,40 17,13 34,26 51,39 17,13 35,27 52,40 17,13 34,26 52,39 17,13 34,26 52,39 17,13 35,27 52,40 17,13 34,26 51,39 17,14 35,27 53,40 17,13 34,26 51,39 18,14 35,27 53,40 17,13 34,26 52,39 17,13 34,26 51,39 17,13 35,27 52,40 17,13 35,27 52,40 17,14 35,27 52,40 17,13 34,26 51,39 17,13 34,27 52,39 17,13 34,26 51,39 18,14 35,27 53,40 17,13 35,26 52,39 17,13 34,26 51,39 17,13 34,26 51,39 17,13 35,27 52,40 17,14 35,27 53,40 17,13 34,26 51,39 17,13 35,27 53,40 17,13 34,26 51,39 17,13 35,27 52,39 17,14 35,27 53,40 17,13 34,26 51,39 17,13 35,27 52,39 17,13 34,26 51,39 17,14 35,27 53,40 17,13 35,27 52,40 17,13 34,26 51,39 17,14 35,27 52,40 17,13 34,26 51,39 17,14 35,27 53,40 17,13 34,26 51,39 17,13 35,27 52,40 15,11 29,22 44,33l73 0c815,0 1475,-660 1475,-1475l0 -1237c-699,-531 -1438,-1097 -1429,-1099z"/>
</symbol>
<symbol id="Fm10-25-0" viewBox="11831 -8488 5117 4856">
 <path class="fil8" d="M15805 -8481l-454 99c-9,-12 -124,-104 -161,-106 -84,-6 -94,79 -94,79l0 2 -4 49 -3260 438 293 1659 408 276 5 26 -375 0c0,0 -86,5 -86,88 0,37 275,251 446,378 -83,56 -138,150 -138,258 0,113 60,211 150,266 16,15 33,28 52,39 16,15 33,28 52,39 16,15 33,28 52,39 16,15 33,28 52,40 16,15 33,28 52,39 16,15 33,28 52,39 16,15 33,28 52,39 16,15 33,28 52,39 16,15 33,28 52,39 16,15 33,28 52,39 16,15 33,28 52,40 16,15 33,28 52,39 16,15 33,28 52,40 16,15 33,28 52,39 16,15 33,28 52,39 16,15 33,28 52,40 16,15 33,28 52,39 16,15 33,28 52,39 16,15 33,28 52,39 16,15 33,28 52,39 16,15 33,28 52,39 16,15 33,28 52,39 16,15 33,28 52,39 16,15 33,28 52,39 16,15 33,28 52,39 16,15 33,28 52,40 16,15 33,28 52,39 16,15 33,28 52,39 16,15 33,28 52,39 16,15 33,28 52,39 16,15 33,28 52,39 16,15 33,28 52,40 16,15 33,28 52,39 14,13 29,25 46,35 0,0 443,-1 1022,0 80,0 1550,53 1635,-1475l0 -2521c-602,-450 -1142,-852 -1142,-852l-2 0z"/>
</symbol>
<symbol id="Fm2-62-0" viewBox="4494 -8486 5282 5540">
 <path class="fil11 str0" d="M4547 -5716c0,-1500 1159,-2717 2588,-2717 1429,0 2588,1216 2588,2717 0,1500 -1159,2717 -2588,2717 -1429,0 -2588,-1216 -2588,-2717z"/>
</symbol>
<symbol id="Fm7-71-0" viewBox="21468 -16087 2392 2392">
 <path class="fil12" d="M21707 -14493l280 0c-22,-101 -35,-208 -40,-319l-317 0c9,113 35,219 76,319zm280 -797l-280 0c-41,99 -68,206 -76,319l317 0c5,-111 18,-219 40,-319zm230 1334c-78,-102 -142,-231 -189,-377l-238 0c103,162 251,293 427,377zm-188 -1493c46,-146 110,-275 188,-377 -175,83 -323,215 -427,377l239 0zm555 0l0 -468c-164,44 -305,220 -391,468l391 0zm0 479l0 -319 -436 0c-22,99 -37,206 -41,319l477 0zm0 478l0 -319 -477 0c5,113 19,219 41,319l436 0zm0 628l0 -468 -391 0c86,248 227,424 391,468zm549 -468l-391 0 0 468c165,-44 305,-220 391,-468zm-391 -1117l391 0c-86,-248 -226,-424 -391,-468l0 468zm477 638l-477 0 0 319 436 0c23,-100 37,-206 41,-319zm-477 -159l477 0c-5,-113 -18,-220 -41,-319l-436 0 0 319zm794 638l-238 0c-47,146 -112,274 -189,377 175,-83 323,-215 427,-377zm-238 -1117l238 0c-104,-162 -251,-293 -427,-377 78,102 142,231 189,377zm397 638l-317 0c-5,111 -18,218 -40,319l280 0c41,-100 68,-206 76,-319zm-317 -159l317 0c-8,-113 -35,-220 -76,-319l-280 0c22,100 35,208 40,319zm480 0l0 159 -3 0c-39,597 -516,1074 -1114,1113l0 3 -159 0 0 -3c-597,-39 -1074,-516 -1114,-1113l-2 0 0 -159 2 0c40,-597 517,-1074 1114,-1114l0 -2 159 0 0 2c597,40 1075,517 1114,1114l3 0z"/>
</symbol>
<symbol id="Fm0-19-0" viewBox="148673 -117979 9758 9758">
 <path class="fil13" d="M157418 -116076c-1644,-2135 -4707,-2534 -6842,-890 -2135,1644 -2533,4707 -889,6842 1644,2135 4707,2533 6842,890 2135,-1644 2533,-4707 890,-6842z"/>
</symbol>
<symbol id="Fm4-35-0" viewBox="3361 -16202 5030 4518">
 <path class="fil8" d="M3361 -16202l0 2878 2158 1640 1396 0c815,0 1475,-660 1475,-1475l0 -2194 -1117 -849 -3913 0z"/>
</symbol>
<symbol id="Fm11-27-0" viewBox="28996 -8462 4724 4830">
 <path class="fil8" d="M33627 -6099c-16,-13 -33,-26 -51,-39 -17,-13 -34,-27 -52,-40 -16,-13 -34,-26 -51,-39 -17,-14 -34,-27 -53,-40 -17,-13 -34,-27 -52,-39 -16,-13 -34,-26 -51,-39 -16,-13 -2674,-2126 -2674,-2126 0,0 -614,756 -1646,1004 34,8 2225,1668 2248,1674 -4,7 -8,13 -12,20 -2,0 -4,1 -5,1 1,0 3,1 4,1 -219,371 -569,700 -826,807 34,-1 1023,740 1783,1323l57 0c815,0 1475,-661 1475,-1475l0 -921c-13,-10 -27,-21 -41,-31 -17,-14 -34,-27 -52,-40z"/>
</symbol>
<symbol id="Fm0-58-0" viewBox="3038 -10014 8193 8596">
 <path class="fil11 str0" d="M3091 -5716c0,-2344 1810,-4245 4044,-4245 2233,0 4044,1901 4044,4245 0,2344 -1810,4245 -4044,4245 -2233,0 -4044,-1900 -4044,-4245z"/>
</symbol>
<symbol id="Fm1-30-0" viewBox="2420 -20557 6979 7270">
 <path class="fil11 str1" d="M2491 -16937c0,-1982 1531,-3589 3419,-3589 1888,0 3419,1607 3419,3589 0,1982 -1531,3589 -3419,3589 -1888,0 -3419,-1607 -3419,-3589z"/>
</symbol>
<symbol id="Fm8-38-0" viewBox="9301 -7298 1891 1891">
 <polygon class="fil9" points="11192,-7298 11192,-5956 10643,-5956 10643,-5407 9301,-5407 9301,-7298 "/>
 <polygon class="fil1" points="11192,-5956 10643,-5407 10643,-5956 "/>
</symbol>
<symbol id="Fm4-30-0" viewBox="11310 -25495 9917 8259">
 <path class="fil1" d="M16501 -18921c0,-128 -104,-232 -232,-232 -128,0 -232,104 -232,232 0,128 104,232 232,232 128,0 232,-104 232,-232zm4727 -489l0 634c0,340 -278,619 -619,619l-3549 0 -1583 0 -3548 0c-340,0 -619,-278 -619,-619l0 -634 9913 0 4 0z"/>
 <path class="fil14" d="M20664 -24845l-8790 0 0 4915 8790 0 0 -4915zm0 4915zm564 -4946l0 5466 -4 0 -9913 0 0 -5466c0,-340 278,-619 619,-619l8680 0c340,0 619,278 619,619z"/>
 <polygon class="fil12" points="20664,-19930 11874,-19930 11874,-24845 20664,-24845 "/>
 <path class="fil1" d="M17957 -17236l-1688 0 -1689 0c681,-278 897,-922 897,-922l1583 0c0,0 217,643 897,922z"/>
 <path class="fil6" d="M16269 -19153c128,0 232,104 232,232 0,128 -104,232 -232,232 -128,0 -232,-104 -232,-232 0,-128 104,-232 232,-232z"/>
</symbol>
<symbol id="Fm7-41-0" viewBox="29697 -15603 4006 3901">
 <path class="fil8" d="M33670 -13589c-8,-7 -17,-14 -26,-20 -8,-7 -17,-14 -26,-20 -8,-7 -17,-14 -26,-20 -8,-7 -17,-14 -26,-20 -8,-7 -17,-14 -26,-20 -8,-7 -17,-14 -26,-20 -8,-7 -17,-14 -26,-20 -9,-7 -17,-14 -27,-20 -8,-7 -17,-14 -26,-20 -8,-7 -17,-14 -26,-20 -8,-7 -17,-14 -26,-20 -8,-7 -17,-14 -26,-20 -8,-7 -17,-14 -26,-20 -8,-7 -17,-14 -26,-20 -8,-7 -17,-14 -26,-20 -8,-7 -17,-14 -26,-20 -8,-7 -17,-14 -26,-20 -8,-7 -17,-14 -26,-20 -8,-7 -17,-14 -26,-20 -8,-7 -17,-14 -26,-20 -8,-7 -17,-14 -26,-20 -8,-7 -17,-14 -26,-20 -8,-7 -17,-14 -26,-20 -8,-7 -17,-14 -26,-20 -8,-7 -17,-14 -26,-20 -8,-7 -17,-14 -26,-20 -8,-7 -17,-14 -26,-20 -8,-7 -17,-14 -26,-20 -8,-7 -17,-14 -26,-20 -9,-7 -17,-14 -26,-20 -8,-7 -17,-14 -26,-20 -8,-7 -17,-14 -26,-20 -8,-7 -17,-14 -26,-20 -8,-7 -17,-14 -26,-20 -8,-7 -17,-14 -26,-20 -8,-7 -17,-14 -26,-20 -8,-7 -17,-14 -26,-20 -9,-7 -17,-14 -27,-20 -8,-7 -17,-14 -26,-20 -8,-7 -17,-14 -26,-20 -8,-7 -17,-14 -26,-20 -8,-7 -17,-14 -26,-20 -8,-7 -17,-14 -26,-20 -8,-7 -17,-14 -26,-20 -8,-7 -17,-14 -26,-20 -8,-7 -17,-14 -26,-20 -8,-7 -17,-14 -26,-20 -8,-7 -17,-14 -26,-20 -8,-7 -17,-14 -26,-20 -8,-7 -17,-14 -26,-20 -8,-7 -17,-14 -26,-20 -8,-7 -17,-14 -26,-20 -9,-7 -17,-14 -26,-20 -8,-7 -17,-14 -26,-20 -8,-7 -17,-14 -26,-20 -8,-7 -17,-14 -26,-20 -8,-7 -17,-14 -26,-20 -9,-7 -17,-14 -26,-20 -8,-7 -17,-14 -26,-20 -8,-7 -17,-14 -26,-20 -8,-7 -17,-14 -26,-20 -8,-7 -17,-14 -26,-20 -8,-7 -17,-14 -26,-20 -9,-7 -17,-14 -26,-20 -8,-7 -17,-14 -26,-20 -8,-7 -17,-14 -26,-20 -8,-7 -17,-14 -26,-20 -8,-7 -17,-14 -26,-20 -9,-7 -17,-14 -27,-20 -8,-7 -17,-14 -26,-20 -8,-7 -17,-14 -26,-20 -8,-7 -17,-14 -26,-20 -8,-7 -17,-14 -26,-20 -8,-7 -17,-14 -26,-20 -9,-7 -17,-14 -26,-20 -8,-7 -17,-14 -26,-20 -8,-7 -17,-14 -26,-20 -8,-7 -17,-14 -26,-20 -8,-7 -17,-14 -26,-20 -9,-7 -17,-14 -26,-20 -8,-7 -17,-14 -26,-20 -8,-7 -17,-14 -26,-20 -8,-7 -17,-14 -26,-20 -8,-7 -17,-14 -26,-20 -8,-7 -17,-14 -26,-20 -8,-7 -17,-14 -26,-20 -8,-7 -17,-14 -26,-20 -8,-7 -17,-14 -26,-20 -8,-7 -17,-14 -26,-20 -8,-7 -17,-14 -26,-20 -8,-7 -17,-14 -26,-20 -8,-7 -17,-14 -26,-20 -8,-7 -17,-14 -26,-20 -8,-7 -17,-14 -26,-20 -8,-7 -17,-14 -26,-20 -8,-7 -17,-14 -26,-20 -8,-7 -17,-14 -26,-20 -71,-60 -169,-83 -264,-83 -327,0 -621,164 -847,378 -73,73 -322,310 -322,412 0,26 20,55 46,67 7,8 16,15 26,20 7,8 16,15 26,20 7,8 16,15 26,20 7,8 16,15 26,20 7,8 16,15 26,20 7,8 16,15 26,20 7,8 16,15 26,20 7,8 16,15 26,20 7,8 16,15 26,20 7,8 16,15 26,20 7,8 16,15 26,20 7,8 16,15 26,20 7,8 16,15 26,20 7,8 16,15 26,20 7,8 16,15 26,20 5,5 10,10 16,14l-139 349c-40,96 -232,559 -232,830 0,121 45,204 120,254 8,7 17,14 26,20 8,7 17,14 26,20 8,7 17,14 26,20 8,7 17,14 26,20 8,7 17,14 26,20 8,7 17,14 26,20 8,7 17,14 26,20 8,7 17,14 26,20 8,7 17,14 26,20 8,7 17,14 26,20 8,7 17,14 26,20 8,7 17,14 26,20 8,7 17,14 26,20 8,7 17,14 26,20 8,7 17,14 26,20 8,7 17,14 26,20 8,7 17,14 26,20 8,7 17,14 26,20 8,7 17,14 26,20 8,7 17,14 26,20 8,7 17,14 26,20 8,7 17,14 26,20 8,7 17,14 26,20 8,7 17,14 26,20 8,7 17,14 26,20 8,7 17,14 26,20 8,7 17,14 26,20 8,7 17,14 26,20 8,7 17,14 26,20 8,7 17,14 26,20 8,7 17,14 26,20 8,7 17,14 26,20 8,7 17,14 26,20 8,7 17,14 26,20 8,7 17,14 26,20 8,7 17,14 26,20 8,7 17,14 26,20 8,7 17,14 26,20 8,7 17,14 26,20 8,7 17,14 26,20 8,7 17,14 26,20 8,7 17,14 26,20 8,7 17,14 26,20 8,7 17,14 26,20 8,7 17,14 26,20 8,7 17,14 26,20 8,7 17,14 26,20 8,7 17,14 26,20 8,7 17,14 26,20 8,7 17,14 26,20 8,7 17,14 26,20 8,7 17,14 26,20 8,7 17,14 26,20 8,7 17,14 26,20 8,7 17,14 26,20 8,7 17,14 26,20 8,7 17,14 26,20 8,7 17,14 26,20 8,7 17,14 26,20 8,7 17,14 26,20 8,7 17,14 26,20 8,7 17,14 26,20 8,7 17,14 26,20 8,7 17,14 26,20 8,7 17,14 26,20 2,2 4,3 7,5l616 0c815,0 1475,-660 1475,-1475l0 -387c-2,-1 -4,-3 -6,-4 -8,-7 -17,-14 -26,-20z"/>
</symbol>
<symbol id="Symbol2" viewBox="17966 -4754 315 3134">
 <path class="fil15" d="M18281 -4754c0,0 -315,38 -315,837l0 2134c0,123 276,269 276,54 0,-215 -23,-2034 -23,-2318 0,-284 15,-606 61,-706z"/>
</symbol>
<symbol id="Fm0-36-0" viewBox="18846 -21227 8177 8579">
 <path class="fil11 str0" d="M18899 -16937c0,-2340 1807,-4237 4036,-4237 2229,0 4036,1897 4036,4237 0,2340 -1807,4237 -4036,4237 -2229,0 -4036,-1897 -4036,-4237z"/>
</symbol>
<symbol id="Fm7-43-0" viewBox="3713 -10945 1335 5900">
 <polygon class="fil4" points="5048,-10839 5048,-9638 4831,-9638 4831,-9805 4881,-9805 4881,-10671 4756,-10671 4756,-10839 "/>
 <polygon class="fil1" points="4902,-6662 4831,-6662 4831,-7121 4902,-7121 "/>
 <path class="fil2" d="M4854 -7691l0 -283 -23 0 0 -249c100,99 162,236 162,387 0,151 -62,289 -162,387l0 -242 23 0z"/>
 <polygon class="fil1" points="4854,-7691 4831,-7691 4831,-7974 4854,-7974 "/>
 <polygon class="fil5" points="4831,-6662 4831,-5368 4445,-5046 4065,-5368 4065,-6662 "/>
 <polygon class="fil1" points="4831,-6662 4065,-6662 4065,-7121 4831,-7121 "/>
 <path class="fil5" d="M4831 -7449l0 328 -766 0 0 -328c98,97 234,157 383,157 150,0 285,-60 383,-157z"/>
 <path class="fil2" d="M4831 -7691l0 242c-98,97 -234,157 -383,157 -149,0 -285,-60 -383,-157l0 -242 766 0z"/>
 <polygon class="fil16" points="4831,-7691 4065,-7691 4065,-7974 4831,-7974 "/>
 <path class="fil2" d="M4831 -8223l0 249 -766 0 0 -249c98,-97 234,-157 383,-157 150,0 285,60 383,157z"/>
 <path class="fil5" d="M4831 -9638l0 1415c-98,-97 -234,-157 -383,-157 -149,0 -285,60 -383,157l0 -1415 766 0z"/>
 <polygon class="fil5" points="4831,-9638 4065,-9638 4065,-9805 4831,-9805 "/>
 <polygon class="fil5" points="4831,-9953 4831,-9805 4065,-9805 4065,-9953 4340,-9953 4340,-9855 4551,-9855 4551,-9953 "/>
 <polygon class="fil2" points="4756,-10588 4551,-10588 4551,-10671 4756,-10671 "/>
 <polygon class="fil2" points="4756,-10839 4756,-10671 4551,-10671 4551,-10684 4340,-10684 4340,-10671 4135,-10671 4135,-10839 "/>
 <polygon class="fil2" points="4756,-10839 4135,-10839 4135,-10945 4756,-10945 "/>
 <polygon class="fil1" points="4551,-9855 4339,-9855 4339,-9953 4551,-9953 "/>
 <polygon class="fil1" points="4551,-9953 4339,-9953 4339,-10588 4551,-10588 "/>
 <polygon class="fil1" points="4551,-10588 4339,-10588 4339,-10671 4551,-10671 "/>
 <polygon class="fil17" points="4551,-10671 4339,-10671 4339,-10684 4551,-10684 "/>
 <polygon class="fil2" points="4339,-10588 4135,-10588 4135,-10671 4339,-10671 "/>
 <polygon class="fil4" points="4135,-10839 4135,-10671 4015,-10671 4015,-9805 4065,-9805 4065,-9638 3848,-9638 3848,-10839 "/>
 <polygon class="fil1" points="4065,-6662 3994,-6662 3994,-7121 4065,-7121 "/>
 <path class="fil2" d="M4065 -7691l0 242c-53,-52 -94,-114 -122,-183l0 -401 -3 0c28,-72 71,-137 125,-191l0 249 -23 0 0 283 23 0z"/>
 <polygon class="fil1" points="4065,-7691 4042,-7691 4042,-7974 4065,-7974 "/>
 <path class="fil2" d="M3943 -8033l0 401c-26,-63 -40,-132 -40,-204 0,-70 13,-136 37,-197l3 0z"/>
 <path class="fil4" d="M3943 -7632l-230 0 0 -401 227 0c-24,61 -37,127 -37,197 0,72 14,141 40,204z"/>
</symbol>
<symbol id="Fm8-73-0" viewBox="19246 -20595 1332 2516">
 <path class="fil1" d="M20353 -19901c0,-244 -197,-441 -441,-441 -243,0 -441,197 -441,441 0,244 197,441 441,441 244,0 441,-197 441,-441zm-441 -693c391,0 666,190 666,698 0,507 -666,1818 -666,1818 0,0 -666,-1311 -666,-1818 0,-507 275,-698 666,-698z"/>
 <path class="fil6" d="M20099 -19901c0,-104 -84,-188 -188,-188 -104,0 -187,84 -187,188 0,104 84,188 187,188 104,0 188,-84 188,-188zm-188 -441c244,0 441,197 441,441 0,244 -197,441 -441,441 -243,0 -441,-197 -441,-441 0,-244 197,-441 441,-441z"/>
</symbol>
<symbol id="Fm1-60-0" viewBox="3699 -9291 6871 7138">
 <path class="fil11 str1" d="M3770 -5716c0,-1951 1507,-3533 3365,-3533 1858,0 3365,1582 3365,3533 0,1951 -1507,3533 -3365,3533 -1858,0 -3365,-1582 -3365,-3533z"/>
</symbol>
<symbol id="Fm1-52-0" viewBox="17812 -9839 7732 8110">
 <path class="fil11 str1" d="M17883 -5784c0,-2201 1699,-3985 3796,-3985 2096,0 3796,1784 3796,3985 0,2201 -1699,3985 -3796,3985 -2096,0 -3796,-1784 -3796,-3985z"/>
</symbol>
<symbol id="Fm2-40-0" viewBox="20299 -19702 5272 5529">
 <path class="fil11 str0" d="M20352 -16937c0,-1498 1156,-2712 2583,-2712 1427,0 2583,1214 2583,2712 0,1498 -1156,2712 -2583,2712 -1426,0 -2583,-1214 -2583,-2712z"/>
</symbol>
<symbol id="Fm2-32-0" viewBox="3228 -19751 5365 5627">
 <path class="fil11 str0" d="M3281 -16937c0,-1525 1177,-2760 2629,-2760 1452,0 2629,1236 2629,2760 0,1525 -1177,2760 -2629,2760 -1452,0 -2629,-1236 -2629,-2760z"/>
</symbol>
<symbol id="Fm2-33-0" viewBox="12294 -16519 7669 5562">
 <path class="fil1" d="M14786 -12207l0 526 0 88c0,112 43,224 128,310 86,86 198,128 310,128l718 0 718 0c112,0 224,-43 310,-128 85,-85 128,-198 128,-310l0 -88 0 -526 -2312 0zm-2215 -3498l0 2834c0,241 197,439 438,439l6238 0c241,0 438,-197 438,-439l0 -2834c0,-241 -197,-438 -438,-438l-6238 0c-241,0 -438,197 -438,438zm-277 4310l0 -4685c0,-241 197,-438 438,-438l6793 0c241,0 438,197 438,438l0 4685c0,241 -197,438 -438,438l-6793 0c-241,0 -438,-197 -438,-438z"/>
 <path class="fil17" d="M19097 -12711l395 0 0 -394 -395 0 0 394zm0 -394zm0 -1709l395 0 0 -394 -395 0 0 394zm0 -394zm0 -285l395 0 0 -307 -395 0 0 307zm0 -307zm-525 3090l394 0 0 -394 -394 0 0 394zm0 -394zm0 -1709l394 0 0 -394 -394 0 0 394zm0 -394zm0 -285l394 0 0 -307 -394 0 0 307zm0 -307zm-83 1643l0 394 609 0 395 0 0 -394 0 -526 -395 0 -328 0 0 526 -280 0zm-246 920l1249 0 0 -394 -1249 0 0 394zm0 -394zm-44 -657l394 0 0 -394 -394 0 0 394zm0 -394zm-153 1972l394 0 0 -394 -394 0 0 394zm0 -394zm0 -1709l394 0 0 -394 -394 0 0 394zm0 -394zm0 -285l394 0 0 -307 -394 0 0 307zm0 -307zm-132 2038l394 0 0 -394 -394 0 0 394zm0 -394zm-238 920l394 0 0 -394 -394 0 0 394zm0 -394zm-3 -657l394 0 0 -394 -394 0 0 394zm0 -394zm-153 1972l394 0 0 -394 -394 0 0 394zm0 -394zm0 -1709l394 0 0 -394 -394 0 0 394zm0 -394zm0 -285l394 0 0 -307 -394 0 0 307zm0 -307zm-132 2038l394 0 0 -394 -394 0 0 394zm0 -394zm-238 920l394 0 0 -394 -394 0 0 394zm0 -394zm-3 -657l394 0 0 -394 -394 0 0 394zm0 -394zm-153 -132l394 0 0 -394 -394 0 0 394zm0 -394zm0 -285l394 0 0 -307 -394 0 0 307zm0 -307zm-132 2038l394 0 0 -394 -394 0 0 394zm0 -394zm-238 920l394 0 0 -394 -394 0 0 394zm0 -394zm-3 -657l395 0 0 -394 -395 0 0 394zm0 -394zm-153 -132l394 0 0 -394 -394 0 0 394zm0 -394zm0 -285l394 0 0 -307 -394 0 0 307zm0 -307zm-132 2038l395 0 0 -394 -395 0 0 394zm0 -394zm-238 920l395 0 0 -394 -395 0 0 394zm0 -394zm-2 -657l395 0 0 -394 -395 0 0 394zm0 -394zm-153 -132l394 0 0 -394 -394 0 0 394zm0 -394zm0 -285l394 0 0 -307 -394 0 0 307zm0 -307zm-132 2038l395 0 0 -394 -395 0 0 394zm0 -394zm-238 920l395 0 0 -394 -395 0 0 394zm0 -394zm-3 -657l395 0 0 -394 -395 0 0 394zm0 -394zm-153 -132l394 0 0 -394 -394 0 0 394zm0 -394zm0 -285l394 0 0 -307 -394 0 0 307zm0 -307zm-131 2038l394 0 0 -394 -394 0 0 394zm0 -394zm-238 920l394 0 0 -394 -394 0 0 394zm0 -394zm-3 -657l394 0 0 -394 -394 0 0 394zm0 -394zm-154 -132l395 0 0 -394 -395 0 0 394zm0 -394zm0 -285l395 0 0 -307 -395 0 0 307zm0 -307zm-131 2038l394 0 0 -394 -394 0 0 394zm0 -394zm-238 920l394 0 0 -394 -394 0 0 394zm0 -394zm-2 -657l394 0 0 -394 -394 0 0 394zm0 -394zm-153 1972l3024 0 0 -394 -3024 0 0 394zm0 -394zm0 -1709l394 0 0 -394 -394 0 0 394zm0 -394zm0 -285l394 0 0 -307 -394 0 0 307zm0 -307zm-132 2038l394 0 0 -394 -394 0 0 394zm0 -394zm-238 920l394 0 0 -394 -394 0 0 394zm0 -394zm-3 -657l394 0 0 -394 -394 0 0 394zm0 -394zm-153 1972l394 0 0 -394 -394 0 0 394zm0 -394zm0 -1709l394 0 0 -394 -394 0 0 394zm0 -394zm0 -285l394 0 0 -307 -394 0 0 307zm0 -307zm-132 2038l394 0 0 -394 -394 0 0 394zm0 -394zm-238 920l394 0 0 -394 -394 0 0 394zm0 -394zm-3 -657l394 0 0 -394 -394 0 0 394zm0 -394zm-153 1972l394 0 0 -394 -394 0 0 394zm0 -394zm0 -1709l394 0 0 -394 -394 0 0 394zm0 -394zm0 -285l394 0 0 -307 -394 0 0 307zm0 -307zm-526 3090l394 0 0 -394 -394 0 0 394zm0 -394zm0 -132l526 0 0 -394 -526 0 0 394zm0 -394zm0 -132l723 0 0 -394 -723 0 0 394zm0 -394zm0 -131l526 0 0 -394 -526 0 0 394zm0 -394zm0 -132l394 0 0 -394 -394 0 0 394zm0 -394zm0 -285l394 0 0 -307 -394 0 0 307zm0 -307zm-215 2929l0 -2834c0,-241 197,-438 438,-438l6238 0c241,0 438,197 438,438l0 2834c0,241 -197,439 -438,439l-6238 0c-241,0 -438,-197 -438,-439z"/>
 <polygon class="fil1" points="12787,-15800 13181,-15800 13181,-15494 12787,-15494 "/>
 <polygon class="fil1" points="12787,-15209 13181,-15209 13181,-14814 12787,-14814 "/>
 <polygon class="fil1" points="12787,-14683 13313,-14683 13313,-14288 12787,-14288 "/>
 <polygon class="fil1" points="12787,-14157 13510,-14157 13510,-13763 12787,-13763 "/>
 <polygon class="fil1" points="12787,-13631 13313,-13631 13313,-13237 12787,-13237 "/>
 <polygon class="fil1" points="12787,-13105 13181,-13105 13181,-12711 12787,-12711 "/>
 <polygon class="fil1" points="13313,-15800 13707,-15800 13707,-15494 13313,-15494 "/>
 <polygon class="fil1" points="13313,-15209 13707,-15209 13707,-14814 13313,-14814 "/>
 <polygon class="fil1" points="13313,-13105 13707,-13105 13707,-12711 13313,-12711 "/>
 <polygon class="fil1" points="13466,-14683 13860,-14683 13860,-14288 13466,-14288 "/>
 <polygon class="fil1" points="13469,-13631 13863,-13631 13863,-13237 13469,-13237 "/>
 <polygon class="fil1" points="13707,-14157 14101,-14157 14101,-13763 13707,-13763 "/>
 <polygon class="fil1" points="13839,-15800 14233,-15800 14233,-15494 13839,-15494 "/>
 <polygon class="fil1" points="13839,-15209 14233,-15209 14233,-14814 13839,-14814 "/>
 <polygon class="fil1" points="13839,-13105 14233,-13105 14233,-12711 13839,-12711 "/>
 <polygon class="fil1" points="13992,-14683 14386,-14683 14386,-14288 13992,-14288 "/>
 <polygon class="fil1" points="13995,-13631 14389,-13631 14389,-13237 13995,-13237 "/>
 <polygon class="fil1" points="14233,-14157 14628,-14157 14628,-13763 14233,-13763 "/>
 <polygon class="fil1" points="14365,-15800 14759,-15800 14759,-15494 14365,-15494 "/>
 <polygon class="fil1" points="14365,-15209 14759,-15209 14759,-14814 14365,-14814 "/>
 <polygon class="fil1" points="14365,-13105 17389,-13105 17389,-12711 14365,-12711 "/>
 <polygon class="fil1" points="14518,-14683 14913,-14683 14913,-14288 14518,-14288 "/>
 <polygon class="fil1" points="14521,-13631 14915,-13631 14915,-13237 14521,-13237 "/>
 <polygon class="fil1" points="14759,-14157 15154,-14157 15154,-13763 14759,-13763 "/>
 <polygon class="fil17" points="14786,-11681 14786,-12207 17099,-12207 17099,-11681 15943,-11681 "/>
 <path class="fil1" d="M14786 -11593l0 -88 1156 0 0 526 -718 0c-113,0 -225,-43 -310,-128 -85,-85 -128,-198 -128,-310z"/>
 <polygon class="fil1" points="14890,-15800 15285,-15800 15285,-15494 14890,-15494 "/>
 <polygon class="fil1" points="14890,-15209 15285,-15209 15285,-14814 14890,-14814 "/>
 <polygon class="fil1" points="15044,-14683 15438,-14683 15438,-14288 15044,-14288 "/>
 <polygon class="fil1" points="15047,-13631 15441,-13631 15441,-13237 15047,-13237 "/>
 <polygon class="fil1" points="15285,-14157 15680,-14157 15680,-13763 15285,-13763 "/>
 <polygon class="fil1" points="15416,-15800 15811,-15800 15811,-15494 15416,-15494 "/>
 <polygon class="fil1" points="15416,-15209 15811,-15209 15811,-14814 15416,-14814 "/>
 <polygon class="fil1" points="15570,-14683 15964,-14683 15964,-14288 15570,-14288 "/>
 <polygon class="fil1" points="15572,-13631 15967,-13631 15967,-13237 15572,-13237 "/>
 <polygon class="fil1" points="15811,-14157 16205,-14157 16205,-13763 15811,-13763 "/>
 <polygon class="fil1" points="15942,-15800 16337,-15800 16337,-15494 15942,-15494 "/>
 <polygon class="fil1" points="15942,-15209 16337,-15209 16337,-14814 15942,-14814 "/>
 <path class="fil1" d="M15943 -11155l0 -526 1156 0 0 88c0,112 -43,224 -128,310 -85,86 -198,128 -310,128l-718 0z"/>
 <polygon class="fil1" points="16096,-14683 16490,-14683 16490,-14288 16096,-14288 "/>
 <polygon class="fil1" points="16098,-13631 16493,-13631 16493,-13237 16098,-13237 "/>
 <polygon class="fil1" points="16337,-14157 16731,-14157 16731,-13763 16337,-13763 "/>
 <polygon class="fil1" points="16468,-15800 16863,-15800 16863,-15494 16468,-15494 "/>
 <polygon class="fil1" points="16468,-15209 16863,-15209 16863,-14814 16468,-14814 "/>
 <polygon class="fil1" points="16621,-14683 17016,-14683 17016,-14288 16621,-14288 "/>
 <polygon class="fil1" points="16624,-13631 17018,-13631 17018,-13237 16624,-13237 "/>
 <polygon class="fil1" points="16863,-14157 17257,-14157 17257,-13763 16863,-13763 "/>
 <polygon class="fil1" points="16994,-15800 17389,-15800 17389,-15494 16994,-15494 "/>
 <polygon class="fil1" points="16994,-15209 17389,-15209 17389,-14814 16994,-14814 "/>
 <polygon class="fil1" points="17147,-14683 17542,-14683 17542,-14288 17147,-14288 "/>
 <polygon class="fil1" points="17150,-13631 17545,-13631 17545,-13237 17150,-13237 "/>
 <polygon class="fil1" points="17389,-14157 17783,-14157 17783,-13763 17389,-13763 "/>
 <polygon class="fil1" points="17520,-15800 17914,-15800 17914,-15494 17520,-15494 "/>
 <polygon class="fil1" points="17520,-15209 17914,-15209 17914,-14814 17520,-14814 "/>
 <polygon class="fil1" points="17520,-13105 17914,-13105 17914,-12711 17520,-12711 "/>
 <polygon class="fil1" points="17673,-14683 18068,-14683 18068,-14288 17673,-14288 "/>
 <polygon class="fil1" points="17676,-13631 18071,-13631 18071,-13237 17676,-13237 "/>
 <polygon class="fil1" points="17914,-14157 18309,-14157 18309,-13763 17914,-13763 "/>
 <polygon class="fil1" points="18046,-15800 18441,-15800 18441,-15494 18046,-15494 "/>
 <polygon class="fil1" points="18046,-15209 18441,-15209 18441,-14814 18046,-14814 "/>
 <polygon class="fil1" points="18046,-13105 18441,-13105 18441,-12711 18046,-12711 "/>
 <polygon class="fil1" points="18199,-14683 18594,-14683 18594,-14288 18199,-14288 "/>
 <polygon class="fil1" points="18243,-13631 19493,-13631 19493,-13237 18243,-13237 "/>
 <polygon class="fil1" points="18489,-13763 18489,-14157 18769,-14157 18769,-14683 19097,-14683 19493,-14683 19493,-14157 19493,-13763 19097,-13763 "/>
 <polygon class="fil1" points="18572,-15800 18967,-15800 18967,-15494 18572,-15494 "/>
 <polygon class="fil1" points="18572,-15209 18967,-15209 18967,-14814 18572,-14814 "/>
 <polygon class="fil1" points="18572,-13105 18967,-13105 18967,-12711 18572,-12711 "/>
 <polygon class="fil1" points="19097,-15800 19493,-15800 19493,-15494 19097,-15494 "/>
 <polygon class="fil1" points="19097,-15209 19493,-15209 19493,-14814 19097,-14814 "/>
 <polygon class="fil1" points="19097,-13105 19493,-13105 19493,-12711 19097,-12711 "/>
</symbol>
<symbol id="Fm6-34-0" viewBox="3141 -22814 3459 4524">
 <path class="fil1" d="M6298 -21397l-2156 0 0 1035 2156 0 0 -1035zm0 1035zm302 -1345l0 3070 -345 0 -2415 0 0 -3829 2001 0 0 759 759 0z"/>
 <polygon class="fil1" points="6600,-21707 5841,-21707 5841,-22466 "/>
 <polygon class="fil12" points="6298,-20362 4142,-20362 4142,-21397 6298,-21397 "/>
 <path class="fil18" d="M6255 -18637l0 348 -2767 0c-192,0 -348,-155 -348,-348l3 0c0,-193 156,-348 348,-348 192,0 348,155 348,348l2415 0z"/>
 <path class="fil6" d="M3840 -22466l0 3829c0,-192 -156,-348 -348,-348 -193,0 -348,155 -348,348l0 -3829c0,-192 156,-348 348,-348 192,0 348,155 348,348z"/>
</symbol>
<symbol id="Fm8-43-0" viewBox="30713 -16641 2989 2845">
 <path class="fil8" d="M33663 -14860c-8,-7 -17,-14 -26,-20 -8,-7 -17,-14 -26,-20 -8,-7 -17,-14 -26,-20 -8,-7 -17,-14 -26,-20 -8,-7 -17,-14 -26,-20 -8,-7 -17,-14 -26,-20 -8,-7 -17,-14 -26,-20 -8,-7 -17,-14 -26,-20 -8,-7 -17,-14 -26,-20 -8,-7 -17,-14 -26,-20 -8,-7 -17,-14 -26,-20 -8,-7 -17,-14 -26,-20 -8,-7 -17,-14 -26,-20 -8,-7 -17,-14 -26,-20 -8,-7 -17,-14 -26,-20 -8,-7 -17,-14 -26,-20 -8,-7 -17,-14 -26,-20 -8,-7 -17,-14 -26,-20 -8,-7 -17,-14 -26,-20 -8,-7 -17,-14 -26,-20 -8,-7 -17,-14 -26,-20 -8,-7 -17,-14 -26,-20 -8,-7 -17,-14 -26,-20 -8,-7 -17,-14 -26,-20 -8,-7 -17,-14 -26,-20 -8,-7 -17,-14 -26,-20 -8,-7 -17,-14 -26,-20 -8,-7 -17,-14 -26,-20 -8,-7 -17,-14 -26,-20 -8,-7 -17,-14 -26,-20 -8,-7 -17,-14 -26,-20 -8,-7 -17,-14 -26,-20 -8,-7 -17,-14 -26,-20 -8,-7 -17,-14 -26,-20 -8,-7 -17,-14 -26,-20 -8,-7 -17,-14 -26,-20 -8,-7 -17,-14 -26,-20 -8,-7 -17,-14 -26,-20 -8,-7 -17,-14 -26,-20 -8,-7 -17,-14 -26,-20 -8,-7 -17,-14 -26,-20 -8,-7 -17,-14 -26,-20 -8,-7 -17,-14 -26,-20 -8,-7 -17,-14 -26,-20 -8,-7 -17,-14 -26,-20 -8,-7 -17,-14 -26,-20 -8,-7 -17,-14 -26,-20 -8,-7 -17,-14 -26,-20 -8,-7 -17,-14 -26,-20 -8,-7 -17,-14 -26,-20 -8,-7 -17,-14 -26,-20 -8,-7 -17,-14 -26,-20 -8,-7 -17,-14 -26,-20 -8,-7 -17,-14 -26,-20 -8,-7 -17,-14 -26,-20 -8,-7 -17,-14 -26,-20 -8,-7 -17,-14 -26,-20 -8,-7 -17,-14 -26,-20 -8,-7 -17,-14 -26,-20 -8,-7 -17,-14 -26,-20 -8,-7 -17,-14 -26,-20 -8,-7 -17,-14 -26,-20 -8,-7 -17,-14 -26,-20 -8,-7 -17,-14 -26,-20 -8,-7 -17,-14 -26,-20 -8,-7 -17,-14 -26,-20 -8,-7 -17,-14 -26,-20 -8,-7 -17,-14 -26,-20 -8,-7 -17,-14 -26,-20 -8,-7 -17,-14 -26,-20 -8,-7 -17,-14 -26,-20 -8,-7 -17,-14 -26,-20 -8,-7 -17,-14 -26,-20 -8,-7 -17,-14 -26,-20 -8,-7 -17,-14 -26,-20 -8,-7 -17,-14 -26,-20 -8,-7 -17,-14 -26,-20 -8,-7 -17,-14 -26,-20 -8,-7 -17,-14 -26,-20 -8,-7 -17,-14 -26,-20 -8,-7 -17,-14 -26,-20 -8,-7 -17,-14 -26,-20 -8,-7 -17,-14 -26,-20 -8,-7 -17,-14 -26,-20 -8,-7 -17,-14 -26,-20 -68,-57 -158,-89 -261,-89 -248,0 -463,203 -463,452 0,140 56,251 152,317 8,7 17,14 26,20 8,7 17,14 26,20 8,7 17,14 26,20 8,7 17,14 26,20 8,7 17,14 26,20 8,7 17,14 26,20 8,7 17,14 26,20 8,7 17,14 26,20 8,7 17,14 26,20 8,7 17,14 26,20 8,7 17,14 26,20 8,7 17,14 26,20 8,7 17,14 26,20 8,7 17,14 26,20 8,7 17,14 26,20 8,7 17,14 26,20 8,7 17,14 26,20 8,7 17,14 26,20 8,7 17,14 26,20 8,7 17,14 26,20 8,7 17,14 26,20 8,7 17,14 26,20 8,7 17,14 26,20 8,7 17,14 26,20 8,7 17,14 26,20 8,7 17,14 26,20 8,7 17,14 26,20 8,7 17,14 26,20 8,7 17,14 26,20 8,7 17,14 26,20 8,7 17,14 26,20 8,7 17,14 26,20 8,7 17,14 26,20 8,7 17,14 26,20 8,7 17,14 26,20 8,7 17,14 26,20 8,7 17,14 26,20 8,7 17,14 26,20 8,7 17,14 26,20 8,7 17,14 26,20 8,7 17,14 26,20 8,7 17,14 26,20 8,7 17,14 26,20 8,7 17,14 26,20 8,7 17,14 26,20 8,7 17,14 26,20 8,7 17,14 26,20 8,7 17,14 26,20 8,7 17,14 26,20 8,7 17,14 26,20 8,7 17,14 26,20 8,7 17,14 26,20 8,7 17,14 26,20 8,7 17,14 26,20 8,7 17,14 26,20 8,7 17,14 26,20 8,7 17,14 26,20 8,7 17,14 26,20 8,7 17,14 26,20 8,7 17,14 26,20 8,7 17,14 26,20 8,7 17,14 26,20 8,7 17,14 26,20 8,7 17,14 26,20 8,7 17,14 26,20 8,7 17,14 26,20 8,7 17,14 26,20 8,7 17,14 26,20 8,7 17,14 26,20 8,7 17,14 26,20 8,7 17,14 26,20 8,7 17,14 26,20 8,7 17,14 26,20 8,7 17,14 26,20 8,7 17,14 26,20 8,7 17,14 26,20 8,7 17,14 26,20 8,7 17,14 26,20 8,7 17,14 26,20 8,7 17,14 26,20 8,7 17,14 26,20 8,7 17,14 26,20 8,7 17,14 26,20 8,7 17,14 26,20 8,7 17,14 26,20 8,7 17,14 26,20 8,7 17,14 26,20 8,7 17,14 26,20 8,7 17,14 26,20 8,7 17,14 26,20 8,7 17,14 26,20 8,7 17,14 26,20 8,7 17,14 26,20 8,7 17,14 26,20 8,7 17,14 26,20 8,7 17,14 26,20 8,7 17,14 26,20 8,7 17,14 26,20 8,7 17,14 26,20 8,7 17,14 26,20 57,48 131,78 218,85l0 -1034c-4,-3 -8,-7 -13,-10 -8,-7 -17,-14 -26,-20z"/>
</symbol>
<symbol id="Fm2-54-0" viewBox="18706 -8901 5944 6235">
 <path class="fil11 str0" d="M18759 -5784c0,-1692 1307,-3064 2919,-3064 1612,0 2919,1372 2919,3064 0,1692 -1307,3064 -2919,3064 -1612,0 -2919,-1372 -2919,-3064z"/>
</symbol>
<symbol id="Fm11-45-0" viewBox="1901 -7080 2330 1497">
 <path class="fil1" d="M2513 -6010l-391 0 0 217 391 0 0 -217zm0 217zm1718 -641l0 639c0,117 -95,212 -212,212l-1906 0c-116,0 -212,-95 -212,-212l0 -639 2330 0z"/>
 <polygon class="fil6" points="4230,-6434 1901,-6434 1901,-6751 4230,-6751 "/>
 <path class="fil1" d="M4230 -6868l0 116 -2330 0 0 -116c0,-116 95,-212 212,-212l1906 0c116,0 212,95 212,212z"/>
 <polygon class="fil7" points="2513,-5793 2121,-5793 2121,-6010 2513,-6010 "/>
</symbol>
<symbol id="Fm1-25-0" viewBox="14146 -9477 4556 436">
 <polygon class="fil3" points="18093,-9477 18246,-9477 18246,-9041 18093,-9041 "/>
 <polygon class="fil10" points="15982,-9477 18093,-9477 18093,-9041 15982,-9041 "/>
 <polygon class="fil3" points="15706,-9477 15982,-9477 15982,-9041 15706,-9041 "/>
 <polygon class="fil10" points="14751,-9477 15706,-9477 15706,-9041 14751,-9041 "/>
 <polygon class="fil3" points="14490,-9477 14751,-9477 14751,-9041 14490,-9041 14490,-9117 14490,-9402 "/>
 <polygon class="fil19" points="18245,-9477 18702,-9259 18245,-9041 "/>
 <polygon class="fil19" points="14146,-9402 14490,-9402 14490,-9117 14146,-9117 "/>
</symbol>
<symbol id="Fm11-29-0" viewBox="11266 -22221 393 3488">
 <polygon class="fil10" points="11463,-18732 11266,-19153 11310,-19454 11615,-19454 11659,-19153 "/>
 <polygon class="fil20" points="11648,-22017 11648,-20773 11615,-20773 11310,-20773 11278,-20773 11278,-22017 11310,-22017 11615,-22017 "/>
 <polygon class="fil21" points="11615,-19454 11310,-19454 11310,-19666 11615,-19666 "/>
 <polygon class="fil20" points="11615,-19666 11310,-19666 11310,-20773 11615,-20773 "/>
 <polygon class="fil10" points="11615,-22221 11615,-22017 11310,-22017 11310,-22083 11310,-22221 "/>
</symbol>
<symbol id="Fm2-26-0" viewBox="18584 -5856 322 3345">
 <polygon class="fil6" points="18907,-2885 18584,-2885 18584,-5191 18907,-5191 "/>
 <polygon class="fil22" points="18907,-5279 18907,-5191 18584,-5191 18584,-5536 18639,-5536 18852,-5536 18907,-5536 "/>
 <polygon class="fil10" points="18907,-2885 18746,-2511 18584,-2885 "/>
 <polygon class="fil10" points="18852,-5536 18639,-5536 18639,-5856 18852,-5856 "/>
</symbol>
<symbol id="Fm12-47-0" viewBox="9381 -6885 2330 1497">
 <path class="fil1" d="M9994 -5815l-391 0 0 217 391 0 0 -217zm0 217zm1718 -641l0 639c0,116 -95,212 -212,212l-1906 0c-117,0 -212,-95 -212,-212l0 -639 2330 0z"/>
 <polygon class="fil6" points="11711,-6239 9381,-6239 9381,-6556 11711,-6556 "/>
 <path class="fil1" d="M11711 -6673l0 117 -2330 0 0 -117c0,-116 95,-212 212,-212l1906 0c116,0 212,95 212,212z"/>
 <polygon class="fil7" points="9994,-5598 9602,-5598 9602,-5815 9994,-5815 "/>
</symbol>
<symbol id="Fm4-65-0" viewBox="4821 -17006 3548 3548">
 <path class="fil23" d="M7106 -16231c-34,-147 -140,-301 -511,-301 -331,0 -452,123 -498,254 -19,55 -26,112 -29,162 -5,78 -6,223 -5,362l-1 0c0,0 -169,-134 -176,0 -6,134 29,419 187,419 14,98 59,287 202,406l0 108 -802 270 0 695c-398,-325 -652,-820 -652,-1374 0,-980 794,-1774 1774,-1774 980,0 1774,794 1774,1774 0,554 -254,1049 -652,1374l0 -695 -802 -270 0 -108c143,-119 187,-308 202,-406 158,0 194,-285 187,-419 -6,-134 -175,0 -175,0l-1 0c1,-139 1,-284 -5,-362 -3,-35 -6,-75 -16,-115z"/>
 <path class="fil6" d="M7717 -14552l0 695 0 1c-306,250 -696,400 -1122,400 -426,0 -816,-150 -1122,-400l0 -1 0 -695 802 -270 0 444 320 138 320 -138 0 -444 802 270z"/>
 <path class="fil1" d="M7303 -15754c7,134 -29,419 -187,419 5,-39 6,-64 6,-64 0,0 4,-173 5,-355l1 0c0,0 169,-134 175,0z"/>
 <path class="fil1" d="M7122 -16116c5,78 6,223 5,362 -1,182 -5,355 -5,355 0,0 -1,25 -6,64 -15,98 -59,287 -202,406 -33,27 -71,51 -115,69l-204 -69 -205 69c-44,-17 -82,-41 -115,-69 -143,-119 -187,-308 -202,-406 -5,-39 -6,-64 -6,-64 0,0 -4,-173 -5,-355 -1,-139 -1,-284 5,-362 3,-50 10,-107 29,-162 0,0 182,259 484,343l-53 -146c14,5 260,101 579,-149 10,40 13,79 16,115z"/>
 <path class="fil24" d="M6527 -16082l53 146c-302,-84 -484,-343 -484,-343 46,-131 167,-254 498,-254 371,0 477,154 511,301 -319,250 -565,154 -579,149z"/>
 <path class="fil1" d="M6915 -14822l0 444 -320 138 -320 -138 0 -444 115 -39c57,25 125,39 205,39 79,0 147,-14 204,-39l115 39z"/>
 <path class="fil1" d="M6595 -14929l204 69c-57,25 -125,39 -204,39 -79,0 -147,-14 -205,-39l205 -69z"/>
 <path class="fil1" d="M6068 -15399c0,0 1,25 6,64 -158,0 -194,-285 -187,-419 7,-134 176,0 176,0l1 0c1,182 5,355 5,355z"/>
</symbol>
<symbol id="Fm9-47-0" viewBox="7432 -22353 3157 4066">
 <path class="fil9" d="M10150 -20823l-1521 0 0 1008 1521 0 0 -1008zm0 1008zm438 1528l-2358 0 0 -4066 2358 0 0 4066z"/>
 <polygon class="fil25" points="10150,-19815 8630,-19815 8630,-20823 10150,-20823 "/>
 <polygon class="fil6" points="8230,-22353 8230,-18287 7630,-18287 7630,-18791 7820,-18791 7820,-19038 7630,-19038 7630,-19352 7820,-19352 7820,-19600 7630,-19600 7630,-19914 7820,-19914 7820,-20162 7630,-20162 7630,-20476 7820,-20476 7820,-20724 7630,-20724 7630,-21038 7820,-21038 7820,-21286 7630,-21286 7630,-21600 7820,-21600 7820,-21848 7630,-21848 7630,-22353 "/>
 <polygon class="fil1" points="7820,-18791 7630,-18791 7630,-19038 7820,-19038 "/>
 <polygon class="fil1" points="7820,-19352 7630,-19352 7630,-19600 7820,-19600 "/>
 <polygon class="fil1" points="7820,-19914 7630,-19914 7630,-20162 7820,-20162 "/>
 <polygon class="fil1" points="7820,-20476 7630,-20476 7630,-20724 7820,-20724 "/>
 <polygon class="fil1" points="7820,-21038 7630,-21038 7630,-21286 7820,-21286 "/>
 <polygon class="fil1" points="7820,-21600 7630,-21600 7630,-21848 7820,-21848 "/>
 <polygon class="fil1" points="7630,-18791 7432,-18791 7432,-19038 7630,-19038 "/>
 <polygon class="fil1" points="7630,-19352 7432,-19352 7432,-19600 7630,-19600 "/>
 <polygon class="fil1" points="7630,-19914 7432,-19914 7432,-20162 7630,-20162 "/>
 <polygon class="fil1" points="7630,-20476 7432,-20476 7432,-20724 7630,-20724 "/>
 <polygon class="fil1" points="7630,-21038 7432,-21038 7432,-21286 7630,-21286 "/>
 <polygon class="fil1" points="7630,-21600 7432,-21600 7432,-21848 7630,-21848 "/>
</symbol>
<symbol id="Fm0-20-0" viewBox="8844 -22915 519 519">
 <path class="fil1" d="M8844 -22656c0,-143 116,-260 260,-260 143,0 260,116 260,260 0,143 -116,260 -260,260 -143,0 -260,-116 -260,-260z"/>
</symbol>
<symbol id="Fm2-31-0" viewBox="20609 -24614 4836 4844">
 <path class="fil8" d="M25412 -21914c-9,-7 -17,-13 -26,-20 -9,-7 -18,-13 -26,-20 -9,-7 -17,-13 -26,-20 -9,-7 -17,-13 -26,-20 -9,-7 -17,-13 -26,-20 -9,-7 -17,-13 -26,-20 -9,-7 -18,-13 -26,-20 -9,-7 -17,-13 -26,-20 -9,-7 -17,-13 -26,-20 -9,-7 -17,-13 -26,-20 -9,-7 -17,-13 -26,-20 -9,-7 -17,-13 -26,-20 -9,-7 -17,-13 -26,-20 -9,-7 -18,-13 -26,-20 -9,-7 -18,-14 -27,-20 -9,-6 -17,-13 -26,-19 -9,-7 -17,-13 -26,-20 -9,-7 -17,-13 -26,-20 -9,-7 -17,-13 -26,-20 -9,-7 -18,-13 -26,-20 -9,-7 -17,-13 -26,-20 -9,-7 -17,-13 -26,-20 -9,-7 -18,-13 -26,-20 -9,-7 -17,-13 -26,-20 -9,-7 -17,-13 -26,-20 -9,-7 -17,-13 -26,-20 -9,-7 -17,-13 -26,-20 -9,-7 -17,-13 -26,-20 -9,-7 -17,-13 -26,-20 -9,-7 -17,-13 -26,-20 -9,-7 -17,-13 -26,-20 -9,-7 -18,-13 -26,-20 -9,-7 -17,-13 -26,-20 -9,-7 -17,-13 -26,-20 -9,-7 -17,-13 -26,-20 -9,-7 -17,-13 -26,-20 -9,-7 -17,-13 -26,-20 -9,-7 -18,-13 -26,-20 -9,-7 -17,-13 -26,-20 -9,-7 -18,-13 -26,-20 -9,-7 -17,-13 -26,-20 -9,-7 -17,-13 -26,-20 -9,-7 -18,-13 -26,-20 -9,-7 -17,-13 -26,-20 -9,-7 -17,-13 -26,-20 -9,-7 -17,-13 -26,-20 -9,-7 -17,-13 -26,-20 -9,-7 -17,-13 -26,-20 -9,-7 -18,-13 -27,-20 -9,-7 -17,-13 -26,-20 -9,-7 -17,-13 -26,-20 -9,-7 -17,-13 -26,-20 -9,-7 -17,-13 -26,-20 -9,-7 -18,-13 -27,-20 -9,-7 -17,-13 -26,-20 -9,-7 -17,-13 -26,-20 -9,-7 -17,-13 -26,-20 -9,-7 -17,-13 -26,-20 -9,-7 -18,-13 -26,-20 -9,-7 -17,-13 -26,-20 -9,-7 -17,-13 -26,-20 -9,-7 -17,-13 -26,-20 -9,-7 -18,-13 -26,-20 -9,-7 -17,-13 -26,-20 -9,-7 -17,-13 -26,-20 -9,-7 -17,-13 -26,-20 -9,-7 -17,-13 -26,-20 -9,-7 -17,-13 -26,-20 -9,-7 -17,-13 -26,-20 -9,-7 -17,-13 -26,-20 -9,-7 -18,-13 -26,-20 -9,-7 -17,-13 -26,-20 -9,-7 -17,-13 -26,-20 -9,-7 -18,-13 -26,-20 -9,-7 -17,-13 -26,-20 -9,-7 -18,-13 -27,-20 -9,-7 -17,-13 -26,-20 -9,-7 -17,-13 -26,-20 -9,-7 -18,-13 -26,-20 -9,-7 -17,-13 -26,-20 -9,-7 -17,-13 -26,-20 -9,-7 -17,-13 -26,-20 -9,-7 -18,-13 -26,-20 -9,-7 -17,-13 -26,-20 -9,-7 -17,-13 -26,-20 -9,-7 -17,-13 -26,-20 -9,-7 -17,-13 -26,-20 -9,-7 -17,-13 -26,-20 -9,-7 -17,-13 -26,-20 -9,-7 -17,-13 -26,-20 -9,-7 -17,-13 -26,-20 -9,-7 -17,-13 -26,-20 -9,-7 -17,-13 -26,-20 -9,-7 -17,-13 -26,-20 -9,-7 -17,-13 -26,-20 -9,-7 -18,-13 -26,-20 -390,-297 -868,-521 -1406,-657 -409,-104 -745,-129 -882,-136l0 586c8,1 2646,2006 2646,2006 43,3 104,7 179,16 18,70 34,141 48,213 -2,-2 -5,-4 -7,-5 -9,-7 -17,-13 -26,-20 -9,-7 -17,-13 -26,-20 -9,-7 -17,-14 -26,-20 -9,-7 -17,-13 -26,-20 -9,-7 -17,-13 -26,-20 -9,-7 -17,-13 -26,-20 -9,-7 -17,-13 -26,-20 -9,-7 -17,-13 -26,-20 -9,-7 -17,-13 -26,-20 -9,-7 -17,-13 -26,-20 -9,-7 -18,-14 -27,-20 -9,-7 -17,-13 -26,-20 -9,-7 -17,-13 -26,-20 -9,-7 -18,-14 -27,-20 -9,-7 -17,-13 -26,-20 -9,-7 -17,-13 -26,-20 -9,-7 -17,-13 -26,-20 -9,-7 -17,-13 -26,-20 -9,-7 -17,-13 -26,-20 -9,-7 -18,-14 -27,-20 -9,-6 -17,-13 -25,-19 -9,-7 -18,-14 -27,-20 -9,-6 -17,-13 -26,-20 -9,-7 -17,-13 -26,-20 -9,-7 -17,-13 -26,-20 -9,-7 -17,-13 -26,-20 -9,-7 -17,-13 -26,-20 -9,-7 -17,-13 -26,-20 -9,-7 -17,-13 -26,-20 -9,-7 -17,-13 -26,-20 -9,-7 -17,-13 -26,-20 -9,-7 -17,-13 -26,-20 -9,-7 -18,-14 -27,-20 -9,-7 -17,-13 -26,-20 -9,-7 -17,-13 -26,-20 -9,-7 -17,-13 -26,-20 -9,-7 -17,-13 -26,-20 -9,-7 -17,-13 -26,-20 -9,-7 -18,-14 -26,-20 -9,-7 -17,-13 -26,-20 -9,-7 -17,-13 -26,-20 -9,-7 -17,-13 -26,-20 -9,-7 -17,-13 -26,-20 -9,-6 -17,-13 -26,-19 -9,-7 -18,-14 -27,-20 -9,-7 -17,-13 -26,-20 -9,-7 -17,-13 -26,-20 -9,-7 -17,-13 -26,-20 -9,-7 -17,-13 -26,-20 -9,-7 -17,-13 -26,-20 -9,-7 -18,-13 -26,-20 -9,-6 -17,-13 -26,-20 -9,-7 -17,-14 -26,-20 -261,-197 -580,-342 -940,-426 -231,-54 -427,-70 -538,-75l0 586c8,0 1650,1251 1650,1251 2,0 5,0 7,0 15,71 25,145 32,221 -4,-3 -8,-6 -12,-9 -8,-7 -17,-13 -26,-20 -8,-7 -17,-13 -26,-20 -8,-7 -17,-13 -26,-20 -8,-7 -17,-13 -26,-20 -9,-7 -17,-14 -26,-20 -8,-7 -17,-13 -26,-20 -8,-7 -17,-13 -26,-20 -8,-7 -17,-13 -26,-20 -8,-7 -17,-13 -26,-20 -8,-7 -17,-13 -26,-20 -8,-7 -17,-14 -26,-20 -8,-7 -17,-13 -26,-20 -8,-7 -17,-13 -26,-20 -8,-7 -17,-13 -26,-20 -8,-7 -17,-14 -26,-20 -8,-7 -17,-13 -26,-20 -8,-7 -17,-14 -26,-20 -8,-7 -17,-13 -26,-20 -9,-7 -17,-14 -26,-20 -8,-7 -17,-13 -26,-20 -8,-7 -17,-13 -26,-20 -8,-7 -17,-13 -26,-20 -8,-7 -17,-13 -26,-20 -8,-7 -17,-13 -26,-20 -9,-7 -17,-14 -26,-20 -8,-7 -17,-13 -26,-20 -8,-7 -17,-13 -26,-20 -8,-7 -17,-13 -26,-20 -8,-7 -17,-13 -26,-20 -8,-7 -17,-13 -26,-20 -8,-7 -17,-13 -26,-20 -8,-7 -17,-13 -26,-20 -8,-7 -17,-13 -26,-20 -81,-68 -185,-108 -299,-108 -259,0 -468,210 -468,469 0,157 77,296 195,381 8,7 17,13 26,20 8,7 17,13 26,20 8,7 17,13 26,20 8,7 17,13 26,20 8,7 17,13 26,20 8,7 17,13 26,20 8,7 17,14 26,20 8,7 17,13 26,20 8,7 17,13 26,20 8,7 17,13 26,20 8,7 17,13 26,20 9,7 17,14 26,20 8,7 17,13 26,20 8,7 17,14 26,20 8,7 17,13 26,20 8,7 17,14 26,20 8,7 17,13 26,20 8,7 17,13 26,20 8,7 17,13 26,20 8,7 17,13 26,20 8,7 17,13 26,20 8,7 17,13 26,20 8,7 17,13 26,20 8,7 17,14 26,20 8,7 17,13 26,20 8,7 17,13 26,20 8,7 17,13 26,20 8,7 17,13 26,20 8,7 17,13 26,20 8,7 17,13 26,20 8,7 17,13 26,20 8,7 17,13 26,20 8,7 17,13 26,20 8,7 17,13 26,20 8,7 17,13 26,20 8,7 17,14 26,20 8,7 17,13 26,20 8,7 17,13 26,20 8,7 17,14 26,20 8,7 17,13 26,20 8,7 17,13 26,20 8,7 17,13 26,20 8,7 17,13 26,20 8,7 17,13 26,20 8,7 17,13 26,20 8,7 17,13 26,20 8,7 17,14 26,20 8,7 17,13 26,20 8,7 17,13 26,20 8,7 17,14 26,20 8,7 17,13 26,20 8,7 17,13 26,20 8,7 17,13 26,20 8,7 17,13 26,20 8,7 17,13 26,20 8,7 17,13 26,20 8,7 17,13 26,20 8,7 17,14 26,20 8,7 17,13 26,20 8,7 17,13 26,20 8,7 17,14 26,20 8,7 17,13 26,20 8,7 17,13 26,20 8,7 17,14 26,20 8,7 17,13 26,20 8,7 17,13 26,20 9,7 17,14 26,20 8,7 17,13 26,20 8,7 17,13 26,20 8,7 17,13 26,20 8,7 17,13 26,20 8,7 17,13 26,20 7,6 14,11 21,16l1213 0c815,0 1475,-659 1475,-1472l0 -647c-3,-2 -5,-4 -8,-6 -9,-7 -17,-13 -26,-20z"/>
</symbol>
<symbol id="Fm9-75-0" viewBox="5197 -10119 4610 5545">
 <path class="fil6" d="M8252 -9155c164,-164 429,-164 592,0 163,163 163,428 0,592l-592 -592z"/>
 <polygon class="fil7" points="8844,-8563 9808,-7599 9288,-7080 8959,-7409 7100,-9267 6768,-9599 7288,-10119 8252,-9155 "/>
 <polygon class="fil1" points="7100,-9267 8959,-7409 7878,-6809 7072,-6004 5695,-7381 6501,-8186 "/>
 <path class="fil16" d="M6935 -5866l-76 76c-125,125 -274,208 -433,251 -325,89 -688,5 -944,-251 -380,-380 -380,-997 0,-1377l213 -213 1377 1377 -138 138z"/>
 <path class="fil6" d="M6935 -5866l890 1138 -155 155 -1244 -966 0 -1c159,-43 309,-126 433,-251l76 -76z"/>
</symbol>
<symbol id="Fm5-67-0" viewBox="7649 -18434 1880 1510">
 <polygon class="fil6" points="9529,-18207 9355,-17511 8195,-17511 8020,-18207 "/>
 <path class="fil9" d="M9084 -17288c101,0 183,82 183,183 0,101 -82,182 -183,182 -101,0 -183,-82 -183,-182 0,-101 82,-183 183,-183z"/>
 <path class="fil9" d="M8165 -17288c101,0 182,82 182,183 0,101 -82,182 -182,182 -101,0 -183,-82 -183,-182 0,-74 44,-137 106,-166 23,-11 49,-17 76,-17z"/>
 <polygon class="fil1" points="7959,-18306 7649,-18306 7649,-18434 7959,-18434 "/>
</symbol>
<symbol id="Fm4-37-0" viewBox="8094 -16448 440 2859">
 <polygon class="fil2" points="8533,-15847 8532,-15847 8532,-16089 8533,-16089 "/>
 <polygon class="fil26" points="8533,-16448 8533,-16089 8532,-16089 8094,-16089 8094,-16448 "/>
 <polygon class="fil27" points="8533,-13945 8437,-13790 8189,-13790 8094,-13945 8532,-13945 "/>
 <polygon class="fil17" points="8532,-13945 8094,-13945 8094,-15847 8532,-15847 "/>
 <polygon class="fil27" points="8532,-15847 8094,-15847 8094,-16089 8532,-16089 "/>
 <polygon class="fil26" points="8437,-13790 8313,-13589 8189,-13790 "/>
</symbol>
<symbol id="Fm0-23-0" viewBox="12806 -8633 6664 3510">
 <path class="fil3" d="M19031 -5754l0 -2248c0,-161 -132,-292 -292,-292l-4004 0 -731 0 -468 0c-161,0 -292,132 -292,292l0 2248c0,161 132,292 292,292l468 0 731 0 4004 0c161,0 292,-131 292,-292zm438 -2587l0 2926c0,161 -132,292 -292,292l-6079 0c-161,0 -292,-132 -292,-292l0 -2926c0,-161 132,-292 292,-292l6079 0c161,0 292,132 292,292z"/>
 <path class="fil19" d="M19031 -8002l0 2248c0,161 -132,292 -292,292l-4004 0 0 -1261 0 -312 0 -1261 4004 0c161,0 292,131 292,292z"/>
 <polygon class="fil10" points="14735,-5462 14004,-5462 14004,-6722 14735,-6722 "/>
 <polygon class="fil16" points="14735,-6722 14004,-6722 14004,-7034 14735,-7034 "/>
 <polygon class="fil10" points="14735,-7034 14004,-7034 14004,-8294 14735,-8294 "/>
 <path class="fil19" d="M14004 -6722l0 1261 -468 0c-161,0 -292,-131 -292,-292l0 -2248c0,-161 132,-292 292,-292l468 0 0 1261 0 312z"/>
</symbol>
<symbol id="Fm3-28-0" viewBox="15325 -6147 2465 3927">
 <polygon class="fil9" points="17791,-5547 17791,-2219 15325,-2219 15325,-5547 15965,-5547 15965,-5162 15611,-5162 15611,-2604 17506,-2604 17506,-5162 17152,-5162 17152,-5547 "/>
 <path class="fil12" d="M16105 -4778l-280 0 0 280 280 0 0 -280zm0 280zm0 222l-280 0 0 280 280 0 0 -280zm0 281zm0 222l-280 0 0 280 280 0 0 -280zm0 280zm0 222l-280 0 0 280 280 0 0 -280zm0 280zm1401 -2173l0 2557 -1895 0 0 -2557 354 0 0 62 593 0 594 0 0 -62 354 0z"/>
 <polygon class="fil10" points="17152,-5162 17152,-5100 16558,-5100 15965,-5100 15965,-5162 "/>
 <polygon class="fil10" points="17152,-5162 15965,-5162 15965,-5547 17152,-5547 "/>
 <path class="fil10" d="M16631 -5930c0,-41 -33,-74 -74,-74 -40,0 -73,33 -73,74 0,40 33,74 73,74 41,0 74,-33 74,-74zm520 220l0 164 -1187 0 0 -164 339 0c0,0 -34,-436 254,-436 289,0 255,436 255,436l339 0z"/>
 <path class="fil22" d="M16558 -6004c41,0 74,33 74,74 0,40 -33,74 -74,74 -40,0 -73,-33 -73,-74 0,-41 33,-74 73,-74z"/>
 <polygon class="fil1" points="16105,-2989 15824,-2989 15824,-3270 16105,-3270 "/>
 <polygon class="fil1" points="16105,-3492 15824,-3492 15824,-3772 16105,-3772 "/>
 <polygon class="fil1" points="16105,-3995 15824,-3995 15824,-4275 16105,-4275 "/>
 <polygon class="fil6" points="16105,-4498 15824,-4498 15824,-4778 16105,-4778 "/>
</symbol>
<symbol id="Fm3-33-0" viewBox="28938 -24557 4782 4776">
 <path class="fil8" d="M33690 -22676c-9,-7 -17,-13 -26,-20 -9,-7 -17,-13 -26,-20 -9,-7 -17,-13 -26,-20 -9,-7 -18,-14 -27,-20 -9,-7 -17,-13 -26,-20 -9,-7 -17,-13 -26,-20 -9,-7 -17,-14 -26,-20 -9,-7 -17,-13 -26,-20 -9,-7 -17,-13 -26,-20 -9,-7 -17,-13 -26,-20 -9,-7 -17,-13 -26,-20 -9,-7 -17,-13 -26,-20 -9,-7 -17,-13 -26,-20 -9,-7 -17,-13 -26,-20 -9,-7 -17,-13 -26,-20 -9,-7 -18,-14 -27,-20 -9,-7 -17,-13 -26,-20 -9,-7 -17,-13 -26,-20 -9,-7 -17,-13 -26,-20 -9,-7 -17,-13 -26,-20 -9,-7 -18,-14 -27,-20 -9,-7 -17,-13 -26,-20 -9,-7 -17,-13 -26,-20 -9,-7 -17,-13 -26,-20 -9,-7 -17,-13 -26,-20 -9,-7 -17,-13 -26,-20 -9,-7 -17,-13 -26,-20 -9,-7 -17,-13 -26,-20 -9,-7 -17,-13 -26,-20 -9,-7 -18,-14 -26,-20 -9,-7 -17,-13 -26,-20 -9,-7 -17,-14 -26,-20 -9,-7 -17,-13 -26,-20 -9,-7 -17,-13 -26,-20 -9,-7 -18,-14 -27,-20 -9,-7 -17,-13 -26,-20 -9,-7 -17,-13 -26,-20 -9,-7 -18,-14 -27,-20 -9,-7 -17,-13 -26,-20 -9,-7 -17,-13 -26,-20 -9,-7 -17,-13 -26,-20 -9,-7 -17,-13 -26,-20 -9,-7 -17,-13 -26,-20 -9,-7 -17,-13 -26,-20 -9,-7 -17,-13 -26,-20 -9,-7 -18,-14 -26,-20 -9,-7 -17,-13 -26,-20 -9,-7 -17,-13 -26,-20 -9,-7 -17,-13 -26,-20 -9,-7 -17,-14 -26,-20 -9,-7 -17,-13 -26,-20 -9,-7 -17,-13 -26,-20 -9,-7 -17,-13 -26,-20 -9,-7 -17,-13 -26,-20 -9,-7 -17,-13 -26,-20 -9,-7 -18,-14 -26,-20 -9,-7 -17,-13 -26,-20 -9,-7 -17,-13 -26,-20 -9,-7 -17,-13 -26,-20 -9,-7 -18,-14 -26,-20 -9,-7 -17,-13 -26,-20 -9,-7 -17,-13 -26,-20 -9,-7 -17,-14 -26,-20 -9,-7 -17,-13 -26,-20 -9,-7 -17,-13 -26,-20 -9,-7 -17,-13 -26,-20 -9,-7 -18,-13 -26,-20 -9,-7 -17,-13 -26,-20 -9,-7 -17,-14 -26,-20 -9,-7 -17,-13 -26,-20 -9,-7 -17,-13 -26,-20 -9,-7 -17,-13 -26,-20 -9,-7 -17,-13 -26,-20 -9,-7 -18,-14 -26,-20 -9,-7 -17,-13 -26,-20 -9,-7 -17,-13 -26,-20 -9,-7 -18,-14 -26,-20 -286,-219 -645,-348 -1038,-348 -948,0 -1697,749 -1697,1697 0,566 267,1062 685,1369 9,7 17,13 26,20 9,7 17,13 26,20 9,7 17,13 26,20 9,7 17,14 26,20 9,7 17,13 26,20 9,7 18,14 27,20 9,7 17,13 26,20 9,7 17,13 26,20 9,7 17,13 26,20 9,7 17,14 26,20 9,7 17,13 26,20 9,7 17,13 26,20 9,7 17,13 26,20 9,7 17,13 26,20 9,7 17,13 26,20 9,7 17,13 26,20 9,7 17,13 26,20 9,7 17,13 26,20 9,7 18,14 26,20 9,7 17,13 26,20 9,7 17,13 26,20 9,7 18,14 27,20 9,7 17,13 26,20 9,7 18,14 26,20 9,7 17,13 26,20 9,7 18,14 27,20 9,7 17,13 26,20 9,7 17,13 26,20 9,7 17,13 26,20 9,7 17,13 26,20 9,7 18,14 27,20 9,7 17,13 26,20 9,7 17,14 26,20 9,7 17,13 26,20 9,7 17,13 26,20 9,7 17,13 26,20 9,7 17,13 26,20 9,7 17,14 26,20 9,7 17,13 26,20 9,7 17,13 26,20 9,7 17,13 26,20 9,7 18,14 27,20 9,7 17,13 26,20 9,7 17,13 26,20 9,7 17,13 26,20 9,7 17,13 26,20 9,7 18,14 27,20 9,7 17,13 26,19 9,7 17,13 26,20 9,7 18,14 27,20 9,7 17,13 26,20 9,7 17,13 26,20 9,7 17,13 26,20 9,7 17,13 26,20 9,7 18,14 26,20 9,7 17,13 26,20 9,7 17,13 26,20 9,7 17,14 26,20 9,7 17,14 26,20 9,7 17,13 26,20 9,7 18,14 27,20 9,7 17,13 26,20 9,7 17,13 26,20 9,7 18,14 26,20 9,7 17,13 26,20 9,7 17,13 26,20 9,7 18,14 27,20 9,7 17,13 26,20 9,7 18,14 27,20 9,7 17,13 26,20 9,7 17,13 26,20 9,7 17,13 26,20 9,7 17,13 26,20 9,7 17,13 26,20 9,7 17,13 26,20 9,7 17,13 26,20 9,7 17,13 26,20 9,7 17,13 26,20 9,7 17,13 26,20 9,7 18,14 26,20 9,7 17,13 26,20 9,7 17,13 26,20 9,7 18,14 26,20 9,7 17,13 26,20 9,7 17,13 26,20 8,6 16,12 24,18l371 0c815,0 1475,-661 1475,-1475l0 -1397c-1,-1 -2,-2 -4,-3 -9,-7 -17,-13 -26,-20z"/>
</symbol>
<symbol id="Fm6-69-0" viewBox="3637 -19367 2367 1521">
 <path class="fil28" d="M4259 -18280l-398 0 0 221 398 0 0 -221zm0 221zm1745 -651l0 649c0,118 -97,215 -215,215l-1937 0c-118,0 -215,-97 -215,-215l0 -649 2367 0z"/>
 <polygon class="fil1" points="6004,-18711 3637,-18711 3637,-19034 6004,-19034 "/>
 <path class="fil28" d="M6004 -19152l0 118 -2367 0 0 -118c0,-118 97,-215 215,-215l1937 0c118,0 215,97 215,215z"/>
 <polygon class="fil7" points="4259,-18060 3861,-18060 3861,-18280 4259,-18280 "/>
</symbol>
<symbol id="Fm0-50-0" viewBox="17065 -10625 9228 9682">
 <path class="fil11 str0" d="M17118 -5784c0,-2644 2042,-4788 4561,-4788 2519,0 4561,2144 4561,4788 0,2644 -2042,4788 -4561,4788 -2519,0 -4561,-2144 -4561,-4788z"/>
</symbol>
<symbol id="Fm1-38-0" viewBox="19506 -20506 6858 7120">
 <path class="fil11 str1" d="M19576 -16937c0,-1947 1504,-3526 3359,-3526 1855,0 3359,1579 3359,3526 0,1947 -1504,3526 -3359,3526 -1855,0 -3359,-1579 -3359,-3526z"/>
</symbol>
<symbol id="Fm10-27-0" viewBox="2842 -21024 3378 1978">
 <polygon class="fil1" points="6220,-19703 6220,-19384 6076,-19331 6076,-19684 6076,-19730 "/>
 <path class="fil5" d="M5813 -20928l407 1225 -145 -53 0 26 -4 -1c-9,-51 -33,-100 -73,-139 -30,-30 -65,-51 -102,-63l-189 -861c-167,-50 -219,-230 -219,-230l324 96z"/>
 <polygon class="fil1" points="6220,-19703 6076,-19730 6076,-19756 "/>
 <path class="fil2" d="M5893 -19361l0 -272c0,-49 -19,-98 -56,-135 -37,-37 -86,-56 -135,-56l-585 0c-49,0 -98,19 -135,56 -37,37 -56,86 -56,135l0 81c0,98 37,195 112,270 75,74 172,112 270,112l394 0c49,0 98,-19 135,-56 37,-37 56,-86 56,-135zm183 29l0 22c0,67 -26,135 -77,186 -52,51 -119,77 -186,77l-543 0c-135,0 -269,-51 -372,-154 -103,-103 -154,-237 -154,-372l0 -109c14,11 21,19 21,19l0 -124c13,-30 32,-59 56,-84 51,-51 119,-77 186,-77l806 0c28,0 57,5 84,14l39 177 136 25c3,15 4,31 4,47l0 353z"/>
 <path class="fil2" d="M6071 -19731l-136 -25 -39 -177c37,12 72,34 102,63 39,39 64,88 73,139z"/>
 <path class="fil12" d="M5893 -19632l0 272c0,49 -19,98 -56,135 -37,37 -86,56 -135,56l-394 0c-98,0 -195,-37 -270,-112 -74,-75 -112,-172 -112,-270l0 -81c0,-49 19,-98 56,-135 37,-37 86,-56 135,-56l585 0c49,0 98,19 135,56 37,37 56,86 56,135z"/>
 <path class="fil1" d="M4765 -19786l0 124c0,0 -7,-8 -21,-19l0 -3c0,-35 7,-70 21,-102z"/>
 <path class="fil17" d="M4765 -19788l0 2c-14,33 -21,67 -21,102l0 3c-35,-29 -111,-80 -213,-80 -101,0 -177,50 -212,79l0 -2c0,-35 -7,-71 -22,-104 0,0 93,-99 234,-99 141,0 234,99 234,99z"/>
 <path class="fil2" d="M4135 -19552l0 -81c0,-49 -18,-98 -56,-135 -37,-37 -86,-56 -135,-56l-585 0c-49,0 -98,19 -135,56 -37,37 -56,86 -56,135l0 272c0,49 19,98 56,135 37,37 86,56 135,56l394 0c98,0 195,-37 270,-112 75,-75 112,-172 112,-270zm183 -131l0 110c0,135 -52,269 -154,372 -103,102 -237,154 -372,154l-543 0c-67,0 -135,-26 -186,-77 -51,-52 -77,-119 -77,-186l0 -22 0 -353c0,-16 1,-31 4,-47l136 -25 39 -177c27,-9 55,-14 84,-14l806 0c67,0 134,26 186,77 24,24 43,52 55,82l0 125c0,0 8,-8 22,-19z"/>
 <path class="fil1" d="M4318 -19684l0 2c-14,12 -22,19 -22,19l0 -125c14,33 22,68 22,104z"/>
 <path class="fil12" d="M4135 -19632l0 81c0,98 -37,195 -112,270 -74,74 -172,112 -270,112l-394 0c-49,0 -98,-19 -135,-56 -37,-37 -56,-86 -56,-135l0 -272c0,-49 19,-98 56,-135 37,-37 86,-56 135,-56l585 0c49,0 98,19 135,56 37,37 56,86 56,135z"/>
 <path class="fil5" d="M3249 -20928l324 -96c0,0 -53,180 -219,230l-189 861c-37,13 -72,34 -102,63 -39,39 -64,88 -73,139l-4 1 0 -26 -145 53 407 -1225z"/>
 <path class="fil2" d="M3165 -19933l-39 177 -136 25c9,-51 33,-100 73,-139 30,-30 65,-51 102,-63z"/>
 <polygon class="fil1" points="2986,-19684 2986,-19331 2842,-19384 2842,-19703 2986,-19730 "/>
 <polygon class="fil1" points="2986,-19756 2986,-19730 2842,-19703 "/>
</symbol>
<symbol id="Fm5-32-0" viewBox="12485 -12434 1004 2024">
 <path class="fil1" d="M13489 -11656l0 894c0,194 -159,353 -353,353l-299 0c-194,0 -353,-159 -353,-353l0 -894 502 0 502 0z"/>
 <path class="fil12" d="M13489 -12081l0 425 -502 0 0 -778 149 0c194,0 353,159 353,353z"/>
 <path class="fil12" d="M12987 -12434l0 778 -502 0 0 -425c0,-194 159,-353 353,-353l150 0z"/>
</symbol>
<symbol id="Symbol1" viewBox="15970 -25249 3645 5447">
 <polygon class="fil29" points="19615,-19801 15970,-19801 15970,-25249 19615,-25249 "/>
</symbol>
<symbol id="Fm9-40-0" viewBox="23790 -16686 1715 1715">
 <polygon class="fil10" points="25505,-14971 25214,-15076 25093,-15239 25237,-15382 25399,-15261 "/>
 <polygon class="fil20" points="24045,-16606 24631,-16020 24615,-16004 24472,-15860 24456,-15845 23870,-16431 23885,-16447 24029,-16590 "/>
 <polygon class="fil21" points="25137,-15482 25237,-15382 25093,-15239 24993,-15339 "/>
 <polygon class="fil20" points="24615,-16004 25137,-15482 24993,-15339 24472,-15860 "/>
 <polygon class="fil10" points="23933,-16686 24029,-16590 23885,-16447 23854,-16478 23790,-16542 "/>
</symbol>
<symbol id="Fm10-24-0" viewBox="20984 -10144 3429 3250">
 <polygon class="fil12" points="24413,-8573 24413,-7907 24341,-7907 24186,-7907 24186,-8573 "/>
 <polygon class="fil30" points="24186,-7907 24186,-7780 23721,-7780 23721,-8700 23805,-8700 24107,-8700 24186,-8700 24186,-8573 "/>
 <path class="fil6" d="M24108 -8739c0,12 -1,25 -1,38l-301 0c0,-13 2,-26 2,-38 0,-611 -495,-1105 -1105,-1105 -611,0 -1105,495 -1105,1105 0,12 1,25 2,38l-301 0c0,-13 -1,-26 -1,-38 0,-777 629,-1406 1405,-1406 776,0 1406,629 1406,1406z"/>
 <polygon class="fil16" points="23750,-7033 23750,-6895 23145,-6895 23145,-7171 23750,-7171 "/>
 <polygon class="fil30" points="21677,-8700 21677,-7780 21211,-7780 21211,-7907 21211,-8573 21211,-8700 21297,-8700 21599,-8700 "/>
 <polygon class="fil12" points="21211,-7907 20984,-7907 20984,-8573 21211,-8573 "/>
</symbol>
<symbol id="Fm5-37-0" viewBox="12055 -16618 4893 4934">
 <path class="fil8" d="M16908 -14862c-9,-7 -17,-14 -26,-20 -9,-6 -17,-13 -26,-20 -9,-7 -17,-14 -26,-20 -9,-7 -17,-14 -26,-20 -9,-7 -17,-14 -26,-20 -9,-7 -17,-14 -26,-20 -9,-7 -17,-14 -26,-20 -9,-7 -17,-13 -26,-20 -9,-7 -17,-14 -26,-20 -9,-7 -17,-14 -26,-20 -9,-7 -17,-13 -26,-20 -9,-7 -17,-14 -26,-20 -9,-7 -17,-14 -26,-20 -9,-7 -17,-14 -26,-20 -9,-7 -17,-14 -26,-20 -9,-7 -17,-13 -26,-20 -9,-7 -17,-14 -26,-20 -9,-7 -17,-14 -26,-20 -9,-7 -17,-14 -26,-20 -9,-6 -17,-13 -26,-20 -9,-7 -17,-14 -26,-20 -9,-7 -17,-13 -26,-20 -9,-7 -17,-14 -26,-20 -9,-7 -17,-14 -26,-20 -9,-7 -17,-14 -26,-20 -9,-7 -17,-14 -26,-20 -9,-7 -17,-14 -26,-20 -9,-7 -17,-13 -26,-20 -9,-7 -17,-14 -26,-20 -9,-7 -17,-14 -26,-20 -9,-6 -17,-13 -26,-20 -9,-7 -17,-14 -26,-20 -9,-7 -17,-14 -26,-20 -9,-7 -17,-14 -26,-20 -9,-7 -17,-14 -26,-20 -9,-7 -17,-14 -26,-20 -9,-7 -17,-14 -26,-20 -9,-7 -17,-14 -26,-20 -9,-7 -17,-14 -26,-20 -9,-7 -17,-14 -26,-20 -9,-7 -17,-14 -26,-20 -9,-7 -17,-13 -26,-20 -9,-7 -17,-14 -26,-20 -9,-7 -17,-14 -26,-20 -9,-7 -17,-13 -26,-20 -9,-7 -17,-14 -26,-20 -9,-7 -17,-13 -26,-20 -9,-7 -17,-14 -26,-20 -9,-7 -17,-14 -26,-20 -9,-7 -17,-14 -26,-20 -9,-6 -17,-13 -26,-20 -9,-7 -17,-14 -26,-20 -9,-7 -17,-14 -26,-20 -9,-7 -17,-14 -26,-20 -9,-7 -17,-14 -26,-20 -9,-6 -17,-13 -26,-20 -9,-7 -17,-14 -26,-20 -9,-7 -17,-14 -26,-20 -9,-7 -17,-14 -26,-20 -9,-7 -17,-14 -26,-20 -9,-7 -17,-14 -26,-20 -9,-7 -17,-14 -26,-20 -9,-7 -17,-14 -26,-20 -9,-7 -17,-14 -26,-20 -9,-7 -17,-14 -26,-20 -9,-7 -17,-14 -26,-20 -9,-7 -17,-13 -26,-20 -9,-7 -17,-14 -26,-20 -9,-7 -17,-14 -26,-20 -9,-7 -17,-14 -26,-20 -9,-7 -17,-13 -26,-20 -9,-7 -18,-14 -28,-21 -63,-47 -130,-90 -202,-127 -253,-130 -539,-195 -857,-195 -410,0 -760,92 -1047,277 -288,185 -510,450 -666,797 -128,283 -192,581 -192,894 0,281 54,542 162,784 86,191 214,360 383,506 26,23 54,44 82,65 9,7 18,13 26,20 9,7 18,13 26,20 8,7 17,13 26,19 9,7 18,14 27,20 8,7 17,13 26,20 9,7 18,13 26,20 9,7 17,13 26,20 9,7 17,13 26,20 9,7 17,13 26,20 9,7 18,13 26,20 9,7 17,13 26,20 9,7 18,13 27,20 9,7 17,13 26,20 9,7 17,13 26,20 9,7 17,13 26,20 9,7 17,13 26,20 9,7 17,13 26,20 9,7 18,14 27,20 8,7 17,13 25,19 9,7 18,14 27,20 9,7 17,13 26,20 9,7 17,13 26,20 9,7 18,13 26,20 9,7 17,13 26,20 9,7 17,13 26,20 9,7 18,13 26,20 8,7 17,13 26,20 9,7 18,14 27,20 9,7 17,13 26,20 9,7 17,13 26,20 9,7 17,13 26,20 9,7 18,13 26,20 9,7 17,13 26,20 8,7 17,13 26,20 9,7 18,14 27,20 8,7 17,13 26,20 9,7 18,13 26,20 9,7 17,13 26,20 9,7 17,13 26,20 9,7 17,13 26,20 9,7 17,13 26,20 9,7 17,13 26,20 9,7 18,13 26,20 9,7 17,13 26,20 9,7 17,13 26,20 9,7 18,13 26,20 9,7 17,13 26,20 9,7 18,13 26,20 9,7 18,13 26,20 8,7 17,13 26,20 9,7 18,13 26,20 9,7 17,13 26,20 9,7 17,13 26,20 9,7 18,13 26,20 9,7 17,13 26,20 9,7 17,13 26,20 9,7 18,13 27,20 9,7 17,13 26,20 9,7 18,14 27,20 9,7 17,13 26,20 9,7 17,13 26,20 9,7 18,13 26,20 9,7 17,13 26,20 9,7 17,13 26,20 9,7 17,13 26,20 9,7 18,13 26,20 9,7 17,13 26,20 9,7 18,13 26,20 9,7 17,13 26,20 9,7 17,13 26,20 9,7 18,13 26,20 9,7 17,13 26,20 9,7 18,14 27,20 8,7 17,13 26,19 9,7 18,14 27,20 9,7 17,13 26,20 9,7 17,13 26,20 9,7 17,13 26,20 9,7 17,13 26,20 9,7 17,13 26,20 7,6 15,12 23,17l673 0c815,0 1475,-660 1475,-1475l0 -1672c-5,-4 -9,-7 -14,-11 -9,-7 -17,-14 -26,-20z"/>
</symbol>
<symbol id="Fm1-23-0" viewBox="11781 -24626 5159 4844">
 <path class="fil8" d="M14251 -24626l0 333 -391 -224 -2078 1197 496 338 0 6 0 1875 1737 1320 1451 0c815,0 1475,-660 1475,-1475l0 -1741 -2142 -1628 -547 0z"/>
</symbol>
<symbol id="Fm0-28-0" viewBox="1749 -21303 8322 8732">
 <path class="fil11 str0" d="M1802 -16937c0,-2382 1839,-4313 4108,-4313 2269,0 4108,1931 4108,4313 0,2382 -1839,4313 -4108,4313 -2269,0 -4108,-1931 -4108,-4313z"/>
</symbol>
<symbol id="Fm8-45-0" viewBox="21431 -9025 2623 3616">
 <path class="fil9" d="M22019 -7889c0,-64 -52,-116 -117,-116 -64,0 -116,52 -116,116 0,65 52,117 116,117 65,0 117,-52 117,-117zm436 0c0,-64 -52,-116 -116,-116 -64,0 -116,52 -116,116 0,65 52,117 116,117 64,0 116,-52 116,-117zm1213 2111l0 -723 0 -361 0 -362 0 -361 -466 0 -465 0 -466 0 -466 0 0 361 0 362 0 361 0 362 0 361 932 0 465 0 466 0zm12 -2916l-1876 0 0 515 1876 0 0 -515zm0 515zm0 162l-944 0 0 250 944 0 0 -250zm0 250zm374 2358l-2623 0 0 -3616 2623 0 0 3616zm0 -3616l0 3616"/>
 <polygon class="fil12" points="23680,-7767 22737,-7767 22737,-8017 23680,-8017 "/>
 <polygon class="fil10" points="23680,-8179 21805,-8179 21805,-8694 23680,-8694 "/>
 <polygon class="fil6" points="23668,-6501 23668,-5777 23202,-5777 23202,-6139 23202,-6501 "/>
 <polygon class="fil25" points="23668,-6501 23202,-6501 23202,-6862 23668,-6862 "/>
 <polygon class="fil25" points="23668,-6862 23202,-6862 23202,-7224 23668,-7224 "/>
 <polygon class="fil25" points="23668,-7224 23202,-7224 23202,-7585 23668,-7585 "/>
 <polygon class="fil10" points="23202,-5777 22737,-5777 22737,-6139 23202,-6139 "/>
 <polygon class="fil10" points="23202,-6139 22737,-6139 22737,-6501 23202,-6501 "/>
 <polygon class="fil10" points="23202,-6501 22737,-6501 22737,-6862 23202,-6862 "/>
 <polygon class="fil10" points="23202,-6862 22737,-6862 22737,-7224 23202,-7224 "/>
 <polygon class="fil10" points="23202,-7224 22737,-7224 22737,-7585 23202,-7585 "/>
 <polygon class="fil12" points="22737,-6139 22737,-5777 21805,-5777 21805,-6139 22271,-6139 "/>
 <polygon class="fil10" points="22737,-6139 22271,-6139 22271,-6501 22737,-6501 "/>
 <polygon class="fil10" points="22737,-6501 22271,-6501 22271,-6862 22737,-6862 "/>
 <polygon class="fil10" points="22737,-6862 22271,-6862 22271,-7224 22737,-7224 "/>
 <polygon class="fil10" points="22737,-7224 22271,-7224 22271,-7585 22737,-7585 "/>
 <path class="fil6" d="M22339 -8005c64,0 116,52 116,116 0,65 -52,117 -116,117 -64,0 -116,-52 -116,-117 0,-64 52,-116 116,-116z"/>
 <polygon class="fil10" points="22271,-6139 21805,-6139 21805,-6501 22271,-6501 "/>
 <polygon class="fil10" points="22271,-6501 21805,-6501 21805,-6862 22271,-6862 "/>
 <polygon class="fil10" points="22271,-6862 21805,-6862 21805,-7224 22271,-7224 "/>
 <polygon class="fil10" points="22271,-7224 21805,-7224 21805,-7585 22271,-7585 "/>
 <path class="fil12" d="M21902 -8005c65,0 117,52 117,116 0,65 -52,117 -117,117 -64,0 -116,-52 -116,-117 0,-64 52,-116 116,-116z"/>
</symbol>
<symbol id="Fm12-31-0" viewBox="22195 -12737 1338 2111">
 <path class="fil1" d="M23533 -11932l0 701c0,155 -59,310 -178,429 -118,118 -273,177 -429,177l-125 0c-155,0 -310,-59 -429,-177 -118,-119 -177,-273 -177,-429l0 -701 669 0 669 0z"/>
 <path class="fil17" d="M23533 -12373l0 441 -669 0 0 -127 83 0 0 -331 -83 0 0 -346 305 0c93,0 186,35 257,107 71,71 107,164 107,257z"/>
 <polygon class="fil4" points="22947,-12059 22864,-12059 22864,-12390 22947,-12390 "/>
 <path class="fil17" d="M22864 -12059l0 127 -669 0 0 -441c0,-93 36,-186 107,-257 71,-71 164,-107 257,-107l305 0 0 346 -83 0 0 331 83 0z"/>
 <polygon class="fil4" points="22864,-12059 22781,-12059 22781,-12390 22864,-12390 "/>
</symbol>
<symbol id="Fm1-22-0" viewBox="8621 -23014 198 198">
 <path class="fil1" d="M8621 -22915c0,-55 44,-99 99,-99 55,0 99,44 99,99 0,55 -44,99 -99,99 -55,0 -99,-44 -99,-99z"/>
</symbol>
<symbol id="Fm6-39-0" viewBox="21058 -16278 4375 4594">
 <path class="fil8" d="M21692 -16278l0 0 -633 0 0 2825 2327 1769 573 0c815,0 1475,-660 1475,-1475l0 -1941 -1550 -1178 -2192 0z"/>
</symbol>
<symbol id="Fm0-21-0" viewBox="2388 -24321 5985 4558">
 <path class="fil8" d="M8302 -22560c-17,-13 -34,-27 -52,-39 -17,-14 -34,-27 -52,-40 -17,-14 -34,-27 -52,-39 -17,-14 -34,-27 -52,-40 -17,-14 -34,-27 -52,-39 -17,-13 -34,-27 -52,-39 -17,-13 -34,-27 -52,-39 -17,-14 -34,-27 -52,-40 -17,-14 -34,-27 -52,-40 -17,-14 -34,-27 -52,-39 -17,-13 -34,-27 -52,-39 -17,-14 -34,-27 -52,-39 -17,-14 -34,-27 -52,-40 -17,-14 -34,-27 -52,-39 -17,-13 -34,-27 -52,-39 -17,-14 -34,-27 -52,-40 -17,-13 -34,-27 -52,-39 -17,-14 -34,-27 -52,-39 -17,-14 -34,-27 -52,-40 -17,-13 -34,-27 -52,-39 -17,-14 -34,-27 -52,-39 -17,-14 -34,-27 -52,-39 -17,-14 -34,-27 -52,-39 -17,-13 -34,-27 -52,-39 -17,-14 -34,-27 -52,-39 -17,-14 -34,-27 -52,-40 -17,-13 -34,-27 -52,-39 -17,-14 -34,-27 -52,-40 -17,-14 -34,-27 -52,-39 -17,-14 -34,-27 -52,-40 -17,-13 -34,-27 -52,-39 -17,-13 -34,-27 -52,-39 -17,-14 -34,-27 -52,-40 -17,-14 -34,-27 -52,-39 -17,-14 -34,-27 -52,-39 -17,-14 -34,-27 -52,-39 -17,-14 -34,-27 -52,-39 -237,-189 -537,-302 -863,-302 -434,0 -834,197 -1099,541 -190,-25 -389,18 -559,135 -330,228 -435,661 -264,1011 -67,-28 -146,-23 -210,22l-905 626c-100,69 -125,206 -56,306 20,29 46,52 75,68 15,16 33,29 52,39 15,16 33,29 52,39 15,16 33,29 52,39 16,16 33,29 52,39 15,16 33,29 52,39 15,16 33,29 52,39 16,16 33,29 52,39 16,16 33,29 52,39 15,16 33,29 52,39 16,16 33,29 52,39 16,16 33,29 52,39 16,16 33,29 52,39 15,16 33,29 52,39 16,16 33,29 52,39 15,16 33,29 52,39 15,16 33,29 52,39 16,16 33,29 52,39 16,16 33,29 52,39 15,16 33,29 52,39 15,16 33,29 52,39 16,16 33,29 52,39 15,16 33,29 52,39 15,16 33,29 52,39 16,16 33,29 52,39 15,16 33,29 52,39 15,16 33,29 52,39 16,16 33,29 52,39 15,16 33,29 52,39 15,16 33,29 52,39 15,16 33,29 52,39 16,16 33,29 52,39 15,16 33,29 52,39 15,16 33,29 52,39 16,16 33,29 52,39 15,16 33,29 52,39 16,16 33,29 52,40 15,16 33,29 52,39 16,16 33,29 52,39 15,16 33,29 52,39 16,16 33,29 52,39 15,16 33,29 52,39 15,16 33,29 52,39 4,4 99,80 242,193l1974 0c815,0 1475,-660 1475,-1475l0 -1268c-6,-5 -12,-10 -19,-14 -17,-14 -34,-27 -52,-39z"/>
</symbol>
<symbol id="Fm3-63-0" viewBox="3038 -10014 8193 8596">
 <path class="fil31 str2" d="M3091 -5716c0,-2344 1810,-4245 4044,-4245 2233,0 4044,1901 4044,4245 0,2344 -1810,4245 -4044,4245 -2233,0 -4044,-1900 -4044,-4245z"/>
 <path class="fil31 str3" d="M3770 -5716c0,-1951 1507,-3533 3365,-3533 1858,0 3365,1582 3365,3533 0,1951 -1507,3533 -3365,3533 -1858,0 -3365,-1582 -3365,-3533z"/>
 <path class="fil31 str2" d="M4547 -5716c0,-1500 1159,-2717 2588,-2717 1429,0 2588,1216 2588,2717 0,1500 -1159,2717 -2588,2717 -1429,0 -2588,-1216 -2588,-2717z"/>
</symbol>
<symbol id="Fm1-41-0" viewBox="18846 -21227 8177 8579">
 <path class="fil31 str2" d="M18899 -16937c0,-2340 1807,-4237 4036,-4237 2229,0 4036,1897 4036,4237 0,2340 -1807,4237 -4036,4237 -2229,0 -4036,-1897 -4036,-4237z"/>
 <path class="fil31 str3" d="M19576 -16937c0,-1947 1504,-3526 3359,-3526 1855,0 3359,1579 3359,3526 0,1947 -1504,3526 -3359,3526 -1855,0 -3359,-1579 -3359,-3526z"/>
 <path class="fil31 str2" d="M20352 -16937c0,-1498 1156,-2712 2583,-2712 1427,0 2583,1214 2583,2712 0,1498 -1156,2712 -2583,2712 -1426,0 -2583,-1214 -2583,-2712z"/>
</symbol>
<symbol id="Fm0-33-0" viewBox="1749 -21303 8322 8732">
 <path class="fil31 str2" d="M1802 -16937c0,-2382 1839,-4313 4108,-4313 2269,0 4108,1931 4108,4313 0,2382 -1839,4313 -4108,4313 -2269,0 -4108,-1931 -4108,-4313z"/>
 <path class="fil31 str3" d="M2491 -16937c0,-1982 1531,-3589 3419,-3589 1888,0 3419,1607 3419,3589 0,1982 -1531,3589 -3419,3589 -1888,0 -3419,-1607 -3419,-3589z"/>
 <path class="fil31 str2" d="M3281 -16937c0,-1525 1177,-2760 2629,-2760 1452,0 2629,1236 2629,2760 0,1525 -1177,2760 -2629,2760 -1452,0 -2629,-1236 -2629,-2760z"/>
</symbol>
<symbol id="Fm2-55-0" viewBox="17065 -10625 9228 9682">
 <path class="fil31 str2" d="M17118 -5784c0,-2644 2042,-4788 4561,-4788 2519,0 4561,2144 4561,4788 0,2644 -2042,4788 -4561,4788 -2519,0 -4561,-2144 -4561,-4788z"/>
 <path class="fil31 str3" d="M17883 -5784c0,-2201 1699,-3985 3796,-3985 2096,0 3796,1784 3796,3985 0,2201 -1699,3985 -3796,3985 -2096,0 -3796,-1784 -3796,-3985z"/>
 <path class="fil31 str2" d="M18759 -5784c0,-1692 1307,-3064 2919,-3064 1612,0 2919,1372 2919,3064 0,1692 -1307,3064 -2919,3064 -1612,0 -2919,-1372 -2919,-3064z"/>
</symbol>
 <g id="Layer_x0020_1">
  <metadata id="CorelCorpID_0Corel-Layer"/>
  <g id="_1013003616">
   <polygon class="fil32" points="170,212 257,282 218,322 139,258 "/>
   <polygon class="fil33" points="213,247 257,282 218,322 178,290 "/>
   <path class="fil34" d="M174 207l87 70 6 5 -5 5 -39 41 -4 5 -5 -4 -80 -64 -5 -4 3 -5 31 -47 4 -6 6 5zm73 76l-76 -60 -23 35 70 56 29 -31z"/>
   <polygon class="fil35" points="184,194 271,263 414,62 349,10 "/>
   <polygon class="fil36" points="228,228 271,263 414,62 381,36 "/>
   <path class="fil34" d="M194 193l76 61 135 -190 -56 -44 -155 173zm73 76l-87 -70 -6 -4 5 -5 164 -184 4 -5 5 4 66 52 5 4 -4 5 -143 201 -4 6 -6 -4z"/>
   <path class="fil37" d="M7 483c-2,4 4,8 7,4l71 -88c-6,-8 -6,-19 0,-28 8,-10 22,-11 32,-4 10,8 11,22 4,32 -7,8 -18,11 -27,6l-71 88c-3,4 2,9 6,6 63,-44 112,-58 112,-58l63 -101 -36 -29 -8 -7 -36 -29 -85 84c0,0 -2,51 -32,122z"/>
   <path class="fil38" d="M116 368c10,8 11,22 4,32 -7,8 -18,11 -27,6l-71 88c-3,4 2,9 6,6 63,-44 112,-58 112,-58l63 -101 -36 -29 -4 -3 -47 59z"/>
   <path class="fil34" d="M2 490c-2,-3 -2,-6 -1,-10 29,-70 31,-120 31,-120l0 -3 2 -2 85 -84 4 -4 5 4 36 29 8 7 36 29 5 4 -3 5 -63 101 -1 2 -3 1c0,0 -48,13 -110,57 -3,2 -7,3 -10,1l0 0c0,0 -20,-16 -20,-16l0 0zm18 -21l56 -71c-2,-4 -3,-9 -3,-13 0,-6 2,-13 6,-18l0 0m10 28l2 3 3 2c3,2 7,2 10,1 3,-1 6,-3 9,-5l0 0c3,-3 4,-8 3,-12 0,-4 -2,-7 -5,-10l0 0 0 0c-3,-3 -8,-4 -12,-3 -4,0 -8,2 -10,6l0 0 0 0c-2,3 -3,6 -3,10 0,3 1,7 3,10zm-10 -28c5,-6 12,-10 20,-11 7,-1 15,1 21,6l0 0 0 0c6,5 10,12 11,20 1,7 -1,15 -6,21l0 0c-4,5 -10,9 -16,10 -5,1 -9,1 -14,0l-56 71c49,-32 87,-45 97,-48l58 -94 -31 -25 -8 -7 -31 -25 -79 78c-1,11 -5,51 -25,105m60 -102l0 0m33 6l0 0"/>
  </g>
 </g>
</svg>
