<?xml version="1.0" encoding="UTF-8"?>
<!DOCTYPE svg PUBLIC "-//W3C//DTD SVG 1.1//EN" "http://www.w3.org/Graphics/SVG/1.1/DTD/svg11.dtd">
<!-- Creator: CorelDRAW X6 -->
<svg xmlns="http://www.w3.org/2000/svg" xml:space="preserve" width="101.6mm" height="32.3426mm" version="1.1" style="shape-rendering:geometricPrecision; text-rendering:geometricPrecision; image-rendering:optimizeQuality; fill-rule:evenodd; clip-rule:evenodd"
viewBox="0 0 10160 3234"
 xmlns:xlink="http://www.w3.org/1999/xlink">
 <defs>
  <style type="text/css">
   <![CDATA[
    .str4 {stroke:#C3B5C2;stroke-width:7.62}
    .str2 {stroke:#302D2D;stroke-width:105.83;stroke-linecap:round;stroke-linejoin:round;stroke-opacity:0.200000}
    .str0 {stroke:#302D2D;stroke-width:105.83;stroke-linecap:round;stroke-linejoin:round}
    .str3 {stroke:#302D2D;stroke-width:141.11;stroke-linecap:round;stroke-linejoin:round;stroke-dasharray:423.300000 1100.580000;stroke-opacity:0.200000}
    .str1 {stroke:#302D2D;stroke-width:141.11;stroke-linecap:round;stroke-linejoin:round;stroke-dasharray:423.300000 1100.580000}
    .fil14 {fill:none;fill-rule:nonzero}
    .fil31 {fill:none;fill-rule:nonzero}
    .fil73 {fill:#3E5268}
    .fil68 {fill:#3EAEBB}
    .fil69 {fill:#5E7A94}
    .fil72 {fill:#75B98D}
    .fil74 {fill:#BC6384}
    .fil70 {fill:#E86B69}
    .fil66 {fill:#F9C289}
    .fil75 {fill:#B6B6C0}
    .fil67 {fill:#D25958}
    .fil71 {fill:#D2C2CC}
    .fil33 {fill:#3E5268;fill-rule:nonzero}
    .fil51 {fill:#3EAEBB;fill-rule:nonzero}
    .fil60 {fill:#5A748E;fill-rule:nonzero}
    .fil56 {fill:#5C9990;fill-rule:nonzero}
    .fil44 {fill:#75B98D;fill-rule:nonzero}
    .fil48 {fill:#7E9CB1;fill-rule:nonzero}
    .fil43 {fill:#AB8EA9;fill-rule:nonzero}
    .fil50 {fill:#ABD3B9;fill-rule:nonzero}
    .fil45 {fill:#BC6384;fill-rule:nonzero}
    .fil32 {fill:#C6B7D3;fill-rule:nonzero}
    .fil77 {fill:#D89BC5;fill-rule:nonzero}
    .fil59 {fill:#D9ECE7;fill-rule:nonzero}
    .fil49 {fill:#DFD2DA;fill-rule:nonzero}
    .fil39 {fill:#DFDFE0;fill-rule:nonzero}
    .fil53 {fill:#E86B69;fill-rule:nonzero}
    .fil41 {fill:#E9DCD6;fill-rule:nonzero}
    .fil54 {fill:#ED757E;fill-rule:nonzero}
    .fil40 {fill:#F29387;fill-rule:nonzero}
    .fil55 {fill:#F39E99;fill-rule:nonzero}
    .fil76 {fill:#F5D3E6;fill-rule:nonzero}
    .fil52 {fill:#F9D6D7;fill-rule:nonzero}
    .fil37 {fill:#FDDFBF;fill-rule:nonzero}
    .fil4 {fill:#00D9CE;fill-rule:nonzero}
    .fil10 {fill:#04C4D5;fill-rule:nonzero}
    .fil12 {fill:#231F20;fill-rule:nonzero}
    .fil30 {fill:#297391;fill-rule:nonzero}
    .fil16 {fill:#302D2D;fill-rule:nonzero}
    .fil29 {fill:#474747;fill-rule:nonzero}
    .fil11 {fill:#4C4949;fill-rule:nonzero}
    .fil22 {fill:#4C4C4C;fill-rule:nonzero}
    .fil3 {fill:#523C60;fill-rule:nonzero}
    .fil25 {fill:#633900;fill-rule:nonzero}
    .fil28 {fill:#645B75;fill-rule:nonzero}
    .fil20 {fill:#666666;fill-rule:nonzero}
    .fil7 {fill:#697271;fill-rule:nonzero}
    .fil15 {fill:#6DAF75;fill-rule:nonzero}
    .fil18 {fill:#70DDE0;fill-rule:nonzero}
    .fil23 {fill:#71BDC1;fill-rule:nonzero}
    .fil21 {fill:#86CBED;fill-rule:nonzero}
    .fil0 {fill:#92E1B5;fill-rule:nonzero}
    .fil19 {fill:#A0804D;fill-rule:nonzero}
    .fil27 {fill:#A391C3;fill-rule:nonzero}
    .fil57 {fill:#B6BD90;fill-rule:nonzero}
    .fil17 {fill:#C94C27;fill-rule:nonzero}
    .fil24 {fill:lightgrey;fill-rule:nonzero}
    .fil42 {fill:#DEC05F;fill-rule:nonzero}
    .fil26 {fill:#E8CF69;fill-rule:nonzero}
    .fil5 {fill:#EBB167;fill-rule:nonzero}
    .fil2 {fill:#EE7046;fill-rule:nonzero}
    .fil8 {fill:#F15A24;fill-rule:nonzero}
    .fil13 {fill:#F2D0D3;fill-rule:nonzero}
    .fil1 {fill:whitesmoke;fill-rule:nonzero}
    .fil6 {fill:#FBB03B;fill-rule:nonzero}
    .fil9 {fill:#FBD260;fill-rule:nonzero}
    .fil34 {fill:white;fill-rule:nonzero}
    .fil58 {fill:#4C867E;fill-rule:nonzero}
    .fil38 {fill:#67C3CE;fill-rule:nonzero}
    .fil47 {fill:#73C6D0;fill-rule:nonzero}
    .fil62 {fill:#997D97;fill-rule:nonzero}
    .fil35 {fill:#AB97BB;fill-rule:nonzero}
    .fil61 {fill:#C3B5C2;fill-rule:nonzero}
    .fil36 {fill:#D186A1;fill-rule:nonzero}
    .fil65 {fill:#D25958;fill-rule:nonzero}
    .fil64 {fill:#E06A75;fill-rule:nonzero}
    .fil46 {fill:#E97D7D;fill-rule:nonzero}
    .fil63 {fill:#F1A7AC;fill-rule:nonzero}
   ]]>
  </style>
 </defs>
<symbol id="Fm7-43-0" viewBox="8581 -9582 1335 5900">
 <polygon class="fil0" points="9917,-9475 9917,-8275 9699,-8275 9699,-8442 9749,-8442 9749,-9308 9624,-9308 9624,-9475 "/>
 <polygon class="fil1" points="9770,-5299 9699,-5299 9699,-5757 9770,-5757 "/>
 <path class="fil2" d="M9722 -6328l0 -283 -23 0 0 -249c100,99 162,236 162,387 0,151 -62,289 -162,387l0 -242 23 0z"/>
 <polygon class="fil1" points="9722,-6328 9699,-6328 9699,-6611 9722,-6611 "/>
 <polygon class="fil3" points="9699,-5299 9699,-4005 9314,-3683 8933,-4005 8933,-5299 "/>
 <polygon class="fil1" points="9699,-5299 8933,-5299 8933,-5757 9699,-5757 "/>
 <path class="fil3" d="M9699 -6086l0 328 -766 0 0 -328c98,97 234,157 383,157 150,0 285,-60 383,-157z"/>
 <path class="fil2" d="M9699 -6328l0 242c-98,97 -234,157 -383,157 -149,0 -285,-60 -383,-157l0 -242 766 0z"/>
 <polygon class="fil4" points="9699,-6328 8933,-6328 8933,-6611 9699,-6611 "/>
 <path class="fil2" d="M9699 -6860l0 249 -766 0 0 -249c98,-97 234,-157 383,-157 150,0 285,60 383,157z"/>
 <path class="fil3" d="M9699 -8275l0 1415c-98,-97 -234,-157 -383,-157 -149,0 -285,60 -383,157l0 -1415 766 0z"/>
 <polygon class="fil3" points="9699,-8275 8933,-8275 8933,-8442 9699,-8442 "/>
 <polygon class="fil3" points="9699,-8590 9699,-8442 8933,-8442 8933,-8590 9208,-8590 9208,-8492 9420,-8492 9420,-8590 "/>
 <polygon class="fil2" points="9624,-9225 9420,-9225 9420,-9308 9624,-9308 "/>
 <polygon class="fil2" points="9624,-9475 9624,-9308 9420,-9308 9420,-9321 9208,-9321 9208,-9308 9003,-9308 9003,-9475 "/>
 <polygon class="fil2" points="9624,-9475 9003,-9475 9003,-9582 9624,-9582 "/>
 <polygon class="fil1" points="9419,-8492 9208,-8492 9208,-8590 9419,-8590 "/>
 <polygon class="fil1" points="9419,-8590 9208,-8590 9208,-9225 9419,-9225 "/>
 <polygon class="fil1" points="9419,-9225 9208,-9225 9208,-9308 9419,-9308 "/>
 <polygon class="fil5" points="9419,-9308 9208,-9308 9208,-9321 9419,-9321 "/>
 <polygon class="fil2" points="9208,-9225 9003,-9225 9003,-9308 9208,-9308 "/>
 <polygon class="fil0" points="9003,-9475 9003,-9308 8883,-9308 8883,-8442 8933,-8442 8933,-8275 8716,-8275 8716,-9475 "/>
 <polygon class="fil1" points="8933,-5299 8862,-5299 8862,-5757 8933,-5757 "/>
 <path class="fil2" d="M8933 -6328l0 242c-53,-52 -94,-114 -122,-183l0 -401 -3 0c28,-72 71,-137 125,-191l0 249 -23 0 0 283 23 0z"/>
 <polygon class="fil1" points="8933,-6328 8910,-6328 8910,-6611 8933,-6611 "/>
 <path class="fil2" d="M8811 -6670l0 401c-26,-63 -40,-132 -40,-204 0,-70 13,-136 37,-197l3 0z"/>
 <path class="fil0" d="M8811 -6269l-230 0 0 -401 227 0c-24,61 -37,127 -37,197 0,72 14,141 40,204z"/>
</symbol>
<symbol id="Fm5-39-0" viewBox="28566 -16076 1612 2569">
 <path class="fil6" d="M30178 -15164c0,199 -106,412 -257,676 -127,222 -110,414 -110,414l-189 0 147 -939 -105 0 -79 165 -60 -165 -73 163 -80 -163 -80 163 -74 -163 -60 165 -79 -165 -105 0 147 939 -189 0c0,0 17,-192 -110,-414 -151,-265 -257,-477 -257,-676 0,-199 24,-913 806,-913 782,0 806,713 806,913z"/>
 <polygon class="fil1" points="28888,-13934 28888,-14073 28933,-14073 29121,-14073 29622,-14073 29811,-14073 29855,-14073 29855,-13656 29772,-13656 28972,-13656 28888,-13656 28888,-13800 "/>
 <polygon class="fil7" points="29772,-13507 28972,-13507 28972,-13656 29772,-13656 "/>
 <polygon class="fil6" points="29769,-15012 29622,-14073 29121,-14073 28974,-15012 29079,-15012 29158,-14847 29218,-15012 29292,-14849 29372,-15012 29452,-14849 29525,-15012 29585,-14847 29664,-15012 "/>
</symbol>
<symbol id="Fm11-45-0" viewBox="6769 -5716 2330 1497">
 <path class="fil1" d="M7381 -4647l-391 0 0 217 391 0 0 -217zm0 217zm1718 -641l0 639c0,117 -95,212 -212,212l-1906 0c-116,0 -212,-95 -212,-212l0 -639 2330 0z"/>
 <polygon class="fil8" points="9099,-5070 6769,-5070 6769,-5388 9099,-5388 "/>
 <path class="fil1" d="M9099 -5505l0 116 -2330 0 0 -116c0,-116 95,-212 212,-212l1906 0c116,0 212,95 212,212z"/>
 <polygon class="fil9" points="7381,-4430 6990,-4430 6990,-4647 7381,-4647 "/>
</symbol>
<symbol id="Fm12-31-0" viewBox="27063 -11373 1338 2111">
 <path class="fil1" d="M28401 -10569l0 701c0,155 -59,310 -178,429 -118,118 -273,177 -429,177l-125 0c-155,0 -310,-59 -429,-177 -118,-119 -177,-273 -177,-429l0 -701 669 0 669 0z"/>
 <path class="fil5" d="M28401 -11010l0 441 -669 0 0 -127 83 0 0 -331 -83 0 0 -346 305 0c93,0 186,35 257,107 71,71 107,164 107,257z"/>
 <polygon class="fil0" points="27815,-10696 27732,-10696 27732,-11027 27815,-11027 "/>
 <path class="fil5" d="M27732 -10696l0 127 -669 0 0 -441c0,-93 36,-186 107,-257 71,-71 164,-107 257,-107l305 0 0 346 -83 0 0 331 83 0z"/>
 <polygon class="fil0" points="27732,-10696 27649,-10696 27649,-11027 27732,-11027 "/>
</symbol>
<symbol id="Fm10-24-0" viewBox="25852 -8781 3429 3250">
 <polygon class="fil10" points="29282,-7210 29282,-6544 29210,-6544 29054,-6544 29054,-7210 "/>
 <polygon class="fil11" points="29054,-6544 29054,-6417 28589,-6417 28589,-7337 28674,-7337 28975,-7337 29054,-7337 29054,-7210 "/>
 <path class="fil8" d="M28976 -7376c0,12 -1,25 -1,38l-301 0c0,-13 2,-26 2,-38 0,-611 -495,-1105 -1105,-1105 -611,0 -1105,495 -1105,1105 0,12 1,25 2,38l-301 0c0,-13 -1,-26 -1,-38 0,-777 629,-1406 1405,-1406 776,0 1406,629 1406,1406z"/>
 <polygon class="fil4" points="28618,-5670 28618,-5532 28013,-5532 28013,-5808 28618,-5808 "/>
 <polygon class="fil11" points="26545,-7337 26545,-6417 26079,-6417 26079,-6544 26079,-7210 26079,-7337 26166,-7337 26467,-7337 "/>
 <polygon class="fil10" points="26079,-6544 25852,-6544 25852,-7210 26079,-7210 "/>
</symbol>
<symbol id="Fm8-43-0" viewBox="35581 -15278 2989 2845">
 <path class="fil12" d="M38532 -13497c-8,-7 -17,-14 -26,-20 -8,-7 -17,-14 -26,-20 -8,-7 -17,-14 -26,-20 -8,-7 -17,-14 -26,-20 -8,-7 -17,-14 -26,-20 -8,-7 -17,-14 -26,-20 -8,-7 -17,-14 -26,-20 -8,-7 -17,-14 -26,-20 -8,-7 -17,-14 -26,-20 -8,-7 -17,-14 -26,-20 -8,-7 -17,-14 -26,-20 -8,-7 -17,-14 -26,-20 -8,-7 -17,-14 -26,-20 -8,-7 -17,-14 -26,-20 -8,-7 -17,-14 -26,-20 -8,-7 -17,-14 -26,-20 -8,-7 -17,-14 -26,-20 -8,-7 -17,-14 -26,-20 -8,-7 -17,-14 -26,-20 -8,-7 -17,-14 -26,-20 -8,-7 -17,-14 -26,-20 -8,-7 -17,-14 -26,-20 -8,-7 -17,-14 -26,-20 -8,-7 -17,-14 -26,-20 -8,-7 -17,-14 -26,-20 -8,-7 -17,-14 -26,-20 -8,-7 -17,-14 -26,-20 -8,-7 -17,-14 -26,-20 -8,-7 -17,-14 -26,-20 -8,-7 -17,-14 -26,-20 -8,-7 -17,-14 -26,-20 -8,-7 -17,-14 -26,-20 -8,-7 -17,-14 -26,-20 -8,-7 -17,-14 -26,-20 -8,-7 -17,-14 -26,-20 -8,-7 -17,-14 -26,-20 -8,-7 -17,-14 -26,-20 -8,-7 -17,-14 -26,-20 -8,-7 -17,-14 -26,-20 -8,-7 -17,-14 -26,-20 -8,-7 -17,-14 -26,-20 -8,-7 -17,-14 -26,-20 -8,-7 -17,-14 -26,-20 -8,-7 -17,-14 -26,-20 -8,-7 -17,-14 -26,-20 -8,-7 -17,-14 -26,-20 -8,-7 -17,-14 -26,-20 -8,-7 -17,-14 -26,-20 -8,-7 -17,-14 -26,-20 -8,-7 -17,-14 -26,-20 -8,-7 -17,-14 -26,-20 -8,-7 -17,-14 -26,-20 -8,-7 -17,-14 -26,-20 -8,-7 -17,-14 -26,-20 -8,-7 -17,-14 -26,-20 -8,-7 -17,-14 -26,-20 -8,-7 -17,-14 -26,-20 -8,-7 -17,-14 -26,-20 -8,-7 -17,-14 -26,-20 -8,-7 -17,-14 -26,-20 -8,-7 -17,-14 -26,-20 -8,-7 -17,-14 -26,-20 -8,-7 -17,-14 -26,-20 -8,-7 -17,-14 -26,-20 -8,-7 -17,-14 -26,-20 -8,-7 -17,-14 -26,-20 -8,-7 -17,-14 -26,-20 -8,-7 -17,-14 -26,-20 -8,-7 -17,-14 -26,-20 -8,-7 -17,-14 -26,-20 -8,-7 -17,-14 -26,-20 -8,-7 -17,-14 -26,-20 -8,-7 -17,-14 -26,-20 -8,-7 -17,-14 -26,-20 -8,-7 -17,-14 -26,-20 -8,-7 -17,-14 -26,-20 -8,-7 -17,-14 -26,-20 -8,-7 -17,-14 -26,-20 -8,-7 -17,-14 -26,-20 -8,-7 -17,-14 -26,-20 -8,-7 -17,-14 -26,-20 -8,-7 -17,-14 -26,-20 -8,-7 -17,-14 -26,-20 -8,-7 -17,-14 -26,-20 -8,-7 -17,-14 -26,-20 -68,-57 -158,-89 -261,-89 -248,0 -463,203 -463,452 0,140 56,251 152,317 8,7 17,14 26,20 8,7 17,14 26,20 8,7 17,14 26,20 8,7 17,14 26,20 8,7 17,14 26,20 8,7 17,14 26,20 8,7 17,14 26,20 8,7 17,14 26,20 8,7 17,14 26,20 8,7 17,14 26,20 8,7 17,14 26,20 8,7 17,14 26,20 8,7 17,14 26,20 8,7 17,14 26,20 8,7 17,14 26,20 8,7 17,14 26,20 8,7 17,14 26,20 8,7 17,14 26,20 8,7 17,14 26,20 8,7 17,14 26,20 8,7 17,14 26,20 8,7 17,14 26,20 8,7 17,14 26,20 8,7 17,14 26,20 8,7 17,14 26,20 8,7 17,14 26,20 8,7 17,14 26,20 8,7 17,14 26,20 8,7 17,14 26,20 8,7 17,14 26,20 8,7 17,14 26,20 8,7 17,14 26,20 8,7 17,14 26,20 8,7 17,14 26,20 8,7 17,14 26,20 8,7 17,14 26,20 8,7 17,14 26,20 8,7 17,14 26,20 8,7 17,14 26,20 8,7 17,14 26,20 8,7 17,14 26,20 8,7 17,14 26,20 8,7 17,14 26,20 8,7 17,14 26,20 8,7 17,14 26,20 8,7 17,14 26,20 8,7 17,14 26,20 8,7 17,14 26,20 8,7 17,14 26,20 8,7 17,14 26,20 8,7 17,14 26,20 8,7 17,14 26,20 8,7 17,14 26,20 8,7 17,14 26,20 8,7 17,14 26,20 8,7 17,14 26,20 8,7 17,14 26,20 8,7 17,14 26,20 8,7 17,14 26,20 8,7 17,14 26,20 8,7 17,14 26,20 8,7 17,14 26,20 8,7 17,14 26,20 8,7 17,14 26,20 8,7 17,14 26,20 8,7 17,14 26,20 8,7 17,14 26,20 8,7 17,14 26,20 8,7 17,14 26,20 8,7 17,14 26,20 8,7 17,14 26,20 8,7 17,14 26,20 8,7 17,14 26,20 8,7 17,14 26,20 8,7 17,14 26,20 8,7 17,14 26,20 8,7 17,14 26,20 8,7 17,14 26,20 8,7 17,14 26,20 8,7 17,14 26,20 8,7 17,14 26,20 8,7 17,14 26,20 8,7 17,14 26,20 8,7 17,14 26,20 8,7 17,14 26,20 8,7 17,14 26,20 8,7 17,14 26,20 8,7 17,14 26,20 8,7 17,14 26,20 8,7 17,14 26,20 8,7 17,14 26,20 8,7 17,14 26,20 8,7 17,14 26,20 8,7 17,14 26,20 8,7 17,14 26,20 8,7 17,14 26,20 8,7 17,14 26,20 8,7 17,14 26,20 8,7 17,14 26,20 8,7 17,14 26,20 57,48 131,78 218,85l0 -1034c-4,-3 -8,-7 -13,-10 -8,-7 -17,-14 -26,-20z"/>
</symbol>
<symbol id="Fm6-39-0" viewBox="25927 -14915 4375 4594">
 <path class="fil12" d="M26560 -14915l0 0 -633 0 0 2825 2327 1769 573 0c815,0 1475,-660 1475,-1475l0 -1941 -1550 -1178 -2192 0z"/>
</symbol>
<symbol id="Fm4-35-0" viewBox="8229 -14839 5030 4518">
 <path class="fil12" d="M8229 -14839l0 2878 2158 1640 1396 0c815,0 1475,-660 1475,-1475l0 -2194 -1117 -849 -3913 0z"/>
</symbol>
<symbol id="Fm10-25-0" viewBox="16700 -7125 5117 4856">
 <path class="fil12" d="M20673 -7118l-454 99c-9,-12 -124,-104 -161,-106 -84,-6 -94,79 -94,79l0 2 -4 49 -3260 438 293 1659 408 276 5 26 -375 0c0,0 -86,5 -86,88 0,37 275,251 446,378 -83,56 -138,150 -138,258 0,113 60,211 150,266 16,15 33,28 52,39 16,15 33,28 52,39 16,15 33,28 52,39 16,15 33,28 52,40 16,15 33,28 52,39 16,15 33,28 52,39 16,15 33,28 52,39 16,15 33,28 52,39 16,15 33,28 52,39 16,15 33,28 52,39 16,15 33,28 52,40 16,15 33,28 52,39 16,15 33,28 52,40 16,15 33,28 52,39 16,15 33,28 52,39 16,15 33,28 52,40 16,15 33,28 52,39 16,15 33,28 52,39 16,15 33,28 52,39 16,15 33,28 52,39 16,15 33,28 52,39 16,15 33,28 52,39 16,15 33,28 52,39 16,15 33,28 52,39 16,15 33,28 52,39 16,15 33,28 52,40 16,15 33,28 52,39 16,15 33,28 52,39 16,15 33,28 52,39 16,15 33,28 52,39 16,15 33,28 52,39 16,15 33,28 52,40 16,15 33,28 52,39 14,13 29,25 46,35 0,0 443,-1 1022,0 80,0 1550,53 1635,-1475l0 -2521c-602,-450 -1142,-852 -1142,-852l-2 0z"/>
</symbol>
<symbol id="Fm0-21-0" viewBox="7256 -22958 5985 4558">
 <path class="fil12" d="M13171 -21197c-17,-13 -34,-27 -52,-39 -17,-14 -34,-27 -52,-40 -17,-14 -34,-27 -52,-39 -17,-14 -34,-27 -52,-40 -17,-14 -34,-27 -52,-39 -17,-13 -34,-27 -52,-39 -17,-13 -34,-27 -52,-39 -17,-14 -34,-27 -52,-40 -17,-14 -34,-27 -52,-40 -17,-14 -34,-27 -52,-39 -17,-13 -34,-27 -52,-39 -17,-14 -34,-27 -52,-39 -17,-14 -34,-27 -52,-40 -17,-14 -34,-27 -52,-39 -17,-13 -34,-27 -52,-39 -17,-14 -34,-27 -52,-40 -17,-13 -34,-27 -52,-39 -17,-14 -34,-27 -52,-39 -17,-14 -34,-27 -52,-40 -17,-13 -34,-27 -52,-39 -17,-14 -34,-27 -52,-39 -17,-14 -34,-27 -52,-39 -17,-14 -34,-27 -52,-39 -17,-13 -34,-27 -52,-39 -17,-14 -34,-27 -52,-39 -17,-14 -34,-27 -52,-40 -17,-13 -34,-27 -52,-39 -17,-14 -34,-27 -52,-40 -17,-14 -34,-27 -52,-39 -17,-14 -34,-27 -52,-40 -17,-13 -34,-27 -52,-39 -17,-13 -34,-27 -52,-39 -17,-14 -34,-27 -52,-40 -17,-14 -34,-27 -52,-39 -17,-14 -34,-27 -52,-39 -17,-14 -34,-27 -52,-39 -17,-14 -34,-27 -52,-39 -237,-189 -537,-302 -863,-302 -434,0 -834,197 -1099,541 -190,-25 -389,18 -559,135 -330,228 -435,661 -264,1011 -67,-28 -146,-23 -210,22l-905 626c-100,69 -125,206 -56,306 20,29 46,52 75,68 15,16 33,29 52,39 15,16 33,29 52,39 15,16 33,29 52,39 16,16 33,29 52,39 15,16 33,29 52,39 15,16 33,29 52,39 16,16 33,29 52,39 16,16 33,29 52,39 15,16 33,29 52,39 16,16 33,29 52,39 16,16 33,29 52,39 16,16 33,29 52,39 15,16 33,29 52,39 16,16 33,29 52,39 15,16 33,29 52,39 15,16 33,29 52,39 16,16 33,29 52,39 16,16 33,29 52,39 15,16 33,29 52,39 15,16 33,29 52,39 16,16 33,29 52,39 15,16 33,29 52,39 15,16 33,29 52,39 16,16 33,29 52,39 15,16 33,29 52,39 15,16 33,29 52,39 16,16 33,29 52,39 15,16 33,29 52,39 15,16 33,29 52,39 15,16 33,29 52,39 16,16 33,29 52,39 15,16 33,29 52,39 15,16 33,29 52,39 16,16 33,29 52,39 15,16 33,29 52,39 16,16 33,29 52,40 15,16 33,29 52,39 16,16 33,29 52,39 15,16 33,29 52,39 16,16 33,29 52,39 15,16 33,29 52,39 15,16 33,29 52,39 4,4 99,80 242,193l1974 0c815,0 1475,-660 1475,-1475l0 -1268c-6,-5 -12,-10 -19,-14 -17,-14 -34,-27 -52,-39z"/>
</symbol>
<symbol id="Symbol2" viewBox="22835 -3391 315 3134">
 <path class="fil13" d="M23149 -3391c0,0 -315,38 -315,837l0 2134c0,123 276,269 276,54 0,-215 -23,-2034 -23,-2318 0,-284 15,-606 61,-706z"/>
</symbol>
<symbol id="Fm9-75-0" viewBox="10065 -8756 4610 5545">
 <path class="fil8" d="M13120 -7792c164,-164 429,-164 592,0 163,163 163,428 0,592l-592 -592z"/>
 <polygon class="fil9" points="13712,-7200 14676,-6236 14156,-5716 13827,-6046 11968,-7904 11637,-8236 12156,-8756 13120,-7792 "/>
 <polygon class="fil1" points="11968,-7904 13827,-6046 12746,-5446 11941,-4641 10564,-6018 11369,-6823 "/>
 <path class="fil4" d="M11803 -4503l-76 76c-125,125 -274,208 -433,251 -325,89 -688,5 -944,-251 -380,-380 -380,-997 0,-1377l213 -213 1377 1377 -138 138z"/>
 <path class="fil8" d="M11803 -4503l890 1138 -155 155 -1244 -966 0 -1c159,-43 309,-126 433,-251l76 -76z"/>
</symbol>
<symbol id="Fm0-28-0" viewBox="6617 -19940 8322 8732">
 <path class="fil14 str0" d="M6670 -15574c0,-2382 1839,-4313 4108,-4313 2269,0 4108,1931 4108,4313 0,2382 -1839,4313 -4108,4313 -2269,0 -4108,-1931 -4108,-4313z"/>
</symbol>
<symbol id="Fm9-47-0" viewBox="12300 -20989 3157 4066">
 <path class="fil6" d="M15019 -19460l-1521 0 0 1008 1521 0 0 -1008zm0 1008zm438 1528l-2358 0 0 -4066 2358 0 0 4066z"/>
 <polygon class="fil15" points="15019,-18452 13498,-18452 13498,-19460 15019,-19460 "/>
 <polygon class="fil8" points="13099,-20989 13099,-16924 12498,-16924 12498,-17427 12688,-17427 12688,-17675 12498,-17675 12498,-17989 12688,-17989 12688,-18237 12498,-18237 12498,-18551 12688,-18551 12688,-18799 12498,-18799 12498,-19113 12688,-19113 12688,-19361 12498,-19361 12498,-19675 12688,-19675 12688,-19923 12498,-19923 12498,-20237 12688,-20237 12688,-20485 12498,-20485 12498,-20989 "/>
 <polygon class="fil1" points="12688,-17427 12499,-17427 12499,-17675 12688,-17675 "/>
 <polygon class="fil1" points="12688,-17989 12499,-17989 12499,-18237 12688,-18237 "/>
 <polygon class="fil1" points="12688,-18551 12499,-18551 12499,-18799 12688,-18799 "/>
 <polygon class="fil1" points="12688,-19113 12499,-19113 12499,-19361 12688,-19361 "/>
 <polygon class="fil1" points="12688,-19675 12499,-19675 12499,-19923 12688,-19923 "/>
 <polygon class="fil1" points="12688,-20237 12499,-20237 12499,-20485 12688,-20485 "/>
 <polygon class="fil1" points="12498,-17427 12300,-17427 12300,-17675 12498,-17675 "/>
 <polygon class="fil1" points="12498,-17989 12300,-17989 12300,-18237 12498,-18237 "/>
 <polygon class="fil1" points="12498,-18551 12300,-18551 12300,-18799 12498,-18799 "/>
 <polygon class="fil1" points="12498,-19113 12300,-19113 12300,-19361 12498,-19361 "/>
 <polygon class="fil1" points="12498,-19675 12300,-19675 12300,-19923 12498,-19923 "/>
 <polygon class="fil1" points="12498,-20237 12300,-20237 12300,-20485 12498,-20485 "/>
</symbol>
<symbol id="Fm8-38-0" viewBox="14169 -5934 1891 1891">
 <polygon class="fil6" points="16060,-5934 16060,-4593 15511,-4593 15511,-4044 14169,-4044 14169,-5934 "/>
 <polygon class="fil1" points="16060,-4593 15511,-4044 15511,-4593 "/>
</symbol>
<symbol id="Fm3-28-0" viewBox="20194 -4784 2465 3927">
 <polygon class="fil6" points="22659,-4184 22659,-856 20194,-856 20194,-4184 20833,-4184 20833,-3799 20479,-3799 20479,-1241 22374,-1241 22374,-3799 22020,-3799 22020,-4184 "/>
 <path class="fil10" d="M20973 -3415l-280 0 0 280 280 0 0 -280zm0 280zm0 222l-280 0 0 280 280 0 0 -280zm0 281zm0 222l-280 0 0 280 280 0 0 -280zm0 280zm0 222l-280 0 0 280 280 0 0 -280zm0 280zm1401 -2173l0 2557 -1895 0 0 -2557 354 0 0 62 593 0 594 0 0 -62 354 0z"/>
 <polygon class="fil7" points="22020,-3799 22020,-3737 21426,-3737 20833,-3737 20833,-3799 "/>
 <polygon class="fil7" points="22020,-3799 20833,-3799 20833,-4184 22020,-4184 "/>
 <path class="fil7" d="M21500 -4567c0,-41 -33,-74 -74,-74 -40,0 -73,33 -73,74 0,40 33,74 73,74 41,0 74,-33 74,-74zm520 220l0 164 -1187 0 0 -164 339 0c0,0 -34,-436 254,-436 289,0 255,436 255,436l339 0z"/>
 <path class="fil16" d="M21426 -4641c41,0 74,33 74,74 0,40 -33,74 -74,74 -40,0 -73,-33 -73,-74 0,-41 33,-74 73,-74z"/>
 <polygon class="fil1" points="20973,-1626 20693,-1626 20693,-1906 20973,-1906 "/>
 <polygon class="fil1" points="20973,-2129 20693,-2129 20693,-2409 20973,-2409 "/>
 <polygon class="fil1" points="20973,-2632 20693,-2632 20693,-2912 20973,-2912 "/>
 <polygon class="fil8" points="20973,-3135 20693,-3135 20693,-3415 20973,-3415 "/>
</symbol>
<symbol id="Fm12-29-0" viewBox="25606 -7096 4714 4815">
 <path class="fil12" d="M28891 -6092c-238,-57 -454,-142 -645,-238 -10,-11 -11,-6 -11,-6 -6,-3 -13,-6 -19,-10 -474,-234 -969,-751 -969,-751l181 656c-2609,203 -1930,1688 -929,2431 17,13 34,26 52,39 17,14 35,27 53,40 17,13 34,26 51,39 17,14 35,27 53,40 17,13 34,26 51,39 17,13 35,27 52,40 17,13 34,26 52,39 17,13 34,26 52,39 17,13 35,27 52,40 17,13 34,26 51,39 17,14 35,27 53,40 17,13 34,26 51,39 18,14 35,27 53,40 17,13 34,26 52,39 17,13 34,26 51,39 17,13 35,27 52,40 17,13 35,27 52,40 17,14 35,27 52,40 17,13 34,26 51,39 17,13 34,27 52,39 17,13 34,26 51,39 18,14 35,27 53,40 17,13 35,26 52,39 17,13 34,26 51,39 17,13 34,26 51,39 17,13 35,27 52,40 17,14 35,27 53,40 17,13 34,26 51,39 17,13 35,27 53,40 17,13 34,26 51,39 17,13 35,27 52,39 17,14 35,27 53,40 17,13 34,26 51,39 17,13 35,27 52,39 17,13 34,26 51,39 17,14 35,27 53,40 17,13 35,27 52,40 17,13 34,26 51,39 17,14 35,27 52,40 17,13 34,26 51,39 17,14 35,27 53,40 17,13 34,26 51,39 17,13 35,27 52,40 15,11 29,22 44,33l73 0c815,0 1475,-660 1475,-1475l0 -1237c-699,-531 -1438,-1097 -1429,-1099z"/>
</symbol>
<symbol id="Fm2-54-0" viewBox="23575 -7538 5944 6235">
 <path class="fil14 str0" d="M23628 -4420c0,-1692 1307,-3064 2919,-3064 1612,0 2919,1372 2919,3064 0,1692 -1307,3064 -2919,3064 -1612,0 -2919,-1372 -2919,-3064z"/>
</symbol>
<symbol id="Fm12-47-0" viewBox="14250 -5521 2330 1497">
 <path class="fil1" d="M14862 -4452l-391 0 0 217 391 0 0 -217zm0 217zm1718 -641l0 639c0,116 -95,212 -212,212l-1906 0c-117,0 -212,-95 -212,-212l0 -639 2330 0z"/>
 <polygon class="fil8" points="16580,-4875 14250,-4875 14250,-5193 16580,-5193 "/>
 <path class="fil1" d="M16580 -5310l0 117 -2330 0 0 -117c0,-116 95,-212 212,-212l1906 0c116,0 212,95 212,212z"/>
 <polygon class="fil9" points="14862,-4235 14471,-4235 14471,-4452 14862,-4452 "/>
</symbol>
<symbol id="Fm10-43-0" viewBox="7518 -8402 2330 1497">
 <path class="fil1" d="M8130 -7333l-391 0 0 217 391 0 0 -217zm0 217zm1718 -641l0 639c0,116 -95,212 -212,212l-1906 0c-116,0 -212,-95 -212,-212l0 -639 2330 0z"/>
 <polygon class="fil8" points="9847,-7756 7518,-7756 7518,-8074 9847,-8074 "/>
 <path class="fil1" d="M9847 -8191l0 116 -2330 0 0 -116c0,-117 95,-212 212,-212l1906 0c116,0 212,95 212,212z"/>
 <polygon class="fil9" points="8130,-7116 7738,-7116 7738,-7333 8130,-7333 "/>
</symbol>
<symbol id="Fm1-52-0" viewBox="22681 -8476 7732 8110">
 <path class="fil14 str1" d="M22751 -4420c0,-2201 1699,-3985 3796,-3985 2096,0 3796,1784 3796,3985 0,2201 -1699,3985 -3796,3985 -2096,0 -3796,-1784 -3796,-3985z"/>
</symbol>
<symbol id="Fm1-30-0" viewBox="7289 -19194 6979 7270">
 <path class="fil14 str1" d="M7359 -15574c0,-1982 1531,-3589 3419,-3589 1888,0 3419,1607 3419,3589 0,1982 -1531,3589 -3419,3589 -1888,0 -3419,-1607 -3419,-3589z"/>
</symbol>
<symbol id="Fm6-34-0" viewBox="8009 -21451 3459 4524">
 <path class="fil1" d="M11166 -20034l-2156 0 0 1035 2156 0 0 -1035zm0 1035zm302 -1345l0 3070 -345 0 -2415 0 0 -3829 2001 0 0 759 759 0z"/>
 <polygon class="fil1" points="11468,-20344 10709,-20344 10709,-21103 "/>
 <polygon class="fil10" points="11166,-18999 9010,-18999 9010,-20034 11166,-20034 "/>
 <path class="fil17" d="M11123 -17274l0 348 -2767 0c-192,0 -348,-155 -348,-348l3 0c0,-193 156,-348 348,-348 192,0 348,155 348,348l2415 0z"/>
 <path class="fil8" d="M8709 -21103l0 3829c0,-192 -156,-348 -348,-348 -193,0 -348,155 -348,348l0 -3829c0,-192 156,-348 348,-348 192,0 348,155 348,348z"/>
</symbol>
<symbol id="Fm4-65-0" viewBox="9689 -15642 3548 3548">
 <path class="fil18" d="M11974 -14868c-34,-147 -140,-301 -511,-301 -331,0 -452,123 -498,254 -19,55 -26,112 -29,162 -5,78 -6,223 -5,362l-1 0c0,0 -169,-134 -176,0 -6,134 29,419 187,419 14,98 59,287 202,406l0 108 -802 270 0 695c-398,-325 -652,-820 -652,-1374 0,-980 794,-1774 1774,-1774 980,0 1774,794 1774,1774 0,554 -254,1049 -652,1374l0 -695 -802 -270 0 -108c143,-119 187,-308 202,-406 158,0 194,-285 187,-419 -6,-134 -175,0 -175,0l-1 0c1,-139 1,-284 -5,-362 -3,-35 -6,-75 -16,-115z"/>
 <path class="fil8" d="M12585 -13189l0 695 0 1c-306,250 -696,400 -1122,400 -426,0 -816,-150 -1122,-400l0 -1 0 -695 802 -270 0 444 320 138 320 -138 0 -444 802 270z"/>
 <path class="fil1" d="M12172 -14391c7,134 -29,419 -187,419 5,-39 6,-64 6,-64 0,0 4,-173 5,-355l1 0c0,0 169,-134 175,0z"/>
 <path class="fil1" d="M11990 -14753c5,78 6,223 5,362 -1,182 -5,355 -5,355 0,0 -1,25 -6,64 -15,98 -59,287 -202,406 -33,27 -71,51 -115,69l-204 -69 -205 69c-44,-17 -82,-41 -115,-69 -143,-119 -187,-308 -202,-406 -5,-39 -6,-64 -6,-64 0,0 -4,-173 -5,-355 -1,-139 -1,-284 5,-362 3,-50 10,-107 29,-162 0,0 182,259 484,343l-53 -146c14,5 260,101 579,-149 10,40 13,79 16,115z"/>
 <path class="fil19" d="M11396 -14719l53 146c-302,-84 -484,-343 -484,-343 46,-131 167,-254 498,-254 371,0 477,154 511,301 -319,250 -565,154 -579,149z"/>
 <path class="fil1" d="M11783 -13458l0 444 -320 138 -320 -138 0 -444 115 -39c57,25 125,39 205,39 79,0 147,-14 204,-39l115 39z"/>
 <path class="fil1" d="M11463 -13566l204 69c-57,25 -125,39 -204,39 -79,0 -147,-14 -205,-39l205 -69z"/>
 <path class="fil1" d="M10936 -14036c0,0 1,25 6,64 -158,0 -194,-285 -187,-419 7,-134 176,0 176,0l1 0c1,182 5,355 5,355z"/>
</symbol>
<symbol id="Fm3-35-0" viewBox="8916 -15658 3009 4004">
 <polygon class="fil1" points="11925,-15265 11925,-11819 11664,-11819 11664,-13238 11664,-13542 11664,-13828 11664,-15265 "/>
 <path class="fil2" d="M11664 -11819l0 165 -2747 0 0 -1888 1097 0c53,150 175,303 448,303l1203 0 0 1420z"/>
 <path class="fil20" d="M11664 -13542l0 303 -1203 0c-273,0 -395,-153 -448,-303l1651 0z"/>
 <path class="fil20" d="M11664 -13828l0 286 -1651 0c-51,-144 -40,-286 -40,-286l1691 0z"/>
 <path class="fil0" d="M11664 -15265l0 1437 -1691 0c0,0 -12,141 40,286l-1097 0 0 -1888 386 0 0 991 296 -167 296 167 0 -991 1769 0 0 165z"/>
 <path class="fil3" d="M9703 -14909l104 -101 -144 -21 -65 -130 -64 130 -144 21 104 101 -24 144 129 -68 129 68 -25 -144zm192 -521l0 991 -296 -167 -296 167 0 -991 592 0z"/>
 <polygon class="fil3" points="9895,-15430 9303,-15430 9303,-15658 9895,-15658 "/>
 <polygon class="fil1" points="9807,-15011 9703,-14909 9727,-14766 9599,-14834 9470,-14766 9494,-14909 9390,-15011 9534,-15032 9599,-15162 9663,-15032 "/>
</symbol>
<symbol id="Fm0-20-0" viewBox="13712 -21552 519 519">
 <path class="fil1" d="M13712 -21293c0,-143 116,-260 260,-260 143,0 260,116 260,260 0,143 -116,260 -260,260 -143,0 -260,-116 -260,-260z"/>
</symbol>
<symbol id="Fm2-62-0" viewBox="9362 -7123 5282 5540">
 <path class="fil14 str0" d="M9415 -4353c0,-1500 1159,-2717 2588,-2717 1429,0 2588,1216 2588,2717 0,1500 -1159,2717 -2588,2717 -1429,0 -2588,-1216 -2588,-2717z"/>
</symbol>
<symbol id="Fm1-38-0" viewBox="24374 -19143 6858 7120">
 <path class="fil14 str1" d="M24444 -15574c0,-1947 1504,-3526 3359,-3526 1855,0 3359,1579 3359,3526 0,1947 -1504,3526 -3359,3526 -1855,0 -3359,-1579 -3359,-3526z"/>
</symbol>
<symbol id="Fm7-41-0" viewBox="34565 -14240 4006 3901">
 <path class="fil12" d="M38539 -12226c-8,-7 -17,-14 -26,-20 -8,-7 -17,-14 -26,-20 -8,-7 -17,-14 -26,-20 -8,-7 -17,-14 -26,-20 -8,-7 -17,-14 -26,-20 -8,-7 -17,-14 -26,-20 -8,-7 -17,-14 -26,-20 -9,-7 -17,-14 -27,-20 -8,-7 -17,-14 -26,-20 -8,-7 -17,-14 -26,-20 -8,-7 -17,-14 -26,-20 -8,-7 -17,-14 -26,-20 -8,-7 -17,-14 -26,-20 -8,-7 -17,-14 -26,-20 -8,-7 -17,-14 -26,-20 -8,-7 -17,-14 -26,-20 -8,-7 -17,-14 -26,-20 -8,-7 -17,-14 -26,-20 -8,-7 -17,-14 -26,-20 -8,-7 -17,-14 -26,-20 -8,-7 -17,-14 -26,-20 -8,-7 -17,-14 -26,-20 -8,-7 -17,-14 -26,-20 -8,-7 -17,-14 -26,-20 -8,-7 -17,-14 -26,-20 -8,-7 -17,-14 -26,-20 -8,-7 -17,-14 -26,-20 -8,-7 -17,-14 -26,-20 -8,-7 -17,-14 -26,-20 -9,-7 -17,-14 -26,-20 -8,-7 -17,-14 -26,-20 -8,-7 -17,-14 -26,-20 -8,-7 -17,-14 -26,-20 -8,-7 -17,-14 -26,-20 -8,-7 -17,-14 -26,-20 -8,-7 -17,-14 -26,-20 -8,-7 -17,-14 -26,-20 -9,-7 -17,-14 -27,-20 -8,-7 -17,-14 -26,-20 -8,-7 -17,-14 -26,-20 -8,-7 -17,-14 -26,-20 -8,-7 -17,-14 -26,-20 -8,-7 -17,-14 -26,-20 -8,-7 -17,-14 -26,-20 -8,-7 -17,-14 -26,-20 -8,-7 -17,-14 -26,-20 -8,-7 -17,-14 -26,-20 -8,-7 -17,-14 -26,-20 -8,-7 -17,-14 -26,-20 -8,-7 -17,-14 -26,-20 -8,-7 -17,-14 -26,-20 -8,-7 -17,-14 -26,-20 -9,-7 -17,-14 -26,-20 -8,-7 -17,-14 -26,-20 -8,-7 -17,-14 -26,-20 -8,-7 -17,-14 -26,-20 -8,-7 -17,-14 -26,-20 -9,-7 -17,-14 -26,-20 -8,-7 -17,-14 -26,-20 -8,-7 -17,-14 -26,-20 -8,-7 -17,-14 -26,-20 -8,-7 -17,-14 -26,-20 -8,-7 -17,-14 -26,-20 -9,-7 -17,-14 -26,-20 -8,-7 -17,-14 -26,-20 -8,-7 -17,-14 -26,-20 -8,-7 -17,-14 -26,-20 -8,-7 -17,-14 -26,-20 -9,-7 -17,-14 -27,-20 -8,-7 -17,-14 -26,-20 -8,-7 -17,-14 -26,-20 -8,-7 -17,-14 -26,-20 -8,-7 -17,-14 -26,-20 -8,-7 -17,-14 -26,-20 -9,-7 -17,-14 -26,-20 -8,-7 -17,-14 -26,-20 -8,-7 -17,-14 -26,-20 -8,-7 -17,-14 -26,-20 -8,-7 -17,-14 -26,-20 -9,-7 -17,-14 -26,-20 -8,-7 -17,-14 -26,-20 -8,-7 -17,-14 -26,-20 -8,-7 -17,-14 -26,-20 -8,-7 -17,-14 -26,-20 -8,-7 -17,-14 -26,-20 -8,-7 -17,-14 -26,-20 -8,-7 -17,-14 -26,-20 -8,-7 -17,-14 -26,-20 -8,-7 -17,-14 -26,-20 -8,-7 -17,-14 -26,-20 -8,-7 -17,-14 -26,-20 -8,-7 -17,-14 -26,-20 -8,-7 -17,-14 -26,-20 -8,-7 -17,-14 -26,-20 -8,-7 -17,-14 -26,-20 -8,-7 -17,-14 -26,-20 -8,-7 -17,-14 -26,-20 -71,-60 -169,-83 -264,-83 -327,0 -621,164 -847,378 -73,73 -322,310 -322,412 0,26 20,55 46,67 7,8 16,15 26,20 7,8 16,15 26,20 7,8 16,15 26,20 7,8 16,15 26,20 7,8 16,15 26,20 7,8 16,15 26,20 7,8 16,15 26,20 7,8 16,15 26,20 7,8 16,15 26,20 7,8 16,15 26,20 7,8 16,15 26,20 7,8 16,15 26,20 7,8 16,15 26,20 7,8 16,15 26,20 7,8 16,15 26,20 5,5 10,10 16,14l-139 349c-40,96 -232,559 -232,830 0,121 45,204 120,254 8,7 17,14 26,20 8,7 17,14 26,20 8,7 17,14 26,20 8,7 17,14 26,20 8,7 17,14 26,20 8,7 17,14 26,20 8,7 17,14 26,20 8,7 17,14 26,20 8,7 17,14 26,20 8,7 17,14 26,20 8,7 17,14 26,20 8,7 17,14 26,20 8,7 17,14 26,20 8,7 17,14 26,20 8,7 17,14 26,20 8,7 17,14 26,20 8,7 17,14 26,20 8,7 17,14 26,20 8,7 17,14 26,20 8,7 17,14 26,20 8,7 17,14 26,20 8,7 17,14 26,20 8,7 17,14 26,20 8,7 17,14 26,20 8,7 17,14 26,20 8,7 17,14 26,20 8,7 17,14 26,20 8,7 17,14 26,20 8,7 17,14 26,20 8,7 17,14 26,20 8,7 17,14 26,20 8,7 17,14 26,20 8,7 17,14 26,20 8,7 17,14 26,20 8,7 17,14 26,20 8,7 17,14 26,20 8,7 17,14 26,20 8,7 17,14 26,20 8,7 17,14 26,20 8,7 17,14 26,20 8,7 17,14 26,20 8,7 17,14 26,20 8,7 17,14 26,20 8,7 17,14 26,20 8,7 17,14 26,20 8,7 17,14 26,20 8,7 17,14 26,20 8,7 17,14 26,20 8,7 17,14 26,20 8,7 17,14 26,20 8,7 17,14 26,20 8,7 17,14 26,20 8,7 17,14 26,20 8,7 17,14 26,20 8,7 17,14 26,20 8,7 17,14 26,20 8,7 17,14 26,20 8,7 17,14 26,20 8,7 17,14 26,20 8,7 17,14 26,20 8,7 17,14 26,20 8,7 17,14 26,20 8,7 17,14 26,20 8,7 17,14 26,20 8,7 17,14 26,20 2,2 4,3 7,5l616 0c815,0 1475,-660 1475,-1475l0 -387c-2,-1 -4,-3 -6,-4 -8,-7 -17,-14 -26,-20z"/>
</symbol>
<symbol id="Fm5-37-0" viewBox="16924 -15255 4893 4934">
 <path class="fil12" d="M21776 -13499c-9,-7 -17,-14 -26,-20 -9,-6 -17,-13 -26,-20 -9,-7 -17,-14 -26,-20 -9,-7 -17,-14 -26,-20 -9,-7 -17,-14 -26,-20 -9,-7 -17,-14 -26,-20 -9,-7 -17,-14 -26,-20 -9,-7 -17,-13 -26,-20 -9,-7 -17,-14 -26,-20 -9,-7 -17,-14 -26,-20 -9,-7 -17,-13 -26,-20 -9,-7 -17,-14 -26,-20 -9,-7 -17,-14 -26,-20 -9,-7 -17,-14 -26,-20 -9,-7 -17,-14 -26,-20 -9,-7 -17,-13 -26,-20 -9,-7 -17,-14 -26,-20 -9,-7 -17,-14 -26,-20 -9,-7 -17,-14 -26,-20 -9,-6 -17,-13 -26,-20 -9,-7 -17,-14 -26,-20 -9,-7 -17,-13 -26,-20 -9,-7 -17,-14 -26,-20 -9,-7 -17,-14 -26,-20 -9,-7 -17,-14 -26,-20 -9,-7 -17,-14 -26,-20 -9,-7 -17,-14 -26,-20 -9,-7 -17,-13 -26,-20 -9,-7 -17,-14 -26,-20 -9,-7 -17,-14 -26,-20 -9,-6 -17,-13 -26,-20 -9,-7 -17,-14 -26,-20 -9,-7 -17,-14 -26,-20 -9,-7 -17,-14 -26,-20 -9,-7 -17,-14 -26,-20 -9,-7 -17,-14 -26,-20 -9,-7 -17,-14 -26,-20 -9,-7 -17,-14 -26,-20 -9,-7 -17,-14 -26,-20 -9,-7 -17,-14 -26,-20 -9,-7 -17,-14 -26,-20 -9,-7 -17,-13 -26,-20 -9,-7 -17,-14 -26,-20 -9,-7 -17,-14 -26,-20 -9,-7 -17,-13 -26,-20 -9,-7 -17,-14 -26,-20 -9,-7 -17,-13 -26,-20 -9,-7 -17,-14 -26,-20 -9,-7 -17,-14 -26,-20 -9,-7 -17,-14 -26,-20 -9,-6 -17,-13 -26,-20 -9,-7 -17,-14 -26,-20 -9,-7 -17,-14 -26,-20 -9,-7 -17,-14 -26,-20 -9,-7 -17,-14 -26,-20 -9,-6 -17,-13 -26,-20 -9,-7 -17,-14 -26,-20 -9,-7 -17,-14 -26,-20 -9,-7 -17,-14 -26,-20 -9,-7 -17,-14 -26,-20 -9,-7 -17,-14 -26,-20 -9,-7 -17,-14 -26,-20 -9,-7 -17,-14 -26,-20 -9,-7 -17,-14 -26,-20 -9,-7 -17,-14 -26,-20 -9,-7 -17,-14 -26,-20 -9,-7 -17,-13 -26,-20 -9,-7 -17,-14 -26,-20 -9,-7 -17,-14 -26,-20 -9,-7 -17,-14 -26,-20 -9,-7 -17,-13 -26,-20 -9,-7 -18,-14 -28,-21 -63,-47 -130,-90 -202,-127 -253,-130 -539,-195 -857,-195 -410,0 -760,92 -1047,277 -288,185 -510,450 -666,797 -128,283 -192,581 -192,894 0,281 54,542 162,784 86,191 214,360 383,506 26,23 54,44 82,65 9,7 18,13 26,20 9,7 18,13 26,20 8,7 17,13 26,19 9,7 18,14 27,20 8,7 17,13 26,20 9,7 18,13 26,20 9,7 17,13 26,20 9,7 17,13 26,20 9,7 17,13 26,20 9,7 18,13 26,20 9,7 17,13 26,20 9,7 18,13 27,20 9,7 17,13 26,20 9,7 17,13 26,20 9,7 17,13 26,20 9,7 17,13 26,20 9,7 17,13 26,20 9,7 18,14 27,20 8,7 17,13 25,19 9,7 18,14 27,20 9,7 17,13 26,20 9,7 17,13 26,20 9,7 18,13 26,20 9,7 17,13 26,20 9,7 17,13 26,20 9,7 18,13 26,20 8,7 17,13 26,20 9,7 18,14 27,20 9,7 17,13 26,20 9,7 17,13 26,20 9,7 17,13 26,20 9,7 18,13 26,20 9,7 17,13 26,20 8,7 17,13 26,20 9,7 18,14 27,20 8,7 17,13 26,20 9,7 18,13 26,20 9,7 17,13 26,20 9,7 17,13 26,20 9,7 17,13 26,20 9,7 17,13 26,20 9,7 17,13 26,20 9,7 18,13 26,20 9,7 17,13 26,20 9,7 17,13 26,20 9,7 18,13 26,20 9,7 17,13 26,20 9,7 18,13 26,20 9,7 18,13 26,20 8,7 17,13 26,20 9,7 18,13 26,20 9,7 17,13 26,20 9,7 17,13 26,20 9,7 18,13 26,20 9,7 17,13 26,20 9,7 17,13 26,20 9,7 18,13 27,20 9,7 17,13 26,20 9,7 18,14 27,20 9,7 17,13 26,20 9,7 17,13 26,20 9,7 18,13 26,20 9,7 17,13 26,20 9,7 17,13 26,20 9,7 17,13 26,20 9,7 18,13 26,20 9,7 17,13 26,20 9,7 18,13 26,20 9,7 17,13 26,20 9,7 17,13 26,20 9,7 18,13 26,20 9,7 17,13 26,20 9,7 18,14 27,20 8,7 17,13 26,19 9,7 18,14 27,20 9,7 17,13 26,20 9,7 17,13 26,20 9,7 17,13 26,20 9,7 17,13 26,20 9,7 17,13 26,20 7,6 15,12 23,17l673 0c815,0 1475,-660 1475,-1475l0 -1672c-5,-4 -9,-7 -14,-11 -9,-7 -17,-14 -26,-20z"/>
</symbol>
<symbol id="Fm3-33-0" viewBox="33806 -23194 4782 4776">
 <path class="fil12" d="M38559 -21313c-9,-7 -17,-13 -26,-20 -9,-7 -17,-13 -26,-20 -9,-7 -17,-13 -26,-20 -9,-7 -18,-14 -27,-20 -9,-7 -17,-13 -26,-20 -9,-7 -17,-13 -26,-20 -9,-7 -17,-14 -26,-20 -9,-7 -17,-13 -26,-20 -9,-7 -17,-13 -26,-20 -9,-7 -17,-13 -26,-20 -9,-7 -17,-13 -26,-20 -9,-7 -17,-13 -26,-20 -9,-7 -17,-13 -26,-20 -9,-7 -17,-13 -26,-20 -9,-7 -17,-13 -26,-20 -9,-7 -18,-14 -27,-20 -9,-7 -17,-13 -26,-20 -9,-7 -17,-13 -26,-20 -9,-7 -17,-13 -26,-20 -9,-7 -17,-13 -26,-20 -9,-7 -18,-14 -27,-20 -9,-7 -17,-13 -26,-20 -9,-7 -17,-13 -26,-20 -9,-7 -17,-13 -26,-20 -9,-7 -17,-13 -26,-20 -9,-7 -17,-13 -26,-20 -9,-7 -17,-13 -26,-20 -9,-7 -17,-13 -26,-20 -9,-7 -17,-13 -26,-20 -9,-7 -18,-14 -26,-20 -9,-7 -17,-13 -26,-20 -9,-7 -17,-14 -26,-20 -9,-7 -17,-13 -26,-20 -9,-7 -17,-13 -26,-20 -9,-7 -18,-14 -27,-20 -9,-7 -17,-13 -26,-20 -9,-7 -17,-13 -26,-20 -9,-7 -18,-14 -27,-20 -9,-7 -17,-13 -26,-20 -9,-7 -17,-13 -26,-20 -9,-7 -17,-13 -26,-20 -9,-7 -17,-13 -26,-20 -9,-7 -17,-13 -26,-20 -9,-7 -17,-13 -26,-20 -9,-7 -17,-13 -26,-20 -9,-7 -18,-14 -26,-20 -9,-7 -17,-13 -26,-20 -9,-7 -17,-13 -26,-20 -9,-7 -17,-13 -26,-20 -9,-7 -17,-14 -26,-20 -9,-7 -17,-13 -26,-20 -9,-7 -17,-13 -26,-20 -9,-7 -17,-13 -26,-20 -9,-7 -17,-13 -26,-20 -9,-7 -17,-13 -26,-20 -9,-7 -18,-14 -26,-20 -9,-7 -17,-13 -26,-20 -9,-7 -17,-13 -26,-20 -9,-7 -17,-13 -26,-20 -9,-7 -18,-14 -26,-20 -9,-7 -17,-13 -26,-20 -9,-7 -17,-13 -26,-20 -9,-7 -17,-14 -26,-20 -9,-7 -17,-13 -26,-20 -9,-7 -17,-13 -26,-20 -9,-7 -17,-13 -26,-20 -9,-7 -18,-13 -26,-20 -9,-7 -17,-13 -26,-20 -9,-7 -17,-14 -26,-20 -9,-7 -17,-13 -26,-20 -9,-7 -17,-13 -26,-20 -9,-7 -17,-13 -26,-20 -9,-7 -17,-13 -26,-20 -9,-7 -18,-14 -26,-20 -9,-7 -17,-13 -26,-20 -9,-7 -17,-13 -26,-20 -9,-7 -18,-14 -26,-20 -286,-219 -645,-348 -1038,-348 -948,0 -1697,749 -1697,1697 0,566 267,1062 685,1369 9,7 17,13 26,20 9,7 17,13 26,20 9,7 17,13 26,20 9,7 17,14 26,20 9,7 17,13 26,20 9,7 18,14 27,20 9,7 17,13 26,20 9,7 17,13 26,20 9,7 17,13 26,20 9,7 17,14 26,20 9,7 17,13 26,20 9,7 17,13 26,20 9,7 17,13 26,20 9,7 17,13 26,20 9,7 17,13 26,20 9,7 17,13 26,20 9,7 17,13 26,20 9,7 17,13 26,20 9,7 18,14 26,20 9,7 17,13 26,20 9,7 17,13 26,20 9,7 18,14 27,20 9,7 17,13 26,20 9,7 18,14 26,20 9,7 17,13 26,20 9,7 18,14 27,20 9,7 17,13 26,20 9,7 17,13 26,20 9,7 17,13 26,20 9,7 17,13 26,20 9,7 18,14 27,20 9,7 17,13 26,20 9,7 17,14 26,20 9,7 17,13 26,20 9,7 17,13 26,20 9,7 17,13 26,20 9,7 17,13 26,20 9,7 17,14 26,20 9,7 17,13 26,20 9,7 17,13 26,20 9,7 17,13 26,20 9,7 18,14 27,20 9,7 17,13 26,20 9,7 17,13 26,20 9,7 17,13 26,20 9,7 17,13 26,20 9,7 18,14 27,20 9,7 17,13 26,19 9,7 17,13 26,20 9,7 18,14 27,20 9,7 17,13 26,20 9,7 17,13 26,20 9,7 17,13 26,20 9,7 17,13 26,20 9,7 18,14 26,20 9,7 17,13 26,20 9,7 17,13 26,20 9,7 17,14 26,20 9,7 17,14 26,20 9,7 17,13 26,20 9,7 18,14 27,20 9,7 17,13 26,20 9,7 17,13 26,20 9,7 18,14 26,20 9,7 17,13 26,20 9,7 17,13 26,20 9,7 18,14 27,20 9,7 17,13 26,20 9,7 18,14 27,20 9,7 17,13 26,20 9,7 17,13 26,20 9,7 17,13 26,20 9,7 17,13 26,20 9,7 17,13 26,20 9,7 17,13 26,20 9,7 17,13 26,20 9,7 17,13 26,20 9,7 17,13 26,20 9,7 17,13 26,20 9,7 18,14 26,20 9,7 17,13 26,20 9,7 17,13 26,20 9,7 18,14 26,20 9,7 17,13 26,20 9,7 17,13 26,20 8,6 16,12 24,18l371 0c815,0 1475,-661 1475,-1475l0 -1397c-1,-1 -2,-2 -4,-3 -9,-7 -17,-13 -26,-20z"/>
</symbol>
<symbol id="Symbol1" viewBox="20838 -23886 3645 5447">
 <polygon class="fil21" points="24483,-18438 20838,-18438 20838,-23886 24483,-23886 "/>
</symbol>
<symbol id="Fm8-73-0" viewBox="24114 -19231 1332 2516">
 <path class="fil1" d="M25221 -18538c0,-244 -197,-441 -441,-441 -243,0 -441,197 -441,441 0,244 197,441 441,441 244,0 441,-197 441,-441zm-441 -693c391,0 666,190 666,698 0,507 -666,1818 -666,1818 0,0 -666,-1311 -666,-1818 0,-507 275,-698 666,-698z"/>
 <path class="fil8" d="M24968 -18538c0,-104 -84,-188 -188,-188 -104,0 -187,84 -187,188 0,104 84,188 187,188 104,0 188,-84 188,-188zm-188 -441c244,0 441,197 441,441 0,244 -197,441 -441,441 -243,0 -441,-197 -441,-441 0,-244 197,-441 441,-441z"/>
</symbol>
<symbol id="Fm1-60-0" viewBox="8567 -7928 6871 7138">
 <path class="fil14 str1" d="M8638 -4353c0,-1951 1507,-3533 3365,-3533 1858,0 3365,1582 3365,3533 0,1951 -1507,3533 -3365,3533 -1858,0 -3365,-1582 -3365,-3533z"/>
</symbol>
<symbol id="Fm0-36-0" viewBox="23714 -19864 8177 8579">
 <path class="fil14 str0" d="M23767 -15574c0,-2340 1807,-4237 4036,-4237 2229,0 4036,1897 4036,4237 0,2340 -1807,4237 -4036,4237 -2229,0 -4036,-1897 -4036,-4237z"/>
</symbol>
<symbol id="Fm2-32-0" viewBox="8096 -18387 5365 5627">
 <path class="fil14 str0" d="M8149 -15574c0,-1525 1177,-2760 2629,-2760 1452,0 2629,1236 2629,2760 0,1525 -1177,2760 -2629,2760 -1452,0 -2629,-1236 -2629,-2760z"/>
</symbol>
<symbol id="Fm1-25-0" viewBox="19014 -8114 4556 436">
 <polygon class="fil20" points="22962,-8114 23114,-8114 23114,-7678 22962,-7678 "/>
 <polygon class="fil7" points="20850,-8114 22962,-8114 22962,-7678 20850,-7678 "/>
 <polygon class="fil20" points="20574,-8114 20850,-8114 20850,-7678 20574,-7678 "/>
 <polygon class="fil7" points="19620,-8114 20574,-8114 20574,-7678 19620,-7678 "/>
 <polygon class="fil20" points="19359,-8114 19620,-8114 19620,-7678 19359,-7678 19359,-7753 19359,-8039 "/>
 <polygon class="fil22" points="23114,-8114 23570,-7896 23114,-7678 "/>
 <polygon class="fil22" points="19014,-8039 19359,-8039 19359,-7753 19014,-7753 "/>
</symbol>
<symbol id="Fm0-19-0" viewBox="153541 -116615 9758 9758">
 <path class="fil23" d="M162286 -114713c-1644,-2135 -4707,-2534 -6842,-890 -2135,1644 -2533,4707 -889,6842 1644,2135 4707,2533 6842,890 2135,-1644 2533,-4707 890,-6842z"/>
</symbol>
<symbol id="Fm6-41-0" viewBox="28853 -15876 693 693">
 <path class="fil24" d="M28853 -15530c0,-192 155,-347 347,-347 191,0 347,155 347,347 0,191 -155,347 -347,347 -192,0 -347,-155 -347,-347z"/>
</symbol>
<symbol id="Fm4-37-0" viewBox="12962 -15085 440 2859">
 <polygon class="fil2" points="13401,-14484 13400,-14484 13400,-14726 13401,-14726 "/>
 <polygon class="fil25" points="13401,-15085 13401,-14726 13400,-14726 12962,-14726 12962,-15085 "/>
 <polygon class="fil26" points="13401,-12581 13306,-12427 13057,-12427 12962,-12581 13400,-12581 "/>
 <polygon class="fil5" points="13400,-12581 12962,-12581 12962,-14484 13400,-14484 "/>
 <polygon class="fil26" points="13400,-14484 12962,-14484 12962,-14726 13400,-14726 "/>
 <polygon class="fil25" points="13306,-12427 13182,-12226 13057,-12427 "/>
</symbol>
<symbol id="Fm2-40-0" viewBox="25167 -18339 5272 5529">
 <path class="fil14 str0" d="M25220 -15574c0,-1498 1156,-2712 2583,-2712 1427,0 2583,1214 2583,2712 0,1498 -1156,2712 -2583,2712 -1426,0 -2583,-1214 -2583,-2712z"/>
</symbol>
<symbol id="Fm9-40-0" viewBox="28658 -15323 1715 1715">
 <polygon class="fil7" points="30373,-13608 30083,-13713 29961,-13876 30105,-14019 30268,-13898 "/>
 <polygon class="fil27" points="28913,-15243 29499,-14656 29483,-14641 29340,-14497 29325,-14482 28738,-15068 28754,-15083 28897,-15227 "/>
 <polygon class="fil28" points="30005,-14119 30105,-14019 29961,-13876 29862,-13976 "/>
 <polygon class="fil27" points="29483,-14641 30005,-14119 29862,-13976 29340,-14497 "/>
 <polygon class="fil7" points="28801,-15323 28897,-15227 28754,-15083 28723,-15115 28658,-15179 "/>
</symbol>
<symbol id="Fm1-22-0" viewBox="13489 -21651 198 198">
 <path class="fil1" d="M13489 -21552c0,-55 44,-99 99,-99 55,0 99,44 99,99 0,55 -44,99 -99,99 -55,0 -99,-44 -99,-99z"/>
</symbol>
<symbol id="Fm9-45-0" viewBox="8360 -7203 4905 4922">
 <path class="fil12" d="M11639 -6908c-39,0 -72,24 -84,58 -2,-1 -4,-3 -7,-4 -16,-14 -33,-27 -52,-39 -90,-80 -227,-131 -381,-131 -116,0 -223,29 -307,78 -9,-7 -179,-138 -212,-138l-315 0c-49,0 -89,38 -89,86l0 401 -863 -604 -94 0 0 237 -17 0 -259 -237 -95 0 -506 331 0 656 451 288 -176 2269 1818 1378 1337 0c127,0 249,-16 366,-46 0,0 97,-30 181,-59 493,-230 928,-749 928,-1370l0 -2146c-667,-509 -1326,-1005 -1342,-1005l-284 0z"/>
</symbol>
<symbol id="Fm11-27-0" viewBox="33865 -7099 4724 4830">
 <path class="fil12" d="M38495 -4736c-16,-13 -33,-26 -51,-39 -17,-13 -34,-27 -52,-40 -16,-13 -34,-26 -51,-39 -17,-14 -34,-27 -53,-40 -17,-13 -34,-27 -52,-39 -16,-13 -34,-26 -51,-39 -16,-13 -2674,-2126 -2674,-2126 0,0 -614,756 -1646,1004 34,8 2225,1668 2248,1674 -4,7 -8,13 -12,20 -2,0 -4,1 -5,1 1,0 3,1 4,1 -219,371 -569,700 -826,807 34,-1 1023,740 1783,1323l57 0c815,0 1475,-661 1475,-1475l0 -921c-13,-10 -27,-21 -41,-31 -17,-14 -34,-27 -52,-40z"/>
</symbol>
<symbol id="Fm1-23-0" viewBox="16649 -23262 5159 4844">
 <path class="fil12" d="M19119 -23262l0 333 -391 -224 -2078 1197 496 338 0 6 0 1875 1737 1320 1451 0c815,0 1475,-660 1475,-1475l0 -1741 -2142 -1628 -547 0z"/>
</symbol>
<symbol id="Fm0-58-0" viewBox="7907 -8651 8193 8596">
 <path class="fil14 str0" d="M7960 -4353c0,-2344 1810,-4245 4044,-4245 2233,0 4044,1901 4044,4245 0,2344 -1810,4245 -4044,4245 -2233,0 -4044,-1900 -4044,-4245z"/>
</symbol>
<symbol id="Fm2-31-0" viewBox="25477 -23251 4836 4844">
 <path class="fil12" d="M30280 -20551c-9,-7 -17,-13 -26,-20 -9,-7 -18,-13 -26,-20 -9,-7 -17,-13 -26,-20 -9,-7 -17,-13 -26,-20 -9,-7 -17,-13 -26,-20 -9,-7 -17,-13 -26,-20 -9,-7 -18,-13 -26,-20 -9,-7 -17,-13 -26,-20 -9,-7 -17,-13 -26,-20 -9,-7 -17,-13 -26,-20 -9,-7 -17,-13 -26,-20 -9,-7 -17,-13 -26,-20 -9,-7 -17,-13 -26,-20 -9,-7 -18,-13 -26,-20 -9,-7 -18,-14 -27,-20 -9,-6 -17,-13 -26,-19 -9,-7 -17,-13 -26,-20 -9,-7 -17,-13 -26,-20 -9,-7 -17,-13 -26,-20 -9,-7 -18,-13 -26,-20 -9,-7 -17,-13 -26,-20 -9,-7 -17,-13 -26,-20 -9,-7 -18,-13 -26,-20 -9,-7 -17,-13 -26,-20 -9,-7 -17,-13 -26,-20 -9,-7 -17,-13 -26,-20 -9,-7 -17,-13 -26,-20 -9,-7 -17,-13 -26,-20 -9,-7 -17,-13 -26,-20 -9,-7 -17,-13 -26,-20 -9,-7 -17,-13 -26,-20 -9,-7 -18,-13 -26,-20 -9,-7 -17,-13 -26,-20 -9,-7 -17,-13 -26,-20 -9,-7 -17,-13 -26,-20 -9,-7 -17,-13 -26,-20 -9,-7 -17,-13 -26,-20 -9,-7 -18,-13 -26,-20 -9,-7 -17,-13 -26,-20 -9,-7 -18,-13 -26,-20 -9,-7 -17,-13 -26,-20 -9,-7 -17,-13 -26,-20 -9,-7 -18,-13 -26,-20 -9,-7 -17,-13 -26,-20 -9,-7 -17,-13 -26,-20 -9,-7 -17,-13 -26,-20 -9,-7 -17,-13 -26,-20 -9,-7 -17,-13 -26,-20 -9,-7 -18,-13 -27,-20 -9,-7 -17,-13 -26,-20 -9,-7 -17,-13 -26,-20 -9,-7 -17,-13 -26,-20 -9,-7 -17,-13 -26,-20 -9,-7 -18,-13 -27,-20 -9,-7 -17,-13 -26,-20 -9,-7 -17,-13 -26,-20 -9,-7 -17,-13 -26,-20 -9,-7 -17,-13 -26,-20 -9,-7 -18,-13 -26,-20 -9,-7 -17,-13 -26,-20 -9,-7 -17,-13 -26,-20 -9,-7 -17,-13 -26,-20 -9,-7 -18,-13 -26,-20 -9,-7 -17,-13 -26,-20 -9,-7 -17,-13 -26,-20 -9,-7 -17,-13 -26,-20 -9,-7 -17,-13 -26,-20 -9,-7 -17,-13 -26,-20 -9,-7 -17,-13 -26,-20 -9,-7 -17,-13 -26,-20 -9,-7 -18,-13 -26,-20 -9,-7 -17,-13 -26,-20 -9,-7 -17,-13 -26,-20 -9,-7 -18,-13 -26,-20 -9,-7 -17,-13 -26,-20 -9,-7 -18,-13 -27,-20 -9,-7 -17,-13 -26,-20 -9,-7 -17,-13 -26,-20 -9,-7 -18,-13 -26,-20 -9,-7 -17,-13 -26,-20 -9,-7 -17,-13 -26,-20 -9,-7 -17,-13 -26,-20 -9,-7 -18,-13 -26,-20 -9,-7 -17,-13 -26,-20 -9,-7 -17,-13 -26,-20 -9,-7 -17,-13 -26,-20 -9,-7 -17,-13 -26,-20 -9,-7 -17,-13 -26,-20 -9,-7 -17,-13 -26,-20 -9,-7 -17,-13 -26,-20 -9,-7 -17,-13 -26,-20 -9,-7 -17,-13 -26,-20 -9,-7 -17,-13 -26,-20 -9,-7 -17,-13 -26,-20 -9,-7 -17,-13 -26,-20 -9,-7 -18,-13 -26,-20 -390,-297 -868,-521 -1406,-657 -409,-104 -745,-129 -882,-136l0 586c8,1 2646,2006 2646,2006 43,3 104,7 179,16 18,70 34,141 48,213 -2,-2 -5,-4 -7,-5 -9,-7 -17,-13 -26,-20 -9,-7 -17,-13 -26,-20 -9,-7 -17,-14 -26,-20 -9,-7 -17,-13 -26,-20 -9,-7 -17,-13 -26,-20 -9,-7 -17,-13 -26,-20 -9,-7 -17,-13 -26,-20 -9,-7 -17,-13 -26,-20 -9,-7 -17,-13 -26,-20 -9,-7 -17,-13 -26,-20 -9,-7 -18,-14 -27,-20 -9,-7 -17,-13 -26,-20 -9,-7 -17,-13 -26,-20 -9,-7 -18,-14 -27,-20 -9,-7 -17,-13 -26,-20 -9,-7 -17,-13 -26,-20 -9,-7 -17,-13 -26,-20 -9,-7 -17,-13 -26,-20 -9,-7 -17,-13 -26,-20 -9,-7 -18,-14 -27,-20 -9,-6 -17,-13 -25,-19 -9,-7 -18,-14 -27,-20 -9,-6 -17,-13 -26,-20 -9,-7 -17,-13 -26,-20 -9,-7 -17,-13 -26,-20 -9,-7 -17,-13 -26,-20 -9,-7 -17,-13 -26,-20 -9,-7 -17,-13 -26,-20 -9,-7 -17,-13 -26,-20 -9,-7 -17,-13 -26,-20 -9,-7 -17,-13 -26,-20 -9,-7 -17,-13 -26,-20 -9,-7 -18,-14 -27,-20 -9,-7 -17,-13 -26,-20 -9,-7 -17,-13 -26,-20 -9,-7 -17,-13 -26,-20 -9,-7 -17,-13 -26,-20 -9,-7 -17,-13 -26,-20 -9,-7 -18,-14 -26,-20 -9,-7 -17,-13 -26,-20 -9,-7 -17,-13 -26,-20 -9,-7 -17,-13 -26,-20 -9,-7 -17,-13 -26,-20 -9,-6 -17,-13 -26,-19 -9,-7 -18,-14 -27,-20 -9,-7 -17,-13 -26,-20 -9,-7 -17,-13 -26,-20 -9,-7 -17,-13 -26,-20 -9,-7 -17,-13 -26,-20 -9,-7 -17,-13 -26,-20 -9,-7 -18,-13 -26,-20 -9,-6 -17,-13 -26,-20 -9,-7 -17,-14 -26,-20 -261,-197 -580,-342 -940,-426 -231,-54 -427,-70 -538,-75l0 586c8,0 1650,1251 1650,1251 2,0 5,0 7,0 15,71 25,145 32,221 -4,-3 -8,-6 -12,-9 -8,-7 -17,-13 -26,-20 -8,-7 -17,-13 -26,-20 -8,-7 -17,-13 -26,-20 -8,-7 -17,-13 -26,-20 -9,-7 -17,-14 -26,-20 -8,-7 -17,-13 -26,-20 -8,-7 -17,-13 -26,-20 -8,-7 -17,-13 -26,-20 -8,-7 -17,-13 -26,-20 -8,-7 -17,-13 -26,-20 -8,-7 -17,-14 -26,-20 -8,-7 -17,-13 -26,-20 -8,-7 -17,-13 -26,-20 -8,-7 -17,-13 -26,-20 -8,-7 -17,-14 -26,-20 -8,-7 -17,-13 -26,-20 -8,-7 -17,-14 -26,-20 -8,-7 -17,-13 -26,-20 -9,-7 -17,-14 -26,-20 -8,-7 -17,-13 -26,-20 -8,-7 -17,-13 -26,-20 -8,-7 -17,-13 -26,-20 -8,-7 -17,-13 -26,-20 -8,-7 -17,-13 -26,-20 -9,-7 -17,-14 -26,-20 -8,-7 -17,-13 -26,-20 -8,-7 -17,-13 -26,-20 -8,-7 -17,-13 -26,-20 -8,-7 -17,-13 -26,-20 -8,-7 -17,-13 -26,-20 -8,-7 -17,-13 -26,-20 -8,-7 -17,-13 -26,-20 -8,-7 -17,-13 -26,-20 -81,-68 -185,-108 -299,-108 -259,0 -468,210 -468,469 0,157 77,296 195,381 8,7 17,13 26,20 8,7 17,13 26,20 8,7 17,13 26,20 8,7 17,13 26,20 8,7 17,13 26,20 8,7 17,13 26,20 8,7 17,14 26,20 8,7 17,13 26,20 8,7 17,13 26,20 8,7 17,13 26,20 8,7 17,13 26,20 9,7 17,14 26,20 8,7 17,13 26,20 8,7 17,14 26,20 8,7 17,13 26,20 8,7 17,14 26,20 8,7 17,13 26,20 8,7 17,13 26,20 8,7 17,13 26,20 8,7 17,13 26,20 8,7 17,13 26,20 8,7 17,13 26,20 8,7 17,13 26,20 8,7 17,14 26,20 8,7 17,13 26,20 8,7 17,13 26,20 8,7 17,13 26,20 8,7 17,13 26,20 8,7 17,13 26,20 8,7 17,13 26,20 8,7 17,13 26,20 8,7 17,13 26,20 8,7 17,13 26,20 8,7 17,13 26,20 8,7 17,13 26,20 8,7 17,14 26,20 8,7 17,13 26,20 8,7 17,13 26,20 8,7 17,14 26,20 8,7 17,13 26,20 8,7 17,13 26,20 8,7 17,13 26,20 8,7 17,13 26,20 8,7 17,13 26,20 8,7 17,13 26,20 8,7 17,13 26,20 8,7 17,14 26,20 8,7 17,13 26,20 8,7 17,13 26,20 8,7 17,14 26,20 8,7 17,13 26,20 8,7 17,13 26,20 8,7 17,13 26,20 8,7 17,13 26,20 8,7 17,13 26,20 8,7 17,13 26,20 8,7 17,13 26,20 8,7 17,14 26,20 8,7 17,13 26,20 8,7 17,13 26,20 8,7 17,14 26,20 8,7 17,13 26,20 8,7 17,13 26,20 8,7 17,14 26,20 8,7 17,13 26,20 8,7 17,13 26,20 9,7 17,14 26,20 8,7 17,13 26,20 8,7 17,13 26,20 8,7 17,13 26,20 8,7 17,13 26,20 8,7 17,13 26,20 7,6 14,11 21,16l1213 0c815,0 1475,-659 1475,-1472l0 -647c-3,-2 -5,-4 -8,-6 -9,-7 -17,-13 -26,-20z"/>
</symbol>
<symbol id="Fm0-23-0" viewBox="17674 -7270 6664 3510">
 <path class="fil20" d="M23900 -4391l0 -2248c0,-161 -132,-292 -292,-292l-4004 0 -731 0 -468 0c-161,0 -292,132 -292,292l0 2248c0,161 132,292 292,292l468 0 731 0 4004 0c161,0 292,-131 292,-292zm438 -2587l0 2926c0,161 -132,292 -292,292l-6079 0c-161,0 -292,-132 -292,-292l0 -2926c0,-161 132,-292 292,-292l6079 0c161,0 292,132 292,292z"/>
 <path class="fil22" d="M23900 -6639l0 2248c0,161 -132,292 -292,292l-4004 0 0 -1261 0 -312 0 -1261 4004 0c161,0 292,131 292,292z"/>
 <polygon class="fil7" points="19603,-4098 18873,-4098 18873,-5359 19603,-5359 "/>
 <polygon class="fil4" points="19603,-5359 18873,-5359 18873,-5671 19603,-5671 "/>
 <polygon class="fil7" points="19603,-5671 18873,-5671 18873,-6931 19603,-6931 "/>
 <path class="fil22" d="M18873 -5359l0 1261 -468 0c-161,0 -292,-131 -292,-292l0 -2248c0,-161 132,-292 292,-292l468 0 0 1261 0 312z"/>
</symbol>
<symbol id="Fm7-36-0" viewBox="19515 -14228 3648 3648">
 <path class="fil1" d="M22643 -12404c0,-720 -584,-1304 -1304,-1304 -720,0 -1304,584 -1304,1304 0,720 584,1304 1304,1304 720,0 1304,-584 1304,-1304zm-1304 -1824c1008,0 1824,816 1824,1824 0,1008 -816,1824 -1824,1824 -1008,0 -1824,-816 -1824,-1824 0,-1008 816,-1824 1824,-1824z"/>
 <path class="fil8" d="M21339 -13708c720,0 1304,584 1304,1304 0,720 -584,1304 -1304,1304 -720,0 -1304,-584 -1304,-1304 0,-720 584,-1304 1304,-1304z"/>
</symbol>
<symbol id="Fm5-32-0" viewBox="17353 -11071 1004 2024">
 <path class="fil1" d="M18357 -10293l0 894c0,194 -159,353 -353,353l-299 0c-194,0 -353,-159 -353,-353l0 -894 502 0 502 0z"/>
 <path class="fil10" d="M18357 -10718l0 425 -502 0 0 -778 149 0c194,0 353,159 353,353z"/>
 <path class="fil10" d="M17855 -11071l0 778 -502 0 0 -425c0,-194 159,-353 353,-353l150 0z"/>
</symbol>
<symbol id="Fm4-30-0" viewBox="16178 -24132 9917 8259">
 <path class="fil1" d="M21369 -17558c0,-128 -104,-232 -232,-232 -128,0 -232,104 -232,232 0,128 104,232 232,232 128,0 232,-104 232,-232zm4727 -489l0 634c0,340 -278,619 -619,619l-3549 0 -1583 0 -3548 0c-340,0 -619,-278 -619,-619l0 -634 9913 0 4 0z"/>
 <path class="fil29" d="M25532 -23482l-8790 0 0 4915 8790 0 0 -4915zm0 4915zm564 -4946l0 5466 -4 0 -9913 0 0 -5466c0,-340 278,-619 619,-619l8680 0c340,0 619,278 619,619z"/>
 <polygon class="fil10" points="25532,-18567 16742,-18567 16742,-23482 25532,-23482 "/>
 <path class="fil1" d="M22825 -15873l-1688 0 -1689 0c681,-278 897,-922 897,-922l1583 0c0,0 217,643 897,922z"/>
 <path class="fil8" d="M21137 -17790c128,0 232,104 232,232 0,128 -104,232 -232,232 -128,0 -232,-104 -232,-232 0,-128 104,-232 232,-232z"/>
</symbol>
<symbol id="Fm7-71-0" viewBox="26337 -14724 2392 2392">
 <path class="fil10" d="M26575 -13130l280 0c-22,-101 -35,-208 -40,-319l-317 0c9,113 35,219 76,319zm280 -797l-280 0c-41,99 -68,206 -76,319l317 0c5,-111 18,-219 40,-319zm230 1334c-78,-102 -142,-231 -189,-377l-238 0c103,162 251,293 427,377zm-188 -1493c46,-146 110,-275 188,-377 -175,83 -323,215 -427,377l239 0zm555 0l0 -468c-164,44 -305,220 -391,468l391 0zm0 479l0 -319 -436 0c-22,99 -37,206 -41,319l477 0zm0 478l0 -319 -477 0c5,113 19,219 41,319l436 0zm0 628l0 -468 -391 0c86,248 227,424 391,468zm549 -468l-391 0 0 468c165,-44 305,-220 391,-468zm-391 -1117l391 0c-86,-248 -226,-424 -391,-468l0 468zm477 638l-477 0 0 319 436 0c23,-100 37,-206 41,-319zm-477 -159l477 0c-5,-113 -18,-220 -41,-319l-436 0 0 319zm794 638l-238 0c-47,146 -112,274 -189,377 175,-83 323,-215 427,-377zm-238 -1117l238 0c-104,-162 -251,-293 -427,-377 78,102 142,231 189,377zm397 638l-317 0c-5,111 -18,218 -40,319l280 0c41,-100 68,-206 76,-319zm-317 -159l317 0c-8,-113 -35,-220 -76,-319l-280 0c22,100 35,208 40,319zm480 0l0 159 -3 0c-39,597 -516,1074 -1114,1113l0 3 -159 0 0 -3c-597,-39 -1074,-516 -1114,-1113l-2 0 0 -159 2 0c40,-597 517,-1074 1114,-1114l0 -2 159 0 0 2c597,40 1075,517 1114,1114l3 0z"/>
</symbol>
<symbol id="Fm6-69-0" viewBox="8506 -18004 2367 1521">
 <path class="fil30" d="M9127 -16917l-398 0 0 221 398 0 0 -221zm0 221zm1745 -651l0 649c0,118 -97,215 -215,215l-1937 0c-118,0 -215,-97 -215,-215l0 -649 2367 0z"/>
 <polygon class="fil1" points="10873,-17348 8506,-17348 8506,-17671 10873,-17671 "/>
 <path class="fil30" d="M10873 -17789l0 118 -2367 0 0 -118c0,-118 97,-215 215,-215l1937 0c118,0 215,97 215,215z"/>
 <polygon class="fil9" points="9127,-16697 8730,-16697 8730,-16917 9127,-16917 "/>
</symbol>
<symbol id="Fm8-45-0" viewBox="26299 -7662 2623 3616">
 <path class="fil6" d="M26887 -6525c0,-64 -52,-116 -117,-116 -64,0 -116,52 -116,116 0,65 52,117 116,117 65,0 117,-52 117,-117zm436 0c0,-64 -52,-116 -116,-116 -64,0 -116,52 -116,116 0,65 52,117 116,117 64,0 116,-52 116,-117zm1213 2111l0 -723 0 -361 0 -362 0 -361 -466 0 -465 0 -466 0 -466 0 0 361 0 362 0 361 0 362 0 361 932 0 465 0 466 0zm12 -2916l-1876 0 0 515 1876 0 0 -515zm0 515zm0 162l-944 0 0 250 944 0 0 -250zm0 250zm374 2358l-2623 0 0 -3616 2623 0 0 3616zm0 -3616l0 3616"/>
 <polygon class="fil10" points="28549,-6404 27605,-6404 27605,-6654 28549,-6654 "/>
 <polygon class="fil7" points="28549,-6816 26673,-6816 26673,-7331 28549,-7331 "/>
 <polygon class="fil8" points="28537,-5137 28537,-4414 28071,-4414 28071,-4776 28071,-5137 "/>
 <polygon class="fil15" points="28537,-5137 28071,-5137 28071,-5499 28537,-5499 "/>
 <polygon class="fil15" points="28537,-5499 28071,-5499 28071,-5861 28537,-5861 "/>
 <polygon class="fil15" points="28537,-5861 28071,-5861 28071,-6222 28537,-6222 "/>
 <polygon class="fil7" points="28071,-4414 27605,-4414 27605,-4776 28071,-4776 "/>
 <polygon class="fil7" points="28071,-4776 27605,-4776 27605,-5137 28071,-5137 "/>
 <polygon class="fil7" points="28071,-5137 27605,-5137 27605,-5499 28071,-5499 "/>
 <polygon class="fil7" points="28071,-5499 27605,-5499 27605,-5861 28071,-5861 "/>
 <polygon class="fil7" points="28071,-5861 27605,-5861 27605,-6222 28071,-6222 "/>
 <polygon class="fil10" points="27605,-4776 27605,-4414 26673,-4414 26673,-4776 27139,-4776 "/>
 <polygon class="fil7" points="27605,-4776 27139,-4776 27139,-5137 27605,-5137 "/>
 <polygon class="fil7" points="27605,-5137 27139,-5137 27139,-5499 27605,-5499 "/>
 <polygon class="fil7" points="27605,-5499 27139,-5499 27139,-5861 27605,-5861 "/>
 <polygon class="fil7" points="27605,-5861 27139,-5861 27139,-6222 27605,-6222 "/>
 <path class="fil8" d="M27207 -6642c64,0 116,52 116,116 0,65 -52,117 -116,117 -64,0 -116,-52 -116,-117 0,-64 52,-116 116,-116z"/>
 <polygon class="fil7" points="27139,-4776 26673,-4776 26673,-5137 27139,-5137 "/>
 <polygon class="fil7" points="27139,-5137 26673,-5137 26673,-5499 27139,-5499 "/>
 <polygon class="fil7" points="27139,-5499 26673,-5499 26673,-5861 27139,-5861 "/>
 <polygon class="fil7" points="27139,-5861 26673,-5861 26673,-6222 27139,-6222 "/>
 <path class="fil10" d="M26770 -6642c65,0 117,52 117,116 0,65 -52,117 -117,117 -64,0 -116,-52 -116,-117 0,-64 52,-116 116,-116z"/>
</symbol>
<symbol id="Fm10-27-0" viewBox="7710 -19661 3378 1978">
 <polygon class="fil1" points="11088,-18340 11088,-18021 10944,-17968 10944,-18321 10944,-18367 "/>
 <path class="fil3" d="M10681 -19565l407 1225 -145 -53 0 26 -4 -1c-9,-51 -33,-100 -73,-139 -30,-30 -65,-51 -102,-63l-189 -861c-167,-50 -219,-230 -219,-230l324 96z"/>
 <polygon class="fil1" points="11088,-18340 10944,-18367 10944,-18393 "/>
 <path class="fil2" d="M10761 -17998l0 -272c0,-49 -19,-98 -56,-135 -37,-37 -86,-56 -135,-56l-585 0c-49,0 -98,19 -135,56 -37,37 -56,86 -56,135l0 81c0,98 37,195 112,270 75,74 172,112 270,112l394 0c49,0 98,-19 135,-56 37,-37 56,-86 56,-135zm183 29l0 22c0,67 -26,135 -77,186 -52,51 -119,77 -186,77l-543 0c-135,0 -269,-51 -372,-154 -103,-103 -154,-237 -154,-372l0 -109c14,11 21,19 21,19l0 -124c13,-30 32,-59 56,-84 51,-51 119,-77 186,-77l806 0c28,0 57,5 84,14l39 177 136 25c3,15 4,31 4,47l0 353z"/>
 <path class="fil2" d="M10940 -18368l-136 -25 -39 -177c37,12 72,34 102,63 39,39 64,88 73,139z"/>
 <path class="fil10" d="M10761 -18269l0 272c0,49 -19,98 -56,135 -37,37 -86,56 -135,56l-394 0c-98,0 -195,-37 -270,-112 -74,-75 -112,-172 -112,-270l0 -81c0,-49 19,-98 56,-135 37,-37 86,-56 135,-56l585 0c49,0 98,19 135,56 37,37 56,86 56,135z"/>
 <path class="fil1" d="M9633 -18423l0 124c0,0 -7,-8 -21,-19l0 -3c0,-35 7,-70 21,-102z"/>
 <path class="fil5" d="M9633 -18425l0 2c-14,33 -21,67 -21,102l0 3c-35,-29 -111,-80 -213,-80 -101,0 -177,50 -212,79l0 -2c0,-35 -7,-71 -22,-104 0,0 93,-99 234,-99 141,0 234,99 234,99z"/>
 <path class="fil2" d="M9004 -18188l0 -81c0,-49 -18,-98 -56,-135 -37,-37 -86,-56 -135,-56l-585 0c-49,0 -98,19 -135,56 -37,37 -56,86 -56,135l0 272c0,49 19,98 56,135 37,37 86,56 135,56l394 0c98,0 195,-37 270,-112 75,-75 112,-172 112,-270zm183 -131l0 110c0,135 -52,269 -154,372 -103,102 -237,154 -372,154l-543 0c-67,0 -135,-26 -186,-77 -51,-52 -77,-119 -77,-186l0 -22 0 -353c0,-16 1,-31 4,-47l136 -25 39 -177c27,-9 55,-14 84,-14l806 0c67,0 134,26 186,77 24,24 43,52 55,82l0 125c0,0 8,-8 22,-19z"/>
 <path class="fil1" d="M9187 -18321l0 2c-14,12 -22,19 -22,19l0 -125c14,33 22,68 22,104z"/>
 <path class="fil10" d="M9004 -18269l0 81c0,98 -37,195 -112,270 -74,74 -172,112 -270,112l-394 0c-49,0 -98,-19 -135,-56 -37,-37 -56,-86 -56,-135l0 -272c0,-49 19,-98 56,-135 37,-37 86,-56 135,-56l585 0c49,0 98,19 135,56 37,37 56,86 56,135z"/>
 <path class="fil3" d="M8118 -19565l324 -96c0,0 -53,180 -219,230l-189 861c-37,13 -72,34 -102,63 -39,39 -64,88 -73,139l-4 1 0 -26 -145 53 407 -1225z"/>
 <path class="fil2" d="M8034 -18570l-39 177 -136 25c9,-51 33,-100 73,-139 30,-30 65,-51 102,-63z"/>
 <polygon class="fil1" points="7855,-18321 7855,-17968 7710,-18021 7710,-18340 7855,-18367 "/>
 <polygon class="fil1" points="7855,-18393 7855,-18367 7710,-18340 "/>
</symbol>
<symbol id="Fm2-33-0" viewBox="17163 -15156 7669 5562">
 <path class="fil1" d="M19655 -10844l0 526 0 88c0,112 43,224 128,310 86,86 198,128 310,128l718 0 718 0c112,0 224,-43 310,-128 85,-85 128,-198 128,-310l0 -88 0 -526 -2312 0zm-2215 -3498l0 2834c0,241 197,439 438,439l6238 0c241,0 438,-197 438,-439l0 -2834c0,-241 -197,-438 -438,-438l-6238 0c-241,0 -438,197 -438,438zm-277 4310l0 -4685c0,-241 197,-438 438,-438l6793 0c241,0 438,197 438,438l0 4685c0,241 -197,438 -438,438l-6793 0c-241,0 -438,-197 -438,-438z"/>
 <path class="fil5" d="M23966 -11348l395 0 0 -394 -395 0 0 394zm0 -394zm0 -1709l395 0 0 -394 -395 0 0 394zm0 -394zm0 -285l395 0 0 -307 -395 0 0 307zm0 -307zm-525 3090l394 0 0 -394 -394 0 0 394zm0 -394zm0 -1709l394 0 0 -394 -394 0 0 394zm0 -394zm0 -285l394 0 0 -307 -394 0 0 307zm0 -307zm-83 1643l0 394 609 0 395 0 0 -394 0 -526 -395 0 -328 0 0 526 -280 0zm-246 920l1249 0 0 -394 -1249 0 0 394zm0 -394zm-44 -657l394 0 0 -394 -394 0 0 394zm0 -394zm-153 1972l394 0 0 -394 -394 0 0 394zm0 -394zm0 -1709l394 0 0 -394 -394 0 0 394zm0 -394zm0 -285l394 0 0 -307 -394 0 0 307zm0 -307zm-132 2038l394 0 0 -394 -394 0 0 394zm0 -394zm-238 920l394 0 0 -394 -394 0 0 394zm0 -394zm-3 -657l394 0 0 -394 -394 0 0 394zm0 -394zm-153 1972l394 0 0 -394 -394 0 0 394zm0 -394zm0 -1709l394 0 0 -394 -394 0 0 394zm0 -394zm0 -285l394 0 0 -307 -394 0 0 307zm0 -307zm-132 2038l394 0 0 -394 -394 0 0 394zm0 -394zm-238 920l394 0 0 -394 -394 0 0 394zm0 -394zm-3 -657l394 0 0 -394 -394 0 0 394zm0 -394zm-153 -132l394 0 0 -394 -394 0 0 394zm0 -394zm0 -285l394 0 0 -307 -394 0 0 307zm0 -307zm-132 2038l394 0 0 -394 -394 0 0 394zm0 -394zm-238 920l394 0 0 -394 -394 0 0 394zm0 -394zm-3 -657l395 0 0 -394 -395 0 0 394zm0 -394zm-153 -132l394 0 0 -394 -394 0 0 394zm0 -394zm0 -285l394 0 0 -307 -394 0 0 307zm0 -307zm-132 2038l395 0 0 -394 -395 0 0 394zm0 -394zm-238 920l395 0 0 -394 -395 0 0 394zm0 -394zm-2 -657l395 0 0 -394 -395 0 0 394zm0 -394zm-153 -132l394 0 0 -394 -394 0 0 394zm0 -394zm0 -285l394 0 0 -307 -394 0 0 307zm0 -307zm-132 2038l395 0 0 -394 -395 0 0 394zm0 -394zm-238 920l395 0 0 -394 -395 0 0 394zm0 -394zm-3 -657l395 0 0 -394 -395 0 0 394zm0 -394zm-153 -132l394 0 0 -394 -394 0 0 394zm0 -394zm0 -285l394 0 0 -307 -394 0 0 307zm0 -307zm-131 2038l394 0 0 -394 -394 0 0 394zm0 -394zm-238 920l394 0 0 -394 -394 0 0 394zm0 -394zm-3 -657l394 0 0 -394 -394 0 0 394zm0 -394zm-154 -132l395 0 0 -394 -395 0 0 394zm0 -394zm0 -285l395 0 0 -307 -395 0 0 307zm0 -307zm-131 2038l394 0 0 -394 -394 0 0 394zm0 -394zm-238 920l394 0 0 -394 -394 0 0 394zm0 -394zm-2 -657l394 0 0 -394 -394 0 0 394zm0 -394zm-153 1972l3024 0 0 -394 -3024 0 0 394zm0 -394zm0 -1709l394 0 0 -394 -394 0 0 394zm0 -394zm0 -285l394 0 0 -307 -394 0 0 307zm0 -307zm-132 2038l394 0 0 -394 -394 0 0 394zm0 -394zm-238 920l394 0 0 -394 -394 0 0 394zm0 -394zm-3 -657l394 0 0 -394 -394 0 0 394zm0 -394zm-153 1972l394 0 0 -394 -394 0 0 394zm0 -394zm0 -1709l394 0 0 -394 -394 0 0 394zm0 -394zm0 -285l394 0 0 -307 -394 0 0 307zm0 -307zm-132 2038l394 0 0 -394 -394 0 0 394zm0 -394zm-238 920l394 0 0 -394 -394 0 0 394zm0 -394zm-3 -657l394 0 0 -394 -394 0 0 394zm0 -394zm-153 1972l394 0 0 -394 -394 0 0 394zm0 -394zm0 -1709l394 0 0 -394 -394 0 0 394zm0 -394zm0 -285l394 0 0 -307 -394 0 0 307zm0 -307zm-526 3090l394 0 0 -394 -394 0 0 394zm0 -394zm0 -132l526 0 0 -394 -526 0 0 394zm0 -394zm0 -132l723 0 0 -394 -723 0 0 394zm0 -394zm0 -131l526 0 0 -394 -526 0 0 394zm0 -394zm0 -132l394 0 0 -394 -394 0 0 394zm0 -394zm0 -285l394 0 0 -307 -394 0 0 307zm0 -307zm-215 2929l0 -2834c0,-241 197,-438 438,-438l6238 0c241,0 438,197 438,438l0 2834c0,241 -197,439 -438,439l-6238 0c-241,0 -438,-197 -438,-439z"/>
 <polygon class="fil1" points="17655,-14437 18050,-14437 18050,-14131 17655,-14131 "/>
 <polygon class="fil1" points="17655,-13846 18050,-13846 18050,-13451 17655,-13451 "/>
 <polygon class="fil1" points="17655,-13320 18181,-13320 18181,-12925 17655,-12925 "/>
 <polygon class="fil1" points="17655,-12794 18378,-12794 18378,-12399 17655,-12399 "/>
 <polygon class="fil1" points="17655,-12268 18181,-12268 18181,-11873 17655,-11873 "/>
 <polygon class="fil1" points="17655,-11742 18050,-11742 18050,-11348 17655,-11348 "/>
 <polygon class="fil1" points="18181,-14437 18576,-14437 18576,-14131 18181,-14131 "/>
 <polygon class="fil1" points="18181,-13846 18576,-13846 18576,-13451 18181,-13451 "/>
 <polygon class="fil1" points="18181,-11742 18576,-11742 18576,-11348 18181,-11348 "/>
 <polygon class="fil1" points="18335,-13320 18729,-13320 18729,-12925 18335,-12925 "/>
 <polygon class="fil1" points="18338,-12268 18732,-12268 18732,-11873 18338,-11873 "/>
 <polygon class="fil1" points="18576,-12794 18970,-12794 18970,-12399 18576,-12399 "/>
 <polygon class="fil1" points="18707,-14437 19102,-14437 19102,-14131 18707,-14131 "/>
 <polygon class="fil1" points="18707,-13846 19102,-13846 19102,-13451 18707,-13451 "/>
 <polygon class="fil1" points="18707,-11742 19102,-11742 19102,-11348 18707,-11348 "/>
 <polygon class="fil1" points="18861,-13320 19255,-13320 19255,-12925 18861,-12925 "/>
 <polygon class="fil1" points="18864,-12268 19258,-12268 19258,-11873 18864,-11873 "/>
 <polygon class="fil1" points="19102,-12794 19496,-12794 19496,-12399 19102,-12399 "/>
 <polygon class="fil1" points="19233,-14437 19628,-14437 19628,-14131 19233,-14131 "/>
 <polygon class="fil1" points="19233,-13846 19628,-13846 19628,-13451 19233,-13451 "/>
 <polygon class="fil1" points="19233,-11742 22257,-11742 22257,-11348 19233,-11348 "/>
 <polygon class="fil1" points="19387,-13320 19781,-13320 19781,-12925 19387,-12925 "/>
 <polygon class="fil1" points="19389,-12268 19784,-12268 19784,-11873 19389,-11873 "/>
 <polygon class="fil1" points="19628,-12794 20022,-12794 20022,-12399 19628,-12399 "/>
 <polygon class="fil5" points="19655,-10318 19655,-10844 21967,-10844 21967,-10318 20811,-10318 "/>
 <path class="fil1" d="M19655 -10230l0 -88 1156 0 0 526 -718 0c-113,0 -225,-43 -310,-128 -85,-85 -128,-198 -128,-310z"/>
 <polygon class="fil1" points="19759,-14437 20154,-14437 20154,-14131 19759,-14131 "/>
 <polygon class="fil1" points="19759,-13846 20154,-13846 20154,-13451 19759,-13451 "/>
 <polygon class="fil1" points="19912,-13320 20307,-13320 20307,-12925 19912,-12925 "/>
 <polygon class="fil1" points="19915,-12268 20310,-12268 20310,-11873 19915,-11873 "/>
 <polygon class="fil1" points="20154,-12794 20548,-12794 20548,-12399 20154,-12399 "/>
 <polygon class="fil1" points="20285,-14437 20679,-14437 20679,-14131 20285,-14131 "/>
 <polygon class="fil1" points="20285,-13846 20679,-13846 20679,-13451 20285,-13451 "/>
 <polygon class="fil1" points="20438,-13320 20833,-13320 20833,-12925 20438,-12925 "/>
 <polygon class="fil1" points="20441,-12268 20836,-12268 20836,-11873 20441,-11873 "/>
 <polygon class="fil1" points="20679,-12794 21074,-12794 21074,-12399 20679,-12399 "/>
 <polygon class="fil1" points="20811,-14437 21205,-14437 21205,-14131 20811,-14131 "/>
 <polygon class="fil1" points="20811,-13846 21205,-13846 21205,-13451 20811,-13451 "/>
 <path class="fil1" d="M20811 -9792l0 -526 1156 0 0 88c0,112 -43,224 -128,310 -85,86 -198,128 -310,128l-718 0z"/>
 <polygon class="fil1" points="20964,-13320 21359,-13320 21359,-12925 20964,-12925 "/>
 <polygon class="fil1" points="20966,-12268 21362,-12268 21362,-11873 20966,-11873 "/>
 <polygon class="fil1" points="21205,-12794 21600,-12794 21600,-12399 21205,-12399 "/>
 <polygon class="fil1" points="21336,-14437 21731,-14437 21731,-14131 21336,-14131 "/>
 <polygon class="fil1" points="21336,-13846 21731,-13846 21731,-13451 21336,-13451 "/>
 <polygon class="fil1" points="21490,-13320 21884,-13320 21884,-12925 21490,-12925 "/>
 <polygon class="fil1" points="21492,-12268 21887,-12268 21887,-11873 21492,-11873 "/>
 <polygon class="fil1" points="21731,-12794 22125,-12794 22125,-12399 21731,-12399 "/>
 <polygon class="fil1" points="21863,-14437 22257,-14437 22257,-14131 21863,-14131 "/>
 <polygon class="fil1" points="21863,-13846 22257,-13846 22257,-13451 21863,-13451 "/>
 <polygon class="fil1" points="22016,-13320 22410,-13320 22410,-12925 22016,-12925 "/>
 <polygon class="fil1" points="22018,-12268 22413,-12268 22413,-11873 22018,-11873 "/>
 <polygon class="fil1" points="22257,-12794 22651,-12794 22651,-12399 22257,-12399 "/>
 <polygon class="fil1" points="22388,-14437 22783,-14437 22783,-14131 22388,-14131 "/>
 <polygon class="fil1" points="22388,-13846 22783,-13846 22783,-13451 22388,-13451 "/>
 <polygon class="fil1" points="22388,-11742 22783,-11742 22783,-11348 22388,-11348 "/>
 <polygon class="fil1" points="22542,-13320 22936,-13320 22936,-12925 22542,-12925 "/>
 <polygon class="fil1" points="22544,-12268 22939,-12268 22939,-11873 22544,-11873 "/>
 <polygon class="fil1" points="22783,-12794 23177,-12794 23177,-12399 22783,-12399 "/>
 <polygon class="fil1" points="22914,-14437 23309,-14437 23309,-14131 22914,-14131 "/>
 <polygon class="fil1" points="22914,-13846 23309,-13846 23309,-13451 22914,-13451 "/>
 <polygon class="fil1" points="22914,-11742 23309,-11742 23309,-11348 22914,-11348 "/>
 <polygon class="fil1" points="23068,-13320 23462,-13320 23462,-12925 23068,-12925 "/>
 <polygon class="fil1" points="23112,-12268 24361,-12268 24361,-11873 23112,-11873 "/>
 <polygon class="fil1" points="23357,-12399 23357,-12794 23638,-12794 23638,-13320 23966,-13320 24361,-13320 24361,-12794 24361,-12399 23966,-12399 "/>
 <polygon class="fil1" points="23440,-14437 23835,-14437 23835,-14131 23440,-14131 "/>
 <polygon class="fil1" points="23440,-13846 23835,-13846 23835,-13451 23440,-13451 "/>
 <polygon class="fil1" points="23440,-11742 23835,-11742 23835,-11348 23440,-11348 "/>
 <polygon class="fil1" points="23966,-14437 24361,-14437 24361,-14131 23966,-14131 "/>
 <polygon class="fil1" points="23966,-13846 24361,-13846 24361,-13451 23966,-13451 "/>
 <polygon class="fil1" points="23966,-11742 24361,-11742 24361,-11348 23966,-11348 "/>
</symbol>
<symbol id="Fm11-29-0" viewBox="16135 -20857 393 3488">
 <polygon class="fil7" points="16331,-17369 16135,-17789 16179,-18091 16483,-18091 16528,-17789 "/>
 <polygon class="fil27" points="16517,-20654 16517,-19410 16483,-19410 16179,-19410 16146,-19410 16146,-20654 16179,-20654 16483,-20654 "/>
 <polygon class="fil28" points="16483,-18091 16179,-18091 16179,-18303 16483,-18303 "/>
 <polygon class="fil27" points="16483,-18303 16179,-18303 16179,-19410 16483,-19410 "/>
 <polygon class="fil7" points="16483,-20857 16483,-20654 16179,-20654 16179,-20720 16179,-20857 "/>
</symbol>
<symbol id="Fm2-26-0" viewBox="23453 -4493 322 3345">
 <polygon class="fil8" points="23775,-1522 23453,-1522 23453,-3828 23775,-3828 "/>
 <polygon class="fil16" points="23775,-3916 23775,-3828 23453,-3828 23453,-4172 23508,-4172 23720,-4172 23775,-4172 "/>
 <polygon class="fil7" points="23775,-1522 23614,-1148 23453,-1522 "/>
 <polygon class="fil7" points="23720,-4172 23508,-4172 23508,-4493 23720,-4493 "/>
</symbol>
<symbol id="Fm5-67-0" viewBox="12518 -17070 1880 1510">
 <polygon class="fil8" points="14397,-16844 14224,-16148 13063,-16148 12889,-16844 "/>
 <path class="fil6" d="M13952 -15925c101,0 183,82 183,183 0,101 -82,182 -183,182 -101,0 -183,-82 -183,-182 0,-101 82,-183 183,-183z"/>
 <path class="fil6" d="M13033 -15925c101,0 182,82 182,183 0,101 -82,182 -182,182 -101,0 -183,-82 -183,-182 0,-74 44,-137 106,-166 23,-11 49,-17 76,-17z"/>
 <polygon class="fil1" points="12827,-16942 12518,-16942 12518,-17070 12827,-17070 "/>
</symbol>
<symbol id="Fm0-50-0" viewBox="21933 -9261 9228 9682">
 <path class="fil14 str0" d="M21986 -4420c0,-2644 2042,-4788 4561,-4788 2519,0 4561,2144 4561,4788 0,2644 -2042,4788 -4561,4788 -2519,0 -4561,-2144 -4561,-4788z"/>
</symbol>
<symbol id="Fm2-55-0" viewBox="21933 -9261 9228 9682">
 <path class="fil31 str2" d="M21986 -4420c0,-2644 2042,-4788 4561,-4788 2519,0 4561,2144 4561,4788 0,2644 -2042,4788 -4561,4788 -2519,0 -4561,-2144 -4561,-4788z"/>
 <path class="fil31 str3" d="M22751 -4420c0,-2201 1699,-3985 3796,-3985 2096,0 3796,1784 3796,3985 0,2201 -1699,3985 -3796,3985 -2096,0 -3796,-1784 -3796,-3985z"/>
 <path class="fil31 str2" d="M23628 -4420c0,-1692 1307,-3064 2919,-3064 1612,0 2919,1372 2919,3064 0,1692 -1307,3064 -2919,3064 -1612,0 -2919,-1372 -2919,-3064z"/>
</symbol>
<symbol id="Fm1-41-0" viewBox="23714 -19864 8177 8579">
 <path class="fil31 str2" d="M23767 -15574c0,-2340 1807,-4237 4036,-4237 2229,0 4036,1897 4036,4237 0,2340 -1807,4237 -4036,4237 -2229,0 -4036,-1897 -4036,-4237z"/>
 <path class="fil31 str3" d="M24444 -15574c0,-1947 1504,-3526 3359,-3526 1855,0 3359,1579 3359,3526 0,1947 -1504,3526 -3359,3526 -1855,0 -3359,-1579 -3359,-3526z"/>
 <path class="fil31 str2" d="M25220 -15574c0,-1498 1156,-2712 2583,-2712 1427,0 2583,1214 2583,2712 0,1498 -1156,2712 -2583,2712 -1426,0 -2583,-1214 -2583,-2712z"/>
</symbol>
<symbol id="Fm3-63-0" viewBox="7907 -8651 8193 8596">
 <path class="fil31 str2" d="M7960 -4353c0,-2344 1810,-4245 4044,-4245 2233,0 4044,1901 4044,4245 0,2344 -1810,4245 -4044,4245 -2233,0 -4044,-1900 -4044,-4245z"/>
 <path class="fil31 str3" d="M8638 -4353c0,-1951 1507,-3533 3365,-3533 1858,0 3365,1582 3365,3533 0,1951 -1507,3533 -3365,3533 -1858,0 -3365,-1582 -3365,-3533z"/>
 <path class="fil31 str2" d="M9415 -4353c0,-1500 1159,-2717 2588,-2717 1429,0 2588,1216 2588,2717 0,1500 -1159,2717 -2588,2717 -1429,0 -2588,-1216 -2588,-2717z"/>
</symbol>
<symbol id="Fm0-33-0" viewBox="6617 -19940 8322 8732">
 <path class="fil31 str2" d="M6670 -15574c0,-2382 1839,-4313 4108,-4313 2269,0 4108,1931 4108,4313 0,2382 -1839,4313 -4108,4313 -2269,0 -4108,-1931 -4108,-4313z"/>
 <path class="fil31 str3" d="M7359 -15574c0,-1982 1531,-3589 3419,-3589 1888,0 3419,1607 3419,3589 0,1982 -1531,3589 -3419,3589 -1888,0 -3419,-1607 -3419,-3589z"/>
 <path class="fil31 str2" d="M8149 -15574c0,-1525 1177,-2760 2629,-2760 1452,0 2629,1236 2629,2760 0,1525 -1177,2760 -2629,2760 -1452,0 -2629,-1236 -2629,-2760z"/>
</symbol>
 <g id="Layer_x0020_1">
  <metadata id="CorelCorpID_0Corel-Layer"/>
  <g id="_1012402464">
   <polygon class="fil32" points="6535,2442 3584,2442 3463,2296 3463,74 3521,17 6640,17 6697,74 6697,2322 "/>
   <path class="fil33" d="M3587 34c-59,0 -107,48 -107,107l0 2097c0,104 84,188 188,188l2825 0c104,0 188,-84 188,-188l0 -2097c0,-59 -48,-107 -107,-107l-2986 0zm2905 2425l-2825 0c-122,0 -221,-99 -221,-221l0 -2097c0,-77 63,-140 140,-140l2986 0c77,0 140,63 140,140l0 2097c0,122 -99,221 -221,221z"/>
   <polygon class="fil33" points="6697,2105 3463,2105 3463,2072 6697,2072 "/>
   <path class="fil33" d="M5080 2223c-31,0 -57,25 -57,57 0,31 25,57 57,57 31,0 57,-25 57,-57 0,-31 -25,-57 -57,-57zm0 147c-50,0 -90,-40 -90,-90 0,-50 40,-90 90,-90 50,0 90,40 90,90 0,50 -40,90 -90,90z"/>
   <polygon class="fil32" points="5668,3014 4496,3014 4496,2886 5668,2886 "/>
   <path class="fil33" d="M4512 2997l1139 0 0 -94 -1139 0 0 94zm1156 33l-1172 0c-9,0 -17,-7 -17,-17l0 -128c0,-9 7,-17 17,-17l1172 0c9,0 17,7 17,17l0 128c0,9 -7,17 -17,17z"/>
   <path class="fil33" d="M10127 3234l0 -142 0 -59 -10093 0 0 59 0 142 -33 0 0 -217c0,-9 7,-17 17,-17l10127 0c9,0 17,7 17,17l0 217 -33 0z"/>
   <polygon class="fil34" points="6539,1914 3626,1914 3626,186 6539,186 "/>
   <path class="fil33" d="M3642 1898l2880 0 0 -1695 -2880 0 0 1695zm2896 33l-2913 0c-9,0 -17,-7 -17,-17l0 -1728c0,-9 7,-17 17,-17l2913 0c9,0 17,7 17,17l0 1728c0,9 -7,17 -17,17z"/>
   <polygon class="fil35" points="4677,2886 4730,2442 5442,2442 5496,2886 "/>
   <path class="fil33" d="M4696 2870l781 0 -49 -411 -682 0 -49 411zm800 33l-819 0c-5,0 -9,-2 -12,-6 -3,-4 -5,-8 -4,-13l53 -444c1,-8 8,-15 17,-15l712 0c8,0 16,6 17,15l54 444c1,5 -1,9 -4,13 -3,4 -8,6 -12,6z"/>
   <polygon class="fil36" points="7121,3008 6892,3008 6836,2727 7178,2727 "/>
   <path class="fil33" d="M6906 2991l202 0 50 -248 -302 0 50 248zm215 33l-229 0c-8,0 -15,-6 -16,-13l-57 -281c-1,-5 0,-10 3,-14 3,-4 8,-6 13,-6l342 0c5,0 10,2 13,6 3,4 4,9 3,14l-57 281c-2,8 -8,13 -16,13z"/>
   <path class="fil37" d="M6986 1767l0 -50c0,-10 7,-18 16,-18l11 0c9,0 16,8 16,18l0 50 -42 0z"/>
   <path class="fil33" d="M7039 1767l-22 0 0 -50c0,-4 -2,-7 -5,-7l-11 0c-2,0 -5,3 -5,7l0 50 -22 0 0 -50c0,-16 12,-30 27,-30l11 0c15,0 27,13 27,30l0 50z"/>
   <polygon class="fil38" points="8050,3007 7535,3007 7535,2396 8050,2396 "/>
   <path class="fil33" d="M7552 2991l482 0 0 -578 -482 0 0 578zm499 33l-515 0c-9,0 -17,-7 -17,-17l0 -612c0,-9 7,-17 17,-17l515 0c9,0 17,7 17,17l0 612c0,9 -7,17 -17,17z"/>
   <path class="fil33" d="M8050 2860l0 -33c85,0 135,-20 135,-125 0,-104 -49,-125 -135,-125l0 -33c83,0 168,19 168,158 0,139 -85,158 -168,158z"/>
   <polygon class="fil39" points="7055,2727 6959,2727 6959,1767 7055,1767 "/>
   <path class="fil33" d="M6975 2710l63 0 0 -926 -63 0 0 926zm80 33l-96 0c-9,0 -17,-7 -17,-17l0 -960c0,-9 7,-17 17,-17l96 0c9,0 17,7 17,17l0 960c0,9 -7,17 -17,17z"/>
   <polygon class="fil40" points="2416,1812 2082,1812 2082,1348 2546,1348 2546,1679 "/>
   <path class="fil33" d="M2098 1796l311 0 120 -123 0 -308 -431 0 0 431zm318 33l-334 0c-9,0 -17,-7 -17,-17l0 -464c0,-9 7,-17 17,-17l464 0c9,0 17,7 17,17l0 331c0,4 -2,9 -5,12l-130 133c-3,3 -7,5 -12,5z"/>
   <polygon class="fil41" points="2545,1676 2415,1676 2415,1812 "/>
   <path class="fil33" d="M2432 1693l0 78 74 -78 -74 0zm-17 136c-2,0 -4,0 -6,-1 -6,-3 -10,-9 -10,-15l0 -136c0,-9 7,-17 17,-17l130 0c7,0 13,4 15,10 3,6 1,13 -3,18l-130 136c-3,3 -8,5 -12,5z"/>
   <polygon class="fil42" points="2163,1437 2464,1437 "/>
   <path class="fil33" d="M2464 1454l-301 0c-9,0 -17,-7 -17,-17 0,-9 7,-17 17,-17l301 0c9,0 17,7 17,17 0,9 -7,17 -17,17z"/>
   <polygon class="fil42" points="2163,1514 2367,1514 "/>
   <path class="fil33" d="M2367 1531l-203 0c-9,0 -17,-7 -17,-17 0,-9 7,-17 17,-17l203 0c9,0 17,7 17,17 0,9 -7,17 -17,17z"/>
   <polygon class="fil42" points="2163,1591 2464,1591 "/>
   <path class="fil33" d="M2464 1607l-301 0c-9,0 -17,-7 -17,-17 0,-9 7,-17 17,-17l301 0c9,0 17,7 17,17 0,9 -7,17 -17,17z"/>
   <polygon class="fil43" points="7403,1124 7069,1124 7069,660 7533,660 7533,991 "/>
   <path class="fil33" d="M7085 1108l311 0 120 -123 0 -308 -431 0 0 431zm318 33l-334 0c-9,0 -17,-7 -17,-17l0 -464c0,-9 7,-17 17,-17l464 0c9,0 17,7 17,17l0 331c0,4 -2,9 -5,12l-130 133c-3,3 -7,5 -12,5z"/>
   <polygon class="fil37" points="7533,988 7403,988 7403,1124 "/>
   <path class="fil33" d="M7420 1005l0 78 74 -78 -74 0zm-17 136c-2,0 -4,0 -6,-1 -6,-3 -10,-9 -10,-15l0 -136c0,-9 7,-17 17,-17l130 0c7,0 13,4 15,10 3,6 1,13 -3,18l-130 136c-3,3 -8,5 -12,5z"/>
   <polygon class="fil42" points="7151,749 7452,749 "/>
   <path class="fil33" d="M7452 766l-301 0c-9,0 -17,-7 -17,-17 0,-9 7,-17 17,-17l301 0c9,0 17,7 17,17 0,9 -7,17 -17,17z"/>
   <polygon class="fil42" points="7151,826 7355,826 "/>
   <path class="fil33" d="M7355 843l-203 0c-9,0 -17,-7 -17,-17 0,-9 7,-17 17,-17l203 0c9,0 17,7 17,17 0,9 -7,17 -17,17z"/>
   <polygon class="fil42" points="7151,903 7452,903 "/>
   <path class="fil33" d="M7452 920l-301 0c-9,0 -17,-7 -17,-17 0,-9 7,-17 17,-17l301 0c9,0 17,7 17,17 0,9 -7,17 -17,17z"/>
   <polygon class="fil44" points="2722,1009 3187,1009 3187,1473 2722,1473 "/>
   <path class="fil33" d="M2739 1456l431 0 0 -431 -431 0 0 431zm448 33l-464 0c-9,0 -17,-7 -17,-17l0 -464c0,-9 7,-17 17,-17l464 0c9,0 17,7 17,17l0 464c0,9 -7,17 -17,17z"/>
   <polygon class="fil42" points="2805,1098 3042,1098 "/>
   <path class="fil33" d="M3042 1114l-237 0c-9,0 -17,-7 -17,-17 0,-9 7,-17 17,-17l237 0c9,0 17,7 17,17 0,9 -7,17 -17,17z"/>
   <polygon class="fil42" points="2805,1348 3042,1348 "/>
   <path class="fil33" d="M3042 1365l-237 0c-9,0 -17,-7 -17,-17 0,-9 7,-17 17,-17l237 0c9,0 17,7 17,17 0,9 -7,17 -17,17z"/>
   <polygon class="fil42" points="2805,1175 3103,1175 "/>
   <path class="fil33" d="M3103 1191l-298 0c-9,0 -17,-7 -17,-17 0,-9 7,-17 17,-17l298 0c9,0 17,7 17,17 0,9 -7,17 -17,17z"/>
   <polygon class="fil45" points="3847,1796 3736,1796 3736,316 3847,316 "/>
   <path class="fil33" d="M3753 1780l77 0 0 -1447 -77 0 0 1447zm94 33l-110 0c-9,0 -17,-7 -17,-17l0 -1480c0,-9 7,-17 17,-17l110 0c9,0 17,7 17,17l0 1480c0,9 -7,17 -17,17z"/>
   <polygon class="fil37" points="6426,449 6294,449 6294,317 6426,317 "/>
   <path class="fil33" d="M6311 433l99 0 0 -99 -99 0 0 99zm116 33l-132 0c-9,0 -17,-7 -17,-17l0 -132c0,-9 7,-17 17,-17l132 0c9,0 17,7 17,17l0 132c0,9 -7,17 -17,17z"/>
   <polygon class="fil46" points="6426,671 6294,671 6294,538 6426,538 "/>
   <path class="fil33" d="M6311 654l99 0 0 -99 -99 0 0 99zm116 33l-132 0c-9,0 -17,-7 -17,-17l0 -132c0,-9 7,-17 17,-17l132 0c9,0 17,7 17,17l0 132c0,9 -7,17 -17,17z"/>
   <polygon class="fil47" points="6426,892 6294,892 6294,760 6426,760 "/>
   <path class="fil33" d="M6311 876l99 0 0 -99 -99 0 0 99zm116 33l-132 0c-9,0 -17,-7 -17,-17l0 -132c0,-9 7,-17 17,-17l132 0c9,0 17,7 17,17l0 132c0,9 -7,17 -17,17z"/>
   <polygon class="fil48" points="6426,1114 6294,1114 6294,981 6426,981 "/>
   <path class="fil33" d="M6311 1097l99 0 0 -99 -99 0 0 99zm116 33l-132 0c-9,0 -17,-7 -17,-17l0 -132c0,-9 7,-17 17,-17l132 0c9,0 17,7 17,17l0 132c0,9 -7,17 -17,17z"/>
   <polygon class="fil40" points="6426,1335 6294,1335 6294,1203 6426,1203 "/>
   <path class="fil33" d="M6311 1318l99 0 0 -99 -99 0 0 99zm116 33l-132 0c-9,0 -17,-7 -17,-17l0 -132c0,-9 7,-17 17,-17l132 0c9,0 17,7 17,17l0 132c0,9 -7,17 -17,17z"/>
   <polygon class="fil49" points="6426,1557 6294,1557 6294,1424 6426,1424 "/>
   <path class="fil33" d="M6311 1540l99 0 0 -99 -99 0 0 99zm116 33l-132 0c-9,0 -17,-7 -17,-17l0 -132c0,-9 7,-17 17,-17l132 0c9,0 17,7 17,17l0 132c0,9 -7,17 -17,17z"/>
   <polygon class="fil50" points="6426,1778 6294,1778 6294,1646 6426,1646 "/>
   <path class="fil33" d="M6311 1761l99 0 0 -99 -99 0 0 99zm116 33l-132 0c-9,0 -17,-7 -17,-17l0 -132c0,-9 7,-17 17,-17l132 0c9,0 17,7 17,17l0 132c0,9 -7,17 -17,17z"/>
   <path class="fil33" d="M4695 1646c-202,0 -367,-164 -367,-367 0,-202 164,-367 367,-367 5,0 444,18 501,-309 2,-9 10,-15 19,-14 9,2 15,10 14,19 -62,356 -530,337 -534,337 -183,0 -332,150 -332,333 0,184 149,333 333,333 184,0 333,-149 333,-333 0,-9 7,-17 17,-17 9,0 17,7 17,17 0,202 -164,367 -367,367z"/>
   <polygon class="fil51" points="4722,968 4646,968 4646,892 4722,892 "/>
   <path class="fil33" d="M4657 957l54 0 0 -54 -54 0 0 54zm65 22l-76 0c-6,0 -11,-5 -11,-11l0 -76c0,-6 5,-11 11,-11l76 0c6,0 11,5 11,11l0 76c0,6 -5,11 -11,11z"/>
   <polygon class="fil51" points="4722,1668 4646,1668 4646,1591 4722,1591 "/>
   <path class="fil33" d="M4657 1657l54 0 0 -54 -54 0 0 54zm65 22l-76 0c-6,0 -11,-5 -11,-11l0 -76c0,-6 5,-11 11,-11l76 0c6,0 11,5 11,11l0 76c0,6 -5,11 -11,11z"/>
   <polygon class="fil51" points="5082,1320 5005,1320 5005,1243 5082,1243 "/>
   <path class="fil33" d="M5016 1309l54 0 0 -54 -54 0 0 54zm65 22l-76 0c-6,0 -11,-5 -11,-11l0 -76c0,-6 5,-11 11,-11l76 0c6,0 11,5 11,11l0 76c0,6 -5,11 -11,11z"/>
   <polygon class="fil51" points="4382,1320 4306,1320 4306,1243 4382,1243 "/>
   <path class="fil33" d="M4317 1309l54 0 0 -54 -54 0 0 54zm65 22l-76 0c-6,0 -11,-5 -11,-11l0 -76c0,-6 5,-11 11,-11l76 0c6,0 11,5 11,11l0 76c0,6 -5,11 -11,11z"/>
   <polygon class="fil52" points="5916,818 5876,668 5590,565 5693,851 5840,893 "/>
   <path class="fil33" d="M5702 842l136 38 66 -66 -36 -138 -258 -93 93 258zm139 62c-1,0 -2,0 -3,0l-147 -42c-3,-1 -6,-4 -7,-7l-103 -286c-1,-4 0,-9 3,-12 3,-3 8,-4 12,-3l286 103c3,1 6,4 7,8l39 150c1,4 0,8 -3,11l-75 75c-2,2 -5,3 -8,3z"/>
   <polygon class="fil53" points="5984,829 5852,961 5814,924 5947,791 "/>
   <path class="fil33" d="M5830 924l22 22 117 -117 -22 -22 -117 117zm22 49c-3,0 -6,-1 -8,-3l-38 -38c-2,-2 -3,-5 -3,-8 0,-3 1,-6 3,-8l132 -132c4,-4 11,-4 16,0l38 38c4,4 4,11 0,16l-132 132c-2,2 -5,3 -8,3z"/>
   <path class="fil33" d="M5750 736c-3,0 -6,-1 -8,-3l-160 -160c-4,-4 -4,-11 0,-16 4,-4 11,-4 16,0l160 160c4,4 4,11 0,16 -2,2 -5,3 -8,3z"/>
   <path class="fil34" d="M5771 711c10,10 10,25 0,35 -10,10 -25,10 -35,0 -10,-10 -10,-25 0,-35 10,-10 25,-10 35,0z"/>
   <path class="fil33" d="M5753 715c-4,0 -7,1 -9,4 -5,5 -5,14 0,19 5,5 14,5 19,0 5,-5 5,-14 0,-19 -3,-3 -6,-4 -9,-4zm0 49c-10,0 -18,-4 -25,-10 -14,-14 -14,-36 0,-50 13,-13 37,-13 50,0 14,14 14,36 0,50 -7,7 -16,10 -25,10z"/>
   <path class="fil33" d="M4858 721c-5,0 -9,-3 -11,-8 -2,-6 1,-12 7,-14l685 -211c6,-2 12,1 14,7 2,6 -1,12 -7,14l-685 211c-1,0 -2,1 -3,1z"/>
   <polygon class="fil51" points="5239,643 5162,643 5162,566 5239,566 "/>
   <path class="fil33" d="M5174 632l54 0 0 -54 -54 0 0 54zm65 22l-76 0c-6,0 -11,-5 -11,-11l0 -76c0,-6 5,-11 11,-11l76 0c6,0 11,5 11,11l0 76c0,6 -5,11 -11,11z"/>
   <polygon class="fil32" points="2784,3008 2659,3022 2549,2079 2674,2065 "/>
   <path class="fil33" d="M2568 2094l106 910 92 -11 -106 -910 -92 11zm92 945c-8,0 -16,-6 -17,-15l-110 -943c-1,-4 1,-9 3,-12 3,-3 7,-6 11,-6l125 -15c9,-1 17,5 18,15l110 943c1,4 -1,9 -3,12 -3,3 -7,6 -11,6l-125 15c-1,0 -1,0 -2,0z"/>
   <polygon class="fil51" points="2954,3001 2860,3022 2725,2416 2819,2395 "/>
   <path class="fil33" d="M2745 2429l128 573 62 -14 -128 -573 -62 14zm116 610c-8,0 -15,-5 -16,-13l-135 -606c-1,-4 0,-9 2,-13 2,-4 6,-6 10,-7l94 -21c9,-2 18,4 20,13l135 606c1,4 0,9 -2,13 -2,4 -6,6 -10,7l-94 21c-1,0 -2,0 -4,0z"/>
   <path class="fil43" d="M2544 2830l-807 0 0 193 807 0c0,0 -60,-24 -60,-96 0,-73 60,-96 60,-96z"/>
   <path class="fil33" d="M1754 3006l741 0c-15,-18 -28,-43 -28,-80 0,-36 13,-62 28,-80l-741 0 0 159zm790 33l-807 0c-9,0 -17,-7 -17,-17l0 -193c0,-9 7,-17 17,-17l807 0c8,0 15,6 16,14 2,8 -3,16 -10,19 -2,1 -49,21 -49,81 0,60 47,80 49,81 7,3 12,11 10,19 -2,8 -8,13 -16,13z"/>
   <path class="fil54" d="M2355 2707l-677 0 0 120 677 0c0,0 -37,-15 -37,-60 0,-45 37,-60 37,-60z"/>
   <path class="fil33" d="M1695 2811l618 0c-7,-11 -11,-25 -11,-44 0,-18 5,-33 11,-44l-618 0 0 87zm660 33l-677 0c-9,0 -17,-7 -17,-17l0 -120c0,-9 7,-17 17,-17l677 0c8,0 15,6 16,14 2,8 -3,16 -10,19 -1,0 -27,12 -27,45 0,34 27,45 27,45 7,3 12,11 10,19 -2,8 -8,14 -16,14z"/>
   <path class="fil55" d="M2487 2451l-677 0 0 120 677 0c0,0 -37,-15 -37,-60 0,-45 37,-60 37,-60z"/>
   <path class="fil33" d="M1827 2555l618 0c-7,-11 -11,-25 -11,-44 0,-18 5,-33 11,-44l-618 0 0 87zm660 33l-677 0c-9,0 -17,-7 -17,-17l0 -120c0,-9 7,-17 17,-17l677 0c8,0 15,6 16,14 2,8 -3,16 -10,19 -1,0 -27,12 -27,45 0,34 27,45 27,45 7,3 12,11 10,19 -2,8 -8,14 -16,14z"/>
   <path class="fil50" d="M2565 2330l-867 0 0 121 867 0c0,0 -37,-15 -37,-60 0,-45 37,-60 37,-60z"/>
   <path class="fil33" d="M1715 2434l808 0c-7,-11 -11,-25 -11,-44 0,-18 5,-33 11,-44l-808 0 0 87zm850 33l-867 0c-9,0 -17,-7 -17,-17l0 -120c0,-9 7,-17 17,-17l867 0c8,0 15,6 16,14 2,8 -3,16 -10,19 -1,0 -27,12 -27,45 0,34 27,45 27,45 7,3 12,11 10,19 -1,8 -8,14 -16,14z"/>
   <path class="fil56" d="M2530 2568l-762 0 0 136 764 0c0,0 -42,-16 -43,-68 0,-51 41,-68 41,-68z"/>
   <path class="fil33" d="M1784 2687l703 0c-8,-12 -15,-29 -15,-51 0,-22 6,-39 14,-52l-702 0 0 103zm747 33l-764 0c-9,0 -17,-7 -17,-17l0 -136c0,-9 7,-17 17,-17l762 0c8,0 15,6 16,13 2,8 -3,16 -10,19 -1,0 -31,14 -31,53 0,39 32,52 32,52 7,3 12,11 10,19 -1,8 -8,14 -16,14z"/>
   <path class="fil33" d="M2245 2407l-478 0c-9,0 -17,-7 -17,-17 0,-9 7,-17 17,-17l478 0c9,0 17,7 17,17 0,9 -7,17 -17,17z"/>
   <path class="fil33" d="M2080 2528l-196 0c-9,0 -17,-7 -17,-17 0,-9 7,-17 17,-17l196 0c9,0 17,7 17,17 0,9 -7,17 -17,17z"/>
   <path class="fil33" d="M2174 2528l-42 0c-9,0 -17,-7 -17,-17 0,-9 7,-17 17,-17l42 0c9,0 17,7 17,17 0,9 -7,17 -17,17z"/>
   <path class="fil33" d="M1982 2656l-152 0c-9,0 -17,-7 -17,-17 0,-9 7,-17 17,-17l152 0c9,0 17,7 17,17 0,9 -7,17 -17,17z"/>
   <path class="fil33" d="M2313 2656l-278 0c-9,0 -17,-7 -17,-17 0,-9 7,-17 17,-17l278 0c9,0 17,7 17,17 0,9 -7,17 -17,17z"/>
   <path class="fil33" d="M2071 2784l-346 0c-9,0 -17,-7 -17,-17 0,-9 7,-17 17,-17l346 0c9,0 17,7 17,17 0,9 -7,17 -17,17z"/>
   <path class="fil33" d="M2071 2919l-270 0c-9,0 -17,-7 -17,-17 0,-9 7,-17 17,-17l270 0c9,0 17,7 17,17 0,9 -7,17 -17,17z"/>
   <path class="fil33" d="M2174 2980l-374 0c-9,0 -17,-7 -17,-17 0,-9 7,-17 17,-17l374 0c9,0 17,7 17,17 0,9 -7,17 -17,17z"/>
   <polygon class="fil42" points="2673,2592 2714,2943 "/>
   <path class="fil33" d="M2714 2960c-8,0 -16,-6 -17,-15l-41 -352c-1,-9 5,-17 15,-18 9,-1 17,5 18,15l41 352c1,9 -5,17 -15,18 -1,0 -1,0 -2,0z"/>
   <polygon class="fil57" points="2863,2813 2894,2954 "/>
   <path class="fil33" d="M2894 2971c-8,0 -15,-5 -16,-13l-32 -142c-2,-9 4,-18 13,-20 9,-2 18,4 20,13l32 142c2,9 -4,18 -13,20 -1,0 -2,0 -4,0z"/>
   <polygon class="fil57" points="2831,2670 2853,2768 "/>
   <path class="fil33" d="M2853 2785c-8,0 -15,-5 -16,-13l-22 -98c-2,-9 4,-18 13,-20 9,-2 18,4 20,13l22 98c2,9 -4,18 -13,20 -1,0 -2,0 -4,0z"/>
   <polygon class="fil50" points="1351,3019 1036,3019 1036,1973 1351,1973 "/>
   <polygon class="fil56" points="1351,3019 1193,3019 1193,1973 1351,1973 "/>
   <polygon class="fil56" points="1351,2076 1193,2076 1193,1973 1351,1973 "/>
   <polygon class="fil56" points="1351,2282 1193,2282 1193,2179 1351,2179 "/>
   <polygon class="fil56" points="1351,2488 1193,2488 1193,2385 1351,2385 "/>
   <polygon class="fil56" points="1351,2693 1193,2693 1193,2591 1351,2591 "/>
   <polygon class="fil56" points="1351,2899 1193,2899 1193,2796 1351,2796 "/>
   <polygon class="fil58" points="1351,2179 1193,2179 1193,2076 1351,2076 "/>
   <polygon class="fil58" points="1351,2385 1193,2385 1193,2282 1351,2282 "/>
   <polygon class="fil58" points="1351,2591 1193,2591 1193,2488 1351,2488 "/>
   <polygon class="fil58" points="1351,2796 1193,2796 1193,2693 1351,2693 "/>
   <polygon class="fil58" points="1351,3002 1193,3002 1193,2899 1351,2899 "/>
   <path class="fil33" d="M1053 3002l281 0 0 -1012 -281 0 0 1012zm298 33l-315 0c-9,0 -17,-7 -17,-17l0 -1046c0,-9 7,-17 17,-17l315 0c9,0 17,7 17,17l0 1046c0,9 -7,17 -17,17z"/>
   <polygon class="fil59" points="1174,1973 1036,2111 1036,1973 "/>
   <path class="fil33" d="M1053 1990l0 81 81 -81 -81 0zm-17 138c-2,0 -4,0 -6,-1 -6,-3 -10,-9 -10,-15l0 -138c0,-9 7,-17 17,-17l138 0c7,0 13,4 15,10 3,6 1,13 -4,18l-138 138c-3,3 -7,5 -12,5z"/>
   <polygon class="fil59" points="1213,1973 1351,2111 1351,1973 "/>
   <path class="fil33" d="M1253 1990l81 81 0 -81 -81 0zm98 138c-4,0 -9,-2 -12,-5l-138 -138c-5,-5 -6,-12 -4,-18 3,-6 9,-10 15,-10l138 0c9,0 17,7 17,17l0 138c0,7 -4,13 -10,15 -2,1 -4,1 -6,1z"/>
   <path class="fil60" d="M1259 2765c0,36 -29,66 -66,66 -36,0 -66,-29 -66,-66 0,-36 29,-66 66,-66 36,0 66,30 66,66z"/>
   <path class="fil33" d="M1193 2716c-27,0 -49,22 -49,49 0,27 22,49 49,49 27,0 49,-22 49,-49 0,-27 -22,-49 -49,-49zm0 132c-46,0 -83,-37 -83,-83 0,-46 37,-82 83,-82 46,0 83,37 83,82 0,46 -37,83 -83,83z"/>
   <polygon class="fil61" points="969,3019 655,3019 655,1973 969,1973 "/>
   <polygon class="fil43" points="969,2076 812,2076 812,1973 969,1973 "/>
   <polygon class="fil43" points="969,2282 812,2282 812,2179 969,2179 "/>
   <polygon class="fil43" points="969,2488 812,2488 812,2385 969,2385 "/>
   <polygon class="fil43" points="969,2693 812,2693 812,2591 969,2591 "/>
   <polygon class="fil43" points="969,2899 812,2899 812,2796 969,2796 "/>
   <polygon class="fil62" points="969,2179 812,2179 812,2076 969,2076 "/>
   <polygon class="fil62" points="969,2385 812,2385 812,2282 969,2282 "/>
   <polygon class="fil62 str4" points="969,2591 812,2591 812,2488 969,2488 "/>
   <polygon class="fil62" points="969,2796 812,2796 812,2693 969,2693 "/>
   <polygon class="fil62" points="969,3002 812,3002 812,2899 969,2899 "/>
   <path class="fil33" d="M672 3002l281 0 0 -1012 -281 0 0 1012zm298 33l-315 0c-9,0 -17,-7 -17,-17l0 -1046c0,-9 7,-17 17,-17l315 0c9,0 17,7 17,17l0 1046c0,9 -7,17 -17,17z"/>
   <polygon class="fil55" points="793,1973 655,2111 655,1973 "/>
   <path class="fil33" d="M672 1990l0 81 81 -81 -81 0zm-17 138c-2,0 -4,0 -6,-1 -6,-3 -10,-9 -10,-15l0 -138c0,-9 7,-17 17,-17l138 0c7,0 13,4 15,10 3,6 1,13 -4,18l-138 138c-3,3 -7,5 -12,5z"/>
   <polygon class="fil55" points="832,1973 969,2111 969,1973 "/>
   <path class="fil33" d="M872 1990l81 81 0 -81 -81 0zm98 138c-4,0 -9,-2 -12,-5l-138 -138c-5,-5 -6,-12 -4,-18 3,-6 9,-10 15,-10l138 0c9,0 17,7 17,17l0 138c0,7 -4,13 -10,15 -2,1 -4,1 -6,1z"/>
   <path class="fil60" d="M878 2765c0,36 -29,66 -66,66 -36,0 -66,-29 -66,-66 0,-36 29,-66 66,-66 36,0 66,30 66,66z"/>
   <path class="fil33" d="M812 2716c-27,0 -49,22 -49,49 0,27 22,49 49,49 27,0 49,-22 49,-49 0,-27 -22,-49 -49,-49zm0 132c-46,0 -83,-37 -83,-83 0,-46 37,-82 83,-82 46,0 83,37 83,82 0,46 -37,83 -83,83z"/>
   <polygon class="fil63" points="596,3019 282,3019 282,1973 596,1973 "/>
   <polygon class="fil54" points="596,3019 439,3019 439,1973 596,1973 "/>
   <polygon class="fil54" points="596,2076 439,2076 439,1973 596,1973 "/>
   <polygon class="fil54" points="596,2282 439,2282 439,2179 596,2179 "/>
   <polygon class="fil54" points="596,2488 439,2488 439,2385 596,2385 "/>
   <polygon class="fil54" points="596,2693 439,2693 439,2591 596,2591 "/>
   <polygon class="fil54" points="596,2899 439,2899 439,2796 596,2796 "/>
   <polygon class="fil64" points="596,2179 439,2179 439,2076 596,2076 "/>
   <polygon class="fil64" points="596,2385 439,2385 439,2282 596,2282 "/>
   <polygon class="fil64" points="596,2591 439,2591 439,2488 596,2488 "/>
   <polygon class="fil64" points="596,2796 439,2796 439,2693 596,2693 "/>
   <polygon class="fil64" points="596,3002 439,3002 439,2899 596,2899 "/>
   <path class="fil33" d="M298 3002l281 0 0 -1012 -281 0 0 1012zm298 33l-315 0c-9,0 -17,-7 -17,-17l0 -1046c0,-9 7,-17 17,-17l315 0c9,0 17,7 17,17l0 1046c0,9 -7,17 -17,17z"/>
   <polygon class="fil50" points="420,1973 282,2111 282,1973 "/>
   <path class="fil33" d="M298 1990l0 81 81 -81 -81 0zm-17 138c-2,0 -4,0 -6,-1 -6,-3 -10,-9 -10,-15l0 -138c0,-9 7,-17 17,-17l138 0c7,0 13,4 15,10 3,6 1,13 -4,18l-138 138c-3,3 -7,5 -12,5z"/>
   <polygon class="fil50" points="458,1973 596,2111 596,1973 "/>
   <path class="fil33" d="M499 1990l81 81 0 -81 -81 0zm98 138c-4,0 -9,-2 -12,-5l-138 -138c-5,-5 -6,-12 -4,-18 3,-6 9,-10 15,-10l138 0c9,0 17,7 17,17l0 138c0,7 -4,13 -10,15 -2,1 -4,1 -6,1z"/>
   <path class="fil60" d="M505 2765c0,36 -29,66 -66,66 -36,0 -66,-29 -66,-66 0,-36 29,-66 66,-66 36,0 66,30 66,66z"/>
   <path class="fil33" d="M439 2716c-27,0 -49,22 -49,49 0,27 22,49 49,49 27,0 49,-22 49,-49 0,-27 -22,-49 -49,-49zm0 132c-45,0 -83,-37 -83,-83 0,-46 37,-82 83,-82 46,0 83,37 83,82 0,46 -37,83 -83,83z"/>
   <polygon class="fil32" points="8817,3003 9576,3003 9576,2907 8817,2907 "/>
   <polygon class="fil43" points="9196,3003 9576,3003 9576,2907 9196,2907 "/>
   <path class="fil33" d="M9559 2924l-726 0 0 62 726 0 0 -62zm-759 79l0 -96c0,-9 7,-17 17,-17l759 0c9,0 17,7 17,17l0 96c0,9 -7,17 -17,17l-759 0c-9,0 -17,-7 -17,-17z"/>
   <path class="fil56" d="M9693 1570c0,53 43,96 96,96 53,0 96,-43 96,-96 0,-53 -43,-96 -96,-96 -53,0 -96,43 -96,96z"/>
   <path class="fil33" d="M9710 1570c0,44 35,79 79,79 44,0 79,-35 79,-79 0,-44 -36,-79 -79,-79 -44,0 -79,35 -79,79zm-33 0c0,-62 50,-112 112,-112 62,0 112,50 112,112 0,62 -50,112 -112,112 -62,0 -112,-50 -112,-112z"/>
   <path class="fil39" d="M9712 1626c17,24 45,39 77,39 8,0 16,-1 24,-3l-442 1245 -114 0 455 -1281z"/>
   <path class="fil33" d="M9788 1682c-26,0 -50,-9 -69,-25l-438 1233 78 0 429 -1208zm-545 1234c-3,-4 -4,-10 -2,-15l455 -1281c2,-6 7,-10 13,-11 6,-1 12,2 16,7 15,21 38,33 64,33 6,0 12,-1 20,-3 6,-2 12,0 16,5 4,5 5,11 3,17l-442 1245c-2,7 -9,11 -16,11l-114 0c-5,0 -10,-3 -14,-7z"/>
   <path class="fil56" d="M8837 1167c52,8 101,-29 109,-81 8,-52 -29,-101 -81,-109 -52,-8 -101,29 -109,81 -8,52 29,101 81,109z"/>
   <path class="fil33" d="M8772 1061c-3,21 2,42 15,59 13,17 31,28 52,31 43,6 83,-25 90,-67 6,-43 -24,-83 -67,-90 -4,-1 -8,-1 -11,-1 -39,0 -73,29 -78,68zm62 123c-30,-4 -56,-20 -74,-44 -18,-24 -25,-54 -21,-83 9,-60 66,-104 127,-95 61,9 104,66 95,127 -8,55 -56,96 -111,96 -5,0 -11,0 -16,-1z"/>
   <path class="fil39" d="M9746 1484c-31,16 -53,48 -53,85 0,3 1,5 1,8l-799 -422c26,-14 45,-39 50,-71 1,-8 1,-16 0,-24l801 423z"/>
   <path class="fil33" d="M8961 1089c-4,25 -16,48 -35,65l751 396c4,-25 17,-48 36,-64l-752 -397zm724 504l-799 -422c-5,-3 -9,-9 -9,-15 0,-6 3,-12 9,-15 23,-12 38,-33 41,-58 1,-6 1,-12 0,-20 -1,-6 2,-12 7,-16 5,-3 12,-4 17,-1l801 423c6,3 9,9 9,15 0,6 -4,12 -9,15 -27,14 -44,41 -44,70 0,1 0,2 0,3l0 4c1,6 -2,12 -7,15 -3,2 -6,3 -9,3 -3,0 -5,-1 -8,-2z"/>
   <path class="fil39" d="M9884 1570c0,-4 -1,-9 -1,-13l230 122 -16 113 -262 -138c29,-16 49,-47 49,-83z"/>
   <path class="fil33" d="M9900 1585c-3,25 -15,48 -34,66l217 115 11 -78 -195 -103zm189 221l-262 -138c-5,-3 -9,-8 -9,-14 0,-6 3,-12 8,-15 25,-14 40,-40 40,-69 0,-3 0,-6 -1,-11 -1,-6 2,-12 7,-16 5,-4 12,-4 17,-1l230 122c6,3 10,10 9,17l-16 113c-1,5 -4,10 -9,12 -2,1 -5,2 -8,2 -3,0 -5,-1 -8,-2z"/>
   <path class="fil33" d="M8564 1109c6,0 13,-4 15,-10l53 -125 125 67c8,4 18,1 23,-7 4,-8 1,-18 -7,-23l-141 -76c-4,-2 -9,-3 -13,-1 -4,2 -8,5 -10,9l-60 141c-4,8 0,18 9,22 2,1 4,1 7,1z"/>
   <path class="fil53" d="M8026 1350c95,-224 333,-338 532,-254 199,84 284,334 189,558l-721 -304z"/>
   <path class="fil65" d="M8558 1096c199,84 284,334 189,558l-367 -155 13 -13 165 -391z"/>
   <path class="fil33" d="M8048 1341l690 291c38,-100 42,-208 9,-304 -34,-101 -104,-178 -196,-217 -42,-18 -86,-26 -131,-26 -153,0 -301,102 -373,256zm693 328l-721 -304c-4,-2 -7,-5 -9,-9 -2,-4 -2,-9 0,-13 74,-175 238,-292 410,-292 50,0 98,10 144,29 101,43 177,127 214,237 37,109 31,231 -16,344 -3,6 -9,10 -15,10 -2,0 -4,0 -6,-1z"/>
   <path class="fil56" d="M8575 956c0,25 21,46 46,46 25,0 46,-21 46,-46 0,-25 -21,-46 -46,-46 -25,0 -46,21 -46,46z"/>
   <path class="fil33" d="M8591 956c0,16 13,29 29,29 16,0 29,-13 29,-29 0,-16 -13,-29 -29,-29 -16,0 -29,13 -29,29zm-33 0c0,-35 28,-63 63,-63 35,0 63,28 63,63 0,35 -28,63 -63,63 -35,0 -63,-28 -63,-63z"/>
   <polygon class="fil66" points="6311,433 6410,334 6311,334 "/>
   <polygon class="fil67" points="6311,555 6311,654 6410,555 "/>
   <polygon class="fil68" points="6311,777 6311,876 6410,777 "/>
   <polygon class="fil69" points="6311,998 6311,1097 6410,998 "/>
   <polygon class="fil70" points="6311,1219 6311,1318 6410,1219 "/>
   <polygon class="fil71" points="6311,1441 6311,1540 6410,1441 "/>
   <polygon class="fil72" points="6311,1662 6311,1761 6410,1662 "/>
   <rect class="fil73" y="3092" width="33.3168" height="141.845"/>
   <rect class="fil73" x="10127" y="3092" width="33.3168" height="141.845"/>
   <polygon class="fil74" points="7007,2991 7007,2743 7158,2743 7108,2991 "/>
   <polygon class="fil75" points="7007,2710 7007,1784 7038,1784 7038,2710 "/>
   <polygon class="fil68" points="7793,2991 7793,2784 7793,2413 8034,2413 8034,2991 "/>
   <polygon class="fil33" points="7809,2598 7776,2598 7776,2396 7809,2396 "/>
   <polygon class="fil76" points="7857,2767 7729,2767 7729,2598 7857,2598 "/>
   <polygon class="fil77" points="7745,2751 7745,2615 7840,2615 "/>
   <path class="fil33" d="M7745 2751l95 0 0 -136 -95 0 0 136zm112 33l-128 0c-9,0 -17,-7 -17,-17l0 -169c0,-9 7,-17 17,-17l128 0c9,0 17,7 17,17l0 169c0,9 -7,17 -17,17z"/>
  </g>
 </g>
</svg>
