<?xml version="1.0" encoding="UTF-8"?>
<!DOCTYPE svg PUBLIC "-//W3C//DTD SVG 1.1//EN" "http://www.w3.org/Graphics/SVG/1.1/DTD/svg11.dtd">
<!-- Creator: CorelDRAW X6 -->
<svg xmlns="http://www.w3.org/2000/svg" xml:space="preserve" width="3.556mm" height="5.08mm" version="1.1" style="shape-rendering:geometricPrecision; text-rendering:geometricPrecision; image-rendering:optimizeQuality; fill-rule:evenodd; clip-rule:evenodd"
viewBox="0 0 356 508"
 xmlns:xlink="http://www.w3.org/1999/xlink">
 <defs>
  <style type="text/css">
   <![CDATA[
    .str2 {stroke:#302D2D;stroke-width:105.83;stroke-linecap:round;stroke-linejoin:round;stroke-opacity:0.200000}
    .str1 {stroke:#302D2D;stroke-width:105.83;stroke-linecap:round;stroke-linejoin:round}
    .str3 {stroke:#302D2D;stroke-width:141.11;stroke-linecap:round;stroke-linejoin:round;stroke-dasharray:423.300000 1100.580000;stroke-opacity:0.200000}
    .str0 {stroke:#302D2D;stroke-width:141.11;stroke-linecap:round;stroke-linejoin:round;stroke-dasharray:423.300000 1100.580000}
    .fil6 {fill:none;fill-rule:nonzero}
    .fil31 {fill:none;fill-rule:nonzero}
    .fil32 {fill:#C6B7D3}
    .fil33 {fill:#AB9AB9}
    .fil35 {fill:#3E4A55;fill-rule:nonzero}
    .fil39 {fill:#5C9990;fill-rule:nonzero}
    .fil34 {fill:#ABD3B9;fill-rule:nonzero}
    .fil36 {fill:#BC6384;fill-rule:nonzero}
    .fil37 {fill:#FEFEFE;fill-rule:nonzero}
    .fil8 {fill:#00D9CE;fill-rule:nonzero}
    .fil3 {fill:#04C4D5;fill-rule:nonzero}
    .fil5 {fill:#231F20;fill-rule:nonzero}
    .fil21 {fill:#297391;fill-rule:nonzero}
    .fil18 {fill:#302D2D;fill-rule:nonzero}
    .fil26 {fill:#474747;fill-rule:nonzero}
    .fil17 {fill:#4C4949;fill-rule:nonzero}
    .fil16 {fill:#4C4C4C;fill-rule:nonzero}
    .fil11 {fill:#523C60;fill-rule:nonzero}
    .fil22 {fill:#633900;fill-rule:nonzero}
    .fil29 {fill:#645B75;fill-rule:nonzero}
    .fil13 {fill:#666666;fill-rule:nonzero}
    .fil15 {fill:#697271;fill-rule:nonzero}
    .fil20 {fill:#6DAF75;fill-rule:nonzero}
    .fil24 {fill:#70DDE0;fill-rule:nonzero}
    .fil30 {fill:#71BDC1;fill-rule:nonzero}
    .fil14 {fill:#86CBED;fill-rule:nonzero}
    .fil9 {fill:#92E1B5;fill-rule:nonzero}
    .fil25 {fill:#A0804D;fill-rule:nonzero}
    .fil28 {fill:#A391C3;fill-rule:nonzero}
    .fil4 {fill:#C94C27;fill-rule:nonzero}
    .fil27 {fill:lightgrey;fill-rule:nonzero}
    .fil23 {fill:#E8CF69;fill-rule:nonzero}
    .fil1 {fill:#EBB167;fill-rule:nonzero}
    .fil10 {fill:#EE7046;fill-rule:nonzero}
    .fil2 {fill:#F15A24;fill-rule:nonzero}
    .fil12 {fill:#F2D0D3;fill-rule:nonzero}
    .fil0 {fill:whitesmoke;fill-rule:nonzero}
    .fil19 {fill:#FBB03B;fill-rule:nonzero}
    .fil7 {fill:#FBD260;fill-rule:nonzero}
    .fil38 {fill:#67C3CE;fill-rule:nonzero}
   ]]>
  </style>
 </defs>
<symbol id="Fm2-33-0" viewBox="12261 -16519 7669 5562">
 <path class="fil0" d="M14753 -12207l0 526 0 88c0,112 43,224 128,310 86,86 198,128 310,128l718 0 718 0c112,0 224,-43 310,-128 85,-85 128,-198 128,-310l0 -88 0 -526 -2312 0zm-2215 -3498l0 2834c0,241 197,439 438,439l6238 0c241,0 438,-197 438,-439l0 -2834c0,-241 -197,-438 -438,-438l-6238 0c-241,0 -438,197 -438,438zm-277 4310l0 -4685c0,-241 197,-438 438,-438l6793 0c241,0 438,197 438,438l0 4685c0,241 -197,438 -438,438l-6793 0c-241,0 -438,-197 -438,-438z"/>
 <path class="fil1" d="M19064 -12711l395 0 0 -394 -395 0 0 394zm0 -394zm0 -1709l395 0 0 -394 -395 0 0 394zm0 -394zm0 -285l395 0 0 -307 -395 0 0 307zm0 -307zm-525 3090l394 0 0 -394 -394 0 0 394zm0 -394zm0 -1709l394 0 0 -394 -394 0 0 394zm0 -394zm0 -285l394 0 0 -307 -394 0 0 307zm0 -307zm-83 1643l0 394 609 0 395 0 0 -394 0 -526 -395 0 -328 0 0 526 -280 0zm-246 920l1249 0 0 -394 -1249 0 0 394zm0 -394zm-44 -657l394 0 0 -394 -394 0 0 394zm0 -394zm-153 1972l394 0 0 -394 -394 0 0 394zm0 -394zm0 -1709l394 0 0 -394 -394 0 0 394zm0 -394zm0 -285l394 0 0 -307 -394 0 0 307zm0 -307zm-132 2038l394 0 0 -394 -394 0 0 394zm0 -394zm-238 920l394 0 0 -394 -394 0 0 394zm0 -394zm-3 -657l394 0 0 -394 -394 0 0 394zm0 -394zm-153 1972l394 0 0 -394 -394 0 0 394zm0 -394zm0 -1709l394 0 0 -394 -394 0 0 394zm0 -394zm0 -285l394 0 0 -307 -394 0 0 307zm0 -307zm-132 2038l394 0 0 -394 -394 0 0 394zm0 -394zm-238 920l394 0 0 -394 -394 0 0 394zm0 -394zm-3 -657l394 0 0 -394 -394 0 0 394zm0 -394zm-153 -132l394 0 0 -394 -394 0 0 394zm0 -394zm0 -285l394 0 0 -307 -394 0 0 307zm0 -307zm-132 2038l394 0 0 -394 -394 0 0 394zm0 -394zm-238 920l394 0 0 -394 -394 0 0 394zm0 -394zm-3 -657l395 0 0 -394 -395 0 0 394zm0 -394zm-153 -132l394 0 0 -394 -394 0 0 394zm0 -394zm0 -285l394 0 0 -307 -394 0 0 307zm0 -307zm-132 2038l395 0 0 -394 -395 0 0 394zm0 -394zm-238 920l395 0 0 -394 -395 0 0 394zm0 -394zm-2 -657l395 0 0 -394 -395 0 0 394zm0 -394zm-153 -132l394 0 0 -394 -394 0 0 394zm0 -394zm0 -285l394 0 0 -307 -394 0 0 307zm0 -307zm-132 2038l395 0 0 -394 -395 0 0 394zm0 -394zm-238 920l395 0 0 -394 -395 0 0 394zm0 -394zm-3 -657l395 0 0 -394 -395 0 0 394zm0 -394zm-153 -132l394 0 0 -394 -394 0 0 394zm0 -394zm0 -285l394 0 0 -307 -394 0 0 307zm0 -307zm-131 2038l394 0 0 -394 -394 0 0 394zm0 -394zm-238 920l394 0 0 -394 -394 0 0 394zm0 -394zm-3 -657l394 0 0 -394 -394 0 0 394zm0 -394zm-154 -132l395 0 0 -394 -395 0 0 394zm0 -394zm0 -285l395 0 0 -307 -395 0 0 307zm0 -307zm-131 2038l394 0 0 -394 -394 0 0 394zm0 -394zm-238 920l394 0 0 -394 -394 0 0 394zm0 -394zm-2 -657l394 0 0 -394 -394 0 0 394zm0 -394zm-153 1972l3024 0 0 -394 -3024 0 0 394zm0 -394zm0 -1709l394 0 0 -394 -394 0 0 394zm0 -394zm0 -285l394 0 0 -307 -394 0 0 307zm0 -307zm-132 2038l394 0 0 -394 -394 0 0 394zm0 -394zm-238 920l394 0 0 -394 -394 0 0 394zm0 -394zm-3 -657l394 0 0 -394 -394 0 0 394zm0 -394zm-153 1972l394 0 0 -394 -394 0 0 394zm0 -394zm0 -1709l394 0 0 -394 -394 0 0 394zm0 -394zm0 -285l394 0 0 -307 -394 0 0 307zm0 -307zm-132 2038l394 0 0 -394 -394 0 0 394zm0 -394zm-238 920l394 0 0 -394 -394 0 0 394zm0 -394zm-3 -657l394 0 0 -394 -394 0 0 394zm0 -394zm-153 1972l394 0 0 -394 -394 0 0 394zm0 -394zm0 -1709l394 0 0 -394 -394 0 0 394zm0 -394zm0 -285l394 0 0 -307 -394 0 0 307zm0 -307zm-526 3090l394 0 0 -394 -394 0 0 394zm0 -394zm0 -132l526 0 0 -394 -526 0 0 394zm0 -394zm0 -132l723 0 0 -394 -723 0 0 394zm0 -394zm0 -131l526 0 0 -394 -526 0 0 394zm0 -394zm0 -132l394 0 0 -394 -394 0 0 394zm0 -394zm0 -285l394 0 0 -307 -394 0 0 307zm0 -307zm-215 2929l0 -2834c0,-241 197,-438 438,-438l6238 0c241,0 438,197 438,438l0 2834c0,241 -197,439 -438,439l-6238 0c-241,0 -438,-197 -438,-439z"/>
 <polygon class="fil0" points="12753,-15800 13147,-15800 13147,-15494 12753,-15494 "/>
 <polygon class="fil0" points="12753,-15209 13147,-15209 13147,-14814 12753,-14814 "/>
 <polygon class="fil0" points="12753,-14683 13279,-14683 13279,-14288 12753,-14288 "/>
 <polygon class="fil0" points="12753,-14157 13476,-14157 13476,-13763 12753,-13763 "/>
 <polygon class="fil0" points="12753,-13631 13279,-13631 13279,-13237 12753,-13237 "/>
 <polygon class="fil0" points="12753,-13105 13147,-13105 13147,-12711 12753,-12711 "/>
 <polygon class="fil0" points="13279,-15800 13673,-15800 13673,-15494 13279,-15494 "/>
 <polygon class="fil0" points="13279,-15209 13673,-15209 13673,-14814 13279,-14814 "/>
 <polygon class="fil0" points="13279,-13105 13673,-13105 13673,-12711 13279,-12711 "/>
 <polygon class="fil0" points="13433,-14683 13827,-14683 13827,-14288 13433,-14288 "/>
 <polygon class="fil0" points="13435,-13631 13829,-13631 13829,-13237 13435,-13237 "/>
 <polygon class="fil0" points="13673,-14157 14068,-14157 14068,-13763 13673,-13763 "/>
 <polygon class="fil0" points="13805,-15800 14199,-15800 14199,-15494 13805,-15494 "/>
 <polygon class="fil0" points="13805,-15209 14199,-15209 14199,-14814 13805,-14814 "/>
 <polygon class="fil0" points="13805,-13105 14199,-13105 14199,-12711 13805,-12711 "/>
 <polygon class="fil0" points="13958,-14683 14353,-14683 14353,-14288 13958,-14288 "/>
 <polygon class="fil0" points="13961,-13631 14355,-13631 14355,-13237 13961,-13237 "/>
 <polygon class="fil0" points="14199,-14157 14594,-14157 14594,-13763 14199,-13763 "/>
 <polygon class="fil0" points="14331,-15800 14725,-15800 14725,-15494 14331,-15494 "/>
 <polygon class="fil0" points="14331,-15209 14725,-15209 14725,-14814 14331,-14814 "/>
 <polygon class="fil0" points="14331,-13105 17355,-13105 17355,-12711 14331,-12711 "/>
 <polygon class="fil0" points="14484,-14683 14879,-14683 14879,-14288 14484,-14288 "/>
 <polygon class="fil0" points="14487,-13631 14881,-13631 14881,-13237 14487,-13237 "/>
 <polygon class="fil0" points="14725,-14157 15120,-14157 15120,-13763 14725,-13763 "/>
 <polygon class="fil1" points="14753,-11681 14753,-12207 17065,-12207 17065,-11681 15909,-11681 "/>
 <path class="fil0" d="M14753 -11593l0 -88 1156 0 0 526 -718 0c-113,0 -225,-43 -310,-128 -85,-85 -128,-198 -128,-310z"/>
 <polygon class="fil0" points="14856,-15800 15251,-15800 15251,-15494 14856,-15494 "/>
 <polygon class="fil0" points="14856,-15209 15251,-15209 15251,-14814 14856,-14814 "/>
 <polygon class="fil0" points="15010,-14683 15405,-14683 15405,-14288 15010,-14288 "/>
 <polygon class="fil0" points="15013,-13631 15407,-13631 15407,-13237 15013,-13237 "/>
 <polygon class="fil0" points="15251,-14157 15646,-14157 15646,-13763 15251,-13763 "/>
 <polygon class="fil0" points="15382,-15800 15777,-15800 15777,-15494 15382,-15494 "/>
 <polygon class="fil0" points="15382,-15209 15777,-15209 15777,-14814 15382,-14814 "/>
 <polygon class="fil0" points="15536,-14683 15931,-14683 15931,-14288 15536,-14288 "/>
 <polygon class="fil0" points="15539,-13631 15933,-13631 15933,-13237 15539,-13237 "/>
 <polygon class="fil0" points="15777,-14157 16171,-14157 16171,-13763 15777,-13763 "/>
 <polygon class="fil0" points="15908,-15800 16303,-15800 16303,-15494 15908,-15494 "/>
 <polygon class="fil0" points="15908,-15209 16303,-15209 16303,-14814 15908,-14814 "/>
 <path class="fil0" d="M15909 -11155l0 -526 1156 0 0 88c0,112 -43,224 -128,310 -85,86 -198,128 -310,128l-718 0z"/>
 <polygon class="fil0" points="16062,-14683 16457,-14683 16457,-14288 16062,-14288 "/>
 <polygon class="fil0" points="16064,-13631 16459,-13631 16459,-13237 16064,-13237 "/>
 <polygon class="fil0" points="16303,-14157 16697,-14157 16697,-13763 16303,-13763 "/>
 <polygon class="fil0" points="16434,-15800 16829,-15800 16829,-15494 16434,-15494 "/>
 <polygon class="fil0" points="16434,-15209 16829,-15209 16829,-14814 16434,-14814 "/>
 <polygon class="fil0" points="16587,-14683 16982,-14683 16982,-14288 16587,-14288 "/>
 <polygon class="fil0" points="16590,-13631 16985,-13631 16985,-13237 16590,-13237 "/>
 <polygon class="fil0" points="16829,-14157 17223,-14157 17223,-13763 16829,-13763 "/>
 <polygon class="fil0" points="16960,-15800 17355,-15800 17355,-15494 16960,-15494 "/>
 <polygon class="fil0" points="16960,-15209 17355,-15209 17355,-14814 16960,-14814 "/>
 <polygon class="fil0" points="17113,-14683 17508,-14683 17508,-14288 17113,-14288 "/>
 <polygon class="fil0" points="17116,-13631 17511,-13631 17511,-13237 17116,-13237 "/>
 <polygon class="fil0" points="17355,-14157 17749,-14157 17749,-13763 17355,-13763 "/>
 <polygon class="fil0" points="17486,-15800 17880,-15800 17880,-15494 17486,-15494 "/>
 <polygon class="fil0" points="17486,-15209 17880,-15209 17880,-14814 17486,-14814 "/>
 <polygon class="fil0" points="17486,-13105 17880,-13105 17880,-12711 17486,-12711 "/>
 <polygon class="fil0" points="17639,-14683 18034,-14683 18034,-14288 17639,-14288 "/>
 <polygon class="fil0" points="17642,-13631 18037,-13631 18037,-13237 17642,-13237 "/>
 <polygon class="fil0" points="17880,-14157 18275,-14157 18275,-13763 17880,-13763 "/>
 <polygon class="fil0" points="18012,-15800 18407,-15800 18407,-15494 18012,-15494 "/>
 <polygon class="fil0" points="18012,-15209 18407,-15209 18407,-14814 18012,-14814 "/>
 <polygon class="fil0" points="18012,-13105 18407,-13105 18407,-12711 18012,-12711 "/>
 <polygon class="fil0" points="18165,-14683 18560,-14683 18560,-14288 18165,-14288 "/>
 <polygon class="fil0" points="18209,-13631 19459,-13631 19459,-13237 18209,-13237 "/>
 <polygon class="fil0" points="18455,-13763 18455,-14157 18735,-14157 18735,-14683 19064,-14683 19459,-14683 19459,-14157 19459,-13763 19064,-13763 "/>
 <polygon class="fil0" points="18538,-15800 18933,-15800 18933,-15494 18538,-15494 "/>
 <polygon class="fil0" points="18538,-15209 18933,-15209 18933,-14814 18538,-14814 "/>
 <polygon class="fil0" points="18538,-13105 18933,-13105 18933,-12711 18538,-12711 "/>
 <polygon class="fil0" points="19064,-15800 19459,-15800 19459,-15494 19064,-15494 "/>
 <polygon class="fil0" points="19064,-15209 19459,-15209 19459,-14814 19064,-14814 "/>
 <polygon class="fil0" points="19064,-13105 19459,-13105 19459,-12711 19064,-12711 "/>
</symbol>
<symbol id="Fm7-36-0" viewBox="14613 -15591 3648 3648">
 <path class="fil0" d="M17741 -13767c0,-720 -584,-1304 -1304,-1304 -720,0 -1304,584 -1304,1304 0,720 584,1304 1304,1304 720,0 1304,-584 1304,-1304zm-1304 -1824c1008,0 1824,816 1824,1824 0,1008 -816,1824 -1824,1824 -1008,0 -1824,-816 -1824,-1824 0,-1008 816,-1824 1824,-1824z"/>
 <path class="fil2" d="M16437 -15071c720,0 1304,584 1304,1304 0,720 -584,1304 -1304,1304 -720,0 -1304,-584 -1304,-1304 0,-720 584,-1304 1304,-1304z"/>
</symbol>
<symbol id="Fm6-34-0" viewBox="3107 -22814 3459 4524">
 <path class="fil0" d="M6264 -21397l-2156 0 0 1035 2156 0 0 -1035zm0 1035zm302 -1345l0 3070 -345 0 -2415 0 0 -3829 2001 0 0 759 759 0z"/>
 <polygon class="fil0" points="6566,-21707 5807,-21707 5807,-22466 "/>
 <polygon class="fil3" points="6264,-20362 4108,-20362 4108,-21397 6264,-21397 "/>
 <path class="fil4" d="M6221 -18637l0 348 -2767 0c-192,0 -348,-155 -348,-348l3 0c0,-193 156,-348 348,-348 192,0 348,155 348,348l2415 0z"/>
 <path class="fil2" d="M3806 -22466l0 3829c0,-192 -156,-348 -348,-348 -193,0 -348,155 -348,348l0 -3829c0,-192 156,-348 348,-348 192,0 348,155 348,348z"/>
</symbol>
<symbol id="Fm2-31-0" viewBox="20575 -24614 4836 4844">
 <path class="fil5" d="M25378 -21914c-9,-7 -17,-13 -26,-20 -9,-7 -18,-13 -26,-20 -9,-7 -17,-13 -26,-20 -9,-7 -17,-13 -26,-20 -9,-7 -17,-13 -26,-20 -9,-7 -17,-13 -26,-20 -9,-7 -18,-13 -26,-20 -9,-7 -17,-13 -26,-20 -9,-7 -17,-13 -26,-20 -9,-7 -17,-13 -26,-20 -9,-7 -17,-13 -26,-20 -9,-7 -17,-13 -26,-20 -9,-7 -17,-13 -26,-20 -9,-7 -18,-13 -26,-20 -9,-7 -18,-14 -27,-20 -9,-6 -17,-13 -26,-19 -9,-7 -17,-13 -26,-20 -9,-7 -17,-13 -26,-20 -9,-7 -17,-13 -26,-20 -9,-7 -18,-13 -26,-20 -9,-7 -17,-13 -26,-20 -9,-7 -17,-13 -26,-20 -9,-7 -18,-13 -26,-20 -9,-7 -17,-13 -26,-20 -9,-7 -17,-13 -26,-20 -9,-7 -17,-13 -26,-20 -9,-7 -17,-13 -26,-20 -9,-7 -17,-13 -26,-20 -9,-7 -17,-13 -26,-20 -9,-7 -17,-13 -26,-20 -9,-7 -17,-13 -26,-20 -9,-7 -18,-13 -26,-20 -9,-7 -17,-13 -26,-20 -9,-7 -17,-13 -26,-20 -9,-7 -17,-13 -26,-20 -9,-7 -17,-13 -26,-20 -9,-7 -17,-13 -26,-20 -9,-7 -18,-13 -26,-20 -9,-7 -17,-13 -26,-20 -9,-7 -18,-13 -26,-20 -9,-7 -17,-13 -26,-20 -9,-7 -17,-13 -26,-20 -9,-7 -18,-13 -26,-20 -9,-7 -17,-13 -26,-20 -9,-7 -17,-13 -26,-20 -9,-7 -17,-13 -26,-20 -9,-7 -17,-13 -26,-20 -9,-7 -17,-13 -26,-20 -9,-7 -18,-13 -27,-20 -9,-7 -17,-13 -26,-20 -9,-7 -17,-13 -26,-20 -9,-7 -17,-13 -26,-20 -9,-7 -17,-13 -26,-20 -9,-7 -18,-13 -27,-20 -9,-7 -17,-13 -26,-20 -9,-7 -17,-13 -26,-20 -9,-7 -17,-13 -26,-20 -9,-7 -17,-13 -26,-20 -9,-7 -18,-13 -26,-20 -9,-7 -17,-13 -26,-20 -9,-7 -17,-13 -26,-20 -9,-7 -17,-13 -26,-20 -9,-7 -18,-13 -26,-20 -9,-7 -17,-13 -26,-20 -9,-7 -17,-13 -26,-20 -9,-7 -17,-13 -26,-20 -9,-7 -17,-13 -26,-20 -9,-7 -17,-13 -26,-20 -9,-7 -17,-13 -26,-20 -9,-7 -17,-13 -26,-20 -9,-7 -18,-13 -26,-20 -9,-7 -17,-13 -26,-20 -9,-7 -17,-13 -26,-20 -9,-7 -18,-13 -26,-20 -9,-7 -17,-13 -26,-20 -9,-7 -18,-13 -27,-20 -9,-7 -17,-13 -26,-20 -9,-7 -17,-13 -26,-20 -9,-7 -18,-13 -26,-20 -9,-7 -17,-13 -26,-20 -9,-7 -17,-13 -26,-20 -9,-7 -17,-13 -26,-20 -9,-7 -18,-13 -26,-20 -9,-7 -17,-13 -26,-20 -9,-7 -17,-13 -26,-20 -9,-7 -17,-13 -26,-20 -9,-7 -17,-13 -26,-20 -9,-7 -17,-13 -26,-20 -9,-7 -17,-13 -26,-20 -9,-7 -17,-13 -26,-20 -9,-7 -17,-13 -26,-20 -9,-7 -17,-13 -26,-20 -9,-7 -17,-13 -26,-20 -9,-7 -17,-13 -26,-20 -9,-7 -17,-13 -26,-20 -9,-7 -18,-13 -26,-20 -390,-297 -868,-521 -1406,-657 -409,-104 -745,-129 -882,-136l0 586c8,1 2646,2006 2646,2006 43,3 104,7 179,16 18,70 34,141 48,213 -2,-2 -5,-4 -7,-5 -9,-7 -17,-13 -26,-20 -9,-7 -17,-13 -26,-20 -9,-7 -17,-14 -26,-20 -9,-7 -17,-13 -26,-20 -9,-7 -17,-13 -26,-20 -9,-7 -17,-13 -26,-20 -9,-7 -17,-13 -26,-20 -9,-7 -17,-13 -26,-20 -9,-7 -17,-13 -26,-20 -9,-7 -17,-13 -26,-20 -9,-7 -18,-14 -27,-20 -9,-7 -17,-13 -26,-20 -9,-7 -17,-13 -26,-20 -9,-7 -18,-14 -27,-20 -9,-7 -17,-13 -26,-20 -9,-7 -17,-13 -26,-20 -9,-7 -17,-13 -26,-20 -9,-7 -17,-13 -26,-20 -9,-7 -17,-13 -26,-20 -9,-7 -18,-14 -27,-20 -9,-6 -17,-13 -25,-19 -9,-7 -18,-14 -27,-20 -9,-6 -17,-13 -26,-20 -9,-7 -17,-13 -26,-20 -9,-7 -17,-13 -26,-20 -9,-7 -17,-13 -26,-20 -9,-7 -17,-13 -26,-20 -9,-7 -17,-13 -26,-20 -9,-7 -17,-13 -26,-20 -9,-7 -17,-13 -26,-20 -9,-7 -17,-13 -26,-20 -9,-7 -17,-13 -26,-20 -9,-7 -18,-14 -27,-20 -9,-7 -17,-13 -26,-20 -9,-7 -17,-13 -26,-20 -9,-7 -17,-13 -26,-20 -9,-7 -17,-13 -26,-20 -9,-7 -17,-13 -26,-20 -9,-7 -18,-14 -26,-20 -9,-7 -17,-13 -26,-20 -9,-7 -17,-13 -26,-20 -9,-7 -17,-13 -26,-20 -9,-7 -17,-13 -26,-20 -9,-6 -17,-13 -26,-19 -9,-7 -18,-14 -27,-20 -9,-7 -17,-13 -26,-20 -9,-7 -17,-13 -26,-20 -9,-7 -17,-13 -26,-20 -9,-7 -17,-13 -26,-20 -9,-7 -17,-13 -26,-20 -9,-7 -18,-13 -26,-20 -9,-6 -17,-13 -26,-20 -9,-7 -17,-14 -26,-20 -261,-197 -580,-342 -940,-426 -231,-54 -427,-70 -538,-75l0 586c8,0 1650,1251 1650,1251 2,0 5,0 7,0 15,71 25,145 32,221 -4,-3 -8,-6 -12,-9 -8,-7 -17,-13 -26,-20 -8,-7 -17,-13 -26,-20 -8,-7 -17,-13 -26,-20 -8,-7 -17,-13 -26,-20 -9,-7 -17,-14 -26,-20 -8,-7 -17,-13 -26,-20 -8,-7 -17,-13 -26,-20 -8,-7 -17,-13 -26,-20 -8,-7 -17,-13 -26,-20 -8,-7 -17,-13 -26,-20 -8,-7 -17,-14 -26,-20 -8,-7 -17,-13 -26,-20 -8,-7 -17,-13 -26,-20 -8,-7 -17,-13 -26,-20 -8,-7 -17,-14 -26,-20 -8,-7 -17,-13 -26,-20 -8,-7 -17,-14 -26,-20 -8,-7 -17,-13 -26,-20 -9,-7 -17,-14 -26,-20 -8,-7 -17,-13 -26,-20 -8,-7 -17,-13 -26,-20 -8,-7 -17,-13 -26,-20 -8,-7 -17,-13 -26,-20 -8,-7 -17,-13 -26,-20 -9,-7 -17,-14 -26,-20 -8,-7 -17,-13 -26,-20 -8,-7 -17,-13 -26,-20 -8,-7 -17,-13 -26,-20 -8,-7 -17,-13 -26,-20 -8,-7 -17,-13 -26,-20 -8,-7 -17,-13 -26,-20 -8,-7 -17,-13 -26,-20 -8,-7 -17,-13 -26,-20 -81,-68 -185,-108 -299,-108 -259,0 -468,210 -468,469 0,157 77,296 195,381 8,7 17,13 26,20 8,7 17,13 26,20 8,7 17,13 26,20 8,7 17,13 26,20 8,7 17,13 26,20 8,7 17,13 26,20 8,7 17,14 26,20 8,7 17,13 26,20 8,7 17,13 26,20 8,7 17,13 26,20 8,7 17,13 26,20 9,7 17,14 26,20 8,7 17,13 26,20 8,7 17,14 26,20 8,7 17,13 26,20 8,7 17,14 26,20 8,7 17,13 26,20 8,7 17,13 26,20 8,7 17,13 26,20 8,7 17,13 26,20 8,7 17,13 26,20 8,7 17,13 26,20 8,7 17,13 26,20 8,7 17,14 26,20 8,7 17,13 26,20 8,7 17,13 26,20 8,7 17,13 26,20 8,7 17,13 26,20 8,7 17,13 26,20 8,7 17,13 26,20 8,7 17,13 26,20 8,7 17,13 26,20 8,7 17,13 26,20 8,7 17,13 26,20 8,7 17,13 26,20 8,7 17,14 26,20 8,7 17,13 26,20 8,7 17,13 26,20 8,7 17,14 26,20 8,7 17,13 26,20 8,7 17,13 26,20 8,7 17,13 26,20 8,7 17,13 26,20 8,7 17,13 26,20 8,7 17,13 26,20 8,7 17,13 26,20 8,7 17,14 26,20 8,7 17,13 26,20 8,7 17,13 26,20 8,7 17,14 26,20 8,7 17,13 26,20 8,7 17,13 26,20 8,7 17,13 26,20 8,7 17,13 26,20 8,7 17,13 26,20 8,7 17,13 26,20 8,7 17,13 26,20 8,7 17,14 26,20 8,7 17,13 26,20 8,7 17,13 26,20 8,7 17,14 26,20 8,7 17,13 26,20 8,7 17,13 26,20 8,7 17,14 26,20 8,7 17,13 26,20 8,7 17,13 26,20 9,7 17,14 26,20 8,7 17,13 26,20 8,7 17,13 26,20 8,7 17,13 26,20 8,7 17,13 26,20 8,7 17,13 26,20 7,6 14,11 21,16l1213 0c815,0 1475,-659 1475,-1472l0 -647c-3,-2 -5,-4 -8,-6 -9,-7 -17,-13 -26,-20z"/>
</symbol>
<symbol id="Fm10-25-0" viewBox="11798 -8488 5117 4856">
 <path class="fil5" d="M15771 -8481l-454 99c-9,-12 -124,-104 -161,-106 -84,-6 -94,79 -94,79l0 2 -4 49 -3260 438 293 1659 408 276 5 26 -375 0c0,0 -86,5 -86,88 0,37 275,251 446,378 -83,56 -138,150 -138,258 0,113 60,211 150,266 16,15 33,28 52,39 16,15 33,28 52,39 16,15 33,28 52,39 16,15 33,28 52,40 16,15 33,28 52,39 16,15 33,28 52,39 16,15 33,28 52,39 16,15 33,28 52,39 16,15 33,28 52,39 16,15 33,28 52,39 16,15 33,28 52,40 16,15 33,28 52,39 16,15 33,28 52,40 16,15 33,28 52,39 16,15 33,28 52,39 16,15 33,28 52,40 16,15 33,28 52,39 16,15 33,28 52,39 16,15 33,28 52,39 16,15 33,28 52,39 16,15 33,28 52,39 16,15 33,28 52,39 16,15 33,28 52,39 16,15 33,28 52,39 16,15 33,28 52,39 16,15 33,28 52,40 16,15 33,28 52,39 16,15 33,28 52,39 16,15 33,28 52,39 16,15 33,28 52,39 16,15 33,28 52,39 16,15 33,28 52,40 16,15 33,28 52,39 14,13 29,25 46,35 0,0 443,-1 1022,0 80,0 1550,53 1635,-1475l0 -2521c-602,-450 -1142,-852 -1142,-852l-2 0z"/>
</symbol>
<symbol id="Fm1-30-0" viewBox="2387 -20557 6979 7270">
 <path class="fil6 str0" d="M2457 -16937c0,-1982 1531,-3589 3419,-3589 1888,0 3419,1607 3419,3589 0,1982 -1531,3589 -3419,3589 -1888,0 -3419,-1607 -3419,-3589z"/>
</symbol>
<symbol id="Fm5-32-0" viewBox="12451 -12434 1004 2024">
 <path class="fil0" d="M13455 -11656l0 894c0,194 -159,353 -353,353l-299 0c-194,0 -353,-159 -353,-353l0 -894 502 0 502 0z"/>
 <path class="fil3" d="M13455 -12081l0 425 -502 0 0 -778 149 0c194,0 353,159 353,353z"/>
 <path class="fil3" d="M12953 -12434l0 778 -502 0 0 -425c0,-194 159,-353 353,-353l150 0z"/>
</symbol>
<symbol id="Fm5-37-0" viewBox="12021 -16618 4893 4934">
 <path class="fil5" d="M16874 -14862c-9,-7 -17,-14 -26,-20 -9,-6 -17,-13 -26,-20 -9,-7 -17,-14 -26,-20 -9,-7 -17,-14 -26,-20 -9,-7 -17,-14 -26,-20 -9,-7 -17,-14 -26,-20 -9,-7 -17,-14 -26,-20 -9,-7 -17,-13 -26,-20 -9,-7 -17,-14 -26,-20 -9,-7 -17,-14 -26,-20 -9,-7 -17,-13 -26,-20 -9,-7 -17,-14 -26,-20 -9,-7 -17,-14 -26,-20 -9,-7 -17,-14 -26,-20 -9,-7 -17,-14 -26,-20 -9,-7 -17,-13 -26,-20 -9,-7 -17,-14 -26,-20 -9,-7 -17,-14 -26,-20 -9,-7 -17,-14 -26,-20 -9,-6 -17,-13 -26,-20 -9,-7 -17,-14 -26,-20 -9,-7 -17,-13 -26,-20 -9,-7 -17,-14 -26,-20 -9,-7 -17,-14 -26,-20 -9,-7 -17,-14 -26,-20 -9,-7 -17,-14 -26,-20 -9,-7 -17,-14 -26,-20 -9,-7 -17,-13 -26,-20 -9,-7 -17,-14 -26,-20 -9,-7 -17,-14 -26,-20 -9,-6 -17,-13 -26,-20 -9,-7 -17,-14 -26,-20 -9,-7 -17,-14 -26,-20 -9,-7 -17,-14 -26,-20 -9,-7 -17,-14 -26,-20 -9,-7 -17,-14 -26,-20 -9,-7 -17,-14 -26,-20 -9,-7 -17,-14 -26,-20 -9,-7 -17,-14 -26,-20 -9,-7 -17,-14 -26,-20 -9,-7 -17,-14 -26,-20 -9,-7 -17,-13 -26,-20 -9,-7 -17,-14 -26,-20 -9,-7 -17,-14 -26,-20 -9,-7 -17,-13 -26,-20 -9,-7 -17,-14 -26,-20 -9,-7 -17,-13 -26,-20 -9,-7 -17,-14 -26,-20 -9,-7 -17,-14 -26,-20 -9,-7 -17,-14 -26,-20 -9,-6 -17,-13 -26,-20 -9,-7 -17,-14 -26,-20 -9,-7 -17,-14 -26,-20 -9,-7 -17,-14 -26,-20 -9,-7 -17,-14 -26,-20 -9,-6 -17,-13 -26,-20 -9,-7 -17,-14 -26,-20 -9,-7 -17,-14 -26,-20 -9,-7 -17,-14 -26,-20 -9,-7 -17,-14 -26,-20 -9,-7 -17,-14 -26,-20 -9,-7 -17,-14 -26,-20 -9,-7 -17,-14 -26,-20 -9,-7 -17,-14 -26,-20 -9,-7 -17,-14 -26,-20 -9,-7 -17,-14 -26,-20 -9,-7 -17,-13 -26,-20 -9,-7 -17,-14 -26,-20 -9,-7 -17,-14 -26,-20 -9,-7 -17,-14 -26,-20 -9,-7 -17,-13 -26,-20 -9,-7 -18,-14 -28,-21 -63,-47 -130,-90 -202,-127 -253,-130 -539,-195 -857,-195 -410,0 -760,92 -1047,277 -288,185 -510,450 -666,797 -128,283 -192,581 -192,894 0,281 54,542 162,784 86,191 214,360 383,506 26,23 54,44 82,65 9,7 18,13 26,20 9,7 18,13 26,20 8,7 17,13 26,19 9,7 18,14 27,20 8,7 17,13 26,20 9,7 18,13 26,20 9,7 17,13 26,20 9,7 17,13 26,20 9,7 17,13 26,20 9,7 18,13 26,20 9,7 17,13 26,20 9,7 18,13 27,20 9,7 17,13 26,20 9,7 17,13 26,20 9,7 17,13 26,20 9,7 17,13 26,20 9,7 17,13 26,20 9,7 18,14 27,20 8,7 17,13 25,19 9,7 18,14 27,20 9,7 17,13 26,20 9,7 17,13 26,20 9,7 18,13 26,20 9,7 17,13 26,20 9,7 17,13 26,20 9,7 18,13 26,20 8,7 17,13 26,20 9,7 18,14 27,20 9,7 17,13 26,20 9,7 17,13 26,20 9,7 17,13 26,20 9,7 18,13 26,20 9,7 17,13 26,20 8,7 17,13 26,20 9,7 18,14 27,20 8,7 17,13 26,20 9,7 18,13 26,20 9,7 17,13 26,20 9,7 17,13 26,20 9,7 17,13 26,20 9,7 17,13 26,20 9,7 17,13 26,20 9,7 18,13 26,20 9,7 17,13 26,20 9,7 17,13 26,20 9,7 18,13 26,20 9,7 17,13 26,20 9,7 18,13 26,20 9,7 18,13 26,20 8,7 17,13 26,20 9,7 18,13 26,20 9,7 17,13 26,20 9,7 17,13 26,20 9,7 18,13 26,20 9,7 17,13 26,20 9,7 17,13 26,20 9,7 18,13 27,20 9,7 17,13 26,20 9,7 18,14 27,20 9,7 17,13 26,20 9,7 17,13 26,20 9,7 18,13 26,20 9,7 17,13 26,20 9,7 17,13 26,20 9,7 17,13 26,20 9,7 18,13 26,20 9,7 17,13 26,20 9,7 18,13 26,20 9,7 17,13 26,20 9,7 17,13 26,20 9,7 18,13 26,20 9,7 17,13 26,20 9,7 18,14 27,20 8,7 17,13 26,19 9,7 18,14 27,20 9,7 17,13 26,20 9,7 17,13 26,20 9,7 17,13 26,20 9,7 17,13 26,20 9,7 17,13 26,20 7,6 15,12 23,17l673 0c815,0 1475,-660 1475,-1475l0 -1672c-5,-4 -9,-7 -14,-11 -9,-7 -17,-14 -26,-20z"/>
</symbol>
<symbol id="Fm3-33-0" viewBox="28904 -24557 4782 4776">
 <path class="fil5" d="M33656 -22676c-9,-7 -17,-13 -26,-20 -9,-7 -17,-13 -26,-20 -9,-7 -17,-13 -26,-20 -9,-7 -18,-14 -27,-20 -9,-7 -17,-13 -26,-20 -9,-7 -17,-13 -26,-20 -9,-7 -17,-14 -26,-20 -9,-7 -17,-13 -26,-20 -9,-7 -17,-13 -26,-20 -9,-7 -17,-13 -26,-20 -9,-7 -17,-13 -26,-20 -9,-7 -17,-13 -26,-20 -9,-7 -17,-13 -26,-20 -9,-7 -17,-13 -26,-20 -9,-7 -17,-13 -26,-20 -9,-7 -18,-14 -27,-20 -9,-7 -17,-13 -26,-20 -9,-7 -17,-13 -26,-20 -9,-7 -17,-13 -26,-20 -9,-7 -17,-13 -26,-20 -9,-7 -18,-14 -27,-20 -9,-7 -17,-13 -26,-20 -9,-7 -17,-13 -26,-20 -9,-7 -17,-13 -26,-20 -9,-7 -17,-13 -26,-20 -9,-7 -17,-13 -26,-20 -9,-7 -17,-13 -26,-20 -9,-7 -17,-13 -26,-20 -9,-7 -17,-13 -26,-20 -9,-7 -18,-14 -26,-20 -9,-7 -17,-13 -26,-20 -9,-7 -17,-14 -26,-20 -9,-7 -17,-13 -26,-20 -9,-7 -17,-13 -26,-20 -9,-7 -18,-14 -27,-20 -9,-7 -17,-13 -26,-20 -9,-7 -17,-13 -26,-20 -9,-7 -18,-14 -27,-20 -9,-7 -17,-13 -26,-20 -9,-7 -17,-13 -26,-20 -9,-7 -17,-13 -26,-20 -9,-7 -17,-13 -26,-20 -9,-7 -17,-13 -26,-20 -9,-7 -17,-13 -26,-20 -9,-7 -17,-13 -26,-20 -9,-7 -18,-14 -26,-20 -9,-7 -17,-13 -26,-20 -9,-7 -17,-13 -26,-20 -9,-7 -17,-13 -26,-20 -9,-7 -17,-14 -26,-20 -9,-7 -17,-13 -26,-20 -9,-7 -17,-13 -26,-20 -9,-7 -17,-13 -26,-20 -9,-7 -17,-13 -26,-20 -9,-7 -17,-13 -26,-20 -9,-7 -18,-14 -26,-20 -9,-7 -17,-13 -26,-20 -9,-7 -17,-13 -26,-20 -9,-7 -17,-13 -26,-20 -9,-7 -18,-14 -26,-20 -9,-7 -17,-13 -26,-20 -9,-7 -17,-13 -26,-20 -9,-7 -17,-14 -26,-20 -9,-7 -17,-13 -26,-20 -9,-7 -17,-13 -26,-20 -9,-7 -17,-13 -26,-20 -9,-7 -18,-13 -26,-20 -9,-7 -17,-13 -26,-20 -9,-7 -17,-14 -26,-20 -9,-7 -17,-13 -26,-20 -9,-7 -17,-13 -26,-20 -9,-7 -17,-13 -26,-20 -9,-7 -17,-13 -26,-20 -9,-7 -18,-14 -26,-20 -9,-7 -17,-13 -26,-20 -9,-7 -17,-13 -26,-20 -9,-7 -18,-14 -26,-20 -286,-219 -645,-348 -1038,-348 -948,0 -1697,749 -1697,1697 0,566 267,1062 685,1369 9,7 17,13 26,20 9,7 17,13 26,20 9,7 17,13 26,20 9,7 17,14 26,20 9,7 17,13 26,20 9,7 18,14 27,20 9,7 17,13 26,20 9,7 17,13 26,20 9,7 17,13 26,20 9,7 17,14 26,20 9,7 17,13 26,20 9,7 17,13 26,20 9,7 17,13 26,20 9,7 17,13 26,20 9,7 17,13 26,20 9,7 17,13 26,20 9,7 17,13 26,20 9,7 17,13 26,20 9,7 18,14 26,20 9,7 17,13 26,20 9,7 17,13 26,20 9,7 18,14 27,20 9,7 17,13 26,20 9,7 18,14 26,20 9,7 17,13 26,20 9,7 18,14 27,20 9,7 17,13 26,20 9,7 17,13 26,20 9,7 17,13 26,20 9,7 17,13 26,20 9,7 18,14 27,20 9,7 17,13 26,20 9,7 17,14 26,20 9,7 17,13 26,20 9,7 17,13 26,20 9,7 17,13 26,20 9,7 17,13 26,20 9,7 17,14 26,20 9,7 17,13 26,20 9,7 17,13 26,20 9,7 17,13 26,20 9,7 18,14 27,20 9,7 17,13 26,20 9,7 17,13 26,20 9,7 17,13 26,20 9,7 17,13 26,20 9,7 18,14 27,20 9,7 17,13 26,19 9,7 17,13 26,20 9,7 18,14 27,20 9,7 17,13 26,20 9,7 17,13 26,20 9,7 17,13 26,20 9,7 17,13 26,20 9,7 18,14 26,20 9,7 17,13 26,20 9,7 17,13 26,20 9,7 17,14 26,20 9,7 17,14 26,20 9,7 17,13 26,20 9,7 18,14 27,20 9,7 17,13 26,20 9,7 17,13 26,20 9,7 18,14 26,20 9,7 17,13 26,20 9,7 17,13 26,20 9,7 18,14 27,20 9,7 17,13 26,20 9,7 18,14 27,20 9,7 17,13 26,20 9,7 17,13 26,20 9,7 17,13 26,20 9,7 17,13 26,20 9,7 17,13 26,20 9,7 17,13 26,20 9,7 17,13 26,20 9,7 17,13 26,20 9,7 17,13 26,20 9,7 17,13 26,20 9,7 18,14 26,20 9,7 17,13 26,20 9,7 17,13 26,20 9,7 18,14 26,20 9,7 17,13 26,20 9,7 17,13 26,20 8,6 16,12 24,18l371 0c815,0 1475,-661 1475,-1475l0 -1397c-1,-1 -2,-2 -4,-3 -9,-7 -17,-13 -26,-20z"/>
</symbol>
<symbol id="Fm0-21-0" viewBox="2354 -24321 5985 4558">
 <path class="fil5" d="M8268 -22560c-17,-13 -34,-27 -52,-39 -17,-14 -34,-27 -52,-40 -17,-14 -34,-27 -52,-39 -17,-14 -34,-27 -52,-40 -17,-14 -34,-27 -52,-39 -17,-13 -34,-27 -52,-39 -17,-13 -34,-27 -52,-39 -17,-14 -34,-27 -52,-40 -17,-14 -34,-27 -52,-40 -17,-14 -34,-27 -52,-39 -17,-13 -34,-27 -52,-39 -17,-14 -34,-27 -52,-39 -17,-14 -34,-27 -52,-40 -17,-14 -34,-27 -52,-39 -17,-13 -34,-27 -52,-39 -17,-14 -34,-27 -52,-40 -17,-13 -34,-27 -52,-39 -17,-14 -34,-27 -52,-39 -17,-14 -34,-27 -52,-40 -17,-13 -34,-27 -52,-39 -17,-14 -34,-27 -52,-39 -17,-14 -34,-27 -52,-39 -17,-14 -34,-27 -52,-39 -17,-13 -34,-27 -52,-39 -17,-14 -34,-27 -52,-39 -17,-14 -34,-27 -52,-40 -17,-13 -34,-27 -52,-39 -17,-14 -34,-27 -52,-40 -17,-14 -34,-27 -52,-39 -17,-14 -34,-27 -52,-40 -17,-13 -34,-27 -52,-39 -17,-13 -34,-27 -52,-39 -17,-14 -34,-27 -52,-40 -17,-14 -34,-27 -52,-39 -17,-14 -34,-27 -52,-39 -17,-14 -34,-27 -52,-39 -17,-14 -34,-27 -52,-39 -237,-189 -537,-302 -863,-302 -434,0 -834,197 -1099,541 -190,-25 -389,18 -559,135 -330,228 -435,661 -264,1011 -67,-28 -146,-23 -210,22l-905 626c-100,69 -125,206 -56,306 20,29 46,52 75,68 15,16 33,29 52,39 15,16 33,29 52,39 15,16 33,29 52,39 16,16 33,29 52,39 15,16 33,29 52,39 15,16 33,29 52,39 16,16 33,29 52,39 16,16 33,29 52,39 15,16 33,29 52,39 16,16 33,29 52,39 16,16 33,29 52,39 16,16 33,29 52,39 15,16 33,29 52,39 16,16 33,29 52,39 15,16 33,29 52,39 15,16 33,29 52,39 16,16 33,29 52,39 16,16 33,29 52,39 15,16 33,29 52,39 15,16 33,29 52,39 16,16 33,29 52,39 15,16 33,29 52,39 15,16 33,29 52,39 16,16 33,29 52,39 15,16 33,29 52,39 15,16 33,29 52,39 16,16 33,29 52,39 15,16 33,29 52,39 15,16 33,29 52,39 15,16 33,29 52,39 16,16 33,29 52,39 15,16 33,29 52,39 15,16 33,29 52,39 16,16 33,29 52,39 15,16 33,29 52,39 16,16 33,29 52,40 15,16 33,29 52,39 16,16 33,29 52,39 15,16 33,29 52,39 16,16 33,29 52,39 15,16 33,29 52,39 15,16 33,29 52,39 4,4 99,80 242,193l1974 0c815,0 1475,-660 1475,-1475l0 -1268c-6,-5 -12,-10 -19,-14 -17,-14 -34,-27 -52,-39z"/>
</symbol>
<symbol id="Fm9-75-0" viewBox="5163 -10119 4610 5545">
 <path class="fil2" d="M8218 -9155c164,-164 429,-164 592,0 163,163 163,428 0,592l-592 -592z"/>
 <polygon class="fil7" points="8810,-8563 9774,-7599 9254,-7080 8925,-7409 7066,-9267 6735,-9599 7254,-10119 8218,-9155 "/>
 <polygon class="fil0" points="7066,-9267 8925,-7409 7844,-6809 7039,-6004 5662,-7381 6467,-8186 "/>
 <path class="fil8" d="M6901 -5866l-76 76c-125,125 -274,208 -433,251 -325,89 -688,5 -944,-251 -380,-380 -380,-997 0,-1377l213 -213 1377 1377 -138 138z"/>
 <path class="fil2" d="M6901 -5866l890 1138 -155 155 -1244 -966 0 -1c159,-43 309,-126 433,-251l76 -76z"/>
</symbol>
<symbol id="Fm2-62-0" viewBox="4460 -8486 5282 5539">
 <path class="fil6 str1" d="M4513 -5716c0,-1500 1159,-2717 2588,-2717 1429,0 2588,1216 2588,2717 0,1500 -1159,2717 -2588,2717 -1429,0 -2588,-1216 -2588,-2717z"/>
</symbol>
<symbol id="Fm11-45-0" viewBox="1867 -7080 2330 1497">
 <path class="fil0" d="M2479 -6010l-391 0 0 217 391 0 0 -217zm0 217zm1718 -641l0 639c0,117 -95,212 -212,212l-1906 0c-116,0 -212,-95 -212,-212l0 -639 2330 0z"/>
 <polygon class="fil2" points="4197,-6434 1867,-6434 1867,-6751 4197,-6751 "/>
 <path class="fil0" d="M4197 -6868l0 116 -2330 0 0 -116c0,-116 95,-212 212,-212l1906 0c116,0 212,95 212,212z"/>
 <polygon class="fil7" points="2479,-5793 2088,-5793 2088,-6010 2479,-6010 "/>
</symbol>
<symbol id="Fm7-43-0" viewBox="3679 -10945 1335 5900">
 <polygon class="fil9" points="5014,-10839 5014,-9638 4797,-9638 4797,-9805 4847,-9805 4847,-10671 4722,-10671 4722,-10839 "/>
 <polygon class="fil0" points="4868,-6662 4797,-6662 4797,-7121 4868,-7121 "/>
 <path class="fil10" d="M4820 -7691l0 -283 -23 0 0 -249c100,99 162,236 162,387 0,151 -62,289 -162,387l0 -242 23 0z"/>
 <polygon class="fil0" points="4820,-7691 4797,-7691 4797,-7974 4820,-7974 "/>
 <polygon class="fil11" points="4797,-6662 4797,-5368 4411,-5046 4031,-5368 4031,-6662 "/>
 <polygon class="fil0" points="4797,-6662 4031,-6662 4031,-7121 4797,-7121 "/>
 <path class="fil11" d="M4797 -7449l0 328 -766 0 0 -328c98,97 234,157 383,157 150,0 285,-60 383,-157z"/>
 <path class="fil10" d="M4797 -7691l0 242c-98,97 -234,157 -383,157 -149,0 -285,-60 -383,-157l0 -242 766 0z"/>
 <polygon class="fil8" points="4797,-7691 4031,-7691 4031,-7974 4797,-7974 "/>
 <path class="fil10" d="M4797 -8223l0 249 -766 0 0 -249c98,-97 234,-157 383,-157 150,0 285,60 383,157z"/>
 <path class="fil11" d="M4797 -9638l0 1415c-98,-97 -234,-157 -383,-157 -149,0 -285,60 -383,157l0 -1415 766 0z"/>
 <polygon class="fil11" points="4797,-9638 4031,-9638 4031,-9805 4797,-9805 "/>
 <polygon class="fil11" points="4797,-9953 4797,-9805 4031,-9805 4031,-9953 4306,-9953 4306,-9855 4517,-9855 4517,-9953 "/>
 <polygon class="fil10" points="4722,-10588 4517,-10588 4517,-10671 4722,-10671 "/>
 <polygon class="fil10" points="4722,-10839 4722,-10671 4517,-10671 4517,-10684 4306,-10684 4306,-10671 4101,-10671 4101,-10839 "/>
 <polygon class="fil10" points="4722,-10839 4101,-10839 4101,-10945 4722,-10945 "/>
 <polygon class="fil0" points="4517,-9855 4306,-9855 4306,-9953 4517,-9953 "/>
 <polygon class="fil0" points="4517,-9953 4306,-9953 4306,-10588 4517,-10588 "/>
 <polygon class="fil0" points="4517,-10588 4306,-10588 4306,-10671 4517,-10671 "/>
 <polygon class="fil1" points="4517,-10671 4306,-10671 4306,-10684 4517,-10684 "/>
 <polygon class="fil10" points="4306,-10588 4101,-10588 4101,-10671 4306,-10671 "/>
 <polygon class="fil9" points="4101,-10839 4101,-10671 3981,-10671 3981,-9805 4031,-9805 4031,-9638 3814,-9638 3814,-10839 "/>
 <polygon class="fil0" points="4031,-6662 3960,-6662 3960,-7121 4031,-7121 "/>
 <path class="fil10" d="M4031 -7691l0 242c-53,-52 -94,-114 -122,-183l0 -401 -3 0c28,-72 71,-137 125,-191l0 249 -23 0 0 283 23 0z"/>
 <polygon class="fil0" points="4031,-7691 4008,-7691 4008,-7974 4031,-7974 "/>
 <path class="fil10" d="M3909 -8033l0 401c-26,-63 -40,-132 -40,-204 0,-70 13,-136 37,-197l3 0z"/>
 <path class="fil9" d="M3909 -7632l-230 0 0 -401 227 0c-24,61 -37,127 -37,197 0,72 14,141 40,204z"/>
</symbol>
<symbol id="Fm10-27-0" viewBox="2808 -21024 3378 1978">
 <polygon class="fil0" points="6186,-19703 6186,-19384 6042,-19331 6042,-19684 6042,-19730 "/>
 <path class="fil11" d="M5779 -20928l407 1225 -145 -53 0 26 -4 -1c-9,-51 -33,-100 -73,-139 -30,-30 -65,-51 -102,-63l-189 -861c-167,-50 -219,-230 -219,-230l324 96z"/>
 <polygon class="fil0" points="6186,-19703 6042,-19730 6042,-19756 "/>
 <path class="fil10" d="M5859 -19361l0 -272c0,-49 -19,-98 -56,-135 -37,-37 -86,-56 -135,-56l-585 0c-49,0 -98,19 -135,56 -37,37 -56,86 -56,135l0 81c0,98 37,195 112,270 75,74 172,112 270,112l394 0c49,0 98,-19 135,-56 37,-37 56,-86 56,-135zm183 29l0 22c0,67 -26,135 -77,186 -52,51 -119,77 -186,77l-543 0c-135,0 -269,-51 -372,-154 -103,-103 -154,-237 -154,-372l0 -109c14,11 21,19 21,19l0 -124c13,-30 32,-59 56,-84 51,-51 119,-77 186,-77l806 0c28,0 57,5 84,14l39 177 136 25c3,15 4,31 4,47l0 353z"/>
 <path class="fil10" d="M6037 -19731l-136 -25 -39 -177c37,12 72,34 102,63 39,39 64,88 73,139z"/>
 <path class="fil3" d="M5859 -19632l0 272c0,49 -19,98 -56,135 -37,37 -86,56 -135,56l-394 0c-98,0 -195,-37 -270,-112 -74,-75 -112,-172 -112,-270l0 -81c0,-49 19,-98 56,-135 37,-37 86,-56 135,-56l585 0c49,0 98,19 135,56 37,37 56,86 56,135z"/>
 <path class="fil0" d="M4731 -19786l0 124c0,0 -7,-8 -21,-19l0 -3c0,-35 7,-70 21,-102z"/>
 <path class="fil1" d="M4731 -19788l0 2c-14,33 -21,67 -21,102l0 3c-35,-29 -111,-80 -213,-80 -101,0 -177,50 -212,79l0 -2c0,-35 -7,-71 -22,-104 0,0 93,-99 234,-99 141,0 234,99 234,99z"/>
 <path class="fil10" d="M4101 -19552l0 -81c0,-49 -18,-98 -56,-135 -37,-37 -86,-56 -135,-56l-585 0c-49,0 -98,19 -135,56 -37,37 -56,86 -56,135l0 272c0,49 19,98 56,135 37,37 86,56 135,56l394 0c98,0 195,-37 270,-112 75,-75 112,-172 112,-270zm183 -131l0 110c0,135 -52,269 -154,372 -103,102 -237,154 -372,154l-543 0c-67,0 -135,-26 -186,-77 -51,-52 -77,-119 -77,-186l0 -22 0 -353c0,-16 1,-31 4,-47l136 -25 39 -177c27,-9 55,-14 84,-14l806 0c67,0 134,26 186,77 24,24 43,52 55,82l0 125c0,0 8,-8 22,-19z"/>
 <path class="fil0" d="M4284 -19684l0 2c-14,12 -22,19 -22,19l0 -125c14,33 22,68 22,104z"/>
 <path class="fil3" d="M4101 -19632l0 81c0,98 -37,195 -112,270 -74,74 -172,112 -270,112l-394 0c-49,0 -98,-19 -135,-56 -37,-37 -56,-86 -56,-135l0 -272c0,-49 19,-98 56,-135 37,-37 86,-56 135,-56l585 0c49,0 98,19 135,56 37,37 56,86 56,135z"/>
 <path class="fil11" d="M3215 -20928l324 -96c0,0 -53,180 -219,230l-189 861c-37,13 -72,34 -102,63 -39,39 -64,88 -73,139l-4 1 0 -26 -145 53 407 -1225z"/>
 <path class="fil10" d="M3132 -19933l-39 177 -136 25c9,-51 33,-100 73,-139 30,-30 65,-51 102,-63z"/>
 <polygon class="fil0" points="2953,-19684 2953,-19331 2808,-19384 2808,-19703 2953,-19730 "/>
 <polygon class="fil0" points="2953,-19756 2953,-19730 2808,-19703 "/>
</symbol>
<symbol id="Symbol2" viewBox="17933 -4754 315 3134">
 <path class="fil12" d="M18247 -4754c0,0 -315,38 -315,837l0 2134c0,123 276,269 276,54 0,-215 -23,-2034 -23,-2318 0,-284 15,-606 61,-706z"/>
</symbol>
<symbol id="Fm0-58-0" viewBox="3004 -10014 8193 8596">
 <path class="fil6 str1" d="M3057 -5716c0,-2344 1810,-4245 4044,-4245 2233,0 4044,1901 4044,4245 0,2344 -1810,4245 -4044,4245 -2233,0 -4044,-1900 -4044,-4245z"/>
</symbol>
<symbol id="Fm0-36-0" viewBox="18812 -21227 8177 8579">
 <path class="fil6 str1" d="M18865 -16937c0,-2340 1807,-4237 4036,-4237 2229,0 4036,1897 4036,4237 0,2340 -1807,4237 -4036,4237 -2229,0 -4036,-1897 -4036,-4237z"/>
</symbol>
<symbol id="Fm1-22-0" viewBox="8587 -23014 198 198">
 <path class="fil0" d="M8587 -22915c0,-55 44,-99 99,-99 55,0 99,44 99,99 0,55 -44,99 -99,99 -55,0 -99,-44 -99,-99z"/>
</symbol>
<symbol id="Fm0-20-0" viewBox="8810 -22915 519 519">
 <path class="fil0" d="M8810 -22656c0,-143 116,-260 260,-260 143,0 260,116 260,260 0,143 -116,260 -260,260 -143,0 -260,-116 -260,-260z"/>
</symbol>
<symbol id="Fm3-35-0" viewBox="4014 -17021 3009 4004">
 <polygon class="fil0" points="7023,-16628 7023,-13182 6761,-13182 6761,-14601 6761,-14905 6761,-15191 6761,-16628 "/>
 <path class="fil10" d="M6761 -13182l0 165 -2747 0 0 -1888 1097 0c53,150 175,303 448,303l1203 0 0 1420z"/>
 <path class="fil13" d="M6761 -14905l0 303 -1203 0c-273,0 -395,-153 -448,-303l1651 0z"/>
 <path class="fil13" d="M6761 -15191l0 286 -1651 0c-51,-144 -40,-286 -40,-286l1691 0z"/>
 <path class="fil9" d="M6761 -16628l0 1437 -1691 0c0,0 -12,141 40,286l-1097 0 0 -1888 386 0 0 991 296 -167 296 167 0 -991 1769 0 0 165z"/>
 <path class="fil11" d="M4801 -16272l104 -101 -144 -21 -65 -130 -64 130 -144 21 104 101 -24 144 129 -68 129 68 -25 -144zm192 -521l0 991 -296 -167 -296 167 0 -991 592 0z"/>
 <polygon class="fil11" points="4993,-16793 4400,-16793 4400,-17021 4993,-17021 "/>
 <polygon class="fil0" points="4905,-16374 4801,-16272 4825,-16129 4696,-16197 4568,-16129 4592,-16272 4488,-16374 4632,-16395 4696,-16525 4761,-16395 "/>
</symbol>
<symbol id="Fm4-35-0" viewBox="3327 -16202 5030 4518">
 <path class="fil5" d="M3327 -16202l0 2878 2158 1640 1396 0c815,0 1475,-660 1475,-1475l0 -2194 -1117 -849 -3913 0z"/>
</symbol>
<symbol id="Fm2-54-0" viewBox="18673 -8901 5944 6235">
 <path class="fil6 str1" d="M18726 -5784c0,-1692 1307,-3064 2919,-3064 1612,0 2919,1372 2919,3064 0,1692 -1307,3064 -2919,3064 -1612,0 -2919,-1372 -2919,-3064z"/>
</symbol>
<symbol id="Fm12-31-0" viewBox="22161 -12737 1338 2111">
 <path class="fil0" d="M23499 -11932l0 701c0,155 -59,310 -178,429 -118,118 -273,177 -429,177l-125 0c-155,0 -310,-59 -429,-177 -118,-119 -177,-273 -177,-429l0 -701 669 0 669 0z"/>
 <path class="fil1" d="M23499 -12373l0 441 -669 0 0 -127 83 0 0 -331 -83 0 0 -346 305 0c93,0 186,35 257,107 71,71 107,164 107,257z"/>
 <polygon class="fil9" points="22913,-12059 22830,-12059 22830,-12390 22913,-12390 "/>
 <path class="fil1" d="M22830 -12059l0 127 -669 0 0 -441c0,-93 36,-186 107,-257 71,-71 164,-107 257,-107l305 0 0 346 -83 0 0 331 83 0z"/>
 <polygon class="fil9" points="22830,-12059 22747,-12059 22747,-12390 22830,-12390 "/>
</symbol>
<symbol id="Fm8-73-0" viewBox="19212 -20595 1332 2516">
 <path class="fil0" d="M20319 -19901c0,-244 -197,-441 -441,-441 -243,0 -441,197 -441,441 0,244 197,441 441,441 244,0 441,-197 441,-441zm-441 -693c391,0 666,190 666,698 0,507 -666,1818 -666,1818 0,0 -666,-1311 -666,-1818 0,-507 275,-698 666,-698z"/>
 <path class="fil2" d="M20066 -19901c0,-104 -84,-188 -188,-188 -104,0 -187,84 -187,188 0,104 84,188 187,188 104,0 188,-84 188,-188zm-188 -441c244,0 441,197 441,441 0,244 -197,441 -441,441 -243,0 -441,-197 -441,-441 0,-244 197,-441 441,-441z"/>
</symbol>
<symbol id="Fm10-43-0" viewBox="2615 -9766 2330 1497">
 <path class="fil0" d="M3227 -8696l-391 0 0 217 391 0 0 -217zm0 217zm1718 -641l0 639c0,116 -95,212 -212,212l-1906 0c-116,0 -212,-95 -212,-212l0 -639 2330 0z"/>
 <polygon class="fil2" points="4945,-9120 2615,-9120 2615,-9437 4945,-9437 "/>
 <path class="fil0" d="M4945 -9554l0 116 -2330 0 0 -116c0,-117 95,-212 212,-212l1906 0c116,0 212,95 212,212z"/>
 <polygon class="fil7" points="3227,-8479 2836,-8479 2836,-8696 3227,-8696 "/>
</symbol>
<symbol id="Fm2-40-0" viewBox="20265 -19702 5272 5529">
 <path class="fil6 str1" d="M20318 -16937c0,-1498 1156,-2712 2583,-2712 1426,0 2583,1214 2583,2712 0,1498 -1156,2712 -2583,2712 -1426,0 -2583,-1214 -2583,-2712z"/>
</symbol>
<symbol id="Fm1-38-0" viewBox="19472 -20506 6858 7120">
 <path class="fil6 str0" d="M19542 -16937c0,-1947 1504,-3526 3359,-3526 1855,0 3359,1579 3359,3526 0,1947 -1504,3526 -3359,3526 -1855,0 -3359,-1579 -3359,-3526z"/>
</symbol>
<symbol id="Symbol1" viewBox="15936 -25249 3645 5447">
 <polygon class="fil14" points="19581,-19801 15936,-19801 15936,-25249 19581,-25249 "/>
</symbol>
<symbol id="Fm1-25-0" viewBox="14112 -9477 4556 436">
 <polygon class="fil13" points="18060,-9477 18212,-9477 18212,-9041 18060,-9041 "/>
 <polygon class="fil15" points="15948,-9477 18060,-9477 18060,-9041 15948,-9041 "/>
 <polygon class="fil13" points="15672,-9477 15948,-9477 15948,-9041 15672,-9041 "/>
 <polygon class="fil15" points="14717,-9477 15672,-9477 15672,-9041 14717,-9041 "/>
 <polygon class="fil13" points="14457,-9477 14717,-9477 14717,-9041 14457,-9041 14457,-9117 14457,-9402 "/>
 <polygon class="fil16" points="18212,-9477 18668,-9259 18212,-9041 "/>
 <polygon class="fil16" points="14112,-9402 14457,-9402 14457,-9117 14112,-9117 "/>
</symbol>
<symbol id="Fm10-24-0" viewBox="20950 -10144 3429 3250">
 <polygon class="fil3" points="24379,-8573 24379,-7907 24307,-7907 24152,-7907 24152,-8573 "/>
 <polygon class="fil17" points="24152,-7907 24152,-7780 23687,-7780 23687,-8700 23771,-8700 24073,-8700 24152,-8700 24152,-8573 "/>
 <path class="fil2" d="M24074 -8739c0,12 -1,25 -1,38l-301 0c0,-13 2,-26 2,-38 0,-611 -495,-1105 -1105,-1105 -611,0 -1105,495 -1105,1105 0,12 1,25 2,38l-301 0c0,-13 -1,-26 -1,-38 0,-777 629,-1406 1405,-1406 776,0 1406,629 1406,1406z"/>
 <polygon class="fil8" points="23716,-7033 23716,-6895 23111,-6895 23111,-7171 23716,-7171 "/>
 <polygon class="fil17" points="21643,-8700 21643,-7780 21177,-7780 21177,-7907 21177,-8573 21177,-8700 21263,-8700 21565,-8700 "/>
 <polygon class="fil3" points="21177,-7907 20950,-7907 20950,-8573 21177,-8573 "/>
</symbol>
<symbol id="Fm8-43-0" viewBox="30679 -16641 2989 2845">
 <path class="fil5" d="M33629 -14860c-8,-7 -17,-14 -26,-20 -8,-7 -17,-14 -26,-20 -8,-7 -17,-14 -26,-20 -8,-7 -17,-14 -26,-20 -8,-7 -17,-14 -26,-20 -8,-7 -17,-14 -26,-20 -8,-7 -17,-14 -26,-20 -8,-7 -17,-14 -26,-20 -8,-7 -17,-14 -26,-20 -8,-7 -17,-14 -26,-20 -8,-7 -17,-14 -26,-20 -8,-7 -17,-14 -26,-20 -8,-7 -17,-14 -26,-20 -8,-7 -17,-14 -26,-20 -8,-7 -17,-14 -26,-20 -8,-7 -17,-14 -26,-20 -8,-7 -17,-14 -26,-20 -8,-7 -17,-14 -26,-20 -8,-7 -17,-14 -26,-20 -8,-7 -17,-14 -26,-20 -8,-7 -17,-14 -26,-20 -8,-7 -17,-14 -26,-20 -8,-7 -17,-14 -26,-20 -8,-7 -17,-14 -26,-20 -8,-7 -17,-14 -26,-20 -8,-7 -17,-14 -26,-20 -8,-7 -17,-14 -26,-20 -8,-7 -17,-14 -26,-20 -8,-7 -17,-14 -26,-20 -8,-7 -17,-14 -26,-20 -8,-7 -17,-14 -26,-20 -8,-7 -17,-14 -26,-20 -8,-7 -17,-14 -26,-20 -8,-7 -17,-14 -26,-20 -8,-7 -17,-14 -26,-20 -8,-7 -17,-14 -26,-20 -8,-7 -17,-14 -26,-20 -8,-7 -17,-14 -26,-20 -8,-7 -17,-14 -26,-20 -8,-7 -17,-14 -26,-20 -8,-7 -17,-14 -26,-20 -8,-7 -17,-14 -26,-20 -8,-7 -17,-14 -26,-20 -8,-7 -17,-14 -26,-20 -8,-7 -17,-14 -26,-20 -8,-7 -17,-14 -26,-20 -8,-7 -17,-14 -26,-20 -8,-7 -17,-14 -26,-20 -8,-7 -17,-14 -26,-20 -8,-7 -17,-14 -26,-20 -8,-7 -17,-14 -26,-20 -8,-7 -17,-14 -26,-20 -8,-7 -17,-14 -26,-20 -8,-7 -17,-14 -26,-20 -8,-7 -17,-14 -26,-20 -8,-7 -17,-14 -26,-20 -8,-7 -17,-14 -26,-20 -8,-7 -17,-14 -26,-20 -8,-7 -17,-14 -26,-20 -8,-7 -17,-14 -26,-20 -8,-7 -17,-14 -26,-20 -8,-7 -17,-14 -26,-20 -8,-7 -17,-14 -26,-20 -8,-7 -17,-14 -26,-20 -8,-7 -17,-14 -26,-20 -8,-7 -17,-14 -26,-20 -8,-7 -17,-14 -26,-20 -8,-7 -17,-14 -26,-20 -8,-7 -17,-14 -26,-20 -8,-7 -17,-14 -26,-20 -8,-7 -17,-14 -26,-20 -8,-7 -17,-14 -26,-20 -8,-7 -17,-14 -26,-20 -8,-7 -17,-14 -26,-20 -8,-7 -17,-14 -26,-20 -8,-7 -17,-14 -26,-20 -8,-7 -17,-14 -26,-20 -8,-7 -17,-14 -26,-20 -8,-7 -17,-14 -26,-20 -8,-7 -17,-14 -26,-20 -8,-7 -17,-14 -26,-20 -8,-7 -17,-14 -26,-20 -8,-7 -17,-14 -26,-20 -8,-7 -17,-14 -26,-20 -8,-7 -17,-14 -26,-20 -68,-57 -158,-89 -261,-89 -248,0 -463,203 -463,452 0,140 56,251 152,317 8,7 17,14 26,20 8,7 17,14 26,20 8,7 17,14 26,20 8,7 17,14 26,20 8,7 17,14 26,20 8,7 17,14 26,20 8,7 17,14 26,20 8,7 17,14 26,20 8,7 17,14 26,20 8,7 17,14 26,20 8,7 17,14 26,20 8,7 17,14 26,20 8,7 17,14 26,20 8,7 17,14 26,20 8,7 17,14 26,20 8,7 17,14 26,20 8,7 17,14 26,20 8,7 17,14 26,20 8,7 17,14 26,20 8,7 17,14 26,20 8,7 17,14 26,20 8,7 17,14 26,20 8,7 17,14 26,20 8,7 17,14 26,20 8,7 17,14 26,20 8,7 17,14 26,20 8,7 17,14 26,20 8,7 17,14 26,20 8,7 17,14 26,20 8,7 17,14 26,20 8,7 17,14 26,20 8,7 17,14 26,20 8,7 17,14 26,20 8,7 17,14 26,20 8,7 17,14 26,20 8,7 17,14 26,20 8,7 17,14 26,20 8,7 17,14 26,20 8,7 17,14 26,20 8,7 17,14 26,20 8,7 17,14 26,20 8,7 17,14 26,20 8,7 17,14 26,20 8,7 17,14 26,20 8,7 17,14 26,20 8,7 17,14 26,20 8,7 17,14 26,20 8,7 17,14 26,20 8,7 17,14 26,20 8,7 17,14 26,20 8,7 17,14 26,20 8,7 17,14 26,20 8,7 17,14 26,20 8,7 17,14 26,20 8,7 17,14 26,20 8,7 17,14 26,20 8,7 17,14 26,20 8,7 17,14 26,20 8,7 17,14 26,20 8,7 17,14 26,20 8,7 17,14 26,20 8,7 17,14 26,20 8,7 17,14 26,20 8,7 17,14 26,20 8,7 17,14 26,20 8,7 17,14 26,20 8,7 17,14 26,20 8,7 17,14 26,20 8,7 17,14 26,20 8,7 17,14 26,20 8,7 17,14 26,20 8,7 17,14 26,20 8,7 17,14 26,20 8,7 17,14 26,20 8,7 17,14 26,20 8,7 17,14 26,20 8,7 17,14 26,20 8,7 17,14 26,20 8,7 17,14 26,20 8,7 17,14 26,20 8,7 17,14 26,20 8,7 17,14 26,20 8,7 17,14 26,20 8,7 17,14 26,20 8,7 17,14 26,20 8,7 17,14 26,20 8,7 17,14 26,20 8,7 17,14 26,20 8,7 17,14 26,20 8,7 17,14 26,20 8,7 17,14 26,20 8,7 17,14 26,20 8,7 17,14 26,20 8,7 17,14 26,20 8,7 17,14 26,20 8,7 17,14 26,20 8,7 17,14 26,20 8,7 17,14 26,20 8,7 17,14 26,20 8,7 17,14 26,20 57,48 131,78 218,85l0 -1034c-4,-3 -8,-7 -13,-10 -8,-7 -17,-14 -26,-20z"/>
</symbol>
<symbol id="Fm7-41-0" viewBox="29663 -15603 4006 3901">
 <path class="fil5" d="M33637 -13589c-8,-7 -17,-14 -26,-20 -8,-7 -17,-14 -26,-20 -8,-7 -17,-14 -26,-20 -8,-7 -17,-14 -26,-20 -8,-7 -17,-14 -26,-20 -8,-7 -17,-14 -26,-20 -8,-7 -17,-14 -26,-20 -9,-7 -17,-14 -27,-20 -8,-7 -17,-14 -26,-20 -8,-7 -17,-14 -26,-20 -8,-7 -17,-14 -26,-20 -8,-7 -17,-14 -26,-20 -8,-7 -17,-14 -26,-20 -8,-7 -17,-14 -26,-20 -8,-7 -17,-14 -26,-20 -8,-7 -17,-14 -26,-20 -8,-7 -17,-14 -26,-20 -8,-7 -17,-14 -26,-20 -8,-7 -17,-14 -26,-20 -8,-7 -17,-14 -26,-20 -8,-7 -17,-14 -26,-20 -8,-7 -17,-14 -26,-20 -8,-7 -17,-14 -26,-20 -8,-7 -17,-14 -26,-20 -8,-7 -17,-14 -26,-20 -8,-7 -17,-14 -26,-20 -8,-7 -17,-14 -26,-20 -8,-7 -17,-14 -26,-20 -8,-7 -17,-14 -26,-20 -9,-7 -17,-14 -26,-20 -8,-7 -17,-14 -26,-20 -8,-7 -17,-14 -26,-20 -8,-7 -17,-14 -26,-20 -8,-7 -17,-14 -26,-20 -8,-7 -17,-14 -26,-20 -8,-7 -17,-14 -26,-20 -8,-7 -17,-14 -26,-20 -9,-7 -17,-14 -27,-20 -8,-7 -17,-14 -26,-20 -8,-7 -17,-14 -26,-20 -8,-7 -17,-14 -26,-20 -8,-7 -17,-14 -26,-20 -8,-7 -17,-14 -26,-20 -8,-7 -17,-14 -26,-20 -8,-7 -17,-14 -26,-20 -8,-7 -17,-14 -26,-20 -8,-7 -17,-14 -26,-20 -8,-7 -17,-14 -26,-20 -8,-7 -17,-14 -26,-20 -8,-7 -17,-14 -26,-20 -8,-7 -17,-14 -26,-20 -8,-7 -17,-14 -26,-20 -9,-7 -17,-14 -26,-20 -8,-7 -17,-14 -26,-20 -8,-7 -17,-14 -26,-20 -8,-7 -17,-14 -26,-20 -8,-7 -17,-14 -26,-20 -9,-7 -17,-14 -26,-20 -8,-7 -17,-14 -26,-20 -8,-7 -17,-14 -26,-20 -8,-7 -17,-14 -26,-20 -8,-7 -17,-14 -26,-20 -8,-7 -17,-14 -26,-20 -9,-7 -17,-14 -26,-20 -8,-7 -17,-14 -26,-20 -8,-7 -17,-14 -26,-20 -8,-7 -17,-14 -26,-20 -8,-7 -17,-14 -26,-20 -9,-7 -17,-14 -27,-20 -8,-7 -17,-14 -26,-20 -8,-7 -17,-14 -26,-20 -8,-7 -17,-14 -26,-20 -8,-7 -17,-14 -26,-20 -8,-7 -17,-14 -26,-20 -9,-7 -17,-14 -26,-20 -8,-7 -17,-14 -26,-20 -8,-7 -17,-14 -26,-20 -8,-7 -17,-14 -26,-20 -8,-7 -17,-14 -26,-20 -9,-7 -17,-14 -26,-20 -8,-7 -17,-14 -26,-20 -8,-7 -17,-14 -26,-20 -8,-7 -17,-14 -26,-20 -8,-7 -17,-14 -26,-20 -8,-7 -17,-14 -26,-20 -8,-7 -17,-14 -26,-20 -8,-7 -17,-14 -26,-20 -8,-7 -17,-14 -26,-20 -8,-7 -17,-14 -26,-20 -8,-7 -17,-14 -26,-20 -8,-7 -17,-14 -26,-20 -8,-7 -17,-14 -26,-20 -8,-7 -17,-14 -26,-20 -8,-7 -17,-14 -26,-20 -8,-7 -17,-14 -26,-20 -8,-7 -17,-14 -26,-20 -8,-7 -17,-14 -26,-20 -71,-60 -169,-83 -264,-83 -327,0 -621,164 -847,378 -73,73 -322,310 -322,412 0,26 20,55 46,67 7,8 16,15 26,20 7,8 16,15 26,20 7,8 16,15 26,20 7,8 16,15 26,20 7,8 16,15 26,20 7,8 16,15 26,20 7,8 16,15 26,20 7,8 16,15 26,20 7,8 16,15 26,20 7,8 16,15 26,20 7,8 16,15 26,20 7,8 16,15 26,20 7,8 16,15 26,20 7,8 16,15 26,20 7,8 16,15 26,20 5,5 10,10 16,14l-139 349c-40,96 -232,559 -232,830 0,121 45,204 120,254 8,7 17,14 26,20 8,7 17,14 26,20 8,7 17,14 26,20 8,7 17,14 26,20 8,7 17,14 26,20 8,7 17,14 26,20 8,7 17,14 26,20 8,7 17,14 26,20 8,7 17,14 26,20 8,7 17,14 26,20 8,7 17,14 26,20 8,7 17,14 26,20 8,7 17,14 26,20 8,7 17,14 26,20 8,7 17,14 26,20 8,7 17,14 26,20 8,7 17,14 26,20 8,7 17,14 26,20 8,7 17,14 26,20 8,7 17,14 26,20 8,7 17,14 26,20 8,7 17,14 26,20 8,7 17,14 26,20 8,7 17,14 26,20 8,7 17,14 26,20 8,7 17,14 26,20 8,7 17,14 26,20 8,7 17,14 26,20 8,7 17,14 26,20 8,7 17,14 26,20 8,7 17,14 26,20 8,7 17,14 26,20 8,7 17,14 26,20 8,7 17,14 26,20 8,7 17,14 26,20 8,7 17,14 26,20 8,7 17,14 26,20 8,7 17,14 26,20 8,7 17,14 26,20 8,7 17,14 26,20 8,7 17,14 26,20 8,7 17,14 26,20 8,7 17,14 26,20 8,7 17,14 26,20 8,7 17,14 26,20 8,7 17,14 26,20 8,7 17,14 26,20 8,7 17,14 26,20 8,7 17,14 26,20 8,7 17,14 26,20 8,7 17,14 26,20 8,7 17,14 26,20 8,7 17,14 26,20 8,7 17,14 26,20 8,7 17,14 26,20 8,7 17,14 26,20 8,7 17,14 26,20 8,7 17,14 26,20 8,7 17,14 26,20 8,7 17,14 26,20 8,7 17,14 26,20 8,7 17,14 26,20 8,7 17,14 26,20 8,7 17,14 26,20 8,7 17,14 26,20 2,2 4,3 7,5l616 0c815,0 1475,-660 1475,-1475l0 -387c-2,-1 -4,-3 -6,-4 -8,-7 -17,-14 -26,-20z"/>
</symbol>
<symbol id="Fm1-60-0" viewBox="3665 -9291 6871 7138">
 <path class="fil6 str0" d="M3736 -5716c0,-1951 1507,-3533 3365,-3533 1858,0 3365,1582 3365,3533 0,1951 -1507,3533 -3365,3533 -1858,0 -3365,-1582 -3365,-3533z"/>
</symbol>
<symbol id="Fm1-52-0" viewBox="17778 -9839 7732 8110">
 <path class="fil6 str0" d="M17849 -5784c0,-2201 1699,-3985 3796,-3985 2096,0 3796,1784 3796,3985 0,2201 -1699,3985 -3796,3985 -2096,0 -3796,-1784 -3796,-3985z"/>
</symbol>
<symbol id="Fm2-26-0" viewBox="18550 -5856 322 3345">
 <polygon class="fil2" points="18873,-2885 18550,-2885 18550,-5191 18873,-5191 "/>
 <polygon class="fil18" points="18873,-5279 18873,-5191 18550,-5191 18550,-5536 18606,-5536 18818,-5536 18873,-5536 "/>
 <polygon class="fil15" points="18873,-2885 18712,-2511 18550,-2885 "/>
 <polygon class="fil15" points="18818,-5536 18606,-5536 18606,-5856 18818,-5856 "/>
</symbol>
<symbol id="Fm8-45-0" viewBox="21397 -9025 2623 3616">
 <path class="fil19" d="M21985 -7889c0,-64 -52,-116 -117,-116 -64,0 -116,52 -116,116 0,65 52,117 116,117 65,0 117,-52 117,-117zm436 0c0,-64 -52,-116 -116,-116 -64,0 -116,52 -116,116 0,65 52,117 116,117 64,0 116,-52 116,-117zm1213 2111l0 -723 0 -361 0 -362 0 -361 -466 0 -465 0 -466 0 -466 0 0 361 0 362 0 361 0 362 0 361 932 0 465 0 466 0zm12 -2916l-1876 0 0 515 1876 0 0 -515zm0 515zm0 162l-944 0 0 250 944 0 0 -250zm0 250zm374 2358l-2623 0 0 -3616 2623 0 0 3616zm0 -3616l0 3616"/>
 <polygon class="fil3" points="23647,-7767 22703,-7767 22703,-8017 23647,-8017 "/>
 <polygon class="fil15" points="23647,-8179 21771,-8179 21771,-8694 23647,-8694 "/>
 <polygon class="fil2" points="23634,-6501 23634,-5777 23168,-5777 23168,-6139 23168,-6501 "/>
 <polygon class="fil20" points="23634,-6501 23168,-6501 23168,-6862 23634,-6862 "/>
 <polygon class="fil20" points="23634,-6862 23168,-6862 23168,-7224 23634,-7224 "/>
 <polygon class="fil20" points="23634,-7224 23168,-7224 23168,-7585 23634,-7585 "/>
 <polygon class="fil15" points="23168,-5777 22703,-5777 22703,-6139 23168,-6139 "/>
 <polygon class="fil15" points="23168,-6139 22703,-6139 22703,-6501 23168,-6501 "/>
 <polygon class="fil15" points="23168,-6501 22703,-6501 22703,-6862 23168,-6862 "/>
 <polygon class="fil15" points="23168,-6862 22703,-6862 22703,-7224 23168,-7224 "/>
 <polygon class="fil15" points="23168,-7224 22703,-7224 22703,-7585 23168,-7585 "/>
 <polygon class="fil3" points="22703,-6139 22703,-5777 21771,-5777 21771,-6139 22237,-6139 "/>
 <polygon class="fil15" points="22703,-6139 22237,-6139 22237,-6501 22703,-6501 "/>
 <polygon class="fil15" points="22703,-6501 22237,-6501 22237,-6862 22703,-6862 "/>
 <polygon class="fil15" points="22703,-6862 22237,-6862 22237,-7224 22703,-7224 "/>
 <polygon class="fil15" points="22703,-7224 22237,-7224 22237,-7585 22703,-7585 "/>
 <path class="fil2" d="M22305 -8005c64,0 116,52 116,116 0,65 -52,117 -116,117 -64,0 -116,-52 -116,-117 0,-64 52,-116 116,-116z"/>
 <polygon class="fil15" points="22237,-6139 21771,-6139 21771,-6501 22237,-6501 "/>
 <polygon class="fil15" points="22237,-6501 21771,-6501 21771,-6862 22237,-6862 "/>
 <polygon class="fil15" points="22237,-6862 21771,-6862 21771,-7224 22237,-7224 "/>
 <polygon class="fil15" points="22237,-7224 21771,-7224 21771,-7585 22237,-7585 "/>
 <path class="fil3" d="M21868 -8005c65,0 117,52 117,116 0,65 -52,117 -117,117 -64,0 -116,-52 -116,-117 0,-64 52,-116 116,-116z"/>
</symbol>
<symbol id="Fm3-28-0" viewBox="15292 -6147 2465 3927">
 <polygon class="fil19" points="17757,-5547 17757,-2219 15292,-2219 15292,-5547 15931,-5547 15931,-5162 15577,-5162 15577,-2604 17472,-2604 17472,-5162 17118,-5162 17118,-5547 "/>
 <path class="fil3" d="M16071 -4778l-280 0 0 280 280 0 0 -280zm0 280zm0 222l-280 0 0 280 280 0 0 -280zm0 281zm0 222l-280 0 0 280 280 0 0 -280zm0 280zm0 222l-280 0 0 280 280 0 0 -280zm0 280zm1401 -2173l0 2557 -1895 0 0 -2557 354 0 0 62 593 0 594 0 0 -62 354 0z"/>
 <polygon class="fil15" points="17118,-5162 17118,-5100 16524,-5100 15931,-5100 15931,-5162 "/>
 <polygon class="fil15" points="17118,-5162 15931,-5162 15931,-5547 17118,-5547 "/>
 <path class="fil15" d="M16597 -5930c0,-41 -33,-74 -74,-74 -40,0 -73,33 -73,74 0,40 33,74 73,74 41,0 74,-33 74,-74zm520 220l0 164 -1187 0 0 -164 339 0c0,0 -34,-436 254,-436 289,0 255,436 255,436l339 0z"/>
 <path class="fil18" d="M16524 -6004c41,0 74,33 74,74 0,40 -33,74 -74,74 -40,0 -73,-33 -73,-74 0,-41 33,-74 73,-74z"/>
 <polygon class="fil0" points="16071,-2989 15791,-2989 15791,-3270 16071,-3270 "/>
 <polygon class="fil0" points="16071,-3492 15791,-3492 15791,-3772 16071,-3772 "/>
 <polygon class="fil0" points="16071,-3995 15791,-3995 15791,-4275 16071,-4275 "/>
 <polygon class="fil2" points="16071,-4498 15791,-4498 15791,-4778 16071,-4778 "/>
</symbol>
<symbol id="Fm6-39-0" viewBox="21024 -16278 4375 4594">
 <path class="fil5" d="M21658 -16278l0 0 -633 0 0 2825 2327 1769 573 0c815,0 1475,-660 1475,-1475l0 -1941 -1550 -1178 -2192 0z"/>
</symbol>
<symbol id="Fm11-27-0" viewBox="28962 -8462 4724 4830">
 <path class="fil5" d="M33593 -6099c-16,-13 -33,-26 -51,-39 -17,-13 -34,-27 -52,-40 -16,-13 -34,-26 -51,-39 -17,-14 -34,-27 -53,-40 -17,-13 -34,-27 -52,-39 -16,-13 -34,-26 -51,-39 -16,-13 -2674,-2126 -2674,-2126 0,0 -614,756 -1646,1004 34,8 2225,1668 2248,1674 -4,7 -8,13 -12,20 -2,0 -4,1 -5,1 1,0 3,1 4,1 -219,371 -569,700 -826,807 34,-1 1023,740 1783,1323l57 0c815,0 1475,-661 1475,-1475l0 -921c-13,-10 -27,-21 -41,-31 -17,-14 -34,-27 -52,-40z"/>
</symbol>
<symbol id="Fm6-69-0" viewBox="3603 -19367 2367 1521">
 <path class="fil21" d="M4225 -18280l-398 0 0 221 398 0 0 -221zm0 221zm1745 -651l0 649c0,118 -97,215 -215,215l-1937 0c-118,0 -215,-97 -215,-215l0 -649 2367 0z"/>
 <polygon class="fil0" points="5970,-18711 3603,-18711 3603,-19034 5970,-19034 "/>
 <path class="fil21" d="M5970 -19152l0 118 -2367 0 0 -118c0,-118 97,-215 215,-215l1937 0c118,0 215,97 215,215z"/>
 <polygon class="fil7" points="4225,-18060 3828,-18060 3828,-18280 4225,-18280 "/>
</symbol>
<symbol id="Fm4-37-0" viewBox="8060 -16448 439 2859">
 <polygon class="fil10" points="8499,-15847 8498,-15847 8498,-16089 8499,-16089 "/>
 <polygon class="fil22" points="8499,-16448 8499,-16089 8498,-16089 8060,-16089 8060,-16448 "/>
 <polygon class="fil23" points="8499,-13945 8404,-13790 8155,-13790 8060,-13945 8498,-13945 "/>
 <polygon class="fil1" points="8498,-13945 8060,-13945 8060,-15847 8498,-15847 "/>
 <polygon class="fil23" points="8498,-15847 8060,-15847 8060,-16089 8498,-16089 "/>
 <polygon class="fil22" points="8404,-13790 8279,-13589 8155,-13790 "/>
</symbol>
<symbol id="Fm12-29-0" viewBox="20704 -8459 4714 4815">
 <path class="fil5" d="M23988 -7455c-238,-57 -454,-142 -645,-238 -10,-11 -11,-6 -11,-6 -6,-3 -13,-6 -19,-10 -474,-234 -969,-751 -969,-751l181 656c-2609,203 -1930,1688 -929,2431 17,13 34,26 52,39 17,14 35,27 53,40 17,13 34,26 51,39 17,14 35,27 53,40 17,13 34,26 51,39 17,13 35,27 52,40 17,13 34,26 52,39 17,13 34,26 52,39 17,13 35,27 52,40 17,13 34,26 51,39 17,14 35,27 53,40 17,13 34,26 51,39 18,14 35,27 53,40 17,13 34,26 52,39 17,13 34,26 51,39 17,13 35,27 52,40 17,13 35,27 52,40 17,14 35,27 52,40 17,13 34,26 51,39 17,13 34,27 52,39 17,13 34,26 51,39 18,14 35,27 53,40 17,13 35,26 52,39 17,13 34,26 51,39 17,13 34,26 51,39 17,13 35,27 52,40 17,14 35,27 53,40 17,13 34,26 51,39 17,13 35,27 53,40 17,13 34,26 51,39 17,13 35,27 52,39 17,14 35,27 53,40 17,13 34,26 51,39 17,13 35,27 52,39 17,13 34,26 51,39 17,14 35,27 53,40 17,13 35,27 52,40 17,13 34,26 51,39 17,14 35,27 52,40 17,13 34,26 51,39 17,14 35,27 53,40 17,13 34,26 51,39 17,13 35,27 52,40 15,11 29,22 44,33l73 0c815,0 1475,-660 1475,-1475l0 -1237c-699,-531 -1438,-1097 -1429,-1099z"/>
</symbol>
<symbol id="Fm4-65-0" viewBox="4787 -17006 3548 3548">
 <path class="fil24" d="M7072 -16231c-34,-147 -140,-301 -511,-301 -331,0 -452,123 -498,254 -19,55 -26,112 -29,162 -5,78 -6,223 -5,362l-1 0c0,0 -169,-134 -176,0 -6,134 29,419 187,419 14,98 59,287 202,406l0 108 -802 270 0 695c-398,-325 -652,-820 -652,-1374 0,-980 794,-1774 1774,-1774 980,0 1774,794 1774,1774 0,554 -254,1049 -652,1374l0 -695 -802 -270 0 -108c143,-119 187,-308 202,-406 158,0 194,-285 187,-419 -6,-134 -175,0 -175,0l-1 0c1,-139 1,-284 -5,-362 -3,-35 -6,-75 -16,-115z"/>
 <path class="fil2" d="M7683 -14552l0 695 0 1c-306,250 -696,400 -1122,400 -426,0 -816,-150 -1122,-400l0 -1 0 -695 802 -270 0 444 320 138 320 -138 0 -444 802 270z"/>
 <path class="fil0" d="M7270 -15754c7,134 -29,419 -187,419 5,-39 6,-64 6,-64 0,0 4,-173 5,-355l1 0c0,0 169,-134 175,0z"/>
 <path class="fil0" d="M7088 -16116c5,78 6,223 5,362 -1,182 -5,355 -5,355 0,0 -1,25 -6,64 -15,98 -59,287 -202,406 -33,27 -71,51 -115,69l-204 -69 -205 69c-44,-17 -82,-41 -115,-69 -143,-119 -187,-308 -202,-406 -5,-39 -6,-64 -6,-64 0,0 -4,-173 -5,-355 -1,-139 -1,-284 5,-362 3,-50 10,-107 29,-162 0,0 182,259 484,343l-53 -146c14,5 260,101 579,-149 10,40 13,79 16,115z"/>
 <path class="fil25" d="M6493 -16082l53 146c-302,-84 -484,-343 -484,-343 46,-131 167,-254 498,-254 371,0 477,154 511,301 -319,250 -565,154 -579,149z"/>
 <path class="fil0" d="M6881 -14822l0 444 -320 138 -320 -138 0 -444 115 -39c57,25 125,39 205,39 79,0 147,-14 204,-39l115 39z"/>
 <path class="fil0" d="M6561 -14929l204 69c-57,25 -125,39 -204,39 -79,0 -147,-14 -205,-39l205 -69z"/>
 <path class="fil0" d="M6034 -15399c0,0 1,25 6,64 -158,0 -194,-285 -187,-419 7,-134 176,0 176,0l1 0c1,182 5,355 5,355z"/>
</symbol>
<symbol id="Fm5-39-0" viewBox="23663 -17439 1612 2569">
 <path class="fil19" d="M25275 -16527c0,199 -106,412 -257,676 -127,222 -110,414 -110,414l-189 0 147 -939 -105 0 -79 165 -60 -165 -73 163 -80 -163 -80 163 -74 -163 -60 165 -79 -165 -105 0 147 939 -189 0c0,0 17,-192 -110,-414 -151,-265 -257,-477 -257,-676 0,-199 24,-913 806,-913 782,0 806,713 806,913z"/>
 <polygon class="fil0" points="23986,-15297 23986,-15436 24031,-15436 24219,-15436 24720,-15436 24909,-15436 24953,-15436 24953,-15020 24869,-15020 24069,-15020 23986,-15020 23986,-15163 "/>
 <polygon class="fil15" points="24869,-14870 24069,-14870 24069,-15020 24869,-15020 "/>
 <polygon class="fil19" points="24867,-16375 24720,-15436 24219,-15436 24072,-16375 24177,-16375 24256,-16210 24316,-16375 24390,-16212 24470,-16375 24550,-16212 24623,-16375 24683,-16210 24762,-16375 "/>
</symbol>
<symbol id="Fm4-30-0" viewBox="11276 -25495 9917 8259">
 <path class="fil0" d="M16467 -18921c0,-128 -104,-232 -232,-232 -128,0 -232,104 -232,232 0,128 104,232 232,232 128,0 232,-104 232,-232zm4727 -489l0 634c0,340 -278,619 -619,619l-3549 0 -1583 0 -3548 0c-340,0 -619,-278 -619,-619l0 -634 9913 0 4 0z"/>
 <path class="fil26" d="M20630 -24845l-8790 0 0 4915 8790 0 0 -4915zm0 4915zm564 -4946l0 5466 -4 0 -9913 0 0 -5466c0,-340 278,-619 619,-619l8680 0c340,0 619,278 619,619z"/>
 <polygon class="fil3" points="20630,-19930 11840,-19930 11840,-24845 20630,-24845 "/>
 <path class="fil0" d="M17923 -17236l-1688 0 -1689 0c681,-278 897,-922 897,-922l1583 0c0,0 217,643 897,922z"/>
 <path class="fil2" d="M16235 -19153c128,0 232,104 232,232 0,128 -104,232 -232,232 -128,0 -232,-104 -232,-232 0,-128 104,-232 232,-232z"/>
</symbol>
<symbol id="Fm6-41-0" viewBox="23951 -17240 693 693">
 <path class="fil27" d="M23951 -16893c0,-192 155,-347 347,-347 191,0 347,155 347,347 0,191 -155,347 -347,347 -192,0 -347,-155 -347,-347z"/>
</symbol>
<symbol id="Fm11-29-0" viewBox="11233 -22221 393 3488">
 <polygon class="fil15" points="11429,-18732 11233,-19153 11277,-19454 11581,-19454 11625,-19153 "/>
 <polygon class="fil28" points="11614,-22017 11614,-20773 11581,-20773 11277,-20773 11244,-20773 11244,-22017 11277,-22017 11581,-22017 "/>
 <polygon class="fil29" points="11581,-19454 11277,-19454 11277,-19666 11581,-19666 "/>
 <polygon class="fil28" points="11581,-19666 11277,-19666 11277,-20773 11581,-20773 "/>
 <polygon class="fil15" points="11581,-22221 11581,-22017 11277,-22017 11277,-22083 11277,-22221 "/>
</symbol>
<symbol id="Fm9-40-0" viewBox="23756 -16686 1715 1715">
 <polygon class="fil15" points="25471,-14971 25180,-15076 25059,-15239 25203,-15382 25366,-15261 "/>
 <polygon class="fil28" points="24011,-16606 24597,-16020 24581,-16004 24438,-15860 24422,-15845 23836,-16431 23852,-16447 23995,-16590 "/>
 <polygon class="fil29" points="25103,-15482 25203,-15382 25059,-15239 24959,-15339 "/>
 <polygon class="fil28" points="24581,-16004 25103,-15482 24959,-15339 24438,-15860 "/>
 <polygon class="fil15" points="23899,-16686 23995,-16590 23852,-16447 23820,-16478 23756,-16542 "/>
</symbol>
<symbol id="Fm8-38-0" viewBox="9267 -7298 1891 1891">
 <polygon class="fil19" points="11158,-7298 11158,-5956 10609,-5956 10609,-5407 9267,-5407 9267,-7298 "/>
 <polygon class="fil0" points="11158,-5956 10609,-5407 10609,-5956 "/>
</symbol>
<symbol id="Fm2-32-0" viewBox="3194 -19751 5365 5627">
 <path class="fil6 str1" d="M3247 -16937c0,-1525 1177,-2760 2629,-2760 1452,0 2629,1236 2629,2760 0,1525 -1177,2760 -2629,2760 -1452,0 -2629,-1236 -2629,-2760z"/>
</symbol>
<symbol id="Fm0-28-0" viewBox="1715 -21303 8322 8732">
 <path class="fil6 str1" d="M1768 -16937c0,-2382 1839,-4313 4108,-4313 2269,0 4108,1931 4108,4313 0,2382 -1839,4313 -4108,4313 -2269,0 -4108,-1931 -4108,-4313z"/>
</symbol>
<symbol id="Fm0-19-0" viewBox="148639 -117979 9758 9758">
 <path class="fil30" d="M157384 -116076c-1644,-2135 -4707,-2534 -6842,-890 -2135,1644 -2533,4707 -889,6842 1644,2135 4707,2533 6842,890 2135,-1644 2533,-4707 890,-6842z"/>
</symbol>
<symbol id="Fm9-47-0" viewBox="7398 -22353 3157 4066">
 <path class="fil19" d="M10116 -20823l-1521 0 0 1008 1521 0 0 -1008zm0 1008zm438 1528l-2358 0 0 -4066 2358 0 0 4066z"/>
 <polygon class="fil20" points="10116,-19815 8596,-19815 8596,-20823 10116,-20823 "/>
 <polygon class="fil2" points="8197,-22353 8197,-18287 7596,-18287 7596,-18791 7786,-18791 7786,-19038 7596,-19038 7596,-19352 7786,-19352 7786,-19600 7596,-19600 7596,-19914 7786,-19914 7786,-20162 7596,-20162 7596,-20476 7786,-20476 7786,-20724 7596,-20724 7596,-21038 7786,-21038 7786,-21286 7596,-21286 7596,-21600 7786,-21600 7786,-21848 7596,-21848 7596,-22353 "/>
 <polygon class="fil0" points="7786,-18791 7596,-18791 7596,-19038 7786,-19038 "/>
 <polygon class="fil0" points="7786,-19352 7596,-19352 7596,-19600 7786,-19600 "/>
 <polygon class="fil0" points="7786,-19914 7596,-19914 7596,-20162 7786,-20162 "/>
 <polygon class="fil0" points="7786,-20476 7596,-20476 7596,-20724 7786,-20724 "/>
 <polygon class="fil0" points="7786,-21038 7596,-21038 7596,-21286 7786,-21286 "/>
 <polygon class="fil0" points="7786,-21600 7596,-21600 7596,-21848 7786,-21848 "/>
 <polygon class="fil0" points="7596,-18791 7398,-18791 7398,-19038 7596,-19038 "/>
 <polygon class="fil0" points="7596,-19352 7398,-19352 7398,-19600 7596,-19600 "/>
 <polygon class="fil0" points="7596,-19914 7398,-19914 7398,-20162 7596,-20162 "/>
 <polygon class="fil0" points="7596,-20476 7398,-20476 7398,-20724 7596,-20724 "/>
 <polygon class="fil0" points="7596,-21038 7398,-21038 7398,-21286 7596,-21286 "/>
 <polygon class="fil0" points="7596,-21600 7398,-21600 7398,-21848 7596,-21848 "/>
</symbol>
<symbol id="Fm1-23-0" viewBox="11747 -24626 5159 4844">
 <path class="fil5" d="M14217 -24626l0 333 -391 -224 -2078 1197 496 338 0 6 0 1875 1737 1320 1451 0c815,0 1475,-660 1475,-1475l0 -1741 -2142 -1628 -547 0z"/>
</symbol>
<symbol id="Fm7-71-0" viewBox="21434 -16087 2392 2392">
 <path class="fil3" d="M21673 -14493l280 0c-22,-101 -35,-208 -40,-319l-317 0c9,113 35,219 76,319zm280 -797l-280 0c-41,99 -68,206 -76,319l317 0c5,-111 18,-219 40,-319zm230 1334c-78,-102 -142,-231 -189,-377l-238 0c103,162 251,293 427,377zm-188 -1493c46,-146 110,-275 188,-377 -175,83 -323,215 -427,377l239 0zm555 0l0 -468c-164,44 -305,220 -391,468l391 0zm0 479l0 -319 -436 0c-22,99 -37,206 -41,319l477 0zm0 478l0 -319 -477 0c5,113 19,219 41,319l436 0zm0 628l0 -468 -391 0c86,248 227,424 391,468zm549 -468l-391 0 0 468c165,-44 305,-220 391,-468zm-391 -1117l391 0c-86,-248 -226,-424 -391,-468l0 468zm477 638l-477 0 0 319 436 0c23,-100 37,-206 41,-319zm-477 -159l477 0c-5,-113 -18,-220 -41,-319l-436 0 0 319zm794 638l-238 0c-47,146 -112,274 -189,377 175,-83 323,-215 427,-377zm-238 -1117l238 0c-104,-162 -251,-293 -427,-377 78,102 142,231 189,377zm397 638l-317 0c-5,111 -18,218 -40,319l280 0c41,-100 68,-206 76,-319zm-317 -159l317 0c-8,-113 -35,-220 -76,-319l-280 0c22,100 35,208 40,319zm480 0l0 159 -3 0c-39,597 -516,1074 -1114,1113l0 3 -159 0 0 -3c-597,-39 -1074,-516 -1114,-1113l-2 0 0 -159 2 0c40,-597 517,-1074 1114,-1114l0 -2 159 0 0 2c597,40 1075,517 1114,1114l3 0z"/>
</symbol>
<symbol id="Fm12-47-0" viewBox="9348 -6885 2330 1497">
 <path class="fil0" d="M9960 -5815l-391 0 0 217 391 0 0 -217zm0 217zm1718 -641l0 639c0,116 -95,212 -212,212l-1906 0c-117,0 -212,-95 -212,-212l0 -639 2330 0z"/>
 <polygon class="fil2" points="11677,-6239 9348,-6239 9348,-6556 11677,-6556 "/>
 <path class="fil0" d="M11677 -6673l0 117 -2330 0 0 -117c0,-116 95,-212 212,-212l1906 0c116,0 212,95 212,212z"/>
 <polygon class="fil7" points="9960,-5598 9568,-5598 9568,-5815 9960,-5815 "/>
</symbol>
<symbol id="Fm0-23-0" viewBox="12772 -8633 6664 3510">
 <path class="fil13" d="M18998 -5754l0 -2248c0,-161 -132,-292 -292,-292l-4004 0 -731 0 -468 0c-161,0 -292,132 -292,292l0 2248c0,161 132,292 292,292l468 0 731 0 4004 0c161,0 292,-131 292,-292zm438 -2587l0 2926c0,161 -132,292 -292,292l-6079 0c-161,0 -292,-132 -292,-292l0 -2926c0,-161 132,-292 292,-292l6079 0c161,0 292,132 292,292z"/>
 <path class="fil16" d="M18998 -8002l0 2248c0,161 -132,292 -292,292l-4004 0 0 -1261 0 -312 0 -1261 4004 0c161,0 292,131 292,292z"/>
 <polygon class="fil15" points="14701,-5462 13971,-5462 13971,-6722 14701,-6722 "/>
 <polygon class="fil8" points="14701,-6722 13971,-6722 13971,-7034 14701,-7034 "/>
 <polygon class="fil15" points="14701,-7034 13971,-7034 13971,-8294 14701,-8294 "/>
 <path class="fil16" d="M13971 -6722l0 1261 -468 0c-161,0 -292,-131 -292,-292l0 -2248c0,-161 132,-292 292,-292l468 0 0 1261 0 312z"/>
</symbol>
<symbol id="Fm9-45-0" viewBox="3458 -8567 4905 4922">
 <path class="fil5" d="M6736 -8271c-39,0 -72,24 -84,58 -2,-1 -4,-3 -7,-4 -16,-14 -33,-27 -52,-39 -90,-80 -227,-131 -381,-131 -116,0 -223,29 -307,78 -9,-7 -179,-138 -212,-138l-315 0c-49,0 -89,38 -89,86l0 401 -863 -604 -94 0 0 237 -17 0 -259 -237 -95 0 -506 331 0 656 451 288 -176 2269 1818 1378 1337 0c127,0 249,-16 366,-46 0,0 97,-30 181,-59 493,-230 928,-749 928,-1370l0 -2146c-667,-509 -1326,-1005 -1342,-1005l-284 0z"/>
</symbol>
<symbol id="Fm0-50-0" viewBox="17031 -10625 9228 9682">
 <path class="fil6 str1" d="M17084 -5784c0,-2644 2042,-4788 4561,-4788 2519,0 4561,2144 4561,4788 0,2644 -2042,4788 -4561,4788 -2519,0 -4561,-2144 -4561,-4788z"/>
</symbol>
<symbol id="Fm5-67-0" viewBox="7615 -18434 1880 1510">
 <polygon class="fil2" points="9495,-18207 9321,-17511 8161,-17511 7987,-18207 "/>
 <path class="fil19" d="M9050 -17288c101,0 183,82 183,183 0,101 -82,182 -183,182 -101,0 -183,-82 -183,-182 0,-101 82,-183 183,-183z"/>
 <path class="fil19" d="M8131 -17288c101,0 182,82 182,183 0,101 -82,182 -182,182 -101,0 -183,-82 -183,-182 0,-74 44,-137 106,-166 23,-11 49,-17 76,-17z"/>
 <polygon class="fil0" points="7925,-18306 7615,-18306 7615,-18434 7925,-18434 "/>
</symbol>
<symbol id="Fm3-63-0" viewBox="3004 -10014 8193 8596">
 <path class="fil31 str2" d="M3057 -5716c0,-2344 1810,-4245 4044,-4245 2233,0 4044,1901 4044,4245 0,2344 -1810,4245 -4044,4245 -2233,0 -4044,-1900 -4044,-4245z"/>
 <path class="fil31 str3" d="M3736 -5716c0,-1951 1507,-3533 3365,-3533 1858,0 3365,1582 3365,3533 0,1951 -1507,3533 -3365,3533 -1858,0 -3365,-1582 -3365,-3533z"/>
 <path class="fil31 str2" d="M4513 -5716c0,-1500 1159,-2717 2588,-2717 1429,0 2588,1216 2588,2717 0,1500 -1159,2717 -2588,2717 -1429,0 -2588,-1216 -2588,-2717z"/>
</symbol>
<symbol id="Fm2-55-0" viewBox="17031 -10625 9228 9682">
 <path class="fil31 str2" d="M17084 -5784c0,-2644 2042,-4788 4561,-4788 2519,0 4561,2144 4561,4788 0,2644 -2042,4788 -4561,4788 -2519,0 -4561,-2144 -4561,-4788z"/>
 <path class="fil31 str3" d="M17849 -5784c0,-2201 1699,-3985 3796,-3985 2096,0 3796,1784 3796,3985 0,2201 -1699,3985 -3796,3985 -2096,0 -3796,-1784 -3796,-3985z"/>
 <path class="fil31 str2" d="M18726 -5784c0,-1692 1307,-3064 2919,-3064 1612,0 2919,1372 2919,3064 0,1692 -1307,3064 -2919,3064 -1612,0 -2919,-1372 -2919,-3064z"/>
</symbol>
<symbol id="Fm0-33-0" viewBox="1715 -21303 8322 8732">
 <path class="fil31 str2" d="M1768 -16937c0,-2382 1839,-4313 4108,-4313 2269,0 4108,1931 4108,4313 0,2382 -1839,4313 -4108,4313 -2269,0 -4108,-1931 -4108,-4313z"/>
 <path class="fil31 str3" d="M2457 -16937c0,-1982 1531,-3589 3419,-3589 1888,0 3419,1607 3419,3589 0,1982 -1531,3589 -3419,3589 -1888,0 -3419,-1607 -3419,-3589z"/>
 <path class="fil31 str2" d="M3247 -16937c0,-1525 1177,-2760 2629,-2760 1452,0 2629,1236 2629,2760 0,1525 -1177,2760 -2629,2760 -1452,0 -2629,-1236 -2629,-2760z"/>
</symbol>
<symbol id="Fm1-41-0" viewBox="18812 -21227 8177 8579">
 <path class="fil31 str2" d="M18865 -16937c0,-2340 1807,-4237 4036,-4237 2229,0 4036,1897 4036,4237 0,2340 -1807,4237 -4036,4237 -2229,0 -4036,-1897 -4036,-4237z"/>
 <path class="fil31 str3" d="M19542 -16937c0,-1947 1504,-3526 3359,-3526 1855,0 3359,1579 3359,3526 0,1947 -1504,3526 -3359,3526 -1855,0 -3359,-1579 -3359,-3526z"/>
 <path class="fil31 str2" d="M20318 -16937c0,-1498 1156,-2712 2583,-2712 1426,0 2583,1214 2583,2712 0,1498 -1156,2712 -2583,2712 -1426,0 -2583,-1214 -2583,-2712z"/>
</symbol>
 <g id="Layer_x0020_1">
  <metadata id="CorelCorpID_0Corel-Layer"/>
  <g id="_1035453056">
   <polygon class="fil32" points="24,485 21,468 23,95 124,95 332,95 335,426 275,486 27,486 "/>
   <polygon class="fil33" points="178,93 332,95 335,426 275,486 178,486 "/>
   <path class="fil34" d="M277 502l-250 0c-13,0 -23,-10 -23,-23l0 -379c0,-13 10,-23 23,-23l80 0c4,0 8,4 8,8 0,4 -4,8 -8,8l-80 0c-4,0 -7,3 -7,7l0 379c0,4 3,7 7,7l250 0c2,0 3,-1 5,-2l51 -51c1,-1 2,-3 2,-5l0 -328c0,-4 -3,-7 -7,-7l-80 0c-4,0 -8,-4 -8,-8 0,-4 4,-8 8,-8l80 0c13,0 23,10 23,23l0 328c0,6 -2,12 -7,16l-51 51c-4,4 -10,7 -16,7z"/>
   <path class="fil34" d="M283 500c-4,0 -8,-4 -8,-8l0 -42c0,-13 10,-23 23,-23l42 0c4,0 8,4 8,8 0,4 -4,8 -8,8l-22 14c-4,0 -15,12 -15,16l-12 18c0,4 -4,8 -8,8z"/>
   <path class="fil35" d="M270 492l-243 0c-3,0 -6,-1 -9,-4l0 0c-2,-2 -4,-5 -4,-9l0 -379c0,-3 1,-6 4,-9 2,-2 5,-4 9,-4l87 0c1,0 1,0 2,-1l0 0c0,0 1,-1 1,-2 0,-1 0,-1 -1,-2 0,0 -1,-1 -2,-1l-87 0c-5,0 -9,2 -12,5l0 0c-3,3 -5,7 -5,12l0 379c0,5 2,9 5,12 3,3 7,5 12,5l244 0c9,0 19,-3 26,-13l36 -36c12,-13 13,-16 13,-30l0 -318c0,-5 -2,-9 -5,-12l0 0c-3,-3 -7,-5 -12,-5l-87 0c-1,0 -1,0 -2,1 0,0 -1,1 -1,2 0,1 0,1 1,2 0,0 1,1 2,1l87 0c3,0 6,1 9,4l0 0c2,2 4,5 4,9l0 321c0,9 -8,10 -14,11l-28 0c-5,0 -9,2 -12,5l0 0c-3,3 -5,7 -5,12l0 28c1,9 -6,14 -11,14zm0 -11l0 -31c0,-8 3,-15 8,-20l0 0c5,-5 12,-8 20,-8l31 0 0 -321c0,0 0,-1 0,-1l0 0c0,0 0,0 -1,0l-87 0c-4,0 -7,-2 -10,-4 -2,-2 -4,-6 -4,-10 0,-4 2,-7 4,-10 2,-2 6,-4 10,-4l87 0c8,0 15,3 20,8l0 0c5,5 8,12 8,20l0 328c0,4 -1,7 -2,11l0 0c-1,3 -3,7 -6,9l0 0 -51 51 0 0c-3,3 -6,5 -9,6l0 0c-3,1 -7,2 -11,2l-250 0c-8,0 -15,-3 -20,-8 -5,-5 -8,-12 -8,-20l0 -379c0,-8 3,-15 8,-20l0 0c5,-5 12,-8 20,-8l87 0c4,0 7,2 10,4 2,2 4,6 4,10 0,4 -2,7 -4,10l0 0c-2,2 -6,4 -10,4l-87 0c0,0 -1,0 -1,0 0,0 0,0 0,1l0 379c0,0 0,1 0,1l0 0c0,0 0,0 1,0l243 0z"/>
   <path class="fil36" d="M235 155l-186 0c-4,0 -8,-4 -8,-8 0,-4 4,-8 8,-8l186 0c4,0 8,4 8,8 0,4 -4,8 -8,8z"/>
   <path class="fil35" d="M235 161l-186 0c-4,0 -7,-2 -10,-4 -2,-2 -4,-6 -4,-10 0,-4 2,-7 4,-10 2,-2 6,-4 10,-4l186 0c4,0 7,2 10,4 2,2 4,6 4,10 0,4 -2,7 -4,10 -2,2 -6,4 -10,4zm-186 -11l186 0c1,0 1,0 2,-1 0,0 1,-1 1,-2 0,-1 0,-1 -1,-2 0,0 -1,-1 -2,-1l-186 0c-1,0 -1,0 -2,1 0,0 -1,1 -1,2 0,1 0,1 1,2 0,0 1,1 2,1z"/>
   <path class="fil36" d="M235 196l-186 0c-4,0 -8,-4 -8,-8 0,-4 4,-8 8,-8l186 0c4,0 8,4 8,8 0,4 -4,8 -8,8z"/>
   <path class="fil35" d="M235 202l-186 0c-4,0 -7,-2 -10,-4 -2,-2 -4,-6 -4,-10 0,-4 2,-7 4,-10 2,-2 6,-4 10,-4l186 0c4,0 7,2 10,4 2,2 4,6 4,10 0,4 -2,7 -4,10 -2,2 -6,4 -10,4zm-186 -11l186 0c1,0 1,0 2,-1 0,0 1,-1 1,-2 0,-1 0,-1 -1,-2 0,0 -1,-1 -2,-1l-186 0c-1,0 -1,0 -2,1 0,0 -1,1 -1,2 0,1 0,1 1,2 0,0 1,1 2,1z"/>
   <path class="fil36" d="M307 237l-259 0c-4,0 -8,-4 -8,-8 0,-4 4,-8 8,-8l259 0c4,0 8,4 8,8 0,4 -4,8 -8,8z"/>
   <path class="fil35" d="M307 242l-259 0c-4,0 -7,-2 -10,-4 -2,-2 -4,-6 -4,-10 0,-4 2,-7 4,-10 2,-2 6,-4 10,-4l259 0c4,0 7,2 10,4l0 0c2,2 4,6 4,10 0,4 -2,7 -4,10l0 0c-2,2 -6,4 -10,4zm-259 -11l259 0c1,0 1,0 2,-1l0 0c0,0 1,-1 1,-2 0,-1 0,-1 -1,-2l0 0c0,0 -1,-1 -2,-1l-259 0c-1,0 -1,0 -2,1 0,0 -1,1 -1,2 0,1 0,1 1,2 0,0 1,1 2,1z"/>
   <path class="fil36" d="M307 278l-259 0c-4,0 -8,-4 -8,-8 0,-4 4,-8 8,-8l259 0c4,0 8,4 8,8 0,4 -4,8 -8,8z"/>
   <path class="fil35" d="M307 283l-259 0c-4,0 -7,-2 -10,-4 -2,-2 -4,-6 -4,-10 0,-4 2,-7 4,-10 2,-2 6,-4 10,-4l259 0c4,0 7,2 10,4l0 0 0 0c2,2 4,6 4,10 0,4 -2,7 -4,10l0 0c-2,2 -6,4 -10,4zm-259 -11l259 0c1,0 1,0 2,-1l0 0c0,0 1,-1 1,-2 0,-1 0,-1 -1,-2l0 0c0,0 -1,-1 -2,-1l-259 0c-1,0 -1,0 -2,1 0,0 -1,1 -1,2 0,1 0,1 1,2 0,0 1,1 2,1z"/>
   <path class="fil36" d="M307 319l-259 0c-4,0 -8,-4 -8,-8 0,-4 4,-8 8,-8l259 0c4,0 8,4 8,8 0,4 -4,8 -8,8z"/>
   <path class="fil35" d="M307 324l-259 0c-4,0 -7,-2 -10,-4 -2,-2 -4,-6 -4,-10 0,-4 2,-7 4,-10 2,-2 6,-4 10,-4l259 0c4,0 7,2 10,4l0 0c2,2 4,6 4,10 0,4 -2,7 -4,10l0 0c-2,2 -6,4 -10,4zm-259 -11l259 0c1,0 1,0 2,-1l0 0c0,0 1,-1 1,-2 0,-1 0,-1 -1,-2l0 0c0,0 -1,-1 -2,-1l-259 0c-1,0 -1,0 -2,1 0,0 -1,1 -1,2 0,1 0,1 1,2 0,0 1,1 2,1z"/>
   <path class="fil36" d="M307 360l-259 0c-4,0 -8,-4 -8,-8 0,-4 4,-8 8,-8l259 0c4,0 8,4 8,8 0,4 -4,8 -8,8z"/>
   <path class="fil35" d="M307 365l-259 0c-4,0 -7,-2 -10,-4 -2,-2 -4,-6 -4,-10 0,-4 2,-7 4,-10 2,-2 6,-4 10,-4l259 0c4,0 7,2 10,4l0 0c2,2 4,6 4,10 0,4 -2,7 -4,10l0 0c-2,2 -6,4 -10,4zm-259 -11l259 0c1,0 1,0 2,-1l0 0c0,0 1,-1 1,-2 0,-1 0,-1 -1,-2l0 0c0,0 -1,-1 -2,-1l-259 0c-1,0 -1,0 -2,1 0,0 -1,1 -1,2 0,1 0,1 1,2 0,0 1,1 2,1z"/>
   <polygon class="fil37" points="307,193 274,193 274,159 307,159 "/>
   <path class="fil35" d="M307 198l-34 0 -6 0 0 -6 0 -34 0 -6 6 0 34 0 6 0 0 6 0 34 0 6 -6 0zm-28 -11l23 0 0 -23 -23 0 0 23z"/>
   <path class="fil38" d="M282 185l18 0 0 -18 -18 0 0 18zm26 16l-34 0c-4,0 -8,-4 -8,-8l0 -34c0,-4 4,-8 8,-8l34 0c4,0 8,4 8,8l0 34c0,4 -4,8 -8,8z"/>
   <path class="fil35" d="M287 179l7 0 0 -7 -7 0 0 7zm12 11l-18 0 -6 0 0 -5 0 -18 0 -6 6 0 18 0 6 0 0 6 0 18 0 5 -6 0zm8 16l-34 0c-4,0 -7,-2 -10,-4 -2,-2 -4,-6 -4,-10l0 -34c0,-4 2,-7 4,-10 2,-2 6,-4 10,-4l34 0c4,0 7,2 10,4l0 0c2,2 4,6 4,10l0 34c0,4 -2,7 -4,10l0 0c-2,2 -6,4 -10,4zm-34 -11l34 0c1,0 1,0 2,-1l0 0c0,0 1,-1 1,-2l0 -34c0,-1 0,-1 -1,-2l0 0c0,0 -1,-1 -2,-1l-34 0c-1,0 -1,0 -2,1 0,0 -1,1 -1,2l0 34c0,1 0,1 1,2 0,0 1,1 2,1z"/>
   <polygon class="fil37" points="148,81 208,81 "/>
   <polygon class="fil35" points="148,76 208,76 208,87 148,87 "/>
   <path class="fil35" d="M234 57l-17 0 0 25c0,6 -5,10 -10,10l-59 0c-6,0 -10,-5 -10,-10l0 -25 -17 0c-7,0 -12,5 -12,12l0 31c0,7 5,12 12,12l113 0c7,0 12,-5 12,-12l0 -31c0,-7 -5,-12 -12,-12z"/>
   <path class="fil35" d="M121 58c-6,0 -11,5 -11,11l0 31c0,6 5,11 11,11l113 0c6,0 11,-5 11,-11l0 -31c0,-6 -5,-11 -11,-11l-15 0 0 23c0,6 -5,12 -12,12l-59 0c-6,0 -12,-5 -12,-12l0 -23 -15 0zm113 56l-113 0c-8,0 -14,-6 -14,-14l0 -31c0,-8 6,-14 14,-14l17 0c1,0 2,1 2,2l0 25c0,5 4,8 8,8l59 0c5,0 8,-4 8,-8l0 -25c0,-1 1,-2 2,-2l17 0c8,0 14,6 14,14l0 31c0,8 -6,14 -14,14z"/>
   <polygon class="fil37" points="197,57 158,57 158,71 197,71 "/>
   <path class="fil35" d="M192 62l-28 0 0 3 28 0 0 -3zm-34 -11l39 0 6 0 0 6 0 14 0 6 -6 0 -39 0 -6 0 0 -6 0 -14 0 -6 6 0z"/>
   <path class="fil37" d="M160 69l36 0 0 -11 -36 0 0 11zm38 3l-39 0c-1,0 -2,-1 -2,-2l0 -14c0,-1 1,-2 2,-2l39 0c1,0 2,1 2,2l0 14c0,1 -1,2 -2,2z"/>
   <path class="fil35" d="M165 64l25 0 0 0 -25 0 0 0zm32 14l-39 0c-2,0 -4,-1 -5,-2 -1,-1 -2,-3 -2,-5l0 -14c0,-2 1,-4 2,-5 1,-1 3,-2 5,-2l39 0c2,0 4,1 5,2l0 0c1,1 2,3 2,5l0 14c0,2 -1,4 -2,5 -1,1 -3,2 -5,2z"/>
   <path class="fil39" d="M178 56c-7,0 -12,-5 -12,-12 0,-7 5,-12 12,-12 7,0 12,5 12,12 0,7 -5,12 -12,12zm0 -50c-16,0 -30,13 -30,30l0 46 59 0 0 -46c0,-16 -13,-30 -30,-30z"/>
   <path class="fil35" d="M178 61c-5,0 -9,-2 -12,-5l0 0c-3,-3 -5,-8 -5,-12 0,-5 2,-9 5,-12l0 0c3,-3 8,-5 12,-5 5,0 9,2 12,5l0 0c3,3 5,8 5,12 0,5 -2,9 -5,12 -3,3 -8,5 -12,5zm-5 -13c1,1 3,2 5,2 2,0 4,-1 5,-2 1,-1 2,-3 2,-5 0,-2 -1,-3 -2,-5l0 0c-1,-1 -3,-2 -5,-2 -2,0 -4,1 -5,2l0 0c-1,1 -2,3 -2,5 0,2 1,4 2,5zm5 -37c-7,0 -13,3 -17,7l0 0c-4,4 -7,10 -7,17l0 40 48 0 0 -40c0,-7 -3,-13 -7,-17l0 0c-4,-4 -10,-7 -17,-7zm-25 -1c6,-6 15,-10 25,-10 10,0 19,4 25,10l0 0c6,6 10,15 10,25l0 46 0 6 -6 0 -59 0 -6 0 0 -6 0 -46c0,-10 4,-19 10,-25l0 0z"/>
  </g>
 </g>
</svg>
