<?xml version="1.0" encoding="UTF-8"?>
<!DOCTYPE svg PUBLIC "-//W3C//DTD SVG 1.1//EN" "http://www.w3.org/Graphics/SVG/1.1/DTD/svg11.dtd">
<!-- Creator: CorelDRAW X6 -->
<svg xmlns="http://www.w3.org/2000/svg" xml:space="preserve" width="7.2812mm" height="5.08mm" version="1.1" style="shape-rendering:geometricPrecision; text-rendering:geometricPrecision; image-rendering:optimizeQuality; fill-rule:evenodd; clip-rule:evenodd"
viewBox="0 0 728 508"
 xmlns:xlink="http://www.w3.org/1999/xlink">
 <defs>
  <style type="text/css">
   <![CDATA[
    .str2 {stroke:#302D2D;stroke-width:105.83;stroke-linecap:round;stroke-linejoin:round;stroke-opacity:0.200000}
    .str0 {stroke:#302D2D;stroke-width:105.83;stroke-linecap:round;stroke-linejoin:round}
    .str3 {stroke:#302D2D;stroke-width:141.11;stroke-linecap:round;stroke-linejoin:round;stroke-dasharray:423.300000 1100.580000;stroke-opacity:0.200000}
    .str1 {stroke:#302D2D;stroke-width:141.11;stroke-linecap:round;stroke-linejoin:round;stroke-dasharray:423.300000 1100.580000}
    .fil3 {fill:none;fill-rule:nonzero}
    .fil31 {fill:none;fill-rule:nonzero}
    .fil37 {fill:#3E4A55}
    .fil32 {fill:#ABD3B9}
    .fil33 {fill:#92C3A2}
    .fil36 {fill:#3E4A55;fill-rule:nonzero}
    .fil42 {fill:#75B98D;fill-rule:nonzero}
    .fil35 {fill:#BC6384;fill-rule:nonzero}
    .fil40 {fill:#DFD2DA;fill-rule:nonzero}
    .fil38 {fill:#F29387;fill-rule:nonzero}
    .fil7 {fill:#00D9CE;fill-rule:nonzero}
    .fil9 {fill:#04C4D5;fill-rule:nonzero}
    .fil17 {fill:#231F20;fill-rule:nonzero}
    .fil26 {fill:#297391;fill-rule:nonzero}
    .fil11 {fill:#302D2D;fill-rule:nonzero}
    .fil8 {fill:#474747;fill-rule:nonzero}
    .fil14 {fill:#4C4949;fill-rule:nonzero}
    .fil6 {fill:#4C4C4C;fill-rule:nonzero}
    .fil29 {fill:#523C60;fill-rule:nonzero}
    .fil20 {fill:#633900;fill-rule:nonzero}
    .fil23 {fill:#645B75;fill-rule:nonzero}
    .fil5 {fill:#666666;fill-rule:nonzero}
    .fil2 {fill:#697271;fill-rule:nonzero}
    .fil16 {fill:#6DAF75;fill-rule:nonzero}
    .fil24 {fill:#70DDE0;fill-rule:nonzero}
    .fil15 {fill:#71BDC1;fill-rule:nonzero}
    .fil27 {fill:#86CBED;fill-rule:nonzero}
    .fil13 {fill:#92E1B5;fill-rule:nonzero}
    .fil25 {fill:#A0804D;fill-rule:nonzero}
    .fil22 {fill:#A391C3;fill-rule:nonzero}
    .fil30 {fill:#C94C27;fill-rule:nonzero}
    .fil4 {fill:lightgrey;fill-rule:nonzero}
    .fil21 {fill:#E8CF69;fill-rule:nonzero}
    .fil12 {fill:#EBB167;fill-rule:nonzero}
    .fil19 {fill:#EE7046;fill-rule:nonzero}
    .fil10 {fill:#F15A24;fill-rule:nonzero}
    .fil28 {fill:#F2D0D3;fill-rule:nonzero}
    .fil1 {fill:whitesmoke;fill-rule:nonzero}
    .fil0 {fill:#FBB03B;fill-rule:nonzero}
    .fil18 {fill:#FBD260;fill-rule:nonzero}
    .fil41 {fill:#D0BEC9;fill-rule:nonzero}
    .fil34 {fill:#D186A1;fill-rule:nonzero}
    .fil43 {fill:#D25958;fill-rule:nonzero}
    .fil39 {fill:#E87565;fill-rule:nonzero}
   ]]>
  </style>
 </defs>
<symbol id="Fm5-39-0" viewBox="23850 -17439 1612 2569">
 <path class="fil0" d="M25462 -16527c0,199 -106,412 -257,676 -127,222 -110,414 -110,414l-189 0 147 -939 -105 0 -79 165 -60 -165 -73 163 -80 -163 -80 163 -74 -163 -60 165 -79 -165 -105 0 147 939 -189 0c0,0 17,-192 -110,-414 -151,-265 -257,-477 -257,-676 0,-199 24,-913 806,-913 782,0 806,713 806,913z"/>
 <polygon class="fil1" points="24172,-15297 24172,-15436 24217,-15436 24405,-15436 24906,-15436 25095,-15436 25139,-15436 25139,-15020 25056,-15020 24256,-15020 24172,-15020 24172,-15163 "/>
 <polygon class="fil2" points="25056,-14870 24256,-14870 24256,-15020 25056,-15020 "/>
 <polygon class="fil0" points="25053,-16375 24906,-15436 24405,-15436 24258,-16375 24363,-16375 24442,-16210 24502,-16375 24576,-16212 24656,-16375 24736,-16212 24809,-16375 24869,-16210 24948,-16375 "/>
</symbol>
<symbol id="Fm2-62-0" viewBox="4646 -8486 5282 5540">
 <path class="fil3 str0" d="M4699 -5716c0,-1500 1159,-2717 2588,-2717 1429,0 2588,1216 2588,2717 0,1500 -1159,2717 -2588,2717 -1429,0 -2588,-1216 -2588,-2717z"/>
</symbol>
<symbol id="Fm0-58-0" viewBox="3191 -10014 8193 8596">
 <path class="fil3 str0" d="M3244 -5716c0,-2344 1810,-4245 4044,-4245 2233,0 4044,1901 4044,4245 0,2344 -1810,4245 -4044,4245 -2233,0 -4044,-1900 -4044,-4245z"/>
</symbol>
<symbol id="Fm1-38-0" viewBox="19658 -20506 6858 7120">
 <path class="fil3 str1" d="M19728 -16937c0,-1947 1504,-3526 3359,-3526 1855,0 3359,1579 3359,3526 0,1947 -1504,3526 -3359,3526 -1855,0 -3359,-1579 -3359,-3526z"/>
</symbol>
<symbol id="Fm6-41-0" viewBox="24137 -17240 693 693">
 <path class="fil4" d="M24137 -16893c0,-192 155,-347 347,-347 191,0 347,155 347,347 0,191 -155,347 -347,347 -192,0 -347,-155 -347,-347z"/>
</symbol>
<symbol id="Fm0-23-0" viewBox="12959 -8633 6664 3510">
 <path class="fil5" d="M19184 -5754l0 -2248c0,-161 -132,-292 -292,-292l-4004 0 -731 0 -468 0c-161,0 -292,132 -292,292l0 2248c0,161 132,292 292,292l468 0 731 0 4004 0c161,0 292,-131 292,-292zm438 -2587l0 2926c0,161 -132,292 -292,292l-6079 0c-161,0 -292,-132 -292,-292l0 -2926c0,-161 132,-292 292,-292l6079 0c161,0 292,132 292,292z"/>
 <path class="fil6" d="M19184 -8002l0 2248c0,161 -132,292 -292,292l-4004 0 0 -1261 0 -312 0 -1261 4004 0c161,0 292,131 292,292z"/>
 <polygon class="fil2" points="14888,-5462 14157,-5462 14157,-6722 14888,-6722 "/>
 <polygon class="fil7" points="14888,-6722 14157,-6722 14157,-7034 14888,-7034 "/>
 <polygon class="fil2" points="14888,-7034 14157,-7034 14157,-8294 14888,-8294 "/>
 <path class="fil6" d="M14157 -6722l0 1261 -468 0c-161,0 -292,-131 -292,-292l0 -2248c0,-161 132,-292 292,-292l468 0 0 1261 0 312z"/>
</symbol>
<symbol id="Fm4-30-0" viewBox="11462 -25495 9917 8259">
 <path class="fil1" d="M16653 -18921c0,-128 -104,-232 -232,-232 -128,0 -232,104 -232,232 0,128 104,232 232,232 128,0 232,-104 232,-232zm4727 -489l0 634c0,340 -278,619 -619,619l-3549 0 -1583 0 -3548 0c-340,0 -619,-278 -619,-619l0 -634 9913 0 4 0z"/>
 <path class="fil8" d="M20816 -24845l-8790 0 0 4915 8790 0 0 -4915zm0 4915zm564 -4946l0 5466 -4 0 -9913 0 0 -5466c0,-340 278,-619 619,-619l8680 0c340,0 619,278 619,619z"/>
 <polygon class="fil9" points="20816,-19930 12026,-19930 12026,-24845 20816,-24845 "/>
 <path class="fil1" d="M18109 -17236l-1688 0 -1689 0c681,-278 897,-922 897,-922l1583 0c0,0 217,643 897,922z"/>
 <path class="fil10" d="M16421 -19153c128,0 232,104 232,232 0,128 -104,232 -232,232 -128,0 -232,-104 -232,-232 0,-128 104,-232 232,-232z"/>
</symbol>
<symbol id="Fm3-28-0" viewBox="15478 -6147 2465 3927">
 <polygon class="fil0" points="17943,-5547 17943,-2219 15478,-2219 15478,-5547 16117,-5547 16117,-5162 15763,-5162 15763,-2604 17658,-2604 17658,-5162 17304,-5162 17304,-5547 "/>
 <path class="fil9" d="M16257 -4778l-280 0 0 280 280 0 0 -280zm0 280zm0 222l-280 0 0 280 280 0 0 -280zm0 281zm0 222l-280 0 0 280 280 0 0 -280zm0 280zm0 222l-280 0 0 280 280 0 0 -280zm0 280zm1401 -2173l0 2557 -1895 0 0 -2557 354 0 0 62 593 0 594 0 0 -62 354 0z"/>
 <polygon class="fil2" points="17304,-5162 17304,-5100 16710,-5100 16117,-5100 16117,-5162 "/>
 <polygon class="fil2" points="17304,-5162 16117,-5162 16117,-5547 17304,-5547 "/>
 <path class="fil2" d="M16784 -5930c0,-41 -33,-74 -74,-74 -40,0 -73,33 -73,74 0,40 33,74 73,74 41,0 74,-33 74,-74zm520 220l0 164 -1187 0 0 -164 339 0c0,0 -34,-436 254,-436 289,0 255,436 255,436l339 0z"/>
 <path class="fil11" d="M16710 -6004c41,0 74,33 74,74 0,40 -33,74 -74,74 -40,0 -73,-33 -73,-74 0,-41 33,-74 73,-74z"/>
 <polygon class="fil1" points="16257,-2989 15977,-2989 15977,-3270 16257,-3270 "/>
 <polygon class="fil1" points="16257,-3492 15977,-3492 15977,-3772 16257,-3772 "/>
 <polygon class="fil1" points="16257,-3995 15977,-3995 15977,-4275 16257,-4275 "/>
 <polygon class="fil10" points="16257,-4498 15977,-4498 15977,-4778 16257,-4778 "/>
</symbol>
<symbol id="Fm5-67-0" viewBox="7802 -18434 1880 1510">
 <polygon class="fil10" points="9681,-18207 9508,-17511 8347,-17511 8173,-18207 "/>
 <path class="fil0" d="M9236 -17288c101,0 183,82 183,183 0,101 -82,182 -183,182 -101,0 -183,-82 -183,-182 0,-101 82,-183 183,-183z"/>
 <path class="fil0" d="M8317 -17288c101,0 182,82 182,183 0,101 -82,182 -182,182 -101,0 -183,-82 -183,-182 0,-74 44,-137 106,-166 23,-11 49,-17 76,-17z"/>
 <polygon class="fil1" points="8111,-18306 7802,-18306 7802,-18434 8111,-18434 "/>
</symbol>
<symbol id="Fm12-31-0" viewBox="22347 -12737 1338 2111">
 <path class="fil1" d="M23685 -11932l0 701c0,155 -59,310 -178,429 -118,118 -273,177 -429,177l-125 0c-155,0 -310,-59 -429,-177 -118,-119 -177,-273 -177,-429l0 -701 669 0 669 0z"/>
 <path class="fil12" d="M23685 -12373l0 441 -669 0 0 -127 83 0 0 -331 -83 0 0 -346 305 0c93,0 186,35 257,107 71,71 107,164 107,257z"/>
 <polygon class="fil13" points="23099,-12059 23016,-12059 23016,-12390 23099,-12390 "/>
 <path class="fil12" d="M23016 -12059l0 127 -669 0 0 -441c0,-93 36,-186 107,-257 71,-71 164,-107 257,-107l305 0 0 346 -83 0 0 331 83 0z"/>
 <polygon class="fil13" points="23016,-12059 22933,-12059 22933,-12390 23016,-12390 "/>
</symbol>
<symbol id="Fm10-24-0" viewBox="21136 -10144 3429 3250">
 <polygon class="fil9" points="24566,-8573 24566,-7907 24494,-7907 24339,-7907 24339,-8573 "/>
 <polygon class="fil14" points="24338,-7907 24338,-7780 23873,-7780 23873,-8700 23958,-8700 24259,-8700 24338,-8700 24338,-8573 "/>
 <path class="fil10" d="M24260 -8739c0,12 -1,25 -1,38l-301 0c0,-13 2,-26 2,-38 0,-611 -495,-1105 -1105,-1105 -611,0 -1105,495 -1105,1105 0,12 1,25 2,38l-301 0c0,-13 -1,-26 -1,-38 0,-777 629,-1406 1405,-1406 776,0 1406,629 1406,1406z"/>
 <polygon class="fil7" points="23902,-7033 23902,-6895 23297,-6895 23297,-7171 23902,-7171 "/>
 <polygon class="fil14" points="21829,-8700 21829,-7780 21364,-7780 21364,-7907 21364,-8573 21364,-8700 21450,-8700 21751,-8700 "/>
 <polygon class="fil9" points="21364,-7907 21136,-7907 21136,-8573 21364,-8573 "/>
</symbol>
<symbol id="Fm0-36-0" viewBox="18998 -21227 8177 8579">
 <path class="fil3 str0" d="M19051 -16937c0,-2340 1807,-4237 4036,-4237 2229,0 4036,1897 4036,4237 0,2340 -1807,4237 -4036,4237 -2229,0 -4036,-1897 -4036,-4237z"/>
</symbol>
<symbol id="Fm0-19-0" viewBox="148825 -117979 9758 9758">
 <path class="fil15" d="M157570 -116076c-1644,-2135 -4707,-2534 -6842,-890 -2135,1644 -2533,4707 -889,6842 1644,2135 4707,2533 6842,890 2135,-1644 2533,-4707 890,-6842z"/>
</symbol>
<symbol id="Fm9-47-0" viewBox="7584 -22353 3157 4066">
 <path class="fil0" d="M10303 -20823l-1521 0 0 1008 1521 0 0 -1008zm0 1008zm438 1528l-2358 0 0 -4066 2358 0 0 4066z"/>
 <polygon class="fil16" points="10303,-19815 8782,-19815 8782,-20823 10303,-20823 "/>
 <polygon class="fil10" points="8383,-22353 8383,-18287 7783,-18287 7783,-18791 7972,-18791 7972,-19038 7783,-19038 7783,-19352 7972,-19352 7972,-19600 7783,-19600 7783,-19914 7972,-19914 7972,-20162 7783,-20162 7783,-20476 7972,-20476 7972,-20724 7783,-20724 7783,-21038 7972,-21038 7972,-21286 7783,-21286 7783,-21600 7972,-21600 7972,-21848 7783,-21848 7783,-22353 "/>
 <polygon class="fil1" points="7972,-18791 7783,-18791 7783,-19038 7972,-19038 "/>
 <polygon class="fil1" points="7972,-19352 7783,-19352 7783,-19600 7972,-19600 "/>
 <polygon class="fil1" points="7972,-19914 7783,-19914 7783,-20162 7972,-20162 "/>
 <polygon class="fil1" points="7972,-20476 7783,-20476 7783,-20724 7972,-20724 "/>
 <polygon class="fil1" points="7972,-21038 7783,-21038 7783,-21286 7972,-21286 "/>
 <polygon class="fil1" points="7972,-21600 7783,-21600 7783,-21848 7972,-21848 "/>
 <polygon class="fil1" points="7783,-18791 7584,-18791 7584,-19038 7783,-19038 "/>
 <polygon class="fil1" points="7783,-19352 7584,-19352 7584,-19600 7783,-19600 "/>
 <polygon class="fil1" points="7783,-19914 7584,-19914 7584,-20162 7783,-20162 "/>
 <polygon class="fil1" points="7783,-20476 7584,-20476 7584,-20724 7783,-20724 "/>
 <polygon class="fil1" points="7783,-21038 7584,-21038 7584,-21286 7783,-21286 "/>
 <polygon class="fil1" points="7783,-21600 7584,-21600 7584,-21848 7783,-21848 "/>
</symbol>
<symbol id="Fm5-37-0" viewBox="12208 -16618 4893 4934">
 <path class="fil17" d="M17060 -14862c-9,-7 -17,-14 -26,-20 -9,-6 -17,-13 -26,-20 -9,-7 -17,-14 -26,-20 -9,-7 -17,-14 -26,-20 -9,-7 -17,-14 -26,-20 -9,-7 -17,-14 -26,-20 -9,-7 -17,-14 -26,-20 -9,-7 -17,-13 -26,-20 -9,-7 -17,-14 -26,-20 -9,-7 -17,-14 -26,-20 -9,-7 -17,-13 -26,-20 -9,-7 -17,-14 -26,-20 -9,-7 -17,-14 -26,-20 -9,-7 -17,-14 -26,-20 -9,-7 -17,-14 -26,-20 -9,-7 -17,-13 -26,-20 -9,-7 -17,-14 -26,-20 -9,-7 -17,-14 -26,-20 -9,-7 -17,-14 -26,-20 -9,-6 -17,-13 -26,-20 -9,-7 -17,-14 -26,-20 -9,-7 -17,-13 -26,-20 -9,-7 -17,-14 -26,-20 -9,-7 -17,-14 -26,-20 -9,-7 -17,-14 -26,-20 -9,-7 -17,-14 -26,-20 -9,-7 -17,-14 -26,-20 -9,-7 -17,-13 -26,-20 -9,-7 -17,-14 -26,-20 -9,-7 -17,-14 -26,-20 -9,-6 -17,-13 -26,-20 -9,-7 -17,-14 -26,-20 -9,-7 -17,-14 -26,-20 -9,-7 -17,-14 -26,-20 -9,-7 -17,-14 -26,-20 -9,-7 -17,-14 -26,-20 -9,-7 -17,-14 -26,-20 -9,-7 -17,-14 -26,-20 -9,-7 -17,-14 -26,-20 -9,-7 -17,-14 -26,-20 -9,-7 -17,-14 -26,-20 -9,-7 -17,-13 -26,-20 -9,-7 -17,-14 -26,-20 -9,-7 -17,-14 -26,-20 -9,-7 -17,-13 -26,-20 -9,-7 -17,-14 -26,-20 -9,-7 -17,-13 -26,-20 -9,-7 -17,-14 -26,-20 -9,-7 -17,-14 -26,-20 -9,-7 -17,-14 -26,-20 -9,-6 -17,-13 -26,-20 -9,-7 -17,-14 -26,-20 -9,-7 -17,-14 -26,-20 -9,-7 -17,-14 -26,-20 -9,-7 -17,-14 -26,-20 -9,-6 -17,-13 -26,-20 -9,-7 -17,-14 -26,-20 -9,-7 -17,-14 -26,-20 -9,-7 -17,-14 -26,-20 -9,-7 -17,-14 -26,-20 -9,-7 -17,-14 -26,-20 -9,-7 -17,-14 -26,-20 -9,-7 -17,-14 -26,-20 -9,-7 -17,-14 -26,-20 -9,-7 -17,-14 -26,-20 -9,-7 -17,-14 -26,-20 -9,-7 -17,-13 -26,-20 -9,-7 -17,-14 -26,-20 -9,-7 -17,-14 -26,-20 -9,-7 -17,-14 -26,-20 -9,-7 -17,-13 -26,-20 -9,-7 -18,-14 -28,-21 -63,-47 -130,-90 -202,-127 -253,-130 -539,-195 -857,-195 -410,0 -760,92 -1047,277 -288,185 -510,450 -666,797 -128,283 -192,581 -192,894 0,281 54,542 162,784 86,191 214,360 383,506 26,23 54,44 82,65 9,7 18,13 26,20 9,7 18,13 26,20 8,7 17,13 26,19 9,7 18,14 27,20 8,7 17,13 26,20 9,7 18,13 26,20 9,7 17,13 26,20 9,7 17,13 26,20 9,7 17,13 26,20 9,7 18,13 26,20 9,7 17,13 26,20 9,7 18,13 27,20 9,7 17,13 26,20 9,7 17,13 26,20 9,7 17,13 26,20 9,7 17,13 26,20 9,7 17,13 26,20 9,7 18,14 27,20 8,7 17,13 25,19 9,7 18,14 27,20 9,7 17,13 26,20 9,7 17,13 26,20 9,7 18,13 26,20 9,7 17,13 26,20 9,7 17,13 26,20 9,7 18,13 26,20 8,7 17,13 26,20 9,7 18,14 27,20 9,7 17,13 26,20 9,7 17,13 26,20 9,7 17,13 26,20 9,7 18,13 26,20 9,7 17,13 26,20 8,7 17,13 26,20 9,7 18,14 27,20 8,7 17,13 26,20 9,7 18,13 26,20 9,7 17,13 26,20 9,7 17,13 26,20 9,7 17,13 26,20 9,7 17,13 26,20 9,7 17,13 26,20 9,7 18,13 26,20 9,7 17,13 26,20 9,7 17,13 26,20 9,7 18,13 26,20 9,7 17,13 26,20 9,7 18,13 26,20 9,7 18,13 26,20 8,7 17,13 26,20 9,7 18,13 26,20 9,7 17,13 26,20 9,7 17,13 26,20 9,7 18,13 26,20 9,7 17,13 26,20 9,7 17,13 26,20 9,7 18,13 27,20 9,7 17,13 26,20 9,7 18,14 27,20 9,7 17,13 26,20 9,7 17,13 26,20 9,7 18,13 26,20 9,7 17,13 26,20 9,7 17,13 26,20 9,7 17,13 26,20 9,7 18,13 26,20 9,7 17,13 26,20 9,7 18,13 26,20 9,7 17,13 26,20 9,7 17,13 26,20 9,7 18,13 26,20 9,7 17,13 26,20 9,7 18,14 27,20 8,7 17,13 26,19 9,7 18,14 27,20 9,7 17,13 26,20 9,7 17,13 26,20 9,7 17,13 26,20 9,7 17,13 26,20 9,7 17,13 26,20 7,6 15,12 23,17l673 0c815,0 1475,-660 1475,-1475l0 -1672c-5,-4 -9,-7 -14,-11 -9,-7 -17,-14 -26,-20z"/>
</symbol>
<symbol id="Fm1-22-0" viewBox="8773 -23014 198 198">
 <path class="fil1" d="M8773 -22915c0,-55 44,-99 99,-99 55,0 99,44 99,99 0,55 -44,99 -99,99 -55,0 -99,-44 -99,-99z"/>
</symbol>
<symbol id="Fm12-29-0" viewBox="20890 -8459 4714 4815">
 <path class="fil17" d="M24175 -7455c-238,-57 -454,-142 -645,-238 -10,-11 -11,-6 -11,-6 -6,-3 -13,-6 -19,-10 -474,-234 -969,-751 -969,-751l181 656c-2609,203 -1930,1688 -929,2431 17,13 34,26 52,39 17,14 35,27 53,40 17,13 34,26 51,39 17,14 35,27 53,40 17,13 34,26 51,39 17,13 35,27 52,40 17,13 34,26 52,39 17,13 34,26 52,39 17,13 35,27 52,40 17,13 34,26 51,39 17,14 35,27 53,40 17,13 34,26 51,39 18,14 35,27 53,40 17,13 34,26 52,39 17,13 34,26 51,39 17,13 35,27 52,40 17,13 35,27 52,40 17,14 35,27 52,40 17,13 34,26 51,39 17,13 34,27 52,39 17,13 34,26 51,39 18,14 35,27 53,40 17,13 35,26 52,39 17,13 34,26 51,39 17,13 34,26 51,39 17,13 35,27 52,40 17,14 35,27 53,40 17,13 34,26 51,39 17,13 35,27 53,40 17,13 34,26 51,39 17,13 35,27 52,39 17,14 35,27 53,40 17,13 34,26 51,39 17,13 35,27 52,39 17,13 34,26 51,39 17,14 35,27 53,40 17,13 35,27 52,40 17,13 34,26 51,39 17,14 35,27 52,40 17,13 34,26 51,39 17,14 35,27 53,40 17,13 34,26 51,39 17,13 35,27 52,40 15,11 29,22 44,33l73 0c815,0 1475,-660 1475,-1475l0 -1237c-699,-531 -1438,-1097 -1429,-1099z"/>
</symbol>
<symbol id="Fm3-33-0" viewBox="29090 -24557 4782 4776">
 <path class="fil17" d="M33843 -22676c-9,-7 -17,-13 -26,-20 -9,-7 -17,-13 -26,-20 -9,-7 -17,-13 -26,-20 -9,-7 -18,-14 -27,-20 -9,-7 -17,-13 -26,-20 -9,-7 -17,-13 -26,-20 -9,-7 -17,-14 -26,-20 -9,-7 -17,-13 -26,-20 -9,-7 -17,-13 -26,-20 -9,-7 -17,-13 -26,-20 -9,-7 -17,-13 -26,-20 -9,-7 -17,-13 -26,-20 -9,-7 -17,-13 -26,-20 -9,-7 -17,-13 -26,-20 -9,-7 -17,-13 -26,-20 -9,-7 -18,-14 -27,-20 -9,-7 -17,-13 -26,-20 -9,-7 -17,-13 -26,-20 -9,-7 -17,-13 -26,-20 -9,-7 -17,-13 -26,-20 -9,-7 -18,-14 -27,-20 -9,-7 -17,-13 -26,-20 -9,-7 -17,-13 -26,-20 -9,-7 -17,-13 -26,-20 -9,-7 -17,-13 -26,-20 -9,-7 -17,-13 -26,-20 -9,-7 -17,-13 -26,-20 -9,-7 -17,-13 -26,-20 -9,-7 -17,-13 -26,-20 -9,-7 -18,-14 -26,-20 -9,-7 -17,-13 -26,-20 -9,-7 -17,-14 -26,-20 -9,-7 -17,-13 -26,-20 -9,-7 -17,-13 -26,-20 -9,-7 -18,-14 -27,-20 -9,-7 -17,-13 -26,-20 -9,-7 -17,-13 -26,-20 -9,-7 -18,-14 -27,-20 -9,-7 -17,-13 -26,-20 -9,-7 -17,-13 -26,-20 -9,-7 -17,-13 -26,-20 -9,-7 -17,-13 -26,-20 -9,-7 -17,-13 -26,-20 -9,-7 -17,-13 -26,-20 -9,-7 -17,-13 -26,-20 -9,-7 -18,-14 -26,-20 -9,-7 -17,-13 -26,-20 -9,-7 -17,-13 -26,-20 -9,-7 -17,-13 -26,-20 -9,-7 -17,-14 -26,-20 -9,-7 -17,-13 -26,-20 -9,-7 -17,-13 -26,-20 -9,-7 -17,-13 -26,-20 -9,-7 -17,-13 -26,-20 -9,-7 -17,-13 -26,-20 -9,-7 -18,-14 -26,-20 -9,-7 -17,-13 -26,-20 -9,-7 -17,-13 -26,-20 -9,-7 -17,-13 -26,-20 -9,-7 -18,-14 -26,-20 -9,-7 -17,-13 -26,-20 -9,-7 -17,-13 -26,-20 -9,-7 -17,-14 -26,-20 -9,-7 -17,-13 -26,-20 -9,-7 -17,-13 -26,-20 -9,-7 -17,-13 -26,-20 -9,-7 -18,-13 -26,-20 -9,-7 -17,-13 -26,-20 -9,-7 -17,-14 -26,-20 -9,-7 -17,-13 -26,-20 -9,-7 -17,-13 -26,-20 -9,-7 -17,-13 -26,-20 -9,-7 -17,-13 -26,-20 -9,-7 -18,-14 -26,-20 -9,-7 -17,-13 -26,-20 -9,-7 -17,-13 -26,-20 -9,-7 -18,-14 -26,-20 -286,-219 -645,-348 -1038,-348 -948,0 -1697,749 -1697,1697 0,566 267,1062 685,1369 9,7 17,13 26,20 9,7 17,13 26,20 9,7 17,13 26,20 9,7 17,14 26,20 9,7 17,13 26,20 9,7 18,14 27,20 9,7 17,13 26,20 9,7 17,13 26,20 9,7 17,13 26,20 9,7 17,14 26,20 9,7 17,13 26,20 9,7 17,13 26,20 9,7 17,13 26,20 9,7 17,13 26,20 9,7 17,13 26,20 9,7 17,13 26,20 9,7 17,13 26,20 9,7 17,13 26,20 9,7 18,14 26,20 9,7 17,13 26,20 9,7 17,13 26,20 9,7 18,14 27,20 9,7 17,13 26,20 9,7 18,14 26,20 9,7 17,13 26,20 9,7 18,14 27,20 9,7 17,13 26,20 9,7 17,13 26,20 9,7 17,13 26,20 9,7 17,13 26,20 9,7 18,14 27,20 9,7 17,13 26,20 9,7 17,14 26,20 9,7 17,13 26,20 9,7 17,13 26,20 9,7 17,13 26,20 9,7 17,13 26,20 9,7 17,14 26,20 9,7 17,13 26,20 9,7 17,13 26,20 9,7 17,13 26,20 9,7 18,14 27,20 9,7 17,13 26,20 9,7 17,13 26,20 9,7 17,13 26,20 9,7 17,13 26,20 9,7 18,14 27,20 9,7 17,13 26,19 9,7 17,13 26,20 9,7 18,14 27,20 9,7 17,13 26,20 9,7 17,13 26,20 9,7 17,13 26,20 9,7 17,13 26,20 9,7 18,14 26,20 9,7 17,13 26,20 9,7 17,13 26,20 9,7 17,14 26,20 9,7 17,14 26,20 9,7 17,13 26,20 9,7 18,14 27,20 9,7 17,13 26,20 9,7 17,13 26,20 9,7 18,14 26,20 9,7 17,13 26,20 9,7 17,13 26,20 9,7 18,14 27,20 9,7 17,13 26,20 9,7 18,14 27,20 9,7 17,13 26,20 9,7 17,13 26,20 9,7 17,13 26,20 9,7 17,13 26,20 9,7 17,13 26,20 9,7 17,13 26,20 9,7 17,13 26,20 9,7 17,13 26,20 9,7 17,13 26,20 9,7 17,13 26,20 9,7 18,14 26,20 9,7 17,13 26,20 9,7 17,13 26,20 9,7 18,14 26,20 9,7 17,13 26,20 9,7 17,13 26,20 8,6 16,12 24,18l371 0c815,0 1475,-661 1475,-1475l0 -1397c-1,-1 -2,-2 -4,-3 -9,-7 -17,-13 -26,-20z"/>
</symbol>
<symbol id="Fm9-75-0" viewBox="5350 -10119 4610 5545">
 <path class="fil10" d="M8404 -9155c164,-164 429,-164 592,0 163,163 163,428 0,592l-592 -592z"/>
 <polygon class="fil18" points="8996,-8563 9960,-7599 9440,-7080 9111,-7409 7253,-9267 6921,-9599 7440,-10119 8404,-9155 "/>
 <polygon class="fil1" points="7253,-9267 9111,-7409 8030,-6809 7225,-6004 5848,-7381 6653,-8186 "/>
 <path class="fil7" d="M7087 -5866l-76 76c-125,125 -274,208 -433,251 -325,89 -688,5 -944,-251 -380,-380 -380,-997 0,-1377l213 -213 1377 1377 -138 138z"/>
 <path class="fil10" d="M7087 -5866l890 1138 -155 155 -1244 -966 0 -1c159,-43 309,-126 433,-251l76 -76z"/>
</symbol>
<symbol id="Fm0-28-0" viewBox="1901 -21303 8322 8732">
 <path class="fil3 str0" d="M1954 -16937c0,-2382 1839,-4313 4108,-4313 2269,0 4108,1931 4108,4313 0,2382 -1839,4313 -4108,4313 -2269,0 -4108,-1931 -4108,-4313z"/>
</symbol>
<symbol id="Fm7-71-0" viewBox="21621 -16087 2392 2392">
 <path class="fil9" d="M21859 -14493l280 0c-22,-101 -35,-208 -40,-319l-317 0c9,113 35,219 76,319zm280 -797l-280 0c-41,99 -68,206 -76,319l317 0c5,-111 18,-219 40,-319zm230 1334c-78,-102 -142,-231 -189,-377l-238 0c103,162 251,293 427,377zm-188 -1493c46,-146 110,-275 188,-377 -175,83 -323,215 -427,377l239 0zm555 0l0 -468c-164,44 -305,220 -391,468l391 0zm0 479l0 -319 -436 0c-22,99 -37,206 -41,319l477 0zm0 478l0 -319 -477 0c5,113 19,219 41,319l436 0zm0 628l0 -468 -391 0c86,248 227,424 391,468zm549 -468l-391 0 0 468c165,-44 305,-220 391,-468zm-391 -1117l391 0c-86,-248 -226,-424 -391,-468l0 468zm477 638l-477 0 0 319 436 0c23,-100 37,-206 41,-319zm-477 -159l477 0c-5,-113 -18,-220 -41,-319l-436 0 0 319zm794 638l-238 0c-47,146 -112,274 -189,377 175,-83 323,-215 427,-377zm-238 -1117l238 0c-104,-162 -251,-293 -427,-377 78,102 142,231 189,377zm397 638l-317 0c-5,111 -18,218 -40,319l280 0c41,-100 68,-206 76,-319zm-317 -159l317 0c-8,-113 -35,-220 -76,-319l-280 0c22,100 35,208 40,319zm480 0l0 159 -3 0c-39,597 -516,1074 -1114,1113l0 3 -159 0 0 -3c-597,-39 -1074,-516 -1114,-1113l-2 0 0 -159 2 0c40,-597 517,-1074 1114,-1114l0 -2 159 0 0 2c597,40 1075,517 1114,1114l3 0z"/>
</symbol>
<symbol id="Fm1-60-0" viewBox="3851 -9291 6871 7138">
 <path class="fil3 str1" d="M3922 -5716c0,-1951 1507,-3533 3365,-3533 1858,0 3365,1582 3365,3533 0,1951 -1507,3533 -3365,3533 -1858,0 -3365,-1582 -3365,-3533z"/>
</symbol>
<symbol id="Fm0-50-0" viewBox="17217 -10625 9228 9682">
 <path class="fil3 str0" d="M17270 -5784c0,-2644 2042,-4788 4561,-4788 2519,0 4561,2144 4561,4788 0,2644 -2042,4788 -4561,4788 -2519,0 -4561,-2144 -4561,-4788z"/>
</symbol>
<symbol id="Fm12-47-0" viewBox="9534 -6885 2330 1497">
 <path class="fil1" d="M10146 -5815l-391 0 0 217 391 0 0 -217zm0 217zm1718 -641l0 639c0,116 -95,212 -212,212l-1906 0c-117,0 -212,-95 -212,-212l0 -639 2330 0z"/>
 <polygon class="fil10" points="11864,-6239 9534,-6239 9534,-6556 11864,-6556 "/>
 <path class="fil1" d="M11864 -6673l0 117 -2330 0 0 -117c0,-116 95,-212 212,-212l1906 0c116,0 212,95 212,212z"/>
 <polygon class="fil18" points="10146,-5598 9755,-5598 9755,-5815 10146,-5815 "/>
</symbol>
<symbol id="Fm4-37-0" viewBox="8246 -16448 440 2859">
 <polygon class="fil19" points="8685,-15847 8684,-15847 8684,-16089 8685,-16089 "/>
 <polygon class="fil20" points="8685,-16448 8685,-16089 8684,-16089 8246,-16089 8246,-16448 "/>
 <polygon class="fil21" points="8685,-13945 8590,-13790 8341,-13790 8246,-13945 8684,-13945 "/>
 <polygon class="fil12" points="8684,-13945 8246,-13945 8246,-15847 8684,-15847 "/>
 <polygon class="fil21" points="8684,-15847 8246,-15847 8246,-16089 8684,-16089 "/>
 <polygon class="fil20" points="8590,-13790 8466,-13589 8341,-13790 "/>
</symbol>
<symbol id="Fm10-25-0" viewBox="11984 -8488 5117 4856">
 <path class="fil17" d="M15957 -8481l-454 99c-9,-12 -124,-104 -161,-106 -84,-6 -94,79 -94,79l0 2 -4 49 -3260 438 293 1659 408 276 5 26 -375 0c0,0 -86,5 -86,88 0,37 275,251 446,378 -83,56 -138,150 -138,258 0,113 60,211 150,266 16,15 33,28 52,39 16,15 33,28 52,39 16,15 33,28 52,39 16,15 33,28 52,40 16,15 33,28 52,39 16,15 33,28 52,39 16,15 33,28 52,39 16,15 33,28 52,39 16,15 33,28 52,39 16,15 33,28 52,39 16,15 33,28 52,40 16,15 33,28 52,39 16,15 33,28 52,40 16,15 33,28 52,39 16,15 33,28 52,39 16,15 33,28 52,40 16,15 33,28 52,39 16,15 33,28 52,39 16,15 33,28 52,39 16,15 33,28 52,39 16,15 33,28 52,39 16,15 33,28 52,39 16,15 33,28 52,39 16,15 33,28 52,39 16,15 33,28 52,39 16,15 33,28 52,40 16,15 33,28 52,39 16,15 33,28 52,39 16,15 33,28 52,39 16,15 33,28 52,39 16,15 33,28 52,39 16,15 33,28 52,40 16,15 33,28 52,39 14,13 29,25 46,35 0,0 443,-1 1022,0 80,0 1550,53 1635,-1475l0 -2521c-602,-450 -1142,-852 -1142,-852l-2 0z"/>
</symbol>
<symbol id="Fm8-45-0" viewBox="21583 -9025 2623 3616">
 <path class="fil0" d="M22171 -7889c0,-64 -52,-116 -117,-116 -64,0 -116,52 -116,116 0,65 52,117 116,117 65,0 117,-52 117,-117zm436 0c0,-64 -52,-116 -116,-116 -64,0 -116,52 -116,116 0,65 52,117 116,117 64,0 116,-52 116,-117zm1213 2111l0 -723 0 -361 0 -362 0 -361 -466 0 -465 0 -466 0 -466 0 0 361 0 362 0 361 0 362 0 361 932 0 465 0 466 0zm12 -2916l-1876 0 0 515 1876 0 0 -515zm0 515zm0 162l-944 0 0 250 944 0 0 -250zm0 250zm374 2358l-2623 0 0 -3616 2623 0 0 3616zm0 -3616l0 3616"/>
 <polygon class="fil9" points="23833,-7767 22889,-7767 22889,-8017 23833,-8017 "/>
 <polygon class="fil2" points="23833,-8179 21957,-8179 21957,-8694 23833,-8694 "/>
 <polygon class="fil10" points="23821,-6501 23821,-5777 23355,-5777 23355,-6139 23355,-6501 "/>
 <polygon class="fil16" points="23821,-6501 23355,-6501 23355,-6862 23821,-6862 "/>
 <polygon class="fil16" points="23821,-6862 23355,-6862 23355,-7224 23821,-7224 "/>
 <polygon class="fil16" points="23821,-7224 23355,-7224 23355,-7585 23821,-7585 "/>
 <polygon class="fil2" points="23355,-5777 22889,-5777 22889,-6139 23355,-6139 "/>
 <polygon class="fil2" points="23355,-6139 22889,-6139 22889,-6501 23355,-6501 "/>
 <polygon class="fil2" points="23355,-6501 22889,-6501 22889,-6862 23355,-6862 "/>
 <polygon class="fil2" points="23355,-6862 22889,-6862 22889,-7224 23355,-7224 "/>
 <polygon class="fil2" points="23355,-7224 22889,-7224 22889,-7585 23355,-7585 "/>
 <polygon class="fil9" points="22889,-6139 22889,-5777 21957,-5777 21957,-6139 22423,-6139 "/>
 <polygon class="fil2" points="22889,-6139 22423,-6139 22423,-6501 22889,-6501 "/>
 <polygon class="fil2" points="22889,-6501 22423,-6501 22423,-6862 22889,-6862 "/>
 <polygon class="fil2" points="22889,-6862 22423,-6862 22423,-7224 22889,-7224 "/>
 <polygon class="fil2" points="22889,-7224 22423,-7224 22423,-7585 22889,-7585 "/>
 <path class="fil10" d="M22491 -8005c64,0 116,52 116,116 0,65 -52,117 -116,117 -64,0 -116,-52 -116,-117 0,-64 52,-116 116,-116z"/>
 <polygon class="fil2" points="22423,-6139 21957,-6139 21957,-6501 22423,-6501 "/>
 <polygon class="fil2" points="22423,-6501 21957,-6501 21957,-6862 22423,-6862 "/>
 <polygon class="fil2" points="22423,-6862 21957,-6862 21957,-7224 22423,-7224 "/>
 <polygon class="fil2" points="22423,-7224 21957,-7224 21957,-7585 22423,-7585 "/>
 <path class="fil9" d="M22055 -8005c65,0 117,52 117,116 0,65 -52,117 -117,117 -64,0 -116,-52 -116,-117 0,-64 52,-116 116,-116z"/>
</symbol>
<symbol id="Fm11-29-0" viewBox="11419 -22221 393 3488">
 <polygon class="fil2" points="11615,-18732 11419,-19153 11463,-19454 11767,-19454 11812,-19153 "/>
 <polygon class="fil22" points="11801,-22017 11801,-20773 11767,-20773 11463,-20773 11430,-20773 11430,-22017 11463,-22017 11767,-22017 "/>
 <polygon class="fil23" points="11767,-19454 11463,-19454 11463,-19666 11767,-19666 "/>
 <polygon class="fil22" points="11767,-19666 11463,-19666 11463,-20773 11767,-20773 "/>
 <polygon class="fil2" points="11767,-22221 11767,-22017 11463,-22017 11463,-22083 11463,-22221 "/>
</symbol>
<symbol id="Fm7-36-0" viewBox="14799 -15591 3648 3648">
 <path class="fil1" d="M17927 -13767c0,-720 -584,-1304 -1304,-1304 -720,0 -1304,584 -1304,1304 0,720 584,1304 1304,1304 720,0 1304,-584 1304,-1304zm-1304 -1824c1008,0 1824,816 1824,1824 0,1008 -816,1824 -1824,1824 -1008,0 -1824,-816 -1824,-1824 0,-1008 816,-1824 1824,-1824z"/>
 <path class="fil10" d="M16623 -15071c720,0 1304,584 1304,1304 0,720 -584,1304 -1304,1304 -720,0 -1304,-584 -1304,-1304 0,-720 584,-1304 1304,-1304z"/>
</symbol>
<symbol id="Fm4-35-0" viewBox="3513 -16202 5030 4518">
 <path class="fil17" d="M3513 -16202l0 2878 2158 1640 1396 0c815,0 1475,-660 1475,-1475l0 -2194 -1117 -849 -3913 0z"/>
</symbol>
<symbol id="Fm11-27-0" viewBox="29149 -8462 4724 4830">
 <path class="fil17" d="M33779 -6099c-16,-13 -33,-26 -51,-39 -17,-13 -34,-27 -52,-40 -16,-13 -34,-26 -51,-39 -17,-14 -34,-27 -53,-40 -17,-13 -34,-27 -52,-39 -16,-13 -34,-26 -51,-39 -16,-13 -2674,-2126 -2674,-2126 0,0 -614,756 -1646,1004 34,8 2225,1668 2248,1674 -4,7 -8,13 -12,20 -2,0 -4,1 -5,1 1,0 3,1 4,1 -219,371 -569,700 -826,807 34,-1 1023,740 1783,1323l57 0c815,0 1475,-661 1475,-1475l0 -921c-13,-10 -27,-21 -41,-31 -17,-14 -34,-27 -52,-40z"/>
</symbol>
<symbol id="Fm1-52-0" viewBox="17965 -9839 7732 8110">
 <path class="fil3 str1" d="M18035 -5784c0,-2201 1699,-3985 3796,-3985 2096,0 3796,1784 3796,3985 0,2201 -1699,3985 -3796,3985 -2096,0 -3796,-1784 -3796,-3985z"/>
</symbol>
<symbol id="Fm8-38-0" viewBox="9453 -7298 1891 1891">
 <polygon class="fil0" points="11344,-7298 11344,-5956 10795,-5956 10795,-5407 9453,-5407 9453,-7298 "/>
 <polygon class="fil1" points="11344,-5956 10795,-5407 10795,-5956 "/>
</symbol>
<symbol id="Fm2-31-0" viewBox="20761 -24614 4836 4844">
 <path class="fil17" d="M25564 -21914c-9,-7 -17,-13 -26,-20 -9,-7 -18,-13 -26,-20 -9,-7 -17,-13 -26,-20 -9,-7 -17,-13 -26,-20 -9,-7 -17,-13 -26,-20 -9,-7 -17,-13 -26,-20 -9,-7 -18,-13 -26,-20 -9,-7 -17,-13 -26,-20 -9,-7 -17,-13 -26,-20 -9,-7 -17,-13 -26,-20 -9,-7 -17,-13 -26,-20 -9,-7 -17,-13 -26,-20 -9,-7 -17,-13 -26,-20 -9,-7 -18,-13 -26,-20 -9,-7 -18,-14 -27,-20 -9,-6 -17,-13 -26,-19 -9,-7 -17,-13 -26,-20 -9,-7 -17,-13 -26,-20 -9,-7 -17,-13 -26,-20 -9,-7 -18,-13 -26,-20 -9,-7 -17,-13 -26,-20 -9,-7 -17,-13 -26,-20 -9,-7 -18,-13 -26,-20 -9,-7 -17,-13 -26,-20 -9,-7 -17,-13 -26,-20 -9,-7 -17,-13 -26,-20 -9,-7 -17,-13 -26,-20 -9,-7 -17,-13 -26,-20 -9,-7 -17,-13 -26,-20 -9,-7 -17,-13 -26,-20 -9,-7 -17,-13 -26,-20 -9,-7 -18,-13 -26,-20 -9,-7 -17,-13 -26,-20 -9,-7 -17,-13 -26,-20 -9,-7 -17,-13 -26,-20 -9,-7 -17,-13 -26,-20 -9,-7 -17,-13 -26,-20 -9,-7 -18,-13 -26,-20 -9,-7 -17,-13 -26,-20 -9,-7 -18,-13 -26,-20 -9,-7 -17,-13 -26,-20 -9,-7 -17,-13 -26,-20 -9,-7 -18,-13 -26,-20 -9,-7 -17,-13 -26,-20 -9,-7 -17,-13 -26,-20 -9,-7 -17,-13 -26,-20 -9,-7 -17,-13 -26,-20 -9,-7 -17,-13 -26,-20 -9,-7 -18,-13 -27,-20 -9,-7 -17,-13 -26,-20 -9,-7 -17,-13 -26,-20 -9,-7 -17,-13 -26,-20 -9,-7 -17,-13 -26,-20 -9,-7 -18,-13 -27,-20 -9,-7 -17,-13 -26,-20 -9,-7 -17,-13 -26,-20 -9,-7 -17,-13 -26,-20 -9,-7 -17,-13 -26,-20 -9,-7 -18,-13 -26,-20 -9,-7 -17,-13 -26,-20 -9,-7 -17,-13 -26,-20 -9,-7 -17,-13 -26,-20 -9,-7 -18,-13 -26,-20 -9,-7 -17,-13 -26,-20 -9,-7 -17,-13 -26,-20 -9,-7 -17,-13 -26,-20 -9,-7 -17,-13 -26,-20 -9,-7 -17,-13 -26,-20 -9,-7 -17,-13 -26,-20 -9,-7 -17,-13 -26,-20 -9,-7 -18,-13 -26,-20 -9,-7 -17,-13 -26,-20 -9,-7 -17,-13 -26,-20 -9,-7 -18,-13 -26,-20 -9,-7 -17,-13 -26,-20 -9,-7 -18,-13 -27,-20 -9,-7 -17,-13 -26,-20 -9,-7 -17,-13 -26,-20 -9,-7 -18,-13 -26,-20 -9,-7 -17,-13 -26,-20 -9,-7 -17,-13 -26,-20 -9,-7 -17,-13 -26,-20 -9,-7 -18,-13 -26,-20 -9,-7 -17,-13 -26,-20 -9,-7 -17,-13 -26,-20 -9,-7 -17,-13 -26,-20 -9,-7 -17,-13 -26,-20 -9,-7 -17,-13 -26,-20 -9,-7 -17,-13 -26,-20 -9,-7 -17,-13 -26,-20 -9,-7 -17,-13 -26,-20 -9,-7 -17,-13 -26,-20 -9,-7 -17,-13 -26,-20 -9,-7 -17,-13 -26,-20 -9,-7 -17,-13 -26,-20 -9,-7 -18,-13 -26,-20 -390,-297 -868,-521 -1406,-657 -409,-104 -745,-129 -882,-136l0 586c8,1 2646,2006 2646,2006 43,3 104,7 179,16 18,70 34,141 48,213 -2,-2 -5,-4 -7,-5 -9,-7 -17,-13 -26,-20 -9,-7 -17,-13 -26,-20 -9,-7 -17,-14 -26,-20 -9,-7 -17,-13 -26,-20 -9,-7 -17,-13 -26,-20 -9,-7 -17,-13 -26,-20 -9,-7 -17,-13 -26,-20 -9,-7 -17,-13 -26,-20 -9,-7 -17,-13 -26,-20 -9,-7 -17,-13 -26,-20 -9,-7 -18,-14 -27,-20 -9,-7 -17,-13 -26,-20 -9,-7 -17,-13 -26,-20 -9,-7 -18,-14 -27,-20 -9,-7 -17,-13 -26,-20 -9,-7 -17,-13 -26,-20 -9,-7 -17,-13 -26,-20 -9,-7 -17,-13 -26,-20 -9,-7 -17,-13 -26,-20 -9,-7 -18,-14 -27,-20 -9,-6 -17,-13 -25,-19 -9,-7 -18,-14 -27,-20 -9,-6 -17,-13 -26,-20 -9,-7 -17,-13 -26,-20 -9,-7 -17,-13 -26,-20 -9,-7 -17,-13 -26,-20 -9,-7 -17,-13 -26,-20 -9,-7 -17,-13 -26,-20 -9,-7 -17,-13 -26,-20 -9,-7 -17,-13 -26,-20 -9,-7 -17,-13 -26,-20 -9,-7 -17,-13 -26,-20 -9,-7 -18,-14 -27,-20 -9,-7 -17,-13 -26,-20 -9,-7 -17,-13 -26,-20 -9,-7 -17,-13 -26,-20 -9,-7 -17,-13 -26,-20 -9,-7 -17,-13 -26,-20 -9,-7 -18,-14 -26,-20 -9,-7 -17,-13 -26,-20 -9,-7 -17,-13 -26,-20 -9,-7 -17,-13 -26,-20 -9,-7 -17,-13 -26,-20 -9,-6 -17,-13 -26,-19 -9,-7 -18,-14 -27,-20 -9,-7 -17,-13 -26,-20 -9,-7 -17,-13 -26,-20 -9,-7 -17,-13 -26,-20 -9,-7 -17,-13 -26,-20 -9,-7 -17,-13 -26,-20 -9,-7 -18,-13 -26,-20 -9,-6 -17,-13 -26,-20 -9,-7 -17,-14 -26,-20 -261,-197 -580,-342 -940,-426 -231,-54 -427,-70 -538,-75l0 586c8,0 1650,1251 1650,1251 2,0 5,0 7,0 15,71 25,145 32,221 -4,-3 -8,-6 -12,-9 -8,-7 -17,-13 -26,-20 -8,-7 -17,-13 -26,-20 -8,-7 -17,-13 -26,-20 -8,-7 -17,-13 -26,-20 -9,-7 -17,-14 -26,-20 -8,-7 -17,-13 -26,-20 -8,-7 -17,-13 -26,-20 -8,-7 -17,-13 -26,-20 -8,-7 -17,-13 -26,-20 -8,-7 -17,-13 -26,-20 -8,-7 -17,-14 -26,-20 -8,-7 -17,-13 -26,-20 -8,-7 -17,-13 -26,-20 -8,-7 -17,-13 -26,-20 -8,-7 -17,-14 -26,-20 -8,-7 -17,-13 -26,-20 -8,-7 -17,-14 -26,-20 -8,-7 -17,-13 -26,-20 -9,-7 -17,-14 -26,-20 -8,-7 -17,-13 -26,-20 -8,-7 -17,-13 -26,-20 -8,-7 -17,-13 -26,-20 -8,-7 -17,-13 -26,-20 -8,-7 -17,-13 -26,-20 -9,-7 -17,-14 -26,-20 -8,-7 -17,-13 -26,-20 -8,-7 -17,-13 -26,-20 -8,-7 -17,-13 -26,-20 -8,-7 -17,-13 -26,-20 -8,-7 -17,-13 -26,-20 -8,-7 -17,-13 -26,-20 -8,-7 -17,-13 -26,-20 -8,-7 -17,-13 -26,-20 -81,-68 -185,-108 -299,-108 -259,0 -468,210 -468,469 0,157 77,296 195,381 8,7 17,13 26,20 8,7 17,13 26,20 8,7 17,13 26,20 8,7 17,13 26,20 8,7 17,13 26,20 8,7 17,13 26,20 8,7 17,14 26,20 8,7 17,13 26,20 8,7 17,13 26,20 8,7 17,13 26,20 8,7 17,13 26,20 9,7 17,14 26,20 8,7 17,13 26,20 8,7 17,14 26,20 8,7 17,13 26,20 8,7 17,14 26,20 8,7 17,13 26,20 8,7 17,13 26,20 8,7 17,13 26,20 8,7 17,13 26,20 8,7 17,13 26,20 8,7 17,13 26,20 8,7 17,13 26,20 8,7 17,14 26,20 8,7 17,13 26,20 8,7 17,13 26,20 8,7 17,13 26,20 8,7 17,13 26,20 8,7 17,13 26,20 8,7 17,13 26,20 8,7 17,13 26,20 8,7 17,13 26,20 8,7 17,13 26,20 8,7 17,13 26,20 8,7 17,13 26,20 8,7 17,14 26,20 8,7 17,13 26,20 8,7 17,13 26,20 8,7 17,14 26,20 8,7 17,13 26,20 8,7 17,13 26,20 8,7 17,13 26,20 8,7 17,13 26,20 8,7 17,13 26,20 8,7 17,13 26,20 8,7 17,13 26,20 8,7 17,14 26,20 8,7 17,13 26,20 8,7 17,13 26,20 8,7 17,14 26,20 8,7 17,13 26,20 8,7 17,13 26,20 8,7 17,13 26,20 8,7 17,13 26,20 8,7 17,13 26,20 8,7 17,13 26,20 8,7 17,13 26,20 8,7 17,14 26,20 8,7 17,13 26,20 8,7 17,13 26,20 8,7 17,14 26,20 8,7 17,13 26,20 8,7 17,13 26,20 8,7 17,14 26,20 8,7 17,13 26,20 8,7 17,13 26,20 9,7 17,14 26,20 8,7 17,13 26,20 8,7 17,13 26,20 8,7 17,13 26,20 8,7 17,13 26,20 8,7 17,13 26,20 7,6 14,11 21,16l1213 0c815,0 1475,-659 1475,-1472l0 -647c-3,-2 -5,-4 -8,-6 -9,-7 -17,-13 -26,-20z"/>
</symbol>
<symbol id="Fm0-21-0" viewBox="2540 -24321 5985 4558">
 <path class="fil17" d="M8455 -22560c-17,-13 -34,-27 -52,-39 -17,-14 -34,-27 -52,-40 -17,-14 -34,-27 -52,-39 -17,-14 -34,-27 -52,-40 -17,-14 -34,-27 -52,-39 -17,-13 -34,-27 -52,-39 -17,-13 -34,-27 -52,-39 -17,-14 -34,-27 -52,-40 -17,-14 -34,-27 -52,-40 -17,-14 -34,-27 -52,-39 -17,-13 -34,-27 -52,-39 -17,-14 -34,-27 -52,-39 -17,-14 -34,-27 -52,-40 -17,-14 -34,-27 -52,-39 -17,-13 -34,-27 -52,-39 -17,-14 -34,-27 -52,-40 -17,-13 -34,-27 -52,-39 -17,-14 -34,-27 -52,-39 -17,-14 -34,-27 -52,-40 -17,-13 -34,-27 -52,-39 -17,-14 -34,-27 -52,-39 -17,-14 -34,-27 -52,-39 -17,-14 -34,-27 -52,-39 -17,-13 -34,-27 -52,-39 -17,-14 -34,-27 -52,-39 -17,-14 -34,-27 -52,-40 -17,-13 -34,-27 -52,-39 -17,-14 -34,-27 -52,-40 -17,-14 -34,-27 -52,-39 -17,-14 -34,-27 -52,-40 -17,-13 -34,-27 -52,-39 -17,-13 -34,-27 -52,-39 -17,-14 -34,-27 -52,-40 -17,-14 -34,-27 -52,-39 -17,-14 -34,-27 -52,-39 -17,-14 -34,-27 -52,-39 -17,-14 -34,-27 -52,-39 -237,-189 -537,-302 -863,-302 -434,0 -834,197 -1099,541 -190,-25 -389,18 -559,135 -330,228 -435,661 -264,1011 -67,-28 -146,-23 -210,22l-905 626c-100,69 -125,206 -56,306 20,29 46,52 75,68 15,16 33,29 52,39 15,16 33,29 52,39 15,16 33,29 52,39 16,16 33,29 52,39 15,16 33,29 52,39 15,16 33,29 52,39 16,16 33,29 52,39 16,16 33,29 52,39 15,16 33,29 52,39 16,16 33,29 52,39 16,16 33,29 52,39 16,16 33,29 52,39 15,16 33,29 52,39 16,16 33,29 52,39 15,16 33,29 52,39 15,16 33,29 52,39 16,16 33,29 52,39 16,16 33,29 52,39 15,16 33,29 52,39 15,16 33,29 52,39 16,16 33,29 52,39 15,16 33,29 52,39 15,16 33,29 52,39 16,16 33,29 52,39 15,16 33,29 52,39 15,16 33,29 52,39 16,16 33,29 52,39 15,16 33,29 52,39 15,16 33,29 52,39 15,16 33,29 52,39 16,16 33,29 52,39 15,16 33,29 52,39 15,16 33,29 52,39 16,16 33,29 52,39 15,16 33,29 52,39 16,16 33,29 52,40 15,16 33,29 52,39 16,16 33,29 52,39 15,16 33,29 52,39 16,16 33,29 52,39 15,16 33,29 52,39 15,16 33,29 52,39 4,4 99,80 242,193l1974 0c815,0 1475,-660 1475,-1475l0 -1268c-6,-5 -12,-10 -19,-14 -17,-14 -34,-27 -52,-39z"/>
</symbol>
<symbol id="Fm4-65-0" viewBox="4973 -17006 3548 3548">
 <path class="fil24" d="M7258 -16231c-34,-147 -140,-301 -511,-301 -331,0 -452,123 -498,254 -19,55 -26,112 -29,162 -5,78 -6,223 -5,362l-1 0c0,0 -169,-134 -176,0 -6,134 29,419 187,419 14,98 59,287 202,406l0 108 -802 270 0 695c-398,-325 -652,-820 -652,-1374 0,-980 794,-1774 1774,-1774 980,0 1774,794 1774,1774 0,554 -254,1049 -652,1374l0 -695 -802 -270 0 -108c143,-119 187,-308 202,-406 158,0 194,-285 187,-419 -6,-134 -175,0 -175,0l-1 0c1,-139 1,-284 -5,-362 -3,-35 -6,-75 -16,-115z"/>
 <path class="fil10" d="M7869 -14552l0 695 0 1c-306,250 -696,400 -1122,400 -426,0 -816,-150 -1122,-400l0 -1 0 -695 802 -270 0 444 320 138 320 -138 0 -444 802 270z"/>
 <path class="fil1" d="M7456 -15754c7,134 -29,419 -187,419 5,-39 6,-64 6,-64 0,0 4,-173 5,-355l1 0c0,0 169,-134 175,0z"/>
 <path class="fil1" d="M7275 -16116c5,78 6,223 5,362 -1,182 -5,355 -5,355 0,0 -1,25 -6,64 -15,98 -59,287 -202,406 -33,27 -71,51 -115,69l-204 -69 -205 69c-44,-17 -82,-41 -115,-69 -143,-119 -187,-308 -202,-406 -5,-39 -6,-64 -6,-64 0,0 -4,-173 -5,-355 -1,-139 -1,-284 5,-362 3,-50 10,-107 29,-162 0,0 182,259 484,343l-53 -146c14,5 260,101 579,-149 10,40 13,79 16,115z"/>
 <path class="fil25" d="M6680 -16082l53 146c-302,-84 -484,-343 -484,-343 46,-131 167,-254 498,-254 371,0 477,154 511,301 -319,250 -565,154 -579,149z"/>
 <path class="fil1" d="M7067 -14822l0 444 -320 138 -320 -138 0 -444 115 -39c57,25 125,39 205,39 79,0 147,-14 204,-39l115 39z"/>
 <path class="fil1" d="M6747 -14929l204 69c-57,25 -125,39 -204,39 -79,0 -147,-14 -205,-39l205 -69z"/>
 <path class="fil1" d="M6220 -15399c0,0 1,25 6,64 -158,0 -194,-285 -187,-419 7,-134 176,0 176,0l1 0c1,182 5,355 5,355z"/>
</symbol>
<symbol id="Fm2-33-0" viewBox="12447 -16519 7669 5562">
 <path class="fil1" d="M14939 -12207l0 526 0 88c0,112 43,224 128,310 86,86 198,128 310,128l718 0 718 0c112,0 224,-43 310,-128 85,-85 128,-198 128,-310l0 -88 0 -526 -2312 0zm-2215 -3498l0 2834c0,241 197,439 438,439l6238 0c241,0 438,-197 438,-439l0 -2834c0,-241 -197,-438 -438,-438l-6238 0c-241,0 -438,197 -438,438zm-277 4310l0 -4685c0,-241 197,-438 438,-438l6793 0c241,0 438,197 438,438l0 4685c0,241 -197,438 -438,438l-6793 0c-241,0 -438,-197 -438,-438z"/>
 <path class="fil12" d="M19250 -12711l395 0 0 -394 -395 0 0 394zm0 -394zm0 -1709l395 0 0 -394 -395 0 0 394zm0 -394zm0 -285l395 0 0 -307 -395 0 0 307zm0 -307zm-525 3090l394 0 0 -394 -394 0 0 394zm0 -394zm0 -1709l394 0 0 -394 -394 0 0 394zm0 -394zm0 -285l394 0 0 -307 -394 0 0 307zm0 -307zm-83 1643l0 394 609 0 395 0 0 -394 0 -526 -395 0 -328 0 0 526 -280 0zm-246 920l1249 0 0 -394 -1249 0 0 394zm0 -394zm-44 -657l394 0 0 -394 -394 0 0 394zm0 -394zm-153 1972l394 0 0 -394 -394 0 0 394zm0 -394zm0 -1709l394 0 0 -394 -394 0 0 394zm0 -394zm0 -285l394 0 0 -307 -394 0 0 307zm0 -307zm-132 2038l394 0 0 -394 -394 0 0 394zm0 -394zm-238 920l394 0 0 -394 -394 0 0 394zm0 -394zm-3 -657l394 0 0 -394 -394 0 0 394zm0 -394zm-153 1972l394 0 0 -394 -394 0 0 394zm0 -394zm0 -1709l394 0 0 -394 -394 0 0 394zm0 -394zm0 -285l394 0 0 -307 -394 0 0 307zm0 -307zm-132 2038l394 0 0 -394 -394 0 0 394zm0 -394zm-238 920l394 0 0 -394 -394 0 0 394zm0 -394zm-3 -657l394 0 0 -394 -394 0 0 394zm0 -394zm-153 -132l394 0 0 -394 -394 0 0 394zm0 -394zm0 -285l394 0 0 -307 -394 0 0 307zm0 -307zm-132 2038l394 0 0 -394 -394 0 0 394zm0 -394zm-238 920l394 0 0 -394 -394 0 0 394zm0 -394zm-3 -657l395 0 0 -394 -395 0 0 394zm0 -394zm-153 -132l394 0 0 -394 -394 0 0 394zm0 -394zm0 -285l394 0 0 -307 -394 0 0 307zm0 -307zm-132 2038l395 0 0 -394 -395 0 0 394zm0 -394zm-238 920l395 0 0 -394 -395 0 0 394zm0 -394zm-2 -657l395 0 0 -394 -395 0 0 394zm0 -394zm-153 -132l394 0 0 -394 -394 0 0 394zm0 -394zm0 -285l394 0 0 -307 -394 0 0 307zm0 -307zm-132 2038l395 0 0 -394 -395 0 0 394zm0 -394zm-238 920l395 0 0 -394 -395 0 0 394zm0 -394zm-3 -657l395 0 0 -394 -395 0 0 394zm0 -394zm-153 -132l394 0 0 -394 -394 0 0 394zm0 -394zm0 -285l394 0 0 -307 -394 0 0 307zm0 -307zm-131 2038l394 0 0 -394 -394 0 0 394zm0 -394zm-238 920l394 0 0 -394 -394 0 0 394zm0 -394zm-3 -657l394 0 0 -394 -394 0 0 394zm0 -394zm-154 -132l395 0 0 -394 -395 0 0 394zm0 -394zm0 -285l395 0 0 -307 -395 0 0 307zm0 -307zm-131 2038l394 0 0 -394 -394 0 0 394zm0 -394zm-238 920l394 0 0 -394 -394 0 0 394zm0 -394zm-2 -657l394 0 0 -394 -394 0 0 394zm0 -394zm-153 1972l3024 0 0 -394 -3024 0 0 394zm0 -394zm0 -1709l394 0 0 -394 -394 0 0 394zm0 -394zm0 -285l394 0 0 -307 -394 0 0 307zm0 -307zm-132 2038l394 0 0 -394 -394 0 0 394zm0 -394zm-238 920l394 0 0 -394 -394 0 0 394zm0 -394zm-3 -657l394 0 0 -394 -394 0 0 394zm0 -394zm-153 1972l394 0 0 -394 -394 0 0 394zm0 -394zm0 -1709l394 0 0 -394 -394 0 0 394zm0 -394zm0 -285l394 0 0 -307 -394 0 0 307zm0 -307zm-132 2038l394 0 0 -394 -394 0 0 394zm0 -394zm-238 920l394 0 0 -394 -394 0 0 394zm0 -394zm-3 -657l394 0 0 -394 -394 0 0 394zm0 -394zm-153 1972l394 0 0 -394 -394 0 0 394zm0 -394zm0 -1709l394 0 0 -394 -394 0 0 394zm0 -394zm0 -285l394 0 0 -307 -394 0 0 307zm0 -307zm-526 3090l394 0 0 -394 -394 0 0 394zm0 -394zm0 -132l526 0 0 -394 -526 0 0 394zm0 -394zm0 -132l723 0 0 -394 -723 0 0 394zm0 -394zm0 -131l526 0 0 -394 -526 0 0 394zm0 -394zm0 -132l394 0 0 -394 -394 0 0 394zm0 -394zm0 -285l394 0 0 -307 -394 0 0 307zm0 -307zm-215 2929l0 -2834c0,-241 197,-438 438,-438l6238 0c241,0 438,197 438,438l0 2834c0,241 -197,439 -438,439l-6238 0c-241,0 -438,-197 -438,-439z"/>
 <polygon class="fil1" points="12939,-15800 13334,-15800 13334,-15494 12939,-15494 "/>
 <polygon class="fil1" points="12939,-15209 13334,-15209 13334,-14814 12939,-14814 "/>
 <polygon class="fil1" points="12939,-14683 13465,-14683 13465,-14288 12939,-14288 "/>
 <polygon class="fil1" points="12939,-14157 13663,-14157 13663,-13763 12939,-13763 "/>
 <polygon class="fil1" points="12939,-13631 13465,-13631 13465,-13237 12939,-13237 "/>
 <polygon class="fil1" points="12939,-13105 13334,-13105 13334,-12711 12939,-12711 "/>
 <polygon class="fil1" points="13465,-15800 13860,-15800 13860,-15494 13465,-15494 "/>
 <polygon class="fil1" points="13465,-15209 13860,-15209 13860,-14814 13465,-14814 "/>
 <polygon class="fil1" points="13465,-13105 13860,-13105 13860,-12711 13465,-12711 "/>
 <polygon class="fil1" points="13619,-14683 14013,-14683 14013,-14288 13619,-14288 "/>
 <polygon class="fil1" points="13622,-13631 14016,-13631 14016,-13237 13622,-13237 "/>
 <polygon class="fil1" points="13860,-14157 14254,-14157 14254,-13763 13860,-13763 "/>
 <polygon class="fil1" points="13991,-15800 14386,-15800 14386,-15494 13991,-15494 "/>
 <polygon class="fil1" points="13991,-15209 14386,-15209 14386,-14814 13991,-14814 "/>
 <polygon class="fil1" points="13991,-13105 14386,-13105 14386,-12711 13991,-12711 "/>
 <polygon class="fil1" points="14145,-14683 14539,-14683 14539,-14288 14145,-14288 "/>
 <polygon class="fil1" points="14148,-13631 14542,-13631 14542,-13237 14148,-13237 "/>
 <polygon class="fil1" points="14386,-14157 14780,-14157 14780,-13763 14386,-13763 "/>
 <polygon class="fil1" points="14517,-15800 14912,-15800 14912,-15494 14517,-15494 "/>
 <polygon class="fil1" points="14517,-15209 14912,-15209 14912,-14814 14517,-14814 "/>
 <polygon class="fil1" points="14517,-13105 17541,-13105 17541,-12711 14517,-12711 "/>
 <polygon class="fil1" points="14671,-14683 15065,-14683 15065,-14288 14671,-14288 "/>
 <polygon class="fil1" points="14673,-13631 15068,-13631 15068,-13237 14673,-13237 "/>
 <polygon class="fil1" points="14912,-14157 15306,-14157 15306,-13763 14912,-13763 "/>
 <polygon class="fil12" points="14939,-11681 14939,-12207 17251,-12207 17251,-11681 16095,-11681 "/>
 <path class="fil1" d="M14939 -11593l0 -88 1156 0 0 526 -718 0c-113,0 -225,-43 -310,-128 -85,-85 -128,-198 -128,-310z"/>
 <polygon class="fil1" points="15043,-15800 15438,-15800 15438,-15494 15043,-15494 "/>
 <polygon class="fil1" points="15043,-15209 15438,-15209 15438,-14814 15043,-14814 "/>
 <polygon class="fil1" points="15196,-14683 15591,-14683 15591,-14288 15196,-14288 "/>
 <polygon class="fil1" points="15199,-13631 15594,-13631 15594,-13237 15199,-13237 "/>
 <polygon class="fil1" points="15438,-14157 15832,-14157 15832,-13763 15438,-13763 "/>
 <polygon class="fil1" points="15569,-15800 15963,-15800 15963,-15494 15569,-15494 "/>
 <polygon class="fil1" points="15569,-15209 15963,-15209 15963,-14814 15569,-14814 "/>
 <polygon class="fil1" points="15722,-14683 16117,-14683 16117,-14288 15722,-14288 "/>
 <polygon class="fil1" points="15725,-13631 16120,-13631 16120,-13237 15725,-13237 "/>
 <polygon class="fil1" points="15963,-14157 16358,-14157 16358,-13763 15963,-13763 "/>
 <polygon class="fil1" points="16095,-15800 16489,-15800 16489,-15494 16095,-15494 "/>
 <polygon class="fil1" points="16095,-15209 16489,-15209 16489,-14814 16095,-14814 "/>
 <path class="fil1" d="M16095 -11155l0 -526 1156 0 0 88c0,112 -43,224 -128,310 -85,86 -198,128 -310,128l-718 0z"/>
 <polygon class="fil1" points="16248,-14683 16643,-14683 16643,-14288 16248,-14288 "/>
 <polygon class="fil1" points="16250,-13631 16646,-13631 16646,-13237 16250,-13237 "/>
 <polygon class="fil1" points="16489,-14157 16884,-14157 16884,-13763 16489,-13763 "/>
 <polygon class="fil1" points="16621,-15800 17015,-15800 17015,-15494 16621,-15494 "/>
 <polygon class="fil1" points="16621,-15209 17015,-15209 17015,-14814 16621,-14814 "/>
 <polygon class="fil1" points="16774,-14683 17168,-14683 17168,-14288 16774,-14288 "/>
 <polygon class="fil1" points="16776,-13631 17171,-13631 17171,-13237 16776,-13237 "/>
 <polygon class="fil1" points="17015,-14157 17409,-14157 17409,-13763 17015,-13763 "/>
 <polygon class="fil1" points="17147,-15800 17541,-15800 17541,-15494 17147,-15494 "/>
 <polygon class="fil1" points="17147,-15209 17541,-15209 17541,-14814 17147,-14814 "/>
 <polygon class="fil1" points="17300,-14683 17694,-14683 17694,-14288 17300,-14288 "/>
 <polygon class="fil1" points="17303,-13631 17697,-13631 17697,-13237 17303,-13237 "/>
 <polygon class="fil1" points="17541,-14157 17935,-14157 17935,-13763 17541,-13763 "/>
 <polygon class="fil1" points="17673,-15800 18067,-15800 18067,-15494 17673,-15494 "/>
 <polygon class="fil1" points="17673,-15209 18067,-15209 18067,-14814 17673,-14814 "/>
 <polygon class="fil1" points="17673,-13105 18067,-13105 18067,-12711 17673,-12711 "/>
 <polygon class="fil1" points="17826,-14683 18220,-14683 18220,-14288 17826,-14288 "/>
 <polygon class="fil1" points="17828,-13631 18223,-13631 18223,-13237 17828,-13237 "/>
 <polygon class="fil1" points="18067,-14157 18461,-14157 18461,-13763 18067,-13763 "/>
 <polygon class="fil1" points="18199,-15800 18593,-15800 18593,-15494 18199,-15494 "/>
 <polygon class="fil1" points="18199,-15209 18593,-15209 18593,-14814 18199,-14814 "/>
 <polygon class="fil1" points="18199,-13105 18593,-13105 18593,-12711 18199,-12711 "/>
 <polygon class="fil1" points="18352,-14683 18746,-14683 18746,-14288 18352,-14288 "/>
 <polygon class="fil1" points="18396,-13631 19645,-13631 19645,-13237 18396,-13237 "/>
 <polygon class="fil1" points="18641,-13763 18641,-14157 18922,-14157 18922,-14683 19250,-14683 19645,-14683 19645,-14157 19645,-13763 19250,-13763 "/>
 <polygon class="fil1" points="18725,-15800 19119,-15800 19119,-15494 18725,-15494 "/>
 <polygon class="fil1" points="18725,-15209 19119,-15209 19119,-14814 18725,-14814 "/>
 <polygon class="fil1" points="18725,-13105 19119,-13105 19119,-12711 18725,-12711 "/>
 <polygon class="fil1" points="19250,-15800 19645,-15800 19645,-15494 19250,-15494 "/>
 <polygon class="fil1" points="19250,-15209 19645,-15209 19645,-14814 19250,-14814 "/>
 <polygon class="fil1" points="19250,-13105 19645,-13105 19645,-12711 19250,-12711 "/>
</symbol>
<symbol id="Fm0-20-0" viewBox="8996 -22915 519 519">
 <path class="fil1" d="M8996 -22656c0,-143 116,-260 260,-260 143,0 260,116 260,260 0,143 -116,260 -260,260 -143,0 -260,-116 -260,-260z"/>
</symbol>
<symbol id="Fm6-69-0" viewBox="3790 -19367 2367 1521">
 <path class="fil26" d="M4411 -18280l-398 0 0 221 398 0 0 -221zm0 221zm1745 -651l0 649c0,118 -97,215 -215,215l-1937 0c-118,0 -215,-97 -215,-215l0 -649 2367 0z"/>
 <polygon class="fil1" points="6157,-18711 3790,-18711 3790,-19034 6157,-19034 "/>
 <path class="fil26" d="M6157 -19152l0 118 -2367 0 0 -118c0,-118 97,-215 215,-215l1937 0c118,0 215,97 215,215z"/>
 <polygon class="fil18" points="4411,-18060 4014,-18060 4014,-18280 4411,-18280 "/>
</symbol>
<symbol id="Fm5-32-0" viewBox="12637 -12434 1004 2024">
 <path class="fil1" d="M13641 -11656l0 894c0,194 -159,353 -353,353l-299 0c-194,0 -353,-159 -353,-353l0 -894 502 0 502 0z"/>
 <path class="fil9" d="M13641 -12081l0 425 -502 0 0 -778 149 0c194,0 353,159 353,353z"/>
 <path class="fil9" d="M13139 -12434l0 778 -502 0 0 -425c0,-194 159,-353 353,-353l150 0z"/>
</symbol>
<symbol id="Fm8-43-0" viewBox="30865 -16641 2989 2845">
 <path class="fil17" d="M33816 -14860c-8,-7 -17,-14 -26,-20 -8,-7 -17,-14 -26,-20 -8,-7 -17,-14 -26,-20 -8,-7 -17,-14 -26,-20 -8,-7 -17,-14 -26,-20 -8,-7 -17,-14 -26,-20 -8,-7 -17,-14 -26,-20 -8,-7 -17,-14 -26,-20 -8,-7 -17,-14 -26,-20 -8,-7 -17,-14 -26,-20 -8,-7 -17,-14 -26,-20 -8,-7 -17,-14 -26,-20 -8,-7 -17,-14 -26,-20 -8,-7 -17,-14 -26,-20 -8,-7 -17,-14 -26,-20 -8,-7 -17,-14 -26,-20 -8,-7 -17,-14 -26,-20 -8,-7 -17,-14 -26,-20 -8,-7 -17,-14 -26,-20 -8,-7 -17,-14 -26,-20 -8,-7 -17,-14 -26,-20 -8,-7 -17,-14 -26,-20 -8,-7 -17,-14 -26,-20 -8,-7 -17,-14 -26,-20 -8,-7 -17,-14 -26,-20 -8,-7 -17,-14 -26,-20 -8,-7 -17,-14 -26,-20 -8,-7 -17,-14 -26,-20 -8,-7 -17,-14 -26,-20 -8,-7 -17,-14 -26,-20 -8,-7 -17,-14 -26,-20 -8,-7 -17,-14 -26,-20 -8,-7 -17,-14 -26,-20 -8,-7 -17,-14 -26,-20 -8,-7 -17,-14 -26,-20 -8,-7 -17,-14 -26,-20 -8,-7 -17,-14 -26,-20 -8,-7 -17,-14 -26,-20 -8,-7 -17,-14 -26,-20 -8,-7 -17,-14 -26,-20 -8,-7 -17,-14 -26,-20 -8,-7 -17,-14 -26,-20 -8,-7 -17,-14 -26,-20 -8,-7 -17,-14 -26,-20 -8,-7 -17,-14 -26,-20 -8,-7 -17,-14 -26,-20 -8,-7 -17,-14 -26,-20 -8,-7 -17,-14 -26,-20 -8,-7 -17,-14 -26,-20 -8,-7 -17,-14 -26,-20 -8,-7 -17,-14 -26,-20 -8,-7 -17,-14 -26,-20 -8,-7 -17,-14 -26,-20 -8,-7 -17,-14 -26,-20 -8,-7 -17,-14 -26,-20 -8,-7 -17,-14 -26,-20 -8,-7 -17,-14 -26,-20 -8,-7 -17,-14 -26,-20 -8,-7 -17,-14 -26,-20 -8,-7 -17,-14 -26,-20 -8,-7 -17,-14 -26,-20 -8,-7 -17,-14 -26,-20 -8,-7 -17,-14 -26,-20 -8,-7 -17,-14 -26,-20 -8,-7 -17,-14 -26,-20 -8,-7 -17,-14 -26,-20 -8,-7 -17,-14 -26,-20 -8,-7 -17,-14 -26,-20 -8,-7 -17,-14 -26,-20 -8,-7 -17,-14 -26,-20 -8,-7 -17,-14 -26,-20 -8,-7 -17,-14 -26,-20 -8,-7 -17,-14 -26,-20 -8,-7 -17,-14 -26,-20 -8,-7 -17,-14 -26,-20 -8,-7 -17,-14 -26,-20 -8,-7 -17,-14 -26,-20 -8,-7 -17,-14 -26,-20 -8,-7 -17,-14 -26,-20 -8,-7 -17,-14 -26,-20 -8,-7 -17,-14 -26,-20 -8,-7 -17,-14 -26,-20 -8,-7 -17,-14 -26,-20 -8,-7 -17,-14 -26,-20 -8,-7 -17,-14 -26,-20 -68,-57 -158,-89 -261,-89 -248,0 -463,203 -463,452 0,140 56,251 152,317 8,7 17,14 26,20 8,7 17,14 26,20 8,7 17,14 26,20 8,7 17,14 26,20 8,7 17,14 26,20 8,7 17,14 26,20 8,7 17,14 26,20 8,7 17,14 26,20 8,7 17,14 26,20 8,7 17,14 26,20 8,7 17,14 26,20 8,7 17,14 26,20 8,7 17,14 26,20 8,7 17,14 26,20 8,7 17,14 26,20 8,7 17,14 26,20 8,7 17,14 26,20 8,7 17,14 26,20 8,7 17,14 26,20 8,7 17,14 26,20 8,7 17,14 26,20 8,7 17,14 26,20 8,7 17,14 26,20 8,7 17,14 26,20 8,7 17,14 26,20 8,7 17,14 26,20 8,7 17,14 26,20 8,7 17,14 26,20 8,7 17,14 26,20 8,7 17,14 26,20 8,7 17,14 26,20 8,7 17,14 26,20 8,7 17,14 26,20 8,7 17,14 26,20 8,7 17,14 26,20 8,7 17,14 26,20 8,7 17,14 26,20 8,7 17,14 26,20 8,7 17,14 26,20 8,7 17,14 26,20 8,7 17,14 26,20 8,7 17,14 26,20 8,7 17,14 26,20 8,7 17,14 26,20 8,7 17,14 26,20 8,7 17,14 26,20 8,7 17,14 26,20 8,7 17,14 26,20 8,7 17,14 26,20 8,7 17,14 26,20 8,7 17,14 26,20 8,7 17,14 26,20 8,7 17,14 26,20 8,7 17,14 26,20 8,7 17,14 26,20 8,7 17,14 26,20 8,7 17,14 26,20 8,7 17,14 26,20 8,7 17,14 26,20 8,7 17,14 26,20 8,7 17,14 26,20 8,7 17,14 26,20 8,7 17,14 26,20 8,7 17,14 26,20 8,7 17,14 26,20 8,7 17,14 26,20 8,7 17,14 26,20 8,7 17,14 26,20 8,7 17,14 26,20 8,7 17,14 26,20 8,7 17,14 26,20 8,7 17,14 26,20 8,7 17,14 26,20 8,7 17,14 26,20 8,7 17,14 26,20 8,7 17,14 26,20 8,7 17,14 26,20 8,7 17,14 26,20 8,7 17,14 26,20 8,7 17,14 26,20 8,7 17,14 26,20 8,7 17,14 26,20 8,7 17,14 26,20 8,7 17,14 26,20 8,7 17,14 26,20 8,7 17,14 26,20 8,7 17,14 26,20 8,7 17,14 26,20 8,7 17,14 26,20 8,7 17,14 26,20 8,7 17,14 26,20 8,7 17,14 26,20 8,7 17,14 26,20 8,7 17,14 26,20 8,7 17,14 26,20 8,7 17,14 26,20 8,7 17,14 26,20 8,7 17,14 26,20 8,7 17,14 26,20 8,7 17,14 26,20 57,48 131,78 218,85l0 -1034c-4,-3 -8,-7 -13,-10 -8,-7 -17,-14 -26,-20z"/>
</symbol>
<symbol id="Fm1-23-0" viewBox="11933 -24626 5159 4844">
 <path class="fil17" d="M14403 -24626l0 333 -391 -224 -2078 1197 496 338 0 6 0 1875 1737 1320 1451 0c815,0 1475,-660 1475,-1475l0 -1741 -2142 -1628 -547 0z"/>
</symbol>
<symbol id="Fm2-54-0" viewBox="18859 -8901 5944 6235">
 <path class="fil3 str0" d="M18912 -5784c0,-1692 1307,-3064 2919,-3064 1612,0 2919,1372 2919,3064 0,1692 -1307,3064 -2919,3064 -1612,0 -2919,-1372 -2919,-3064z"/>
</symbol>
<symbol id="Fm2-26-0" viewBox="18737 -5856 322 3345">
 <polygon class="fil10" points="19059,-2885 18737,-2885 18737,-5191 19059,-5191 "/>
 <polygon class="fil11" points="19059,-5279 19059,-5191 18737,-5191 18737,-5536 18792,-5536 19004,-5536 19059,-5536 "/>
 <polygon class="fil2" points="19059,-2885 18898,-2511 18737,-2885 "/>
 <polygon class="fil2" points="19004,-5536 18792,-5536 18792,-5856 19004,-5856 "/>
</symbol>
<symbol id="Symbol1" viewBox="16122 -25249 3645 5447">
 <polygon class="fil27" points="19767,-19801 16122,-19801 16122,-25249 19767,-25249 "/>
</symbol>
<symbol id="Symbol2" viewBox="18119 -4754 315 3134">
 <path class="fil28" d="M18433 -4754c0,0 -315,38 -315,837l0 2134c0,123 276,269 276,54 0,-215 -23,-2034 -23,-2318 0,-284 15,-606 61,-706z"/>
</symbol>
<symbol id="Fm11-45-0" viewBox="2053 -7080 2330 1497">
 <path class="fil1" d="M2665 -6010l-391 0 0 217 391 0 0 -217zm0 217zm1718 -641l0 639c0,117 -95,212 -212,212l-1906 0c-116,0 -212,-95 -212,-212l0 -639 2330 0z"/>
 <polygon class="fil10" points="4383,-6434 2053,-6434 2053,-6751 4383,-6751 "/>
 <path class="fil1" d="M4383 -6868l0 116 -2330 0 0 -116c0,-116 95,-212 212,-212l1906 0c116,0 212,95 212,212z"/>
 <polygon class="fil18" points="2665,-5793 2274,-5793 2274,-6010 2665,-6010 "/>
</symbol>
<symbol id="Fm7-43-0" viewBox="3865 -10945 1335 5900">
 <polygon class="fil13" points="5201,-10839 5201,-9638 4983,-9638 4983,-9805 5033,-9805 5033,-10671 4908,-10671 4908,-10839 "/>
 <polygon class="fil1" points="5054,-6662 4983,-6662 4983,-7121 5054,-7121 "/>
 <path class="fil19" d="M5006 -7691l0 -283 -23 0 0 -249c100,99 162,236 162,387 0,151 -62,289 -162,387l0 -242 23 0z"/>
 <polygon class="fil1" points="5006,-7691 4983,-7691 4983,-7974 5006,-7974 "/>
 <polygon class="fil29" points="4983,-6662 4983,-5368 4598,-5046 4217,-5368 4217,-6662 "/>
 <polygon class="fil1" points="4983,-6662 4217,-6662 4217,-7121 4983,-7121 "/>
 <path class="fil29" d="M4983 -7449l0 328 -766 0 0 -328c98,97 234,157 383,157 150,0 285,-60 383,-157z"/>
 <path class="fil19" d="M4983 -7691l0 242c-98,97 -234,157 -383,157 -149,0 -285,-60 -383,-157l0 -242 766 0z"/>
 <polygon class="fil7" points="4983,-7691 4217,-7691 4217,-7974 4983,-7974 "/>
 <path class="fil19" d="M4983 -8223l0 249 -766 0 0 -249c98,-97 234,-157 383,-157 150,0 285,60 383,157z"/>
 <path class="fil29" d="M4983 -9638l0 1415c-98,-97 -234,-157 -383,-157 -149,0 -285,60 -383,157l0 -1415 766 0z"/>
 <polygon class="fil29" points="4983,-9638 4217,-9638 4217,-9805 4983,-9805 "/>
 <polygon class="fil29" points="4983,-9953 4983,-9805 4217,-9805 4217,-9953 4492,-9953 4492,-9855 4704,-9855 4704,-9953 "/>
 <polygon class="fil19" points="4908,-10588 4704,-10588 4704,-10671 4908,-10671 "/>
 <polygon class="fil19" points="4908,-10839 4908,-10671 4704,-10671 4704,-10684 4492,-10684 4492,-10671 4287,-10671 4287,-10839 "/>
 <polygon class="fil19" points="4908,-10839 4287,-10839 4287,-10945 4908,-10945 "/>
 <polygon class="fil1" points="4704,-9855 4492,-9855 4492,-9953 4704,-9953 "/>
 <polygon class="fil1" points="4704,-9953 4492,-9953 4492,-10588 4704,-10588 "/>
 <polygon class="fil1" points="4704,-10588 4492,-10588 4492,-10671 4704,-10671 "/>
 <polygon class="fil12" points="4704,-10671 4492,-10671 4492,-10684 4704,-10684 "/>
 <polygon class="fil19" points="4492,-10588 4287,-10588 4287,-10671 4492,-10671 "/>
 <polygon class="fil13" points="4287,-10839 4287,-10671 4167,-10671 4167,-9805 4217,-9805 4217,-9638 4000,-9638 4000,-10839 "/>
 <polygon class="fil1" points="4217,-6662 4146,-6662 4146,-7121 4217,-7121 "/>
 <path class="fil19" d="M4217 -7691l0 242c-53,-52 -94,-114 -122,-183l0 -401 -3 0c28,-72 71,-137 125,-191l0 249 -23 0 0 283 23 0z"/>
 <polygon class="fil1" points="4217,-7691 4194,-7691 4194,-7974 4217,-7974 "/>
 <path class="fil19" d="M4095 -8033l0 401c-26,-63 -40,-132 -40,-204 0,-70 13,-136 37,-197l3 0z"/>
 <path class="fil13" d="M4095 -7632l-230 0 0 -401 227 0c-24,61 -37,127 -37,197 0,72 14,141 40,204z"/>
</symbol>
<symbol id="Fm3-35-0" viewBox="4200 -17021 3009 4004">
 <polygon class="fil1" points="7209,-16628 7209,-13182 6948,-13182 6948,-14601 6948,-14905 6948,-15191 6948,-16628 "/>
 <path class="fil19" d="M6948 -13182l0 165 -2747 0 0 -1888 1097 0c53,150 175,303 448,303l1203 0 0 1420z"/>
 <path class="fil5" d="M6948 -14905l0 303 -1203 0c-273,0 -395,-153 -448,-303l1651 0z"/>
 <path class="fil5" d="M6948 -15191l0 286 -1651 0c-51,-144 -40,-286 -40,-286l1691 0z"/>
 <path class="fil13" d="M6948 -16628l0 1437 -1691 0c0,0 -12,141 40,286l-1097 0 0 -1888 386 0 0 991 296 -167 296 167 0 -991 1769 0 0 165z"/>
 <path class="fil29" d="M4987 -16272l104 -101 -144 -21 -65 -130 -64 130 -144 21 104 101 -24 144 129 -68 129 68 -25 -144zm192 -521l0 991 -296 -167 -296 167 0 -991 592 0z"/>
 <polygon class="fil29" points="5179,-16793 4587,-16793 4587,-17021 5179,-17021 "/>
 <polygon class="fil1" points="5091,-16374 4987,-16272 5011,-16129 4883,-16197 4754,-16129 4778,-16272 4674,-16374 4818,-16395 4883,-16525 4947,-16395 "/>
</symbol>
<symbol id="Fm10-27-0" viewBox="2994 -21024 3378 1978">
 <polygon class="fil1" points="6373,-19703 6373,-19384 6228,-19331 6228,-19684 6228,-19730 "/>
 <path class="fil29" d="M5965 -20928l407 1225 -145 -53 0 26 -4 -1c-9,-51 -33,-100 -73,-139 -30,-30 -65,-51 -102,-63l-189 -861c-167,-50 -219,-230 -219,-230l324 96z"/>
 <polygon class="fil1" points="6373,-19703 6228,-19730 6228,-19756 "/>
 <path class="fil19" d="M6045 -19361l0 -272c0,-49 -19,-98 -56,-135 -37,-37 -86,-56 -135,-56l-585 0c-49,0 -98,19 -135,56 -37,37 -56,86 -56,135l0 81c0,98 37,195 112,270 75,74 172,112 270,112l394 0c49,0 98,-19 135,-56 37,-37 56,-86 56,-135zm183 29l0 22c0,67 -26,135 -77,186 -52,51 -119,77 -186,77l-543 0c-135,0 -269,-51 -372,-154 -103,-103 -154,-237 -154,-372l0 -109c14,11 21,19 21,19l0 -124c13,-30 32,-59 56,-84 51,-51 119,-77 186,-77l806 0c28,0 57,5 84,14l39 177 136 25c3,15 4,31 4,47l0 353z"/>
 <path class="fil19" d="M6224 -19731l-136 -25 -39 -177c37,12 72,34 102,63 39,39 64,88 73,139z"/>
 <path class="fil9" d="M6045 -19632l0 272c0,49 -19,98 -56,135 -37,37 -86,56 -135,56l-394 0c-98,0 -195,-37 -270,-112 -74,-75 -112,-172 -112,-270l0 -81c0,-49 19,-98 56,-135 37,-37 86,-56 135,-56l585 0c49,0 98,19 135,56 37,37 56,86 56,135z"/>
 <path class="fil1" d="M4917 -19786l0 124c0,0 -7,-8 -21,-19l0 -3c0,-35 7,-70 21,-102z"/>
 <path class="fil12" d="M4917 -19788l0 2c-14,33 -21,67 -21,102l0 3c-35,-29 -111,-80 -213,-80 -101,0 -177,50 -212,79l0 -2c0,-35 -7,-71 -22,-104 0,0 93,-99 234,-99 141,0 234,99 234,99z"/>
 <path class="fil19" d="M4288 -19552l0 -81c0,-49 -18,-98 -56,-135 -37,-37 -86,-56 -135,-56l-585 0c-49,0 -98,19 -135,56 -37,37 -56,86 -56,135l0 272c0,49 19,98 56,135 37,37 86,56 135,56l394 0c98,0 195,-37 270,-112 75,-75 112,-172 112,-270zm183 -131l0 110c0,135 -52,269 -154,372 -103,102 -237,154 -372,154l-543 0c-67,0 -135,-26 -186,-77 -51,-52 -77,-119 -77,-186l0 -22 0 -353c0,-16 1,-31 4,-47l136 -25 39 -177c27,-9 55,-14 84,-14l806 0c67,0 134,26 186,77 24,24 43,52 55,82l0 125c0,0 8,-8 22,-19z"/>
 <path class="fil1" d="M4471 -19684l0 2c-14,12 -22,19 -22,19l0 -125c14,33 22,68 22,104z"/>
 <path class="fil9" d="M4288 -19632l0 81c0,98 -37,195 -112,270 -74,74 -172,112 -270,112l-394 0c-49,0 -98,-19 -135,-56 -37,-37 -56,-86 -56,-135l0 -272c0,-49 19,-98 56,-135 37,-37 86,-56 135,-56l585 0c49,0 98,19 135,56 37,37 56,86 56,135z"/>
 <path class="fil29" d="M3402 -20928l324 -96c0,0 -53,180 -219,230l-189 861c-37,13 -72,34 -102,63 -39,39 -64,88 -73,139l-4 1 0 -26 -145 53 407 -1225z"/>
 <path class="fil19" d="M3318 -19933l-39 177 -136 25c9,-51 33,-100 73,-139 30,-30 65,-51 102,-63z"/>
 <polygon class="fil1" points="3139,-19684 3139,-19331 2994,-19384 2994,-19703 3139,-19730 "/>
 <polygon class="fil1" points="3139,-19756 3139,-19730 2994,-19703 "/>
</symbol>
<symbol id="Fm6-34-0" viewBox="3293 -22814 3459 4524">
 <path class="fil1" d="M6450 -21397l-2156 0 0 1035 2156 0 0 -1035zm0 1035zm302 -1345l0 3070 -345 0 -2415 0 0 -3829 2001 0 0 759 759 0z"/>
 <polygon class="fil1" points="6752,-21707 5993,-21707 5993,-22466 "/>
 <polygon class="fil9" points="6450,-20362 4294,-20362 4294,-21397 6450,-21397 "/>
 <path class="fil30" d="M6407 -18637l0 348 -2767 0c-192,0 -348,-155 -348,-348l3 0c0,-193 156,-348 348,-348 192,0 348,155 348,348l2415 0z"/>
 <path class="fil10" d="M3993 -22466l0 3829c0,-192 -156,-348 -348,-348 -193,0 -348,155 -348,348l0 -3829c0,-192 156,-348 348,-348 192,0 348,155 348,348z"/>
</symbol>
<symbol id="Fm2-40-0" viewBox="20451 -19702 5272 5529">
 <path class="fil3 str0" d="M20504 -16937c0,-1498 1156,-2712 2583,-2712 1427,0 2583,1214 2583,2712 0,1498 -1156,2712 -2583,2712 -1426,0 -2583,-1214 -2583,-2712z"/>
</symbol>
<symbol id="Fm2-32-0" viewBox="3380 -19751 5365 5627">
 <path class="fil3 str0" d="M3433 -16937c0,-1525 1177,-2760 2629,-2760 1452,0 2629,1236 2629,2760 0,1525 -1177,2760 -2629,2760 -1452,0 -2629,-1236 -2629,-2760z"/>
</symbol>
<symbol id="Fm1-25-0" viewBox="14298 -9477 4556 436">
 <polygon class="fil5" points="18246,-9477 18398,-9477 18398,-9041 18246,-9041 "/>
 <polygon class="fil2" points="16134,-9477 18246,-9477 18246,-9041 16134,-9041 "/>
 <polygon class="fil5" points="15858,-9477 16134,-9477 16134,-9041 15858,-9041 "/>
 <polygon class="fil2" points="14904,-9477 15858,-9477 15858,-9041 14904,-9041 "/>
 <polygon class="fil5" points="14643,-9477 14904,-9477 14904,-9041 14643,-9041 14643,-9117 14643,-9402 "/>
 <polygon class="fil6" points="18398,-9477 18854,-9259 18398,-9041 "/>
 <polygon class="fil6" points="14298,-9402 14643,-9402 14643,-9117 14298,-9117 "/>
</symbol>
<symbol id="Fm9-45-0" viewBox="3644 -8567 4905 4922">
 <path class="fil17" d="M6923 -8271c-39,0 -72,24 -84,58 -2,-1 -4,-3 -7,-4 -16,-14 -33,-27 -52,-39 -90,-80 -227,-131 -381,-131 -116,0 -223,29 -307,78 -9,-7 -179,-138 -212,-138l-315 0c-49,0 -89,38 -89,86l0 401 -863 -604 -94 0 0 237 -17 0 -259 -237 -95 0 -506 331 0 656 451 288 -176 2269 1818 1378 1337 0c127,0 249,-16 366,-46 0,0 97,-30 181,-59 493,-230 928,-749 928,-1370l0 -2146c-667,-509 -1326,-1005 -1342,-1005l-284 0z"/>
</symbol>
<symbol id="Fm8-73-0" viewBox="19398 -20595 1332 2516">
 <path class="fil1" d="M20505 -19901c0,-244 -197,-441 -441,-441 -243,0 -441,197 -441,441 0,244 197,441 441,441 244,0 441,-197 441,-441zm-441 -693c391,0 666,190 666,698 0,507 -666,1818 -666,1818 0,0 -666,-1311 -666,-1818 0,-507 275,-698 666,-698z"/>
 <path class="fil10" d="M20252 -19901c0,-104 -84,-188 -188,-188 -104,0 -187,84 -187,188 0,104 84,188 187,188 104,0 188,-84 188,-188zm-188 -441c244,0 441,197 441,441 0,244 -197,441 -441,441 -243,0 -441,-197 -441,-441 0,-244 197,-441 441,-441z"/>
</symbol>
<symbol id="Fm10-43-0" viewBox="2802 -9766 2330 1497">
 <path class="fil1" d="M3414 -8696l-391 0 0 217 391 0 0 -217zm0 217zm1718 -641l0 639c0,116 -95,212 -212,212l-1906 0c-116,0 -212,-95 -212,-212l0 -639 2330 0z"/>
 <polygon class="fil10" points="5131,-9120 2802,-9120 2802,-9437 5131,-9437 "/>
 <path class="fil1" d="M5131 -9554l0 116 -2330 0 0 -116c0,-117 95,-212 212,-212l1906 0c116,0 212,95 212,212z"/>
 <polygon class="fil18" points="3414,-8479 3022,-8479 3022,-8696 3414,-8696 "/>
</symbol>
<symbol id="Fm1-30-0" viewBox="2573 -20557 6979 7270">
 <path class="fil3 str1" d="M2643 -16937c0,-1982 1531,-3589 3419,-3589 1888,0 3419,1607 3419,3589 0,1982 -1531,3589 -3419,3589 -1888,0 -3419,-1607 -3419,-3589z"/>
</symbol>
<symbol id="Fm9-40-0" viewBox="23942 -16686 1715 1715">
 <polygon class="fil2" points="25657,-14971 25367,-15076 25245,-15239 25389,-15382 25552,-15261 "/>
 <polygon class="fil22" points="24197,-16606 24783,-16020 24768,-16004 24624,-15860 24609,-15845 24022,-16431 24038,-16447 24181,-16590 "/>
 <polygon class="fil23" points="25289,-15482 25389,-15382 25245,-15239 25146,-15339 "/>
 <polygon class="fil22" points="24768,-16004 25289,-15482 25146,-15339 24624,-15860 "/>
 <polygon class="fil2" points="24086,-16686 24181,-16590 24038,-16447 24007,-16478 23942,-16542 "/>
</symbol>
<symbol id="Fm7-41-0" viewBox="29849 -15603 4006 3901">
 <path class="fil17" d="M33823 -13589c-8,-7 -17,-14 -26,-20 -8,-7 -17,-14 -26,-20 -8,-7 -17,-14 -26,-20 -8,-7 -17,-14 -26,-20 -8,-7 -17,-14 -26,-20 -8,-7 -17,-14 -26,-20 -8,-7 -17,-14 -26,-20 -9,-7 -17,-14 -27,-20 -8,-7 -17,-14 -26,-20 -8,-7 -17,-14 -26,-20 -8,-7 -17,-14 -26,-20 -8,-7 -17,-14 -26,-20 -8,-7 -17,-14 -26,-20 -8,-7 -17,-14 -26,-20 -8,-7 -17,-14 -26,-20 -8,-7 -17,-14 -26,-20 -8,-7 -17,-14 -26,-20 -8,-7 -17,-14 -26,-20 -8,-7 -17,-14 -26,-20 -8,-7 -17,-14 -26,-20 -8,-7 -17,-14 -26,-20 -8,-7 -17,-14 -26,-20 -8,-7 -17,-14 -26,-20 -8,-7 -17,-14 -26,-20 -8,-7 -17,-14 -26,-20 -8,-7 -17,-14 -26,-20 -8,-7 -17,-14 -26,-20 -8,-7 -17,-14 -26,-20 -8,-7 -17,-14 -26,-20 -9,-7 -17,-14 -26,-20 -8,-7 -17,-14 -26,-20 -8,-7 -17,-14 -26,-20 -8,-7 -17,-14 -26,-20 -8,-7 -17,-14 -26,-20 -8,-7 -17,-14 -26,-20 -8,-7 -17,-14 -26,-20 -8,-7 -17,-14 -26,-20 -9,-7 -17,-14 -27,-20 -8,-7 -17,-14 -26,-20 -8,-7 -17,-14 -26,-20 -8,-7 -17,-14 -26,-20 -8,-7 -17,-14 -26,-20 -8,-7 -17,-14 -26,-20 -8,-7 -17,-14 -26,-20 -8,-7 -17,-14 -26,-20 -8,-7 -17,-14 -26,-20 -8,-7 -17,-14 -26,-20 -8,-7 -17,-14 -26,-20 -8,-7 -17,-14 -26,-20 -8,-7 -17,-14 -26,-20 -8,-7 -17,-14 -26,-20 -8,-7 -17,-14 -26,-20 -9,-7 -17,-14 -26,-20 -8,-7 -17,-14 -26,-20 -8,-7 -17,-14 -26,-20 -8,-7 -17,-14 -26,-20 -8,-7 -17,-14 -26,-20 -9,-7 -17,-14 -26,-20 -8,-7 -17,-14 -26,-20 -8,-7 -17,-14 -26,-20 -8,-7 -17,-14 -26,-20 -8,-7 -17,-14 -26,-20 -8,-7 -17,-14 -26,-20 -9,-7 -17,-14 -26,-20 -8,-7 -17,-14 -26,-20 -8,-7 -17,-14 -26,-20 -8,-7 -17,-14 -26,-20 -8,-7 -17,-14 -26,-20 -9,-7 -17,-14 -27,-20 -8,-7 -17,-14 -26,-20 -8,-7 -17,-14 -26,-20 -8,-7 -17,-14 -26,-20 -8,-7 -17,-14 -26,-20 -8,-7 -17,-14 -26,-20 -9,-7 -17,-14 -26,-20 -8,-7 -17,-14 -26,-20 -8,-7 -17,-14 -26,-20 -8,-7 -17,-14 -26,-20 -8,-7 -17,-14 -26,-20 -9,-7 -17,-14 -26,-20 -8,-7 -17,-14 -26,-20 -8,-7 -17,-14 -26,-20 -8,-7 -17,-14 -26,-20 -8,-7 -17,-14 -26,-20 -8,-7 -17,-14 -26,-20 -8,-7 -17,-14 -26,-20 -8,-7 -17,-14 -26,-20 -8,-7 -17,-14 -26,-20 -8,-7 -17,-14 -26,-20 -8,-7 -17,-14 -26,-20 -8,-7 -17,-14 -26,-20 -8,-7 -17,-14 -26,-20 -8,-7 -17,-14 -26,-20 -8,-7 -17,-14 -26,-20 -8,-7 -17,-14 -26,-20 -8,-7 -17,-14 -26,-20 -8,-7 -17,-14 -26,-20 -71,-60 -169,-83 -264,-83 -327,0 -621,164 -847,378 -73,73 -322,310 -322,412 0,26 20,55 46,67 7,8 16,15 26,20 7,8 16,15 26,20 7,8 16,15 26,20 7,8 16,15 26,20 7,8 16,15 26,20 7,8 16,15 26,20 7,8 16,15 26,20 7,8 16,15 26,20 7,8 16,15 26,20 7,8 16,15 26,20 7,8 16,15 26,20 7,8 16,15 26,20 7,8 16,15 26,20 7,8 16,15 26,20 7,8 16,15 26,20 5,5 10,10 16,14l-139 349c-40,96 -232,559 -232,830 0,121 45,204 120,254 8,7 17,14 26,20 8,7 17,14 26,20 8,7 17,14 26,20 8,7 17,14 26,20 8,7 17,14 26,20 8,7 17,14 26,20 8,7 17,14 26,20 8,7 17,14 26,20 8,7 17,14 26,20 8,7 17,14 26,20 8,7 17,14 26,20 8,7 17,14 26,20 8,7 17,14 26,20 8,7 17,14 26,20 8,7 17,14 26,20 8,7 17,14 26,20 8,7 17,14 26,20 8,7 17,14 26,20 8,7 17,14 26,20 8,7 17,14 26,20 8,7 17,14 26,20 8,7 17,14 26,20 8,7 17,14 26,20 8,7 17,14 26,20 8,7 17,14 26,20 8,7 17,14 26,20 8,7 17,14 26,20 8,7 17,14 26,20 8,7 17,14 26,20 8,7 17,14 26,20 8,7 17,14 26,20 8,7 17,14 26,20 8,7 17,14 26,20 8,7 17,14 26,20 8,7 17,14 26,20 8,7 17,14 26,20 8,7 17,14 26,20 8,7 17,14 26,20 8,7 17,14 26,20 8,7 17,14 26,20 8,7 17,14 26,20 8,7 17,14 26,20 8,7 17,14 26,20 8,7 17,14 26,20 8,7 17,14 26,20 8,7 17,14 26,20 8,7 17,14 26,20 8,7 17,14 26,20 8,7 17,14 26,20 8,7 17,14 26,20 8,7 17,14 26,20 8,7 17,14 26,20 8,7 17,14 26,20 8,7 17,14 26,20 8,7 17,14 26,20 8,7 17,14 26,20 8,7 17,14 26,20 8,7 17,14 26,20 8,7 17,14 26,20 8,7 17,14 26,20 8,7 17,14 26,20 8,7 17,14 26,20 8,7 17,14 26,20 8,7 17,14 26,20 8,7 17,14 26,20 2,2 4,3 7,5l616 0c815,0 1475,-660 1475,-1475l0 -387c-2,-1 -4,-3 -6,-4 -8,-7 -17,-14 -26,-20z"/>
</symbol>
<symbol id="Fm6-39-0" viewBox="21211 -16278 4375 4594">
 <path class="fil17" d="M21844 -16278l0 0 -633 0 0 2825 2327 1769 573 0c815,0 1475,-660 1475,-1475l0 -1941 -1550 -1178 -2192 0z"/>
</symbol>
<symbol id="Fm1-41-0" viewBox="18998 -21227 8177 8579">
 <path class="fil31 str2" d="M19051 -16937c0,-2340 1807,-4237 4036,-4237 2229,0 4036,1897 4036,4237 0,2340 -1807,4237 -4036,4237 -2229,0 -4036,-1897 -4036,-4237z"/>
 <path class="fil31 str3" d="M19728 -16937c0,-1947 1504,-3526 3359,-3526 1855,0 3359,1579 3359,3526 0,1947 -1504,3526 -3359,3526 -1855,0 -3359,-1579 -3359,-3526z"/>
 <path class="fil31 str2" d="M20504 -16937c0,-1498 1156,-2712 2583,-2712 1427,0 2583,1214 2583,2712 0,1498 -1156,2712 -2583,2712 -1426,0 -2583,-1214 -2583,-2712z"/>
</symbol>
<symbol id="Fm2-55-0" viewBox="17217 -10625 9228 9682">
 <path class="fil31 str2" d="M17270 -5784c0,-2644 2042,-4788 4561,-4788 2519,0 4561,2144 4561,4788 0,2644 -2042,4788 -4561,4788 -2519,0 -4561,-2144 -4561,-4788z"/>
 <path class="fil31 str3" d="M18035 -5784c0,-2201 1699,-3985 3796,-3985 2096,0 3796,1784 3796,3985 0,2201 -1699,3985 -3796,3985 -2096,0 -3796,-1784 -3796,-3985z"/>
 <path class="fil31 str2" d="M18912 -5784c0,-1692 1307,-3064 2919,-3064 1612,0 2919,1372 2919,3064 0,1692 -1307,3064 -2919,3064 -1612,0 -2919,-1372 -2919,-3064z"/>
</symbol>
<symbol id="Fm3-63-0" viewBox="3191 -10014 8193 8596">
 <path class="fil31 str2" d="M3244 -5716c0,-2344 1810,-4245 4044,-4245 2233,0 4044,1901 4044,4245 0,2344 -1810,4245 -4044,4245 -2233,0 -4044,-1900 -4044,-4245z"/>
 <path class="fil31 str3" d="M3922 -5716c0,-1951 1507,-3533 3365,-3533 1858,0 3365,1582 3365,3533 0,1951 -1507,3533 -3365,3533 -1858,0 -3365,-1582 -3365,-3533z"/>
 <path class="fil31 str2" d="M4699 -5716c0,-1500 1159,-2717 2588,-2717 1429,0 2588,1216 2588,2717 0,1500 -1159,2717 -2588,2717 -1429,0 -2588,-1216 -2588,-2717z"/>
</symbol>
<symbol id="Fm0-33-0" viewBox="1901 -21303 8322 8732">
 <path class="fil31 str2" d="M1954 -16937c0,-2382 1839,-4313 4108,-4313 2269,0 4108,1931 4108,4313 0,2382 -1839,4313 -4108,4313 -2269,0 -4108,-1931 -4108,-4313z"/>
 <path class="fil31 str3" d="M2643 -16937c0,-1982 1531,-3589 3419,-3589 1888,0 3419,1607 3419,3589 0,1982 -1531,3589 -3419,3589 -1888,0 -3419,-1607 -3419,-3589z"/>
 <path class="fil31 str2" d="M3433 -16937c0,-1525 1177,-2760 2629,-2760 1452,0 2629,1236 2629,2760 0,1525 -1177,2760 -2629,2760 -1452,0 -2629,-1236 -2629,-2760z"/>
</symbol>
 <g id="Layer_x0020_1">
  <metadata id="CorelCorpID_0Corel-Layer"/>
  <g id="_1040205488">
   <rect class="fil32" x="111" y="92" width="510" height="295"/>
   <rect class="fil33" x="364" y="92" width="258" height="295"/>
   <path class="fil34" d="M102 83l0 300c0,2 2,4 4,4l515 0c2,0 4,-2 4,-4l0 -300 -524 0zm519 331l-515 0c-17,0 -31,-14 -31,-31l0 -343c0,-17 14,-31 31,-31l515 0c17,0 31,14 31,31l0 343c0,17 -14,31 -31,31z"/>
   <path class="fil35" d="M364 387l258 0c2,0 4,-2 4,-4l0 -300 -262 0 0 -74 258 0c17,0 31,14 31,31l0 343c0,17 -14,31 -31,31l-258 0 0 -27z"/>
   <path class="fil36" d="M111 92l0 286 506 0 0 -286 -506 0zm-18 291l0 -300 0 -9 9 0 524 0 9 0 0 9 0 300c0,4 -1,7 -4,9 -2,2 -6,4 -9,4l-515 0c-4,0 -7,-1 -9,-4l0 0c-2,-2 -4,-6 -4,-9zm528 40l-515 0c-11,0 -21,-4 -28,-12l0 0c-7,-7 -12,-17 -12,-28l0 -343c0,-11 4,-21 12,-28l0 0c7,-7 17,-12 28,-12l515 0c11,0 21,4 28,12l0 0c7,7 12,17 12,28l0 343c0,11 -4,21 -12,28 -7,7 -17,12 -28,12zm-515 -18l515 0c6,0 12,-2 16,-6 4,-4 6,-9 6,-16l0 -343c0,-6 -2,-12 -6,-16 -4,-4 -9,-6 -16,-6l-515 0c-6,0 -12,2 -16,6l0 0c-4,4 -6,9 -6,16l0 343c0,6 2,12 6,16l0 0c4,4 9,6 16,6z"/>
   <path class="fil34" d="M700 499l-673 0c-11,0 -20,-9 -20,-20l0 -17c0,-11 9,-20 20,-20l673 0c11,0 20,9 20,20l0 17c0,11 -9,20 -20,20z"/>
   <path class="fil35" d="M700 499l-336 0 0 -56 336 0c11,0 20,9 20,20l0 17c0,11 -9,20 -20,20z"/>
   <path class="fil36" d="M700 508l-673 0c-8,0 -15,-3 -20,-8l0 0c-5,-5 -8,-12 -8,-20l0 -17c0,-8 3,-15 8,-20l0 0c5,-5 12,-8 20,-8l673 0c8,0 15,3 20,8 5,5 8,12 8,20l0 17c0,8 -3,15 -8,20l0 0 0 0c-5,5 -12,8 -20,8zm-673 -18l673 0c3,0 6,-1 8,-3l0 0c2,-2 3,-5 3,-7l0 -17c0,-3 -1,-6 -3,-8 -2,-2 -5,-3 -8,-3l-673 0c-3,0 -6,1 -7,3l0 0c-2,2 -3,5 -3,8l0 17c0,3 1,6 3,8l0 0c2,2 5,3 7,3z"/>
   <circle class="fil37" cx="364" cy="46" r="15"/>
   <path class="fil36" d="M493 101l-258 0c-13,0 -24,11 -24,24l0 19 0 206c0,4 3,6 6,6l292 0c4,0 6,-3 6,-6l0 -206 0 -19c0,-13 -11,-24 -24,-24z"/>
   <path class="fil38" d="M225 125c0,-6 5,-11 11,-11l258 0c6,0 11,5 11,11l0 13 -279 0 0 -13z"/>
   <path class="fil39" d="M364 114l129 0c6,0 11,5 11,11l0 13 -139 0 0 -24z"/>
   <polygon class="fil40" points="504,344 225,344 225,151 504,151 "/>
   <polygon class="fil41" points="504,344 364,344 364,151 504,151 "/>
   <path class="fil36" d="M251 259l137 0c10,0 18,-8 18,-18l0 -64c0,-10 -8,-18 -18,-18l-137 0c-10,0 -18,8 -18,18l0 64c0,10 8,18 18,18z"/>
   <path class="fil42" d="M246 177c0,-3 3,-6 6,-6l137 0c3,0 6,3 6,6l0 64c0,3 -2,6 -6,6l-137 0c-3,0 -6,-3 -6,-6l0 -64z"/>
   <path class="fil36" d="M239 288l161 0c4,0 6,-3 6,-6 0,-4 -3,-6 -6,-6l-161 0c-4,0 -6,3 -6,6 0,4 3,6 6,6z"/>
   <path class="fil36" d="M239 309l161 0c4,0 6,-3 6,-6 0,-4 -3,-6 -6,-6l-161 0c-4,0 -6,3 -6,6 0,4 3,6 6,6z"/>
   <path class="fil36" d="M239 331l161 0c4,0 6,-3 6,-6 0,-4 -3,-6 -6,-6l-161 0c-4,0 -6,3 -6,6 0,4 3,6 6,6z"/>
   <path class="fil36" d="M306 237c1,1 3,1 4,1 3,0 5,-1 7,-3l20 -20c4,-4 4,-10 0,-14l-20 -20c-3,-3 -7,-4 -11,-2 -4,2 -6,5 -6,9l0 41c0,4 2,8 6,9z"/>
   <polygon class="fil43" points="312,194 326,207 312,221 "/>
   <path class="fil36" d="M284 120c-4,0 -7,3 -7,7 0,4 3,7 7,7 4,0 7,-3 7,-7 0,-4 -3,-7 -7,-7z"/>
   <path class="fil36" d="M263 120c-4,0 -7,3 -7,7 0,4 3,7 7,7 4,0 7,-3 7,-7 0,-4 -3,-7 -7,-7z"/>
   <path class="fil36" d="M243 120c-4,0 -7,3 -7,7 0,4 3,7 7,7 4,0 7,-3 7,-7 0,-4 -3,-7 -7,-7z"/>
   <path class="fil36" d="M488 288l-17 -89c-1,-6 6,-10 10,-6l70 57c5,4 2,12 -4,12l-28 -1c-3,0 -5,1 -6,4l-12 26c-3,6 -11,5 -12,-2z"/>
   <path class="fil36" d="M538 310c-4,0 -7,-2 -9,-5l-25 -41c-3,-5 -1,-12 4,-15 5,-3 12,-1 15,4l25 41c3,5 1,12 -4,15 -2,1 -4,2 -5,2z"/>
  </g>
 </g>
</svg>
