<?xml version="1.0" encoding="UTF-8"?>
<!DOCTYPE svg PUBLIC "-//W3C//DTD SVG 1.1//EN" "http://www.w3.org/Graphics/SVG/1.1/DTD/svg11.dtd">
<!-- Creator: CorelDRAW X6 -->
<svg xmlns="http://www.w3.org/2000/svg" xml:space="preserve" width="25.4mm" height="25.4mm" version="1.1" style="shape-rendering:geometricPrecision; text-rendering:geometricPrecision; image-rendering:optimizeQuality; fill-rule:evenodd; clip-rule:evenodd"
viewBox="0 0 2540 2540"
 xmlns:xlink="http://www.w3.org/1999/xlink">
 <defs>
  <style type="text/css">
   <![CDATA[
    .fil0 {fill:#434242;fill-rule:nonzero}
   ]]>
  </style>
 </defs>
 <g id="Layer_x0020_1">
  <metadata id="CorelCorpID_0Corel-Layer"/>
  <g id="_702491168">
   <path class="fil0" d="M824 1772c0,58 55,114 110,114l163 0c53,0 103,-55 103,-114l0 -1003c0,-58 -50,-114 -103,-114l-163 0c-55,0 -110,55 -110,114l0 1003zm151 22c-14,0 -24,-12 -24,-24l0 -1004c0,-12 10,-24 24,-24l74 0c12,0 24,12 24,24l0 1004c0,12 -12,24 -24,24l-74 0zm363 -43c0,69 52,134 143,134l84 0c95,0 151,-69 151,-155l0 -315c0,-88 -38,-131 -89,-163l-138 -91c-16,-10 -24,-24 -24,-41l0 -348c2,-12 12,-22 26,-22l72 0c12,0 24,12 24,24l0 315 129 0 0 -296c0,-71 -53,-138 -143,-138l-84 0c-95,0 -151,69 -151,158l0 296c0,65 26,124 86,160l143 96c14,9 20,26 20,39l0 368c-2,9 -9,19 -20,19l-79 0c-12,0 -22,-12 -22,-24l0 -323 -127 0 0 306 0 0z"/>
   <path class="fil0" d="M1270 133c314,0 598,127 804,333 206,206 333,490 333,804 0,314 -127,598 -333,804 -206,206 -490,333 -804,333 -314,0 -598,-127 -804,-333 -206,-206 -333,-490 -333,-804 0,-314 127,-598 333,-804 206,-206 490,-333 804,-333zm758 380c-194,-194 -462,-314 -758,-314 -296,0 -564,120 -758,314 -194,194 -314,462 -314,758 0,296 120,564 314,758 194,194 462,314 758,314 296,0 564,-120 758,-314 194,-194 314,-462 314,-758 0,-296 -120,-564 -314,-758z"/>
   <path class="fil0" d="M1270 1c351,0 668,142 898,372 230,230 372,547 372,898 0,351 -142,668 -372,898 -230,230 -547,372 -898,372 -351,0 -668,-142 -898,-372 -230,-230 -372,-547 -372,-898 0,-351 142,-668 372,-898 230,-230 547,-372 898,-372zm882 387c-226,-226 -538,-366 -882,-366 -345,0 -657,140 -882,366 -226,226 -366,538 -366,882 0,345 140,657 366,882 226,226 538,366 882,366 345,0 657,-140 882,-366 226,-226 366,-538 366,-882 0,-345 -140,-657 -366,-882z"/>
  </g>
 </g>
</svg>
