<?xml version="1.0" encoding="UTF-8"?>
<!DOCTYPE svg PUBLIC "-//W3C//DTD SVG 1.1//EN" "http://www.w3.org/Graphics/SVG/1.1/DTD/svg11.dtd">
<!-- Creator: CorelDRAW X6 -->
<svg xmlns="http://www.w3.org/2000/svg" xml:space="preserve" width="64.77mm" height="61.1292mm" version="1.1" style="shape-rendering:geometricPrecision; text-rendering:geometricPrecision; image-rendering:optimizeQuality; fill-rule:evenodd; clip-rule:evenodd"
viewBox="0 0 6477 6113"
 xmlns:xlink="http://www.w3.org/1999/xlink">
 <defs>
  <style type="text/css">
   <![CDATA[
    .str2 {stroke:#302D2D;stroke-width:105.83;stroke-linecap:round;stroke-linejoin:round;stroke-opacity:0.200000}
    .str1 {stroke:#302D2D;stroke-width:105.83;stroke-linecap:round;stroke-linejoin:round}
    .str3 {stroke:#302D2D;stroke-width:141.11;stroke-linecap:round;stroke-linejoin:round;stroke-dasharray:423.300000 1100.580000;stroke-opacity:0.200000}
    .str0 {stroke:#302D2D;stroke-width:141.11;stroke-linecap:round;stroke-linejoin:round;stroke-dasharray:423.300000 1100.580000}
    .fil11 {fill:none;fill-rule:nonzero}
    .fil31 {fill:none;fill-rule:nonzero}
    .fil35 {fill:#40364B}
    .fil41 {fill:#5C9990}
    .fil50 {fill:#7E9CB1}
    .fil46 {fill:#953543}
    .fil40 {fill:#989FB2}
    .fil37 {fill:#AB8EA9}
    .fil43 {fill:#ABD3B9}
    .fil36 {fill:#BC6384}
    .fil45 {fill:#BD587A}
    .fil44 {fill:#D48FA7}
    .fil42 {fill:#DFD2DA}
    .fil39 {fill:#E86B69}
    .fil49 {fill:#E9DCD6}
    .fil38 {fill:#F29387}
    .fil48 {fill:#F3C8C4}
    .fil32 {fill:#40364B;fill-rule:nonzero}
    .fil33 {fill:#989FB2;fill-rule:nonzero}
    .fil47 {fill:#F29387;fill-rule:nonzero}
    .fil34 {fill:#FDDFBF;fill-rule:nonzero}
    .fil20 {fill:#00D9CE;fill-rule:nonzero}
    .fil6 {fill:#04C4D5;fill-rule:nonzero}
    .fil0 {fill:#231F20;fill-rule:nonzero}
    .fil9 {fill:#297391;fill-rule:nonzero}
    .fil14 {fill:#302D2D;fill-rule:nonzero}
    .fil29 {fill:#474747;fill-rule:nonzero}
    .fil19 {fill:#4C4949;fill-rule:nonzero}
    .fil22 {fill:#4C4C4C;fill-rule:nonzero}
    .fil18 {fill:#523C60;fill-rule:nonzero}
    .fil2 {fill:#633900;fill-rule:nonzero}
    .fil25 {fill:#645B75;fill-rule:nonzero}
    .fil16 {fill:#666666;fill-rule:nonzero}
    .fil13 {fill:#697271;fill-rule:nonzero}
    .fil15 {fill:#6DAF75;fill-rule:nonzero}
    .fil26 {fill:#70DDE0;fill-rule:nonzero}
    .fil30 {fill:#71BDC1;fill-rule:nonzero}
    .fil28 {fill:#86CBED;fill-rule:nonzero}
    .fil17 {fill:#92E1B5;fill-rule:nonzero}
    .fil27 {fill:#A0804D;fill-rule:nonzero}
    .fil24 {fill:#A391C3;fill-rule:nonzero}
    .fil7 {fill:#C94C27;fill-rule:nonzero}
    .fil21 {fill:lightgrey;fill-rule:nonzero}
    .fil3 {fill:#E8CF69;fill-rule:nonzero}
    .fil4 {fill:#EBB167;fill-rule:nonzero}
    .fil1 {fill:#EE7046;fill-rule:nonzero}
    .fil8 {fill:#F15A24;fill-rule:nonzero}
    .fil23 {fill:#F2D0D3;fill-rule:nonzero}
    .fil5 {fill:whitesmoke;fill-rule:nonzero}
    .fil12 {fill:#FBB03B;fill-rule:nonzero}
    .fil10 {fill:#FBD260;fill-rule:nonzero}
   ]]>
  </style>
 </defs>
<symbol id="Fm11-27-0" viewBox="32023 -5660 4724 4830">
 <path class="fil0" d="M36654 -3297c-16,-13 -33,-26 -51,-39 -17,-13 -34,-27 -52,-40 -16,-13 -34,-26 -51,-39 -17,-14 -34,-27 -53,-40 -17,-13 -34,-27 -52,-39 -16,-13 -34,-26 -51,-39 -16,-13 -2674,-2126 -2674,-2126 0,0 -614,756 -1646,1004 34,8 2225,1668 2248,1674 -4,7 -8,13 -12,20 -2,0 -4,1 -5,1 1,0 3,1 4,1 -219,371 -569,700 -826,807 34,-1 1023,740 1783,1323l57 0c815,0 1475,-661 1475,-1475l0 -921c-13,-10 -27,-21 -41,-31 -17,-14 -34,-27 -52,-40z"/>
</symbol>
<symbol id="Fm1-23-0" viewBox="14808 -21823 5159 4844">
 <path class="fil0" d="M17277 -21823l0 333 -391 -224 -2078 1197 496 338 0 6 0 1875 1737 1320 1451 0c815,0 1475,-660 1475,-1475l0 -1741 -2142 -1628 -547 0z"/>
</symbol>
<symbol id="Fm4-37-0" viewBox="11120 -13646 440 2859">
 <polygon class="fil1" points="11560,-13045 11558,-13045 11558,-13286 11560,-13286 "/>
 <polygon class="fil2" points="11560,-13646 11560,-13286 11558,-13286 11120,-13286 11120,-13646 "/>
 <polygon class="fil3" points="11560,-11142 11464,-10987 11216,-10987 11120,-11142 11558,-11142 "/>
 <polygon class="fil4" points="11558,-11142 11120,-11142 11120,-13045 11558,-13045 "/>
 <polygon class="fil3" points="11558,-13045 11120,-13045 11120,-13286 11558,-13286 "/>
 <polygon class="fil2" points="11464,-10987 11340,-10787 11216,-10987 "/>
</symbol>
<symbol id="Fm6-34-0" viewBox="6167 -20012 3459 4524">
 <path class="fil5" d="M9324 -18595l-2156 0 0 1035 2156 0 0 -1035zm0 1035zm302 -1345l0 3070 -345 0 -2415 0 0 -3829 2001 0 0 759 759 0z"/>
 <polygon class="fil5" points="9627,-18905 8868,-18905 8868,-19664 "/>
 <polygon class="fil6" points="9324,-17560 7169,-17560 7169,-18595 9324,-18595 "/>
 <path class="fil7" d="M9282 -15835l0 348 -2767 0c-192,0 -348,-155 -348,-348l3 0c0,-193 156,-348 348,-348 192,0 348,155 348,348l2415 0z"/>
 <path class="fil8" d="M6867 -19664l0 3829c0,-192 -156,-348 -348,-348 -193,0 -348,155 -348,348l0 -3829c0,-192 156,-348 348,-348 192,0 348,155 348,348z"/>
</symbol>
<symbol id="Fm6-69-0" viewBox="6664 -16565 2367 1521">
 <path class="fil9" d="M7286 -15478l-398 0 0 221 398 0 0 -221zm0 221zm1745 -651l0 649c0,118 -97,215 -215,215l-1937 0c-118,0 -215,-97 -215,-215l0 -649 2367 0z"/>
 <polygon class="fil5" points="9031,-15908 6664,-15908 6664,-16231 9031,-16231 "/>
 <path class="fil9" d="M9031 -16350l0 118 -2367 0 0 -118c0,-118 97,-215 215,-215l1937 0c118,0 215,97 215,215z"/>
 <polygon class="fil10" points="7286,-15257 6888,-15257 6888,-15478 7286,-15478 "/>
</symbol>
<symbol id="Fm1-52-0" viewBox="20839 -7036 7732 8110">
 <path class="fil11 str0" d="M20910 -2981c0,-2201 1699,-3985 3796,-3985 2096,0 3796,1784 3796,3985 0,2201 -1699,3985 -3796,3985 -2096,0 -3796,-1784 -3796,-3985z"/>
</symbol>
<symbol id="Fm3-28-0" viewBox="18352 -3344 2465 3927">
 <polygon class="fil12" points="20818,-2744 20818,583 18352,583 18352,-2744 18991,-2744 18991,-2359 18637,-2359 18637,198 20532,198 20532,-2359 20178,-2359 20178,-2744 "/>
 <path class="fil6" d="M19132 -1976l-280 0 0 280 280 0 0 -280zm0 280zm0 222l-280 0 0 280 280 0 0 -280zm0 281zm0 222l-280 0 0 280 280 0 0 -280zm0 280zm0 222l-280 0 0 280 280 0 0 -280zm0 280zm1401 -2173l0 2557 -1895 0 0 -2557 354 0 0 62 593 0 594 0 0 -62 354 0z"/>
 <polygon class="fil13" points="20178,-2359 20178,-2298 19585,-2298 18991,-2298 18991,-2359 "/>
 <polygon class="fil13" points="20178,-2359 18991,-2359 18991,-2744 20178,-2744 "/>
 <path class="fil13" d="M19658 -3128c0,-41 -33,-74 -74,-74 -40,0 -73,33 -73,74 0,40 33,74 73,74 41,0 74,-33 74,-74zm520 220l0 164 -1187 0 0 -164 339 0c0,0 -34,-436 254,-436 289,0 255,436 255,436l339 0z"/>
 <path class="fil14" d="M19585 -3201c41,0 74,33 74,74 0,40 -33,74 -74,74 -40,0 -73,-33 -73,-74 0,-41 33,-74 73,-74z"/>
 <polygon class="fil5" points="19132,-187 18851,-187 18851,-467 19132,-467 "/>
 <polygon class="fil5" points="19132,-689 18851,-689 18851,-970 19132,-970 "/>
 <polygon class="fil5" points="19132,-1192 18851,-1192 18851,-1473 19132,-1473 "/>
 <polygon class="fil8" points="19132,-1695 18851,-1695 18851,-1976 19132,-1976 "/>
</symbol>
<symbol id="Fm8-45-0" viewBox="24458 -6223 2623 3616">
 <path class="fil12" d="M25046 -5086c0,-64 -52,-116 -117,-116 -64,0 -116,52 -116,116 0,65 52,117 116,117 65,0 117,-52 117,-117zm436 0c0,-64 -52,-116 -116,-116 -64,0 -116,52 -116,116 0,65 52,117 116,117 64,0 116,-52 116,-117zm1213 2111l0 -723 0 -361 0 -362 0 -361 -466 0 -465 0 -466 0 -466 0 0 361 0 362 0 361 0 362 0 361 932 0 465 0 466 0zm12 -2916l-1876 0 0 515 1876 0 0 -515zm0 515zm0 162l-944 0 0 250 944 0 0 -250zm0 250zm374 2358l-2623 0 0 -3616 2623 0 0 3616zm0 -3616l0 3616"/>
 <polygon class="fil6" points="26707,-4965 25764,-4965 25764,-5214 26707,-5214 "/>
 <polygon class="fil13" points="26707,-5376 24832,-5376 24832,-5891 26707,-5891 "/>
 <polygon class="fil8" points="26695,-3698 26695,-2975 26229,-2975 26229,-3336 26229,-3698 "/>
 <polygon class="fil15" points="26695,-3698 26229,-3698 26229,-4059 26695,-4059 "/>
 <polygon class="fil15" points="26695,-4059 26229,-4059 26229,-4421 26695,-4421 "/>
 <polygon class="fil15" points="26695,-4421 26229,-4421 26229,-4783 26695,-4783 "/>
 <polygon class="fil13" points="26229,-2975 25764,-2975 25764,-3336 26229,-3336 "/>
 <polygon class="fil13" points="26229,-3336 25764,-3336 25764,-3698 26229,-3698 "/>
 <polygon class="fil13" points="26229,-3698 25764,-3698 25764,-4059 26229,-4059 "/>
 <polygon class="fil13" points="26229,-4059 25764,-4059 25764,-4421 26229,-4421 "/>
 <polygon class="fil13" points="26229,-4421 25764,-4421 25764,-4783 26229,-4783 "/>
 <polygon class="fil6" points="25764,-3336 25764,-2975 24832,-2975 24832,-3336 25298,-3336 "/>
 <polygon class="fil13" points="25764,-3336 25298,-3336 25298,-3698 25764,-3698 "/>
 <polygon class="fil13" points="25764,-3698 25298,-3698 25298,-4059 25764,-4059 "/>
 <polygon class="fil13" points="25764,-4059 25298,-4059 25298,-4421 25764,-4421 "/>
 <polygon class="fil13" points="25764,-4421 25298,-4421 25298,-4783 25764,-4783 "/>
 <path class="fil8" d="M25365 -5202c64,0 116,52 116,116 0,65 -52,117 -116,117 -64,0 -116,-52 -116,-117 0,-64 52,-116 116,-116z"/>
 <polygon class="fil13" points="25298,-3336 24832,-3336 24832,-3698 25298,-3698 "/>
 <polygon class="fil13" points="25298,-3698 24832,-3698 24832,-4059 25298,-4059 "/>
 <polygon class="fil13" points="25298,-4059 24832,-4059 24832,-4421 25298,-4421 "/>
 <polygon class="fil13" points="25298,-4421 24832,-4421 24832,-4783 25298,-4783 "/>
 <path class="fil6" d="M24929 -5202c65,0 117,52 117,116 0,65 -52,117 -117,117 -64,0 -116,-52 -116,-117 0,-64 52,-116 116,-116z"/>
</symbol>
<symbol id="Fm3-35-0" viewBox="7075 -14218 3009 4004">
 <polygon class="fil5" points="10084,-13825 10084,-10380 9822,-10380 9822,-11799 9822,-12102 9822,-12388 9822,-13825 "/>
 <path class="fil1" d="M9822 -10380l0 165 -2747 0 0 -1888 1097 0c53,150 175,303 448,303l1203 0 0 1420z"/>
 <path class="fil16" d="M9822 -12102l0 303 -1203 0c-273,0 -395,-153 -448,-303l1651 0z"/>
 <path class="fil16" d="M9822 -12388l0 286 -1651 0c-51,-144 -40,-286 -40,-286l1691 0z"/>
 <path class="fil17" d="M9822 -13825l0 1437 -1691 0c0,0 -12,141 40,286l-1097 0 0 -1888 386 0 0 991 296 -167 296 167 0 -991 1769 0 0 165z"/>
 <path class="fil18" d="M7861 -13470l104 -101 -144 -21 -65 -130 -64 130 -144 21 104 101 -24 144 129 -68 129 68 -25 -144zm192 -521l0 991 -296 -167 -296 167 0 -991 592 0z"/>
 <polygon class="fil18" points="8053,-13991 7461,-13991 7461,-14218 8053,-14218 "/>
 <polygon class="fil5" points="7965,-13572 7861,-13470 7886,-13326 7757,-13394 7629,-13326 7653,-13470 7549,-13572 7693,-13592 7757,-13723 7822,-13592 "/>
</symbol>
<symbol id="Fm10-24-0" viewBox="24011 -7342 3429 3250">
 <polygon class="fil6" points="27440,-5771 27440,-5105 27368,-5105 27213,-5105 27213,-5771 "/>
 <polygon class="fil19" points="27213,-5105 27213,-4978 26748,-4978 26748,-5898 26832,-5898 27134,-5898 27213,-5898 27213,-5771 "/>
 <path class="fil8" d="M27135 -5936c0,12 -1,25 -1,38l-301 0c0,-13 2,-26 2,-38 0,-611 -495,-1105 -1105,-1105 -611,0 -1105,495 -1105,1105 0,12 1,25 2,38l-301 0c0,-13 -1,-26 -1,-38 0,-777 629,-1406 1405,-1406 776,0 1406,629 1406,1406z"/>
 <polygon class="fil20" points="26776,-4230 26776,-4092 26172,-4092 26172,-4369 26776,-4369 "/>
 <polygon class="fil19" points="24703,-5898 24703,-4978 24238,-4978 24238,-5105 24238,-5771 24238,-5898 24324,-5898 24626,-5898 "/>
 <polygon class="fil6" points="24238,-5105 24011,-5105 24011,-5771 24238,-5771 "/>
</symbol>
<symbol id="Fm9-75-0" viewBox="8224 -7316 4610 5545">
 <path class="fil8" d="M11279 -6353c164,-164 429,-164 592,0 163,163 163,428 0,592l-592 -592z"/>
 <polygon class="fil10" points="11870,-5761 12834,-4797 12315,-4277 11986,-4606 10127,-6465 9795,-6797 10315,-7316 11279,-6353 "/>
 <polygon class="fil5" points="10127,-6465 11986,-4606 10905,-4007 10099,-3202 8722,-4579 9528,-5384 "/>
 <path class="fil20" d="M9962 -3064l-76 76c-125,125 -274,208 -433,251 -325,89 -688,5 -944,-251 -380,-380 -380,-997 0,-1377l213 -213 1377 1377 -138 138z"/>
 <path class="fil8" d="M9962 -3064l890 1138 -155 155 -1244 -966 0 -1c159,-43 309,-126 433,-251l76 -76z"/>
</symbol>
<symbol id="Fm5-67-0" viewBox="10676 -15631 1880 1510">
 <polygon class="fil8" points="12556,-15405 12382,-14709 11221,-14709 11047,-15405 "/>
 <path class="fil12" d="M12110 -14486c101,0 183,82 183,183 0,101 -82,182 -183,182 -101,0 -183,-82 -183,-182 0,-101 82,-183 183,-183z"/>
 <path class="fil12" d="M11192 -14486c101,0 182,82 182,183 0,101 -82,182 -182,182 -101,0 -183,-82 -183,-182 0,-74 44,-137 106,-166 23,-11 49,-17 76,-17z"/>
 <polygon class="fil5" points="10986,-15503 10676,-15503 10676,-15631 10986,-15631 "/>
</symbol>
<symbol id="Fm1-60-0" viewBox="6726 -6488 6871 7138">
 <path class="fil11 str0" d="M6796 -2914c0,-1951 1507,-3533 3365,-3533 1858,0 3365,1582 3365,3533 0,1951 -1507,3533 -3365,3533 -1858,0 -3365,-1582 -3365,-3533z"/>
</symbol>
<symbol id="Fm9-45-0" viewBox="6518 -5764 4905 4922">
 <path class="fil0" d="M9797 -5469c-39,0 -72,24 -84,58 -2,-1 -4,-3 -7,-4 -16,-14 -33,-27 -52,-39 -90,-80 -227,-131 -381,-131 -116,0 -223,29 -307,78 -9,-7 -179,-138 -212,-138l-315 0c-49,0 -89,38 -89,86l0 401 -863 -604 -94 0 0 237 -17 0 -259 -237 -95 0 -506 331 0 656 451 288 -176 2269 1818 1378 1337 0c127,0 249,-16 366,-46 0,0 97,-30 181,-59 493,-230 928,-749 928,-1370l0 -2146c-667,-509 -1326,-1005 -1342,-1005l-284 0z"/>
</symbol>
<symbol id="Fm6-41-0" viewBox="27011 -14437 693 693">
 <path class="fil21" d="M27011 -14090c0,-192 155,-347 347,-347 191,0 347,155 347,347 0,191 -155,347 -347,347 -192,0 -347,-155 -347,-347z"/>
</symbol>
<symbol id="Fm2-33-0" viewBox="15321 -13717 7669 5562">
 <path class="fil5" d="M17813 -9404l0 526 0 88c0,112 43,224 128,310 86,86 198,128 310,128l718 0 718 0c112,0 224,-43 310,-128 85,-85 128,-198 128,-310l0 -88 0 -526 -2312 0zm-2215 -3498l0 2834c0,241 197,439 438,439l6238 0c241,0 438,-197 438,-439l0 -2834c0,-241 -197,-438 -438,-438l-6238 0c-241,0 -438,197 -438,438zm-277 4310l0 -4685c0,-241 197,-438 438,-438l6793 0c241,0 438,197 438,438l0 4685c0,241 -197,438 -438,438l-6793 0c-241,0 -438,-197 -438,-438z"/>
 <path class="fil4" d="M22124 -9908l395 0 0 -394 -395 0 0 394zm0 -394zm0 -1709l395 0 0 -394 -395 0 0 394zm0 -394zm0 -285l395 0 0 -307 -395 0 0 307zm0 -307zm-525 3090l394 0 0 -394 -394 0 0 394zm0 -394zm0 -1709l394 0 0 -394 -394 0 0 394zm0 -394zm0 -285l394 0 0 -307 -394 0 0 307zm0 -307zm-83 1643l0 394 609 0 395 0 0 -394 0 -526 -395 0 -328 0 0 526 -280 0zm-246 920l1249 0 0 -394 -1249 0 0 394zm0 -394zm-44 -657l394 0 0 -394 -394 0 0 394zm0 -394zm-153 1972l394 0 0 -394 -394 0 0 394zm0 -394zm0 -1709l394 0 0 -394 -394 0 0 394zm0 -394zm0 -285l394 0 0 -307 -394 0 0 307zm0 -307zm-132 2038l394 0 0 -394 -394 0 0 394zm0 -394zm-238 920l394 0 0 -394 -394 0 0 394zm0 -394zm-3 -657l394 0 0 -394 -394 0 0 394zm0 -394zm-153 1972l394 0 0 -394 -394 0 0 394zm0 -394zm0 -1709l394 0 0 -394 -394 0 0 394zm0 -394zm0 -285l394 0 0 -307 -394 0 0 307zm0 -307zm-132 2038l394 0 0 -394 -394 0 0 394zm0 -394zm-238 920l394 0 0 -394 -394 0 0 394zm0 -394zm-3 -657l394 0 0 -394 -394 0 0 394zm0 -394zm-153 -132l394 0 0 -394 -394 0 0 394zm0 -394zm0 -285l394 0 0 -307 -394 0 0 307zm0 -307zm-132 2038l394 0 0 -394 -394 0 0 394zm0 -394zm-238 920l394 0 0 -394 -394 0 0 394zm0 -394zm-3 -657l395 0 0 -394 -395 0 0 394zm0 -394zm-153 -132l394 0 0 -394 -394 0 0 394zm0 -394zm0 -285l394 0 0 -307 -394 0 0 307zm0 -307zm-132 2038l395 0 0 -394 -395 0 0 394zm0 -394zm-238 920l395 0 0 -394 -395 0 0 394zm0 -394zm-2 -657l395 0 0 -394 -395 0 0 394zm0 -394zm-153 -132l394 0 0 -394 -394 0 0 394zm0 -394zm0 -285l394 0 0 -307 -394 0 0 307zm0 -307zm-132 2038l395 0 0 -394 -395 0 0 394zm0 -394zm-238 920l395 0 0 -394 -395 0 0 394zm0 -394zm-3 -657l395 0 0 -394 -395 0 0 394zm0 -394zm-153 -132l394 0 0 -394 -394 0 0 394zm0 -394zm0 -285l394 0 0 -307 -394 0 0 307zm0 -307zm-131 2038l394 0 0 -394 -394 0 0 394zm0 -394zm-238 920l394 0 0 -394 -394 0 0 394zm0 -394zm-3 -657l394 0 0 -394 -394 0 0 394zm0 -394zm-154 -132l395 0 0 -394 -395 0 0 394zm0 -394zm0 -285l395 0 0 -307 -395 0 0 307zm0 -307zm-131 2038l394 0 0 -394 -394 0 0 394zm0 -394zm-238 920l394 0 0 -394 -394 0 0 394zm0 -394zm-2 -657l394 0 0 -394 -394 0 0 394zm0 -394zm-153 1972l3024 0 0 -394 -3024 0 0 394zm0 -394zm0 -1709l394 0 0 -394 -394 0 0 394zm0 -394zm0 -285l394 0 0 -307 -394 0 0 307zm0 -307zm-132 2038l394 0 0 -394 -394 0 0 394zm0 -394zm-238 920l394 0 0 -394 -394 0 0 394zm0 -394zm-3 -657l394 0 0 -394 -394 0 0 394zm0 -394zm-153 1972l394 0 0 -394 -394 0 0 394zm0 -394zm0 -1709l394 0 0 -394 -394 0 0 394zm0 -394zm0 -285l394 0 0 -307 -394 0 0 307zm0 -307zm-132 2038l394 0 0 -394 -394 0 0 394zm0 -394zm-238 920l394 0 0 -394 -394 0 0 394zm0 -394zm-3 -657l394 0 0 -394 -394 0 0 394zm0 -394zm-153 1972l394 0 0 -394 -394 0 0 394zm0 -394zm0 -1709l394 0 0 -394 -394 0 0 394zm0 -394zm0 -285l394 0 0 -307 -394 0 0 307zm0 -307zm-526 3090l394 0 0 -394 -394 0 0 394zm0 -394zm0 -132l526 0 0 -394 -526 0 0 394zm0 -394zm0 -132l723 0 0 -394 -723 0 0 394zm0 -394zm0 -131l526 0 0 -394 -526 0 0 394zm0 -394zm0 -132l394 0 0 -394 -394 0 0 394zm0 -394zm0 -285l394 0 0 -307 -394 0 0 307zm0 -307zm-215 2929l0 -2834c0,-241 197,-438 438,-438l6238 0c241,0 438,197 438,438l0 2834c0,241 -197,439 -438,439l-6238 0c-241,0 -438,-197 -438,-439z"/>
 <polygon class="fil5" points="15814,-12998 16208,-12998 16208,-12691 15814,-12691 "/>
 <polygon class="fil5" points="15814,-12406 16208,-12406 16208,-12012 15814,-12012 "/>
 <polygon class="fil5" points="15814,-11880 16340,-11880 16340,-11486 15814,-11486 "/>
 <polygon class="fil5" points="15814,-11355 16537,-11355 16537,-10960 15814,-10960 "/>
 <polygon class="fil5" points="15814,-10829 16340,-10829 16340,-10434 15814,-10434 "/>
 <polygon class="fil5" points="15814,-10303 16208,-10303 16208,-9908 15814,-9908 "/>
 <polygon class="fil5" points="16340,-12998 16734,-12998 16734,-12691 16340,-12691 "/>
 <polygon class="fil5" points="16340,-12406 16734,-12406 16734,-12012 16340,-12012 "/>
 <polygon class="fil5" points="16340,-10303 16734,-10303 16734,-9908 16340,-9908 "/>
 <polygon class="fil5" points="16493,-11880 16887,-11880 16887,-11486 16493,-11486 "/>
 <polygon class="fil5" points="16496,-10829 16890,-10829 16890,-10434 16496,-10434 "/>
 <polygon class="fil5" points="16734,-11355 17128,-11355 17128,-10960 16734,-10960 "/>
 <polygon class="fil5" points="16866,-12998 17260,-12998 17260,-12691 16866,-12691 "/>
 <polygon class="fil5" points="16866,-12406 17260,-12406 17260,-12012 16866,-12012 "/>
 <polygon class="fil5" points="16866,-10303 17260,-10303 17260,-9908 16866,-9908 "/>
 <polygon class="fil5" points="17019,-11880 17413,-11880 17413,-11486 17019,-11486 "/>
 <polygon class="fil5" points="17022,-10829 17416,-10829 17416,-10434 17022,-10434 "/>
 <polygon class="fil5" points="17260,-11355 17655,-11355 17655,-10960 17260,-10960 "/>
 <polygon class="fil5" points="17392,-12998 17786,-12998 17786,-12691 17392,-12691 "/>
 <polygon class="fil5" points="17392,-12406 17786,-12406 17786,-12012 17392,-12012 "/>
 <polygon class="fil5" points="17392,-10303 20415,-10303 20415,-9908 17392,-9908 "/>
 <polygon class="fil5" points="17545,-11880 17940,-11880 17940,-11486 17545,-11486 "/>
 <polygon class="fil5" points="17548,-10829 17942,-10829 17942,-10434 17548,-10434 "/>
 <polygon class="fil5" points="17786,-11355 18181,-11355 18181,-10960 17786,-10960 "/>
 <polygon class="fil4" points="17813,-8878 17813,-9404 20125,-9404 20125,-8878 18970,-8878 "/>
 <path class="fil5" d="M17813 -8791l0 -88 1156 0 0 526 -718 0c-113,0 -225,-43 -310,-128 -85,-85 -128,-198 -128,-310z"/>
 <polygon class="fil5" points="17917,-12998 18312,-12998 18312,-12691 17917,-12691 "/>
 <polygon class="fil5" points="17917,-12406 18312,-12406 18312,-12012 17917,-12012 "/>
 <polygon class="fil5" points="18071,-11880 18465,-11880 18465,-11486 18071,-11486 "/>
 <polygon class="fil5" points="18074,-10829 18468,-10829 18468,-10434 18074,-10434 "/>
 <polygon class="fil5" points="18312,-11355 18707,-11355 18707,-10960 18312,-10960 "/>
 <polygon class="fil5" points="18443,-12998 18837,-12998 18837,-12691 18443,-12691 "/>
 <polygon class="fil5" points="18443,-12406 18837,-12406 18837,-12012 18443,-12012 "/>
 <polygon class="fil5" points="18596,-11880 18991,-11880 18991,-11486 18596,-11486 "/>
 <polygon class="fil5" points="18599,-10829 18994,-10829 18994,-10434 18599,-10434 "/>
 <polygon class="fil5" points="18837,-11355 19232,-11355 19232,-10960 18837,-10960 "/>
 <polygon class="fil5" points="18969,-12998 19363,-12998 19363,-12691 18969,-12691 "/>
 <polygon class="fil5" points="18969,-12406 19363,-12406 19363,-12012 18969,-12012 "/>
 <path class="fil5" d="M18970 -8352l0 -526 1156 0 0 88c0,112 -43,224 -128,310 -85,86 -198,128 -310,128l-718 0z"/>
 <polygon class="fil5" points="19122,-11880 19517,-11880 19517,-11486 19122,-11486 "/>
 <polygon class="fil5" points="19125,-10829 19520,-10829 19520,-10434 19125,-10434 "/>
 <polygon class="fil5" points="19363,-11355 19758,-11355 19758,-10960 19363,-10960 "/>
 <polygon class="fil5" points="19495,-12998 19889,-12998 19889,-12691 19495,-12691 "/>
 <polygon class="fil5" points="19495,-12406 19889,-12406 19889,-12012 19495,-12012 "/>
 <polygon class="fil5" points="19648,-11880 20043,-11880 20043,-11486 19648,-11486 "/>
 <polygon class="fil5" points="19651,-10829 20045,-10829 20045,-10434 19651,-10434 "/>
 <polygon class="fil5" points="19889,-11355 20284,-11355 20284,-10960 19889,-10960 "/>
 <polygon class="fil5" points="20021,-12998 20415,-12998 20415,-12691 20021,-12691 "/>
 <polygon class="fil5" points="20021,-12406 20415,-12406 20415,-12012 20021,-12012 "/>
 <polygon class="fil5" points="20174,-11880 20569,-11880 20569,-11486 20174,-11486 "/>
 <polygon class="fil5" points="20177,-10829 20571,-10829 20571,-10434 20177,-10434 "/>
 <polygon class="fil5" points="20415,-11355 20810,-11355 20810,-10960 20415,-10960 "/>
 <polygon class="fil5" points="20547,-12998 20941,-12998 20941,-12691 20547,-12691 "/>
 <polygon class="fil5" points="20547,-12406 20941,-12406 20941,-12012 20547,-12012 "/>
 <polygon class="fil5" points="20547,-10303 20941,-10303 20941,-9908 20547,-9908 "/>
 <polygon class="fil5" points="20700,-11880 21095,-11880 21095,-11486 20700,-11486 "/>
 <polygon class="fil5" points="20703,-10829 21097,-10829 21097,-10434 20703,-10434 "/>
 <polygon class="fil5" points="20941,-11355 21335,-11355 21335,-10960 20941,-10960 "/>
 <polygon class="fil5" points="21073,-12998 21467,-12998 21467,-12691 21073,-12691 "/>
 <polygon class="fil5" points="21073,-12406 21467,-12406 21467,-12012 21073,-12012 "/>
 <polygon class="fil5" points="21073,-10303 21467,-10303 21467,-9908 21073,-9908 "/>
 <polygon class="fil5" points="21226,-11880 21621,-11880 21621,-11486 21226,-11486 "/>
 <polygon class="fil5" points="21270,-10829 22519,-10829 22519,-10434 21270,-10434 "/>
 <polygon class="fil5" points="21516,-10960 21516,-11355 21796,-11355 21796,-11880 22124,-11880 22519,-11880 22519,-11355 22519,-10960 22124,-10960 "/>
 <polygon class="fil5" points="21599,-12998 21993,-12998 21993,-12691 21599,-12691 "/>
 <polygon class="fil5" points="21599,-12406 21993,-12406 21993,-12012 21599,-12012 "/>
 <polygon class="fil5" points="21599,-10303 21993,-10303 21993,-9908 21599,-9908 "/>
 <polygon class="fil5" points="22124,-12998 22519,-12998 22519,-12691 22124,-12691 "/>
 <polygon class="fil5" points="22124,-12406 22519,-12406 22519,-12012 22124,-12012 "/>
 <polygon class="fil5" points="22124,-10303 22519,-10303 22519,-9908 22124,-9908 "/>
</symbol>
<symbol id="Fm2-31-0" viewBox="23636 -21811 4836 4844">
 <path class="fil0" d="M28438 -19112c-9,-7 -17,-13 -26,-20 -9,-7 -18,-13 -26,-20 -9,-7 -17,-13 -26,-20 -9,-7 -17,-13 -26,-20 -9,-7 -17,-13 -26,-20 -9,-7 -17,-13 -26,-20 -9,-7 -18,-13 -26,-20 -9,-7 -17,-13 -26,-20 -9,-7 -17,-13 -26,-20 -9,-7 -17,-13 -26,-20 -9,-7 -17,-13 -26,-20 -9,-7 -17,-13 -26,-20 -9,-7 -17,-13 -26,-20 -9,-7 -18,-13 -26,-20 -9,-7 -18,-14 -27,-20 -9,-6 -17,-13 -26,-19 -9,-7 -17,-13 -26,-20 -9,-7 -17,-13 -26,-20 -9,-7 -17,-13 -26,-20 -9,-7 -18,-13 -26,-20 -9,-7 -17,-13 -26,-20 -9,-7 -17,-13 -26,-20 -9,-7 -18,-13 -26,-20 -9,-7 -17,-13 -26,-20 -9,-7 -17,-13 -26,-20 -9,-7 -17,-13 -26,-20 -9,-7 -17,-13 -26,-20 -9,-7 -17,-13 -26,-20 -9,-7 -17,-13 -26,-20 -9,-7 -17,-13 -26,-20 -9,-7 -17,-13 -26,-20 -9,-7 -18,-13 -26,-20 -9,-7 -17,-13 -26,-20 -9,-7 -17,-13 -26,-20 -9,-7 -17,-13 -26,-20 -9,-7 -17,-13 -26,-20 -9,-7 -17,-13 -26,-20 -9,-7 -18,-13 -26,-20 -9,-7 -17,-13 -26,-20 -9,-7 -18,-13 -26,-20 -9,-7 -17,-13 -26,-20 -9,-7 -17,-13 -26,-20 -9,-7 -18,-13 -26,-20 -9,-7 -17,-13 -26,-20 -9,-7 -17,-13 -26,-20 -9,-7 -17,-13 -26,-20 -9,-7 -17,-13 -26,-20 -9,-7 -17,-13 -26,-20 -9,-7 -18,-13 -27,-20 -9,-7 -17,-13 -26,-20 -9,-7 -17,-13 -26,-20 -9,-7 -17,-13 -26,-20 -9,-7 -17,-13 -26,-20 -9,-7 -18,-13 -27,-20 -9,-7 -17,-13 -26,-20 -9,-7 -17,-13 -26,-20 -9,-7 -17,-13 -26,-20 -9,-7 -17,-13 -26,-20 -9,-7 -18,-13 -26,-20 -9,-7 -17,-13 -26,-20 -9,-7 -17,-13 -26,-20 -9,-7 -17,-13 -26,-20 -9,-7 -18,-13 -26,-20 -9,-7 -17,-13 -26,-20 -9,-7 -17,-13 -26,-20 -9,-7 -17,-13 -26,-20 -9,-7 -17,-13 -26,-20 -9,-7 -17,-13 -26,-20 -9,-7 -17,-13 -26,-20 -9,-7 -17,-13 -26,-20 -9,-7 -18,-13 -26,-20 -9,-7 -17,-13 -26,-20 -9,-7 -17,-13 -26,-20 -9,-7 -18,-13 -26,-20 -9,-7 -17,-13 -26,-20 -9,-7 -18,-13 -27,-20 -9,-7 -17,-13 -26,-20 -9,-7 -17,-13 -26,-20 -9,-7 -18,-13 -26,-20 -9,-7 -17,-13 -26,-20 -9,-7 -17,-13 -26,-20 -9,-7 -17,-13 -26,-20 -9,-7 -18,-13 -26,-20 -9,-7 -17,-13 -26,-20 -9,-7 -17,-13 -26,-20 -9,-7 -17,-13 -26,-20 -9,-7 -17,-13 -26,-20 -9,-7 -17,-13 -26,-20 -9,-7 -17,-13 -26,-20 -9,-7 -17,-13 -26,-20 -9,-7 -17,-13 -26,-20 -9,-7 -17,-13 -26,-20 -9,-7 -17,-13 -26,-20 -9,-7 -17,-13 -26,-20 -9,-7 -17,-13 -26,-20 -9,-7 -18,-13 -26,-20 -390,-297 -868,-521 -1406,-657 -409,-104 -745,-129 -882,-136l0 586c8,1 2646,2006 2646,2006 43,3 104,7 179,16 18,70 34,141 48,213 -2,-2 -5,-4 -7,-5 -9,-7 -17,-13 -26,-20 -9,-7 -17,-13 -26,-20 -9,-7 -17,-14 -26,-20 -9,-7 -17,-13 -26,-20 -9,-7 -17,-13 -26,-20 -9,-7 -17,-13 -26,-20 -9,-7 -17,-13 -26,-20 -9,-7 -17,-13 -26,-20 -9,-7 -17,-13 -26,-20 -9,-7 -17,-13 -26,-20 -9,-7 -18,-14 -27,-20 -9,-7 -17,-13 -26,-20 -9,-7 -17,-13 -26,-20 -9,-7 -18,-14 -27,-20 -9,-7 -17,-13 -26,-20 -9,-7 -17,-13 -26,-20 -9,-7 -17,-13 -26,-20 -9,-7 -17,-13 -26,-20 -9,-7 -17,-13 -26,-20 -9,-7 -18,-14 -27,-20 -9,-6 -17,-13 -25,-19 -9,-7 -18,-14 -27,-20 -9,-6 -17,-13 -26,-20 -9,-7 -17,-13 -26,-20 -9,-7 -17,-13 -26,-20 -9,-7 -17,-13 -26,-20 -9,-7 -17,-13 -26,-20 -9,-7 -17,-13 -26,-20 -9,-7 -17,-13 -26,-20 -9,-7 -17,-13 -26,-20 -9,-7 -17,-13 -26,-20 -9,-7 -17,-13 -26,-20 -9,-7 -18,-14 -27,-20 -9,-7 -17,-13 -26,-20 -9,-7 -17,-13 -26,-20 -9,-7 -17,-13 -26,-20 -9,-7 -17,-13 -26,-20 -9,-7 -17,-13 -26,-20 -9,-7 -18,-14 -26,-20 -9,-7 -17,-13 -26,-20 -9,-7 -17,-13 -26,-20 -9,-7 -17,-13 -26,-20 -9,-7 -17,-13 -26,-20 -9,-6 -17,-13 -26,-19 -9,-7 -18,-14 -27,-20 -9,-7 -17,-13 -26,-20 -9,-7 -17,-13 -26,-20 -9,-7 -17,-13 -26,-20 -9,-7 -17,-13 -26,-20 -9,-7 -17,-13 -26,-20 -9,-7 -18,-13 -26,-20 -9,-6 -17,-13 -26,-20 -9,-7 -17,-14 -26,-20 -261,-197 -580,-342 -940,-426 -231,-54 -427,-70 -538,-75l0 586c8,0 1650,1251 1650,1251 2,0 5,0 7,0 15,71 25,145 32,221 -4,-3 -8,-6 -12,-9 -8,-7 -17,-13 -26,-20 -8,-7 -17,-13 -26,-20 -8,-7 -17,-13 -26,-20 -8,-7 -17,-13 -26,-20 -9,-7 -17,-14 -26,-20 -8,-7 -17,-13 -26,-20 -8,-7 -17,-13 -26,-20 -8,-7 -17,-13 -26,-20 -8,-7 -17,-13 -26,-20 -8,-7 -17,-13 -26,-20 -8,-7 -17,-14 -26,-20 -8,-7 -17,-13 -26,-20 -8,-7 -17,-13 -26,-20 -8,-7 -17,-13 -26,-20 -8,-7 -17,-14 -26,-20 -8,-7 -17,-13 -26,-20 -8,-7 -17,-14 -26,-20 -8,-7 -17,-13 -26,-20 -9,-7 -17,-14 -26,-20 -8,-7 -17,-13 -26,-20 -8,-7 -17,-13 -26,-20 -8,-7 -17,-13 -26,-20 -8,-7 -17,-13 -26,-20 -8,-7 -17,-13 -26,-20 -9,-7 -17,-14 -26,-20 -8,-7 -17,-13 -26,-20 -8,-7 -17,-13 -26,-20 -8,-7 -17,-13 -26,-20 -8,-7 -17,-13 -26,-20 -8,-7 -17,-13 -26,-20 -8,-7 -17,-13 -26,-20 -8,-7 -17,-13 -26,-20 -8,-7 -17,-13 -26,-20 -81,-68 -185,-108 -299,-108 -259,0 -468,210 -468,469 0,157 77,296 195,381 8,7 17,13 26,20 8,7 17,13 26,20 8,7 17,13 26,20 8,7 17,13 26,20 8,7 17,13 26,20 8,7 17,13 26,20 8,7 17,14 26,20 8,7 17,13 26,20 8,7 17,13 26,20 8,7 17,13 26,20 8,7 17,13 26,20 9,7 17,14 26,20 8,7 17,13 26,20 8,7 17,14 26,20 8,7 17,13 26,20 8,7 17,14 26,20 8,7 17,13 26,20 8,7 17,13 26,20 8,7 17,13 26,20 8,7 17,13 26,20 8,7 17,13 26,20 8,7 17,13 26,20 8,7 17,13 26,20 8,7 17,14 26,20 8,7 17,13 26,20 8,7 17,13 26,20 8,7 17,13 26,20 8,7 17,13 26,20 8,7 17,13 26,20 8,7 17,13 26,20 8,7 17,13 26,20 8,7 17,13 26,20 8,7 17,13 26,20 8,7 17,13 26,20 8,7 17,13 26,20 8,7 17,14 26,20 8,7 17,13 26,20 8,7 17,13 26,20 8,7 17,14 26,20 8,7 17,13 26,20 8,7 17,13 26,20 8,7 17,13 26,20 8,7 17,13 26,20 8,7 17,13 26,20 8,7 17,13 26,20 8,7 17,13 26,20 8,7 17,14 26,20 8,7 17,13 26,20 8,7 17,13 26,20 8,7 17,14 26,20 8,7 17,13 26,20 8,7 17,13 26,20 8,7 17,13 26,20 8,7 17,13 26,20 8,7 17,13 26,20 8,7 17,13 26,20 8,7 17,13 26,20 8,7 17,14 26,20 8,7 17,13 26,20 8,7 17,13 26,20 8,7 17,14 26,20 8,7 17,13 26,20 8,7 17,13 26,20 8,7 17,14 26,20 8,7 17,13 26,20 8,7 17,13 26,20 9,7 17,14 26,20 8,7 17,13 26,20 8,7 17,13 26,20 8,7 17,13 26,20 8,7 17,13 26,20 8,7 17,13 26,20 7,6 14,11 21,16l1213 0c815,0 1475,-659 1475,-1472l0 -647c-3,-2 -5,-4 -8,-6 -9,-7 -17,-13 -26,-20z"/>
</symbol>
<symbol id="Fm1-25-0" viewBox="17173 -6675 4556 436">
 <polygon class="fil16" points="21120,-6675 21272,-6675 21272,-6239 21120,-6239 "/>
 <polygon class="fil13" points="19009,-6675 21120,-6675 21120,-6239 19009,-6239 "/>
 <polygon class="fil16" points="18733,-6675 19009,-6675 19009,-6239 18733,-6239 "/>
 <polygon class="fil13" points="17778,-6675 18733,-6675 18733,-6239 17778,-6239 "/>
 <polygon class="fil16" points="17517,-6675 17778,-6675 17778,-6239 17517,-6239 17517,-6314 17517,-6599 "/>
 <polygon class="fil22" points="21272,-6675 21728,-6457 21272,-6239 "/>
 <polygon class="fil22" points="17173,-6599 17517,-6599 17517,-6314 17173,-6314 "/>
</symbol>
<symbol id="Fm10-25-0" viewBox="14858 -5686 5117 4856">
 <path class="fil0" d="M18831 -5678l-454 99c-9,-12 -124,-104 -161,-106 -84,-6 -94,79 -94,79l0 2 -4 49 -3260 438 293 1659 408 276 5 26 -375 0c0,0 -86,5 -86,88 0,37 275,251 446,378 -83,56 -138,150 -138,258 0,113 60,211 150,266 16,15 33,28 52,39 16,15 33,28 52,39 16,15 33,28 52,39 16,15 33,28 52,40 16,15 33,28 52,39 16,15 33,28 52,39 16,15 33,28 52,39 16,15 33,28 52,39 16,15 33,28 52,39 16,15 33,28 52,39 16,15 33,28 52,40 16,15 33,28 52,39 16,15 33,28 52,40 16,15 33,28 52,39 16,15 33,28 52,39 16,15 33,28 52,40 16,15 33,28 52,39 16,15 33,28 52,39 16,15 33,28 52,39 16,15 33,28 52,39 16,15 33,28 52,39 16,15 33,28 52,39 16,15 33,28 52,39 16,15 33,28 52,39 16,15 33,28 52,39 16,15 33,28 52,40 16,15 33,28 52,39 16,15 33,28 52,39 16,15 33,28 52,39 16,15 33,28 52,39 16,15 33,28 52,39 16,15 33,28 52,40 16,15 33,28 52,39 14,13 29,25 46,35 0,0 443,-1 1022,0 80,0 1550,53 1635,-1475l0 -2521c-602,-450 -1142,-852 -1142,-852l-2 0z"/>
</symbol>
<symbol id="Fm0-21-0" viewBox="5415 -21519 5985 4558">
 <path class="fil0" d="M11329 -19758c-17,-13 -34,-27 -52,-39 -17,-14 -34,-27 -52,-40 -17,-14 -34,-27 -52,-39 -17,-14 -34,-27 -52,-40 -17,-14 -34,-27 -52,-39 -17,-13 -34,-27 -52,-39 -17,-13 -34,-27 -52,-39 -17,-14 -34,-27 -52,-40 -17,-14 -34,-27 -52,-40 -17,-14 -34,-27 -52,-39 -17,-13 -34,-27 -52,-39 -17,-14 -34,-27 -52,-39 -17,-14 -34,-27 -52,-40 -17,-14 -34,-27 -52,-39 -17,-13 -34,-27 -52,-39 -17,-14 -34,-27 -52,-40 -17,-13 -34,-27 -52,-39 -17,-14 -34,-27 -52,-39 -17,-14 -34,-27 -52,-40 -17,-13 -34,-27 -52,-39 -17,-14 -34,-27 -52,-39 -17,-14 -34,-27 -52,-39 -17,-14 -34,-27 -52,-39 -17,-13 -34,-27 -52,-39 -17,-14 -34,-27 -52,-39 -17,-14 -34,-27 -52,-40 -17,-13 -34,-27 -52,-39 -17,-14 -34,-27 -52,-40 -17,-14 -34,-27 -52,-39 -17,-14 -34,-27 -52,-40 -17,-13 -34,-27 -52,-39 -17,-13 -34,-27 -52,-39 -17,-14 -34,-27 -52,-40 -17,-14 -34,-27 -52,-39 -17,-14 -34,-27 -52,-39 -17,-14 -34,-27 -52,-39 -17,-14 -34,-27 -52,-39 -237,-189 -537,-302 -863,-302 -434,0 -834,197 -1099,541 -190,-25 -389,18 -559,135 -330,228 -435,661 -264,1011 -67,-28 -146,-23 -210,22l-905 626c-100,69 -125,206 -56,306 20,29 46,52 75,68 15,16 33,29 52,39 15,16 33,29 52,39 15,16 33,29 52,39 16,16 33,29 52,39 15,16 33,29 52,39 15,16 33,29 52,39 16,16 33,29 52,39 16,16 33,29 52,39 15,16 33,29 52,39 16,16 33,29 52,39 16,16 33,29 52,39 16,16 33,29 52,39 15,16 33,29 52,39 16,16 33,29 52,39 15,16 33,29 52,39 15,16 33,29 52,39 16,16 33,29 52,39 16,16 33,29 52,39 15,16 33,29 52,39 15,16 33,29 52,39 16,16 33,29 52,39 15,16 33,29 52,39 15,16 33,29 52,39 16,16 33,29 52,39 15,16 33,29 52,39 15,16 33,29 52,39 16,16 33,29 52,39 15,16 33,29 52,39 15,16 33,29 52,39 15,16 33,29 52,39 16,16 33,29 52,39 15,16 33,29 52,39 15,16 33,29 52,39 16,16 33,29 52,39 15,16 33,29 52,39 16,16 33,29 52,40 15,16 33,29 52,39 16,16 33,29 52,39 15,16 33,29 52,39 16,16 33,29 52,39 15,16 33,29 52,39 15,16 33,29 52,39 4,4 99,80 242,193l1974 0c815,0 1475,-660 1475,-1475l0 -1268c-6,-5 -12,-10 -19,-14 -17,-14 -34,-27 -52,-39z"/>
</symbol>
<symbol id="Fm2-54-0" viewBox="21733 -6098 5944 6235">
 <path class="fil11 str1" d="M21786 -2981c0,-1692 1307,-3064 2919,-3064 1612,0 2919,1372 2919,3064 0,1692 -1307,3064 -2919,3064 -1612,0 -2919,-1372 -2919,-3064z"/>
</symbol>
<symbol id="Fm5-39-0" viewBox="26724 -14637 1612 2569">
 <path class="fil12" d="M28336 -13724c0,199 -106,412 -257,676 -127,222 -110,414 -110,414l-189 0 147 -939 -105 0 -79 165 -60 -165 -73 163 -80 -163 -80 163 -74 -163 -60 165 -79 -165 -105 0 147 939 -189 0c0,0 17,-192 -110,-414 -151,-265 -257,-477 -257,-676 0,-199 24,-913 806,-913 782,0 806,713 806,913z"/>
 <polygon class="fil5" points="27047,-12495 27047,-12634 27091,-12634 27280,-12634 27780,-12634 27969,-12634 28014,-12634 28014,-12217 27930,-12217 27130,-12217 27047,-12217 27047,-12361 "/>
 <polygon class="fil13" points="27930,-12067 27130,-12067 27130,-12217 27930,-12217 "/>
 <polygon class="fil12" points="27927,-13572 27780,-12634 27280,-12634 27133,-13572 27238,-13572 27316,-13407 27377,-13572 27450,-13410 27530,-13572 27610,-13410 27684,-13572 27744,-13407 27822,-13572 "/>
</symbol>
<symbol id="Fm5-32-0" viewBox="15512 -9632 1004 2024">
 <path class="fil5" d="M16516 -8854l0 894c0,194 -159,353 -353,353l-299 0c-194,0 -353,-159 -353,-353l0 -894 502 0 502 0z"/>
 <path class="fil6" d="M16516 -9279l0 425 -502 0 0 -778 149 0c194,0 353,159 353,353z"/>
 <path class="fil6" d="M16014 -9632l0 778 -502 0 0 -425c0,-194 159,-353 353,-353l150 0z"/>
</symbol>
<symbol id="Symbol2" viewBox="20993 -1952 315 3134">
 <path class="fil23" d="M21308 -1952c0,0 -315,38 -315,837l0 2134c0,123 276,269 276,54 0,-215 -23,-2034 -23,-2318 0,-284 15,-606 61,-706z"/>
</symbol>
<symbol id="Fm9-47-0" viewBox="10459 -19550 3157 4066">
 <path class="fil12" d="M13177 -18021l-1521 0 0 1008 1521 0 0 -1008zm0 1008zm438 1528l-2358 0 0 -4066 2358 0 0 4066z"/>
 <polygon class="fil15" points="13177,-17013 11657,-17013 11657,-18021 13177,-18021 "/>
 <polygon class="fil8" points="11257,-19550 11257,-15484 10657,-15484 10657,-15988 10847,-15988 10847,-16236 10657,-16236 10657,-16550 10847,-16550 10847,-16798 10657,-16798 10657,-17112 10847,-17112 10847,-17360 10657,-17360 10657,-17674 10847,-17674 10847,-17922 10657,-17922 10657,-18236 10847,-18236 10847,-18484 10657,-18484 10657,-18798 10847,-18798 10847,-19046 10657,-19046 10657,-19550 "/>
 <polygon class="fil5" points="10847,-15988 10657,-15988 10657,-16236 10847,-16236 "/>
 <polygon class="fil5" points="10847,-16550 10657,-16550 10657,-16798 10847,-16798 "/>
 <polygon class="fil5" points="10847,-17112 10657,-17112 10657,-17360 10847,-17360 "/>
 <polygon class="fil5" points="10847,-17674 10657,-17674 10657,-17922 10847,-17922 "/>
 <polygon class="fil5" points="10847,-18236 10657,-18236 10657,-18484 10847,-18484 "/>
 <polygon class="fil5" points="10847,-18798 10657,-18798 10657,-19046 10847,-19046 "/>
 <polygon class="fil5" points="10657,-15988 10459,-15988 10459,-16236 10657,-16236 "/>
 <polygon class="fil5" points="10657,-16550 10459,-16550 10459,-16798 10657,-16798 "/>
 <polygon class="fil5" points="10657,-17112 10459,-17112 10459,-17360 10657,-17360 "/>
 <polygon class="fil5" points="10657,-17674 10459,-17674 10459,-17922 10657,-17922 "/>
 <polygon class="fil5" points="10657,-18236 10459,-18236 10459,-18484 10657,-18484 "/>
 <polygon class="fil5" points="10657,-18798 10459,-18798 10459,-19046 10657,-19046 "/>
</symbol>
<symbol id="Fm9-40-0" viewBox="26817 -13883 1715 1715">
 <polygon class="fil13" points="28532,-12168 28241,-12274 28120,-12437 28263,-12580 28426,-12459 "/>
 <polygon class="fil24" points="27071,-13803 27658,-13217 27642,-13201 27499,-13058 27483,-13042 26897,-13629 26912,-13644 27056,-13788 "/>
 <polygon class="fil25" points="28164,-12680 28263,-12580 28120,-12437 28020,-12536 "/>
 <polygon class="fil24" points="27642,-13201 28164,-12680 28020,-12536 27499,-13058 "/>
 <polygon class="fil13" points="26960,-13883 27056,-13788 26912,-13644 26881,-13675 26817,-13740 "/>
</symbol>
<symbol id="Fm4-65-0" viewBox="7848 -14203 3548 3548">
 <path class="fil26" d="M10133 -13429c-34,-147 -140,-301 -511,-301 -331,0 -452,123 -498,254 -19,55 -26,112 -29,162 -5,78 -6,223 -5,362l-1 0c0,0 -169,-134 -176,0 -6,134 29,419 187,419 14,98 59,287 202,406l0 108 -802 270 0 695c-398,-325 -652,-820 -652,-1374 0,-980 794,-1774 1774,-1774 980,0 1774,794 1774,1774 0,554 -254,1049 -652,1374l0 -695 -802 -270 0 -108c143,-119 187,-308 202,-406 158,0 194,-285 187,-419 -6,-134 -175,0 -175,0l-1 0c1,-139 1,-284 -5,-362 -3,-35 -6,-75 -16,-115z"/>
 <path class="fil8" d="M10744 -11749l0 695 0 1c-306,250 -696,400 -1122,400 -426,0 -816,-150 -1122,-400l0 -1 0 -695 802 -270 0 444 320 138 320 -138 0 -444 802 270z"/>
 <path class="fil5" d="M10330 -12952c7,134 -29,419 -187,419 5,-39 6,-64 6,-64 0,0 4,-173 5,-355l1 0c0,0 169,-134 175,0z"/>
 <path class="fil5" d="M10149 -13314c5,78 6,223 5,362 -1,182 -5,355 -5,355 0,0 -1,25 -6,64 -15,98 -59,287 -202,406 -33,27 -71,51 -115,69l-204 -69 -205 69c-44,-17 -82,-41 -115,-69 -143,-119 -187,-308 -202,-406 -5,-39 -6,-64 -6,-64 0,0 -4,-173 -5,-355 -1,-139 -1,-284 5,-362 3,-50 10,-107 29,-162 0,0 182,259 484,343l-53 -146c14,5 260,101 579,-149 10,40 13,79 16,115z"/>
 <path class="fil27" d="M9554 -13280l53 146c-302,-84 -484,-343 -484,-343 46,-131 167,-254 498,-254 371,0 477,154 511,301 -319,250 -565,154 -579,149z"/>
 <path class="fil5" d="M9941 -12019l0 444 -320 138 -320 -138 0 -444 115 -39c57,25 125,39 205,39 79,0 147,-14 204,-39l115 39z"/>
 <path class="fil5" d="M9622 -12127l204 69c-57,25 -125,39 -204,39 -79,0 -147,-14 -205,-39l205 -69z"/>
 <path class="fil5" d="M9095 -12597c0,0 1,25 6,64 -158,0 -194,-285 -187,-419 7,-134 176,0 176,0l1 0c1,182 5,355 5,355z"/>
</symbol>
<symbol id="Fm2-62-0" viewBox="7521 -5684 5282 5540">
 <path class="fil11 str1" d="M7574 -2914c0,-1500 1159,-2717 2588,-2717 1429,0 2588,1216 2588,2717 0,1500 -1159,2717 -2588,2717 -1429,0 -2588,-1216 -2588,-2717z"/>
</symbol>
<symbol id="Fm1-38-0" viewBox="22532 -17704 6858 7120">
 <path class="fil11 str0" d="M22603 -14135c0,-1947 1504,-3526 3359,-3526 1855,0 3359,1579 3359,3526 0,1947 -1504,3526 -3359,3526 -1855,0 -3359,-1579 -3359,-3526z"/>
</symbol>
<symbol id="Fm1-30-0" viewBox="5447 -17755 6979 7270">
 <path class="fil11 str0" d="M5518 -14135c0,-1982 1531,-3589 3419,-3589 1888,0 3419,1607 3419,3589 0,1982 -1531,3589 -3419,3589 -1888,0 -3419,-1607 -3419,-3589z"/>
</symbol>
<symbol id="Fm0-23-0" viewBox="15833 -5831 6664 3510">
 <path class="fil16" d="M22058 -2951l0 -2248c0,-161 -132,-292 -292,-292l-4004 0 -731 0 -468 0c-161,0 -292,132 -292,292l0 2248c0,161 132,292 292,292l468 0 731 0 4004 0c161,0 292,-131 292,-292zm438 -2587l0 2926c0,161 -132,292 -292,292l-6079 0c-161,0 -292,-132 -292,-292l0 -2926c0,-161 132,-292 292,-292l6079 0c161,0 292,132 292,292z"/>
 <path class="fil22" d="M22058 -5200l0 2248c0,161 -132,292 -292,292l-4004 0 0 -1261 0 -312 0 -1261 4004 0c161,0 292,131 292,292z"/>
 <polygon class="fil13" points="17762,-2659 17031,-2659 17031,-3920 17762,-3920 "/>
 <polygon class="fil20" points="17762,-3920 17031,-3920 17031,-4231 17762,-4231 "/>
 <polygon class="fil13" points="17762,-4231 17031,-4231 17031,-5492 17762,-5492 "/>
 <path class="fil22" d="M17031 -3920l0 1261 -468 0c-161,0 -292,-131 -292,-292l0 -2248c0,-161 132,-292 292,-292l468 0 0 1261 0 312z"/>
</symbol>
<symbol id="Fm7-36-0" viewBox="17674 -12789 3648 3648">
 <path class="fil5" d="M20802 -10965c0,-720 -584,-1304 -1304,-1304 -720,0 -1304,584 -1304,1304 0,720 584,1304 1304,1304 720,0 1304,-584 1304,-1304zm-1304 -1824c1008,0 1824,816 1824,1824 0,1008 -816,1824 -1824,1824 -1008,0 -1824,-816 -1824,-1824 0,-1008 816,-1824 1824,-1824z"/>
 <path class="fil8" d="M19498 -12269c720,0 1304,584 1304,1304 0,720 -584,1304 -1304,1304 -720,0 -1304,-584 -1304,-1304 0,-720 584,-1304 1304,-1304z"/>
</symbol>
<symbol id="Fm8-43-0" viewBox="33740 -13839 2989 2845">
 <path class="fil0" d="M36690 -12058c-8,-7 -17,-14 -26,-20 -8,-7 -17,-14 -26,-20 -8,-7 -17,-14 -26,-20 -8,-7 -17,-14 -26,-20 -8,-7 -17,-14 -26,-20 -8,-7 -17,-14 -26,-20 -8,-7 -17,-14 -26,-20 -8,-7 -17,-14 -26,-20 -8,-7 -17,-14 -26,-20 -8,-7 -17,-14 -26,-20 -8,-7 -17,-14 -26,-20 -8,-7 -17,-14 -26,-20 -8,-7 -17,-14 -26,-20 -8,-7 -17,-14 -26,-20 -8,-7 -17,-14 -26,-20 -8,-7 -17,-14 -26,-20 -8,-7 -17,-14 -26,-20 -8,-7 -17,-14 -26,-20 -8,-7 -17,-14 -26,-20 -8,-7 -17,-14 -26,-20 -8,-7 -17,-14 -26,-20 -8,-7 -17,-14 -26,-20 -8,-7 -17,-14 -26,-20 -8,-7 -17,-14 -26,-20 -8,-7 -17,-14 -26,-20 -8,-7 -17,-14 -26,-20 -8,-7 -17,-14 -26,-20 -8,-7 -17,-14 -26,-20 -8,-7 -17,-14 -26,-20 -8,-7 -17,-14 -26,-20 -8,-7 -17,-14 -26,-20 -8,-7 -17,-14 -26,-20 -8,-7 -17,-14 -26,-20 -8,-7 -17,-14 -26,-20 -8,-7 -17,-14 -26,-20 -8,-7 -17,-14 -26,-20 -8,-7 -17,-14 -26,-20 -8,-7 -17,-14 -26,-20 -8,-7 -17,-14 -26,-20 -8,-7 -17,-14 -26,-20 -8,-7 -17,-14 -26,-20 -8,-7 -17,-14 -26,-20 -8,-7 -17,-14 -26,-20 -8,-7 -17,-14 -26,-20 -8,-7 -17,-14 -26,-20 -8,-7 -17,-14 -26,-20 -8,-7 -17,-14 -26,-20 -8,-7 -17,-14 -26,-20 -8,-7 -17,-14 -26,-20 -8,-7 -17,-14 -26,-20 -8,-7 -17,-14 -26,-20 -8,-7 -17,-14 -26,-20 -8,-7 -17,-14 -26,-20 -8,-7 -17,-14 -26,-20 -8,-7 -17,-14 -26,-20 -8,-7 -17,-14 -26,-20 -8,-7 -17,-14 -26,-20 -8,-7 -17,-14 -26,-20 -8,-7 -17,-14 -26,-20 -8,-7 -17,-14 -26,-20 -8,-7 -17,-14 -26,-20 -8,-7 -17,-14 -26,-20 -8,-7 -17,-14 -26,-20 -8,-7 -17,-14 -26,-20 -8,-7 -17,-14 -26,-20 -8,-7 -17,-14 -26,-20 -8,-7 -17,-14 -26,-20 -8,-7 -17,-14 -26,-20 -8,-7 -17,-14 -26,-20 -8,-7 -17,-14 -26,-20 -8,-7 -17,-14 -26,-20 -8,-7 -17,-14 -26,-20 -8,-7 -17,-14 -26,-20 -8,-7 -17,-14 -26,-20 -8,-7 -17,-14 -26,-20 -8,-7 -17,-14 -26,-20 -8,-7 -17,-14 -26,-20 -8,-7 -17,-14 -26,-20 -8,-7 -17,-14 -26,-20 -8,-7 -17,-14 -26,-20 -8,-7 -17,-14 -26,-20 -8,-7 -17,-14 -26,-20 -8,-7 -17,-14 -26,-20 -8,-7 -17,-14 -26,-20 -8,-7 -17,-14 -26,-20 -68,-57 -158,-89 -261,-89 -248,0 -463,203 -463,452 0,140 56,251 152,317 8,7 17,14 26,20 8,7 17,14 26,20 8,7 17,14 26,20 8,7 17,14 26,20 8,7 17,14 26,20 8,7 17,14 26,20 8,7 17,14 26,20 8,7 17,14 26,20 8,7 17,14 26,20 8,7 17,14 26,20 8,7 17,14 26,20 8,7 17,14 26,20 8,7 17,14 26,20 8,7 17,14 26,20 8,7 17,14 26,20 8,7 17,14 26,20 8,7 17,14 26,20 8,7 17,14 26,20 8,7 17,14 26,20 8,7 17,14 26,20 8,7 17,14 26,20 8,7 17,14 26,20 8,7 17,14 26,20 8,7 17,14 26,20 8,7 17,14 26,20 8,7 17,14 26,20 8,7 17,14 26,20 8,7 17,14 26,20 8,7 17,14 26,20 8,7 17,14 26,20 8,7 17,14 26,20 8,7 17,14 26,20 8,7 17,14 26,20 8,7 17,14 26,20 8,7 17,14 26,20 8,7 17,14 26,20 8,7 17,14 26,20 8,7 17,14 26,20 8,7 17,14 26,20 8,7 17,14 26,20 8,7 17,14 26,20 8,7 17,14 26,20 8,7 17,14 26,20 8,7 17,14 26,20 8,7 17,14 26,20 8,7 17,14 26,20 8,7 17,14 26,20 8,7 17,14 26,20 8,7 17,14 26,20 8,7 17,14 26,20 8,7 17,14 26,20 8,7 17,14 26,20 8,7 17,14 26,20 8,7 17,14 26,20 8,7 17,14 26,20 8,7 17,14 26,20 8,7 17,14 26,20 8,7 17,14 26,20 8,7 17,14 26,20 8,7 17,14 26,20 8,7 17,14 26,20 8,7 17,14 26,20 8,7 17,14 26,20 8,7 17,14 26,20 8,7 17,14 26,20 8,7 17,14 26,20 8,7 17,14 26,20 8,7 17,14 26,20 8,7 17,14 26,20 8,7 17,14 26,20 8,7 17,14 26,20 8,7 17,14 26,20 8,7 17,14 26,20 8,7 17,14 26,20 8,7 17,14 26,20 8,7 17,14 26,20 8,7 17,14 26,20 8,7 17,14 26,20 8,7 17,14 26,20 8,7 17,14 26,20 8,7 17,14 26,20 8,7 17,14 26,20 8,7 17,14 26,20 8,7 17,14 26,20 8,7 17,14 26,20 8,7 17,14 26,20 8,7 17,14 26,20 8,7 17,14 26,20 8,7 17,14 26,20 8,7 17,14 26,20 8,7 17,14 26,20 8,7 17,14 26,20 8,7 17,14 26,20 8,7 17,14 26,20 8,7 17,14 26,20 8,7 17,14 26,20 8,7 17,14 26,20 8,7 17,14 26,20 8,7 17,14 26,20 8,7 17,14 26,20 57,48 131,78 218,85l0 -1034c-4,-3 -8,-7 -13,-10 -8,-7 -17,-14 -26,-20z"/>
</symbol>
<symbol id="Fm6-39-0" viewBox="24085 -13476 4375 4594">
 <path class="fil0" d="M24718 -13476l0 0 -633 0 0 2825 2327 1769 573 0c815,0 1475,-660 1475,-1475l0 -1941 -1550 -1178 -2192 0z"/>
</symbol>
<symbol id="Fm4-35-0" viewBox="6387 -13400 5030 4518">
 <path class="fil0" d="M6387 -13400l0 2878 2158 1640 1396 0c815,0 1475,-660 1475,-1475l0 -2194 -1117 -849 -3913 0z"/>
</symbol>
<symbol id="Fm8-73-0" viewBox="22273 -17792 1332 2516">
 <path class="fil5" d="M23380 -17099c0,-244 -197,-441 -441,-441 -243,0 -441,197 -441,441 0,244 197,441 441,441 244,0 441,-197 441,-441zm-441 -693c391,0 666,190 666,698 0,507 -666,1818 -666,1818 0,0 -666,-1311 -666,-1818 0,-507 275,-698 666,-698z"/>
 <path class="fil8" d="M23126 -17099c0,-104 -84,-188 -188,-188 -104,0 -187,84 -187,188 0,104 84,188 187,188 104,0 188,-84 188,-188zm-188 -441c244,0 441,197 441,441 0,244 -197,441 -441,441 -243,0 -441,-197 -441,-441 0,-244 197,-441 441,-441z"/>
</symbol>
<symbol id="Fm0-36-0" viewBox="21873 -18424 8177 8579">
 <path class="fil11 str1" d="M21926 -14135c0,-2340 1807,-4237 4036,-4237 2229,0 4036,1897 4036,4237 0,2340 -1807,4237 -4036,4237 -2229,0 -4036,-1897 -4036,-4237z"/>
</symbol>
<symbol id="Fm7-43-0" viewBox="6740 -8143 1335 5900">
 <polygon class="fil17" points="8075,-8036 8075,-6836 7858,-6836 7858,-7003 7908,-7003 7908,-7869 7783,-7869 7783,-8036 "/>
 <polygon class="fil5" points="7929,-3860 7858,-3860 7858,-4318 7929,-4318 "/>
 <path class="fil1" d="M7880 -4888l0 -283 -23 0 0 -249c100,99 162,236 162,387 0,151 -62,289 -162,387l0 -242 23 0z"/>
 <polygon class="fil5" points="7880,-4888 7858,-4888 7858,-5172 7880,-5172 "/>
 <polygon class="fil18" points="7858,-3860 7858,-2566 7472,-2243 7092,-2566 7092,-3860 "/>
 <polygon class="fil5" points="7858,-3860 7092,-3860 7092,-4318 7858,-4318 "/>
 <path class="fil18" d="M7858 -4646l0 328 -766 0 0 -328c98,97 234,157 383,157 150,0 285,-60 383,-157z"/>
 <path class="fil1" d="M7858 -4888l0 242c-98,97 -234,157 -383,157 -149,0 -285,-60 -383,-157l0 -242 766 0z"/>
 <polygon class="fil20" points="7858,-4888 7092,-4888 7092,-5172 7858,-5172 "/>
 <path class="fil1" d="M7858 -5421l0 249 -766 0 0 -249c98,-97 234,-157 383,-157 150,0 285,60 383,157z"/>
 <path class="fil18" d="M7858 -6836l0 1415c-98,-97 -234,-157 -383,-157 -149,0 -285,60 -383,157l0 -1415 766 0z"/>
 <polygon class="fil18" points="7858,-6836 7092,-6836 7092,-7003 7858,-7003 "/>
 <polygon class="fil18" points="7858,-7150 7858,-7003 7092,-7003 7092,-7150 7366,-7150 7366,-7053 7578,-7053 7578,-7150 "/>
 <polygon class="fil1" points="7783,-7786 7578,-7786 7578,-7869 7783,-7869 "/>
 <polygon class="fil1" points="7783,-8036 7783,-7869 7578,-7869 7578,-7882 7366,-7882 7366,-7869 7162,-7869 7162,-8036 "/>
 <polygon class="fil1" points="7783,-8036 7162,-8036 7162,-8143 7783,-8143 "/>
 <polygon class="fil5" points="7578,-7053 7366,-7053 7366,-7150 7578,-7150 "/>
 <polygon class="fil5" points="7578,-7150 7366,-7150 7366,-7786 7578,-7786 "/>
 <polygon class="fil5" points="7578,-7786 7366,-7786 7366,-7869 7578,-7869 "/>
 <polygon class="fil4" points="7578,-7869 7366,-7869 7366,-7882 7578,-7882 "/>
 <polygon class="fil1" points="7366,-7786 7162,-7786 7162,-7869 7366,-7869 "/>
 <polygon class="fil17" points="7162,-8036 7162,-7869 7042,-7869 7042,-7003 7092,-7003 7092,-6836 6875,-6836 6875,-8036 "/>
 <polygon class="fil5" points="7092,-3860 7021,-3860 7021,-4318 7092,-4318 "/>
 <path class="fil1" d="M7092 -4888l0 242c-53,-52 -94,-114 -122,-183l0 -401 -3 0c28,-72 71,-137 125,-191l0 249 -23 0 0 283 23 0z"/>
 <polygon class="fil5" points="7092,-4888 7069,-4888 7069,-5172 7092,-5172 "/>
 <path class="fil1" d="M6970 -5230l0 401c-26,-63 -40,-132 -40,-204 0,-70 13,-136 37,-197l3 0z"/>
 <path class="fil17" d="M6970 -4829l-230 0 0 -401 227 0c-24,61 -37,127 -37,197 0,72 14,141 40,204z"/>
</symbol>
<symbol id="Fm11-29-0" viewBox="14293 -19418 393 3488">
 <polygon class="fil13" points="14490,-15930 14293,-16350 14337,-16651 14642,-16651 14686,-16350 "/>
 <polygon class="fil24" points="14675,-19215 14675,-17970 14642,-17970 14337,-17970 14304,-17970 14304,-19215 14337,-19215 14642,-19215 "/>
 <polygon class="fil25" points="14642,-16651 14337,-16651 14337,-16863 14642,-16863 "/>
 <polygon class="fil24" points="14642,-16863 14337,-16863 14337,-17970 14642,-17970 "/>
 <polygon class="fil13" points="14642,-19418 14642,-19215 14337,-19215 14337,-19281 14337,-19418 "/>
</symbol>
<symbol id="Fm12-29-0" viewBox="23764 -5657 4714 4815">
 <path class="fil0" d="M27049 -4653c-238,-57 -454,-142 -645,-238 -10,-11 -11,-6 -11,-6 -6,-3 -13,-6 -19,-10 -474,-234 -969,-751 -969,-751l181 656c-2609,203 -1930,1688 -929,2431 17,13 34,26 52,39 17,14 35,27 53,40 17,13 34,26 51,39 17,14 35,27 53,40 17,13 34,26 51,39 17,13 35,27 52,40 17,13 34,26 52,39 17,13 34,26 52,39 17,13 35,27 52,40 17,13 34,26 51,39 17,14 35,27 53,40 17,13 34,26 51,39 18,14 35,27 53,40 17,13 34,26 52,39 17,13 34,26 51,39 17,13 35,27 52,40 17,13 35,27 52,40 17,14 35,27 52,40 17,13 34,26 51,39 17,13 34,27 52,39 17,13 34,26 51,39 18,14 35,27 53,40 17,13 35,26 52,39 17,13 34,26 51,39 17,13 34,26 51,39 17,13 35,27 52,40 17,14 35,27 53,40 17,13 34,26 51,39 17,13 35,27 53,40 17,13 34,26 51,39 17,13 35,27 52,39 17,14 35,27 53,40 17,13 34,26 51,39 17,13 35,27 52,39 17,13 34,26 51,39 17,14 35,27 53,40 17,13 35,27 52,40 17,13 34,26 51,39 17,14 35,27 52,40 17,13 34,26 51,39 17,14 35,27 53,40 17,13 34,26 51,39 17,13 35,27 52,40 15,11 29,22 44,33l73 0c815,0 1475,-660 1475,-1475l0 -1237c-699,-531 -1438,-1097 -1429,-1099z"/>
</symbol>
<symbol id="Fm12-47-0" viewBox="12408 -4082 2330 1497">
 <path class="fil5" d="M13020 -3012l-391 0 0 217 391 0 0 -217zm0 217zm1718 -641l0 639c0,116 -95,212 -212,212l-1906 0c-117,0 -212,-95 -212,-212l0 -639 2330 0z"/>
 <polygon class="fil8" points="14738,-3436 12408,-3436 12408,-3754 14738,-3754 "/>
 <path class="fil5" d="M14738 -3870l0 117 -2330 0 0 -117c0,-116 95,-212 212,-212l1906 0c116,0 212,95 212,212z"/>
 <polygon class="fil10" points="13020,-2795 12629,-2795 12629,-3012 13020,-3012 "/>
</symbol>
<symbol id="Symbol1" viewBox="18997 -22446 3645 5447">
 <polygon class="fil28" points="22642,-16999 18997,-16999 18997,-22446 22642,-22446 "/>
</symbol>
<symbol id="Fm12-31-0" viewBox="25222 -9934 1338 2111">
 <path class="fil5" d="M26560 -9130l0 701c0,155 -59,310 -178,429 -118,118 -273,177 -429,177l-125 0c-155,0 -310,-59 -429,-177 -118,-119 -177,-273 -177,-429l0 -701 669 0 669 0z"/>
 <path class="fil4" d="M26560 -9570l0 441 -669 0 0 -127 83 0 0 -331 -83 0 0 -346 305 0c93,0 186,35 257,107 71,71 107,164 107,257z"/>
 <polygon class="fil17" points="25974,-9256 25891,-9256 25891,-9588 25974,-9588 "/>
 <path class="fil4" d="M25891 -9256l0 127 -669 0 0 -441c0,-93 36,-186 107,-257 71,-71 164,-107 257,-107l305 0 0 346 -83 0 0 331 83 0z"/>
 <polygon class="fil17" points="25891,-9256 25808,-9256 25808,-9588 25891,-9588 "/>
</symbol>
<symbol id="Fm0-50-0" viewBox="20091 -7822 9228 9682">
 <path class="fil11 str1" d="M20144 -2981c0,-2644 2042,-4788 4561,-4788 2519,0 4561,2144 4561,4788 0,2644 -2042,4788 -4561,4788 -2519,0 -4561,-2144 -4561,-4788z"/>
</symbol>
<symbol id="Fm11-45-0" viewBox="4927 -4277 2330 1497">
 <path class="fil5" d="M5540 -3208l-391 0 0 217 391 0 0 -217zm0 217zm1718 -641l0 639c0,117 -95,212 -212,212l-1906 0c-116,0 -212,-95 -212,-212l0 -639 2330 0z"/>
 <polygon class="fil8" points="7257,-3631 4927,-3631 4927,-3949 7257,-3949 "/>
 <path class="fil5" d="M7257 -4065l0 116 -2330 0 0 -116c0,-116 95,-212 212,-212l1906 0c116,0 212,95 212,212z"/>
 <polygon class="fil10" points="5540,-2990 5148,-2990 5148,-3208 5540,-3208 "/>
</symbol>
<symbol id="Fm10-43-0" viewBox="5676 -6963 2330 1497">
 <path class="fil5" d="M6288 -5894l-391 0 0 217 391 0 0 -217zm0 217zm1718 -641l0 639c0,116 -95,212 -212,212l-1906 0c-116,0 -212,-95 -212,-212l0 -639 2330 0z"/>
 <polygon class="fil8" points="8006,-6317 5676,-6317 5676,-6635 8006,-6635 "/>
 <path class="fil5" d="M8006 -6751l0 116 -2330 0 0 -116c0,-117 95,-212 212,-212l1906 0c116,0 212,95 212,212z"/>
 <polygon class="fil10" points="6288,-5676 5897,-5676 5897,-5894 6288,-5894 "/>
</symbol>
<symbol id="Fm0-28-0" viewBox="4776 -18501 8322 8732">
 <path class="fil11 str1" d="M4829 -14135c0,-2382 1839,-4313 4108,-4313 2269,0 4108,1931 4108,4313 0,2382 -1839,4313 -4108,4313 -2269,0 -4108,-1931 -4108,-4313z"/>
</symbol>
<symbol id="Fm1-22-0" viewBox="11648 -20212 198 198">
 <path class="fil5" d="M11648 -20113c0,-55 44,-99 99,-99 55,0 99,44 99,99 0,55 -44,99 -99,99 -55,0 -99,-44 -99,-99z"/>
</symbol>
<symbol id="Fm10-27-0" viewBox="5869 -18222 3378 1978">
 <polygon class="fil5" points="9247,-16900 9247,-16582 9102,-16529 9102,-16882 9102,-16927 "/>
 <path class="fil18" d="M8840 -18126l407 1225 -145 -53 0 26 -4 -1c-9,-51 -33,-100 -73,-139 -30,-30 -65,-51 -102,-63l-189 -861c-167,-50 -219,-230 -219,-230l324 96z"/>
 <polygon class="fil5" points="9247,-16900 9102,-16927 9102,-16954 "/>
 <path class="fil1" d="M8920 -16558l0 -272c0,-49 -19,-98 -56,-135 -37,-37 -86,-56 -135,-56l-585 0c-49,0 -98,19 -135,56 -37,37 -56,86 -56,135l0 81c0,98 37,195 112,270 75,74 172,112 270,112l394 0c49,0 98,-19 135,-56 37,-37 56,-86 56,-135zm183 29l0 22c0,67 -26,135 -77,186 -52,51 -119,77 -186,77l-543 0c-135,0 -269,-51 -372,-154 -103,-103 -154,-237 -154,-372l0 -109c14,11 21,19 21,19l0 -124c13,-30 32,-59 56,-84 51,-51 119,-77 186,-77l806 0c28,0 57,5 84,14l39 177 136 25c3,15 4,31 4,47l0 353z"/>
 <path class="fil1" d="M9098 -16928l-136 -25 -39 -177c37,12 72,34 102,63 39,39 64,88 73,139z"/>
 <path class="fil6" d="M8920 -16830l0 272c0,49 -19,98 -56,135 -37,37 -86,56 -135,56l-394 0c-98,0 -195,-37 -270,-112 -74,-75 -112,-172 -112,-270l0 -81c0,-49 19,-98 56,-135 37,-37 86,-56 135,-56l585 0c49,0 98,19 135,56 37,37 56,86 56,135z"/>
 <path class="fil5" d="M7791 -16984l0 124c0,0 -7,-8 -21,-19l0 -3c0,-35 7,-70 21,-102z"/>
 <path class="fil4" d="M7791 -16985l0 2c-14,33 -21,67 -21,102l0 3c-35,-29 -111,-80 -213,-80 -101,0 -177,50 -212,79l0 -2c0,-35 -7,-71 -22,-104 0,0 93,-99 234,-99 141,0 234,99 234,99z"/>
 <path class="fil1" d="M7162 -16749l0 -81c0,-49 -18,-98 -56,-135 -37,-37 -86,-56 -135,-56l-585 0c-49,0 -98,19 -135,56 -37,37 -56,86 -56,135l0 272c0,49 19,98 56,135 37,37 86,56 135,56l394 0c98,0 195,-37 270,-112 75,-75 112,-172 112,-270zm183 -131l0 110c0,135 -52,269 -154,372 -103,102 -237,154 -372,154l-543 0c-67,0 -135,-26 -186,-77 -51,-52 -77,-119 -77,-186l0 -22 0 -353c0,-16 1,-31 4,-47l136 -25 39 -177c27,-9 55,-14 84,-14l806 0c67,0 134,26 186,77 24,24 43,52 55,82l0 125c0,0 8,-8 22,-19z"/>
 <path class="fil5" d="M7345 -16882l0 2c-14,12 -22,19 -22,19l0 -125c14,33 22,68 22,104z"/>
 <path class="fil6" d="M7162 -16830l0 81c0,98 -37,195 -112,270 -74,74 -172,112 -270,112l-394 0c-49,0 -98,-19 -135,-56 -37,-37 -56,-86 -56,-135l0 -272c0,-49 19,-98 56,-135 37,-37 86,-56 135,-56l585 0c49,0 98,19 135,56 37,37 56,86 56,135z"/>
 <path class="fil18" d="M6276 -18126l324 -96c0,0 -53,180 -219,230l-189 861c-37,13 -72,34 -102,63 -39,39 -64,88 -73,139l-4 1 0 -26 -145 53 407 -1225z"/>
 <path class="fil1" d="M6192 -17131l-39 177 -136 25c9,-51 33,-100 73,-139 30,-30 65,-51 102,-63z"/>
 <polygon class="fil5" points="6013,-16882 6013,-16529 5869,-16582 5869,-16900 6013,-16928 "/>
 <polygon class="fil5" points="6013,-16954 6013,-16928 5869,-16900 "/>
</symbol>
<symbol id="Fm8-38-0" viewBox="12328 -4495 1891 1891">
 <polygon class="fil12" points="14219,-4495 14219,-3154 13669,-3154 13669,-2604 12328,-2604 12328,-4495 "/>
 <polygon class="fil5" points="14219,-3154 13669,-2604 13669,-3154 "/>
</symbol>
<symbol id="Fm4-30-0" viewBox="14337 -22692 9917 8259">
 <path class="fil5" d="M19528 -16119c0,-128 -104,-232 -232,-232 -128,0 -232,104 -232,232 0,128 104,232 232,232 128,0 232,-104 232,-232zm4727 -489l0 634c0,340 -278,619 -619,619l-3549 0 -1583 0 -3548 0c-340,0 -619,-278 -619,-619l0 -634 9913 0 4 0z"/>
 <path class="fil29" d="M23690 -22043l-8790 0 0 4915 8790 0 0 -4915zm0 4915zm564 -4946l0 5466 -4 0 -9913 0 0 -5466c0,-340 278,-619 619,-619l8680 0c340,0 619,278 619,619z"/>
 <polygon class="fil6" points="23690,-17128 14900,-17128 14900,-22043 23690,-22043 "/>
 <path class="fil5" d="M20984 -14433l-1688 0 -1689 0c681,-278 897,-922 897,-922l1583 0c0,0 217,643 897,922z"/>
 <path class="fil8" d="M19295 -16351c128,0 232,104 232,232 0,128 -104,232 -232,232 -128,0 -232,-104 -232,-232 0,-128 104,-232 232,-232z"/>
</symbol>
<symbol id="Fm0-20-0" viewBox="11870 -20113 519 519">
 <path class="fil5" d="M11870 -19853c0,-143 116,-260 260,-260 143,0 260,116 260,260 0,143 -116,260 -260,260 -143,0 -260,-116 -260,-260z"/>
</symbol>
<symbol id="Fm0-58-0" viewBox="6065 -7212 8193 8596">
 <path class="fil11 str1" d="M6118 -2914c0,-2344 1810,-4245 4044,-4245 2233,0 4044,1901 4044,4245 0,2344 -1810,4245 -4044,4245 -2233,0 -4044,-1900 -4044,-4245z"/>
</symbol>
<symbol id="Fm2-32-0" viewBox="6255 -16948 5365 5627">
 <path class="fil11 str1" d="M6307 -14135c0,-1525 1177,-2760 2629,-2760 1452,0 2629,1236 2629,2760 0,1525 -1177,2760 -2629,2760 -1452,0 -2629,-1236 -2629,-2760z"/>
</symbol>
<symbol id="Fm0-19-0" viewBox="151699 -115176 9758 9758">
 <path class="fil30" d="M160444 -113273c-1644,-2135 -4707,-2534 -6842,-890 -2135,1644 -2533,4707 -889,6842 1644,2135 4707,2533 6842,890 2135,-1644 2533,-4707 890,-6842z"/>
</symbol>
<symbol id="Fm2-26-0" viewBox="21611 -3053 322 3345">
 <polygon class="fil8" points="21934,-82 21611,-82 21611,-2388 21934,-2388 "/>
 <polygon class="fil14" points="21934,-2477 21934,-2388 21611,-2388 21611,-2733 21666,-2733 21878,-2733 21934,-2733 "/>
 <polygon class="fil13" points="21934,-82 21773,291 21611,-82 "/>
 <polygon class="fil13" points="21878,-2733 21666,-2733 21666,-3053 21878,-3053 "/>
</symbol>
<symbol id="Fm7-41-0" viewBox="32724 -12800 4006 3901">
 <path class="fil0" d="M36697 -10786c-8,-7 -17,-14 -26,-20 -8,-7 -17,-14 -26,-20 -8,-7 -17,-14 -26,-20 -8,-7 -17,-14 -26,-20 -8,-7 -17,-14 -26,-20 -8,-7 -17,-14 -26,-20 -8,-7 -17,-14 -26,-20 -9,-7 -17,-14 -27,-20 -8,-7 -17,-14 -26,-20 -8,-7 -17,-14 -26,-20 -8,-7 -17,-14 -26,-20 -8,-7 -17,-14 -26,-20 -8,-7 -17,-14 -26,-20 -8,-7 -17,-14 -26,-20 -8,-7 -17,-14 -26,-20 -8,-7 -17,-14 -26,-20 -8,-7 -17,-14 -26,-20 -8,-7 -17,-14 -26,-20 -8,-7 -17,-14 -26,-20 -8,-7 -17,-14 -26,-20 -8,-7 -17,-14 -26,-20 -8,-7 -17,-14 -26,-20 -8,-7 -17,-14 -26,-20 -8,-7 -17,-14 -26,-20 -8,-7 -17,-14 -26,-20 -8,-7 -17,-14 -26,-20 -8,-7 -17,-14 -26,-20 -8,-7 -17,-14 -26,-20 -8,-7 -17,-14 -26,-20 -9,-7 -17,-14 -26,-20 -8,-7 -17,-14 -26,-20 -8,-7 -17,-14 -26,-20 -8,-7 -17,-14 -26,-20 -8,-7 -17,-14 -26,-20 -8,-7 -17,-14 -26,-20 -8,-7 -17,-14 -26,-20 -8,-7 -17,-14 -26,-20 -9,-7 -17,-14 -27,-20 -8,-7 -17,-14 -26,-20 -8,-7 -17,-14 -26,-20 -8,-7 -17,-14 -26,-20 -8,-7 -17,-14 -26,-20 -8,-7 -17,-14 -26,-20 -8,-7 -17,-14 -26,-20 -8,-7 -17,-14 -26,-20 -8,-7 -17,-14 -26,-20 -8,-7 -17,-14 -26,-20 -8,-7 -17,-14 -26,-20 -8,-7 -17,-14 -26,-20 -8,-7 -17,-14 -26,-20 -8,-7 -17,-14 -26,-20 -8,-7 -17,-14 -26,-20 -9,-7 -17,-14 -26,-20 -8,-7 -17,-14 -26,-20 -8,-7 -17,-14 -26,-20 -8,-7 -17,-14 -26,-20 -8,-7 -17,-14 -26,-20 -9,-7 -17,-14 -26,-20 -8,-7 -17,-14 -26,-20 -8,-7 -17,-14 -26,-20 -8,-7 -17,-14 -26,-20 -8,-7 -17,-14 -26,-20 -8,-7 -17,-14 -26,-20 -9,-7 -17,-14 -26,-20 -8,-7 -17,-14 -26,-20 -8,-7 -17,-14 -26,-20 -8,-7 -17,-14 -26,-20 -8,-7 -17,-14 -26,-20 -9,-7 -17,-14 -27,-20 -8,-7 -17,-14 -26,-20 -8,-7 -17,-14 -26,-20 -8,-7 -17,-14 -26,-20 -8,-7 -17,-14 -26,-20 -8,-7 -17,-14 -26,-20 -9,-7 -17,-14 -26,-20 -8,-7 -17,-14 -26,-20 -8,-7 -17,-14 -26,-20 -8,-7 -17,-14 -26,-20 -8,-7 -17,-14 -26,-20 -9,-7 -17,-14 -26,-20 -8,-7 -17,-14 -26,-20 -8,-7 -17,-14 -26,-20 -8,-7 -17,-14 -26,-20 -8,-7 -17,-14 -26,-20 -8,-7 -17,-14 -26,-20 -8,-7 -17,-14 -26,-20 -8,-7 -17,-14 -26,-20 -8,-7 -17,-14 -26,-20 -8,-7 -17,-14 -26,-20 -8,-7 -17,-14 -26,-20 -8,-7 -17,-14 -26,-20 -8,-7 -17,-14 -26,-20 -8,-7 -17,-14 -26,-20 -8,-7 -17,-14 -26,-20 -8,-7 -17,-14 -26,-20 -8,-7 -17,-14 -26,-20 -8,-7 -17,-14 -26,-20 -71,-60 -169,-83 -264,-83 -327,0 -621,164 -847,378 -73,73 -322,310 -322,412 0,26 20,55 46,67 7,8 16,15 26,20 7,8 16,15 26,20 7,8 16,15 26,20 7,8 16,15 26,20 7,8 16,15 26,20 7,8 16,15 26,20 7,8 16,15 26,20 7,8 16,15 26,20 7,8 16,15 26,20 7,8 16,15 26,20 7,8 16,15 26,20 7,8 16,15 26,20 7,8 16,15 26,20 7,8 16,15 26,20 7,8 16,15 26,20 5,5 10,10 16,14l-139 349c-40,96 -232,559 -232,830 0,121 45,204 120,254 8,7 17,14 26,20 8,7 17,14 26,20 8,7 17,14 26,20 8,7 17,14 26,20 8,7 17,14 26,20 8,7 17,14 26,20 8,7 17,14 26,20 8,7 17,14 26,20 8,7 17,14 26,20 8,7 17,14 26,20 8,7 17,14 26,20 8,7 17,14 26,20 8,7 17,14 26,20 8,7 17,14 26,20 8,7 17,14 26,20 8,7 17,14 26,20 8,7 17,14 26,20 8,7 17,14 26,20 8,7 17,14 26,20 8,7 17,14 26,20 8,7 17,14 26,20 8,7 17,14 26,20 8,7 17,14 26,20 8,7 17,14 26,20 8,7 17,14 26,20 8,7 17,14 26,20 8,7 17,14 26,20 8,7 17,14 26,20 8,7 17,14 26,20 8,7 17,14 26,20 8,7 17,14 26,20 8,7 17,14 26,20 8,7 17,14 26,20 8,7 17,14 26,20 8,7 17,14 26,20 8,7 17,14 26,20 8,7 17,14 26,20 8,7 17,14 26,20 8,7 17,14 26,20 8,7 17,14 26,20 8,7 17,14 26,20 8,7 17,14 26,20 8,7 17,14 26,20 8,7 17,14 26,20 8,7 17,14 26,20 8,7 17,14 26,20 8,7 17,14 26,20 8,7 17,14 26,20 8,7 17,14 26,20 8,7 17,14 26,20 8,7 17,14 26,20 8,7 17,14 26,20 8,7 17,14 26,20 8,7 17,14 26,20 8,7 17,14 26,20 8,7 17,14 26,20 8,7 17,14 26,20 8,7 17,14 26,20 8,7 17,14 26,20 8,7 17,14 26,20 8,7 17,14 26,20 8,7 17,14 26,20 8,7 17,14 26,20 8,7 17,14 26,20 8,7 17,14 26,20 2,2 4,3 7,5l616 0c815,0 1475,-660 1475,-1475l0 -387c-2,-1 -4,-3 -6,-4 -8,-7 -17,-14 -26,-20z"/>
</symbol>
<symbol id="Fm5-37-0" viewBox="15082 -13815 4893 4934">
 <path class="fil0" d="M19935 -12059c-9,-7 -17,-14 -26,-20 -9,-6 -17,-13 -26,-20 -9,-7 -17,-14 -26,-20 -9,-7 -17,-14 -26,-20 -9,-7 -17,-14 -26,-20 -9,-7 -17,-14 -26,-20 -9,-7 -17,-14 -26,-20 -9,-7 -17,-13 -26,-20 -9,-7 -17,-14 -26,-20 -9,-7 -17,-14 -26,-20 -9,-7 -17,-13 -26,-20 -9,-7 -17,-14 -26,-20 -9,-7 -17,-14 -26,-20 -9,-7 -17,-14 -26,-20 -9,-7 -17,-14 -26,-20 -9,-7 -17,-13 -26,-20 -9,-7 -17,-14 -26,-20 -9,-7 -17,-14 -26,-20 -9,-7 -17,-14 -26,-20 -9,-6 -17,-13 -26,-20 -9,-7 -17,-14 -26,-20 -9,-7 -17,-13 -26,-20 -9,-7 -17,-14 -26,-20 -9,-7 -17,-14 -26,-20 -9,-7 -17,-14 -26,-20 -9,-7 -17,-14 -26,-20 -9,-7 -17,-14 -26,-20 -9,-7 -17,-13 -26,-20 -9,-7 -17,-14 -26,-20 -9,-7 -17,-14 -26,-20 -9,-6 -17,-13 -26,-20 -9,-7 -17,-14 -26,-20 -9,-7 -17,-14 -26,-20 -9,-7 -17,-14 -26,-20 -9,-7 -17,-14 -26,-20 -9,-7 -17,-14 -26,-20 -9,-7 -17,-14 -26,-20 -9,-7 -17,-14 -26,-20 -9,-7 -17,-14 -26,-20 -9,-7 -17,-14 -26,-20 -9,-7 -17,-14 -26,-20 -9,-7 -17,-13 -26,-20 -9,-7 -17,-14 -26,-20 -9,-7 -17,-14 -26,-20 -9,-7 -17,-13 -26,-20 -9,-7 -17,-14 -26,-20 -9,-7 -17,-13 -26,-20 -9,-7 -17,-14 -26,-20 -9,-7 -17,-14 -26,-20 -9,-7 -17,-14 -26,-20 -9,-6 -17,-13 -26,-20 -9,-7 -17,-14 -26,-20 -9,-7 -17,-14 -26,-20 -9,-7 -17,-14 -26,-20 -9,-7 -17,-14 -26,-20 -9,-6 -17,-13 -26,-20 -9,-7 -17,-14 -26,-20 -9,-7 -17,-14 -26,-20 -9,-7 -17,-14 -26,-20 -9,-7 -17,-14 -26,-20 -9,-7 -17,-14 -26,-20 -9,-7 -17,-14 -26,-20 -9,-7 -17,-14 -26,-20 -9,-7 -17,-14 -26,-20 -9,-7 -17,-14 -26,-20 -9,-7 -17,-14 -26,-20 -9,-7 -17,-13 -26,-20 -9,-7 -17,-14 -26,-20 -9,-7 -17,-14 -26,-20 -9,-7 -17,-14 -26,-20 -9,-7 -17,-13 -26,-20 -9,-7 -18,-14 -28,-21 -63,-47 -130,-90 -202,-127 -253,-130 -539,-195 -857,-195 -410,0 -760,92 -1047,277 -288,185 -510,450 -666,797 -128,283 -192,581 -192,894 0,281 54,542 162,784 86,191 214,360 383,506 26,23 54,44 82,65 9,7 18,13 26,20 9,7 18,13 26,20 8,7 17,13 26,19 9,7 18,14 27,20 8,7 17,13 26,20 9,7 18,13 26,20 9,7 17,13 26,20 9,7 17,13 26,20 9,7 17,13 26,20 9,7 18,13 26,20 9,7 17,13 26,20 9,7 18,13 27,20 9,7 17,13 26,20 9,7 17,13 26,20 9,7 17,13 26,20 9,7 17,13 26,20 9,7 17,13 26,20 9,7 18,14 27,20 8,7 17,13 25,19 9,7 18,14 27,20 9,7 17,13 26,20 9,7 17,13 26,20 9,7 18,13 26,20 9,7 17,13 26,20 9,7 17,13 26,20 9,7 18,13 26,20 8,7 17,13 26,20 9,7 18,14 27,20 9,7 17,13 26,20 9,7 17,13 26,20 9,7 17,13 26,20 9,7 18,13 26,20 9,7 17,13 26,20 8,7 17,13 26,20 9,7 18,14 27,20 8,7 17,13 26,20 9,7 18,13 26,20 9,7 17,13 26,20 9,7 17,13 26,20 9,7 17,13 26,20 9,7 17,13 26,20 9,7 17,13 26,20 9,7 18,13 26,20 9,7 17,13 26,20 9,7 17,13 26,20 9,7 18,13 26,20 9,7 17,13 26,20 9,7 18,13 26,20 9,7 18,13 26,20 8,7 17,13 26,20 9,7 18,13 26,20 9,7 17,13 26,20 9,7 17,13 26,20 9,7 18,13 26,20 9,7 17,13 26,20 9,7 17,13 26,20 9,7 18,13 27,20 9,7 17,13 26,20 9,7 18,14 27,20 9,7 17,13 26,20 9,7 17,13 26,20 9,7 18,13 26,20 9,7 17,13 26,20 9,7 17,13 26,20 9,7 17,13 26,20 9,7 18,13 26,20 9,7 17,13 26,20 9,7 18,13 26,20 9,7 17,13 26,20 9,7 17,13 26,20 9,7 18,13 26,20 9,7 17,13 26,20 9,7 18,14 27,20 8,7 17,13 26,19 9,7 18,14 27,20 9,7 17,13 26,20 9,7 17,13 26,20 9,7 17,13 26,20 9,7 17,13 26,20 9,7 17,13 26,20 7,6 15,12 23,17l673 0c815,0 1475,-660 1475,-1475l0 -1672c-5,-4 -9,-7 -14,-11 -9,-7 -17,-14 -26,-20z"/>
</symbol>
<symbol id="Fm3-33-0" viewBox="31965 -21755 4782 4776">
 <path class="fil0" d="M36717 -19874c-9,-7 -17,-13 -26,-20 -9,-7 -17,-13 -26,-20 -9,-7 -17,-13 -26,-20 -9,-7 -18,-14 -27,-20 -9,-7 -17,-13 -26,-20 -9,-7 -17,-13 -26,-20 -9,-7 -17,-14 -26,-20 -9,-7 -17,-13 -26,-20 -9,-7 -17,-13 -26,-20 -9,-7 -17,-13 -26,-20 -9,-7 -17,-13 -26,-20 -9,-7 -17,-13 -26,-20 -9,-7 -17,-13 -26,-20 -9,-7 -17,-13 -26,-20 -9,-7 -17,-13 -26,-20 -9,-7 -18,-14 -27,-20 -9,-7 -17,-13 -26,-20 -9,-7 -17,-13 -26,-20 -9,-7 -17,-13 -26,-20 -9,-7 -17,-13 -26,-20 -9,-7 -18,-14 -27,-20 -9,-7 -17,-13 -26,-20 -9,-7 -17,-13 -26,-20 -9,-7 -17,-13 -26,-20 -9,-7 -17,-13 -26,-20 -9,-7 -17,-13 -26,-20 -9,-7 -17,-13 -26,-20 -9,-7 -17,-13 -26,-20 -9,-7 -17,-13 -26,-20 -9,-7 -18,-14 -26,-20 -9,-7 -17,-13 -26,-20 -9,-7 -17,-14 -26,-20 -9,-7 -17,-13 -26,-20 -9,-7 -17,-13 -26,-20 -9,-7 -18,-14 -27,-20 -9,-7 -17,-13 -26,-20 -9,-7 -17,-13 -26,-20 -9,-7 -18,-14 -27,-20 -9,-7 -17,-13 -26,-20 -9,-7 -17,-13 -26,-20 -9,-7 -17,-13 -26,-20 -9,-7 -17,-13 -26,-20 -9,-7 -17,-13 -26,-20 -9,-7 -17,-13 -26,-20 -9,-7 -17,-13 -26,-20 -9,-7 -18,-14 -26,-20 -9,-7 -17,-13 -26,-20 -9,-7 -17,-13 -26,-20 -9,-7 -17,-13 -26,-20 -9,-7 -17,-14 -26,-20 -9,-7 -17,-13 -26,-20 -9,-7 -17,-13 -26,-20 -9,-7 -17,-13 -26,-20 -9,-7 -17,-13 -26,-20 -9,-7 -17,-13 -26,-20 -9,-7 -18,-14 -26,-20 -9,-7 -17,-13 -26,-20 -9,-7 -17,-13 -26,-20 -9,-7 -17,-13 -26,-20 -9,-7 -18,-14 -26,-20 -9,-7 -17,-13 -26,-20 -9,-7 -17,-13 -26,-20 -9,-7 -17,-14 -26,-20 -9,-7 -17,-13 -26,-20 -9,-7 -17,-13 -26,-20 -9,-7 -17,-13 -26,-20 -9,-7 -18,-13 -26,-20 -9,-7 -17,-13 -26,-20 -9,-7 -17,-14 -26,-20 -9,-7 -17,-13 -26,-20 -9,-7 -17,-13 -26,-20 -9,-7 -17,-13 -26,-20 -9,-7 -17,-13 -26,-20 -9,-7 -18,-14 -26,-20 -9,-7 -17,-13 -26,-20 -9,-7 -17,-13 -26,-20 -9,-7 -18,-14 -26,-20 -286,-219 -645,-348 -1038,-348 -948,0 -1697,749 -1697,1697 0,566 267,1062 685,1369 9,7 17,13 26,20 9,7 17,13 26,20 9,7 17,13 26,20 9,7 17,14 26,20 9,7 17,13 26,20 9,7 18,14 27,20 9,7 17,13 26,20 9,7 17,13 26,20 9,7 17,13 26,20 9,7 17,14 26,20 9,7 17,13 26,20 9,7 17,13 26,20 9,7 17,13 26,20 9,7 17,13 26,20 9,7 17,13 26,20 9,7 17,13 26,20 9,7 17,13 26,20 9,7 17,13 26,20 9,7 18,14 26,20 9,7 17,13 26,20 9,7 17,13 26,20 9,7 18,14 27,20 9,7 17,13 26,20 9,7 18,14 26,20 9,7 17,13 26,20 9,7 18,14 27,20 9,7 17,13 26,20 9,7 17,13 26,20 9,7 17,13 26,20 9,7 17,13 26,20 9,7 18,14 27,20 9,7 17,13 26,20 9,7 17,14 26,20 9,7 17,13 26,20 9,7 17,13 26,20 9,7 17,13 26,20 9,7 17,13 26,20 9,7 17,14 26,20 9,7 17,13 26,20 9,7 17,13 26,20 9,7 17,13 26,20 9,7 18,14 27,20 9,7 17,13 26,20 9,7 17,13 26,20 9,7 17,13 26,20 9,7 17,13 26,20 9,7 18,14 27,20 9,7 17,13 26,19 9,7 17,13 26,20 9,7 18,14 27,20 9,7 17,13 26,20 9,7 17,13 26,20 9,7 17,13 26,20 9,7 17,13 26,20 9,7 18,14 26,20 9,7 17,13 26,20 9,7 17,13 26,20 9,7 17,14 26,20 9,7 17,14 26,20 9,7 17,13 26,20 9,7 18,14 27,20 9,7 17,13 26,20 9,7 17,13 26,20 9,7 18,14 26,20 9,7 17,13 26,20 9,7 17,13 26,20 9,7 18,14 27,20 9,7 17,13 26,20 9,7 18,14 27,20 9,7 17,13 26,20 9,7 17,13 26,20 9,7 17,13 26,20 9,7 17,13 26,20 9,7 17,13 26,20 9,7 17,13 26,20 9,7 17,13 26,20 9,7 17,13 26,20 9,7 17,13 26,20 9,7 17,13 26,20 9,7 18,14 26,20 9,7 17,13 26,20 9,7 17,13 26,20 9,7 18,14 26,20 9,7 17,13 26,20 9,7 17,13 26,20 8,6 16,12 24,18l371 0c815,0 1475,-661 1475,-1475l0 -1397c-1,-1 -2,-2 -4,-3 -9,-7 -17,-13 -26,-20z"/>
</symbol>
<symbol id="Fm7-71-0" viewBox="24495 -13285 2392 2392">
 <path class="fil6" d="M24734 -11691l280 0c-22,-101 -35,-208 -40,-319l-317 0c9,113 35,219 76,319zm280 -797l-280 0c-41,99 -68,206 -76,319l317 0c5,-111 18,-219 40,-319zm230 1334c-78,-102 -142,-231 -189,-377l-238 0c103,162 251,293 427,377zm-188 -1493c46,-146 110,-275 188,-377 -175,83 -323,215 -427,377l239 0zm555 0l0 -468c-164,44 -305,220 -391,468l391 0zm0 479l0 -319 -436 0c-22,99 -37,206 -41,319l477 0zm0 478l0 -319 -477 0c5,113 19,219 41,319l436 0zm0 628l0 -468 -391 0c86,248 227,424 391,468zm549 -468l-391 0 0 468c165,-44 305,-220 391,-468zm-391 -1117l391 0c-86,-248 -226,-424 -391,-468l0 468zm477 638l-477 0 0 319 436 0c23,-100 37,-206 41,-319zm-477 -159l477 0c-5,-113 -18,-220 -41,-319l-436 0 0 319zm794 638l-238 0c-47,146 -112,274 -189,377 175,-83 323,-215 427,-377zm-238 -1117l238 0c-104,-162 -251,-293 -427,-377 78,102 142,231 189,377zm397 638l-317 0c-5,111 -18,218 -40,319l280 0c41,-100 68,-206 76,-319zm-317 -159l317 0c-8,-113 -35,-220 -76,-319l-280 0c22,100 35,208 40,319zm480 0l0 159 -3 0c-39,597 -516,1074 -1114,1113l0 3 -159 0 0 -3c-597,-39 -1074,-516 -1114,-1113l-2 0 0 -159 2 0c40,-597 517,-1074 1114,-1114l0 -2 159 0 0 2c597,40 1075,517 1114,1114l3 0z"/>
</symbol>
<symbol id="Fm2-40-0" viewBox="23326 -16899 5272 5529">
 <path class="fil11 str1" d="M23379 -14135c0,-1498 1156,-2712 2583,-2712 1427,0 2583,1214 2583,2712 0,1498 -1156,2712 -2583,2712 -1426,0 -2583,-1214 -2583,-2712z"/>
</symbol>
<symbol id="Fm0-33-0" viewBox="4776 -18501 8322 8732">
 <path class="fil31 str2" d="M4829 -14135c0,-2382 1839,-4313 4108,-4313 2269,0 4108,1931 4108,4313 0,2382 -1839,4313 -4108,4313 -2269,0 -4108,-1931 -4108,-4313z"/>
 <path class="fil31 str3" d="M5518 -14135c0,-1982 1531,-3589 3419,-3589 1888,0 3419,1607 3419,3589 0,1982 -1531,3589 -3419,3589 -1888,0 -3419,-1607 -3419,-3589z"/>
 <path class="fil31 str2" d="M6307 -14135c0,-1525 1177,-2760 2629,-2760 1452,0 2629,1236 2629,2760 0,1525 -1177,2760 -2629,2760 -1452,0 -2629,-1236 -2629,-2760z"/>
</symbol>
<symbol id="Fm2-55-0" viewBox="20091 -7822 9228 9682">
 <path class="fil31 str2" d="M20144 -2981c0,-2644 2042,-4788 4561,-4788 2519,0 4561,2144 4561,4788 0,2644 -2042,4788 -4561,4788 -2519,0 -4561,-2144 -4561,-4788z"/>
 <path class="fil31 str3" d="M20910 -2981c0,-2201 1699,-3985 3796,-3985 2096,0 3796,1784 3796,3985 0,2201 -1699,3985 -3796,3985 -2096,0 -3796,-1784 -3796,-3985z"/>
 <path class="fil31 str2" d="M21786 -2981c0,-1692 1307,-3064 2919,-3064 1612,0 2919,1372 2919,3064 0,1692 -1307,3064 -2919,3064 -1612,0 -2919,-1372 -2919,-3064z"/>
</symbol>
<symbol id="Fm3-63-0" viewBox="6065 -7212 8193 8596">
 <path class="fil31 str2" d="M6118 -2914c0,-2344 1810,-4245 4044,-4245 2233,0 4044,1901 4044,4245 0,2344 -1810,4245 -4044,4245 -2233,0 -4044,-1900 -4044,-4245z"/>
 <path class="fil31 str3" d="M6796 -2914c0,-1951 1507,-3533 3365,-3533 1858,0 3365,1582 3365,3533 0,1951 -1507,3533 -3365,3533 -1858,0 -3365,-1582 -3365,-3533z"/>
 <path class="fil31 str2" d="M7574 -2914c0,-1500 1159,-2717 2588,-2717 1429,0 2588,1216 2588,2717 0,1500 -1159,2717 -2588,2717 -1429,0 -2588,-1216 -2588,-2717z"/>
</symbol>
<symbol id="Fm1-41-0" viewBox="21873 -18424 8177 8579">
 <path class="fil31 str2" d="M21926 -14135c0,-2340 1807,-4237 4036,-4237 2229,0 4036,1897 4036,4237 0,2340 -1807,4237 -4036,4237 -2229,0 -4036,-1897 -4036,-4237z"/>
 <path class="fil31 str3" d="M22603 -14135c0,-1947 1504,-3526 3359,-3526 1855,0 3359,1579 3359,3526 0,1947 -1504,3526 -3359,3526 -1855,0 -3359,-1579 -3359,-3526z"/>
 <path class="fil31 str2" d="M23379 -14135c0,-1498 1156,-2712 2583,-2712 1427,0 2583,1214 2583,2712 0,1498 -1156,2712 -2583,2712 -1426,0 -2583,-1214 -2583,-2712z"/>
</symbol>
 <g id="Layer_x0020_1">
  <metadata id="CorelCorpID_0Corel-Layer"/>
  <g id="_1007088800">
   <polygon class="fil32" points="561,5521 636,5583 468,5786 436,5759 533,5641 523,5633 424,5750 393,5723 "/>
   <polygon class="fil32" points="4457,5521 4532,5583 4364,5786 4332,5759 4429,5641 4419,5633 4321,5750 4290,5723 "/>
   <path class="fil33" d="M360 5824c-1,5 0,9 3,11 3,2 8,3 11,1l84 -40 -78 -63 -20 90z"/>
   <path class="fil33" d="M4256 5824c-1,5 0,9 3,11 3,2 8,3 11,1l84 -40 -78 -63 -20 90z"/>
   <path class="fil34" d="M604 5491l54 45c6,5 7,13 2,18l-16 18 -75 -63 14 -17c6,-6 15,-7 20,-1z"/>
   <path class="fil34" d="M4501 5491l54 45c6,5 7,13 2,18l-16 18 -75 -63 14 -17c6,-6 15,-7 20,-1z"/>
   <path class="fil32" d="M467 5298l289 0c23,0 45,9 59,25 16,15 25,36 25,59l0 348c0,22 -9,44 -25,59 -15,15 -36,25 -59,25l-289 0 -1 0 4 -2 27 -31 259 0c13,0 27,-6 36,-16 9,-9 15,-21 15,-35l0 -348c0,-15 -6,-27 -15,-36 -9,-9 -22,-15 -36,-15l-289 0c-15,0 -27,6 -36,15 -9,9 -15,21 -15,36l0 284 -33 40 0 -324c0,-23 9,-45 25,-59 15,-16 36,-25 59,-25z"/>
   <path class="fil32" d="M4363 5298l289 0c23,0 45,9 59,25 16,15 25,36 25,59l0 348c0,22 -9,44 -25,59 -15,15 -36,25 -59,25l-289 0 -1 0 4 -2 27 -31 259 0c13,0 27,-6 36,-16 9,-9 15,-21 15,-35l0 -348c0,-15 -6,-27 -15,-36 -9,-9 -22,-15 -36,-15l-289 0c-15,0 -27,6 -36,15 -9,9 -15,21 -15,36l0 284 -33 40 0 -324c0,-23 9,-45 25,-59 15,-16 36,-25 59,-25z"/>
   <polygon class="fil35" points="3219,4304 3176,4260 3462,3973 3506,4017 "/>
   <polygon class="fil35" points="4503,4304 4461,4260 4746,3973 4790,4017 "/>
   <polygon class="fil36" points="3128,4352 3155,4283 3198,4327 "/>
   <polygon class="fil37" points="4413,4352 4439,4283 4482,4327 "/>
   <polygon class="fil35" points="3327,4050 3125,4050 3125,4164 2992,4164 2992,4515 3337,4515 3337,4237 3384,4191 3384,4507 3384,4554 2945,4554 2945,4122 3076,4011 3366,4011 "/>
   <polygon class="fil35" points="4611,4050 4409,4050 4409,4164 4276,4164 4276,4515 4621,4515 4621,4237 4668,4191 4668,4507 4668,4554 4229,4554 4229,4122 4360,4011 4650,4011 "/>
   <polygon class="fil38" points="3516,4008 3472,3963 3497,3938 3540,3983 "/>
   <polygon class="fil39" points="4800,4008 4757,3963 4781,3938 4825,3983 "/>
   <polygon class="fil38" points="566,4309 537,4315 543,4287 "/>
   <path class="fil37" d="M608 4302l-35 6 -29 -28 7 -38c17,2 30,9 39,18 10,10 16,25 18,42z"/>
   <path class="fil35" d="M621 4299l-8 2c-2,-19 -9,-35 -19,-45 -10,-11 -25,-17 -42,-19l1 -4 226 -231 68 67 -226 230z"/>
   <polygon class="fil35" points="671,4069 501,4069 501,4164 391,4164 391,4458 680,4458 680,4266 718,4226 718,4451 718,4490 352,4490 352,4128 460,4037 704,4037 "/>
   <polygon class="fil35" points="3046,5415 3169,5302 3433,5683 3380,5732 3143,5389 3126,5404 3363,5748 3310,5796 "/>
   <path class="fil35" d="M3459 5894c7,3 13,2 18,-2 6,-6 8,-13 7,-20l-37 -169 -124 119 136 71z"/>
   <path class="fil38" d="M3011 5325l88 -82c9,-9 22,-7 30,3l23 33 -123 114 -22 -32c-8,-11 -7,-28 3,-37z"/>
   <path class="fil38" d="M3158 2624l0 0c0,-8 6,-12 11,-12 8,0 12,4 12,12l0 194c0,6 -4,11 -12,11 -6,0 -11,-6 -11,-11l0 -194z"/>
   <path class="fil38" d="M3231 2624l0 0c0,-8 4,-12 12,-12 6,0 11,4 11,12l0 194c0,6 -6,11 -11,11 -8,0 -12,-6 -12,-11l0 -194z"/>
   <path class="fil38" d="M3303 2624l0 0c0,-8 6,-12 11,-12 7,0 12,4 12,12l0 194c0,6 -6,11 -12,11 -6,0 -11,-6 -11,-11l0 -194z"/>
   <path class="fil35" d="M3084 2624c0,-10 6,-18 16,-18 9,0 15,8 15,18l0 214 80 269 97 0 78 -269 0 -214c0,-10 8,-18 16,-18 9,0 18,8 18,18l0 217 -2 7c-194,663 -123,663 -317,0l0 -7 0 -217z"/>
   <path class="fil40" d="M2093 2673l0 0c3,-6 13,-6 19,0 3,4 3,12 0,18l-162 155c-6,6 -12,6 -19,0 -3,-6 -3,-13 0,-17l162 -156z"/>
   <path class="fil40" d="M2150 2729l0 0c6,-3 16,-3 19,0 6,6 6,13 0,20l-159 155c-6,3 -13,3 -20,0 -6,-7 -6,-15 0,-20l160 -155z"/>
   <path class="fil40" d="M2209 2787l0 0c7,-3 13,-3 19,0 6,6 6,13 0,19l-161 155c-3,4 -13,4 -17,0 -6,-6 -6,-13 0,-19l159 -155z"/>
   <path class="fil35" d="M2091 3318l0 0c8,0 13,7 13,13 0,8 -6,15 -13,15l-401 0c-8,0 -13,-7 -13,-15 0,-7 6,-13 13,-13l401 0z"/>
   <path class="fil35" d="M2029 2612c8,-7 19,-7 27,0 8,7 8,18 0,26l-179 173 -155 277 80 77 284 -152 179 -172c8,-8 19,-8 27,0 6,8 6,19 0,25l-180 174 -6 4 -518 276c-4,2 -6,2 -10,2l-1 0c-2,0 -4,0 -8,-2 -3,-3 -3,-2 -8,-8 0,-1 -2,-3 -2,-8l0 -2c0,-1 2,-3 2,-7l286 -505 2 -3 180 -175z"/>
   <path class="fil35" d="M673 2759l0 0 -385 385c-2,3 -4,6 -6,10l-50 152c-1,2 -2,4 -2,8l0 1c0,6 3,12 8,17 4,6 11,8 18,8 2,0 5,-1 8,-1l152 -51c3,-1 8,-3 10,-7l385 -385 -137 -136z"/>
   <path class="fil35" d="M5952 5247l0 0 -385 385c-2,3 -4,6 -6,10l-50 152c-1,2 -2,4 -2,8l0 1c0,6 3,12 8,17 4,6 11,8 18,8 2,0 5,-1 8,-1l152 -51c3,-1 8,-3 10,-7l385 -385 -137 -136z"/>
   <polygon class="fil35" points="697,2744 697,2744 833,2881 853,2861 717,2723 "/>
   <polygon class="fil35" points="5975,5232 5975,5232 6112,5369 6132,5349 5996,5211 "/>
   <path class="fil41" d="M870 2612l0 0c55,0 98,45 98,98 0,22 -7,44 -20,59l-38 39 -137 -137 39 -39c16,-12 37,-20 58,-20z"/>
   <path class="fil41" d="M6149 5100l0 0c55,0 98,45 98,98 0,22 -7,44 -20,59l-38 39 -137 -137 39 -39c16,-12 37,-20 58,-20z"/>
   <polygon class="fil39" points="734,2706 871,2844 890,2824 754,2687 "/>
   <polygon class="fil39" points="6012,5194 6150,5332 6169,5312 6032,5175 "/>
   <polygon class="fil38" points="735,2868 735,2868 417,3187 378,3148 696,2828 "/>
   <polygon class="fil38" points="6013,5356 6013,5356 5695,5675 5656,5636 5974,5316 "/>
   <path class="fil42" d="M401 3248l0 0 0 1 -1 0c-4,2 -18,10 -50,21 -2,1 -7,3 -11,4l-46 -45c2,-4 3,-9 4,-13 12,-31 19,-45 22,-49l0 -1 3 -3 82 83 -3 2z"/>
   <path class="fil42" d="M5680 5736l0 0 0 1 -1 0c-4,2 -18,10 -50,21 -2,1 -7,3 -11,4l-46 -45c2,-4 3,-9 4,-13 12,-31 19,-45 22,-49l0 -1 3 -3 82 83 -3 2z"/>
   <polygon class="fil35" points="2909,1949 2909,1949 3054,2093 2875,2113 2893,1932 "/>
   <polygon class="fil35" points="4163,3143 4163,3143 4307,3287 4128,3307 4146,3126 "/>
   <polygon class="fil43" points="3003,2076 3003,2076 2909,1983 2899,2086 "/>
   <polygon class="fil37" points="4257,3270 4257,3270 4163,3177 4153,3280 "/>
   <polygon class="fil35" points="3383,1428 3383,1428 3434,1375 3611,1552 3544,1621 3543,1620 3086,2076 2909,1900 3382,1426 "/>
   <polygon class="fil35" points="4636,2622 4636,2622 4688,2569 4864,2746 4797,2815 4796,2814 4339,3270 4163,3094 4635,2620 "/>
   <polygon class="fil38" points="3543,1587 3543,1587 3544,1588 3581,1552 3434,1407 3399,1443 "/>
   <polygon class="fil39" points="4796,2781 4796,2781 4797,2782 4834,2746 4688,2601 4652,2637 "/>
   <polygon class="fil44" points="3086,2043 3526,1603 3458,1535 3382,1460 2943,1900 "/>
   <polygon class="fil45" points="3086,2043 3526,1603 3458,1535 3014,1971 "/>
   <polygon class="fil44" points="4339,3237 4779,2797 4711,2729 4635,2654 4196,3094 "/>
   <polygon class="fil36" points="4339,3237 4779,2797 4711,2729 4268,3165 "/>
   <polygon class="fil35" points="265,1949 265,1949 409,2093 230,2113 248,1932 "/>
   <polygon class="fil35" points="5543,4437 5543,4437 5687,4581 5509,4601 5527,4420 "/>
   <polygon class="fil43" points="359,2076 359,2076 265,1983 257,2086 "/>
   <polygon class="fil43" points="5637,4564 5637,4564 5543,4471 5535,4574 "/>
   <polygon class="fil35" points="890,1612 890,1612 723,1444 790,1375 968,1552 899,1621 "/>
   <polygon class="fil35" points="6169,4100 6169,4100 6001,3932 6068,3863 6247,4040 6178,4109 "/>
   <polygon class="fil39" points="755,1444 755,1444 899,1588 936,1552 790,1407 "/>
   <polygon class="fil39" points="6034,3932 6034,3932 6178,4076 6214,4040 6068,3895 "/>
   <path class="fil35" d="M783 1555l0 0c1,1 2,1 3,2 1,1 1,2 2,4l84 86 -6 6 -423 423 -179 -176c144,-144 288,-288 431,-431l87 86z"/>
   <path class="fil35" d="M6061 4043l0 0c1,1 2,1 3,2 1,1 1,2 2,4l84 86 -6 6 -423 423 -179 -176c144,-144 288,-288 431,-431l87 86z"/>
   <path class="fil38" d="M443 2045l396 -398 -64 -65 -252 251c-4,4 -12,4 -17,0 -4,-4 -4,-10 0,-16l254 -252 -65 -65 -398 399 145 145z"/>
   <path class="fil38" d="M5722 4533l396 -398 -64 -65 -252 251c-4,4 -12,4 -17,0 -4,-4 -4,-10 0,-16l254 -252 -65 -65 -398 399 145 145z"/>
   <path class="fil39" d="M6010 1952l11 3 101 27c10,3 20,-4 20,-15l0 -3 -25 -103 -2 -10 -2 -11 -2 -8 -10 19 -8 18c-1,3 -4,7 -7,8l-22 11 -6 2c-2,1 -4,4 -6,7l-3 6 -12 21c-1,2 -4,4 -7,7l-19 8 -20 8 9 3 10 2z"/>
   <polygon class="fil35" points="5696,1651 5733,1688 5973,1937 6024,1887 5784,1639 5805,1619 6045,1866 6097,1816 5857,1567 5821,1531 "/>
   <path class="fil46" d="M5751 1490l-97 94c-3,2 -4,7 -4,11 0,3 1,8 4,11l20 20 124 -118 -26 -27c-6,-6 -15,2 -21,9z"/>
   <polygon class="fil35" points="5799,1821 5846,1866 5820,1892 5780,1850 5761,1868 5802,1910 5782,1930 5735,1884 5716,1903 5762,1948 5735,1976 5697,1939 5679,1957 5716,1994 5695,2015 5647,1964 5628,1983 5677,2033 5651,2057 5556,1960 5770,1750 5744,1725 5505,1959 5651,2109 5890,1875 5817,1802 "/>
   <polygon class="fil35" points="6096,1431 6191,1528 6159,1559 6102,1505 6085,1523 6141,1577 6120,1597 6085,1564 6066,1583 6101,1615 6074,1643 6006,1579 5986,1597 6056,1661 6035,1681 6015,1662 5996,1680 6043,1725 6243,1528 6097,1380 5894,1577 5919,1603 "/>
   <path class="fil38" d="M2146 1754l-130 -130 -98 -98 -229 98 -131 391 34 32 214 -214c-21,-36 -17,-82 13,-112 37,-36 95,-36 131,0 36,37 36,94 0,131 -30,30 -77,35 -112,13l-214 214 32 34 392 -131 97 -229z"/>
   <path class="fil39" d="M2146 1754l-114 -114 -81 82c36,37 36,94 0,131 -30,30 -77,35 -112,13l-214 214 32 34 392 -131 97 -229z"/>
   <polygon class="fil35" points="2004,1375 2297,1669 2199,1701 1970,1472 "/>
   <polygon class="fil35" points="4777,1754 4548,1526 4320,1624 4189,2015 4288,2112 4680,1983 "/>
   <polygon class="fil35" points="4634,1375 4928,1668 4829,1701 4601,1472 "/>
   <path class="fil39" d="M4300 2060l-12 -12 202 -201c25,12 57,8 78,-15 27,-27 27,-70 0,-97 -27,-27 -71,-27 -98,0 -21,21 -26,52 -12,78l-203 202 -11 -12 114 -345 181 -77 184 184 -77 180 -345 115z"/>
   <path class="fil43" d="M1985 3922l44 31 3 2 46 32c10,7 10,23 0,38l-29 44 -64 -45 -2 -2 -64 -46 29 -41c10,-16 26,-21 37,-13z"/>
   <path class="fil35" d="M1909 3994l63 45 2 1 63 45c-85,124 -169,248 -252,372 -20,-15 -107,69 -127,55 -22,-16 22,-130 0,-145l252 -372z"/>
   <polygon class="fil39" points="1617,4530 2238,4530 2238,4587 1617,4587 "/>
   <path class="fil39" d="M1669 4472c0,3 1,7 3,8 2,2 6,2 8,1l59 -32 -58 -42 -12 66z"/>
   <polygon class="fil40" points="1971,4051 1728,4412 1716,4403 1959,4042 1965,4047 1968,4049 "/>
   <path class="fil32" d="M2039 5247l120 108 9 8 -7 11 -306 449c-40,22 -90,47 -135,70 -2,1 -4,1 -7,2 -6,0 -12,-1 -18,-7 -4,-4 -8,-11 -8,-18 -1,-3 0,-6 0,-9 6,-30 21,-152 31,-166l304 -447 8 -11 9 9z"/>
   <polygon class="fil33" points="1813,5765 2052,5409 2014,5376 1776,5732 "/>
   <path class="fil47" d="M1731 5741l-28 137 112 -58c-8,-33 -50,-73 -84,-79z"/>
   <polygon class="fil39" points="5950,380 5950,380 6068,489 6083,473 5967,362 "/>
   <path class="fil38" d="M6091 266l0 0c45,-1 83,35 84,79 1,18 -4,36 -15,49l-31 34 -117 -111 31 -34c13,-10 30,-17 48,-18z"/>
   <polygon class="fil35" points="5981,347 6098,457 6114,440 5996,331 "/>
   <path class="fil35" d="M5936 394l-316 315c-2,2 -3,6 -4,9l-42 124c-2,8 0,16 6,21 3,4 9,7 15,7 2,0 4,-1 7,-1l124 -42c3,-1 7,-2 9,-4l315 -316 -112 -112z"/>
   <path class="fil35" d="M4789 741c10,9 22,15 36,15 30,0 54,-23 55,-52l7 -411c0,0 1,-7 1,-9 0,-35 -27,-64 -61,-64l-125 -2c-35,-1 -64,27 -64,61l0 9 -8 411c0,29 23,54 52,55 13,0 27,-6 36,-13 10,9 22,15 36,15 13,0 27,-6 36,-13z"/>
   <polygon class="fil39" points="4749,920 4859,775 4637,775 "/>
   <path class="fil38" d="M4232 734c-4,13 -2,29 8,39 9,11 22,15 35,8l116 -56 -109 -125 -49 134z"/>
   <path class="fil35" d="M4702 333l-79 -90c-12,-15 -32,-15 -45,0l-268 307 0 1 124 142 0 -1 268 -307c12,-15 12,-37 0,-51z"/>
   <path class="fil36" d="M4808 701l6 -341 36 1 -6 340c0,10 -8,18 -18,18 -10,0 -18,-8 -18,-18z"/>
   <path class="fil44" d="M4737 700l6 -341 36 1 -6 340c0,10 -9,18 -18,18 -10,0 -18,-9 -18,-18z"/>
   <path class="fil36" d="M4665 698l6 -340 36 1 -6 340c0,10 -9,18 -18,18 -10,0 -18,-9 -18,-19z"/>
   <path class="fil35" d="M660 391l0 0 -315 315c-1,2 -3,4 -5,8l-41 124c-1,2 -1,4 -1,7 0,6 2,11 6,15 4,4 10,6 14,6l7 0 124 -42c3,-1 7,-2 8,-4l315 -315 -112 -112z"/>
   <path class="fil35" d="M5939 2879l0 0 -315 315c-1,2 -3,4 -5,8l-41 124c-1,2 -1,4 -1,7 0,6 2,11 6,15 4,4 10,6 14,6l7 0 124 -42c3,-1 7,-2 8,-4l315 -315 -112 -112z"/>
   <polygon class="fil39" points="679,379 679,379 791,490 806,475 695,362 "/>
   <polygon class="fil39" points="5958,2867 5958,2867 6069,2978 6085,2963 5973,2850 "/>
   <path class="fil38" d="M821 272l0 0c45,0 80,36 80,80 0,18 -7,35 -17,48l-31 31 -113 -112 32 -32c13,-10 30,-16 48,-16z"/>
   <path class="fil38" d="M6099 2760l0 0c45,0 80,36 80,80 0,18 -7,35 -17,48l-31 31 -113 -112 32 -32c13,-10 30,-16 48,-16z"/>
   <polygon class="fil35" points="709,347 821,460 837,443 726,332 "/>
   <polygon class="fil35" points="5988,2835 6099,2948 6115,2932 6005,2820 "/>
   <path class="fil48" d="M438 791l0 0 -1 0 0 1c-3,1 -15,8 -40,17 -3,1 -7,2 -10,3l-37 -37c1,-3 2,-7 3,-10 9,-26 15,-37 18,-40l0 -1 2 -2 67 66 -2 3z"/>
   <path class="fil48" d="M5716 3279l0 0 -1 0 0 1c-3,1 -15,8 -40,17 -3,1 -7,2 -10,3l-37 -37c1,-3 2,-7 3,-10 9,-26 15,-37 18,-40l0 -1 2 -2 67 66 -2 3z"/>
   <path class="fil35" d="M2160 336c-51,-51 -89,-44 -89,-44l-179 179 -204 204 -36 169 169 -36 204 -204 179 -179c0,0 8,-39 -44,-89z"/>
   <polygon class="fil49" points="2122,400 1812,696 1797,681 2108,384 "/>
   <path class="fil38" d="M3429 479l15 -171c0,-1 0,-3 -1,-4l-27 -68c-1,-1 -1,-2 -2,-3 -2,-2 -4,-3 -8,-3 -2,-1 -6,0 -8,2 -1,1 -2,2 -2,2l-38 63c-1,2 -1,3 -1,6l-16 178 88 0z"/>
   <path class="fil50" d="M3093 387l50 26c0,0 -16,32 -32,67l-57 0c17,-41 39,-93 39,-93z"/>
   <path class="fil39" d="M3151 258c0,0 19,40 -20,54 -39,12 -32,63 -32,63l50 26c71,-65 2,-142 2,-142z"/>
   <polygon class="fil40" points="3219,313 3294,313 3294,479 3219,479 "/>
   <path class="fil35" d="M3043 490l395 0 0 371c0,26 -21,47 -47,47l-299 0c-27,0 -49,-22 -49,-49l0 -369z"/>
   <path class="fil35" d="M3427 289c-4,2 -18,6 -26,4 -12,0 -21,-4 -26,-9l30 -50 21 55z"/>
  </g>
 </g>
</svg>
